<?xml version="1.0" encoding="utf-8"?>
<!-- Generator: Adobe Illustrator 22.0.1, SVG Export Plug-In . SVG Version: 6.00 Build 0)  -->
<svg version="1.1" id="Layer_1" xmlns="http://www.w3.org/2000/svg" xmlns:xlink="http://www.w3.org/1999/xlink" x="0px" y="0px"
	 viewBox="0 0 150 150" style="enable-background:new 0 0 150 150;" xml:space="preserve">
<style type="text/css">
	.st0{fill:none;}
	.st1{fill:#EB462E;}
	.st2{fill:#EA462F;}
	.st3{fill:#666666;}
	.st4{fill:#686868;}
	.st5{fill:#444444;}
</style>
<title>cl1</title>
<rect class="st0" width="150" height="150"/>
<path class="st1" d="M134.4,74c2.9-2.2,5.6-3.3,8.8-2c2.4,0.8,4.1,3,4.1,5.6c0.1,5.1,0,10.1,0,15.2c0,0.9-0.3,1.2-1.2,1.2
	c-5.2,0.2-5.2,0.2-5.2-4.9c0-2.5,0.1-5.1,0-7.6c-0.1-2.9-1.3-4.5-3.3-4.4s-3.3,1.7-3.3,4.6c0,3.6,0,7.2,0,10.8
	c0,1.1-0.3,1.6-1.5,1.5c-1.6-0.1-3.6,0.6-4.6-0.3s-0.3-3-0.3-4.6c0-7.7,0-15.4,0-23.1c0-1.2,0.2-1.6,1.5-1.6c5,0,5-0.1,5,5L134.4,74
	z"/>
<path class="st1" d="M61.1,87.3c-1,1.8-2,3.4-2.7,5c-0.4,1.2-1.5,1.8-2.7,1.6c-1.3-0.1-2.7-0.1-4,0c-1.1,0-1.2-0.4-0.6-1.2
	c2-3.2,4-6.5,6.1-9.7c0.5-0.6,0.5-1.4,0-2c-2-2.9-3.8-5.8-6-9c2.5,0,4.7,0,6.9,0c0.7,0,0.8,0.6,1.1,1c0.8,1.4,1.5,2.8,2.3,4.3
	c0.8-1.4,1.5-2.5,2.1-3.8c0.4-1.1,1.6-1.8,2.8-1.6c1.6,0.1,3.2,0,4.7,0c0.3,0.7-0.2,1.1-0.5,1.4c-1.5,2.4-3,4.8-4.6,7.1
	c-0.9,1-0.9,2.4,0,3.4c1.9,2.8,3.7,5.7,5.5,8.6c0.7,1.1,0.5,1.4-0.8,1.4c-5.3,0.1-5.3,0.1-8-4.4C62.1,88.9,61.7,88.3,61.1,87.3z"/>
<path class="st1" d="M114.2,83.2c0-1.7-0.1-3.4,0-5.1c0.1-1.1-0.3-1.7-1.5-1.5c-1.6,0.3-1.8-0.6-1.8-1.9s-0.2-2.6,1.8-2.2
	c1,0.2,1.5-0.3,1.4-1.4c-0.1-1.4,0-2.8,0-4.2c0-0.8,0.3-1.2,1.1-1.1h0.5c4.8-0.1,4.8-0.1,4.8,4.7c0,2.2,0,2.2,2.4,2.2
	c0.6,0,1.6-0.4,1.7,0.4c0.3,1.1,0.3,2.2,0,3.3c-0.2,0.7-1.4,0.4-2.1,0.3c-1.5-0.2-2.1,0.3-2,1.9c0.1,2.6,0.1,5.2,0,7.8
	c0,1.6,0.6,2.5,2.3,2.4c1.3-0.1,1.8,0.3,1.7,1.6c-0.2,3.6,0.9,3.7-3.7,3.7H120c-3.8-0.1-5.7-2-5.7-5.8
	C114.2,86.5,114.2,84.8,114.2,83.2z"/>
<path class="st2" d="M80.3,74c1.6-1,3.4-1.7,5.2-2.1c1-0.1,1.1,0.2,1.1,0.9c0,0.1,0,0.2,0,0.4c0,1.4,0.4,2.9-0.2,4s-2.3,0.7-3.5,1
	c-1.5,0.3-2.5,1.7-2.3,3.2c0,3.6-0.1,7.2,0,10.8c0,1.4-0.4,1.7-1.7,1.7c-4.8,0-4.8,0-4.8-4.8c0-5.1,0.1-10.1,0-15.2
	c0-1.7,0.5-2.2,2.1-2c0.8,0.1,1.5,0.1,2.3,0C79.8,71.8,80.6,72.1,80.3,74z"/>
<path class="st3" d="M95.3,113.7c0,1,0.1,2,0,3c0,0.6,0.4,1.5-0.5,1.6c-0.8,0-1.9,0.8-2.4-0.6c-0.2-0.6-0.5-0.4-0.8-0.2
	c-2.7,1.9-6.4,1.7-8.9-0.4c-3-2.3-3.6-5.6-3.1-9.1c0.8-5.7,6.1-9,11.3-7c1.3,0.5,2.4,1.3,3.2,2.4c1.5,1.9,1.1,2.7-1.2,3.2
	c-0.5,0.1-0.8,0.1-1-0.4c-1-2.1-2.7-3.2-5-2.6s-3.3,2.5-3.7,4.7s0,4.5,1.8,6.2c1.7,1.6,4.5,1.5,6.1-0.2c0.2-0.2,0.4-0.5,0.6-0.8
	c0.7-1.4,0.5-1.7-1-1.8c-0.4,0-0.8,0-1.2,0c-1.2,0.2-1.6-0.3-1.6-1.6s0.6-1.4,1.6-1.4c1.6,0.1,3.2,0.1,4.8,0c0.9,0,1.2,0.3,1.2,1.2
	C95.3,111.3,95.3,112.5,95.3,113.7z"/>
<path class="st3" d="M59.4,109.6c0-2.4,0.1-4.8,0-7.2c0-1.2,0.3-1.5,1.5-1.5s1.8,0.3,1.6,1.6c0,0.3,0,0.6,0,0.9c0,1-0.4,2.3,0.2,2.9
	c0.7,0.8,1.6-0.5,2.5-0.6c3.2-0.5,5.5,1.2,5.5,4.5c0,2.3-0.1,4.6,0,6.9c0.1,1.4-0.6,1.3-1.6,1.4s-1.6-0.2-1.5-1.4
	c0.1-1.9,0-3.8,0-5.6s-0.8-2.8-2.2-2.8c-1.5,0-2.8,1.2-2.9,2.7c-0.1,1.9-0.1,3.9,0,5.8c0.1,1.4-0.8,1.3-1.7,1.3s-1.5-0.1-1.5-1.3
	C59.4,114.6,59.4,112.1,59.4,109.6z"/>
<path class="st3" d="M133.3,112.2v4.2c0,1.8-1.4,2.7-2.8,1.7c-0.4-0.4-1-0.5-1.4-0.1c0,0,0,0,0,0c-0.8,0.4-1.7,0.6-2.5,0.6
	c-2.6,0-4.2-1.3-4.4-3.8s-0.1-5.3-0.1-8c0-1.5,1.2-0.8,1.8-0.9s1.4-0.1,1.3,1c-0.1,2,0,4,0,6c0,1.5,0.5,2.5,2.1,2.7
	c1.4,0.2,2.7-0.8,2.8-2.2c0-0.1,0-0.2,0-0.3c0.2-2,0.2-4,0.1-6c-0.1-1.5,0.8-1.2,1.7-1.3s1.5,0.1,1.5,1.3
	C133.2,108.9,133.3,110.5,133.3,112.2z"/>
<path class="st3" d="M31.9,116.4c1-0.9,1.8-2.2,3.5-0.8c1,0.7,2.3,0.8,3.4,0.3c0.5-0.2,1.1-0.5,1.1-1.2s-0.7-0.9-1.3-1
	c-0.8-0.1-1.6-0.3-2.4-0.4c-2.4-0.5-3.9-1.9-3.8-3.8s1.5-3.4,3.8-3.8c2-0.5,4.2,0,5.9,1.2c0.6,0.4,1.3,0.9,0.3,1.6
	c-0.6,0.4-1,1.9-2.1,0.6c-0.8-0.9-2-1.3-3.2-1c-0.6,0.1-1.3,0.4-1.4,1.1s0.6,0.9,1.2,1.1c1.3,0.3,2.6,0.6,3.9,0.9
	c1.4,0.3,2.4,1.4,2.5,2.8c0.2,1.4-0.4,2.7-1.6,3.5C39,119.5,34.4,118.9,31.9,116.4z"/>
<path class="st3" d="M51.6,105.6c1.9-0.1,3.6,0.8,4.7,2.4c0.3,0.4,1.1,1,0.1,1.4c-0.7,0.3-1.6,1.5-2.4,0.4c-0.7-1.2-2.2-1.7-3.5-1.3
	c-1.4,0.5-1.9,1.8-2,3.1c-0.3,1.4,0.3,2.9,1.5,3.7c1.1,0.9,2.8,0.6,3.6-0.5c0.1-0.2,0.2-0.3,0.3-0.5c1-1.6,1.6-0.2,2.4,0.1
	c1.1,0.4,0.5,1.1,0.1,1.7c-1.6,2.4-4.7,3.2-7.4,2.1c-2.7-1.3-4.2-4.2-3.6-7.2C45.8,107.9,48.5,105.6,51.6,105.6z"/>
<path class="st4" d="M99,112.2c0-1.6,0-3.2,0-4.8c0-0.5-0.3-1.2,0.4-1.3s2-0.5,2.4,0.3s0.7,0.4,1.1,0.2c0.3-0.2,0.6-0.4,0.9-0.5
	c0.7-0.1,1.7-1,1.9,0.2c0.2,0.9,1,2.4-1.1,2.7c-1.7,0.2-2.9,1.7-2.7,3.4c0,1.6-0.1,3.3,0,4.9c0,1.3-0.8,1.1-1.5,1.1
	s-1.6,0.2-1.5-1.1C99.1,115.6,99,113.9,99,112.2z"/>
<path class="st1" d="M26.8,92.5c-1.5-2.5-2.9-5-4.3-7.5c-0.5-0.9-1.5-1.9-1.4-2.8s1.7-1,2.5-1.6c0.2-0.2,0.5-0.4,0.7-0.5
	c2.5-2.1,3.4-5.9,2.2-9.5c-1.1-3.4-4.2-5.8-7.7-6c-5.1-0.5-10.2-0.1-15.4-0.3c-1.4,0-1.6,0.5-1.6,1.7c0.1,4.4,0,8.7,0,13.1
	s0,8.8,0,13.3c0,1.3,0.4,1.7,1.6,1.6c1-0.1,2.1,0,3.2,0c2.4,0,2.4,0,2.4-2.3s0-4.6,0-6.9c0-0.4-0.2-1,0.3-1.3
	c1.1-0.7,4.6,0.1,5.3,1.3c1.1,1.7,2.1,3.5,3,5.4c1.2,3.1,3.2,4.5,6.6,3.8c0.6-0.1,1.3-0.1,1.9,0C27.2,94,27.5,93.6,26.8,92.5z
	 M16.6,77.7c-2.3,0.6-4.6,0.2-6.8,0.3c-0.7,0-0.9-0.3-0.9-0.9c0-1.1,0-2.2,0-3.4c0-4.1,0-4.1,4.1-4.1c1.2,0,2.3,0,3.5,0.2
	c2.2,0.3,3.2,1.6,3.3,3.9C19.9,75.7,18.5,77.4,16.6,77.7z"/>
<path class="st1" d="M36.3,84.3c2.1,0.1,4.1,0,6.2,0s4.4,0,6.5,0c0.7,0,1.3-0.1,1.2-1c-0.2-4.2-1.1-8.1-4.9-10.4
	c-3.6-2.3-8.3-2.3-11.9-0.1c-4.8,2.7-6.7,10.1-4.2,15.7c0.5,1.3,1.3,2.5,2.4,3.4c5.4,4.2,13.1,3.3,17.3-2c0.2-0.3,0.4-0.5,0.6-0.8
	c0.2-0.4,0.6-0.8,0.1-1.1c-1.3-0.9-2.7-1.6-4.2-2.1c-0.9-0.2-1.1,1.2-1.6,1.9c-1.5,1.7-3.5,1.9-5.5,1.5c-1.6-0.4-2.8-1.6-3.2-3.2
	C34.8,85.2,34.7,84.2,36.3,84.3z M35.1,79.3c0.6-1.9,2.5-3.1,4.5-3c1.8-0.1,3.4,1.2,3.8,3c0.2,0.8,0,0.9-0.7,0.9c-1.1,0-2.2,0-3.4,0
	s-2.2,0-3.4,0C35.2,80.2,34.9,80,35.1,79.3z"/>
<path class="st1" d="M97.8,71.4C90.3,71.9,87,76.7,87.1,83c0.1,7.3,5,11.7,12,11.4c8.2-0.1,11.4-5.7,11.4-11.8
	C110.5,75.4,105.3,70.9,97.8,71.4z M102.9,86.8c-1.3,2.3-4.2,3.1-6.5,1.7c-0.5-0.3-0.9-0.6-1.3-1.1c-1-1.3-1.5-2.8-1.5-4.4
	c0-3.4,1.4-5.6,3.8-6.3c2-0.7,4.3,0.2,5.4,2C104.3,81.2,104.3,84.3,102.9,86.8L102.9,86.8z"/>
<path class="st3" d="M15.5,112.3c-0.3-1.6-1.4-2.8-2.9-3.4c1.8-1.4,2.7-2.9,1.8-5.1s-2.7-2.8-4.8-2.8c-2.3,0-4.6,0-6.9,0
	c-0.7,0-1.1,0.1-1.1,0.9c0,5.2,0,10.4,0,15.5c0,0.7,0.2,1,0.9,0.9c2.8,0,5.7,0.1,8.5-0.1C14.4,117.9,16.1,115.5,15.5,112.3z
	 M5.1,104.2c0-0.1,0.2-0.3,0.3-0.4c0.7-0.5,4.8,0,5.5,0.6c0.7,0.7,0.8,1.9,0.1,2.6c-0.3,0.3-0.6,0.5-1,0.5c-0.8,0.1-1.5,0.2-2.3,0.2
	c-0.9-0.1-2.1,0.5-2.4-0.4C5,106.4,4.9,105.3,5.1,104.2L5.1,104.2z M12.2,113.2c-0.2,1.6-1.3,2.1-2.7,2.3c-0.6,0-1.2,0-1.8,0
	c-2.8,0-2.8,0-2.8-2.8c0-2.3,0-2.3,2.3-2.2c0.8,0,1.6,0,2.5,0.1C11.2,110.6,12.3,111.7,12.2,113.2C12.3,113.2,12.3,113.2,12.2,113.2
	L12.2,113.2z"/>
<path class="st3" d="M146.8,107.3c-1.5-1.7-3.9-2.2-5.9-1.2c-0.5,0.3-1.1,0.3-1.5,0c-1.6-1-2.8-0.1-2.8,1.9c0,4.4,0,8.7,0,13.1
	c0,1.3,0.6,1.3,1.5,1.3s1.7,0.1,1.6-1.2c-0.1-1.1,0-2.2,0-3.6c1.8,1.1,3.3,1.5,5,0.9C148.7,117,150,110.8,146.8,107.3z M142.6,115.7
	c-1.7,0.1-3-1.4-3-3.6s1.2-3.6,2.8-3.7s3,1.4,3,3.4C145.4,114.3,144.3,115.7,142.6,115.7L142.6,115.7z"/>
<path class="st3" d="M23.8,105.6c-3.3-0.1-6.1,2.5-6.2,5.8c0,0.2,0,0.4,0,0.7c0,3.9,2.5,6.6,6.2,6.6c3.4,0.1,6.3-2.5,6.4-5.9
	c0-0.2,0-0.3,0-0.5c0.2-3.4-2.4-6.4-5.8-6.6C24.2,105.6,24,105.6,23.8,105.6z M23.8,115.8c-1.9-0.1-3.1-1.7-3-4s1.3-3.5,3.2-3.5
	c1.9,0.2,3.3,1.9,3.2,3.8c0,0,0,0.1,0,0.1C27,114.6,25.7,115.9,23.8,115.8L23.8,115.8z"/>
<path class="st3" d="M113.4,105.6c-3.4-0.1-6.2,2.5-6.4,5.9c0,0.2,0,0.4,0,0.6c0,3.5,2.8,6.4,6.3,6.4c3.5,0,6.4-2.8,6.4-6.3
	C119.8,108.4,117.1,105.6,113.4,105.6z M113.4,115.8c-1.9,0-3.2-1.5-3.2-3.6s1.2-3.8,3-3.8s3.3,1.6,3.3,3.8S115.4,115.9,113.4,115.8
	L113.4,115.8z"/>
<g>
	<path class="st5" d="M30.9,47.1h-9.5l-1.3,4h-6.4l8.7-25.7h7.5l8.7,25.7h-6.4L30.9,47.1z M29.1,41.6l-3-9.4l-3,9.4H29.1z"/>
	<path class="st5" d="M54.9,51.2l-8.2-11.9v11.9h-5.9V25.5h5.9v11.2l7.9-11.2h6.7L52.5,38l9,13.2H54.9z"/>
	<path class="st5" d="M87,39.1c0,7.9-5.5,12.6-12.7,12.6c-8.1,0-13.9-5.9-13.9-13.3c0-7.4,5.9-13.4,13.5-13.4
		c4.9,0,9.1,2.4,11.2,5.9l-5,2.9c-1.1-1.7-3.4-3-6.3-3c-4.3,0-7.6,3.2-7.6,7.7c0,4.4,3.1,7.6,8.1,7.6c3.4,0,5.7-1.5,6.6-4h-6.9v-5.1
		H87V39.1z"/>
	<path class="st5" d="M106.4,45.5v5.7H90.3V25.5h16v5.7H96.2v4.3h9.2V41h-9.2v4.6H106.4z"/>
	<path class="st5" d="M108.5,38.3c0-7.6,5.6-13.4,13.4-13.4c4.7,0,8.8,2.3,11,5.9l-5.1,2.9c-1.1-2-3.3-3.2-5.9-3.2
		c-4.6,0-7.5,3-7.5,7.6c0,4.6,2.9,7.6,7.5,7.6c2.6,0,4.8-1.2,5.9-3.2l5.1,2.9c-2.2,3.6-6.3,5.9-11,5.9
		C114.1,51.7,108.5,45.9,108.5,38.3z"/>
</g>
</svg>
