<svg id="Layer_1" data-name="Layer 1" xmlns="http://www.w3.org/2000/svg" viewBox="0 0 150 150"><defs><style>.cls-1{fill:none;}.cls-2{fill:#eb462e;}.cls-3{fill:#ea462f;}.cls-4{fill:#666;}.cls-5{fill:#686868;}</style></defs><title>cl1</title><rect class="cls-1" width="150" height="150"/><path class="cls-2" d="M584,153.73c2.86-2.22,5.59-3.27,8.81-2a5.89,5.89,0,0,1,4.14,5.56c.07,5.06,0,10.12,0,15.18,0,.94-.32,1.17-1.22,1.2-5.15.2-5.15.23-5.15-4.86,0-2.53.06-5.06,0-7.59-.11-2.91-1.34-4.49-3.27-4.45s-3.27,1.74-3.31,4.61q-.07,5.38,0,10.77c0,1.13-.31,1.63-1.5,1.52-1.57-.14-3.59.62-4.61-.29s-.35-3-.35-4.56c0-7.71,0-15.42,0-23.13,0-1.18.24-1.63,1.53-1.63,5,0,5-.06,5,5Z" transform="translate(-449.57 -92.73)"/><path class="cls-2" d="M510.66,167c-1,1.84-2,3.38-2.69,5a2.37,2.37,0,0,1-2.72,1.61,30.4,30.4,0,0,0-4.05,0c-1.15,0-1.19-.36-.65-1.21,2-3.22,4-6.48,6.08-9.67a1.52,1.52,0,0,0,0-2c-2-2.85-3.84-5.75-6-9,2.5,0,4.69,0,6.88,0,.72,0,.83.58,1.06,1,.78,1.38,1.49,2.79,2.31,4.34.75-1.35,1.52-2.52,2.08-3.78a2.39,2.39,0,0,1,2.75-1.57c1.58.12,3.17,0,4.74,0,.34.7-.2,1.05-.46,1.45-1.51,2.37-3,4.79-4.62,7.06a2.57,2.57,0,0,0,0,3.42c1.9,2.82,3.66,5.73,5.53,8.57.69,1.07.48,1.35-.77,1.38-5.35.12-5.34.15-8-4.39C511.71,168.59,511.28,168,510.66,167Z" transform="translate(-449.57 -92.73)"/><path class="cls-2" d="M563.76,162.91c0-1.7-.06-3.41,0-5.11.06-1.13-.27-1.68-1.46-1.46-1.6.28-1.82-.58-1.77-1.93s-.16-2.59,1.83-2.24c1,.19,1.47-.25,1.4-1.35-.09-1.41,0-2.83,0-4.24,0-.83.3-1.2,1.13-1.12h.53c4.77-.08,4.77-.08,4.79,4.7,0,2.2,0,2.18,2.37,2.23.6,0,1.58-.35,1.74.36a6.36,6.36,0,0,1,0,3.3c-.23.67-1.41.35-2.12.27-1.53-.17-2.07.3-2,1.91.14,2.58.09,5.17,0,7.76,0,1.63.61,2.5,2.26,2.35,1.3-.11,1.76.3,1.69,1.65-.2,3.57.93,3.68-3.74,3.68h-.89c-3.8-.07-5.68-2-5.73-5.81C563.74,166.21,563.76,164.56,563.76,162.91Z" transform="translate(-449.57 -92.73)"/><path class="cls-3" d="M529.9,153.72a14.38,14.38,0,0,1,5.22-2.07c1-.12,1.12.17,1.06.95,0,.12,0,.24,0,.36,0,1.35.39,2.9-.15,4s-2.3.67-3.51,1a3,3,0,0,0-2.35,3.23c0,3.59-.06,7.17,0,10.76,0,1.35-.42,1.67-1.71,1.67-4.77,0-4.77,0-4.77-4.76,0-5.05.07-10.11-.05-15.16,0-1.69.53-2.17,2.08-2a9.66,9.66,0,0,0,2.28,0C529.33,151.58,530.22,151.83,529.9,153.72Z" transform="translate(-449.57 -92.73)"/><path class="cls-4" d="M544.88,193.42c0,1,.06,2,0,3,0,.56.42,1.54-.55,1.57-.78,0-1.92.75-2.41-.56-.21-.57-.46-.37-.76-.18a7.29,7.29,0,0,1-8.88-.42c-3-2.26-3.57-5.57-3.09-9.06.79-5.73,6.08-9,11.25-7a7.32,7.32,0,0,1,3.19,2.42c1.48,1.88,1.14,2.7-1.24,3.2-.46.1-.77.1-1-.39-1-2.14-2.65-3.18-5-2.64s-3.34,2.49-3.67,4.69,0,4.49,1.79,6.17a4.31,4.31,0,0,0,6.67-1c.73-1.38.53-1.74-1-1.77a7.33,7.33,0,0,0-1.24,0c-1.21.16-1.6-.29-1.62-1.55s.61-1.39,1.6-1.36c1.59.05,3.18.06,4.77,0,.94,0,1.24.3,1.2,1.21C544.84,191,544.88,192.19,544.88,193.42Z" transform="translate(-449.57 -92.73)"/><path class="cls-4" d="M509,189.36c0-2.41.06-4.83,0-7.24,0-1.17.33-1.49,1.48-1.48s1.81.26,1.61,1.56a5.15,5.15,0,0,0,0,.88c0,1-.35,2.32.15,2.92.69.82,1.64-.46,2.55-.62,3.2-.54,5.49,1.21,5.55,4.46,0,2.29-.08,4.6,0,6.89.07,1.35-.61,1.32-1.58,1.36s-1.6-.2-1.53-1.44c.1-1.88,0-3.77,0-5.65s-.75-2.76-2.22-2.77a2.93,2.93,0,0,0-2.93,2.71,51.55,51.55,0,0,0,0,5.83c.09,1.44-.75,1.26-1.66,1.31s-1.5-.09-1.45-1.3C509,194.31,509,191.84,509,189.36Z" transform="translate(-449.57 -92.73)"/><path class="cls-4" d="M582.84,191.92v4.24c0,1.79-1.4,2.72-2.83,1.67a1,1,0,0,0-1.42-.11,5.48,5.48,0,0,1-2.55.64c-2.59,0-4.21-1.25-4.38-3.81s-.06-5.3-.07-8c0-1.49,1.15-.78,1.82-.9s1.37-.07,1.32,1c-.08,2,0,4,0,6,0,1.53.53,2.53,2.11,2.71a2.54,2.54,0,0,0,2.85-2.48,48.1,48.1,0,0,0,.1-6c-.08-1.47.77-1.24,1.66-1.3s1.53.1,1.45,1.3C582.76,188.61,582.84,190.27,582.84,191.92Z" transform="translate(-449.57 -92.73)"/><path class="cls-4" d="M481.48,196.12c1-.91,1.84-2.22,3.55-.75a3.23,3.23,0,0,0,3.37.29c.55-.23,1.15-.54,1.06-1.23s-.72-.86-1.32-1c-.81-.15-1.62-.28-2.42-.45-2.41-.52-3.86-1.95-3.81-3.75s1.52-3.36,3.8-3.8a7.16,7.16,0,0,1,5.85,1.24c.56.42,1.31.9.33,1.59-.6.42-1,1.94-2.12.56a3.33,3.33,0,0,0-3.22-1c-.65.09-1.32.35-1.35,1.15s.59.92,1.2,1.06c1.31.29,2.62.58,3.93.92a3.07,3.07,0,0,1,2.48,2.84,3.62,3.62,0,0,1-1.59,3.48C488.62,199.21,484,198.67,481.48,196.12Z" transform="translate(-449.57 -92.73)"/><path class="cls-4" d="M501.19,185.33a5.47,5.47,0,0,1,4.67,2.38c.27.37,1.09,1,.15,1.39-.73.31-1.59,1.53-2.41.41a2.9,2.9,0,0,0-3.51-1.25c-1.42.46-1.85,1.77-2,3.09a3.76,3.76,0,0,0,1.5,3.73,2.59,2.59,0,0,0,3.93-1c1-1.65,1.65-.2,2.38.06,1.13.39.47,1.1.09,1.66a6.07,6.07,0,0,1-7.36,2.1,6.64,6.64,0,0,1-3.63-7.17A6.15,6.15,0,0,1,501.19,185.33Z" transform="translate(-449.57 -92.73)"/><path class="cls-5" d="M548.61,191.88c0-1.59,0-3.18,0-4.77,0-.47-.31-1.24.42-1.34s2-.54,2.43.27.65.44,1.07.16a2.14,2.14,0,0,1,.93-.46c.66-.06,1.69-1,1.9.21.16.87,1,2.38-1.06,2.7a3.12,3.12,0,0,0-2.69,3.4c0,1.65-.07,3.3,0,4.95,0,1.26-.77,1.07-1.52,1.06s-1.57.23-1.51-1.06C548.67,195.3,548.61,193.59,548.61,191.88Z" transform="translate(-449.57 -92.73)"/><path class="cls-2" d="M476.41,172.25c-1.47-2.47-2.89-5-4.32-7.46-.53-.92-1.5-1.87-1.44-2.75s1.66-1,2.45-1.62c.23-.18.47-.35.69-.54,2.5-2.09,3.39-5.93,2.21-9.54a8.72,8.72,0,0,0-7.71-6c-5.11-.52-10.24-.11-15.35-.31-1.42,0-1.64.48-1.62,1.72.07,4.36,0,8.72,0,13.08s.05,8.84,0,13.25c0,1.26.36,1.68,1.59,1.56,1-.1,2.12,0,3.18,0,2.41,0,2.41,0,2.41-2.32s0-4.6,0-6.89c0-.45-.17-1,.32-1.29,1.1-.73,4.64.14,5.28,1.3a42.18,42.18,0,0,1,3,5.38c1.21,3.15,3.23,4.48,6.56,3.84a7.41,7.41,0,0,1,1.94,0C476.79,173.71,477.06,173.34,476.41,172.25Zm-10.25-14.79c-2.26.56-4.56.19-6.84.3-.7,0-.93-.27-.91-.93,0-1.11,0-2.23,0-3.35,0-4.1,0-4.11,4.09-4.09a24.15,24.15,0,0,1,3.51.2c2.23.34,3.24,1.58,3.31,3.85A3.72,3.72,0,0,1,466.16,157.46Z" transform="translate(-449.57 -92.73)"/><path class="cls-2" d="M485.82,164c2.06.1,4.13,0,6.19,0s4.36,0,6.54,0c.72,0,1.26-.06,1.22-1-.16-4.16-1.11-8.05-4.9-10.36a11.26,11.26,0,0,0-11.92-.1c-4.81,2.7-6.71,10.13-4.21,15.67a9.33,9.33,0,0,0,2.39,3.44,12.35,12.35,0,0,0,17.92-2.84c.22-.35.6-.79.11-1.07a18.69,18.69,0,0,0-4.21-2.12c-.85-.23-1.06,1.21-1.63,1.85-1.52,1.71-3.47,1.89-5.5,1.53a4.19,4.19,0,0,1-3.16-3.24C484.36,164.88,484.23,163.94,485.82,164ZM484.65,159a4.38,4.38,0,0,1,4.45-3,3.75,3.75,0,0,1,3.78,3c.18.76,0,.95-.72.93-1.12,0-2.23,0-3.35,0s-2.24,0-3.35,0C484.79,159.91,484.47,159.73,484.65,159Z" transform="translate(-449.57 -92.73)"/><path class="cls-2" d="M547.39,151.1c-7.51.5-10.83,5.37-10.72,11.64.13,7.33,5,11.74,12,11.42,8.15-.09,11.41-5.66,11.38-11.75C560.07,155.15,554.89,150.59,547.39,151.1Zm5.1,15.44a4.75,4.75,0,0,1-7.76.67,7.29,7.29,0,0,1-1.49-4.44c0-3.4,1.44-5.64,3.76-6.29a4.64,4.64,0,0,1,5.39,2A8.07,8.07,0,0,1,552.49,166.54Z" transform="translate(-449.57 -92.73)"/><path class="cls-4" d="M465.12,192a4.78,4.78,0,0,0-2.85-3.45c1.83-1.37,2.69-2.95,1.84-5.09s-2.68-2.78-4.82-2.79c-2.29,0-4.58,0-6.87,0-.68,0-1.09.1-1.09.94,0,5.17,0,10.35,0,15.52,0,.66.2,1,.9.94,2.82,0,5.66.11,8.46-.13C464,197.65,465.64,195.24,465.12,192Zm-10.48-8.1c0-.13.17-.3.3-.38.74-.46,4.81,0,5.45.64a1.86,1.86,0,0,1-.94,3.17,11.82,11.82,0,0,1-2.3.22c-.92-.12-2.09.49-2.4-.35A9.78,9.78,0,0,1,454.64,183.91Zm7.18,9c-.16,1.58-1.27,2.14-2.69,2.25-.59,0-1.18,0-1.76,0-2.79,0-2.79,0-2.79-2.78,0-2.25,0-2.26,2.27-2.24a20.16,20.16,0,0,1,2.46.11A2.59,2.59,0,0,1,461.82,192.92Z" transform="translate(-449.57 -92.73)"/><path class="cls-4" d="M596.33,187a4.88,4.88,0,0,0-5.93-1.2,1.28,1.28,0,0,1-1.55,0c-1.6-1-2.77-.07-2.77,1.85,0,4.35,0,8.7,0,13.05,0,1.25.62,1.29,1.53,1.27s1.68.11,1.58-1.21c-.09-1.09,0-2.2,0-3.57,1.79,1.08,3.3,1.49,5,.9C598.28,196.71,599.52,190.49,596.33,187Zm-4.16,8.48c-1.74.06-3-1.45-3-3.62s1.18-3.65,2.78-3.66,3,1.44,3,3.45C595,194,593.91,195.46,592.17,195.52Z" transform="translate(-449.57 -92.73)"/><path class="cls-4" d="M473.39,185.33a6,6,0,0,0-6.21,6.44c0,3.91,2.53,6.61,6.22,6.64a6.18,6.18,0,0,0,6.44-6.43A6.24,6.24,0,0,0,473.39,185.33Zm0,10.25c-1.9-.1-3.12-1.71-3-4s1.31-3.52,3.16-3.47a3.52,3.52,0,0,1,3.15,3.93C476.56,194.29,475.26,195.68,473.37,195.58Z" transform="translate(-449.57 -92.73)"/><path class="cls-4" d="M563,185.33a6.13,6.13,0,0,0-6.39,6.47,6.35,6.35,0,1,0,12.7.14C569.33,188.1,566.7,185.35,563,185.33Zm0,10.25c-1.9,0-3.2-1.48-3.24-3.65s1.15-3.79,3-3.82,3.32,1.56,3.35,3.76S564.94,195.59,563.05,195.58Z" transform="translate(-449.57 -92.73)"/></svg>