<svg id="Layer_1" data-name="Layer 1" xmlns="http://www.w3.org/2000/svg" viewBox="0 0 150 150"><defs><style>.cls-1{fill:#fe5c00;}.cls-2{fill:#fe5f00;}.cls-3{fill:#fe5a00;}.cls-4{fill:#fe5800;}.cls-5{fill:none;}</style></defs><title>cl10</title><path class="cls-1" d="M490.5,156h7.35c.41.34.32.81.32,1.24,0,3.92,0,7.84,0,11.76a10.64,10.64,0,0,0,.17,1.86,2.32,2.32,0,0,0,2,2,7.09,7.09,0,0,0,1.46.15h7.74a6.74,6.74,0,0,0,1.27-.11,2.42,2.42,0,0,0,2.18-2.4,8.29,8.29,0,0,0,0-1c0-4.1,0-8.19,0-12.29,0-.43-.08-.9.32-1.24h7.35c.39.31.32.76.33,1.17,0,3.37,0,6.73,0,10.09,0,1.56,0,3.12,0,4.68a7.69,7.69,0,0,1-1.22,4.17,6.69,6.69,0,0,1-5.46,3.14,6.56,6.56,0,0,0-1.25.14H498.52c-.61-.12-1.23-.09-1.84-.16a6.9,6.9,0,0,1-6.21-5.6,11.87,11.87,0,0,1-.28-2.52c0-4.64,0-9.29,0-13.94C490.18,156.8,490.11,156.35,490.5,156Z" transform="translate(-449.57 -92.73)"/><path class="cls-2" d="M456.16,179c0-7.44,0-14.89,0-22.33,0-.61.18-.67.7-.66,2.22,0,4.45,0,6.67,0,.36.27.32.66.32,1,0,2.69,0,5.38,0,8.08,0,.13,0,.26,0,.4s-.12.6.14.74.47-.17.66-.33l3.63-3q3.23-2.75,6.47-5.47a5.9,5.9,0,0,1,2.14-1.42h10.29c.2.42-.11.61-.37.82-2.17,1.76-4.39,3.48-6.58,5.23-2,1.57-3.94,3.12-5.89,4.7-.54.44-.55.66,0,1.1q5.4,4.43,10.77,8.86c.62.51,1.27,1,1.85,1.53.19.18.42.39.3.69s-.42.24-.67.25h-9.18a1.74,1.74,0,0,1-1.24-.45c-1.91-1.73-3.88-3.4-5.82-5.1s-4-3.47-6-5.21c-.11-.09-.21-.26-.39-.17s-.09.24-.1.37v2.14c0,2.45,0,4.9,0,7.34,0,1-.1,1.09-1.12,1.09-1.9,0-3.81,0-5.71,0C456.72,179.24,456.38,179.31,456.16,179Z" transform="translate(-449.57 -92.73)"/><path class="cls-3" d="M526.45,156h7.35c.38.29.32.71.32,1.1,0,2.72,0,5.43,0,8.15a2.67,2.67,0,0,0,0,.4c0,.21-.09.5.13.62s.45-.13.63-.28c1.76-1.5,3.54-3,5.3-4.47,1.94-1.64,3.88-3.26,5.81-4.91a7.16,7.16,0,0,1,1.16-.61h10.43c.16.34-.1.47-.3.65-1.85,1.53-3.77,3-5.63,4.49-2.32,1.89-4.72,3.67-7,5.61-.61.53-.58.64,0,1.16,2.87,2.42,5.81,4.76,8.68,7.17,1.29,1.08,2.62,2.12,3.9,3.21.21.17.46.35.35.65s-.42.22-.67.23c-3.13,0-6.26,0-9.39,0a1.25,1.25,0,0,1-.9-.32c-2.07-1.76-4.09-3.58-6.14-5.35q-2.76-2.37-5.48-4.78a1.46,1.46,0,0,0-.21-.16c-.17-.1-.31-.33-.52-.24s-.18.38-.18.6c0,2.93,0,5.87,0,8.81,0,1.43,0,1.44-1.44,1.44h-5.59c-.78,0-.92-.12-1-.91s0-1.78,0-2.67q0-9.18,0-18.36C526.13,156.84,526,156.37,526.45,156Z" transform="translate(-449.57 -92.73)"/><path class="cls-4" d="M592,176.8q-3.18-5-6.32-10.05c-2.07-3.29-4.15-6.58-6.21-9.88a1.79,1.79,0,0,0-.91-.83H572a2.13,2.13,0,0,0-.88.88q-3,4.7-5.9,9.38l-7.44,11.81a.86.86,0,0,0-.13.88c.15.34.49.24.76.24h7.18a1.08,1.08,0,0,0,1.08-.58l1.51-2.52a1.51,1.51,0,0,1,1.42-.8q5.71,0,11.43,0a1.41,1.41,0,0,1,1.36.77c.48.86,1,1.66,1.52,2.51a1.15,1.15,0,0,0,1.12.62h7.3c.24,0,.48,0,.65-.2v-.13A7.85,7.85,0,0,0,592,176.8Zm-12.9-6.36H571l4.27-7.31c.58,1,1.11,1.87,1.63,2.77l2.39,4.08C579.49,170.24,579.6,170.44,579.11,170.44Z" transform="translate(-449.57 -92.73)"/><rect class="cls-5" width="150" height="150"/></svg>