<?xml version="1.0" encoding="utf-8"?>
<!-- Generator: Adobe Illustrator 22.0.1, SVG Export Plug-In . SVG Version: 6.00 Build 0)  -->
<svg version="1.1" id="Layer_1" xmlns="http://www.w3.org/2000/svg" xmlns:xlink="http://www.w3.org/1999/xlink" x="0px" y="0px"
	 viewBox="0 0 150 150" style="enable-background:new 0 0 150 150;" xml:space="preserve">
<style type="text/css">
	.st0{fill:#FE5C00;}
	.st1{fill:#FE5F00;}
	.st2{fill:#FE5A00;}
	.st3{fill:#FE5800;}
	.st4{fill:none;}
	.st5{fill:#444444;}
</style>
<title>cl10</title>
<path class="st0" d="M40.9,77.3h7.4c0.4,0.3,0.3,0.8,0.3,1.2c0,3.9,0,7.8,0,11.8c0,0.6,0.1,1.2,0.2,1.9c0.1,1,1,1.9,2,2
	c0.5,0.1,1,0.2,1.5,0.1H60c0.4,0,0.9,0,1.3-0.1c1.2-0.1,2.2-1.2,2.2-2.4c0-0.3,0-0.7,0-1c0-4.1,0-8.2,0-12.3c0-0.4-0.1-0.9,0.3-1.2
	h7.3c0.4,0.3,0.3,0.8,0.3,1.2c0,3.4,0,6.7,0,10.1c0,1.6,0,3.1,0,4.7c0,1.5-0.4,2.9-1.2,4.2c-1.2,1.9-3.2,3.1-5.5,3.1
	c-0.4,0-0.8,0.1-1.3,0.1H48.9c-0.6-0.1-1.2-0.1-1.8-0.2c-3.1-0.3-5.6-2.5-6.2-5.6c-0.2-0.8-0.3-1.7-0.3-2.5c0-4.6,0-9.3,0-13.9
	C40.6,78.1,40.5,77.6,40.9,77.3z"/>
<path class="st1" d="M6.6,100.3c0-7.4,0-14.9,0-22.3c0-0.6,0.2-0.7,0.7-0.7c2.2,0,4.5,0,6.7,0c0.4,0.3,0.3,0.7,0.3,1
	c0,2.7,0,5.4,0,8.1c0,0.1,0,0.3,0,0.4s-0.1,0.6,0.1,0.7s0.5-0.2,0.7-0.3l3.6-3c2.2-1.8,4.3-3.7,6.5-5.5c0.6-0.6,1.3-1.1,2.1-1.4
	h10.3c0.2,0.4-0.1,0.6-0.4,0.8c-2.2,1.8-4.4,3.5-6.6,5.2c-2,1.6-3.9,3.1-5.9,4.7c-0.5,0.4-0.5,0.7,0,1.1c3.6,3,7.2,5.9,10.8,8.9
	c0.6,0.5,1.3,1,1.9,1.5c0.2,0.2,0.4,0.4,0.3,0.7s-0.4,0.2-0.7,0.3h-9.2c-0.5,0-0.9-0.1-1.2-0.4c-1.9-1.7-3.9-3.4-5.8-5.1
	s-4-3.5-6-5.2c-0.1-0.1-0.2-0.3-0.4-0.2s-0.1,0.2-0.1,0.4V92c0,2.4,0,4.9,0,7.3c0,1-0.1,1.1-1.1,1.1c-1.9,0-3.8,0-5.7,0
	C7.1,100.5,6.8,100.6,6.6,100.3z"/>
<path class="st2" d="M76.9,77.3h7.3c0.4,0.3,0.3,0.7,0.3,1.1c0,2.7,0,5.4,0,8.1c0,0.1,0,0.3,0,0.4c0,0.2-0.1,0.5,0.1,0.6
	s0.5-0.1,0.6-0.3c1.8-1.5,3.5-3,5.3-4.5c1.9-1.6,3.9-3.3,5.8-4.9c0.4-0.2,0.8-0.4,1.2-0.6H108c0.2,0.3-0.1,0.5-0.3,0.6
	c-1.8,1.5-3.8,3-5.6,4.5c-2.3,1.9-4.7,3.7-7,5.6c-0.6,0.5-0.6,0.6,0,1.2c2.9,2.4,5.8,4.8,8.7,7.2c1.3,1.1,2.6,2.1,3.9,3.2
	c0.2,0.2,0.5,0.4,0.3,0.6s-0.4,0.2-0.7,0.2c-3.1,0-6.3,0-9.4,0c-0.3,0-0.7-0.1-0.9-0.3c-2.1-1.8-4.1-3.6-6.1-5.4
	c-1.8-1.6-3.7-3.2-5.5-4.8c-0.1-0.1-0.1-0.1-0.2-0.2c-0.2-0.1-0.3-0.3-0.5-0.2s-0.2,0.4-0.2,0.6c0,2.9,0,5.9,0,8.8
	c0,1.4,0,1.4-1.4,1.4h-5.6c-0.8,0-0.9-0.1-1-0.9s0-1.8,0-2.7c0-6.1,0-12.2,0-18.4C76.6,78.1,76.4,77.6,76.9,77.3z"/>
<path class="st3" d="M142.4,98.1c-2.1-3.3-4.2-6.7-6.3-10.1c-2.1-3.3-4.2-6.6-6.2-9.9c-0.2-0.4-0.5-0.7-0.9-0.8h-6.6
	c-0.4,0.2-0.7,0.5-0.9,0.9c-2,3.1-4,6.3-5.9,9.4l-7.4,11.8c-0.2,0.2-0.3,0.6-0.1,0.9c0.2,0.3,0.5,0.2,0.8,0.2h7.2
	c0.4,0,0.9-0.2,1.1-0.6l1.5-2.5c0.3-0.5,0.8-0.8,1.4-0.8c3.8,0,7.6,0,11.4,0c0.6,0,1.1,0.3,1.4,0.8c0.5,0.9,1,1.7,1.5,2.5
	c0.2,0.4,0.7,0.7,1.1,0.6h7.3c0.2,0,0.5,0,0.7-0.2v-0.1C143.2,99.4,142.9,98.7,142.4,98.1z M129.5,91.7h-8.1l4.3-7.3
	c0.6,1,1.1,1.9,1.6,2.8l2.4,4.1C129.9,91.5,130,91.7,129.5,91.7L129.5,91.7z"/>
<rect class="st4" width="150" height="150"/>
<g>
	<path class="st5" d="M32.9,65.1h-9.5l-1.3,4h-6.4l8.7-25.7h7.5l8.7,25.7h-6.4L32.9,65.1z M31.1,59.6l-3-9.4l-3,9.4H31.1z"/>
	<path class="st5" d="M56.9,69.2l-8.2-11.9v11.9h-5.9V43.5h5.9v11.2l7.9-11.2h6.7L54.5,56l9,13.2H56.9z"/>
	<path class="st5" d="M89,57.1c0,7.9-5.5,12.6-12.7,12.6c-8.1,0-13.9-5.9-13.9-13.3c0-7.4,5.9-13.4,13.5-13.4
		c4.9,0,9.1,2.4,11.2,5.9l-5,2.9c-1.1-1.7-3.4-3-6.3-3c-4.3,0-7.6,3.2-7.6,7.7c0,4.4,3.1,7.6,8.1,7.6c3.4,0,5.7-1.5,6.6-4h-6.9v-5.1
		H89V57.1z"/>
	<path class="st5" d="M108.4,63.5v5.7H92.3V43.5h16v5.7H98.2v4.3h9.2V59h-9.2v4.6H108.4z"/>
	<path class="st5" d="M110.5,56.3c0-7.6,5.6-13.4,13.4-13.4c4.7,0,8.8,2.3,11,5.9l-5.1,2.9c-1.1-2-3.3-3.2-5.9-3.2
		c-4.6,0-7.5,3-7.5,7.6c0,4.6,2.9,7.6,7.5,7.6c2.6,0,4.8-1.2,5.9-3.2l5.1,2.9c-2.2,3.6-6.3,5.9-11,5.9
		C116.1,69.7,110.5,63.9,110.5,56.3z"/>
</g>
</svg>
