<svg id="Layer_1" data-name="Layer 1" xmlns="http://www.w3.org/2000/svg" viewBox="0 0 150 150"><defs><style>.cls-1{fill:none;}.cls-2{fill:#606060;}.cls-3{fill:#e8a122;}.cls-4{fill:#41403d;}.cls-5{fill:#454544;}.cls-6{fill:#42413f;}.cls-7{fill:#464645;}.cls-8{fill:#3c3c3a;}.cls-9{fill:#3e3e3d;}.cls-10{fill:#3d3d3c;}.cls-11{fill:#393937;}.cls-12{fill:#3b3b3a;}.cls-13{fill:#494338;}.cls-14{fill:#e4a023;}.cls-15{fill:#e3a023;}.cls-16{fill:#e7a223;}.cls-17{fill:#e5a123;}.cls-18{fill:#e6a223;}.cls-19{fill:#e5a223;}.cls-20{fill:#e2a023;}.cls-21{fill:#dd9c24;}.cls-22{fill:#e3a123;}.cls-23{fill:#826530;}.cls-24{fill:#df9e24;}.cls-25{fill:#eba523;}.cls-26{fill:#e8a323;}.cls-27{fill:#e5a323;}.cls-28{fill:#e09e24;}.cls-29{fill:#e9a222;}.cls-30{fill:#554b39;}.cls-31{fill:#4a453a;}.cls-32{fill:#544c3d;}.cls-33{fill:#564e3c;}.cls-34{fill:#48453d;}.cls-35{fill:#5c5138;}</style></defs><title>cl2</title><rect class="cls-1" width="150" height="150"/><path class="cls-2" d="M498.78,209c1.2-3.18,3.81-4.46,6.9-3.4,1.35.46,1.06,1.43.88,2.72-1.35-1.08-2.54-2.68-4.05-1.72s-1.34,2.9-1.08,4.59c1.18,1.28,2.45,2,4.16.88a1.09,1.09,0,0,1,1.55.1.37.37,0,0,0,0,.34c-.5,2.57-2.5,2.21-4.27,2.1a4.17,4.17,0,0,1-4-3.65C498.77,210.33,498.8,209.66,498.78,209Z" transform="translate(-447.94 -89.99)"/><path class="cls-2" d="M546.64,205.94c0,.44,0,.88-.07,1.31-.12,1.19,0,2,1.57,1.43a2,2,0,0,1,2.16.76,2.67,2.67,0,0,1,1.14,2.23c0,.64-.07,1.35.8,1.58a12.56,12.56,0,0,1,2.63,1c-.24.4-.63.27-1,.27-1.87,0-3.75,0-6,0,1.16-1.31.92-2.53.92-3.72,0-.6-.27-1-.91-1s-1.24.14-1.29.88c-.07,1.2-.29,2.44.63,3.62l-1.18.18c-1.34.18-2.41.18-1.22-1.61.13-.19,0-.56,0-.85-1.34-1.63-.58-3.55-.76-5.33C544.66,205.66,545.46,205.19,546.64,205.94Z" transform="translate(-447.94 -89.99)"/><path class="cls-2" d="M530.8,209c-.86-1.19-.06-2,.71-2.71a3.37,3.37,0,0,1,4.14-.3c.1.34.18.68.28,1s.2.77-.17,1-.77,0-1-.5c-.11-.25-.4-.41-.6-.62-.61-.65-1.29-.76-1.82,0s-.09,1.33.64,1.73a3,3,0,0,0,1.63.46c1,.42,2.62.26,2,2.17-.25,2.83-2.12,4.09-4.73,3.23-.69-.22-1.22-.48-1.1-1.31,0-.34.07-.89.26-1,.78-.32.84.54,1.21.91a1.67,1.67,0,0,0,2,.48,1.14,1.14,0,0,0,.76-1c0-.9-.71-1.18-1.41-1.42A4.5,4.5,0,0,1,530.8,209Z" transform="translate(-447.94 -89.99)"/><path class="cls-2" d="M538.8,209.13c.76-.61,1.72-.4,2.58-.58,2,.5,2.26,1.07,1.39,3.09-.78,1.05,1.38,1.41.55,2.55s-1.67-.4-2.5.06a3.71,3.71,0,0,1-1.22.39c-.67.08-1.38,0-1.65-.73a1.44,1.44,0,0,1,.74-1.84,16.68,16.68,0,0,1,1.75-.86.92.92,0,0,0,.54-1.06c0-.27-.05-.6-.43-.64s-.78.23-.95.68c-.3.8-1,1-1.74,1.1C537,210.17,537,210,538.8,209.13Z" transform="translate(-447.94 -89.99)"/><path class="cls-2" d="M487.57,208.85c1.44,0,3-.59,3.19.44a10.18,10.18,0,0,0,.82,2.74c1.75-3.19,1.75-3.19,2.75-3-1.67,1.73-1.83,4.15-2.87,6.16-.33.64-.55,1.35-.93,2a1.25,1.25,0,0,1-1.52.54c-.35-.11-.69-.34-.67-.76,0-.78.57-.86,1.22-.87,1.21,0,1.27-.92,1-1.68C489.8,212.58,489.44,210.6,487.57,208.85Z" transform="translate(-447.94 -89.99)"/><path class="cls-2" d="M511.54,209.45a3.17,3.17,0,0,1,0-.43c1.44-.22,2.62-.24,2.42,1.85-.08.82-.49,2,.67,2.5a1,1,0,0,0,1.2-.3c.78-.88.4-1.93.39-2.92,0-.43-.77-.49-.53-1.06,1.57-.48,2.35,0,2.19,1.74-.07.72-.21,1.66.15,2.14,1.19,1.57-.46,1.45-.94,1.45a26.92,26.92,0,0,0-2.83.2c-1.36.13-1.87-.71-2-2C512.25,211.52,513,210.19,511.54,209.45Z" transform="translate(-447.94 -89.99)"/><path class="cls-2" d="M509.41,205.53c1.6,1,.32,2.66.86,3.91,0,1.65-.61,3.37.82,5l-3.3.14c-.35-.91,1.15-1.2.6-2.09-.28-1.83.7-3.68-.6-5.57C507,205.8,509.05,206.26,509.41,205.53Z" transform="translate(-447.94 -89.99)"/><path class="cls-2" d="M486.44,214.45H483a4,4,0,0,0,.37-3.68c-.67-1.31.22-1.67.88-1.91A2.92,2.92,0,0,1,487,209c.6.44.41,1.06-.2,1.43C484.91,211.59,484.75,212.69,486.44,214.45Z" transform="translate(-447.94 -89.99)"/><path class="cls-2" d="M475.58,209.27c-1.7.45-1.37,1.67-1.36,2.72a3.14,3.14,0,0,0,.21,1.27c.17.35,1.23-.25.94.69-.15.5-.72.68-1.27.7a1.34,1.34,0,0,1-1.39-.87c-.59-1.44.28-3.15-.73-4.59-.05-.08,1.06-1.37,1.7-1.44S474.28,209.29,475.58,209.27Z" transform="translate(-447.94 -89.99)"/><path class="cls-2" d="M552.42,206.69c.49-1.62,1.25-1.43,2.14-.31C554,207.7,553.32,207.93,552.42,206.69Z" transform="translate(-447.94 -89.99)"/><path class="cls-2" d="M554.21,210.4c.18-2.07-.61-2.19-2.11-1.27a6.28,6.28,0,0,0-.52.38c1.44,1.36,1.32,2.84.33,4.39.92.64,2,.27,3,.37C553.86,213.12,554.1,211.7,554.21,210.4Z" transform="translate(-447.94 -89.99)"/><path class="cls-2" d="M463.12,213.26c-.61-1.33-2.5-2.31-.57-4.25,1.05-1,.23-2.64-1.19-3.13-1.9-.66-3.89-.34-6.13-.2,1.6,1.63,1.61,6.79.23,8.77,1.45,0,2.82.32,4.28-.22-.28-.3-.4-.52-.58-.61-1.2-.59-.53-1.65-.62-2.52,0-.11.31-.39.42-.36.85.22,1,1,1.2,1.68.61,2.21,2.17,2.22,4,2C464.11,213.61,463.32,213.69,463.12,213.26Zm-3.75-3.8c-1.08.15-.84-.67-.9-1.29.15-.52-.34-1.4.69-1.47s1.22.58,1.24,1.38S460.18,209.36,459.37,209.46Z" transform="translate(-447.94 -89.99)"/><path class="cls-2" d="M590.4,211.87c-.46-1.62-.08-3.48-.11-5.24,0-.42,0-1-.6-.95a3.57,3.57,0,0,0-1.63.53c-.43.28.05.57.24.86.71,1.07.41,1.48-.88,1.6-2.36.2-3.36,1.44-3.11,3.54.21,1.85,1.24,2.49,4,2.27C590.05,214.8,591.16,214.5,590.4,211.87Zm-2.8,1.54c-1.18-.09-1.5-1-1.47-2s.21-1.92,1.35-1.85c1.31.09,1.1,1.29,1.21,2.11C588.65,212.49,588.81,213.49,587.6,213.41Z" transform="translate(-447.94 -89.99)"/><path class="cls-2" d="M562.1,209.92c-.89-1.67-2.39-1.32-3.87-1-.09-1.17-.18-2.25-.27-3.34-.75-.2-1.34.39-2,.43.82,2.31.52,4.7.57,7.07,0,.49-.21,1.08.27,1.43,1.09.79,4.46,0,5.22-1.23A3.11,3.11,0,0,0,562.1,209.92Zm-2.86,3.85c-1.41-.07-1.1-1.29-1.12-2.19s-.21-1.77,1-1.72,1.31,1.14,1.53,1.91C560.51,212.79,560.39,213.83,559.24,213.77Z" transform="translate(-447.94 -89.99)"/><path class="cls-2" d="M574.13,208.73c-2,.34-2.08-.59-2-2,0-.7,0-1.4-1.06-1-.65.25-1.53.26-.82,1.41s.17,2.42.31,3.46c0,4.15,0,4.19,3.1,4a3,3,0,0,0,2.9-3.19C576.49,209.89,575.75,208.46,574.13,208.73Zm-.87,5c-1.25,0-1.07-1.13-1.12-2,.13-.74-.35-1.9,1.08-1.88,1.15,0,1.41.95,1.44,1.84S574.51,213.78,573.26,213.77Z" transform="translate(-447.94 -89.99)"/><path class="cls-2" d="M525.72,210.31c-.57-.74-1.07-1.81-2.13-1.62-1.82.33-2.46-.25-2.22-2.05.08-.64-.2-1.21-1-.9-.63.24-1.86.21-.87,1.46.81,1.94.11,4,.34,5.94.05.46-.13,1.39.26,1.3,1.47-.35,3,.87,4.38-.23A3.8,3.8,0,0,0,525.72,210.31Zm-3.17,3.44c-1.43-.06-.81-1.42-1.13-2,.1-.92-.18-1.93,1.08-1.86s1.37,1.06,1.38,2S523.64,213.79,522.55,213.75Z" transform="translate(-447.94 -89.99)"/><path class="cls-2" d="M583.41,213.33c-1.09-.88-.63-2-.71-3a1.63,1.63,0,0,0-2-1.74,3.18,3.18,0,0,0-2.73,1.5c-.2.32-.34.72,0,1,.18.11.54,0,.79-.08a1.58,1.58,0,0,0,.83-.94c.22-.51.68-.85,1.16-.29a.86.86,0,0,1-.21,1.33c-.68.42-1.46.66-2.12,1.09a1.34,1.34,0,0,0-.66,1.49,1.28,1.28,0,0,0,1.3,1c1.18,0,2.3-.57,3.55-.1C583.17,214.72,583.82,213.66,583.41,213.33Zm-2.35-.49c-.14.46-.41.78-.93.71a.46.46,0,0,1-.42-.61c.17-.5.48-.94,1.09-.81C581.12,212.2,581.16,212.53,581.06,212.84Z" transform="translate(-447.94 -89.99)"/><path class="cls-2" d="M569.37,213.4c-1-1-.62-2.11-.72-3.18a1.57,1.57,0,0,0-1.89-1.59,3.11,3.11,0,0,0-2.5,1.11c-.31.35-.82.84-.28,1.3s1,0,1.32-.35.34-1.38,1.29-1.11c.18,0,.34.46.36.72.06.89-.76.94-1.29,1.24-.32.18-.67.29-1,.49-.66.41-1.16,1-.84,1.8a1.45,1.45,0,0,0,1.83.79,4.12,4.12,0,0,1,2.69-.05C569,214.83,569.84,213.87,569.37,213.4Zm-3.09.16c-.41,0-.72-.19-.6-.65a1.06,1.06,0,0,1,.91-.82c.33-.05.48.24.48.57S566.79,213.52,566.28,213.56Z" transform="translate(-447.94 -89.99)"/><path class="cls-2" d="M468,208.64a3,3,0,1,0-.19,6,3,3,0,0,0,.19-6Zm-.3,5.13c-1.27-.09-1.19-1.35-1.19-2.23s0-2.14,1.38-2,1.08,1.3,1.14,2.26S469,213.86,467.68,213.77Z" transform="translate(-447.94 -89.99)"/><path class="cls-3" d="M558.05,132.67c2.23,2.35,2.12,2.94-.4,5.52-.87.89-3,1.11-2,3.28.9,2,2.43.5,3.63.79s3.09-.51,3.88,1.24c.49,1.08.67,2.27-.68,3-.89.5-1.72,1.12-2.63,1.55-1.07.51-2.09.81-1.85,2.45s1.41,1.16,2.29,1.4c.49.13,1,.19,1.49.33,3,.86,3,.87,2.82,4.1-.38,1.58-1.82,1.68-3,2.18-.82.35-2.24,0-2.32,1.19s1.27,1.23,2,1.76a11.78,11.78,0,0,1,1.91,1.46,3.13,3.13,0,0,1-1.22,5.18,9.69,9.69,0,0,1-4.11.39c-.42,0-.93-.14-1.14.39s.13.82.45,1.13a15.44,15.44,0,0,1,2.23,2.41,3.12,3.12,0,0,1,.32,3.67,3.26,3.26,0,0,1-3.35,1.61,20.46,20.46,0,0,1-3.2-.68c-.49-.11-1-.34-1.39.21s0,.86.17,1.24c.45.92,1,1.77,1.42,2.72a3.18,3.18,0,0,1-.49,3.85,3.37,3.37,0,0,1-3.86.57,21.12,21.12,0,0,1-2.89-1.55c-1-.54-1.42-.21-1.25.85s.58,2.11.7,3.21a3.4,3.4,0,0,1-1.67,3.73c-1.51.85-2.8.36-4-.63a19.07,19.07,0,0,1-2-2c-.31-.32-.64-.63-1.14-.43a1,1,0,0,0-.51,1.1,10.81,10.81,0,0,1,0,2.84c-.37,2.41-1.14,3.16-3.66,3.57-1.38-.21-2-1.26-2.75-2.28-.94-.82-.9-2.94-2.39-2.68-1.21.22-.79,2.12-1.31,3.18-.13.26,0-.08-.09.2a4.31,4.31,0,0,1-1.86,2.45,4,4,0,0,1-2.43.12c-2-.79-2.2-2.68-2.69-4.39-.19-.65,0-1.57-1-1.69s-1.17.71-1.52,1.3c-.92,1.56-1.66,3.25-3.63,3.78-2.74-.24-3.44-.95-3.57-3.63,0-.81,0-1.61,0-2.41,0-.57.09-1.25-.55-1.56s-1,.36-1.41.75a14,14,0,0,1-2.42,2.2,3.11,3.11,0,0,1-3.69.08,2.94,2.94,0,0,1-1.27-3.24c.15-.94.38-1.86.62-2.78.15-.61.55-1.32-.16-1.81s-1.23.17-1.78.46a20.53,20.53,0,0,1-2.11,1.16c-1.44.62-2.85.72-4.05-.49s-.94-2.51-.38-3.87a21.48,21.48,0,0,1,1.16-2.1c.31-.55.95-1.09.46-1.78s-1.34-.33-2-.18a19,19,0,0,1-2.56.6,3.19,3.19,0,0,1-3.5-1.67,3.11,3.11,0,0,1,.57-3.65c.65-.79,1.43-1.46,2.13-2.2.35-.37.77-.75.49-1.33a1.2,1.2,0,0,0-1.32-.58,12.38,12.38,0,0,1-3.49-.09,2.78,2.78,0,0,1-2.52-2.09,3.17,3.17,0,0,1,1.06-3.36,17.11,17.11,0,0,1,2.92-1.92c.46-.26.93-.52.84-1.14s-.64-.73-1.11-.93c-1.35-.56-3.15-.25-3.89-2a3.2,3.2,0,0,1,0-3.84c.66-1.59,2.23-1.42,3.49-1.85.6-.2,1.4-.21,1.54-1s-.69-1-1.2-1.35c-1.17-.8-2.78-1.12-3.06-2.86a3.9,3.9,0,0,1,.9-3.49c1.06-1.28,2.56-.7,3.87-.87.7-.1,1.59.16,1.94-.66s-.53-1.23-1-1.72c-1.07-1.07-2.39-2-2.18-3.79l1.34-2.56c.53-.82,1.35-.77,2.15-.68a17.37,17.37,0,0,1,2.57.58c.66.18,1.42.72,2-.11s-.16-1.37-.5-2-.68-1.13-1-1.73c-.7-1.47-1-2.94.32-4.24s2.79-1,4.26-.29c.87.4,1.64,1,2.51,1.36s1.41,0,1.21-1a20.76,20.76,0,0,1-.76-3.41,3.4,3.4,0,0,1,1.76-3.49c1.39-.71,2.54-.18,3.64.67.81.63,1.45,1.45,2.23,2.1,1.06.9,1.68.66,1.88-.72.14-1,0-2,.11-3.07a3.21,3.21,0,0,1,2.24-3.17c1.59-.49,2.67.27,3.58,1.46a18.83,18.83,0,0,1,1.38,2.23c.32.54.53,1.35,1.37,1.17s.88-.9,1-1.54a15.3,15.3,0,0,1,.71-2.3c1.11-2.54,2.73-3,5.26-1.59a9.75,9.75,0,0,1,1.48,3.55c.22.71.12,1.74,1.11,1.91s1.16-.89,1.55-1.53c.71-1.16,1.25-2.45,2.52-3.16,3.26-.63,4.75.75,4.82,4.33,0,.94-.82,2.29.4,2.76,1.06.42,1.63-1,2.4-1.59.51-.41,1-.91,1.5-1.27a3,3,0,0,1,4.82,2.14,7.89,7.89,0,0,1-.46,3.66c-.18.61-.64,1.35,0,1.85s1.35-.11,2-.43a24.46,24.46,0,0,1,2.34-1.19,3.11,3.11,0,0,1,3.49.42,3.31,3.31,0,0,1,.79,3.64,13.18,13.18,0,0,1-1.23,2.57c-.3.54-1,1.08-.58,1.74s1.34.22,2,.1,1.43-.31,2.15-.4A1.94,1.94,0,0,1,558.05,132.67Z" transform="translate(-447.94 -89.99)"/><path class="cls-4" d="M522.67,188.39c-13.83-.73-24.06-7.07-30.25-19.62-1.18-2.4-1-2.7,1.51-3.57,3.92-1.37,3.83-1.32,5.93,2.27,5.28,9,13.15,13.75,23.64,13.49,10.21-.27,17.64-5.31,22.57-14.19.53-1,.59-2.73,1.95-2.61a12.07,12.07,0,0,1,5.51,1.92c.76.51.19,1.36-.1,2-5.2,11.12-13.76,17.86-25.94,19.88A21.47,21.47,0,0,1,522.67,188.39Z" transform="translate(-447.94 -89.99)"/><path class="cls-5" d="M556.25,154.93a28.14,28.14,0,0,1-.74,6.72c-.12.49-.12,1.21-.66,1.28-2,.28-3.82-.68-5.63-1.32-1.34-.47-.82-1.74-.68-2.68,1.16-7.78-.49-14.77-5.75-20.75-.93-1.05-.85-1.78.07-2.78,3.9-4.23,4.16-4.26,7.44.44A32.92,32.92,0,0,1,556.25,154.93Z" transform="translate(-447.94 -89.99)"/><path class="cls-6" d="M523.3,121.38A34.57,34.57,0,0,1,542.57,128c1.67,1.19,1.76,2.1.33,3.62-3,3.13-2.82,3.1-6.58,1-9.58-5.44-19.12-5.24-28.32.85-2,1.3-2.93,1-4.29-.61-2.85-3.47-2.92-3.41.82-5.88A34.54,34.54,0,0,1,523.3,121.38Z" transform="translate(-447.94 -89.99)"/><path class="cls-7" d="M489.44,154.69a32.61,32.61,0,0,1,7.68-21.19c1.26-1.54,2.17-1.72,3.64-.17,3.06,3.24,3.11,3.15.58,6.69a24.09,24.09,0,0,0-4.25,18.7c.36,2.09-.18,3-2.3,3.51-4.77,1.21-4.79,1.3-5.15-3.6C489.55,157.32,489.5,156,489.44,154.69Z" transform="translate(-447.94 -89.99)"/><path class="cls-8" d="M526,133.13c-.06-1.95.18-2.15,2.57-1.49a26.1,26.1,0,0,1,11.9,7.1c1,1,1,1.66-.33,2.29-3.7,1.75-7.38,3.54-11.06,5.32-1.38.66-2.09.2-2.2-1.28C526.64,141.28,526.36,137.49,526,133.13Z" transform="translate(-447.94 -89.99)"/><path class="cls-9" d="M498.9,155a30,30,0,0,1,1-7.35c.36-1.47,1.06-1.76,2.33-.88,3.3,2.28,6.63,4.53,10,6.79,1.23.83,1.32,1.68.07,2.54-3.37,2.32-6.76,4.6-10.13,6.91-1.2.81-1.85.44-2.2-.89A29.12,29.12,0,0,1,498.9,155Z" transform="translate(-447.94 -89.99)"/><path class="cls-10" d="M546.59,154.91a23.89,23.89,0,0,1-1,7.12c-.32,1.4-1,1.79-2.35.88-3.23-2.25-6.5-4.46-9.77-6.66-1.4-.93-1.55-1.83-.08-2.83,3.27-2.2,6.54-4.4,9.78-6.65,1.41-1,2.11-.51,2.46,1A24.3,24.3,0,0,1,546.59,154.91Z" transform="translate(-447.94 -89.99)"/><path class="cls-11" d="M526.08,176.25c.3-4.06.57-7.84.85-11.61.11-1.58.87-2.08,2.33-1.38l11,5.33c1.14.55,1.32,1.18.39,2.15a26.45,26.45,0,0,1-12.86,7.45C525.57,178.75,526.14,177.09,526.08,176.25Z" transform="translate(-447.94 -89.99)"/><path class="cls-11" d="M519.68,176.79c.24,1.43-.46,1.81-1.76,1.5a25.6,25.6,0,0,1-12.87-7.5c-.87-.92-.59-1.52.43-2,3.68-1.79,7.36-3.56,11-5.37,1.75-.86,2.29.12,2.4,1.58C519.19,168.92,519.43,172.86,519.68,176.79Z" transform="translate(-447.94 -89.99)"/><path class="cls-12" d="M519.39,135.13c-.23,2.86-.53,6.34-.77,9.83-.12,1.76-.88,2.17-2.43,1.41-3.59-1.76-7.18-3.53-10.8-5.24-1.31-.61-1.39-1.22-.4-2.24a26.78,26.78,0,0,1,11.19-7C519.39,130.91,519.58,131.07,519.39,135.13Z" transform="translate(-447.94 -89.99)"/><path class="cls-13" d="M522.74,163.33a8.44,8.44,0,1,1,8.42-8.37A8.61,8.61,0,0,1,522.74,163.33Z" transform="translate(-447.94 -89.99)"/><path class="cls-14" d="M499.91,173.72c1,.08,1.2-1.31,2.42-1-.7,1.63-2.21,2.4-3.43,3.35-.66.52-1-.21-.89-.86.19-.9.53-1.76.8-2.64-1.16-.3-1.95,1.78-2.61.63-.52-.91,1.3-1.18,1.95-1.88a3.4,3.4,0,0,1,.89-.6c.42-.23.79-.8,1.33-.3.38.35.14.79,0,1.21C500.22,172.33,499.76,173,499.91,173.72Z" transform="translate(-447.94 -89.99)"/><path class="cls-15" d="M518.87,184.41c.83-.79.18-1.83,1.15-2.44.67,1.6.22,3.13-.14,4.58-.27,1.07-1,.63-1.35,0s-.75-1.5-1.13-2.29c-1,.59-.26,2.55-1.34,2.21s.06-1.71,0-2.63a4.25,4.25,0,0,1,.25-1.07c.11-.47.07-1.1.76-1.12.52,0,.67.5.86.88C518.25,183.07,518.52,183.66,518.87,184.41Z" transform="translate(-447.94 -89.99)"/><path class="cls-16" d="M542.87,176.94c-.1-1.09-1.35-1.32-1.26-2.73a10.27,10.27,0,0,1,3.55,3.36c.58.8-.22,1.07-1,1s-1.58-.71-2.51-.53c0,.94,1.23,1.4.93,2.66-1.6-.88-2.29-2.33-3.11-3.59-.49-.75.25-1,.89-.81C541.19,176.43,542,176.69,542.87,176.94Z" transform="translate(-447.94 -89.99)"/><path class="cls-17" d="M546.31,176.92c-.78-1.26-1.56-2.5-2.33-3.76-.22-.37-.46-.75,0-1.17a1.05,1.05,0,0,1,1.2-.17l4.43,1.48c-1.67.89-3.48,1.32-2.56,3.85Z" transform="translate(-447.94 -89.99)"/><path class="cls-18" d="M513.46,185.88a.87.87,0,0,1-.72-.92c-.08-.62.15-1.44-.68-1.68s-.79.66-1.1,1.09c-.17.22-.32.54-.68.39s-.35-.55-.2-.9a13.7,13.7,0,0,0,.92-2.22c.46-2,1.6-1.7,2.9-1,1.48.8,1.28,1.82.21,2.78C513.32,184.13,514.11,185.16,513.46,185.88Z" transform="translate(-447.94 -89.99)"/><path class="cls-15" d="M526,186.8c-1.67-.67-3-.94-4.5.73a10.87,10.87,0,0,1,1.25-4.81c.37-.89,1.16-.76,1.58.15C525,184.16,525.48,185.49,526,186.8Z" transform="translate(-447.94 -89.99)"/><path class="cls-15" d="M508.62,181c-.85.53-1.69-1.06-2.18.12s1.61,1,1.54,2.38c-1.32-.23-3.07-.94-3-1.87a6,6,0,0,1,2.4-3.7c1.08-.74,2,.81,2.95,1.35-.28.65-.63.43-1,.33-.56-.16-1.19-1-1.69-.21S508.54,180.24,508.62,181Z" transform="translate(-447.94 -89.99)"/><path class="cls-19" d="M539.65,181.06c-.18,1.52-.93,2.53-2.61,2.53a2.55,2.55,0,0,1-.11-5.09C538.53,178.46,539.44,179.4,539.65,181.06Z" transform="translate(-447.94 -89.99)"/><path class="cls-20" d="M506.76,177.36c-2.53-1.34-3.17.26-4.12,1.32-.3.33-.57,1-1.18.57s0-.89.32-1.24c.5-.63,1.05-1.21,1.58-1.81.73-.83-.6-1.19-.44-2.16C504.41,174.62,505.35,175.64,506.76,177.36Z" transform="translate(-447.94 -89.99)"/><path class="cls-21" d="M526,182.3a9.54,9.54,0,0,1,4.62-1c-2.37,1.06-1.62,2.5-1.39,3.86.07.48.71,1.26-.28,1.37-.81.08-.66-.79-.75-1.32C527.93,184,528,182.49,526,182.3Z" transform="translate(-447.94 -89.99)"/><path class="cls-22" d="M545.74,169.07c1.57-.33,2.42.61,3.34,1.13,1.71,1,1.48-1.47,2.64-1.46-.55,3.16-1.08,3.46-3.59,2A5.81,5.81,0,0,1,545.74,169.07Z" transform="translate(-447.94 -89.99)"/><path class="cls-23" d="M548.63,165.62a1.51,1.51,0,0,1,1.44,1.37,1.39,1.39,0,0,1-1.44,1.54,1.36,1.36,0,0,1-1.42-1.34C547.15,166.27,547.77,165.79,548.63,165.62Z" transform="translate(-447.94 -89.99)"/><path class="cls-24" d="M498.61,168.29c.2.09.44.13.55.27a.5.5,0,0,1-.16.75c-1.17.72-2.36,1.41-3.55,2.1a.46.46,0,0,1-.69-.29c-.06-.17,0-.5.09-.57C496.08,169.78,497.33,169.05,498.61,168.29Z" transform="translate(-447.94 -89.99)"/><path class="cls-25" d="M533.87,184.48c.08.55,0,.8-.34.89s-.52-.2-.61-.45c-.42-1.15-.83-2.3-1.2-3.45-.11-.34-.13-.74.33-.87s.51.18.61.45Z" transform="translate(-447.94 -89.99)"/><path class="cls-17" d="M532.51,129.1c-.57-.06-.67-.39-.76-.76-.26-1.16-.47-2.59-1.53-.36-.13.26-.34.49-.69.39s-.49-.5-.39-.86a29.24,29.24,0,0,1,1-3.34c.62-1.46,1.64-.35,2.41-.17a1.38,1.38,0,0,1,1,2.2A7.86,7.86,0,0,0,532.51,129.1Z" transform="translate(-447.94 -89.99)"/><path class="cls-26" d="M511.46,129.88c-.83.44-1.22-.13-1.72-.38-.95-.48-1.44-.32-1,.84.14.43.41.88-.09,1.14-.7.36-.81-.38-1.05-.75a11.85,11.85,0,0,1-.95-1.71c-.27-.6-1.18-1.19-.45-1.88a3.27,3.27,0,0,1,2.51-1.11,1.54,1.54,0,0,1,1.44,1.65C510.06,128.77,511.17,129,511.46,129.88Z" transform="translate(-447.94 -89.99)"/><path class="cls-27" d="M517,126.32a2.4,2.4,0,0,1-2.71,2.42,2.55,2.55,0,0,1,.32-5.09A2.4,2.4,0,0,1,517,126.32Z" transform="translate(-447.94 -89.99)"/><path class="cls-17" d="M527.47,127.87c-1.42-1.29-2.81-1.52-4.2-.39a.62.62,0,0,1-.07-.92c.94-1.28,1-4.14,2.6-3.71S527,126,527.47,127.87Z" transform="translate(-447.94 -89.99)"/><path class="cls-24" d="M539.75,127c-1.24,1.46-3.19,1.72-3.68,3.54,0,.11-.39.23-.54.18a.48.48,0,0,1-.28-.7,4.55,4.55,0,0,0,.42-4c-.07-.26-.08-.62.27-.69.16,0,.51.14.52.24C536.63,127.83,538.08,127.56,539.75,127Z" transform="translate(-447.94 -89.99)"/><path class="cls-28" d="M520.41,127.81c-1.54-1.33.25-4.2-3-4.5,1.64-1,3-.8,4.66-.51C519.14,123.71,521.59,126.21,520.41,127.81Z" transform="translate(-447.94 -89.99)"/><path class="cls-29" d="M522.76,147.48a7.39,7.39,0,0,1,7.49,7.46,7.61,7.61,0,0,1-7.59,7.46,7.4,7.4,0,0,1-7.3-7.44A7.21,7.21,0,0,1,522.76,147.48Z" transform="translate(-447.94 -89.99)"/><path class="cls-30" d="M513.89,182.07c-.13.39-.38.64-.79.55s-1.07-.21-1-.89c0-.34.28-.69.74-.55S513.86,181.41,513.89,182.07Z" transform="translate(-447.94 -89.99)"/><path class="cls-31" d="M536.89,179.32c1,.11,1.72.56,1.8,1.57a1.52,1.52,0,0,1-1.46,1.78,1.57,1.57,0,0,1-1.87-1.61C535.3,180.05,536,179.57,536.89,179.32Z" transform="translate(-447.94 -89.99)"/><path class="cls-32" d="M532.57,125.15c0,.76-.25,1-.64,1s-.92,0-1-.6.18-.86.74-.81S532.53,124.9,532.57,125.15Z" transform="translate(-447.94 -89.99)"/><path class="cls-33" d="M508.18,128.6a.77.77,0,0,1-.87-.64c-.08-.63.44-.82.93-.92a.58.58,0,0,1,.71.59C509,128.25,508.49,128.42,508.18,128.6Z" transform="translate(-447.94 -89.99)"/><path class="cls-34" d="M516.06,126.18c-.14,1.06-.65,1.7-1.7,1.67a1.66,1.66,0,0,1,.11-3.32A1.58,1.58,0,0,1,516.06,126.18Z" transform="translate(-447.94 -89.99)"/><path class="cls-35" d="M525.36,126c-.4-.07-.66-.28-.48-.7s.23-.94.79-.74c.21.07.35.57.37.88S525.81,126,525.36,126Z" transform="translate(-447.94 -89.99)"/><path class="cls-12" d="M527.83,154.87a5,5,0,0,1-4.93,5,5,5,0,0,1-5.07-5c0-2,3.08-6,4.72-6.11C524.46,148.73,527.8,152.53,527.83,154.87Z" transform="translate(-447.94 -89.99)"/><path class="cls-2" d="M482.1,213.24c-.81-1-.48-1.94-.6-2.89-.17-1.29-.84-1.79-2.59-1.68.31,0,.08,0-.13,0a3,3,0,0,0-2.15,1.69c-.14.32-.08.66.22.73,1,.21,1.29-.68,1.74-1.32a.57.57,0,0,1,1.05,0,.81.81,0,0,1-.29,1.3c-.64.33-1.35.56-2,.94a1.43,1.43,0,0,0-.73,1.86c.32.72,1,.77,1.69.72.9-.07,1.68-.57,2.72-.1A.88.88,0,0,0,482.1,213.24Zm-2.57.16h-1.32c-.44,0,.88-1.32.88-1.32l.88.88Z" transform="translate(-447.94 -89.99)"/></svg>