<?xml version="1.0" encoding="utf-8"?>
<!-- Generator: Adobe Illustrator 22.0.1, SVG Export Plug-In . SVG Version: 6.00 Build 0)  -->
<svg version="1.1" id="Layer_1" xmlns="http://www.w3.org/2000/svg" xmlns:xlink="http://www.w3.org/1999/xlink" x="0px" y="0px"
	 viewBox="0 0 150 150" style="enable-background:new 0 0 150 150;" xml:space="preserve">
<style type="text/css">
	.st0{fill:none;}
	.st1{fill:#FEFEFE;}
	.st2{fill:#04039C;}
	.st3{fill:#0D0D0D;}
	.st4{fill:#0F0F0F;}
	.st5{fill:#161616;}
	.st6{fill:#F3F3F3;}
	.st7{fill:#444444;}
</style>
<title>cl3</title>
<rect class="st0" width="150" height="150"/>
<path class="st1" d="M134.1,75.6c0,23.3,0,46.6,0,69.9c0,1.8-0.4,2.1-2.1,2.1c-38.4-0.1-76.9-0.1-115.3,0c-1.8,0-2.1-0.4-2.1-2.1
	c0.1-46.6,0.1-93.2,0-139.8c0-1.8,0.4-2.1,2.1-2.1c38.4,0.1,76.9,0.1,115.3,0c1.8,0,2.1,0.4,2.1,2.1C134.1,29,134.1,52.3,134.1,75.6
	z"/>
<path class="st2" d="M119.9,103.9c-1.8-0.2-3.3-1.4-4-3c-0.7-1.7-1.8-1.8-3.3-1.8c-25.7,0-51.3,0-77,0c-1.6,0-2.6,0.2-3.5,1.9
	c-1.4,2.6-4.5,3.7-7.2,2.4c-2.7-1-4.3-3.8-3.8-6.7c0.4-2.9,2.9-5,5.9-4.9c1.4,0.2,2.7-0.6,3.2-1.9C43.5,67.7,56.9,45.3,70.2,23
	c0.8-1,0.8-2.4,0-3.4c-1.4-2.5-0.8-5.7,1.5-7.5c2.3-1.8,5.5-1.7,7.7,0.1c2.3,1.8,2.9,5.1,1.3,7.6c-0.9,1.5-0.7,2.4,0.1,3.7
	c12.5,22.1,24.9,44.2,37.3,66.3c0.9,1.5,1.7,2.3,3.6,2.3c3.1,0.1,5.6,2.7,5.5,5.9c0,0.1,0,0.2,0,0.3
	C126.9,101.5,124.2,104,119.9,103.9z"/>
<path class="st3" d="M85.4,137.6c-0.7,0-1.3,0-2,0c-1.8-0.3-2.6,0.5-3.1,2.1c-0.7,2.2-1.8,2.7-4,2.2c-0.8-0.2-0.7-0.5-0.4-1
	c2.2-5.7,4.5-11.4,6.7-17.1c0.5-1.4,1.6-0.8,2.5-0.8c0.9,0,1.8-0.4,2.3,0.9c2.2,5.7,4.5,11.4,6.8,17.1c0.1,0.3,0.4,0.6,0,0.9
	c-0.7,0.6-3.9-0.1-4.2-1C89.3,138,87.8,136.8,85.4,137.6z"/>
<path class="st3" d="M95.8,132.6c0.1-7.1,4.8-11.1,11-9.8c1.6,0.3,3,1.2,4,2.5c0.6,0.8,1.6,1.9,1.1,2.7c-0.4,0.7-1.9,0.6-2.9,0.9
	c-0.7,0.2-0.8-0.4-1-0.8c-0.8-1.6-2.6-2.5-4.4-2.1c-2.1,0.3-3.2,1.6-3.7,3.5c-0.5,2-0.5,4,0.1,6c0.5,1.9,1.7,3.2,3.8,3.4
	c1.9,0.3,3.7-0.9,4.2-2.7c0.8-2.3,2.1-0.5,3.1-0.4c1.5,0.1,0.7,1.2,0.4,1.8c-1.4,3.2-4,4.7-7.9,4.5c-3.5-0.2-6.5-2.6-7.5-6
	C95.9,135,95.7,133.8,95.8,132.6z"/>
<path class="st3" d="M62.7,132.4c0-2.7,0-5.3,0-8c0-1.1,0.2-1.6,1.5-1.6c3.4,0.1,6.8,0.1,10.2,0c1.5,0,1.3,0.9,1.3,1.8
	c0,0.9,0.1,1.6-1.2,1.6c-2.2-0.1-4.3,0.1-6.5-0.1c-1.8-0.1-1.5,1-1.4,2c0.1,1-0.8,2.6,1.4,2.5c1.6-0.1,3.2,0.1,4.8,0
	c1.3-0.1,1.8,0.3,1.8,1.7c0,1.4-0.5,1.6-1.7,1.5c-1.5-0.1-3.1,0.1-4.6,0s-1.8,0.5-1.7,1.8c0.1,1.7-0.1,3.4,0,5
	c0.1,1.7-1,1.4-1.9,1.3c-0.9,0-2,0.4-2-1.3C62.8,137.9,62.7,135.2,62.7,132.4z"/>
<path class="st4" d="M43.5,134c0-1.9-0.1-3.9,0-5.8c0.1-1.5-0.2-2.3-1.9-2c-0.7,0.1-1.4,0-2.1,0c-1.2,0.1-1.7-0.2-1.7-1.6
	c0-1.4,0.4-1.8,1.8-1.7c3.9,0.1,7.8,0.1,11.7,0c1.3,0,1.7,0.3,1.7,1.6c0,1.2-0.2,1.7-1.6,1.7c-4.1,0-4.1,0.1-4.1,4.1
	c0,3.3-0.1,6.5,0,9.8c0.1,1.5-0.5,1.8-1.9,1.8s-2.2-0.2-2-1.9C43.7,138,43.5,136,43.5,134z"/>
<path class="st5" d="M55.3,132.4c0-2.6,0.1-5.3,0-7.9c-0.1-1.7,0.8-1.6,1.9-1.5c1,0,2.1-0.4,2.1,1.4c-0.1,5.4-0.1,10.9,0,16.3
	c0,1.8-1.2,1.3-2.1,1.3c-0.9,0.1-1.9,0.2-1.9-1.4C55.4,137.8,55.3,135.1,55.3,132.4z"/>
<path class="st1" d="M74,96.5H35.5c-1.4,0-2.5,0.1-3.4-1.5s-0.3-2.5,0.4-3.7C45.7,69.1,58.9,47,72.1,25c2-3.4,4.5-3.3,6.5,0.2
	l37.1,65.9c1.7,3,0.4,5.3-3.1,5.3L74,96.5z"/>
<path class="st6" d="M84.9,127.4c0.8,2.3,1.5,4,2.2,5.7c0.4,1,0.1,1.1-0.8,1.2c-4,0.3-4,0.3-2.6-3.4C83.9,130,84.3,129,84.9,127.4z"
	/>
<path class="st2" d="M47.3,66.4L97,58L64.4,96.5c0.3-6.1,0.4-11.3,0.9-16.5c0.3-3-0.5-4.6-3.4-5.9C57.2,71.9,52.7,69.3,47.3,66.4z"
	/>
<path class="st1" d="M99.4,73.5c-0.2,1.7,0.4,3.1,2.1,3.4s2.2,1.3,2.1,2.9c-0.2,3.1,0.4,5.8,4,7.1c2.2,0.8,1.4,3.3,1.3,5.1
	s-1.7,1.3-2.8,1.3c-10,0-19.9,0-29.9,0c-0.9,0-2.2,0.6-2.4-1c-0.1-1.2,1.3-1,1.8-1.5c2.2-2.2,4.7-4.1,6.9-6.3c1.1-1,1.1-3,3.3-3.1
	c1.3-0.1,1.5-1.4,1.5-2.6c0-3.2-0.4-6.5,3.8-7.6c0.2-0.1,0.3-0.2,0.4-0.4c1-4.2,4.3-3.1,7.1-3.2C99.7,69.5,98.6,71.6,99.4,73.5z"/>
<path class="st1" d="M99.4,73.5c-1.2-1.9-0.3-4-0.6-6C100.1,69.4,99.2,71.5,99.4,73.5z"/>
<g>
	<path class="st7" d="M53.8,117.1H49l-0.6,2h-3.2l4.4-12.9h3.8l4.4,12.9h-3.2L53.8,117.1z M52.9,114.3l-1.5-4.7l-1.5,4.7H52.9z"/>
	<path class="st7" d="M65.8,119.1l-4.1-6v6h-2.9v-12.9h2.9v5.6l3.9-5.6H69l-4.3,6.3l4.5,6.6H65.8z"/>
	<path class="st7" d="M81.9,113c0,3.9-2.7,6.3-6.4,6.3c-4,0-7-3-7-6.7c0-3.7,3-6.7,6.8-6.7c2.5,0,4.5,1.2,5.6,2.9l-2.5,1.4
		c-0.5-0.8-1.7-1.5-3.1-1.5c-2.2,0-3.8,1.6-3.8,3.9c0,2.2,1.5,3.8,4,3.8c1.7,0,2.8-0.8,3.3-2h-3.4v-2.6h6.5V113z"/>
	<path class="st7" d="M91.7,116.3v2.8h-8.1v-12.9h8v2.8h-5.1v2.1h4.6v2.8h-4.6v2.3H91.7z"/>
	<path class="st7" d="M92.7,112.7c0-3.8,2.8-6.7,6.7-6.7c2.3,0,4.4,1.2,5.5,3l-2.5,1.5c-0.6-1-1.7-1.6-3-1.6c-2.3,0-3.8,1.5-3.8,3.8
		c0,2.3,1.5,3.8,3.8,3.8c1.3,0,2.4-0.6,3-1.6l2.5,1.5c-1.1,1.8-3.2,3-5.5,3C95.5,119.4,92.7,116.5,92.7,112.7z"/>
</g>
</svg>
