<svg id="Layer_1" data-name="Layer 1" xmlns="http://www.w3.org/2000/svg" viewBox="0 0 150 150"><defs><style>.cls-1{fill:none;}.cls-2{fill:#fefefe;}.cls-3{fill:#04039c;}.cls-4{fill:#0d0d0d;}.cls-5{fill:#0f0f0f;}.cls-6{fill:#161616;}.cls-7{fill:#f3f3f3;}</style></defs><title>cl3</title><rect class="cls-1" width="150" height="150"/><path class="cls-2" d="M354.1,278.6c0,23.3,0,46.6,0,69.91,0,1.78-.36,2.14-2.14,2.14q-57.66-.11-115.32,0c-1.78,0-2.14-.36-2.14-2.14q.09-69.92,0-139.82c0-1.78.36-2.14,2.14-2.14q57.66.09,115.32,0c1.78,0,2.15.36,2.14,2.14C354.07,232,354.1,255.29,354.1,278.6Z" transform="translate(-220 -203)"/><path class="cls-3" d="M339.88,306.94a5,5,0,0,1-4-3c-.74-1.66-1.79-1.77-3.27-1.77q-38.52,0-77,0c-1.6,0-2.65.21-3.51,1.89a5.55,5.55,0,0,1-7.21,2.43,6,6,0,0,1-3.81-6.68,5.59,5.59,0,0,1,5.85-4.88,3.14,3.14,0,0,0,3.23-1.87q20-33.57,40.07-67.09a2.87,2.87,0,0,0,0-3.42,5.93,5.93,0,0,1,1.49-7.54,6.18,6.18,0,0,1,7.72.1,5.69,5.69,0,0,1,1.27,7.55c-.94,1.48-.67,2.41.06,3.72q18.69,33.12,37.26,66.3c.86,1.52,1.67,2.29,3.61,2.27a5.69,5.69,0,0,1,5.47,6.21C346.88,304.45,344.24,307,339.88,306.94Z" transform="translate(-220 -203)"/><path class="cls-4" d="M308.81,338.76a20.22,20.22,0,0,1-2.81,0c-2.53-.47-3.69.7-4.39,3.06-.94,3.14-2.58,3.86-5.73,3.19-1.1-.24-.93-.67-.63-1.43,3.19-8.14,6.38-16.28,9.51-24.44.74-1.94,2.3-1.14,3.54-1.2s2.52-.55,3.22,1.22c3.18,8.14,6.47,16.24,9.71,24.36.16.42.52.88,0,1.33-1,.87-5.63-.13-5.92-1.46C314.4,339.36,312.19,337.64,308.81,338.76Z" transform="translate(-220 -203)"/><path class="cls-4" d="M323.62,331.67c.11-10.08,6.83-15.84,15.68-13.92a9.65,9.65,0,0,1,5.74,3.51c.9,1.15,2.3,2.76,1.59,3.88-.58.93-2.68.9-4.1,1.32-1,.31-1.1-.62-1.38-1.16a5.58,5.58,0,0,0-6.21-3.06c-2.93.4-4.59,2.28-5.25,5a17,17,0,0,0,.1,8.57c.73,2.7,2.39,4.54,5.4,4.79a5.39,5.39,0,0,0,6-3.83c1.18-3.3,3-.65,4.49-.51,2.21.2,1,1.68.59,2.62-2,4.62-5.75,6.75-11.32,6.44a11.6,11.6,0,0,1-10.67-8.52A14.16,14.16,0,0,1,323.62,331.67Z" transform="translate(-220 -203)"/><path class="cls-4" d="M276.52,331.48c0-3.78.06-7.56,0-11.34,0-1.56.23-2.35,2.08-2.3,4.87.12,9.75.13,14.61,0,2.15-.06,1.8,1.22,1.83,2.5s.15,2.33-1.75,2.24c-3.08-.15-6.18.12-9.25-.09-2.56-.18-2.19,1.45-2,2.86s-1.19,3.69,1.95,3.54c2.28-.11,4.58.09,6.86-.06,1.89-.13,2.51.4,2.52,2.41s-.76,2.28-2.42,2.19c-2.19-.12-4.39.11-6.56-.07s-2.55.65-2.43,2.54c.15,2.38-.09,4.78.07,7.16s-1.38,1.93-2.71,1.89-2.88.57-2.79-1.84C276.62,339.24,276.52,335.35,276.52,331.48Z" transform="translate(-220 -203)"/><path class="cls-5" d="M249.14,333.68c0-2.78-.13-5.57.05-8.34.13-2.11-.33-3.21-2.71-2.82-1,.15-2-.07-3,0-1.76.2-2.39-.32-2.4-2.25s.63-2.51,2.54-2.47c5.56.11,11.13.11,16.68,0,1.82,0,2.42.47,2.37,2.33,0,1.66-.22,2.44-2.22,2.44-5.81,0-5.81.12-5.81,5.84,0,4.67-.12,9.34.05,14,.09,2.21-.75,2.58-2.72,2.6s-3.11-.3-2.91-2.72C249.32,339.46,249.14,336.56,249.14,333.68Z" transform="translate(-220 -203)"/><path class="cls-6" d="M265.83,331.38c0-3.77.15-7.55-.05-11.31-.13-2.37,1.19-2.29,2.76-2.21,1.39.07,3-.56,3,2-.12,7.74-.11,15.48,0,23.21,0,2.63-1.73,1.8-3,1.9s-2.75.27-2.66-2C266,339.12,265.84,335.25,265.83,331.38Z" transform="translate(-220 -203)"/><path class="cls-2" d="M294,299.48H255.53c-1.37,0-2.53.11-3.44-1.55s-.26-2.54.45-3.72q19.79-33.12,39.55-66.25c2-3.37,4.49-3.28,6.47.23l37.08,65.94c1.71,3,.37,5.34-3.14,5.34Z" transform="translate(-220 -203)"/><path class="cls-7" d="M308.06,324.34c1.2,3.22,2.07,5.72,3.08,8.16.56,1.36.18,1.62-1.18,1.71-5.64.37-5.64.41-3.77-4.79C306.72,328,307.26,326.51,308.06,324.34Z" transform="translate(-220 -203)"/><path class="cls-3" d="M267.31,269.42,317.05,261l-32.6,38.47c.31-6.07.38-11.29.91-16.46.31-3-.53-4.62-3.35-5.89C277.24,274.91,272.7,272.26,267.31,269.42Z" transform="translate(-220 -203)"/><path class="cls-2" d="M319.44,276.51c-.22,1.71.36,3.08,2.13,3.35s2.17,1.25,2.08,2.87c-.17,3.15.39,5.78,4,7.1,2.19.81,1.36,3.28,1.3,5.08s-1.71,1.29-2.77,1.29q-14.93.06-29.86,0c-.86,0-2.24.57-2.37-1-.1-1.16,1.32-1,1.83-1.49,2.21-2.23,4.7-4.14,6.94-6.28,1.08-1,1.11-3,3.33-3.14,1.26-.08,1.48-1.38,1.48-2.57,0-3.16-.38-6.52,3.78-7.61a.68.68,0,0,0,.42-.41c1-4.16,4.31-3.13,7.14-3.2C319.67,272.46,318.59,274.58,319.44,276.51Z" transform="translate(-220 -203)"/><path class="cls-2" d="M288,262.65c-2.45,0-4.91,0-7.36,0-1.12,0-1.79-.49-1.77-1.52,0-1.89-1-4.59,1.51-5.22,3.06-.77,3.26-2.53,3.25-5,0-2,.2-4.16,2.83-4.86,1.24-.34,1.75-1.48,2.11-2.69s1-2.16,2.51-2.11c1.76,0,2.1-1.11,2.07-2.58,0-1.69,0-3.38,0-5.07,0-.68.08-1.51,1.05-1.47a1.23,1.23,0,0,1,1.29,1.34c-.1,2.2,1.38,2.9,3.11,3.34,1.43.36,1.79,1,1.53,2.59a16.07,16.07,0,0,0,.27,4.67c.12.95.85,1.85,1.72,1.82,3.28-.09,3,2.08,3,4.23,0,.8.08,1.6,0,2.39-.28,2.11.63,3.1,2.73,3.35.65.07,1.82.36,1.59,1.38s-1.26.72-2,.73c-2.74,0-5.5-.08-8.24.08-1.22.08-2.84.23-3.2,1.71-.72,3-2.78,3.23-5.24,3-.89-.08-1.79,0-2.68,0Z" transform="translate(-220 -203)"/><path class="cls-2" d="M319.44,276.51c-1.22-1.89-.32-4-.59-6C320.07,272.42,319.17,274.52,319.44,276.51Z" transform="translate(-220 -203)"/></svg>