<svg id="Layer_1" data-name="Layer 1" xmlns="http://www.w3.org/2000/svg" viewBox="0 0 150 150.04"><defs><style>.cls-1{fill:none;}.cls-2,.cls-3{fill:#2a88be;}.cls-3{font-size:30.76px;font-family:Gilroy-ExtraBold, Gilroy;font-weight:700;letter-spacing:-0.01em;}.cls-4{letter-spacing:0em;}</style></defs><title>cl4</title><rect class="cls-1" width="150" height="150"/><path class="cls-2" d="M516.32,104.6l-71.86,91.58c16.46,0,30.69.18,44.91-.1,4.75-.1,6.48,1.07,6.41,6.14s-1.09,6.95-6.58,6.84c-18.05-.34-36.11-.08-54.16-.16-8.75,0-12.5-3.77-12.53-12.65q-.12-41.42,0-82.84c0-8.38,3.85-12.36,12.08-12.39q43.41-.18,86.83,0c8,0,10.85,3.09,10.86,11.09.05,20.18-.34,40.37.2,60.53.21,7.71-4.31,6-8.61,6.27-4.61.25-7.86.32-7.73-6.31C516.6,150.66,516.32,128.7,516.32,104.6Z" transform="translate(-409.53 -96.96)"/><path class="cls-2" d="M479.49,178l16.12-20.6v8.44C495.63,180.35,495.63,180.35,479.49,178Z" transform="translate(-409.53 -96.96)"/><rect class="cls-2" x="108.38" y="96.24" width="14.35" height="12.75" rx="3.14" ry="3.14"/><text class="cls-3" transform="translate(9.8 141.73)">P<tspan class="cls-4" x="17.99" y="0">OINTER</tspan></text></svg>