<?xml version="1.0" encoding="utf-8"?>
<!-- Generator: Adobe Illustrator 22.0.1, SVG Export Plug-In . SVG Version: 6.00 Build 0)  -->
<svg version="1.1" id="Layer_1" xmlns="http://www.w3.org/2000/svg" xmlns:xlink="http://www.w3.org/1999/xlink" x="0px" y="0px"
	 viewBox="0 0 150 150" style="enable-background:new 0 0 150 150;" xml:space="preserve">
<style type="text/css">
	.st0{fill:none;}
	.st1{fill:#2A88BE;}
	.st2{font-family:'Gilroy-ExtraBold';}
	.st3{font-size:20.4156px;}
</style>
<title>cl4</title>
<rect class="st0" width="150" height="150"/>
<path class="st1" d="M98.9,46l-47.7,60.8c10.9,0,20.4,0.1,29.8-0.1c3.2-0.1,4.3,0.7,4.3,4.1c0,3.4-0.7,4.6-4.4,4.5
	c-12-0.2-24-0.1-35.9-0.1c-5.8,0-8.3-2.5-8.3-8.4c-0.1-18.3-0.1-36.7,0-55c0-5.6,2.6-8.2,8-8.2c19.2-0.1,38.4-0.1,57.6,0
	c5.3,0,7.2,2.1,7.2,7.4c0,13.4-0.2,26.8,0.1,40.2c0.1,5.1-2.9,4-5.7,4.2c-3.1,0.2-5.2,0.2-5.1-4.2C99.1,76.5,98.9,62,98.9,46z"/>
<path class="st1" d="M74.5,94.7L85.2,81v5.6C85.2,96.2,85.2,96.2,74.5,94.7z"/>
<path class="st1" d="M102,104.8h5.4c1.2,0,2.1,0.9,2.1,2.1v4.3c0,1.2-0.9,2.1-2.1,2.1H102c-1.2,0-2.1-0.9-2.1-2.1v-4.3
	C100,105.7,100.9,104.8,102,104.8z"/>
<text transform="matrix(1 0 0 1 34.5288 134.9629)" class="st1 st2 st3">P</text>
<text transform="matrix(1 0 0 1 46.4692 134.9629)" class="st1 st2 st3">OINTER</text>
<g>
	<path class="st1" d="M32.9,30.1h-9.5l-1.3,4h-6.4l8.7-25.7h7.5l8.7,25.7h-6.4L32.9,30.1z M31.1,24.6l-3-9.4l-3,9.4H31.1z"/>
	<path class="st1" d="M56.9,34.2l-8.2-11.9v11.9h-5.9V8.5h5.9v11.2l7.9-11.2h6.7L54.5,21l9,13.2H56.9z"/>
	<path class="st1" d="M89,22.1c0,7.9-5.5,12.6-12.7,12.6c-8.1,0-13.9-5.9-13.9-13.3C62.5,13.9,68.4,8,75.9,8c4.9,0,9.1,2.4,11.2,5.9
		l-5,2.9c-1.1-1.7-3.4-3-6.3-3c-4.3,0-7.6,3.2-7.6,7.7c0,4.4,3.1,7.6,8.1,7.6c3.4,0,5.7-1.5,6.6-4h-6.9v-5.1H89V22.1z"/>
	<path class="st1" d="M108.4,28.5v5.7H92.3V8.5h16v5.7H98.2v4.3h9.2V24h-9.2v4.6H108.4z"/>
	<path class="st1" d="M110.5,21.3c0-7.6,5.6-13.4,13.4-13.4c4.7,0,8.8,2.3,11,5.9l-5.1,2.9c-1.1-2-3.3-3.2-5.9-3.2
		c-4.6,0-7.5,3-7.5,7.6c0,4.6,2.9,7.6,7.5,7.6c2.6,0,4.8-1.2,5.9-3.2l5.1,2.9c-2.2,3.6-6.3,5.9-11,5.9
		C116.1,34.7,110.5,28.9,110.5,21.3z"/>
</g>
</svg>
