<svg id="Layer_1" data-name="Layer 1" xmlns="http://www.w3.org/2000/svg" viewBox="0 0 150 150"><defs><style>.cls-1{fill:none;}.cls-2{fill:#da251c;}.cls-3{fill:#c1c1c1;}.cls-4{fill:#737373;}.cls-5{fill:#747474;}.cls-6{fill:#797979;}.cls-7{fill:#7b7b7b;}.cls-8{fill:#767676;}.cls-9{fill:#777;}.cls-10{fill:#787878;}.cls-11{fill:#818181;}.cls-12{fill:#7d7d7d;}.cls-13{fill:#e9e9e9;}.cls-14{fill:#dedede;}.cls-15{fill:#a0a0a0;}.cls-16{fill:#909090;}.cls-17{fill:#c9c9c9;}.cls-18{fill:#eee;}.cls-19{fill:#e4e4e4;}</style></defs><title>cl8</title><rect class="cls-1" width="150" height="150"/><path class="cls-2" d="M294,238.69a5.7,5.7,0,0,1-3.51-2.93c-6.37-10.44-19-9.65-27.08-3.73a59.15,59.15,0,0,0-17.24,20.4c-9.28,17.34-12.33,35.57-7.38,54.85a35.52,35.52,0,0,0,4.18,9.55c7,11.51,17.81,13.62,28.83,5.85,5.53-3.89,9.15-9.44,13-14.56,1.37.4,1.31,1.23,1.07,1.71-5,10.3-11.13,19.79-21.68,25.21-10.72,5.52-21.17,2.3-28.39-8.52-8.88-13.32-10.92-28.36-9.88-43.87,1.33-20,9.06-37.26,23.41-51.41a46,46,0,0,1,16.16-10.53c8.62-3.28,16.63-1.34,22.28,5.87C290.51,230.08,293.18,233.68,294,238.69Z" transform="translate(-220 -203)"/><path class="cls-3" d="M264,247c-1.51-.87-2.18-.13-3.13,1.15-9.39,12.61-14.39,26.62-13.86,42.46.24,7.29,1.92,14.32,6.5,20,6.29,7.74,14,8.72,22.94,1.49,1.34-1.08,2.14-2.85,4.12-3.35-2.51,7-12.4,14.42-18.77,14.23-7.22-.22-14.49-5.94-17.18-13.74-6.41-18.58-5.7-36.8,4-54.06,4.52-8.08,10.14-15.47,19.37-19.21,9.72-3.93,15.06-2.74,21.13,6.52-3.86-1.44-6.61-3.87-10.64-3.63-8.25.48-8.27.14-8.53,8.29-3-.32-1.23-3.75-3.22-4.82C264.52,243.11,265.73,245.92,264,247Z" transform="translate(-220 -203)"/><path class="cls-4" d="M264,247c0-1.14-.09-2.28-.09-3.42,0-2,.7-3.65,3-3.7,2.5,0,2.16,1.9,2.14,3.52,0,1.31-.06,2.63.89,3.71-1.42,13-.21,26-.72,39-.15,3.82,1.93,3.95,4.64,3.75,3.74-.78,7.51-.17,11.25-.36,3,.12,3.48-1.78,3.44-4.24-.06-3.95,0-7.9,0-11.86,0,3.93,0,7.85,0,11.77,0,2.12-.11,4.1-2.91,4.29-3.8-.79-8,1.72-11.49-1.51.69-3.79,3.75-2.16,5.56-2,7.83.72,4.44-5.06,5.1-8.42.94-4.8-2.78-3.88-5-3.36-5.44,1.27-6.23-3.54-8.45-6.18-1-1.16.61-2.94,2.29-3,5.82-.18,11.64-.18,17.46-.14,2.13,0,2.8,1.64,2.82,3.42.08,7.49.12,15,.07,22.46,0,3.31-1.79,4.49-5.14,4.38-6.48-.22-13-.21-19.46,0-3.94.14-5.31-1.45-5.29-5.27C264.14,275.6,264,261.3,264,247Z" transform="translate(-220 -203)"/><path class="cls-5" d="M319.85,295.09l-19.71,0c-1.59,1.26-2.4-.41-3.51-.94-2-3.6.6-4,3.08-4.07,5.33-.14,10.66-.23,16-.05,3,.1,4.21-.75,4.2-3.89s-1.61-3.45-4.11-3.38c-4.83.14-9.67-.06-14.49.12-3.77.14-5.22-1.49-4.73-5.12a19,19,0,0,0,.12-2C297,265,297,265,308,264.92c4.16,0,8.33,0,12.49,0,1.94,0,4.08.09,4.15,2.47.07,2.69-2.23,2.87-4.33,2.86-5.16,0-10.33,0-15.49-.07-2.58-.06-3.47.81-3.37,3.51.1,2.43.41,3.73,3.24,3.63,5.16-.18,10.33,0,15.49-.11,3.41-.08,4.9,1.48,4.85,4.8,0,3,0,6,0,9,0,2-.6,3.6-2.79,4.13A2,2,0,0,1,319.85,295.09Z" transform="translate(-220 -203)"/><path class="cls-6" d="M296.63,294.11l3.51.94c1.45,2.15,3.39,4.09,1.85,7.12-.64,1.27.3,2.54,1.08,3.64a2.87,2.87,0,0,1,.75,2.32c-2.69,5.95-5.9,7.19-9.78,3.78C293,305.7,290.89,299.34,296.63,294.11Z" transform="translate(-220 -203)"/><path class="cls-7" d="M367.91,311.8c-5,2.64-4.13-2.34-5.54-4.27-.81-1.1.79-3.95-2-3.52-2.23.34-1.05,2.69-1.36,4.16-.28,1.31.8,3.22-1.25,3.75-1.22.31-1.44-1-1.8-1.92,1.48-3.36-1.5-6.73,0-10.12.68-1.49,1-3.16,2.63-4,1-.53,1.94-.6,2.66.32s.18,1.44-.58,2-2.36,1.31-.86,2.57c1.14,1,2.12.06,2.94-.86s1.6-1.44,2.51-.51,2.5,2.23,1.7,3.27C364.29,306.16,367.16,308.82,367.91,311.8Z" transform="translate(-220 -203)"/><path class="cls-8" d="M338.69,312.12c-1.59,0-3.16,0-3.44-1.62-.4-2.32,1.62-1.47,2.72-1.65,3.36-.57,3.47-2,1.14-4.09a30.94,30.94,0,0,1-2.82-2.79c-1-1.18-1.62-2.49-.64-4.06a4.31,4.31,0,0,1,4.08-2.31c1.11.09,2.61.22,2.8,1.6.26,1.88-1.17,1.3-2.32,1.37-2.21.14-1.88,1.25-.63,2.44.84.8,1.77,1.52,2.52,2.39,1.27,1.51,2.71,3,1.48,5.28A6.23,6.23,0,0,1,338.69,312.12Z" transform="translate(-220 -203)"/><path class="cls-7" d="M326.08,301c2.93-.14,6.05-.88,7.48,2.92,1.26,3.34,0,6.11-1.8,8.78-.56.83-1.36,1.72-2.41,1s-.72-1.78-.08-2.6a6.86,6.86,0,0,0,1.58-5.52,1.66,1.66,0,0,0-1.61-1.57c-1.07,0-1.22.87-1.36,1.69-.34,2.12,1.09,4.76-1.77,6.16C322.68,308.29,322.67,304.78,326.08,301Z" transform="translate(-220 -203)"/><path class="cls-9" d="M317.87,310.94a18.71,18.71,0,0,1-4.24,1.07,3.42,3.42,0,0,1-3.09-5.13c.87-1.43,4.4-2.09,1.16-4.7-.41-.33,1.11-1.39,2.09-1.49,2.4-.25,3.51,1.35,4.38,3.23C319.92,306.34,319.51,308.66,317.87,310.94Z" transform="translate(-220 -203)"/><path class="cls-10" d="M353.83,310c-1.71,1.29-3.32,2.91-5.8,1.95-1.24-1.7-3.11-3.22-3-5.44.1-2.87,1.69-5.27,4.64-5.54s4.36,2,4.69,4.68A18.69,18.69,0,0,1,353.83,310Z" transform="translate(-220 -203)"/><path class="cls-11" d="M307.9,304.78c-2,2,.38,5.07-1.63,7.08-2.15-.23-1.41-2.9-3.11-3.37l-.09-2.68c1.3-.58,1-1.94,1.43-2.95.78-2,2.38-2.47,4-1.58C310.81,302.62,308.23,303.61,307.9,304.78Z" transform="translate(-220 -203)"/><path class="cls-12" d="M319.86,303c.63-1.65,1.61-2.15,3.11-1a9,9,0,0,1-.05,8.93c-1.47,1.29-2.38.6-3.07-.87C318.51,307.71,318.88,305.34,319.86,303Z" transform="translate(-220 -203)"/><path class="cls-13" d="M322.92,311c0-3,0-5.95.05-8.93l3.11-1c-1.84,3.64-2.12,7.27,0,10.9Z" transform="translate(-220 -203)"/><path class="cls-14" d="M319.86,303c0,2.37,0,4.74,0,7.11l-2,.86.3-7Z" transform="translate(-220 -203)"/><path class="cls-15" d="M274.09,288c3.83,2,8,.63,11.93,1,.33.23.44.46.32.68s-.24.32-.36.32l-12.14-.14C273.93,289.24,274,288.61,274.09,288Z" transform="translate(-220 -203)"/><path class="cls-16" d="M319.85,295.09l2.42.05c.53,1.42,1.89,3.46-.75,3.67C319.05,299,320.21,296.46,319.85,295.09Z" transform="translate(-220 -203)"/><path class="cls-17" d="M286,290a6.64,6.64,0,0,1,0-1,3.47,3.47,0,0,0,2-3.66c-.34-5,.94-10.1-1.12-15,1.68-.57,2.24.35,2.25,1.67.05,5.13,0,10.26,0,15.39C289.19,289.71,288,290.28,286,290Z" transform="translate(-220 -203)"/><path class="cls-18" d="M300,307.06a1.83,1.83,0,0,1-2,1.6c-1.3-.09-1.3-1.27-1.23-2.21s0-2.14,1.57-1.62A2.09,2.09,0,0,1,300,307.06Z" transform="translate(-220 -203)"/><path class="cls-19" d="M351.63,306.41c-.37,1-.29,2.58-1.85,2.37-1.24-.17-1.69-1.42-1.62-2.63.06-1,.44-2,1.6-2.12C351.39,303.9,351.24,305.4,351.63,306.41Z" transform="translate(-220 -203)"/></svg>