<svg id="Layer_1" data-name="Layer 1" xmlns="http://www.w3.org/2000/svg" viewBox="0 0 150 150"><defs><style>.cls-1{fill:none;}.cls-2{fill:#c1272d;}.cls-3{fill:#fdfdfd;}.cls-4{fill:#dbdbdb;}.cls-5{fill:#f2f2f2;}.cls-6{fill:#f1f1f1;}</style></defs><title>cl9</title><rect class="cls-1" width="150" height="150"/><path class="cls-2" d="M339,251.39c2.6,23.74-22.17,47.58-45.24,46.56-24.66-1.09-45-19.21-45.38-45.55-.38-25,21.74-45.18,43.85-46.28C316.25,204.92,341.26,227.79,339,251.39Z" transform="translate(-220 -203)"/><path class="cls-2" d="M296.63,315.28c-12.32,0-24.63.08-36.94,0-7.5-.07-7.52-.2-7.7-7.48-.08-3.32-.06-6.65,0-10,.06-3,1.1-4.54,4.32-2.79,16.17,8.82,33.8,8.65,51.39,7.87,9.46-.43,18.44-3.61,27.14-7.35,5.49-2.37,6.37-1.91,6.34,4.17-.07,17.81,2.28,15.38-15.12,15.58-5,.06-10,0-15,0Z" transform="translate(-220 -203)"/><path class="cls-2" d="M325.06,336.17c-.1,3.81-.39,7.63-.24,11.44.12,3.05-1.61,3.68-4,3.85-2.69.21-4.94-.76-4.69-3.72.46-5.42-2.1-11.24,2.29-16.23,1.48-1.69-.49-4.66,1.49-6.55a17.36,17.36,0,0,1,13.17-.06h0c1.53,3.13.41,7.29,3.79,9.69,1.3,4.57.3,9.23.56,13.83.06,1.09-.37,2-1.67,1.91-1-.11-1.22-1-1.24-1.85a62.82,62.82,0,0,1,0-8.46c.46-3.93-1.2-5.13-4.78-4.52C328.23,335.75,326.48,334.83,325.06,336.17Z" transform="translate(-220 -203)"/><path class="cls-2" d="M253.74,350.13c-2.43-8-1.76-16.05-.73-24.13a6.27,6.27,0,0,1,5.61-2.42c4.37.09,8.77-.69,13.1.48.71,1.06,2.21,1.55,2.24,3.09,0,.83,0,1.64-1.15,1.79s-1.85-.35-1.93-1.57c-3.92-1.53-7.87-1.16-11.84-.23-.58,2.69-.45,5,1.66,7.31s.69,5.4,1,8.14c.17,1.8.22,3.61.33,5.42.94,1,3.59-.14,3.26,2.14-.3,2.07-2.41,1.46-3.71,1.19C259,350.79,256.2,351.45,253.74,350.13Z" transform="translate(-220 -203)"/><path class="cls-2" d="M306.75,324.05a6.41,6.41,0,0,1,3.09,6.14c-.31,5.45-.11,10.92-.13,16.39,0,2.33-.51,4.51-3.37,4.53-3,0-2.55-2.51-2.58-4.38-.07-4.8-.29-9.62.08-14.39.34-4.56-1.44-6.08-5.71-5.28-1.58.31-2.1,2.82-4.2,2h0c-1.15-2.83.21-4.36,2.8-5A19.1,19.1,0,0,1,306.75,324.05Z" transform="translate(-220 -203)"/><path class="cls-2" d="M286.06,327.16c-1.3,3.09.74,5.29,2,7.7.05,4-.14,7.92-.12,11.89,0,2.86-1.36,4.37-4.3,4.13-2.68-.21-4.24-1.43-4.18-4.44.12-5.66.17-11.33,0-17-.11-3.27.87-4.92,4.38-5.18,2.91-.21,5.94-2.11,8.38,1.19C290.38,327.54,287.74,325.47,286.06,327.16Z" transform="translate(-220 -203)"/><path class="cls-2" d="M286.06,327.16c1.08-2.26,3.68-.46,5.26-1.81-6.62-3-11.29-.42-11.3,6,0,4.79.08,9.59,0,14.39-.05,2.83.91,4.3,4,4.3,3.43,0,3-2.28,3-4.41,0-3.63-.31-7.29,1.06-10.78,1.52,4.36.63,8.84.5,13.25-.08,2.92-2.45,3.73-5,3.56s-4.46-1.22-4.45-4.24c0-6.65,0-13.3,0-19.95,0-2.11,1.05-3.62,3.19-3.74,8.17-.45,16.35-1.23,24.49.31-2.32,0-4.67-.14-7,.09-3,.31-5.56,1.31-5.83,4.93C291.83,326.3,289,326.65,286.06,327.16Z" transform="translate(-220 -203)"/><path class="cls-2" d="M253.74,350.13c3.55-.75,7,.71,10.56.62.44-2.21-2.09-1.4-2.3-2.74,11,.4,8.89,1.27,9.13-9.05a14.07,14.07,0,0,0-.28-3c-.19-1-1.62-2.24.15-2.87a2.32,2.32,0,0,1,2.94,2,52.24,52.24,0,0,1,0,13.91,3,3,0,0,1-1.92,2.06C265.92,351.69,259.68,353.41,253.74,350.13Z" transform="translate(-220 -203)"/><path class="cls-2" d="M293.93,329.07c1.44-.58,2.33-2.31,4.2-2-2.54,3.1-1.11,6.74-1.3,10.12-.22,3.82,0,7.66,0,11.48,0,1.19,0,2.7-1.43,2.79-2,.14-1.64-1.7-1.64-2.92C293.77,342,293.86,335.56,293.93,329.07Z" transform="translate(-220 -203)"/><path class="cls-2" d="M325.06,336.17c7.07-3.5,10.07-1.77,10.07,5.68,0,2.5-.54,5.09,1,7.47.64-5.1,1.72-10.18-.16-15.25-.27-.23-.35-.46-.25-.68s.19-.32.28-.32c1.68,2.19,2.86,15.13,1.47,17.09a2.3,2.3,0,0,1-1.59.87,1.77,1.77,0,0,1-1.78-2c0-2.32,0-4.64.1-7,.19-6.39.19-6.4-6.16-6.25C327,335.89,326.05,336.06,325.06,336.17Z" transform="translate(-220 -203)"/><path class="cls-2" d="M271.72,324.06c-6.26.43-12.74-1.25-18.71,1.94a2.52,2.52,0,0,1,2.63-2.49C261,323.25,266.42,322.33,271.72,324.06Z" transform="translate(-220 -203)"/><path class="cls-2" d="M333.11,324.9c-4.4-.81-8.79-.32-13.17.06C324.31,322.15,328.7,322.44,333.11,324.9Z" transform="translate(-220 -203)"/><path class="cls-2" d="M336,333.07l0,1c-3-2.43-3-5.77-2.85-9.18C336.29,326.83,333.89,330.74,336,333.07Z" transform="translate(-220 -203)"/><path class="cls-2" d="M259,327.14c4-1.79,7.94-2.17,11.84.23C267,326.58,263,326.9,259,327.14Z" transform="translate(-220 -203)"/><path class="cls-3" d="M255,252.44c.09-21,18.7-39.67,39.15-39.34,21.65.34,39.91,18.24,39,39.69-1,25-17.43,38.79-39,39.22C274.75,292.4,256.15,278.26,255,252.44Z" transform="translate(-220 -203)"/><path class="cls-2" d="M330.89,332c-5.61,1.59-6.37,1-5.84-4.81C330.83,325.85,331.86,326.7,330.89,332Z" transform="translate(-220 -203)"/><path class="cls-2" d="M330.89,332c.81-4.95-1.77-5.78-5.84-4.81a4,4,0,0,1,6-.23A3.16,3.16,0,0,1,330.89,332Z" transform="translate(-220 -203)"/><path class="cls-2" d="M293,287c-5.83,1.7-18.95-2.53-22.09-7.07a2.47,2.47,0,0,1,.26-3.54c4.78-4.83,9.42-9.82,14.44-14.38,3-2.75,5.34-.13,7.45,2C293.44,271.68,294.29,279.34,293,287Z" transform="translate(-220 -203)"/><path class="cls-2" d="M295,281c.06-5.3.29-10.6.11-15.9-.08-2.6,1.47-3.36,3.25-4.34,2.15-1.21,3.42.42,4,1.68,2.78,5.87,8.86,8.17,13.15,12.39,2.53,2.49,2.7,3.72.16,5.74a37.78,37.78,0,0,1-17.93,7.77c-4.16.66-1.78-2.94-2.76-4.36A2,2,0,0,1,295,281Z" transform="translate(-220 -203)"/><path class="cls-2" d="M316.5,252.85a57.67,57.67,0,0,0,7.44-.06c4.61-.61,5.65,1.67,4.63,5.46-1.46,5.42-3.13,10.77-6.79,15.3-1.38,1.71-2.57,2.25-3.83.39-3.67-5.42-9.55-8.56-13.74-13.44-1.32-1.53-2-2.79-1.26-4.84.86-2.25,2.35-2.94,4.6-2.85,3,.11,6,0,8.95,0Z" transform="translate(-220 -203)"/><path class="cls-2" d="M316.37,250.33c-3.32,0-6.65.22-9.94-.06-3.49-.29-5.7-4.59-3.43-6.82,4.72-4.64,8.8-9.88,13.91-14.15,1.72-1.44,2.34-1.2,3.45.22a42.24,42.24,0,0,1,8.17,17.36c.5,2.3-.22,3.5-2.71,3.46C322.67,250.29,319.52,250.32,316.37,250.33Z" transform="translate(-220 -203)"/><path class="cls-2" d="M281.05,240.94a31.58,31.58,0,0,1,2.59,3c1.73,2.52-.24,6.82-3.28,6.9-6.29.15-12.59,0-18.88.06-2.63,0-3.55-.95-3-3.63a43.42,43.42,0,0,1,7.14-16.74c1.42-2,2.86-1.77,4.55-.59C273.49,233.88,278.35,236.35,281.05,240.94Z" transform="translate(-220 -203)"/><path class="cls-2" d="M294.05,218c5.15-1.48,17.31,2.35,20.58,6.29,1.42,1.71.37,2.63-.59,3.8-4,4.84-8.81,8.88-12.92,13.63-2.32,2.67-5,0-7.11-1.74A36.17,36.17,0,0,1,294.05,218Z" transform="translate(-220 -203)"/><path class="cls-2" d="M271.12,254.11c3,0,6,.11,9,0a4,4,0,0,1,4.23,2.74c.85,1.82-.38,2.78-1.4,3.86-4.46,4.71-8.94,9.39-13.37,14.14-1.62,1.74-3,1.16-4.12-.38a38.37,38.37,0,0,1-7.17-17.31c-.34-2.23.8-3,2.84-3Z" transform="translate(-220 -203)"/><path class="cls-2" d="M271.12,228.83c-.83-2-1.19-3.45,1.45-5a60.78,60.78,0,0,1,14-6.18c1.82-.51,3.57-.85,5.22.4a44.1,44.1,0,0,1,.08,21.92c-3,3.79-6,3.5-9,0C277.85,237.51,274.5,233.16,271.12,228.83Z" transform="translate(-220 -203)"/><path class="cls-4" d="M271.12,228.83c5.14,2.47,7.87,7.48,11.82,11.21-.76,0-1.49.12-1.89.9-3.88-3.43-9.1-5.53-10.9-11Z" transform="translate(-220 -203)"/><path class="cls-5" d="M291.91,240q0-11-.08-21.92l2.22,0q0,11,0,22Z" transform="translate(-220 -203)"/><path class="cls-2" d="M296.84,251.52c-.64,2.48-1.93,3.93-4.27,3.69-2-.21-3.5-1.49-3.32-3.65a3.47,3.47,0,0,1,4.07-3.4C295.41,248.33,296.33,249.88,296.84,251.52Z" transform="translate(-220 -203)"/><path class="cls-6" d="M295,281v3l-2,3,.06-23c2,3.51.44,7.33.95,11C294.3,277,293.22,279.25,295,281Z" transform="translate(-220 -203)"/></svg>