<?xml version="1.0" encoding="utf-8"?>
<!-- Generator: Adobe Illustrator 22.0.1, SVG Export Plug-In . SVG Version: 6.00 Build 0)  -->
<svg version="1.1" id="_x37_d20109a-a0f0-4dfa-976a-751f0ae87d51"
	 xmlns="http://www.w3.org/2000/svg" xmlns:xlink="http://www.w3.org/1999/xlink" x="0px" y="0px" viewBox="0 0 901.2 765.1"
	 style="enable-background:new 0 0 901.2 765.1;" xml:space="preserve">
<style type="text/css">
	.st0{opacity:0.1;}
	.st1{fill:none;stroke:#535461;stroke-width:2;stroke-miterlimit:10;}
	.st2{fill:#6C63FF;}
	.st3{opacity:0.25;enable-background:new    ;}
	.st4{fill:#DEA3A2;}
	.st5{opacity:0.1;enable-background:new    ;}
	.st6{fill:none;}
	.st7{fill:url(#SVGID_1_);}
	.st8{fill:#575A88;}
	.st9{fill:#AAC9F5;}
	.st10{fill:#D5838E;}
	.st11{fill:#FFCCD0;}
	.st12{fill:#CD828D;}
	.st13{fill:#663D5C;}
	.st14{fill:#F26383;}
	.st15{fill:#FFC1C7;}
	.st16{fill:#FFD6DB;}
	.st17{fill:#E4AAB4;}
	.st18{fill:#BDD2E8;}
	.st19{fill:#CF6F80;}
	.st20{fill:#575A89;}
	.st21{fill:#512E4E;}
	.st22{fill:#FFCEB4;}
	.st23{fill:#F8BDA5;}
	.st24{fill:#E8EAF2;}
	.st25{opacity:5.000000e-02;enable-background:new    ;}
	.st26{fill:#F1CEC8;}
	.st27{fill:#F6E2DF;}
	.st28{fill:#FDF9F9;}
	.st29{opacity:0.3;fill:#42312E;enable-background:new    ;}
	.st30{fill:#FF748E;}
	.st31{fill:#FFEDBA;}
	.st32{fill:#FFFFFF;}
	.st33{fill:#575988;}
	.st34{fill:#B97482;}
	.st35{fill:#D3878A;}
	.st36{fill:#FFD037;}
	.st37{fill:#42312E;}
	.st38{opacity:0.2;fill:#FFFFFF;enable-background:new    ;}
	.st39{fill:#F2DCDC;}
</style>
<title>hang out</title>
<g class="st0">
	<path class="st1" d="M378.5,553.3c0,0,28.6-67.6,81.9-92.7c22.4-10.5,40.9-27.4,52.2-48.7c5.3-10.1,9.7-20.7,13.1-31.6"/>
	<path class="st2" d="M559.2,364.2c-5.5,6.7-34.3,16.5-34.3,16.5s3.5-29.1,9-35.9c5.7-6.7,15.7-7.8,22.7-2.5
		c6.7,5,8.1,14.5,3.1,21.2C559.5,363.8,559.3,364,559.2,364.2z"/>
	<path class="st2" d="M549.3,417.4c-8.5,2.7-38.1-4.1-38.1-4.1s19.4-22.7,27.8-25.4s17.6,1.6,20.5,9.8c2.7,8.1-1.6,16.8-9.7,19.5
		C549.6,417.3,549.4,417.4,549.3,417.4z"/>
	<path class="st2" d="M495.8,480.3c-8.7-1.8-30.8-22-30.8-22s28.6-10.2,37.4-8.4s14.4,10,12.5,18.4S504.5,482,495.8,480.3z"/>
	<path class="st2" d="M444.1,519.1c-8.9-0.3-34.2-16.7-34.2-16.7s26.4-14.7,35.4-14.3s15.9,7.5,15.6,16.1
		C460.6,512.7,453.1,519.4,444.1,519.1z"/>
	<path class="st2" d="M483.5,394.3c1.1,8.5,20.5,31.2,20.5,31.2s12.7-26.7,11.6-35.2s-9.2-14.5-18.1-13.4S482.4,385.8,483.5,394.3z"
		/>
	<path class="st2" d="M423.7,440.5c3.7,7.8,29.3,23.9,29.3,23.9s3.8-29.1,0.1-36.9c-4-7.9-13.4-11.2-21.4-7.6
		c-7.8,3.3-11.5,12.2-8.2,20C423.5,440.1,423.6,440.3,423.7,440.5z"/>
	<path class="st2" d="M372,493c2.3,8.3,24.6,28.3,24.6,28.3s8.9-28.1,6.6-36.4s-11.2-13.2-19.8-11c-8.3,1.9-13.5,10.3-11.5,18.6
		C371.9,492.7,372,492.8,372,493z"/>
	<path class="st3" d="M559.2,364.2c-5.5,6.7-34.3,16.5-34.3,16.5s3.5-29.1,9-35.9c5.7-6.7,15.7-7.8,22.7-2.5
		c6.7,5,8.1,14.5,3.1,21.2C559.5,363.8,559.3,364,559.2,364.2z"/>
	<path class="st3" d="M549.3,417.4c-8.5,2.7-38.1-4.1-38.1-4.1s19.4-22.7,27.8-25.4s17.6,1.6,20.5,9.8c2.7,8.1-1.6,16.8-9.7,19.5
		C549.6,417.3,549.4,417.4,549.3,417.4z"/>
	<path class="st3" d="M495.8,480.3c-8.7-1.8-30.8-22-30.8-22s28.6-10.2,37.4-8.4s14.4,10,12.5,18.4S504.5,482,495.8,480.3z"/>
	<path class="st3" d="M444.1,519.1c-8.9-0.3-34.2-16.7-34.2-16.7s26.4-14.7,35.4-14.3s15.9,7.5,15.6,16.1
		C460.6,512.7,453.1,519.4,444.1,519.1z"/>
	<path class="st3" d="M483.5,394.3c1.1,8.5,20.5,31.2,20.5,31.2s12.7-26.7,11.6-35.2s-9.2-14.5-18.1-13.4S482.4,385.8,483.5,394.3z"
		/>
	<path class="st3" d="M423.7,440.5c3.7,7.8,29.3,23.9,29.3,23.9s3.8-29.1,0.1-36.9c-4-7.9-13.4-11.2-21.4-7.6
		c-7.8,3.3-11.5,12.2-8.2,20C423.5,440.1,423.6,440.3,423.7,440.5z"/>
	<path class="st3" d="M372,493c2.3,8.3,24.6,28.3,24.6,28.3s8.9-28.1,6.6-36.4s-11.2-13.2-19.8-11c-8.3,1.9-13.5,10.3-11.5,18.6
		C371.9,492.7,372,492.8,372,493z"/>
</g>
<g class="st0">
	<path class="st1" d="M399.9,450.9c0,0,3.6-72.9,45.2-113.6c17.5-17.1,29.1-38.9,32.5-62.6c1.6-11.3,2-22.6,1.4-34"/>
	<path class="st2" d="M505.1,214.9c-2.9,8.1-26.7,26.5-26.7,26.5s-6.8-28.6-3.9-36.7s12.1-12.4,20.6-9.6
		c8.1,2.5,12.7,11.1,10.1,19.3C505.2,214.6,505.1,214.8,505.1,214.9z"/>
	<path class="st2" d="M514.1,268.3c-7,5.3-37.4,8.3-37.4,8.3s10.5-27.5,17.5-32.8c7.1-5.3,17-4.1,22.7,2.7c5.3,6.5,4.3,16-2.2,21.3
		C514.5,267.9,514.3,268.1,514.1,268.3z"/>
	<path class="st2" d="M485.3,344.7c-8.8,1.1-36.7-11-36.7-11s23.5-18.7,32.4-19.8s17,4.8,18.2,13.3S494.2,343.5,485.3,344.7z"/>
	<path class="st2" d="M450,397.7c-8.5,2.6-38-4.9-38-4.9s19.9-22.3,28.4-24.8s17.6,2,20.3,10.2c2.5,8.1-2,16.8-10.2,19.3
		C450.3,397.6,450.2,397.6,450,397.7z"/>
	<path class="st2" d="M444.1,267.5c4,7.7,30.1,22.9,30.1,22.9s2.8-29.2-1.2-36.9c-4.2-7.7-13.8-10.8-21.7-6.9
		c-7.7,3.5-11,12.6-7.5,20.2C443.9,267.1,444,267.3,444.1,267.5z"/>
	<path class="st2" d="M403.6,330c6.2,6.2,35.8,13.2,35.8,13.2s-6.4-28.7-12.6-34.8c-6.3-6.2-16.4-6.3-22.9-0.3
		c-6.2,5.6-6.6,15.2-1,21.3C403.2,329.6,403.4,329.8,403.6,330z"/>
	<path class="st2" d="M372.9,396c5,7.1,33,18.8,33,18.8s-1.3-29.3-6.3-36.4c-5.2-7.1-15.1-8.9-22.5-4c-7.1,4.5-9.2,13.9-4.7,20.9
		C372.6,395.6,372.8,395.8,372.9,396z"/>
</g>
<path class="st4" d="M442.4,95.3l-28.8,5.6c0,0,50.2-4.7,65.2-3.9s48.9,19.7,48.9,19.7s16,5.1,34.9,22.9c4.6,4.3,8.9,8.9,12.9,13.8
	c15.1,18.3,30.3,45.1,39.6,83.9c1,4,1.9,8.1,2.7,12.3c1.7,8.5,3.1,17.6,4.2,27.2c0.5,4.5,0.9,9,1.3,13.7c0.4,4.5,0.6,9.1,0.8,13.8
	c0.2,4.5,0.3,9.1,0.4,13.7c0.1,6.3,0,12.7-0.2,19.4c-0.1,4.4-0.3,8.9-0.5,13.5v0.5c-1.7,31.3-5.6,57.9-11,80.4
	c-0.6,2.3-1.1,4.6-1.7,6.9c-2.7,10.4-6.1,20.5-10,30.5c-0.7,1.8-1.4,3.5-2.1,5.1c-1.7,3.9-3.3,7.6-5.1,11.2
	c-1.4,2.9-2.9,5.7-4.4,8.4c-0.3,0.5-0.6,1.1-0.9,1.6c-0.7,1.3-1.5,2.5-2.2,3.8c-25.9,43.3-57.7,53.9-70.3,56.4
	c-1.8,0.3-3.1,0.6-4.1,0.7h-0.1c-0.9,0.1-1.5,0.1-1.5,0.1c-3,11.4,2.7,16,9.6,17.7c1.1,0.3,2.2,0.5,3.4,0.6l0,0
	c4.5,0.4,9,0.3,13.5-0.5c0,0,30.9,1.4,63.3,2.1l7.3,0.2l0,0l2.7,0c16.8,0.3,33.1,0.5,45.1,0.1l0,0c5.7-0.2,10.3-0.5,13.5-0.9
	c24.5-3.2,17.4-19,9.9-31.2c-6.5-10.5-3.3-29.3,7.3-60.2c1.7-5,3.6-10.4,5.7-16c11.6-31.5,10.9-78.5,8.2-118.3
	c-0.4-5.3-0.8-10.4-1.2-15.3c-0.5-6.1-1-11.9-1.5-17.3c-2.2-24.3-9.3-50.4-16.9-71.4c-1.1-3-2.2-6-3.3-8.8
	c-3.1-8.2-6.8-16.2-10.9-23.9c-0.9-1.6-1.7-3-2.5-4.2l-0.7-1.1c-1.3-2.1-2.7-4.6-4.2-7.3c-2.1-3.9-4.3-8.3-6.4-12.9
	c-5.5-11.6-10.8-24.4-14.3-33c-2.5-6.3-4.1-10.4-4.1-10.4c0.3-1.7,0.9-3.3,1.7-4.8c13.3-24.3,90.3-38.2,90.3-38.2l38.6,2.8l76.8,5.5
	L757.8,97l-13-2c0,0,3.8-0.4,9.3-1.3l0,0c11.1-1.8,29.3-5.6,39.3-12.1c8-5.2,50.2-7.5,88.1-8.4v-9.6l-7.1,5L793,69.7l39.5-50.6
	l-52.2,53.3c-8.2,1.6-24,5.4-42.1,9.8c-12.5,3.1-26.1,6.5-39.1,9.7c-32,8-60.6,15.3-60.6,15.3c2.8-40.7,23-78.1,55.5-102.7
	l44.7-33.8h-11.6c-33,19.7-82.7,59.1-82.7,59.1s0.8-21.8,7.8-59H637c-0.2,1.9-0.4,3.8-0.7,5.7c-6,40.6-8.9,88.5-8.9,88.5
	c-5.1,34.8-19,5.1-19,5.1c1.2-39.5-14.7-76.4-27.4-99.4h-16.8c7.8,15.9,5.2,27.4,5.2,27.4C543.5-21.1,523-27.6,509-29.3
	c-5.2-0.7-10.4-0.7-15.6,0c-2,0.2-3.9,0.7-5.8,1.3c52.2,2.4,89.3,41.9,89.3,41.9c4.1,1,14.6,33.3,19,74.3c0.7,6,1.2,12.2,1.5,18.6
	c1.2,21.1-1.5,29.8-4.9,32.7c-2.5,2.2-5.4,1.3-7.6,0c-1.1-0.6-2.1-1.4-2.9-2.3c-8.1-13.6-39-29.1-67-40.9c-5.9-2.5-11.7-4.8-17.2-7
	c-18.9-7.5-33.2-23.5-38.4-43.1C450.2,12.7,433,14,433,14c20.2,15.4,19,62,19,62l-66.8-14.1c31.7,8.5,83.8,28.3,83.8,28.3
	L442.4,95.3L442.4,95.3z"/>
<path class="st4" d="M367.8,58.2l17.4,3.7C379.5,60.2,373.7,59,367.8,58.2z"/>
<path class="st5" d="M567.9,535c0,0,14.7-8.7,34.8-4.3s51,2,53.8,1.6L567.9,535z"/>
<path class="st5" d="M632.2,298.4c0,0,4.9,77.2-3.8,92.5L632.2,298.4z"/>
<path class="st5" d="M650.3,390.9c0,0-6.3,72.3-10.6,86.5S650.3,390.9,650.3,390.9z"/>
<path class="st5" d="M656.4,213c4.4,1.7,23.5,40.3,19.6,51.7S656.4,213,656.4,213z"/>
<path class="st5" d="M608.2,172.9c2.1,0.9,10.9,23.2,9.2,29.8S608.2,172.9,608.2,172.9z"/>
<path class="st5" d="M690.6,302.7c-2.2,22.4-3.4,37.1-2,55.1c1.2,13.9,1,28-0.6,41.9L690.6,302.7z"/>
<path class="st5" d="M452.2,41.4c2.7,3.1,3.6,7.3,3.7,11.4s-0.4,8.1-0.1,12.2c0.3,4.3,2.3,9.3,6.5,9.9L452.2,41.4z"/>
<path class="st6" d="M664.7,19.9c-3.2,1.7-6.2,3.7-8.9,6.1c-2.7,2.4-4.5,5.7-5.2,9.2c-0.2,1.5-0.1,3.1-0.4,4.6c-0.6,2-1.6,3.9-3,5.6
	c-2.3,2.9-4.8,5.7-7.5,8.3"/>
<path class="st5" d="M638.9,123.1c2.2-1.9,4.6-3.5,7.2-5c2.3-1.4,4.8-2.5,7.3-3.2c3.9-1,8.1-0.9,12.1-1.3s8.3-1.6,11.1-4.6
	L638.9,123.1z"/>
<path class="st5" d="M799.6,73.2c-4.8,0.1-9.8,0.3-14.1,2.5c-2.2,1.1-4.1,2.7-6.2,3.9c-2.8,1.5-5.9,2.3-9.1,2.4L799.6,73.2z"/>
<path class="st5" d="M732.9,93c1-0.8,2.6-0.2,3.5,0.8s1.3,2.3,2.2,3.2c1.8,1.9,4.6,2.1,7.2,2.2L732.9,93z"/>
<path class="st5" d="M705.4-9.1l-4.6,2.4c-4.7,2.5-9.5,5-13.6,8.3L705.4-9.1z"/>
<path class="st5" d="M652.6,36.1c-3-0.7-5.7,2.5-6.2,5.6s0.1,6.3-0.8,9.3c-0.8,2.7-2.6,4.8-4.5,6.8L652.6,36.1z"/>
<path class="st5" d="M601.2,41.7c-2.8,8.3,3.1,17.3,1.4,25.8c-0.5,2.6-1.7,5-2.3,7.6c-1.6,6.8,1.2,14,5.6,19.4L601.2,41.7z"/>
<linearGradient id="SVGID_1_" gradientUnits="userSpaceOnUse" x1="426.033" y1="-80.2096" x2="426.033" y2="504.7134" gradientTransform="matrix(1 0 0 -1 -37.44 690.8707)">
	<stop  offset="0" style="stop-color:#808080;stop-opacity:0.25"/>
	<stop  offset="0.54" style="stop-color:#808080;stop-opacity:0.12"/>
	<stop  offset="1" style="stop-color:#808080;stop-opacity:0.1"/>
</linearGradient>
<path class="st7" d="M751.4,425.8c-4.1-3.5-16.2-24.7-19.7-30.8l-0.9-1.6l0,0c1.3-4.7-6.6-11.6-8.9-13.5
	c-4.8-5.7-11.8-12.8-17.5-14.5c-7.3-2.2-12.5,0.3-18-0.7c-1.4-0.2-2.7-0.6-3.9-1.3c-0.8-0.4-1.6-0.9-2.3-1.4c-2-1.4-3.7-3.1-5.3-5
	c1-0.1,2-0.4,3-0.8c5.7-2.1,11.3-4.5,16.8-7.1c1.2-0.6,2.5-1.3,3-2.5c0.2-0.5,0.2-1.1,0.5-1.6c0.5-1.1,1.9-1.5,3-1.9
	c4.2-1.3,8.8-3.8,9.5-8.1c0.1-0.6,0.1-1.1,0.1-1.7c-0.2,0.4-0.5,0.9-0.8,1.3c0.2-1.5-0.1-3,0.1-4.4c0.2-1.3,0.7-2.5,1.5-3.5
	c-0.1,0.5-0.1,1-0.1,1.5c1.6-3.5,5.6-6.1,6.9-10c0.3-1,0.5-2.1,0.5-3.1c-0.3,0.6-0.6,1.2-0.9,1.7c0.7-4.3-1.2-9.2,1.1-13
	c0.2-0.3,0.3-0.5,0.5-0.7c-0.1,0.5-0.1,1-0.1,1.5c0.1-0.3,0.2-0.5,0.4-0.8c1-1.8,2.9-3.1,3.5-5.1c0.2-0.7,0.2-1.5,0.1-2.2
	c-0.2,0.3-0.4,0.6-0.7,0.9c0-0.9-0.2-1.9-0.4-2.8c-1.6-6.9-3.9-14.6-10.3-17.5c-2-0.9-4.2-1.2-5.8-2.7c-3.6-3.3-1.6-10.4-5.8-13
	c-1.8-1.1-4.6-1.3-5.3-3.3c-0.4-1.1,0.1-2.5-0.3-3.6c-0.9-2.5-4.5-1.6-7.1-1.5c-3.6,0.1-7.4-3-6.8-6.6c-4.9-2.5-10.6-2.8-15.8-0.7
	c-2.6,1.1-5.2,2.8-8.1,2.5c-1.4-0.1-2.6-0.7-4-1c-5.6-1-10.4,3.8-15.7,5.8c-5.5,2.1-12.4,1.3-16.8,5.2c-3.9,3.5-4.6,9.7-8.7,12.9
	c-2.2,1.7-5,2.3-7.3,3.9s-3.9,4.9-2.1,7.1c2.2,2.7,7.9,1.3,9,4.6c0.9,2.7-2.5,4.7-3.8,7.2c-1.2,2.8,0,6.1,2.9,7.4
	c0.3,0.1,0.7,0.3,1,0.3l0,0v0.1c-5.7,16.8,1.6,35.2,17.3,43.6c0.5,0.9,1,1.9,1.6,3c3.1,6.2,6.7,14.8,7.8,23.3
	c-3.7-1.2-11.6,5.9-11.6,5.9c-4,1-8,1.8-12.1,2.2c-8.4,1.1-7.7,4.4-7.7,4.4l-0.5,0.5c-4.3,3.8-33.9,30.3-38.7,31.3l0.3,1l-1.2,0.9
	l-14.7,10.9l0,0c0,0-11.2,0.7-22.3,2s-26.7,4.6-15.3,17.9c0.3,0.4,0.6,0.7,1,1l-44.2-2.6c0.3-0.3,0.5-0.7,0.5-1.2c0-1-1.1-2-3.1-2.8
	l-0.1-0.3c5.6-0.2,12.5-0.4,17.1-0.8c1.2-0.1,2.2-0.2,3-0.4c6.9-1.1-0.5-6.4,2.8-10.5s0-19.6,0.3-22.9s-2.2-16.6-4.4-19.4
	s-2.5-14.6-2.5-14.6s-5.2-4.7-8.3-20.7s-15.2-24.3-19-25.1s-9.7-4.1-9.7-5s-6.6-1.1-9.4-2.2s-4.1-2.5-6.3-2.8l0,0
	c0.8-0.9,1.4-1.9,2-2.9c0.5-1.1,1.4-2,2.4-2.7c0.2-0.1,0.4-0.2,0.6-0.3c0.2-0.1,0.4-0.1,0.7-0.1c0.2,0,0.4,0,0.7,0.1
	c0.8,0.2,1.7,0.9,2.4,0.5c0.1-0.1,0.2-0.1,0.3-0.2c0.2-0.3,0.4-0.6,0.4-1l0,0c0.1-0.4,0.2-0.8,0.2-1.3c0,0,0-0.1,0-0.1
	c0-0.4,0.1-0.9,0.1-1.3l0,0c0.2-3.1-0.3-6.4,1.2-9.1l0.1-0.1l0,0c1.5-2.6,4.3-4,6.7-5.9c0.5-0.4,0.9-0.8,1.4-1.2
	c0.2-0.2,0.3-0.3,0.5-0.5s0.5-0.5,0.8-0.8s0.4-0.5,0.6-0.7s0.4-0.5,0.5-0.7s0.4-0.6,0.6-0.9s0.3-0.4,0.4-0.6s0.4-0.7,0.6-1.1
	c0.1-0.2,0.2-0.3,0.2-0.5c0.2-0.4,0.4-0.8,0.5-1.2c0-0.1,0.1-0.3,0.1-0.4c0.2-0.5,0.3-0.9,0.5-1.4c0-0.1,0-0.1,0-0.2
	c0.3-1,0.5-2,0.6-3c0.5-5.2-1.2-10.4-4.5-14.4c-2.5-3-6.2-5.6-6.4-9.5c0.1-1.8,0.5-3.7,1.2-5.4l0,0c0.3-0.7,0.5-1.5,0.6-2.3l0,0
	c0.1-0.4,0.1-0.7,0.1-1.1c0-2.9-1.8-5.5-4-7.5c-6.2-5.7-14.9-8-23.1-6.1c-2.1,0.5-4.3,1.3-6.5,1c-2.5-0.3-4.6-2-6.9-3.2
	c-7.5-3.8-17.6-1-22.1,6c-2.6,4.1-3.6,9.4-7.5,12.3c-2.3,1.7-5.5,2.4-7.1,4.6l0,0c-0.2,0.3-0.4,0.5-0.5,0.8
	c-0.4,0.9-0.6,1.8-0.6,2.7c0,1,0.1,1.9,0.2,2.9c0.4,3.1,1.9,5.9,4.2,8l0,0l0.6,0.6l0.1,0.1c0.4,0.4,0.8,0.9,1.1,1.3l0.1,0.1l0.3,0.4
	c-0.1,0.2-0.3,0.3-0.4,0.5c-11.3,14.2-9.1,34.9,4.9,46.4c0,0.4,0,0.7,0,1.1c-0.1,1.9-0.2,3.8-0.4,5.8c-1-1-2.4-1.4-3.8-1.3
	c-0.6-0.1-1.3,0-1.9,0.2c-0.4,0.1-0.7,0.2-1.1,0.2c-1.4-0.1-2.7-0.6-4.1-0.5c-1.4-0.2-2.9,0.3-3.9,1.4c-2.7,2.5-12.3,5.8-16.9,6.1
	c-0.3,0-0.7-0.1-1-0.3c-0.5-0.2-1-0.3-1.5-0.1c-2.9-0.6-11,5-12.8,8.4c-1.9,3.6-8.3,13.3-8.3,13.3s-5.5,6.6-4.7,10.2
	s-1.9,7.7-5.2,9.4s-9.9,18.2-9.9,18.2s-7.2,15.2-14.6,19.1c-2.9,1.5-3.8,5-3.9,8.8c-1.7,0.1-3,0.1-3,0.1s-23.2,5.9-30.5,1.5
	s-33.1-5.5-33.1-5.5l-26.3-28.1l-1.1-1.1c4.6-4-3.2-6.9-3.2-9.8s-2.9-4.1-2.9-4.1s-0.1,0.2-0.3,0.4c-0.2-0.2-0.5-0.3-0.8-0.4
	c-0.6,0.8-1.3,1.4-2.2,1.9c-0.5-0.4-0.9-1.4-0.8-3.7c0.2-4.5-2.7-9.2-5-12.3c3.3-10.8,9.5-22.9,14.2-31.3c0.3-0.5,0.5-1,0.8-1.5
	c16.3-7.3,23.6-26.5,16.2-42.8c-1.3-3-3.1-5.7-5.2-8.1c-0.3-0.4-0.7-0.8-1-1.1c0.3-0.1,0.5-0.2,0.8-0.2c0.3-0.1,0.7-0.1,1-0.1
	c2.4,0.1,5.1,1.1,7.3,1c0.7,0,1.4-0.1,2-0.4c2.4-1.2,1.9-4.4,0.4-6c-1.8-2-4.5-3.3-5.8-5.6c-0.6-1.4-1.1-2.8-1.3-4.3
	c-1.5-4.5-4.9-8-9.3-9.6c-4.7-1.8-10-1.7-14.7,0.3c-2.2,1-4.1,2.3-6.3,3.1c-4.6,1.7-10,0.8-14.8-0.6c-2.8-0.8-5.6-1.7-8.5-2.3
	c-0.7-4.3-2-8.4-3.9-12.3c-0.1-0.3-0.3-0.6-0.5-0.9c4.8-1.7,11.1-1.4,13.6-5.7c1.5,0.2,3.1,0,4.5-0.6c1.4-0.7,2.4-2.4,1.9-3.8
	c-0.1-0.3-0.4-0.7-0.6-0.9l0,0c-0.6-0.6-1.3-1.1-2-1.5c-3-2.1-4.9-5.4-5.1-9.1c0,0.1,0,0.2,0.1,0.3c0-0.4,0-0.8,0-1.3
	c0.1-1.9,0.6-3.8,0.5-5.7c-0.1-0.8-0.2-1.6-0.5-2.3c0,0,0,0.1,0,0.1c-1.3-3.3-4.4-5.4-7.9-5.4c-1.3,0.1-2.5,0.4-3.7,0.4
	c-6,0.2-11-6.6-16.8-5.2c-1.2,0.3-2.4,1-3.7,1c-2.9,0-4.7-3.4-7.5-4.2c-2.2-0.7-4.6,0.3-7,0s-4.1-1.6-6.1-2.6
	c-4.2-2.3-9.8-3.3-13.5-0.2c-0.8,0.8-1.7,1.5-2.6,2.1c-1.2,0.4-2.5,0.5-3.8,0.2c-3.8-0.4-7.6-0.1-11.4,0.8c-1,0.1-1.9,0.6-2.6,1.4
	c-0.4,0.8-0.7,1.7-0.8,2.6c-1.1,4.4-6.5,5.8-11,6.2c-1.2,0-2.3,0.3-3.3,0.9c-1.6,1.2-1.6,3.7-0.9,5.6s1.9,3.6,2.2,5.6
	c0.6,5-4.8,8.9-5.7,13.9c-1.3,6.9,6.4,13.7,3.8,20.3c-1.1,2.9-4.2,5.1-4.1,8.3s3.2,4.9,5,7.3s2.5,5.2,3.2,8
	c1.1,4.3,1.3,12.5,5.9,14.6l0,0c0.2,0.1,0.4,0.2,0.6,0.2c0.3,0.1,0.5,0.1,0.8,0.2c-0.2,0.3-0.4,0.6-0.6,1
	c-5.4,7.7-11.5,15.3-17.2,19.9c-0.2,0.2-0.4,0.3-0.6,0.5c-0.7-0.6-1.5-1-2.5-1.1c-3.3-0.4-11.8,5.5-11.8,8.5s-7.8,7.7-16.6,16.2
	s-8.8,49-5.9,56.8c1.2,3.1,2.8,11.1,4.3,19.6c-2,1.4-3.4,3.5-4,5.9c-3.3,14,1.5,25.1,5.5,26.2s3-4.8,3-4.8c-3.2-7-3.8-12.4-2.6-16.5
	c1.5,9.1,2.6,16.5,2.6,16.5s10.7,33.9,14.7,44.2s18.4,74.8,18.4,74.8s1.6,2,4.4,4.8l3.3,18.4l5.5,11.1h0.4l-0.8,7.9
	c0,0,0.7,33.2-1.1,38.1s-18.2,95.1-18.2,95.1s-5.1,31.7-4.8,39.4l12,2.6c0,0-2.4-6.8,1.1-19.5s10.3-36.5,10.3-36.5l7-31.7l0.5,22.7
	c0,0-6.3,28.2-5,29.7s10.8,2,10.8,2s0-15.1,2-23.4c1.8-7.2,21.3-82.1,26.2-101.2c6.8-2.8,14.2-4,21.6-3.5
	c24.8,1.4,38.6,10.4,46.4,19.7c-17.8,9.4-32.7,17.1-32.7,17.1l0.2,1l0,0l-0.2,0.1l-0.4,0.2l-0.2,0.1l-0.4,0.2l-0.3,0.2l-0.4,0.3
	l-0.3,0.2l-0.5,0.3l-0.2,0.1l-1.6,1l-0.2,0.1l-0.7,0.4l-0.2,0.1l-0.8,0.4l-0.2,0.1l-0.9,0.5l-0.1,0.1l-1,0.6l0,0l-1,0.6l-0.1,0.1
	l-0.9,0.5l-0.3,0.1l-0.7,0.4l-0.4,0.2l-0.7,0.4l-0.3,0.2l-0.8,0.4l-0.3,0.2l-1,0.5l0,0l-0.9,0.5l-0.3,0.1l-0.7,0.4l-0.3,0.2
	l-0.6,0.3l-0.3,0.2l-0.6,0.3l-0.3,0.1l-0.7,0.4l-0.1,0.1l-0.8,0.4l-0.2,0.1l-0.6,0.3l-0.2,0.1l-0.5,0.2l-0.2,0.1l-0.4,0.2l-0.2,0.1
	l-0.4,0.1l-0.2,0.1l-0.5,0.2c-4.7,1.4-8.1,13.4-3,21.1s4,21.1,1.4,26.3s0.7,14.3,1.4,16.6c0.5,1.7,6.7,3.6,16.5,3.2
	c5.3,0.2,10.5-0.2,15.7-1.2c15.5-2.9,9.8-9.1,8.1-13.7s-2-17.7,0.3-23.7c0.2-0.4,0.3-0.8,0.4-1.3c3.7-4.1,9.5-10.7,14.2-16.8
	c2.1-2.8,7.6-5.3,14.2-7.4c5.3,21.7,15.8,64.5,18.1,71.3c3.1,9.2,4.8,31.9,4.8,31.9l12.1-1.1l-4-60.3l-4.4-48
	c5.7-1,10.2-1.6,11.6-1.8c5.9,22.8,11.5,44.5,12.5,48.2c2,8.3,2,23.4,2,23.4s9.6-0.5,10.9-2s-5-29.7-5-29.7l1.2-49.9
	c13.7-6.4,30.4-14.2,37.8-17.4c6.9-3,18.5-10.1,28.1-16.4l17,138.8l9.9,0.8l5.3-1.2l6.8-1.5L372,623.4c0.6,0.5,1.2,1,1.7,1.4
	c-0.3,3.1-0.7,8.5,0.6,12.3c1.9,5.8,1.7,18.5,0.3,22.9s-6.1,10.5,6.6,13.3s21.2,0.3,21.8-1.9s3.3-11.1,1.1-16s-3-18,1.1-25.4
	s1.4-19.1-2.5-20.5c-2.6-0.9-6.3-2.6-8.6-3.6l-0.7-0.9c1.6-2.1,3.7-3.9,6-5.2c6.6-3.3,5.2-10.8,5.2-10.8s6.9,0,11.9-8.3
	c3.5-5.8,7.5-11.6,9.6-15.8c0.4,2.7,0.9,6,1.2,8.8c0.5,5.9,7.3,63.2,10.5,68s0.5,22.8,0.5,22.8h10.1l-0.7-27.6
	c0,0-11.4-81.3-1.8-89.5c1.7-1.5,3.3-2.9,4.8-4.4l18.9,137.9c0,1-0.1,1.7-0.1,2.3s-0.1,1-0.1,1s-8.1,4.1-2.2,8.1
	c1.3,0.8,2.7,1.4,4.2,1.7l0.4,3c-2.1,0.2-4.3,0.2-6.4,0c-1.3-0.5-1.3,17.1-1.3,17.1s-7.2,14.4-8.1,17.9s-8.1,12.2-8.1,12.2
	s-10.3,7.5,4.8,10.5s31.6-0.9,31.6-0.9s11-19.2,12-18.1s0,10.1,0,10.1l6.4-1.7c0,0-1.1-12,1.5-18.4c2-5.1-2.4-21.3-4.3-27.7l1.2,0.1
	c0,0,1.1-2.2,2.2-8.8c0-0.2,0-0.4,0.1-0.6c0.8-4.8,2-9.5,3.6-14.1c1.8-5.9,0-5.2,0-8.8c0.2-6.3,0.9-12.7,2-18.9
	c0-0.2,0.1-0.4,0.1-0.6c0.8,0.5,1.7,0.9,2.7,1.2c1.1,3.1,2.3,6.6,3,9.5c-2,0.6-3.4,1.3-3.6,2.2c-1.1,4.1,0.4,12.7,0.4,12.7
	s1.7,19.5-1.5,22.5c-3.1,3-9.6,8.3-5.3,13.8c0.4,0.5,0.9,1,1.5,1.4c3,2.2,8.8,3.8,14.6,4l-2.4,36.1l12,1.1c0,0,1.7-22.7,4.8-31.9
	c0.7-2,2.1-7.3,3.9-14.3c4.5-6.8,7.1-11.7,7.1-11.7l3.1,12.9l10.8-2.8c0,0-5.9-11.4-5.2-15.5s-3.1-9.8-6.2-14.4
	c-0.4-0.6-0.8-1.3-1.3-2.1c4.7-18.9,8.8-36,8.8-36s2.9-38.3,56.1-41.3c7.4-0.5,14.7,0.6,21.5,3.5c5,19,24.5,94,26.3,101.2
	c2,8.3,2,23.4,2,23.4s9.6-0.5,10.8-2s-5-29.7-5-29.7l0.5-22.7l7,31.7c0,0,6.8,23.8,10.3,36.5s1.1,19.5,1.1,19.5l12-2.6
	c0.4-7.7-4.8-39.4-4.8-39.4S677.8,623,675.9,618s-1.1-38.1-1.1-38.1l-0.8-7.7c13-9.2,20.3-58.1,20.3-58.1l13.6-75.8
	c2.1-3.9,3.9-8,5.4-12.2v-0.1l1.6,1.8l7.9,19.4c15.6,21.9,31.3,21.2,31.3,21.2c0-0.1,0.1-0.1,0.1-0.2c2.8,0.4,5.7-0.3,8-2.1l0.2-0.1
	C767.9,461.6,756.2,429.9,751.4,425.8z M475.5,471.7c-0.9-3.6-1.9-7.6-2.9-11.7l3.1-0.1L475.5,471.7z M428.4,318.7
	c-0.3,0.2-0.6,0.4-0.9,0.7c-0.3-0.7-0.6-1.5-0.8-2.3C427.1,317.7,427.7,318.3,428.4,318.7z M333.8,479.1c-4.7,6.1-5.2,10-5.2,10
	l1.2,0.3l-8.5,7.6l-4.3-36.9l20.8,0.9C336.5,470.1,335.1,477.3,333.8,479.1z M353.9,555.9c0,0,4.3-1,9.9-2.6l-1.8,13.3
	C357,560.1,353.9,555.9,353.9,555.9z M342,409.9l0.2-0.3v0.4L342,409.9z M235.8,501.4c-4.6-2.1-37.4-12.2-49.4-15.8
	c-0.3-0.6-0.5-1.2-0.3-1.9c1.1-3.7-7.4-13.6-10.7-16.2s-7.7-7.4-4-10.3c0.9-0.9,1.6-2.1,1.8-3.3l34.2,1.5c3.3,1.2,6.6,2.2,10,3
	c0,0,5.8-0.8,13.5-2l67.6,2.9l6.4,52.3c-4.2,3.9-7.1,6.6-7.1,6.8c0,0.5-4.5,8.2-5.1,18.4l-35.3-11c0.1-0.2,0.1-0.4,0.2-0.5
	C261.1,513,241.5,504,235.8,501.4z M174,445.3c-0.1-2.5-0.3-4.3-0.3-4.3l-0.8-8.2c6.7,4.1,13.9,8.6,19,12.1L174,445.3z M333.3,601
	l0.7-0.5c2-0.6,3.7-1.8,5-3.5c3,2.6,5.7,4.9,8.1,7c-2.8,2.6-7.8,6.8-12.5,9.1L333.3,601z M474.2,543.4l-1.3,71.6l-9.9-66.4
	C465.8,547.3,470.1,545.3,474.2,543.4z M536.1,445.9c0,0,10.7,13.3,18.9,8.8l0,0c1.9,0.2,15.4-7.1,24.1-11.9
	c1.3,1.8,2.7,3.5,4.2,5.1l5.3-2.7l1-0.5c0.5,5.7,1.4,15.2,2.2,21.3c1.1,9.2-14.2,21.6-14.3,21.7l0,0c0,0,0.1,0.5,0.1,1.2
	c-0.8,0.7-1.2,1-1.2,1l1.2-0.2c0.1,2.9-0.1,8-2.7,9.1c-3.7,1.5-5.9,2.6-13.2,0.4c-8.9-2.4-18.1-3.9-27.3-4.5
	c-12.8-0.7-26.4,0.6-33,8.2c-0.2,0.3-0.5,0.6-0.7,0.9s-0.2,0.3-0.3,0.5c-0.2,0.1-0.5,0.2-0.7,0.3c0,0,0,0.2,0.1,0.6
	c-3.6,6.4-4.5,18.3-4.3,31.1l-1.1,0.5l-0.5,0.3l-0.4,0.2c-0.4,0.2-0.8,0.4-1.1,0.5l-0.7,0.3l-0.9,0.5l-1,0.5l-0.6,0.3
	c-0.4,0.2-0.8,0.5-1.3,0.8l-0.3,0.2c-0.5,0.3-1,0.6-1.4,1l-0.1,0.1c-0.2,0.1-0.3,0.3-0.5,0.4l1.2-82.1l54.4-1l-0.8-7.7l-8.4-0.5
	C533.5,449.1,534.9,447.6,536.1,445.9z M145.9,650.6l0.3-0.8c0-0.1,0-0.1,0.1-0.2l0.3-0.7l0,0l0.3,1.6c-0.4,0.2-0.8,0.5-1.2,0.7
	C145.7,651,145.8,650.8,145.9,650.6L145.9,650.6z M338.1,642.1c4.9-0.9,9.7-2.2,14.4-4l-7.9,59.4L338.1,642.1z M473.5,694.6
	c0.7,0.2,1.5,0.3,2.2,0.5v1.7l-2.3,0.1L473.5,694.6z"/>
<path class="st8" d="M158.8,673.1c0,0,2,9.4-0.3,15.3s-2,19-0.3,23.6s7.4,10.8-8.1,13.7s-26,0.3-26.6-2s-4-11.4-1.4-16.5
	s3.7-18.5-1.4-26.2s-1.7-19.6,3-21c4.7-1.4,25.1-13.5,25.1-13.5s-7.5,13.1,0.5,16C154.1,664.2,157.6,668.2,158.8,673.1z"/>
<path class="st9" d="M329.3,600.4c0,0-31.2,21.7-44.8,27.5s-58.7,27.2-58.7,27.2s-45.5,5.9-52.8,15.4S155.4,691,155.4,691l-8.1-44.8
	c0,0,89.5-46.2,90.2-49.5s26.4-13.2-48.4-12.8c-65.6,0.3-89.7,4.6-95.2-4.5c-0.8-1.4-1.2-3-1.3-4.7c-0.7-15,88.1-81.5,88.1-81.5
	s4.3,2.3,9.5,5.3c5.7,3.3,12.4,7.6,15.4,10.8c5.9,6.2,20.2,8.1,20.2,8.1l87.3,27.2c0,0,25.7,8.1,26.4,30.8S329.3,600.4,329.3,600.4z
	"/>
<path class="st5" d="M339.5,575.5c-0.7-22.8-26.4-30.8-26.4-30.8l-87.3-27.2c0,0-14.3-1.8-20.2-8.1c-3.1-3.3-9.8-7.5-15.4-10.8
	c-5.2-3-9.5-5.3-9.5-5.3s-88.8,66.4-88,81.5c0,1.6,0.5,3.3,1.3,4.7c5.5,9.1,29.6,4.8,95.2,4.5c74.8-0.4,49.1,9.5,48.4,12.8
	s-90.2,49.5-90.2,49.5l0.2,1c-4.5,2.7-19.8,11.6-23.8,12.8c-4.7,1.4-8.1,13.4-3,21s4,21,1.4,26.2s0.7,14.2,1.4,16.5s11.1,4.8,26.6,2
	s9.8-9.1,8.1-13.7s-2-17.6,0.3-23.6c0.2-0.4,0.3-0.8,0.4-1.3c3.6-4,9.5-10.7,14.1-16.7c7.3-9.5,52.8-15.4,52.8-15.4
	s45.1-21.3,58.7-27.2s44.8-27.5,44.8-27.5S340.3,598.2,339.5,575.5z M149.3,662.5c-6.1-2.1-3.4-10-1.6-13.9l2.6,14.3
	C150,662.8,149.7,662.6,149.3,662.5L149.3,662.5z"/>
<path class="st10" d="M215.9,598c0,0,25.3,96.8,27.3,105.1s2,23.3,2,23.3s9.5-0.5,10.8-2s-5-29.5-5-29.5l1.8-78.5l-26.8-22.6
	L215.9,598z"/>
<rect x="149.9" y="650.2" class="st11" width="19.8" height="17.1"/>
<path class="st8" d="M164.3,673.1c0,0,2,9.4-0.3,15.3s-2,19-0.3,23.6s7.4,10.8-8.1,13.7s-26,0.3-26.6-2s-4-11.4-1.3-16.5
	c2.7-5.1,3.7-18.5-1.4-26.2c-5.1-7.7-1.7-19.6,3-21c4.7-1.4,25.1-13.5,25.1-13.5s-7.5,13.1,0.5,16
	C159.6,664.2,163.1,668.2,164.3,673.1z"/>
<path class="st8" d="M183.3,484.7c0,0,47.9,14.5,53.6,17.1s25.1,11.6,21.8,23.7s-30.3,13.4-30.3,13.4l-41.1-15.2l-16.1-32.7
	L183.3,484.7z"/>
<path class="st12" d="M198.9,316.7c0,0-2.4,3.7-5.6,9.3c-0.3,0.5-0.5,0.9-0.8,1.4C183.7,343,170,371,178.8,380
	c12.4,12.7-28.3-7.1-28.3-7.1l-1-1.8l-16.6-30.1c0,0,13.1-13.2,20.9-24.8c0.1-0.2,0.3-0.4,0.4-0.6c3.5-5.3,5.9-10.1,5.4-13.2
	s3.4-2.8,8.9-0.9C180,305.5,198.9,316.7,198.9,316.7z"/>
<path class="st5" d="M198.9,316.7c0,0-2.4,3.7-5.6,9.3c-0.3,0.5-0.5,0.9-0.8,1.4c-5.7,2.4-12.1,3.1-18.2,1.9
	c-8.1-1.5-15.3-6-20.2-12.7c-0.1-0.2-0.3-0.4-0.4-0.5c0.1-0.2,0.3-0.4,0.4-0.6c3.5-5.3,5.9-10.1,5.4-13.2s3.4-2.8,8.9-0.9
	C180,305.5,198.9,316.7,198.9,316.7z"/>
<path class="st12" d="M212.3,296.5c0,17.8-14.4,32.2-32.2,32.2l0,0c-2,0-3.9-0.2-5.9-0.5c-17.5-3.2-29-20-25.8-37.5
	c3.2-17.5,20-29,37.5-25.8C201.2,267.7,212.3,281,212.3,296.5L212.3,296.5z"/>
<path class="st5" d="M204.3,275.2c-1.9,0.6-3.2,2-5,3c-3.1,1.8-7.2,1.7-10.2,3.4c-2.5,1.4-2.5,4.4-3.5,6.8
	c-2.8,6.2-12.7,7.8-17.2,13c-0.4,0.4-0.7,0.9-1,1.4c-2.4,4.1-1,9.1,0.9,13.4c1.8,4.1,3.8,8.1,6,12c0.4,0.7,0.8,1.4,1.2,2
	c2.4,4,5.3,8.4,3.8,12.7c-2.4,7-14.4,8.6-17.9,15.3c-1,2-1.2,4.2-2.3,6.2c-1.8,3.3-5.6,5-9.7,6.5l-16.6-30.1
	c0,0,13.5-13.6,21.3-25.3c-10.5-14.3-7.4-34.5,7-45C174.5,260.7,193.2,262.8,204.3,275.2L204.3,275.2z"/>
<path class="st13" d="M214.8,268.4c-1.7-2-4.5-3.3-5.8-5.5c-0.6-1.4-1.1-2.8-1.3-4.3c-1.4-4.5-4.9-8-9.3-9.6
	c-4.7-1.8-10-1.7-14.6,0.3c-2.2,1-4.1,2.3-6.3,3.1c-4.6,1.7-10,0.8-14.8-0.6s-9.6-3.1-14.6-3.1s-10.5,2.5-11.5,6.7
	c-0.2,1.1-0.3,2.3-0.3,3.4c-0.6,5.1-5.3,9.2-10.3,12c-5,2.8-10.7,4.8-15.4,8s-8.3,8.3-7.1,13.3c0.8,3.1,3.3,5.6,5.3,8.3
	c5.1,6.8,7.1,14.9,9,22.7c0.7,2.7,1.4,5.6,0.7,8.3c-1.2,5-6.3,8.4-9.6,12.6c-4.1,5.2-5.5,11.7-5.3,18s2.2,12.4,4.1,18.5
	c0.6,2.3,1.6,4.4,2.8,6.4c2.4,3.5,6.6,5.8,10.6,7.9c1.8,1.1,3.8,1.8,5.9,1.9c4.4-0.1,7-4.3,8-7.9c0.8-3,1.1-6.2,0.9-9.3
	c-0.2-1.1-0.1-2.3,0.3-3.3c0.6-1,1.5-1.9,2.6-2.4c6.3-3.8,15.9-4.5,19.2-10.4c1.1-2,1.3-4.2,2.3-6.2c3.5-6.7,15.4-8.3,17.9-15.3
	c1.5-4.3-1.3-8.7-3.8-12.7c-2.8-4.5-5.2-9.2-7.3-14c-1.9-4.3-3.4-9.3-0.9-13.4c3.8-6.4,15.2-7.7,18.2-14.4c1-2.4,1-5.3,3.5-6.8
	c3-1.7,7.1-1.7,10.2-3.4c2-1.1,3.4-2.8,5.9-3.3c3.2-0.7,7.7,1.9,10.4,0.5C216.8,273.2,216.2,270,214.8,268.4z"/>
<path class="st5" d="M214.5,268.4c-1.7-2-4.5-3.3-5.8-5.5c-0.6-1.4-1-2.8-1.3-4.3c-1.3-4.1-4.4-7.5-8.4-9.2c2.1,1.7,3.6,4,4.4,6.6
	c0.3,1.5,0.7,2.9,1.3,4.3c1.3,2.2,4,3.6,5.8,5.5c1.4,1.6,2,4.8-0.4,6c-2.7,1.4-7.2-1.2-10.4-0.5c-2.5,0.5-3.8,2.1-5.9,3.3
	c-3.1,1.8-7.2,1.7-10.2,3.4c-2.5,1.4-2.5,4.4-3.5,6.8c-3,6.7-14.4,8-18.2,14.4c-2.4,4.1-0.9,9.1,0.9,13.4c2.1,4.8,4.5,9.5,7.2,14
	c2.5,4,5.3,8.4,3.8,12.7c-2.5,7-14.4,8.6-17.9,15.3c-1,2-1.2,4.2-2.3,6.2c-3.3,6-12.9,6.6-19.2,10.4c-1.1,0.6-2,1.4-2.6,2.4
	c-0.4,1.1-0.5,2.2-0.3,3.3c0.2,3.1-0.1,6.3-0.9,9.3c-0.9,3.7-3.5,7.9-8,7.9c-2.1-0.1-4.1-0.8-5.9-1.9c-0.9-0.5-1.8-1-2.7-1.5
	c2.1,1.5,4.4,2.8,6.7,4c1.8,1.1,3.8,1.8,5.9,1.9c4.4-0.1,7-4.3,8-7.9c0.8-3,1.1-6.2,0.9-9.3c-0.2-1.1-0.1-2.3,0.3-3.3
	c0.6-1,1.5-1.9,2.5-2.4c6.3-3.8,15.9-4.5,19.2-10.4c1.1-2,1.2-4.2,2.3-6.2c3.5-6.7,15.4-8.3,17.9-15.3c1.5-4.3-1.3-8.7-3.8-12.7
	c-2.8-4.5-5.2-9.2-7.3-14c-1.9-4.3-3.4-9.3-0.9-13.4c3.8-6.4,15.2-7.7,18.2-14.4c1-2.4,1.1-5.3,3.5-6.8c3-1.7,7.1-1.7,10.2-3.4
	c2-1.1,3.4-2.8,5.9-3.3c3.2-0.7,7.7,1.9,10.4,0.5C216.4,273.2,215.9,270,214.5,268.4z"/>
<path class="st14" d="M567.6,416.4c0,0,5,21,16,32.1l4.4-9.6l-5.5-17.5L567.6,416.4z"/>
<path class="st5" d="M582.4,421.5l-14.9-5c0,0,5,21,16,32.1"/>
<path class="st15" d="M762.2,466.5l-0.2,0.1c-4.4,3.4-10.6,2.8-14.3-1.3l-42-47.1l-1.1-1.2l22-25.3l4,2.6l0.9,1.6
	c3.4,6,15.6,27.2,19.6,30.7C756,430.5,767.7,462.1,762.2,466.5z"/>
<path class="st16" d="M350.2,601.7c0,0-11.3,11.6-19,12.7s-14,25.9-3.3,27.8s31.4-5.8,34.4-9.1s14-22.8,14-22.8L350.2,601.7z"/>
<path class="st15" d="M586.6,439.3l-5.5,3.1c-8.5,4.7-23.9,13.1-25.9,12.9c-2.8-0.4-3.3-26.2-3.3-26.2l14.6-10.8l1.5-1.1l4.4-1.6
	L586.6,439.3z"/>
<path class="st5" d="M586.6,439.3l-5.5,3.1c-1.1-9.8-6.4-18.6-14.6-24.2l1.5-1.1l4.4-1.6L586.6,439.3z"/>
<path class="st2" d="M617.6,409.3l-17.1,30.4l-11.8,6.1l-5.3,2.7c1.5-22.9-16-32.1-16-32.1c4.8-1,34.2-27.4,38.5-31.3l0.5-0.5l4-0.5
	L617.6,409.3z"/>
<path class="st17" d="M671.4,573.4l-14.5-11l47.3-157l16.7,6.2l-12.7,24.9l-13.9,77.8C694.3,514.4,686.1,569.8,671.4,573.4z"/>
<path class="st15" d="M727.7,388.4l-49.9-0.4c0,0-43.7,12.1-40-5.5c2.3-11-3.2-24.7-7.6-33.5c-0.5-1.1-1-2.1-1.5-3
	c-1.9-3.5-3.3-5.7-3.3-5.7s5.2-0.9,11.7-1.8c3-0.4,6.4-0.9,9.6-1.3l0,0c1.7-0.2,3.4-0.4,4.9-0.5c6.4-0.6,11.5-0.8,11.5,0.3
	s1,3.7,2.6,7c0.3,0.5,0.5,1.1,0.8,1.6c2.2,4.3,4.9,8.3,7.9,12.1c1.6,2,3.5,3.8,5.5,5.3c0.7,0.5,1.5,1,2.3,1.4c1.2,0.6,2.5,1,3.9,1.3
	c5.6,0.9,10.7-1.5,18,0.7C714.1,369.3,727.7,388.4,727.7,388.4z"/>
<path class="st17" d="M464.1,511.3c0,0-42,23.1-44.6,32.3s6.2,16.5,6.2,16.5s1.5,7.9,2,13.8s7.3,62.9,10.5,67.7s0.5,22.8,0.5,22.8
	h10.1l-0.7-27.5c0,0-11.4-80.9-1.8-89.2s17.4-17.6,20.2-16.9S464.1,511.3,464.1,511.3z"/>
<path class="st18" d="M412.4,478.4c0,0-27.5,52.6-28.1,59.7s-23.9,37.4-23.9,37.4l29.2,36.9c0,0,3.8-9.3,10.5-12.7
	s5.2-10.7,5.2-10.7s6.9,0,11.8-8.3s11-16.5,11-20.1s36.3-41,36.3-41l-2.8-39.9l-7.4-12.7L412.4,478.4z"/>
<path class="st5" d="M340.8,481.4l-0.2,0.2c-3.3,3-40.8,36.2-40.8,36.9s-13.5,23.1,3.3,42.4s55.3,50.9,55.3,50.9s16.8,12.1,19,14.6
	s35.5,0,15.7-22.6S354.6,556,354.6,556s33-8,35.2-13.5s-43.5-74.3-43.5-74.3L340.8,481.4z"/>
<path class="st18" d="M339.7,481.4l-0.2,0.2c-3.3,3-40.8,36.2-40.8,36.9s-13.5,23.1,3.3,42.4s55.3,50.9,55.3,50.9s16.8,12.1,19,14.6
	s35.5,0,15.7-22.6S353.6,556,353.6,556s33-8,35.2-13.5s45.7-72.9,45.7-72.9l-89.2-1.4L339.7,481.4z"/>
<path class="st19" d="M434.9,333.4l-3.3,30c0,0-33.8,13.5-34.7,13.2s-22.6-19.8-19-32.7c1.8-6.5,2.6-15.5,3-22.8s0.3-13,0.3-13
	s49.3-17.6,44.8-5.5c-1.6,4.4-0.9,9.7,0.7,14.6C428.8,322.9,431.5,328.4,434.9,333.4z"/>
<path class="st11" d="M133.9,271l-0.1,0.2c-3.8,8.2-6.9,16.8-9.3,25.6l-0.3,1.2c-1.6,5.9-2.2,11.9-2.1,18
	c0.7,13.1,7.3,16.1,7.3,16.1s-100.7-16.5-84.2-19.3c2.7-0.4,5.6-2.1,8.6-4.5c5.7-4.6,11.7-12.1,17.1-19.8c2-2.8,3.9-5.7,5.7-8.5
	c0.1-0.2,0.3-0.4,0.4-0.5c6.6-10.3,11.2-18.9,11.2-18.9S157.6,218.7,133.9,271z"/>
<path class="st10" d="M632.9,592.7c0,0,25.3,96.8,27.3,105.1s2,23.3,2,23.3s9.5-0.5,10.8-2s-5-29.5-5-29.5l1.8-78.5l-26.8-22.6
	L632.9,592.7z"/>
<path class="st17" d="M647.7,561.9c0.6,0,25.3,0.5,25.3,0.5l1.8,17.4c0,0-0.7,33,1.1,38s18.2,94.7,18.2,94.7s5.1,31.5,4.8,39.3
	l-11.9,2.6c0,0,2.4-6.8-1.1-19.4s-10.3-36.3-10.3-36.3l-8.6-38.9c0,0-1.5-69-54.5-66s-56,41-56,41s-18,74.3-21.1,83.5
	s-4.8,31.7-4.8,31.7l-12.1-1.1l4-60l11.2-123.5l34.5-2.4L647.7,561.9z"/>
<path class="st10" d="M113.3,608.7c0,0-25.3,96.9-27.3,105.1s-2,23.3-2,23.3s-9.5-0.5-10.8-2s4.9-29.6,4.9-29.6L76.2,627l26.8-22.6
	L113.3,608.7z"/>
<path class="st17" d="M98.5,577.8c-0.5,0-25.3,0.5-25.3,0.5l-1.8,17.4c0,0,0.7,33-1.1,38s-18.1,94.6-18.1,94.6s-5.1,31.5-4.8,39.3
	l11.9,2.6c0,0-2.4-6.8,1.1-19.4s10.3-36.3,10.3-36.3l8.6-38.9c0,0,1.5-69,54.5-66s55.9,41.1,55.9,41.1s18,74.3,21.1,83.5
	s4.8,31.7,4.8,31.7l12.1-1.1l-4-60l-11.2-123.5l-34.5-2.4L98.5,577.8z"/>
<path class="st5" d="M426.8,317.2c-0.3,0.4-0.6,0.7-0.9,1C414,330.8,394.4,332,381,321c0.4-7.3,0.3-13,0.3-13s49.3-17.6,44.8-5.5
	C424.5,307,425.3,312.3,426.8,317.2z"/>
<path class="st19" d="M434.9,294.4c0,18.2-14.8,33-33,33s-33-14.8-33-33s14.8-33,33-33l0,0c18.1-0.1,32.9,14.5,33,32.6
	C434.9,294.2,434.9,294.3,434.9,294.4z"/>
<path class="st9" d="M334.8,600.4c0,0-31.2,21.7-44.8,27.5s-58.7,27.2-58.7,27.2s-45.5,5.9-52.8,15.4S160.9,691,160.9,691l-8.1-44.8
	c0,0,89.5-46.2,90.3-49.5s26.4-13.2-48.4-12.8c-65.6,0.3-89.7,4.6-95.2-4.5c-0.8-1.4-1.2-3-1.3-4.7c-0.7-15,88.1-81.5,88.1-81.5
	s4.3,2.3,9.5,5.3c5.7,3.3,12.4,7.6,15.4,10.8c5.9,6.2,20.2,8.1,20.2,8.1l87.3,27.2c0,0,25.7,8,26.4,30.8S334.8,600.4,334.8,600.4z"
	/>
<path class="st5" d="M394.2,364.6c0,0-12.9-28.7-17.3-28.7s-11.3,148.2-11.3,148.2l67.4,1.1l2.8-77.8l-13.8-69
	C422,338.4,409.6,365.6,394.2,364.6z"/>
<path class="st5" d="M394.2,366.8c0,0-12.9-28.7-17.3-28.7s-11.3,148.3-11.3,148.3l76.5,1.2l-6.3-77.9l-13.8-69
	C422,340.6,409.6,367.8,394.2,366.8z"/>
<path class="st16" d="M394.2,365.7c0,0-12.9-28.7-17.3-28.7s-11.3,148.2-11.3,148.2l76.5,1.1l-6.3-77.9l-13.8-69
	C422,339.5,409.6,366.7,394.2,365.7z"/>
<path class="st5" d="M381.7,328c0,0-2.3-3.4-5.6-2.3s-5.8-1.9-9.1,1.1s-16.5,7.1-19,5.8s-11.3,4.7-13.2,8.3s-8.3,13.2-8.3,13.2
	s-5.5,6.6-4.7,10.2s-1.9,7.7-5.2,9.4s-9.9,18.2-9.9,18.2s-7.2,15.1-14.6,19s-1.9,20.6-1.9,20.6l44-1.4l9.9-22.6c0,0-3.8,66-8.5,72.1
	s-5.2,9.9-5.2,9.9s18.2,3.8,22,7.2s14-0.8,14-0.8l9.9-87.8c0,0,3.6-16.5,3.6-25S381.7,328,381.7,328z"/>
<path class="st20" d="M380.6,328c0,0-2.3-3.4-5.6-2.3s-5.8-1.9-9.1,1.1s-16.5,7.1-19,5.8s-11.3,4.7-13.2,8.3s-8.3,13.2-8.3,13.2
	s-5.5,6.6-4.7,10.2s-1.9,7.7-5.2,9.4s-9.9,18.2-9.9,18.2s-7.2,15.1-14.6,19s-1.9,20.6-1.9,20.6l44-1.4l10-22.6c0,0-3.8,66-8.5,72.1
	s-5.2,9.9-5.2,9.9s18.2,3.8,22,7.2s14-0.8,14-0.8l9.9-87.8c0,0,3.6-16.5,3.6-25S380.6,328,380.6,328z"/>
<path class="st5" d="M319.9,375.8c0,0,3.3,9.1,12.4,8.3S319.9,375.8,319.9,375.8z"/>
<path class="st5" d="M328.7,362c0,0,6,1.1,8.3,6.3S328.7,362,328.7,362z"/>
<path class="st5" d="M345.8,352.7c0,1.1,3.8,20.4,0,28.3s-3.3,17.3-3.3,17.3L345.8,352.7z"/>
<path class="st5" d="M427,321.4c0,0,2.2-2.5,4.3-2.3s3.6,1.6,6.3,2.8s9.4,1.4,9.4,2.2s5.8,4.1,9.6,5s16,9.1,19,25s8.2,20.6,8.2,20.6
	L454.7,389c0,0,22.6,95.8,25.3,102.7s3,47.6,3,47.6s-17.9,8-22.6,10.5s-2.8-23.7-12.4-38.8c-9.6-15.1-20.6-37.1-20.6-37.1
	l-16.8-47.1c0,0-10.7-62.7-1.7-74.3S427.8,325.5,427,321.4z"/>
<path class="st20" d="M428.1,321.4c0,0,2.2-2.5,4.3-2.3s3.6,1.6,6.3,2.8s9.4,1.4,9.4,2.2s5.8,4.1,9.6,5s16,9.1,19,25
	s8.3,20.6,8.3,20.6L455.8,389c0,0,22.6,95.8,25.3,102.7s3,47.6,3,47.6s-17.9,8-22.6,10.5s-2.8-23.7-12.4-38.8
	c-9.6-15.1-20.6-37.1-20.6-37.1l-16.8-47.1c0,0-10.8-62.7-1.7-74.3S428.9,325.5,428.1,321.4z"/>
<path class="st5" d="M487.8,441.8c-0.8,0.1-1.8,0.3-3,0.4c-8.8,0.8-26.1,1-26.1,1s-12.9-25.6-23.9-24.8c0,0,10.2-11.5,14.3-10.2
	c0.7,0.2,1.1-0.3,1.3-1.3c1.1-4.9-2.7-21.9-2.7-21.9l-5.2-22.8l30.3,7.4c2.8,0.5,11.3,5,11.3,5s0.3,11.8,2.5,14.6s4.7,16,4.4,19.3
	s3,18.7-0.3,22.8C487.2,435.5,494.6,440.7,487.8,441.8z"/>
<path class="st20" d="M488.9,441.8c-0.8,0.1-1.8,0.3-3,0.4c-8.8,0.8-26.1,1-26.1,1s-12.9-25.6-23.9-24.8c0,0,10.2-11.5,14.3-10.2
	c0.7,0.2,1.1-0.3,1.3-1.3c1.1-4.9-2.7-21.9-2.7-21.9l-5.2-22.8l30.3,7.4c2.8,0.5,11.3,5,11.3,5s0.3,11.8,2.5,14.6s4.7,16,4.4,19.3
	s3,18.7-0.3,22.8C488.4,435.5,495.7,440.7,488.9,441.8z"/>
<path class="st5" d="M457.8,381.8c0,0,25.3,2.8,26.4,9.1S457.8,381.8,457.8,381.8z"/>
<path class="st16" d="M374.7,622.1c0,0-1.7,9.1,0.3,14.8s1.7,18.4,0.3,22.8s-6,10.5,6.6,13.2s21.2,0.3,21.7-1.9s3.3-11,1.1-16
	s-3-17.9,1.1-25.3s1.4-19-2.5-20.4s-10.5-4.4-10.5-4.4s7.2,12.9,0.5,15.7S374.7,622.1,374.7,622.1z"/>
<path class="st5" d="M434.9,294.4c0,8.4-3.2,16.5-9,22.7c0,0-0.1-0.1-0.1-0.2c-1-2.1-1.9-4.3-1.8-6.6c0.1-2.8,1.7-5.3,2.2-8
	c0.7-3.5-0.5-7-1.6-10.3c-0.8-2.4-2.4-5.4-5-5.1c-0.5,0.1-1,0.2-1.5,0.2c-1.4-0.2-1.6-2-1.8-3.4c-0.8-6.6-5.9-11.9-12.4-13
	c-0.7-0.2-1.5-0.1-2.2,0.1c-1,0.4-1.5,1.5-2.3,2.1c-2.8,1.9-6.3-1.8-9.7-1.5c-2.9,0.3-4.6,3.2-5.8,5.8s-2.7,5.6-5.5,6.3
	c-0.4,0.1-0.9,0.1-1.3-0.1c-0.9-0.6-0.3-2,0.2-3c1.2-2.6,0.4-4.7-1-6.6c11.4-14.3,32.1-16.6,46.4-5.2
	C430.4,274.9,435,284.4,434.9,294.4L434.9,294.4z"/>
<path class="st21" d="M377.2,279.3c-0.4,1-1,2.4-0.2,3c0.4,0.2,0.9,0.3,1.3,0.1c2.8-0.6,4.3-3.6,5.5-6.3s3-5.6,5.8-5.8
	c3.4-0.3,7,3.4,9.7,1.5c0.9-0.6,1.4-1.6,2.3-2.1c0.7-0.3,1.4-0.3,2.2-0.1c6.6,1.2,11.6,6.4,12.4,13.1c0.1,1.4,0.4,3.1,1.8,3.4
	c0.5,0,1-0.1,1.5-0.2c2.6-0.3,4.1,2.7,4.9,5.1c1.1,3.3,2.3,6.9,1.6,10.3c-0.5,2.7-2.1,5.2-2.2,8c-0.1,2.3,0.9,4.5,1.8,6.5
	s2.5,4.5,4.8,4.2c1.9-0.2,2.9-2.2,3.8-3.9s2.5-3.4,4.3-2.9c0.8,0.2,1.7,0.9,2.4,0.5c0.4-0.3,0.6-0.7,0.7-1.2
	c0.9-3.9-0.4-8.2,1.5-11.6c1.4-2.7,4.4-4.1,6.7-6c8.3-6.6,9.7-18.8,3-27.1c-0.1-0.2-0.3-0.3-0.4-0.5c-2.5-3-6.2-5.6-6.4-9.5
	c-0.2-3,1.8-5.7,1.9-8.7s-1.8-5.5-4-7.5c-6.2-5.7-14.8-7.9-23-6c-2.1,0.5-4.3,1.3-6.5,1c-2.5-0.3-4.6-2-6.9-3.1
	c-7.8-3.6-17.1-1.1-22,6c-2.6,4-3.6,9.4-7.5,12.2c-2.6,1.9-6.2,2.6-7.6,5.4c-0.8,1.7-0.6,3.7-0.3,5.6c0.4,3.1,1.9,5.9,4.2,8
	C376.7,273.1,378.8,275.7,377.2,279.3z"/>
<polygon class="st22" points="345.2,696.9 345,750.5 335.1,749.7 299,456.7 309.7,456.4 317.2,456.1 "/>
<polygon class="st23" points="345,750.5 335.1,749.7 299,456.7 309.7,456.4 309.2,458.1 "/>
<polygon class="st22" points="393.4,457.2 357.1,747.8 350.3,749.3 345,750.5 345.2,696.9 377.2,458.3 377.8,458.3 "/>
<polygon class="st23" points="350.2,749.2 350.3,749.3 345,750.5 345.2,696.9 377.2,458.3 377.8,458.3 384.3,459.7 "/>
<polygon class="st23" points="476.5,636.1 475.7,655.1 473.5,706 439.3,457 447.1,456.1 449.5,455.9 "/>
<polygon class="st22" points="476.5,636.1 475.7,655.1 447.6,458.3 447.1,456.1 449.5,455.9 "/>
<polygon class="st23" points="485.8,546.7 486.7,668 482.1,667.8 472.4,667.4 476.2,455 483.6,456 487.2,456.4 "/>
<polygon class="st22" points="485.8,546.7 486.7,668 482.1,667.8 483.6,456 487.2,456.4 "/>
<polygon class="st23" points="170.8,454.2 171.3,446 218.7,446.2 360.9,444 470.7,450.1 540.6,451.5 541.4,459.2 361.7,462.5 "/>
<polygon class="st22" points="171.3,446 311.7,452 540.6,451.5 369.5,441 "/>
<path class="st5" d="M133.9,271l-0.1,0.2c-3.8,8.2-6.9,16.8-9.3,25.6l-0.3,1.2c-3.8,1.1-7.8,1.7-11.8,1.7
	c-10.6,0-15.4-11.1-22.8-17.6c-2.9-2.5-10.4,1.8-12.5-1.5c-0.1-0.2-0.3-0.4-0.4-0.5c0.1-0.2,0.3-0.4,0.4-0.5
	c6.6-10.3,11.2-18.9,11.2-18.9S157.6,218.7,133.9,271z"/>
<path class="st11" d="M154.8,256.1c0,23.4-19,42.4-42.4,42.4c-23.4,0-42.4-19-42.4-42.4c0-23.4,19-42.4,42.4-42.4
	c16.1,0,30.8,9.1,38,23.5C153.3,243.1,154.8,249.6,154.8,256.1z"/>
<path class="st5" d="M129.5,332c0,0-100.7-16.5-84.2-19.3c2.7-0.4,5.6-2.1,8.6-4.5c0.6,0.7,1,1.5,1.3,2.3l18.7-2.2
	c0,0,23.9-5.1,33.4,0.7c4.7,2.8,9.7,5.1,14.9,6.8C122.9,329,129.5,332,129.5,332z"/>
<path class="st5" d="M195.7,498.6c-0.5,0.4-1.2,0.7-1.8,0.9c-4.8,1.5-10.6,23.5-10.6,23.5s-61.1,58.7-83.9,56.4
	c-0.8-1.4-1.2-3-1.3-4.7c-0.7-15,88.1-81.5,88.1-81.5S190.5,495.5,195.7,498.6z"/>
<path class="st24" d="M356.6,436.8c0,5.6-9.7,11.1-21.8,11.1s-21.7-5.6-21.7-11.1s9.7-9,21.8-9S356.6,431.3,356.6,436.8z"/>
<path class="st5" d="M356.6,436.8c0,5.6-9.7,11.1-21.8,11.1s-21.7-5.6-21.7-11.1s9.7-9,21.8-9S356.6,431.3,356.6,436.8z"/>
<ellipse class="st24" cx="334.8" cy="436.8" rx="21.8" ry="10.1"/>
<ellipse class="st25" cx="334.9" cy="437.2" rx="13" ry="5.2"/>
<path class="st26" d="M364.9,425.1c-0.4-2.7-4-4.5-8.7-4.6c-1.2,0-2.5,0.1-3.7,0.3c-6.3,1-10.9,4.6-10.3,8c0.4,2.7,4,4.5,8.5,4.6
	c1.3,0,2.6,0,3.8-0.3C360.8,432.1,365.5,428.5,364.9,425.1z M354.3,431.3c-0.7,0.1-1.3,0.2-2,0.2c-3.6,0.1-6.5-1.2-6.9-3.3
	c-0.4-2.5,2.9-5,7.4-5.8c1.1-0.2,2.2-0.2,3.2-0.2c3,0.2,5.3,1.5,5.6,3.3C362.1,428,358.8,430.6,354.3,431.3z"/>
<path class="st26" d="M345.3,436.3c0,0.5-0.2,1-0.5,1.4c-1.4,1.8-5.2,3.1-9.7,3.1c-4.2,0-7.8-1.1-9.4-2.7c-0.5-0.5-0.8-1.1-0.8-1.8
	c0-2.5,4.6-4.5,10.2-4.5S345.3,433.8,345.3,436.3z"/>
<path class="st5" d="M345.3,436.3c0,0.5-0.2,1-0.5,1.4c-2.7,1.3-5.7,2-8.7,2h-2.4c-2.7,0-5.4-0.6-7.9-1.7c-0.5-0.5-0.8-1.1-0.8-1.8
	c0-2.5,4.6-4.5,10.2-4.5S345.3,433.8,345.3,436.3z"/>
<path class="st5" d="M356.2,420.4c0,0.6-0.1,1.2-0.2,1.9c-1.1-0.1-2.2,0-3.2,0.2c-4.5,0.7-7.8,3.3-7.4,5.8c0.3,2.1,3.3,3.4,6.9,3.3
	c-0.5,0.6-1,1.3-1.5,1.8c-4.6-0.1-8.1-1.9-8.5-4.6c-0.5-3.4,4.1-7,10.3-8C353.8,420.5,355,420.4,356.2,420.4z"/>
<path class="st26" d="M313.8,416.9v2.8c0,10.9,8.8,19.8,19.8,19.8l0,0h2.5c10.9,0,19.7-8.9,19.7-19.8v-2.8H313.8z"/>
<ellipse class="st27" cx="334.7" cy="416.2" rx="21.1" ry="6"/>
<ellipse class="st5" cx="334.8" cy="415.9" rx="20" ry="5.4"/>
<ellipse class="st28" cx="334.9" cy="415.7" rx="19.5" ry="5.4"/>
<path class="st29" d="M320.6,417.1c-0.3,0-0.5-0.2-0.5-0.6c0-0.3,0.2-0.5,0.6-0.5c0.3,0,0.5,0.2,0.5,0.6c0,0,0,0,0,0
	C321.1,416.9,320.9,417.1,320.6,417.1z M320.6,416.2c-0.2,0-0.3,0.2-0.3,0.4s0.2,0.4,0.3,0.4c0.2,0,0.4-0.2,0.4-0.4
	S320.8,416.2,320.6,416.2C320.6,416.2,320.6,416.2,320.6,416.2z"/>
<path class="st29" d="M321.2,415.9c-0.3,0-0.6-0.2-0.6-0.5s0.2-0.6,0.5-0.6c0.3,0,0.6,0.2,0.6,0.5c0,0,0,0,0,0
	C321.8,415.7,321.5,415.9,321.2,415.9z M321.2,415c-0.2,0-0.4,0.1-0.4,0.3c0,0.2,0.1,0.4,0.3,0.4c0.2,0,0.4-0.1,0.4-0.3c0,0,0,0,0,0
	C321.6,415.2,321.4,415,321.2,415z"/>
<path class="st29" d="M320.6,414.2c-0.3,0-0.5-0.2-0.5-0.5c0-0.3,0.2-0.6,0.5-0.6c0.3,0,0.5,0.2,0.5,0.5v0
	C321.1,413.9,320.9,414.2,320.6,414.2z M320.6,413.3c-0.2,0-0.4,0.2-0.4,0.3s0.2,0.4,0.3,0.4c0.2,0,0.4-0.2,0.4-0.3c0,0,0,0,0,0
	C320.9,413.4,320.8,413.3,320.6,413.3z"/>
<path class="st29" d="M324.6,418.3c-0.3,0-0.6-0.2-0.6-0.5s0.2-0.6,0.5-0.6c0.3,0,0.6,0.2,0.6,0.5c0,0,0,0,0,0
	C325.2,418,324.9,418.3,324.6,418.3z M324.6,417.4c-0.2,0-0.3,0.1-0.3,0.3c0,0,0,0,0,0c0,0.2,0.1,0.4,0.3,0.4c0.2,0,0.4-0.1,0.4-0.3
	c0,0,0-0.1,0-0.1C325,417.5,324.8,417.4,324.6,417.4C324.6,417.4,324.6,417.4,324.6,417.4z"/>
<path class="st29" d="M340.8,417.2c-0.3,0-0.5-0.2-0.5-0.6c0-0.3,0.2-0.5,0.5-0.5s0.5,0.2,0.5,0.5
	C341.4,416.9,341.1,417.2,340.8,417.2z M340.8,416.3c-0.2,0-0.4,0.2-0.4,0.4s0.2,0.4,0.4,0.4l0,0c0.2,0,0.3-0.2,0.3-0.4
	S341,416.3,340.8,416.3z"/>
<path class="st29" d="M344.4,418.6c-0.3,0-0.5-0.2-0.5-0.5c0-0.3,0.2-0.6,0.5-0.6c0.3,0,0.5,0.2,0.5,0.5v0
	C345,418.4,344.7,418.6,344.4,418.6z M344.4,417.7c-0.2,0-0.3,0.2-0.3,0.4s0.2,0.4,0.4,0.4c0.2,0,0.3-0.2,0.3-0.4
	C344.8,417.9,344.6,417.7,344.4,417.7C344.4,417.7,344.4,417.7,344.4,417.7L344.4,417.7z"/>
<path class="st29" d="M344.5,416.3c-0.3,0-0.5-0.2-0.5-0.5c0-0.3,0.2-0.6,0.5-0.6c0.3,0,0.5,0.2,0.5,0.5v0
	C345.1,416,344.8,416.3,344.5,416.3z M344.5,415.4c-0.2,0-0.4,0.2-0.4,0.3s0.2,0.4,0.3,0.4c0.2,0,0.4-0.2,0.4-0.3c0,0,0,0,0,0
	C344.9,415.5,344.7,415.4,344.5,415.4z"/>
<path class="st29" d="M346.2,412.6c-0.3,0-0.5-0.2-0.5-0.5c0-0.3,0.2-0.6,0.5-0.6c0.3,0,0.5,0.2,0.5,0.5v0
	C346.8,412.3,346.5,412.6,346.2,412.6C346.2,412.6,346.2,412.6,346.2,412.6z M346.2,411.7c-0.2,0-0.3,0.2-0.3,0.4
	c0,0.2,0.1,0.4,0.3,0.4c0.2,0,0.4-0.1,0.4-0.3c0,0,0-0.1,0-0.1C346.6,411.8,346.4,411.7,346.2,411.7
	C346.2,411.7,346.2,411.7,346.2,411.7L346.2,411.7z"/>
<path class="st29" d="M345.4,417.7c-0.3,0-0.5-0.2-0.5-0.6c0-0.3,0.2-0.5,0.6-0.5c0.3,0,0.5,0.2,0.5,0.6c0,0,0,0,0,0
	C345.9,417.4,345.7,417.7,345.4,417.7z M345.4,416.8c-0.2,0-0.4,0.2-0.4,0.3s0.2,0.4,0.3,0.4c0.2,0,0.4-0.2,0.4-0.3c0,0,0,0,0,0
	C345.8,416.9,345.6,416.8,345.4,416.8C345.4,416.8,345.4,416.8,345.4,416.8L345.4,416.8z"/>
<path class="st29" d="M347.4,416.6c-0.3,0-0.6-0.2-0.6-0.5s0.2-0.6,0.5-0.6c0.3,0,0.6,0.2,0.6,0.5c0,0,0,0,0,0
	C347.9,416.3,347.7,416.5,347.4,416.6z M347.4,415.7c-0.2,0-0.4,0.1-0.4,0.3c0,0.2,0.1,0.4,0.3,0.4c0.2,0,0.4-0.1,0.4-0.3
	c0,0,0,0,0,0C347.7,415.8,347.6,415.7,347.4,415.7L347.4,415.7z"/>
<path class="st29" d="M347.2,417.8c-0.3,0-0.6-0.2-0.6-0.5s0.2-0.6,0.5-0.6c0.3,0,0.6,0.2,0.6,0.5c0,0,0,0,0,0
	C347.7,417.6,347.5,417.8,347.2,417.8C347.2,417.8,347.2,417.8,347.2,417.8z M347.2,417c-0.2,0-0.4,0.1-0.4,0.3
	c0,0.2,0.1,0.4,0.3,0.4c0,0,0.1,0,0.1,0c0.2,0,0.4-0.1,0.4-0.3c0-0.2-0.1-0.4-0.3-0.4C347.3,416.9,347.2,416.9,347.2,417z"/>
<path class="st29" d="M346.6,414.5c-0.3,0-0.5-0.2-0.5-0.5c0-0.3,0.2-0.6,0.5-0.6c0.3,0,0.5,0.2,0.5,0.5v0
	C347.1,414.3,346.9,414.5,346.6,414.5z M346.6,413.6c-0.2,0-0.4,0.2-0.4,0.3s0.2,0.4,0.3,0.4c0.2,0,0.4-0.2,0.4-0.3c0,0,0,0,0,0
	C346.9,413.8,346.8,413.7,346.6,413.6L346.6,413.6z"/>
<path class="st29" d="M349.6,413.8c-0.3,0-0.5-0.2-0.5-0.5c0-0.3,0.2-0.6,0.5-0.6c0.3,0,0.5,0.2,0.5,0.5v0
	C350.1,413.6,349.9,413.8,349.6,413.8z M349.6,412.9c-0.2,0-0.4,0.2-0.4,0.3s0.2,0.4,0.3,0.4c0.2,0,0.4-0.2,0.4-0.3c0,0,0,0,0,0
	C349.9,413.1,349.8,412.9,349.6,412.9L349.6,412.9L349.6,412.9z"/>
<path class="st29" d="M340.8,412.5c-0.3,0-0.5-0.2-0.5-0.5c0-0.3,0.2-0.6,0.5-0.6s0.5,0.2,0.5,0.6
	C341.4,412.3,341.1,412.5,340.8,412.5z M340.8,411.6c-0.2,0-0.4,0.2-0.4,0.4s0.2,0.4,0.4,0.4l0,0c0.2,0,0.3-0.2,0.3-0.4
	S341,411.6,340.8,411.6z"/>
<path class="st29" d="M338.7,411.7c-0.3,0-0.5-0.2-0.5-0.5c0-0.3,0.2-0.6,0.5-0.6c0.3,0,0.5,0.2,0.5,0.5v0
	C339.3,411.4,339,411.7,338.7,411.7z M338.7,410.8c-0.2,0-0.3,0.2-0.3,0.4c0,0.2,0.2,0.3,0.4,0.3c0.2,0,0.3-0.2,0.3-0.4c0,0,0,0,0,0
	C339.1,410.9,339,410.8,338.7,410.8C338.8,410.7,338.7,410.7,338.7,410.8L338.7,410.8z"/>
<path class="st29" d="M334.2,412c-0.3,0-0.6-0.2-0.6-0.5s0.2-0.6,0.5-0.6c0.3,0,0.6,0.2,0.6,0.5c0,0,0,0,0,0
	C334.7,411.7,334.5,412,334.2,412z M334.2,411.1c-0.2,0-0.4,0.1-0.4,0.3c0,0.2,0.1,0.4,0.3,0.4c0.2,0,0.4-0.1,0.4-0.3c0,0,0,0,0,0
	C334.5,411.2,334.3,411.1,334.2,411.1z"/>
<path class="st29" d="M338.1,417.4c-0.3,0-0.6-0.2-0.6-0.5s0.2-0.6,0.5-0.6c0.3,0,0.6,0.2,0.6,0.5c0,0,0,0,0,0
	C338.6,417.1,338.4,417.4,338.1,417.4z M338.1,416.5c-0.2,0-0.3,0.2-0.3,0.4s0.2,0.4,0.3,0.4s0.3-0.2,0.3-0.4
	S338.3,416.5,338.1,416.5z"/>
<path class="st29" d="M323.2,417.9c-0.3,0-0.5-0.2-0.5-0.5c0-0.3,0.2-0.6,0.5-0.6c0.3,0,0.5,0.2,0.5,0.5v0
	C323.8,417.7,323.5,417.9,323.2,417.9z M323.2,417c-0.2,0-0.4,0.2-0.4,0.3s0.2,0.4,0.3,0.4c0.2,0,0.4-0.2,0.4-0.3c0,0,0,0,0,0
	C323.6,417.2,323.4,417,323.2,417z"/>
<path class="st29" d="M325.5,416.7c-0.3,0-0.5-0.2-0.5-0.5c0-0.3,0.2-0.6,0.5-0.6c0.3,0,0.5,0.2,0.5,0.5v0
	C326.1,416.4,325.8,416.7,325.5,416.7z M325.5,415.8c-0.2,0-0.4,0.2-0.4,0.3s0.2,0.4,0.3,0.4c0.2,0,0.4-0.2,0.4-0.3c0,0,0,0,0,0
	C325.9,415.9,325.7,415.8,325.5,415.8C325.5,415.7,325.5,415.7,325.5,415.8L325.5,415.8z"/>
<path class="st29" d="M327.5,417.3c-0.3,0-0.5-0.2-0.5-0.6c0-0.3,0.2-0.5,0.6-0.5c0.3,0,0.5,0.2,0.5,0.6c0,0,0,0,0,0
	C328,417.1,327.8,417.3,327.5,417.3z M327.5,416.4c-0.2,0-0.3,0.2-0.3,0.4s0.2,0.4,0.4,0.4c0.2,0,0.3-0.2,0.3-0.4
	S327.7,416.4,327.5,416.4L327.5,416.4L327.5,416.4z"/>
<path class="st29" d="M327.8,415.9c-0.3,0-0.5-0.2-0.5-0.6c0-0.3,0.2-0.5,0.6-0.5c0.3,0,0.5,0.2,0.5,0.6c0,0,0,0,0,0
	C328.4,415.7,328.1,415.9,327.8,415.9z M327.8,415c-0.2,0-0.3,0.2-0.3,0.4s0.2,0.4,0.3,0.4c0.2,0,0.4-0.2,0.4-0.4S328,415,327.8,415
	C327.8,415,327.8,415,327.8,415z"/>
<path class="st29" d="M327.8,414.7c-0.3,0-0.5-0.2-0.5-0.6c0-0.3,0.2-0.5,0.6-0.5c0.3,0,0.5,0.2,0.5,0.6c0,0,0,0,0,0
	C328.4,414.4,328.1,414.7,327.8,414.7z M327.8,413.8c-0.2,0-0.4,0.2-0.4,0.3s0.2,0.4,0.3,0.4c0.2,0,0.4-0.2,0.4-0.3c0,0,0,0,0,0
	C328.2,413.9,328,413.8,327.8,413.8L327.8,413.8z"/>
<path class="st29" d="M328.4,419.1c-0.3,0-0.5-0.2-0.5-0.5c0-0.3,0.2-0.6,0.5-0.6c0.3,0,0.5,0.2,0.5,0.5v0
	C328.9,418.8,328.7,419.1,328.4,419.1z M328.4,418.2c-0.2,0-0.4,0.2-0.4,0.3s0.2,0.4,0.3,0.4c0.2,0,0.4-0.2,0.4-0.3c0,0,0,0,0,0
	C328.7,418.3,328.6,418.2,328.4,418.2z"/>
<path class="st29" d="M333.9,419.2c-0.3,0-0.6-0.2-0.6-0.5s0.2-0.6,0.5-0.6c0.3,0,0.6,0.2,0.6,0.5c0,0,0,0,0,0
	C334.4,418.9,334.2,419.2,333.9,419.2z M333.9,418.3c-0.2,0-0.4,0.1-0.4,0.3c0,0.2,0.1,0.4,0.3,0.4c0.2,0,0.4-0.1,0.4-0.3
	c0,0,0,0,0,0C334.2,418.4,334.1,418.3,333.9,418.3L333.9,418.3z"/>
<path class="st29" d="M333.2,417.8c-0.3,0-0.5-0.2-0.5-0.5c0-0.3,0.2-0.6,0.5-0.6c0.3,0,0.5,0.2,0.5,0.5v0
	C333.7,417.6,333.5,417.8,333.2,417.8z M333.2,417c-0.2,0-0.3,0.2-0.3,0.4c0,0.2,0.2,0.3,0.4,0.3c0.2,0,0.3-0.2,0.3-0.4c0,0,0,0,0,0
	C333.5,417.1,333.4,417,333.2,417z"/>
<path class="st29" d="M330.4,417.2c-0.3,0-0.6-0.2-0.6-0.5s0.2-0.6,0.5-0.6c0.3,0,0.6,0.2,0.6,0.5c0,0,0,0,0,0
	C331,416.9,330.7,417.2,330.4,417.2z M330.4,416.3c-0.2,0-0.3,0.2-0.3,0.4s0.2,0.4,0.3,0.4s0.3-0.2,0.3-0.4S330.6,416.3,330.4,416.3
	z"/>
<path class="st29" d="M336.3,415c-0.3,0-0.5-0.2-0.5-0.5c0-0.3,0.2-0.6,0.5-0.6c0.3,0,0.5,0.2,0.5,0.5v0
	C336.8,414.8,336.6,415,336.3,415z M336.3,414.1c-0.2,0-0.4,0.2-0.4,0.3s0.2,0.4,0.3,0.4c0.2,0,0.4-0.2,0.4-0.3c0,0,0,0,0,0
	C336.6,414.3,336.5,414.1,336.3,414.1z"/>
<path class="st29" d="M333.8,416.6c-0.3,0-0.5-0.2-0.5-0.5c0-0.3,0.2-0.6,0.5-0.6c0.3,0,0.5,0.2,0.5,0.5v0
	C334.4,416.3,334.1,416.6,333.8,416.6z M333.8,415.7c-0.2,0-0.4,0.2-0.4,0.3s0.2,0.4,0.3,0.4c0.2,0,0.4-0.2,0.4-0.3c0,0,0,0,0,0
	C334.1,415.8,334,415.7,333.8,415.7L333.8,415.7z"/>
<path class="st29" d="M336.7,413.5c-0.3,0-0.5-0.2-0.5-0.5c0-0.3,0.2-0.6,0.5-0.6c0.3,0,0.5,0.2,0.5,0.5v0
	C337.3,413.2,337,413.5,336.7,413.5z M336.7,412.6c-0.2,0-0.4,0.2-0.4,0.3s0.2,0.4,0.3,0.4c0.2,0,0.4-0.2,0.4-0.3c0,0,0,0,0,0
	C337.1,412.7,336.9,412.6,336.7,412.6z"/>
<path class="st29" d="M336.5,412c-0.3,0-0.5-0.2-0.5-0.5c0-0.3,0.2-0.6,0.5-0.6c0.3,0,0.5,0.2,0.5,0.5v0
	C337,411.7,336.8,412,336.5,412z M336.5,411.1c-0.2,0-0.4,0.2-0.4,0.3s0.2,0.4,0.3,0.4c0.2,0,0.4-0.2,0.4-0.3c0,0,0,0,0,0
	C336.8,411.2,336.7,411.1,336.5,411.1z"/>
<path class="st29" d="M335.3,413.5c-0.3,0-0.5-0.2-0.5-0.5c0-0.3,0.2-0.6,0.5-0.6c0.3,0,0.5,0.2,0.5,0.5v0
	C335.9,413.2,335.6,413.5,335.3,413.5z M335.3,412.6c-0.2,0-0.4,0.2-0.4,0.3s0.2,0.4,0.3,0.4c0.2,0,0.4-0.2,0.4-0.3c0,0,0,0,0,0
	C335.7,412.7,335.5,412.6,335.3,412.6z"/>
<path class="st29" d="M332.5,416.1c-0.3,0-0.5-0.2-0.5-0.6c0-0.3,0.2-0.5,0.6-0.5c0.3,0,0.5,0.2,0.5,0.6c0,0,0,0,0,0
	C333.1,415.8,332.8,416.1,332.5,416.1C332.5,416.1,332.5,416.1,332.5,416.1z M332.5,415.2c-0.2,0-0.4,0.1-0.4,0.3
	c0,0.2,0.1,0.4,0.3,0.4c0,0,0.1,0,0.1,0c0.2,0,0.4-0.1,0.4-0.3c0-0.2-0.1-0.4-0.3-0.4C332.6,415.2,332.6,415.2,332.5,415.2z"/>
<path class="st29" d="M330.4,415.7c-0.3,0-0.6-0.2-0.6-0.5s0.2-0.6,0.5-0.6c0.3,0,0.6,0.2,0.6,0.5c0,0,0,0,0,0
	C331,415.4,330.7,415.7,330.4,415.7C330.4,415.7,330.4,415.7,330.4,415.7z M330.4,414.8c-0.2,0-0.4,0.1-0.4,0.3
	c0,0.2,0.1,0.4,0.3,0.4c0,0,0.1,0,0.1,0c0.2,0,0.4-0.1,0.4-0.3c0-0.2-0.1-0.4-0.3-0.4C330.5,414.8,330.5,414.8,330.4,414.8z"/>
<path class="st29" d="M333.2,413.1c-0.3,0-0.5-0.2-0.5-0.5c0-0.3,0.2-0.6,0.5-0.6c0.3,0,0.5,0.2,0.5,0.5v0
	C333.7,412.9,333.5,413.1,333.2,413.1z M333.2,412.2c-0.2,0-0.4,0.2-0.4,0.3s0.2,0.4,0.3,0.4c0.2,0,0.4-0.2,0.4-0.3c0,0,0,0,0,0
	C333.5,412.4,333.4,412.2,333.2,412.2z"/>
<path class="st29" d="M329.1,413.7c-0.2,0-0.4-0.2-0.4-0.3s0.2-0.4,0.3-0.4c0.2,0,0.4,0.2,0.4,0.3c0,0,0,0,0,0
	C329.5,413.5,329.3,413.7,329.1,413.7z M329.1,413.1c-0.1,0-0.2,0.1-0.2,0.2s0.1,0.2,0.2,0.2s0.2-0.1,0.2-0.2
	S329.3,413.1,329.1,413.1z"/>
<path class="st29" d="M330.2,414.3c-0.2,0-0.4-0.2-0.4-0.3s0.2-0.4,0.3-0.4c0.2,0,0.4,0.2,0.4,0.3c0,0,0,0,0,0
	C330.5,414.2,330.4,414.3,330.2,414.3z M330.2,413.8c-0.1,0-0.2,0.1-0.2,0.2s0.1,0.2,0.2,0.2s0.2-0.1,0.2-0.2
	S330.3,413.8,330.2,413.8L330.2,413.8z"/>
<path class="st29" d="M335.4,411.5c-0.2,0-0.4-0.2-0.4-0.3s0.2-0.4,0.3-0.4c0.2,0,0.4,0.2,0.4,0.3c0,0,0,0,0,0
	C335.7,411.4,335.6,411.5,335.4,411.5z M335.4,411c-0.1,0-0.2,0.1-0.2,0.2s0.1,0.2,0.2,0.2c0.1,0,0.2-0.1,0.2-0.2v0
	C335.6,411.1,335.5,411,335.4,411z"/>
<path class="st29" d="M336.2,417.4c-0.2,0-0.4-0.2-0.4-0.3s0.2-0.4,0.3-0.4c0.2,0,0.4,0.2,0.4,0.3c0,0,0,0,0,0
	C336.5,417.2,336.3,417.4,336.2,417.4z M336.2,416.8c-0.1,0-0.2,0.1-0.2,0.2s0.1,0.2,0.2,0.2s0.2-0.1,0.2-0.2
	S336.3,416.8,336.2,416.8z"/>
<path class="st29" d="M337.1,417.8c-0.2,0-0.4-0.2-0.4-0.3s0.2-0.4,0.3-0.4c0.2,0,0.4,0.2,0.4,0.3c0,0,0,0,0,0
	C337.4,417.6,337.3,417.8,337.1,417.8z M337.1,417.2c-0.1,0-0.2,0.1-0.2,0.2s0.1,0.2,0.2,0.2c0.1,0,0.2-0.1,0.2-0.2l0,0
	C337.3,417.3,337.2,417.2,337.1,417.2C337.1,417.2,337.1,417.2,337.1,417.2z"/>
<path class="st29" d="M336,416.4c-0.2,0-0.3-0.2-0.3-0.4s0.2-0.4,0.3-0.4c0.2,0,0.4,0.2,0.4,0.4l0,0
	C336.3,416.3,336.1,416.4,336,416.4C336,416.4,336,416.4,336,416.4z M336,415.9c-0.1,0-0.2,0.1-0.2,0.2s0.1,0.2,0.2,0.2
	c0.1,0,0.2-0.1,0.2-0.2S336.1,415.9,336,415.9C336,415.9,336,415.9,336,415.9z"/>
<path class="st29" d="M342.8,413.2c-0.2,0-0.3-0.2-0.3-0.4c0-0.2,0.2-0.3,0.4-0.3c0.2,0,0.3,0.2,0.3,0.4c0,0,0,0,0,0
	C343.1,413,343,413.2,342.8,413.2z M342.8,412.6c-0.1,0-0.2,0.1-0.2,0.2c0,0,0,0,0,0c0,0.1,0.1,0.2,0.2,0.2c0.1,0,0.2-0.1,0.2-0.2
	l0,0C343,412.7,342.9,412.6,342.8,412.6C342.8,412.6,342.8,412.6,342.8,412.6z"/>
<path class="st29" d="M343.2,414.1c-0.2,0-0.4-0.1-0.4-0.3c0-0.2,0.1-0.4,0.3-0.4c0.2,0,0.4,0.1,0.4,0.3c0,0,0,0,0,0
	C343.6,413.9,343.4,414.1,343.2,414.1z M343.2,413.5c-0.1,0-0.2,0.1-0.2,0.2s0.1,0.2,0.2,0.2s0.2-0.1,0.2-0.2
	S343.3,413.5,343.2,413.5L343.2,413.5z"/>
<path class="st29" d="M342.9,414.9c-0.2,0-0.3-0.2-0.3-0.4c0-0.2,0.1-0.3,0.3-0.4c0,0,0,0,0,0c0.2,0,0.3,0.2,0.3,0.4
	S343.1,414.9,342.9,414.9z M342.9,414.3c-0.1,0-0.2,0.1-0.2,0.2c0,0,0,0,0,0c0,0.1,0.1,0.2,0.2,0.2c0.1,0,0.2-0.1,0.2-0.2
	S343,414.3,342.9,414.3z"/>
<path class="st29" d="M342,417.4c-0.2,0-0.3-0.2-0.3-0.4c0-0.2,0.2-0.3,0.4-0.3c0.2,0,0.3,0.2,0.3,0.4c0,0,0,0,0,0
	C342.3,417.3,342.1,417.4,342,417.4z M342,416.9c-0.1,0-0.2,0.1-0.2,0.2c0,0,0,0,0,0c0,0.1,0.1,0.2,0.2,0.2c0.1,0,0.2-0.1,0.2-0.2
	l0,0C342.2,417,342.1,416.9,342,416.9C342,416.9,342,416.9,342,416.9L342,416.9z"/>
<path class="st29" d="M347.5,415.1c-0.2,0-0.3-0.2-0.3-0.4s0.2-0.4,0.4-0.4c0.2,0,0.3,0.2,0.3,0.4S347.7,415.1,347.5,415.1
	C347.5,415.1,347.5,415.1,347.5,415.1z M347.5,414.5c-0.1,0-0.2,0.1-0.2,0.2s0.1,0.2,0.2,0.2c0.1,0,0.2-0.1,0.2-0.2l0,0
	C347.7,414.6,347.6,414.5,347.5,414.5C347.5,414.5,347.5,414.5,347.5,414.5z"/>
<path class="st29" d="M339.3,417.2c-0.2,0-0.4-0.2-0.4-0.3s0.2-0.4,0.3-0.4c0.2,0,0.4,0.2,0.4,0.3c0,0,0,0,0,0
	C339.6,417,339.5,417.2,339.3,417.2z M339.3,416.6c-0.1,0-0.2,0.1-0.2,0.2s0.1,0.2,0.2,0.2c0.1,0,0.2-0.1,0.2-0.2v0
	C339.5,416.7,339.4,416.6,339.3,416.6z"/>
<path class="st29" d="M342.2,415.7c-0.2,0-0.4-0.2-0.4-0.3s0.2-0.4,0.3-0.4c0.2,0,0.4,0.2,0.4,0.3c0,0,0,0,0,0
	C342.5,415.6,342.4,415.7,342.2,415.7z M342.2,415.2c-0.1,0-0.2,0.1-0.2,0.2s0.1,0.2,0.2,0.2s0.2-0.1,0.2-0.2
	S342.3,415.2,342.2,415.2z"/>
<path class="st29" d="M341,418.2c-0.2,0-0.3-0.2-0.3-0.4s0.2-0.4,0.4-0.4c0.2,0,0.3,0.2,0.3,0.4l0,0
	C341.4,418,341.2,418.2,341,418.2C341,418.2,341,418.2,341,418.2z M341,417.6c-0.1,0-0.2,0.1-0.2,0.2s0.1,0.2,0.2,0.2
	c0.1,0,0.2-0.1,0.2-0.2S341.1,417.6,341,417.6C341,417.6,341,417.6,341,417.6z"/>
<path class="st29" d="M348.6,415.7c-0.2,0-0.3-0.2-0.3-0.4c0-0.2,0.1-0.4,0.3-0.4c0.2,0,0.4,0.1,0.4,0.3c0,0,0,0.1,0,0.1
	C349,415.6,348.8,415.7,348.6,415.7z M348.6,415.2c-0.1,0-0.2,0.1-0.3,0.2c0,0.1,0.1,0.2,0.2,0.3c0,0,0.1,0,0.1,0
	c0.1,0,0.2-0.1,0.2-0.2C348.9,415.3,348.8,415.2,348.6,415.2C348.6,415.2,348.6,415.2,348.6,415.2z"/>
<path class="st29" d="M344.2,412c-0.2,0-0.4-0.1-0.4-0.3c0-0.2,0.1-0.4,0.3-0.4c0.2,0,0.4,0.1,0.4,0.3c0,0,0,0,0,0
	C344.5,411.8,344.4,412,344.2,412z M344.2,411.4c-0.1,0-0.2,0.1-0.2,0.2s0.1,0.2,0.2,0.2s0.2-0.1,0.2-0.2S344.3,411.4,344.2,411.4z"
	/>
<path class="st29" d="M332.4,411.5c-0.2,0-0.4-0.2-0.4-0.3s0.2-0.4,0.3-0.4c0.2,0,0.4,0.2,0.4,0.3c0,0,0,0,0,0
	C332.7,411.4,332.6,411.5,332.4,411.5z M332.4,411c-0.1,0-0.2,0.1-0.2,0.2s0.1,0.2,0.2,0.2c0.1,0,0.2-0.1,0.2-0.2v0
	C332.6,411.1,332.5,411,332.4,411z"/>
<path class="st29" d="M322.5,414.5c-0.2,0-0.3-0.2-0.3-0.4s0.2-0.4,0.3-0.4c0.2,0,0.4,0.2,0.4,0.4l0,0
	C322.8,414.3,322.6,414.5,322.5,414.5C322.5,414.5,322.5,414.5,322.5,414.5z M322.5,413.9c-0.1,0-0.2,0.1-0.2,0.2s0.1,0.2,0.2,0.2
	c0.1,0,0.2-0.1,0.2-0.2l0,0C322.7,414,322.6,413.9,322.5,413.9C322.5,413.9,322.5,413.9,322.5,413.9z"/>
<path class="st29" d="M331.1,412c-0.2,0-0.4-0.2-0.4-0.3s0.2-0.4,0.3-0.4c0.2,0,0.4,0.2,0.4,0.3c0,0,0,0,0,0
	C331.5,411.8,331.3,412,331.1,412z M331.1,411.4c-0.1,0-0.2,0.1-0.2,0.2s0.1,0.2,0.2,0.2s0.2-0.1,0.2-0.2S331.2,411.4,331.1,411.4z"
	/>
<path class="st29" d="M323.4,416.1c-0.2,0-0.4-0.2-0.4-0.3s0.2-0.4,0.3-0.4c0.2,0,0.4,0.2,0.4,0.3c0,0,0,0,0,0
	C323.7,415.9,323.6,416.1,323.4,416.1z M323.4,415.5c-0.1,0-0.2,0.1-0.2,0.2s0.1,0.2,0.2,0.2l0,0c0.1,0,0.2-0.1,0.2-0.2
	S323.5,415.5,323.4,415.5z"/>
<path class="st29" d="M324.6,414c-0.2,0-0.4-0.1-0.4-0.3c0-0.2,0.1-0.4,0.3-0.4c0.2,0,0.4,0.1,0.4,0.3c0,0,0,0,0,0
	C325,413.8,324.8,414,324.6,414z M324.6,413.4c-0.1,0-0.2,0.1-0.2,0.2s0.1,0.2,0.2,0.2s0.2-0.1,0.2-0.2S324.7,413.4,324.6,413.4z"/>
<path class="st29" d="M318.3,415.4c-0.2,0-0.4-0.2-0.4-0.3s0.2-0.4,0.3-0.4c0.2,0,0.4,0.2,0.4,0.3c0,0,0,0,0,0
	C318.7,415.3,318.5,415.4,318.3,415.4z M318.3,414.9c-0.1,0-0.2,0.1-0.2,0.2s0.1,0.2,0.2,0.2c0.1,0,0.2-0.1,0.2-0.2l0,0
	C318.5,415,318.4,414.9,318.3,414.9C318.3,414.9,318.3,414.9,318.3,414.9z"/>
<path class="st29" d="M327.1,418.5c-0.2,0-0.4-0.2-0.4-0.4s0.2-0.4,0.4-0.4s0.4,0.2,0.4,0.4S327.3,418.5,327.1,418.5z M327.1,417.9
	c-0.1,0-0.2,0.1-0.2,0.2s0.1,0.2,0.2,0.2s0.2-0.1,0.2-0.2S327.3,417.9,327.1,417.9z"/>
<path class="st29" d="M329.7,418.7c-0.2,0-0.4-0.2-0.4-0.4s0.2-0.4,0.4-0.4s0.4,0.2,0.4,0.4S329.8,418.7,329.7,418.7z M329.7,418.1
	c-0.1,0-0.2,0.1-0.2,0.2s0.1,0.2,0.2,0.2s0.2-0.1,0.2-0.2S329.8,418.1,329.7,418.1z"/>
<circle class="st29" cx="319.4" cy="416.5" r="0.3"/>
<circle class="st29" cx="321.4" cy="412.6" r="0.3"/>
<circle class="st29" cx="324.2" cy="414.3" r="0.3"/>
<circle class="st29" cx="322.4" cy="411.8" r="0.3"/>
<circle class="st29" cx="332.5" cy="413.7" r="0.3"/>
<circle class="st29" cx="323.8" cy="413.3" r="0.3"/>
<circle class="st29" cx="322.7" cy="413.2" r="0.3"/>
<circle class="st29" cx="324.7" cy="415.3" r="0.3"/>
<circle class="st29" cx="339.9" cy="413.6" r="0.3"/>
<circle class="st29" cx="344" cy="414.4" r="0.3"/>
<circle class="st29" cx="342.9" cy="417.9" r="0.3"/>
<circle class="st29" cx="344.4" cy="416.8" r="0.3"/>
<circle class="st29" cx="339.9" cy="418.2" r="0.3"/>
<circle class="st29" cx="338.8" cy="413.6" r="0.3"/>
<circle class="st29" cx="335.5" cy="417.6" r="0.3"/>
<circle class="st29" cx="341.6" cy="414.5" r="0.3"/>
<circle class="st29" cx="338.6" cy="418.5" r="0.3"/>
<circle class="st29" cx="326.3" cy="417.9" r="0.3"/>
<circle class="st29" cx="343.2" cy="415.5" r="0.3"/>
<circle class="st29" cx="349.6" cy="415" r="0.3"/>
<circle class="st29" cx="347.8" cy="413.4" r="0.2"/>
<circle class="st29" cx="341.4" cy="412.9" r="0.2"/>
<circle class="st29" cx="329.1" cy="415.5" r="0.2"/>
<circle class="st29" cx="346" cy="414.9" r="0.2"/>
<circle class="st29" cx="340.1" cy="412.6" r="0.2"/>
<circle class="st29" cx="345.1" cy="413.6" r="0.2"/>
<circle class="st29" cx="342" cy="411.5" r="0.2"/>
<circle class="st29" cx="339.9" cy="411.2" r="0.2"/>
<circle class="st29" cx="329.9" cy="412.2" r="0.2"/>
<circle class="st29" cx="332.1" cy="412.4" r="0.2"/>
<circle class="st29" cx="326.5" cy="414.4" r="0.2"/>
<circle class="st29" cx="337.7" cy="414.5" r="0.2"/>
<circle class="st29" cx="339" cy="414.8" r="0.2"/>
<circle class="st29" cx="331.6" cy="415.2" r="0.2"/>
<circle class="st29" cx="334.9" cy="415.5" r="0.2"/>
<circle class="st29" cx="331.4" cy="413.1" r="0.2"/>
<circle class="st29" cx="338.7" cy="415.5" r="0.2"/>
<circle class="st29" cx="337.6" cy="415.7" r="0.2"/>
<circle class="st29" cx="320.6" cy="412.6" r="0.2"/>
<circle class="st29" cx="327.3" cy="413.4" r="0.2"/>
<circle class="st29" cx="325" cy="411.8" r="0.2"/>
<circle class="st29" cx="324.1" cy="415.5" r="0.2"/>
<circle class="st29" cx="325.2" cy="413.1" r="0.2"/>
<circle class="st29" cx="318.8" cy="413.9" r="0.2"/>
<circle class="st29" cx="346.5" cy="413.1" r="0.2"/>
<circle class="st29" cx="348.8" cy="412.7" r="0.3"/>
<circle class="st29" cx="350.8" cy="415.7" r="0.3"/>
<circle class="st29" cx="349.3" cy="414.2" r="0.3"/>
<circle class="st29" cx="349.9" cy="416.1" r="0.3"/>
<circle class="st29" cx="350.8" cy="414.6" r="0.3"/>
<circle class="st29" cx="348.5" cy="414.3" r="0.3"/>
<circle class="st29" cx="351.6" cy="414.3" r="0.3"/>
<circle class="st29" cx="325.9" cy="413.8" r="0.3"/>
<circle class="st29" cx="329.7" cy="411.1" r="0.3"/>
<circle class="st29" cx="334.5" cy="416.9" r="0.3"/>
<circle class="st29" cx="328.5" cy="411.1" r="0.3"/>
<circle class="st29" cx="326.8" cy="411.3" r="0.3"/>
<circle class="st29" cx="334.2" cy="412.8" r="0.3"/>
<circle class="st29" cx="319.5" cy="414.7" r="0.3"/>
<circle class="st29" cx="321.9" cy="417.2" r="0.3"/>
<circle class="st29" cx="331.1" cy="418.4" r="0.3"/>
<circle class="st29" cx="329" cy="417.2" r="0.3"/>
<circle class="st29" cx="335.4" cy="418.7" r="0.3"/>
<path class="st5" d="M328.1,411.9c0,0-10.9,0.5-5.8,4s19.9,1.5,19.9,1.5s8.2-2.1,2.9-4.5s-13.2-0.9-13.2-0.9s-9.1,1.7-2.1,3.1
	c0,0,8.4,0.8,8.8-0.9s-4.7-0.5-4.7-0.5s2.7,0.6,0.8,0.9s-4-0.2-4-0.7s2.8-0.9,3.6-0.9s5-0.7,6.6,1.2c0.3,0.3,0.2,0.7-0.1,1
	c-0.1,0-0.1,0.1-0.2,0.1c-1.5,0.6-5.3,1.8-11.4,0.9C321.2,415,328.1,411.9,328.1,411.9z"/>
<path class="st30" d="M73.9,309.5c0,0,23.9-5.1,33.4,0.7c6.4,3.8,13.3,6.6,20.5,8.5c0,0,17.6,4.4,23.5,10.6s11.4,2.2,13.9,10.3
	s10.3,15.8,10.3,15.8l-3.7,54.7l2.9,31.6c0,0,1.5,13.2-2.2,16.1s0.7,7.7,4,10.3s11.7,12.5,10.6,16.1s8.8,7.7,8.8,7.7
	s0.4,6.2-4.4,7.7S181.1,523,181.1,523s-64.2,61.7-85.5,56.1s-37.1-25.3-37.1-25.3s-14.3-64.2-18.3-74.5s-14.7-44-14.7-44
	s-5.9-38.9-8.8-46.6s-2.9-48.1,5.9-56.5s16.5-13.2,16.5-16.2s8.4-8.8,11.7-8.4s4.4,4,4.4,4L73.9,309.5z"/>
<path class="st11" d="M337.7,432.7c-10.3,18-49.2,14.3-49.2,14.3s-13.6-2.9-22,1.8s-48.1,9.9-48.1,9.9s-15-3.3-18.7-8.1
	c-3.2-4.2-33.6-22.2-41.5-26.8l-1.6-0.9l0,0c-0.1,0-0.2-0.1-0.3-0.1l0.1-0.1l32.6-41l5.3,5.7l26.2,28c0,0,25.7,1.1,33,5.5
	s30.5-1.5,30.5-1.5s11.4,0,12.1-2.6S348,414.8,337.7,432.7z"/>
<path class="st5" d="M150.4,237.3c-2,0.5-3.7,1.6-5,3.2c-1.9,2.6-1.7,6.2-2.4,9.4c-1.2,5.2-5.3,9.9-4.5,15.1c0.3,1.9,1.1,3.9,0,5.4
	c-1,1.4-3.1,1.4-4.6,0.8c0,0-0.1,0-0.1,0c-4.1-1.6-6.3-5.9-9.2-9.2s-8.1-5.7-11.5-2.9c-2.8,2.4-2.3,6.7-2,10.4s-0.8,8.4-4.4,9
	c-1.5,0.3-3-0.3-4.4,0.1c-4.5,1.1-4.2,8.9-8.6,10.4c-1.5,0.5-3.2,0-4.8-0.4c-1.3-0.3-2.7-0.4-4.1-0.4c-4.7,0.1-9.5,1.5-13.7,0.3
	c2.1-3,4.2-6.1,6-9c-12.8-19.6-7.4-45.8,12.2-58.7c19.6-12.8,45.8-7.4,58.7,12.2C148.9,234.4,149.7,235.8,150.4,237.3L150.4,237.3z"
	/>
<path class="st31" d="M88.8,287.4c1.6,0.4,3.3,0.9,4.8,0.4c4.4-1.4,4.1-9.3,8.6-10.4c1.4-0.3,3,0.2,4.4-0.1c3.6-0.6,4.6-5.4,4.4-9
	s-0.8-8,2-10.4c3.4-2.8,8.6-0.4,11.5,2.9s5.1,7.5,9.2,9.2c1.6,0.6,3.7,0.7,4.8-0.7s0.3-3.6,0-5.4c-0.8-5.3,3.3-9.9,4.5-15.1
	c0.7-3.2,0.5-6.7,2.4-9.4c4.1-5.5,14.6-2.7,18-8.7c1.5,0.2,3.1,0,4.5-0.6c1.4-0.7,2.4-2.3,1.9-3.8c-0.4-1.1-1.6-1.7-2.6-2.4
	c-3.3-2.3-5.2-6.1-5.1-10.1c0.1-1.9,0.6-3.8,0.5-5.7c-0.4-4.3-4.1-7.6-8.4-7.5c-1.3,0-2.5,0.4-3.7,0.4c-6,0.2-10.9-6.5-16.7-5.2
	c-1.2,0.3-2.4,1-3.7,1c-2.9,0-4.7-3.4-7.5-4.2c-2.2-0.7-4.6,0.3-6.9,0s-4.1-1.6-6.1-2.6c-4.2-2.3-9.8-3.3-13.4-0.2
	c-0.8,0.8-1.6,1.5-2.6,2.1c-1.2,0.4-2.5,0.5-3.8,0.2c-3.8-0.4-7.6-0.1-11.3,0.8c-1,0.1-1.9,0.6-2.6,1.4c-0.4,0.8-0.7,1.7-0.8,2.6
	c-1.1,4.3-6.5,5.8-10.9,6.2c-1.2,0-2.3,0.3-3.3,0.9c-1.6,1.2-1.6,3.7-0.9,5.6s1.9,3.6,2.2,5.6c0.6,5-4.8,8.8-5.7,13.8
	c-1.2,6.9,6.4,13.7,3.8,20.2c-1.1,2.9-4.2,5.1-4.1,8.2s3.1,4.9,5,7.3s2.5,5.1,3.2,7.9c1.1,4.5,1.3,13.2,6.5,14.8
	C76.3,288.9,82.9,286,88.8,287.4z"/>
<path class="st5" d="M90.4,434.9c6.2,8.1,28.3,27.2,42.9,31.9S90.4,434.9,90.4,434.9z"/>
<path class="st5" d="M93.7,475.3c2.6,1.8,14.3,23.8,26.8,25.7S93.7,475.3,93.7,475.3z"/>
<path class="st5" d="M96.7,456.2c0.7,1.1,29.7,26.4,40.3,28.6s1.5-8.8-11.7-14S96.7,456.2,96.7,456.2z"/>
<path class="st5" d="M96.7,510.2c0,0,19.4,7,32.6,5.1S96.7,510.2,96.7,510.2z"/>
<path class="st5" d="M119.4,552.3c0,0,19.1-13.9,28.6-14.7S119.4,552.3,119.4,552.3z"/>
<path class="st5" d="M33.6,327.5c0,0,46.2,5.1,33.4,7.3S33.6,327.5,33.6,327.5z"/>
<path class="st5" d="M33.2,351.3c0,0,22,0,30.1-3.7S33.2,351.3,33.2,351.3z"/>
<path class="st5" d="M26.2,397.5c4-1.1,20.9-36.3,27.5-26.8S26.2,397.5,26.2,397.5z"/>
<path class="st5" d="M93,388.4c0,0,5.9,5.5,24.2,10.6S93,388.4,93,388.4z"/>
<path class="st5" d="M201.6,513.5c0,0,10.3,5.5,2.6,17.2S201.6,513.5,201.6,513.5z"/>
<path class="st17" d="M94.1,560.4l-0.1-1.6C94.4,553.7,94.1,560.4,94.1,560.4z"/>
<path class="st17" d="M101.1,590.9l-29.4-2.9l-5.5-11L35.8,409.5l-0.7-3.9l46.6,0.4l0.4,5.3L94,558.9c-0.1,0.8-0.1,1.7-0.2,3
	C93,572.2,101.1,590.9,101.1,590.9z"/>
<path class="st5" d="M666.6,345.6l-0.8,0.6c-3.1,2.1-7.3-5.5-11-4.4c-3.2,0.9-5.8,10.6-9.2,10.6c-5.3,0-10.5-1.2-15.3-3.4
	c-0.5-1.1-1-2.1-1.5-3c-1.9-3.5-3.3-5.7-3.3-5.7s5.2-0.9,11.7-1.8c3-0.4,6.4-0.9,9.6-1.3l0,0c1.7-0.2,3.4-0.4,4.9-0.5
	c6.4-0.6,11.5-0.8,11.5,0.3s1,3.7,2.6,7C666,344.5,666.3,345,666.6,345.6z"/>
<path class="st15" d="M681.5,314.2c0,19.9-16.1,36-35.9,36c-19.9,0-36-16.1-36-35.9s16.1-36,36-36c0,0,0,0,0,0c19.8,0,36,16,36,35.8
	C681.5,314.2,681.5,314.2,681.5,314.2z"/>
<path class="st32" d="M674.9,382.9l-10.7,1.1c0,0,1.1-9.6,5.8-12.7c3.1-2,8.9-5.1,12.4-7c1.2,0.6,2.5,1,3.9,1.3
	C669.7,376.2,674.9,382.9,674.9,382.9z"/>
<path class="st15" d="M554.5,429.4l-2.6-0.4c0,0-11.2,0.7-22.2,2s-26.6,4.6-15.2,17.8c11.4,13.2,21.8-2.4,21.8-2.4
	s10.6,13.2,18.9,8.8S554.5,429.4,554.5,429.4z"/>
<path class="st15" d="M509.2,639.8c0,0,7,16.9,6.4,21.6s23.3-4.6,23.3-4.6s-5.5-12.8-2.6-15.6S509.2,639.8,509.2,639.8z"/>
<rect x="476.2" y="685.3" class="st15" width="19" height="24.2"/>
<path class="st33" d="M513.4,633.1c-1.9,3-3.3,8.2-4.2,13.4c-1.1,6.2-1.8,12.5-2,18.8c0,3.7,1.8,2.9,0,8.8
	c-1.6,4.6-2.8,9.3-3.6,14.1c0,0.2-0.1,0.4-0.1,0.6c-1.1,6.6-2.2,8.8-2.2,8.8s-27.9-1.8-33.7-5.9s2.2-8.1,2.2-8.1s0-0.3,0-1
	c0.6-11.2,6.3-119.3,8.8-130.8c0.6-2.5,1.8-4.8,3.6-6.6c3.4-3.8,8.4-6.6,12.6-8.5c2.5-1.1,5.1-2.1,7.7-2.8c0,0,1.5,8.5,3.4,20.5
	C510.1,581.9,516.8,627.7,513.4,633.1z"/>
<path class="st15" d="M505.8,554.5c-2.2,3.9-4.3,6.4-5.9,4.5c-2.7-3.3-11.5-9.4-17.7-13.6c6.8-7.6,20.3-11.3,20.3-11.3
	S503.9,542.5,505.8,554.5z"/>
<path class="st33" d="M669.9,524.9c-0.3,4.1-0.8,9-1.6,15c-2.1,15-11.4,28.1-25,34.9c0,0-67.5,0-79.3-3.3
	c-5.9-1.7-11.1,0.3-14.8,2.7c-0.4,0.3-0.8,0.5-1.2,0.8c-1.7,1.2-3.2,2.6-4.5,4.2c0,0-7.3-29.7-7.3-31.2s4-14.7,11.4-23.8
	s50.6-10.6,53.2-11c1.7-0.2,17.5-7.1,27.9-11.7c5.3-2.3,9.2-4.1,9.2-4.1l17,5.4l0.6,0.2l13.6,4.3C669,507.3,670.7,511.3,669.9,524.9
	z"/>
<path class="st5" d="M655.4,502.9c-3.2,1.3-8.4,3.4-14.3,5.6c-12.9,4.7-29.8,9.8-39.6,9c-17.6-1.5-37.8,2.6-37.8,2.6
	c-6.4,2.8-12.4,6.7-17.6,11.4c-9.2,8.1-1.1,10.6,2.9,20.2c1.7,3.9,1.3,13.1,0.2,22.5c-0.4,0.3-0.8,0.5-1.2,0.8
	c-1.7,1.2-3.2,2.6-4.5,4.2c0,0-7.3-29.7-7.3-31.2s4-14.7,11.4-23.8s50.6-10.6,53.2-11c1.7-0.2,17.5-7.1,27.9-11.7
	c5.3-2.3,9.2-4.1,9.2-4.1l17,5.4L655.4,502.9z"/>
<path class="st5" d="M513.4,633.1c-1.9,3-3.3,8.2-4.2,13.4c-0.7-0.4-1.4-0.8-2-1.3c-3.4-2.8-3.1-8.3-2.6-11.7c0.2-1.4,0.4-2.5,0.4-3
	c0-1.5,1.5-14.7-1.5-19.5s-3.7-23.5-3.7-23.5s-4.7-26.8-5.1-50.7c2.5-1.1,5.1-2.1,7.7-2.8c0,0,1.5,8.5,3.4,20.5
	C510.1,581.9,516.8,627.7,513.4,633.1z"/>
<path class="st33" d="M658,501.3c0,0-1.2,0.5-3.2,1.4c-3.2,1.3-8.5,3.5-14.8,5.8c-12.9,4.7-29.8,9.8-39.6,9
	c-17.6-1.5-37.8,2.6-37.8,2.6c-6.4,2.8-12.4,6.7-17.6,11.4c-9.2,8.1-1.1,10.6,2.9,20.2c1.7,4,1.2,13.6,0.2,23.3
	c-1.5,13.3-4.2,26.9-4.2,26.9s-1.1,3.7-0.4,5.9s0.7,19.1,0.7,19.1c-0.9,1.4-1.5,3.1-1.6,4.8c-0.1,1.4,0.4,2.8,1.2,4
	c2.9,4,0.7,14.7,0.7,14.7s-6.2,1.1-16.9-1.5s-14.7,0.4-19.4-3.7c-3.4-2.8-3.1-8.3-2.6-11.7c0.2-1.4,0.4-2.5,0.4-3
	c0-1.5,1.5-14.7-1.5-19.5s-3.7-23.5-3.7-23.5s-11.7-67.2,0.1-83.5c0.2-0.3,0.4-0.6,0.7-0.8c6.5-7.5,20.2-8.9,32.9-8.1
	c9.2,0.6,18.3,2.1,27.2,4.5c7.3,2.2,9.5,1.1,13.2-0.4c2.6-1,2.8-6.2,2.7-9c0-0.3,0-0.6,0-0.8c0-0.7-0.1-1.2-0.1-1.2l3.3-1.8
	l13.6-7.4L658,501.3z"/>
<path class="st5" d="M665.7,344c2.4,4.9,5.3,9.5,8.7,13.7c-1.1,0.4-2.4,0.4-3.5,0.1c-1.2-0.5-2.1-1.5-3.2-2.1
	c-3-1.4-6.3,0.6-9.3-1.3c-2.3-1.5-2.8-3.3-2.9-5.6c0-0.3,0-0.6,0-1c0-3.2-0.3-9.6-3.7-11.2c-1.3-0.5-2.8-0.5-4.1,0.1
	c-0.3,0.1-0.5,0.2-0.8,0.4l0,0c-2.3,1.3-3.9,4.2-6.5,4c-1.5-0.2-2.7-1.3-3.1-2.7c-0.5-1.4-0.9-3-1.1-4.5c-0.8-5.9-3-11.4-5.2-16.9
	c-0.4-1-1-2.3-2.2-2.4c-1.8-0.1-2.3,2.7-1.3,4.2s2.7,2.7,3,4.5c0.4,3-4.1,4.8-6.5,3s-2.9-5.3-2.4-8.3s1.8-5.8,2-8.9
	s-1.2-6.5-4.1-7.4c-2.5-0.8-5.2,0.8-7.9,0.8c6.3-18.8,26.7-29,45.6-22.7c18.8,6.3,29,26.7,22.7,45.6
	C677.3,333.1,672.4,339.5,665.7,344L665.7,344z"/>
<path class="st34" d="M648.6,336.8c-2.7,1-4.4,4.6-7.3,4.4s-3.8-4.2-4.2-7.2c-0.8-5.9-3-11.4-5.2-16.9c-0.4-1-1-2.3-2.2-2.4
	c-1.8-0.1-2.3,2.7-1.3,4.2s2.7,2.7,3,4.5c0.4,3-4.1,4.8-6.5,3s-2.9-5.3-2.4-8.3s1.8-5.9,2-8.9s-1.2-6.5-4.1-7.4s-6,1.2-9,0.7
	c-3-0.7-4.9-3.7-4.2-6.7c0.1-0.3,0.2-0.7,0.3-1c1.3-2.5,4.6-4.5,3.8-7.2c-1.1-3.3-6.8-1.9-9-4.6c-1.8-2.1-0.2-5.5,2.1-7
	s5.1-2.2,7.3-3.9c4.1-3.2,4.8-9.3,8.7-12.8c4.4-4,11.2-3.1,16.8-5.2c5.3-2,10.1-6.8,15.7-5.8c1.3,0.2,2.6,0.8,4,0.9
	c2.8,0.3,5.4-1.4,8-2.5c5.1-2,10.8-1.8,15.7,0.7c-0.5,3.6,3.2,6.8,6.8,6.6c2.6-0.1,6.2-1,7.1,1.5c0.4,1.1-0.1,2.5,0.3,3.6
	c0.7,2,3.5,2.1,5.3,3.3c4.1,2.6,2.2,9.7,5.7,13c1.6,1.5,3.8,1.8,5.8,2.7c6.4,2.8,8.7,10.6,10.3,17.4c0.4,1.3,0.5,2.7,0.3,4.1
	c-0.5,2-2.4,3.3-3.4,5.1c-2.5,4.2,0.2,9.8-1.4,14.4s-6.8,7.3-7.5,12c-0.3,1.6,0.1,3.3-0.2,4.9c-0.7,4.3-5.3,6.8-9.5,8.1
	c-1.2,0.4-2.5,0.8-3,1.9c-0.2,0.5-0.3,1.1-0.5,1.6c-0.5,1.2-1.8,1.9-3,2.5c-5.5,2.6-11.1,4.9-16.8,7.1c-1.6,0.6-3.3,1.2-4.9,0.6
	c-1.2-0.5-2.1-1.5-3.2-2.1c-3-1.4-6.3,0.6-9.3-1.3c-2.7-1.7-3-3.8-3-6.6C656.5,343.7,655.9,334,648.6,336.8z"/>
<path class="st33" d="M503.6,688.2c0,0.2-0.1,0.4-0.1,0.6c-1.1,6.6-2.2,8.8-2.2,8.8s-27.9-1.8-33.7-5.9s2.2-8.1,2.2-8.1s0-0.3,0-1
	C479.4,685.2,496.1,688.8,503.6,688.2z"/>
<path class="st5" d="M503.6,688.2c0,0.2-0.1,0.4-0.1,0.6c-1.1,6.6-2.2,8.8-2.2,8.8s-27.9-1.8-33.7-5.9s2.2-8.1,2.2-8.1s0-0.3,0-1
	C479.4,685.2,496.1,688.8,503.6,688.2z"/>
<path class="st35" d="M499.3,694.9c0,0-32.3,2.2-33.6,1.7s-1.3,17.1-1.3,17.1s-7.2,14.3-8.1,17.8s-8.1,12.1-8.1,12.1
	s-10.3,7.5,4.8,10.5s31.5-0.9,31.5-0.9s11-19.1,11.9-18s0,10.1,0,10.1l6.4-1.7c0,0-1.1-11.9,1.5-18.3S499.3,694.9,499.3,694.9z"/>
<path class="st5" d="M544.6,649.2c0,0-6.2,1.1-16.9-1.5s-14.7,0.4-19.4-3.7c-3.4-2.8-3.1-8.3-2.6-11.7c4.7-1,11.9-2.5,17.5-3.3
	s13.6,0.3,19.5,1.5c-0.1,1.4,0.4,2.8,1.2,4C546.8,638.6,544.6,649.2,544.6,649.2z"/>
<path class="st33" d="M544.6,650.3c0,0-6.2,1.1-16.9-1.5s-14.7,0.4-19.4-3.7c-3.4-2.8-3.1-8.3-2.6-11.7c4.7-1,11.9-2.5,17.5-3.3
	s13.6,0.3,19.5,1.5c-0.1,1.4,0.4,2.8,1.2,4C546.8,639.7,544.6,650.3,544.6,650.3z"/>
<path class="st5" d="M544.6,650.3c0,0-6.2,1.1-16.9-1.5s-14.7,0.4-19.4-3.7c-3.4-2.8-3.1-8.3-2.6-11.7c4.7-1,11.9-2.5,17.5-3.3
	s13.6,0.3,19.5,1.5c-0.1,1.4,0.4,2.8,1.2,4C546.8,639.7,544.6,650.3,544.6,650.3z"/>
<path class="st35" d="M560.4,702.4l-10.8,2.8l-3.1-12.8c0,0-2.7,5.2-7.5,12.3c-0.6,0.9-1.3,1.9-2,2.9c-5.5,7.9-24.1,6-30.5,1.4
	c-0.6-0.4-1-0.8-1.5-1.4c-4.2-5.5,2.2-10.8,5.3-13.8c3.1-2.9,1.5-22.4,1.5-22.4s-1.5-8.6-0.4-12.7c1.1-4,28.8-5.5,28.8-5.5
	s5.7,14.8,8.8,19.4s7,10.3,6.2,14.3S560.4,702.4,560.4,702.4z"/>
<path class="st15" d="M546.1,511.8c-4.7,6-35.5,1.5-45-7.8c0.2-0.3,0.4-0.6,0.7-0.8c6.5-7.5,20.2-8.9,32.9-8.1
	C540.5,499.3,549.8,507,546.1,511.8z"/>
<path class="st5" d="M516.4,516.2c0,0-5.3-7.5-10.1-3.9c-4.8,3.7-6.2-6.4-6.2-6.4s2.6-1.8,8.1,0.9c5.5,2.8,11.7,7.5,11,8.4
	S516.4,516.2,516.4,516.2z"/>
<path class="st33" d="M516.4,515.1c0,0-5.3-7.5-10.1-3.9c-4.8,3.7-6.2-6.4-6.2-6.4s2.6-1.8,8.1,0.9c5.5,2.8,11.7,7.5,11,8.4
	S516.4,515.1,516.4,515.1z"/>
<path class="st5" d="M615.8,516.2c0,0,27.2,12.5,21.1,17.5S615.8,516.2,615.8,516.2z"/>
<path class="st5" d="M506.3,602.1c0,0,17.2,2,21.1,4.6c2.9,2,6.4,3.2,9.9,3.5C539.5,610.1,514,595.8,506.3,602.1z"/>
<path class="st5" d="M527,592c0,0-6.6,4.6,0.9,6.4S527,592,527,592z"/>
<path class="st5" d="M490.1,653.1c0,0,9.7,12.1,13.2,8.8S490.1,653.1,490.1,653.1z"/>
<path class="st5" d="M483.9,676.9c0.7,0,3.1-0.4,7.9,2.9s5.1-2.6,3.3-5S483.9,676.9,483.9,676.9z"/>
<path class="st5" d="M472.9,406.6c1.7,0.5,11.3,3,13.2,8.8S472.9,406.6,472.9,406.6z"/>
<path class="st5" d="M82.1,411.3l-0.8-0.2c0,0-28.1-6.3-45.5-1.6l-0.7-3.9l46.6,0.4L82.1,411.3z"/>
<path class="st17" d="M57.1,399c0,0,70.4,0.4,95,48.8s30.1,140.9,30.1,140.9s4,13.2-1.8,13.6s-8.4-12.1-8.4-12.1s2.2-9.2,0.4-13.2
	s-24.2-116.3-24.2-116.3s-2.6-35.2-66.8-50.6c0,0-75.2-16.9-55.8,25.3c0,0,1.1,5.9-2.9,4.8s-8.8-12.1-5.5-26S57.1,399,57.1,399z"/>
<path class="st5" d="M194.5,387.5l-0.2,0.2c-5,4-23.5,35.4-36,36.3c-0.2,0-0.5,0-0.7,0c0,0-0.3-0.4-0.8-1l0,0
	c-0.1-0.1-0.1-0.2-0.2-0.2l32.6-41L194.5,387.5z"/>
<path class="st5" d="M157.9,348.4l16.5,7c0,0,8.1,8.1,7.7,15.4s4,1.8,4,1.8s2.9,1.1,2.9,4s8.1,5.9,2.9,9.9s-24.2,36.7-36.7,36.3
	c-7.4-8.5-15.4-16.4-23.9-23.8C118.7,388,107,331.5,157.9,348.4z"/>
<path class="st30" d="M159.1,348.4l16.5,7c0,0,8.1,8.1,7.7,15.4s4,1.8,4,1.8s2.9,1.1,2.9,4s8.1,5.9,2.9,9.9s-24.2,36.7-36.7,36.3
	c-7.4-8.5-15.4-16.4-23.9-23.8C119.8,388,108.1,331.5,159.1,348.4z"/>
<path class="st5" d="M617.6,409.3l-17.1,30.4l-11.8,6.1c-0.3-3.2-0.5-5.4-0.5-5.4s-7.7-18,12.1-31.5c17.4-11.9,8.2-21.6,5.7-23.7
	l0.5-0.5l4-0.5L617.6,409.3z"/>
<path class="st5" d="M731.5,395.8c-2.7,6-25.8,22.2-25.8,22.2c0,0,0,0.1,0,0.1l-1.1-1.2l22-25.3l4,2.6L731.5,395.8z"/>
<path class="st5" d="M669.9,524.9c-3.2,0.4-6.5,0.5-9.7,0.3c-6.2-6.2-13-11.8-20.2-16.7c-3.5-2.4-7.3-4.8-11.4-7.1
	c-14.5-8-32.5-14.3-50.9-11.3c-0.4,0.1-0.8,0.1-1.2,0.2c0,0,0.5-0.4,1.2-1s1.9-1.7,3.2-3l13.6-7.4l63.5,22.4c0,0-1.2,0.5-3.2,1.4
	l14.2,4.5C669,507.3,670.7,511.3,669.9,524.9z"/>
<path class="st2" d="M649.6,378.1c0,0,49.2,4.8,71.5,2.2c0,0,11,8.4,9.5,13.9s-26,22.7-26,22.7s-1.8,42.9-11.7,53.2
	s-18.8,36.7-14.4,45.5c4.4,8.8-17.2,7.3-17.2,7.3s-41.1-42.9-83.7-34.9c0,0,15.4-12.5,14.3-21.7s-2.6-26-2.6-26s-7.7-18,12.1-31.5
	s5.1-24.2,5.1-24.2s-0.7-3.3,7.7-4.4c4.1-0.4,8.1-1.2,12.1-2.2c0,0,8.1-7.3,11.7-5.9S649.6,378.1,649.6,378.1z"/>
<path class="st5" d="M705.7,411.7c0,0,5.9,11.5-0.5,17.6c-2.5,2.6-4.8,5.4-6.9,8.4c-11.9,15.9-21.8,33.2-29.6,51.4
	c-13.5,31.6-36.9,85.3-40.4,88.1c-5,4-5.3,12.3-0.4,12.5s7.9-6.6,7.9-6.6s5-14.1,8.1-19.8s35.6-80.2,35.6-80.2s12.1-31.9,25.7-39.3
	c0,0,11.7-19.5,9.7-28.1S705.7,411.7,705.7,411.7z"/>
<path class="st17" d="M705.7,410.5c0,0,5.9,11.6-0.5,17.6c-2.5,2.6-4.8,5.4-6.9,8.3c-11.9,15.9-21.8,33.2-29.6,51.4
	c-13.5,31.6-36.9,85.3-40.4,88.1c-5,4-5.3,12.3-0.4,12.5s7.9-6.6,7.9-6.6s5-14.1,8.1-19.8s35.6-80.2,35.6-80.2s12.1-31.9,25.7-39.3
	c0,0,11.7-19.5,9.7-28.1S705.7,410.5,705.7,410.5z"/>
<path class="st15" d="M755.6,449.3c1.2,6.6,1.1,13.6-1.7,19.6c0,0-15.6,0.7-31.2-21.1l-9.4-22.9c0,0-10.5-17.8-16.7-16.9
	s-11,32.1-25.9,29.2s-7-40.4,12.7-44.2l7.6-1.9c5.5-1.4,11.4-0.2,15.9,3.4c3.6,2.9,8.6,6.7,14.5,11c4.9,3.6,9.5,7.1,13.3,10.1
	C745.7,423.7,753.1,435.8,755.6,449.3z"/>
<path class="st5" d="M593.1,447.6c0,0,7.4,9.1,19.5,11s19-1.9,29.2,2.2S593.1,447.6,593.1,447.6z"/>
<path class="st5" d="M694.4,430.5c0,0-22.8,19.5-22,24.8S694.4,430.5,694.4,430.5z"/>
<g class="st0">
	<path d="M631.9,322.4c-1.5,1.3-3.7,1.4-5.4,0.4c-2.1-1.6-2.8-4.4-2.5-7.1c-0.2,0.8-0.4,1.7-0.6,2.5c-0.5,3-0.1,6.5,2.4,8.3
		s6.9,0,6.5-3C632.1,323,632,322.7,631.9,322.4z"/>
	<path d="M625.2,309.7c0.4-1.4,0.7-2.8,0.8-4.2c0.2-3-1.2-6.5-4.1-7.4s-6,1.2-9,0.7c-2.2-0.5-3.9-2.3-4.3-4.5
		c-0.1,0.2-0.2,0.4-0.3,0.5c-1.2,2.8,0,6.1,2.8,7.3c0.3,0.1,0.7,0.3,1,0.3c3,0.5,6.1-1.6,9-0.7s4.3,4.3,4.1,7.4
		C625.3,309.4,625.3,309.6,625.2,309.7z"/>
	<path d="M612,287.5c0.8-0.9,1.2-2.2,0.9-3.4c-1.1-3.3-6.8-1.9-9-4.6c-0.3-0.4-0.5-0.8-0.6-1.2c-1,1.6-1.3,3.5-0.1,4.9
		C605.3,285.8,610.6,284.5,612,287.5z"/>
	<path d="M701.6,340.5c-1.2,0.4-2.5,0.8-3,1.9c-0.2,0.5-0.3,1.1-0.5,1.6c-0.5,1.2-1.8,1.9-2.9,2.5c-5.5,2.6-11.1,5-16.8,7.1
		c-1.6,0.6-3.3,1.2-4.9,0.6c-1.2-0.5-2.1-1.5-3.2-2.1c-3-1.4-6.3,0.6-9.3-1.3c-2.7-1.7-3-3.8-3-6.6c0-4.2-0.6-13.8-7.9-11
		c-2.7,1-4.4,4.6-7.3,4.4s-3.8-4.2-4.2-7.2c-0.8-5.9-3-11.4-5.2-16.9c-0.4-1-1-2.3-2.2-2.4c-1.7-0.1-2.2,2.2-1.5,3.8
		c0.2-0.1,0.5-0.2,0.8-0.1c1.1,0.1,1.8,1.3,2.2,2.4c2.2,5.5,4.4,11.1,5.2,16.9c0.4,3,1.2,6.9,4.2,7.2s4.6-3.3,7.3-4.4
		c7.3-2.8,7.9,6.8,7.9,11c0,2.8,0.3,4.9,3,6.6c3,1.9,6.3-0.1,9.3,1.3c1.2,0.5,2,1.6,3.2,2.1c1.6,0.6,3.3,0,4.9-0.6
		c5.7-2.1,11.3-4.5,16.8-7.1c1.2-0.6,2.5-1.2,3-2.5c0.2-0.5,0.2-1.1,0.5-1.6c0.5-1.1,1.9-1.5,3-1.9c4.2-1.3,8.8-3.8,9.5-8.1
		c0.1-0.6,0.1-1.1,0.1-1.7C708.9,337.5,705.2,339.5,701.6,340.5z"/>
	<path d="M720.2,301.2c-0.7,1.4-1.1,2.9-1.1,4.4c0.1-0.3,0.2-0.5,0.4-0.8c1-1.8,2.9-3.1,3.4-5.1c0.2-0.7,0.2-1.5,0.1-2.2
		C722.2,298.8,721,299.9,720.2,301.2z"/>
	<path d="M711.3,327.6c-0.1,0.5-0.1,1.1-0.1,1.6c1.6-3.5,5.6-6.1,6.9-9.9c0.3-1,0.5-2.1,0.5-3.1C716.8,320.3,712,323,711.3,327.6z"
		/>
</g>
<path class="st5" d="M550.9,683c-4.1,2.7-8,5.7-11.7,9c-4.8,4.4-16.7,8.1-16.7,8.1L550.9,683z"/>
<path class="st5" d="M492.2,729.4c0,0-22.6,20.2-26.2,19.8S492.2,729.4,492.2,729.4z"/>
<path class="st5" d="M538.9,704.6c-0.6,0.9-1.3,1.9-2,2.9c-5.5,7.9-24.1,6-30.5,1.4C512.2,707,529.7,701.6,538.9,704.6z"/>
<g class="st0">
	<path d="M447.4,252.5c0.3-0.7,0.5-1.5,0.6-2.3C447.7,251,447.5,251.7,447.4,252.5z"/>
	<path d="M377.7,276.9c0.1-0.5,0.3-1,0.5-1.5c1.6-3.6-0.5-6.1-2.8-8.6c-2.3-2.1-3.8-4.9-4.2-8c-0.1-0.8-0.2-1.7-0.2-2.5
		c-0.2,0.3-0.4,0.5-0.5,0.8c-0.8,1.7-0.6,3.7-0.3,5.6c0.4,3.1,1.9,5.9,4.2,8C376.2,272.6,377.8,274.5,377.7,276.9z"/>
	<path d="M439.8,309.4c-1.8-0.5-3.4,1.3-4.3,2.9s-1.9,3.6-3.8,3.9c-2.3,0.3-3.8-2.1-4.8-4.2s-1.9-4.3-1.9-6.5c0-0.3,0-0.5,0.1-0.8
		c-0.6,1.5-1,3.1-1.2,4.7c-0.1,2.3,0.9,4.5,1.8,6.5s2.5,4.5,4.8,4.2c1.9-0.2,2.9-2.2,3.8-3.9s2.5-3.4,4.3-2.9
		c0.8,0.2,1.7,0.9,2.4,0.5c0.4-0.3,0.6-0.7,0.7-1.2c0.2-0.9,0.3-1.7,0.3-2.6C441.4,310.3,440.6,309.7,439.8,309.4z"/>
	<path d="M451.1,291.1c-2.4,1.9-5.3,3.3-6.7,6c-0.6,1.2-0.9,2.4-1,3.7c1.5-2.6,4.3-4,6.7-5.9c3.7-3,6.1-7.1,6.9-11.8
		C455.7,286.3,453.7,289,451.1,291.1z"/>
	<path d="M426.3,300.8c0.4-1.1,0.8-2.2,1-3.4c0.7-3.5-0.5-7-1.6-10.3c-0.8-2.4-2.4-5.4-5-5.1c-0.5,0.1-1,0.2-1.5,0.2
		c-1.3-0.2-1.6-2-1.8-3.4c-0.9-6.6-5.9-11.8-12.4-13c-0.7-0.2-1.5-0.1-2.2,0.1c-1,0.4-1.5,1.5-2.3,2.1c-2.8,1.9-6.3-1.8-9.7-1.5
		c-2.9,0.2-4.6,3.2-5.8,5.8s-2.7,5.6-5.5,6.3c-0.4,0.1-0.9,0.1-1.3-0.2c-0.3-0.2-0.4-0.5-0.4-0.8c-0.1,0.6-0.3,1.1-0.5,1.7
		c-0.4,1-1,2.4-0.2,3c0.4,0.2,0.9,0.3,1.3,0.1c2.8-0.6,4.3-3.6,5.5-6.3s3-5.6,5.8-5.8c3.4-0.3,7,3.4,9.7,1.5
		c0.9-0.6,1.4-1.6,2.3-2.1c0.7-0.3,1.4-0.3,2.2-0.1c6.6,1.1,11.7,6.4,12.5,13c0.1,1.4,0.4,3.1,1.8,3.4c0.5,0,1-0.1,1.5-0.2
		c2.6-0.3,4.1,2.7,4.9,5.1C425.7,294.1,426.7,297.5,426.3,300.8z"/>
</g>
<path class="st19" d="M444.5,416.2c0,0-14,4.3-20.4,4.3s-31.1-0.1-31.1-0.1s-64.7-21.6-45.3,8c19.4,29.6,50.1,13.1,50.1,13.1
	l5.5,1.2c3,0.7,61.5,0.1,63.4-2.2S444.5,416.2,444.5,416.2z"/>
<path class="st5" d="M484.7,442.2c-8.8,0.8-26.1,1-26.1,1s-12.9-25.6-23.9-24.8c0,0,10.2-11.5,14.3-10.2c0.7,0.2,1.1-0.3,1.3-1.3
	c10.8,3.3,31.3,11.3,33.3,25.5C484.2,436.3,484.5,439.5,484.7,442.2z"/>
<path class="st20" d="M485.8,442.2c-8.8,0.8-26.1,1-26.1,1s-12.9-25.6-23.9-24.8c0,0,10.2-11.5,14.3-10.2c0.7,0.2,1.1-0.3,1.3-1.3
	c10.8,3.3,31.3,11.3,33.3,25.5C485.3,436.3,485.6,439.5,485.8,442.2z"/>
<path class="st5" d="M485.8,442.2c-8.8,0.8-26.1,1-26.1,1s-12.9-25.6-23.9-24.8c0,0,10.2-11.5,14.3-10.2c0.7,0.2,1.1-0.3,1.3-1.3
	c10.8,3.3,31.3,11.3,33.3,25.5C485.3,436.3,485.6,439.5,485.8,442.2z"/>
<path class="st5" d="M408.5,515.8c0,0,24.8-6.1,28.6-2.8C441,516.4,408.5,515.8,408.5,515.8z"/>
<path class="st5" d="M337.5,539.5c0,0,10.5,6,11.5,11S337.5,539.5,337.5,539.5z"/>
<g class="st0">
	<path d="M161.6,211.1c0,1.4,0.1,2.7,0.6,4c0-0.4,0-0.8,0-1.3c0.1-1.9,0.6-3.8,0.5-5.7c-0.1-0.8-0.2-1.6-0.5-2.3
		C162.2,207.7,161.7,209.4,161.6,211.1z"/>
	<path d="M60,209.5c0.5,1.3,1.2,2.5,1.7,3.8c0-0.3,0-0.6,0-0.9c-0.2-1.9-1.4-3.6-2.1-5.4C59.5,207.8,59.7,208.7,60,209.5z"/>
	<path d="M169.9,226.3c-0.1-0.3-0.3-0.7-0.6-0.9c-0.3,0.8-1,1.5-1.8,1.9c-1.4,0.6-3,0.8-4.5,0.6c-3.4,5.9-13.9,3.2-18,8.7
		c-1.9,2.6-1.7,6.2-2.4,9.4c-1.2,5.2-5.3,9.9-4.5,15.1c0.3,1.8,1.1,3.9,0,5.4s-3.1,1.4-4.8,0.7c-4.1-1.6-6.3-5.9-9.2-9.2
		s-8.1-5.8-11.5-2.9c-2.8,2.4-2.3,6.7-2,10.4s-0.8,8.4-4.4,9c-1.5,0.3-3-0.3-4.4,0.1c-4.5,1.1-4.2,8.9-8.6,10.4
		c-1.6,0.5-3.2,0-4.8-0.4c-5.8-1.4-12.5,1.5-17.9-0.1c-3-0.9-4.3-4.1-5.1-7.6c0.8,4.3,1.9,9.2,5.7,10.3c5.4,1.6,12.1-1.3,17.9,0.1
		c1.6,0.4,3.3,0.9,4.8,0.4c4.4-1.4,4.1-9.3,8.6-10.4c1.4-0.3,3,0.2,4.4-0.1c3.6-0.6,4.7-5.4,4.4-9s-0.8-8,2-10.4
		c3.4-2.8,8.6-0.4,11.5,2.9s5.1,7.5,9.2,9.2c1.6,0.6,3.7,0.7,4.8-0.7s0.3-3.6,0-5.4c-0.8-5.3,3.3-10,4.5-15.1
		c0.8-3.2,0.5-6.7,2.4-9.4c4.1-5.5,14.6-2.7,18-8.7c1.5,0.2,3.1,0,4.5-0.6C169.4,229.4,170.4,227.8,169.9,226.3z"/>
	<path d="M63.9,269.8c-0.7-2.8-1.4-5.7-3.2-7.9c-1.4-1.8-3.4-3.3-4.4-5.2c0,0.2,0,0.5,0,0.7c0.1,3,3.1,4.9,5,7.3s2.5,5.1,3.2,7.9
		C64.2,271.5,64.1,270.6,63.9,269.8z"/>
	<path d="M60.3,242.7c-0.3-3.7-2.7-7.5-3.9-11.3C56.8,235.2,59.1,239,60.3,242.7z"/>
</g>
<path class="st5" d="M252.8,585.5c0,0,30.8-0.9,23.4,2.4s-28.1,3-28.1,3L252.8,585.5z"/>
<path class="st5" d="M379.4,651c0,0,14.3-2.2,18,0.2S379.4,651,379.4,651z"/>
<path class="st36" d="M768.9,616.2c0,2.5,0.3,4.6,0.6,4.6s0.6-2,0.6-4.6s-0.4-1.3-0.7-1.3S768.9,613.7,768.9,616.2z"/>
<path class="st36" d="M765.4,619.2c2.2,1.2,4.1,1.9,4.3,1.6s-1.5-1.5-3.7-2.7s-1.3-0.3-1.5,0S763.2,618,765.4,619.2z"/>
<path class="st24" d="M471.9,446.1c0,2.8-8.8,6.1-19.7,6.1s-19.7-3.3-19.7-6.1s8.8-4.1,19.7-4.1S471.9,443.2,471.9,446.1z"/>
<path class="st5" d="M471.9,446.1c0,2.8-8.8,6.1-19.7,6.1s-19.7-3.3-19.7-6.1s8.8-4.1,19.7-4.1S471.9,443.2,471.9,446.1z"/>
<ellipse class="st24" cx="452.2" cy="446.1" rx="19.7" ry="5.1"/>
<ellipse class="st5" cx="452.2" cy="446.1" rx="11.2" ry="2.9"/>
<path class="st26" d="M468.3,440c-1.4,2.6-4.1,4.3-7.1,4.5c-1.2,0.1-2.3,0-3.4-0.2l1.4-2c0.9,0.2,1.8,0.2,2.6,0
	c1.5-0.3,2.7-1.2,3.5-2.6c1.4-2.5-0.4-2.9-1.6-2.9c-0.3,0-0.5,0-0.8,0l1.1-1.6c0,0,0.4-0.1,1.1-0.1C467.1,435,471.1,435.2,468.3,440
	z"/>
<path class="st26" d="M459.6,446.9c-5,1.6-10.3,1.6-15.2,0l0.1-0.8l0.1-0.6l14.8-0.2l0.1,0.9L459.6,446.9z"/>
<path class="st5" d="M461.8,442.2c-0.1,0.8-0.3,1.5-0.5,2.3c-1.2,0.1-2.3,0-3.4-0.2l1.4-2C460,442.4,460.9,442.4,461.8,442.2z"/>
<path class="st5" d="M465,435.1c-0.1,0.2-0.3,0.4-0.4,0.6l-0.1,0.1c-0.3,0.3-0.6,0.6-0.9,1c-0.3,0-0.5,0-0.8,0l1.1-1.6
	C463.9,435.2,464.4,435.1,465,435.1z"/>
<path class="st5" d="M459.6,446.3c-2.6,1-12.5,1.2-15-0.2l0.1-0.6l14.8-0.2L459.6,446.3z"/>
<path class="st26" d="M464.3,435.7l-0.1,0.1c-1.4,1.3-2.3,3.1-2.5,5c-0.5,4.4-1.4,4.8-1.5,5c-0.8,1.3-14,1.8-16,0
	c-1.6-1.5-3.2-4.8-2.5-6.7c0.4-1-0.4-2.1-1.3-2.9c-1.1-1-0.7-2.5,0.9-3.2c3.8-1.7,10.4-1.7,10.4-1.7c5.7-0.3,9.3,0.5,11.5,1.3
	l0.3,0.1c0.6,0.2,1,0.7,1.3,1.3C465,434.5,464.8,435.2,464.3,435.7z"/>
<ellipse class="st5" cx="452" cy="435.2" rx="10" ry="1.6"/>
<ellipse class="st37" cx="452" cy="435.4" rx="10" ry="1.6"/>
<path class="st38" d="M454.1,434.4c0,0-7.2,0.2-7,1.9C449.3,435.3,451.7,434.7,454.1,434.4z"/>
<path class="st38" d="M456.1,434.9c0,0-4.3,0-3.6,1.5c0,0,1-0.1,0.9-0.5s2.8-0.8,2.8-0.8V434.9z"/>
<path class="st27" d="M440.8,434.4c0,0-0.3,3,11,2.9s11.2-2.2,11.3-2.9h-0.6c0,0-0.1,2.5-10.5,2.4s-10.7-2.4-10.7-2.4H440.8z"/>
<path class="st5" d="M464.8,433.9l-6.8,2.5c-0.3,0.1-0.6,0.1-0.8-0.1l-0.1-0.1c-0.3-0.3-0.2-0.7,0.2-0.8l6.2-2.7
	C464.1,432.9,464.5,433.3,464.8,433.9z"/>
<path class="st24" d="M457.3,435.2l17.6-7.7c0.4-0.2,0.9-0.3,1.3-0.3c0.9,0,2.2,0.1,1.7,1.1c-0.3,0.5-0.7,0.9-1.3,1.1l-18.7,6.8
	c-0.3,0.1-0.6,0.1-0.8-0.1l-0.1-0.1C456.7,435.8,456.8,435.4,457.3,435.2z"/>
<path class="st5" d="M457.3,435.2l17.6-7.7c0.4-0.2,0.9-0.3,1.3-0.3c0.9,0,2.2,0.1,1.7,1.1c-0.3,0.5-0.7,0.9-1.3,1.1l-18.7,6.8
	c-0.3,0.1-0.6,0.1-0.8-0.1l-0.1-0.1C456.7,435.8,456.8,435.4,457.3,435.2z"/>
<path class="st24" d="M457.3,435.1l17.6-7.7c0.4-0.2,0.9-0.3,1.3-0.3c0.9,0,2.2,0.1,1.7,1.1c-0.3,0.5-0.7,0.9-1.3,1.1l-18.7,6.8
	c-0.3,0.1-0.6,0.1-0.8-0.1l-0.1-0.1C456.7,435.7,456.8,435.3,457.3,435.1z"/>
<path class="st5" d="M456.3,435.3c0,0,1.9-0.3,1.6,0.1s0.8,0.8,0.8,0.8c-0.7,0.1-1.5,0.2-2.2,0.1
	C456.2,436.1,456.3,435.3,456.3,435.3z"/>
<path class="st37" d="M456.1,435.4c0,0,1.9-0.3,1.6,0.1s0.8,0.8,0.8,0.8c-0.7,0.1-1.5,0.2-2.2,0.1
	C456.1,436.1,456.1,435.4,456.1,435.4z"/>
<path class="st39" d="M453.2,421.9c-0.8,0.5-1.4,1.3-1.7,2.2c-0.1,0.7-0.1,1.5,0.1,2.2c0.1,0.5,0.2,1,0.4,1.5
	c0.1,0.3,0.4,0.6,0.6,0.4c0-0.7-0.2-1.4-0.2-2.1c0.1-0.8,0.4-1.5,0.9-2.1c0.5-0.6,0.9-1.2,1.3-1.8c0.1-0.3,0.7-3-0.1-2.6
	c-0.2,0.1-0.3,1-0.5,1.2C453.8,421.3,453.5,421.7,453.2,421.9z"/>
<path class="st39" d="M453.5,426.5c0.1,0.3,0.4,0.5,0.5,0.7c0.1,0.1,0.1,0.3,0.1,0.5c0.2,0.8,0,1.6-0.5,2.3c0.6-0.2,1.1-0.6,1.3-1.2
	c0.1-0.3,0.1-0.5,0.2-0.8c0-0.3,0-0.5,0-0.8c0-0.4,0.2-1.4-0.5-1.6c-0.5-0.1-0.9,0.1-1,0.6C453.5,426.3,453.5,426.4,453.5,426.5z"/>
<path class="st5" d="M441.8,438.5c0,0,0.8,0.9,3.2,1c-1.1,0.1-2.3,0-3.4-0.3L441.8,438.5z"/>
<polygon class="st17" points="212.4,584.3 249.4,584.2 237.3,603.5 213.4,615.6 "/>
</svg>