<?xml version="1.0" encoding="utf-8"?>
<!-- Generator: Adobe Illustrator 22.0.1, SVG Export Plug-In . SVG Version: 6.00 Build 0)  -->
<svg version="1.1" id="Layer_1" xmlns="http://www.w3.org/2000/svg" xmlns:xlink="http://www.w3.org/1999/xlink" x="0px" y="0px"
	 viewBox="0 0 500 320" style="enable-background:new 0 0 500 320;" xml:space="preserve">
<style type="text/css">
	.st0{opacity:0.1;}
	.st1{fill:#101010;}
</style>
<g class="st0">
	<path class="st1" d="M96.5,257.3c0-1.7-1.6-3.2-3.3-3.2H17.7c-1.7,0-3.4,1.4-3.4,3.2v49.3H5l0.7,2.1c0.1,0.2,2,5.7,9.2,5.7h80.9
		c7,0,9-5.1,9.2-5.7l0.7-2.1h-9.2V257.3z M16.9,257.4c0-0.4,0.4-0.6,0.8-0.6h75.4c0.4,0,0.8,0.2,0.8,0.6v50.1h-77
		C16.9,307.5,16.9,257.4,16.9,257.4z M102.4,308.8c-0.9,1.3-2.8,3-6.5,3H15c-3.8,0-5.6-1.7-6.4-3H102.4z"/>
	<g id="Layer_x0020_1">
		<g id="_2401625846896">
			<path class="st1" d="M211.3,258.9c0,2.5,1.5,4.8,4,4.8c4.8,0,7.9-1.4,11.9-3.3c4.4-2.1,8.1-4.2,12.3-6.7c1-0.6,2.4-1.3,2.7-2.1
				c-1.9,0.2-11.4,4.5-15.9,2.4c-5.1-2.5,4.8-14.8,6.3-16.8l3.5-4.2c0.5-0.5,0.9-0.7,1.5-1.2c6.8-6.7,27.8-23.6,37.2-18.6
				c0.6,0.3,1,0.6,1.5,1c0.6,0.5,0.8,0.9,1.6,1.1c1.4-2.7,2.3-9-3.3-9c-7,0-15.5,5-21.5,8.1c-2.5,1.3-6.6,3.8-9,5.4
				c-3.6,2.4-11,8-14,11c-0.6,0.6-1.1,1.2-1.8,1.7c-0.7,0.5-1.2,1.1-1.8,1.7c-0.7,0.7-1,1.2-1.7,1.9
				C220.5,240.4,211.3,252.5,211.3,258.9L211.3,258.9z"/>
			<path class="st1" d="M249.7,247.2c0.6,0.3,0.8,0,1.4-0.2l4.7-1.9c1.9-0.7,9.5-3,11.6-0.6c2.7,3-0.6,9.3-2.1,11.5l-3.7,4.4
				c-0.9,0.9-1.1,1.5-2.6,2.8l-5.7,5.1c-0.5,0.4-1,0.8-1.5,1.2c-5.3,4.3-16.1,12-22.2,15.7c-1,0.6-6.1,3.7-6.6,4.3
				c2.1,0,7.6-3.2,9.4-4.1c4.9-2.4,13.2-6.9,17.7-9.8c1.5-0.9,2.7-1.7,4.2-2.7c1.4-1,2.7-1.8,4.1-2.8c2.7-1.9,5.2-4,7.7-6
				c0.4-0.3,0.5-0.5,0.9-0.8c4.7-4,8.9-8.3,12.1-13.7c1.7-2.8,6.6-13.2,0.5-15.3c-4.9-1.7-13.9,3-17.3,5l-6.5,3.7
				C254.8,243.7,250.1,246.6,249.7,247.2L249.7,247.2z"/>
			<path class="st1" d="M272.8,224.9c0,2.5,2.6,4.5,4.9,5.1c8.2,2.4,15.7-4.7,9.1-9.1C281.7,217.8,272.8,220.1,272.8,224.9
				L272.8,224.9z"/>
		</g>
	</g>
	<rect x="19.1" y="258.9" class="st1" width="72.6" height="46"/>
	<path class="st1" d="M340.8,174.3H377c0.9,0,3,0.1,3.5-1.8s-1.1-2.7-2.3-3.5c-1-0.6-2.7-1.6-3.3-2.7c-1.2-1.9-1.7-5.8-1.8-9.6h45.7
		c2.3,0,4.3-1.8,4.3-4.2v-83c0-2.3-1.9-4.4-4.2-4.4H298.5c-2.3,0-4.3,2.1-4.3,4.5v82.9c0,2.3,1.9,4.2,4.3,4.2h46.1
		c0,3.4-0.5,7.7-1.7,9.6c-0.7,1.1-2.2,2-3.3,2.7c-1.2,0.8-2.8,1.7-2.3,3.5C337.8,174.4,339.9,174.3,340.8,174.3z M297.6,69.5
		c0-0.5,0.3-1,0.8-1h120.4c0.5,0,0.8,0.5,0.8,1v72.1h-122L297.6,69.5L297.6,69.5z M298.5,153.6c-0.5,0-0.8-0.6-0.8-1.2v-9.1h122.1
		v9.1h-0.1c0,0.5-0.3,1.2-0.8,1.2H298.5z M345.6,168c2.1-3.5,2.2-10.5,2.1-12.7h22c0,2.1,0.2,9.2,2.3,12.7c1,1.4,2.4,2.4,3.6,3.2
		h-33.4C343.4,170.3,344.8,169.3,345.6,168z"/>
	<rect x="300.6" y="71.5" class="st1" width="116.1" height="67.1"/>
	<path class="st1" d="M412.7,184.4l1.2-6h1.9c0.4,0,0.6,0.1,0.7,0.2c0.1,0.1,0.1,0.4,0,0.8l-1,5v0.1h0.1h2.7c0.3,0.1,0.3,0.1,0.3,0
		l1-5.6c0.1-0.7,0-1.3-0.3-1.7c-0.5-0.6-1.3-1-2.5-1h-2.3l0.5-2.7v-0.1h-0.1h-2.6c-0.1,0-0.1,0-0.1,0.1l-1.1,5.6
		c-0.2-1.7-1.3-2.7-3.4-2.9h-5c-0.1,0-0.1,0-0.1,0.1l-2.2,11v0.1h0.1h2.6c0.1,0,0.1,0,0.1-0.1l0.5-2.7h2.3c0.1,0,0.2,0,0.2,0
		c1.6,0,3.3-0.9,4.2-2.6l-0.5,2.4v0.1h0.1h2.6C412.7,184.5,412.7,184.5,412.7,184.4z M405.7,182.3h-1.5l0.6-3.8h1.7
		c0.4,0,1.5,0.1,1.5,1.1C407.9,181.9,406.8,182.2,405.7,182.3z"/>
	<path class="st1" d="M420.7,176.3l-2.2,11v0.1h0.1h2.6c0.1,0,0.1,0,0.1-0.1l0.5-2.7h2.3c0.1,0,0.2,0,0.2,0c2.4,0,4.8-1.9,4.8-5.2
		c0.1-1.9-1-3.1-3.3-3.2h-5C420.7,176.2,420.7,176.2,420.7,176.3z M423,178.5h1.7c0.4,0,1.5,0.1,1.5,1.1c-0.1,2.3-1.2,2.6-2.3,2.7
		h-1.5L423,178.5z"/>
	<path class="st1" d="M473,243v-39.1c0.1-1.9-1.5-3.4-3.4-3.4h-55.4c-1.9,0-3.4,1.5-3.4,3.4V243c0,1.9,1.5,3.4,3.4,3.4h55.4
		C471.5,246.4,473,244.9,473,243z M414.1,244.3c-0.7,0-1.2-0.5-1.2-1.2v-38.8c0-0.7,0.5-1.2,1.2-1.2h55.6c0.7,0,1.2,0.5,1.2,1.2
		v38.8c0,0.7-0.5,1.2-1.2,1.2H414.1z"/>
	<rect x="416.3" y="204.8" class="st1" width="48.1" height="37.4"/>
	<path class="st1" d="M467.7,221.5c-1.1,0-2.1,0.9-2.1,2.1c0,1.2,0.9,2.1,2.1,2.1c1.1,0,2.1-0.9,2.1-2.1
		C469.8,222.4,468.9,221.5,467.7,221.5z"/>
	<path class="st1" d="M68.5,67.1h39.1c1.9,0,3.4-1.5,3.4-3.4V8.3c0.1-1.9-1.5-3.4-3.4-3.4H68.5c-1.9,0-3.4,1.5-3.4,3.4v55.4
		C65.1,65.6,66.6,67.1,68.5,67.1z M67.2,8.3c0-0.7,0.5-1.2,1.2-1.2h38.8c0.7,0,1.2,0.5,1.2,1.2v55.6h0.1c0,0.7-0.5,1.2-1.2,1.2H68.4
		c-0.7,0-1.2-0.5-1.2-1.2L67.2,8.3L67.2,8.3z"/>
	<rect x="69.4" y="10.5" class="st1" width="37.4" height="48.1"/>
	<path class="st1" d="M88,59.8c-1.1,0-2.1,0.9-2.1,2.1c0,1.1,0.9,2.1,2.1,2.1c1.1,0,2.1-0.9,2.1-2.1C90,60.7,89.1,59.8,88,59.8z"/>
	<path class="st1" d="M429.7,48.2c0.3,1.2,1.5,1.8,2.7,1.5l0.6,2.1c0.3,1.1,1.5,1.8,2.7,1.5l0.6,2.1c0.3,1.1,1.5,1.8,2.7,1.5
		l4.2-1.2c1.1-0.3,1.8-1.5,1.5-2.7L440,36.3c-0.3-1.1-1.5-1.8-2.7-1.5l-4.2,1.2c-1.1,0.3-1.8,1.5-1.5,2.7l-0.6-2.1
		C427.8,25,434.5,13,446.1,9.8c11.5-3.2,23.5,3.6,26.7,15.1l0.6,2.1c-0.3-1.1-1.5-1.8-2.7-1.5l-4.2,1.2c-1.1,0.3-1.8,1.5-1.5,2.7
		l4.7,16.7c0.3,1.1,1.5,1.8,2.7,1.5l2.2-0.6c2.5,1.1,7.7,2.6,15.1,0.8c1.7-0.4,3-0.2,3.6,0.7c0.7,1,0.3,2.8-0.8,4.4
		c-2.6,3.5-8.8,6.3-18.6,4c0.1-0.4-0.2-0.8-0.5-0.8l-7-1.6c-0.1,0-0.1,0-0.2,0c-0.3,0-0.6,0.2-0.7,0.6v0.1l-0.9-0.2
		c-0.4-0.1-0.9-0.1-1.2,0c-0.3,0.1-0.4,0.3-0.2,0.5s0.7,0.5,1.1,0.6l0.9,0.2l-0.1,0.3c-0.1,0.4,0.2,0.8,0.5,0.9l7,1.6
		c0.1,0,0.1,0,0.2,0c0.3,0,0.6-0.2,0.7-0.6c2.6,0.6,5,0.9,7.1,0.9c6.4,0,10.7-2.5,12.9-5.4c1.6-2.5,1.9-4.9,0.9-6.4
		c-0.9-1.4-2.8-1.8-5.1-1.3c-5.5,1.4-9.7,0.7-12.4-0.1c0.9-0.5,1.4-1.5,1.1-2.5l-0.6-2.1c1.1-0.3,1.8-1.5,1.5-2.7l-0.6-2.1
		c1.2-0.3,1.8-1.5,1.5-2.7L477,23.7c-3.9-13.8-18.2-21.9-32.1-18.1c-13.8,3.9-21.9,18.2-18.1,32.1L429.7,48.2z"/>
	<path class="st1" d="M332.3,53.1H349c2,0,3.7-1.7,3.7-3.7V8.6c-0.1-2.1-1.7-3.7-3.7-3.7h-16.7c-2,0-3.7,1.7-3.7,3.7v40.8
		C328.6,51.4,330.3,53.1,332.3,53.1z M330.4,8.6c0-1.3,1.1-2.4,2.4-2.4H349c1.3,0,2.4,1.1,2.4,2.4v40.3c0,1.3-1.1,2.4-2.4,2.4h-16.2
		c-1.3,0-2.4-1.1-2.4-2.4L330.4,8.6L330.4,8.6z"/>
	<rect x="331.6" y="13.1" class="st1" width="18.1" height="31.8"/>
	<path class="st1" d="M338.5,10.9h4.5c0.2,0,0.4-0.2,0.4-0.4s-0.2-0.4-0.4-0.4h-4.5c-0.2,0-0.4,0.2-0.4,0.4S338.3,10.9,338.5,10.9z"
		/>
	<path class="st1" d="M340.8,45.9c-1.2,0-2.3,1-2.3,2.3s1,2.3,2.3,2.3s2.3-1,2.3-2.3C343,46.9,342,45.9,340.8,45.9z"/>
	<path class="st1" d="M382.1,276.6c2,0,3.7-1.7,3.7-3.7v-16.7c-0.1-2.1-1.7-3.7-3.7-3.7h-40.8c-2,0-3.7,1.7-3.7,3.7v16.7
		c0,2,1.7,3.7,3.7,3.7L382.1,276.6L382.1,276.6z M339.4,272.4v-16.2c0-1.3,1.1-2.4,2.4-2.4H382c1.3,0,2.4,1.1,2.4,2.4v16.2h0.1
		c0,1.3-1.1,2.4-2.4,2.4h-40.3C340.5,274.8,339.4,273.7,339.4,272.4z"/>
	<rect x="346.2" y="255.5" class="st1" width="31.8" height="18.1"/>
	<path class="st1" d="M380.6,267.1c0.2,0,0.4-0.2,0.4-0.4v-4.5c0-0.2-0.2-0.4-0.4-0.4c-0.2,0-0.4,0.2-0.4,0.4v4.5
		C380.2,266.9,380.4,267.1,380.6,267.1z"/>
	<path class="st1" d="M345,264.5c-0.1-1.3-1.1-2.3-2.3-2.3c-1.3,0-2.3,1-2.3,2.3c0,1.2,1,2.3,2.3,2.3
		C343.9,266.8,345,265.8,345,264.5z"/>
	<path class="st1" d="M97.9,93.4V94c0,0.9-0.5,1.4-1.4,1.4h-0.7c-0.1-0.6-0.7-0.9-1.6-0.9h-5.4c-0.8,0-1.5,0.3-1.6,0.9h-1.8
		c-0.9,0-1.7,0.9-1.7,1.8v0.4v0.6v21.2c0,0.9,0.8,1.4,1.7,1.4H128c0.9,0,1.7-0.6,1.7-1.4V98.1v-0.6v-0.4c0.1-0.8-0.8-1.7-1.7-1.7
		h-11.1c-0.9,0-1.8-0.5-1.8-1.4v-0.6c0-0.9-0.5-1.4-1.4-1.4h-14C98.8,92,97.9,92.5,97.9,93.4z M106.8,115.7c-4,0-7.2-3.2-7.2-7.2
		s3.2-7.2,7.2-7.2s7.2,3.2,7.2,7.2S110.7,115.7,106.8,115.7z M101.5,95.4H112c0.5,2.1,2.5,3.4,4.9,3.4h9.4v18.5h-14.1
		c3-1.7,5-5.1,5.1-8.9c0-5.8-4.7-10.5-10.5-10.5s-10.5,4.7-10.5,10.5c0,3.8,2,7.2,5.1,8.9H87.2V98.8h9.4
		C99,98.8,100.9,97.5,101.5,95.4z"/>
	<path class="st1" d="M106.8,103.4c-0.6,0-1.2,0.1-1.8,0.3c0.5,0.2,0.9,0.7,0.9,1.3c0,0.8-0.7,1.5-1.5,1.5s-1.4-0.6-1.5-1.4
		c-0.8,0.9-1.2,2-1.2,3.3c0,2.8,2.3,5.1,5.1,5.1c2.8,0,5.1-2.3,5.1-5.1C111.8,105.7,109.5,103.4,106.8,103.4z"/>
	<path class="st1" d="M451.8,179.1c2.6,0,4.7-2.1,4.7-4.7v-37.6c1.7-0.8,3.1-1.9,4-3.4c0.8-1.2,1.2-2.7,1.2-4.5c0.1-3.7-2-7-5.2-8.7
		v7.6l-4.7,2.7l-4.7-2.7v-7.6c-3,1.7-5.3,5-5.3,8.8c0,1.7,0.4,3.2,1.2,4.4c0.8,1.4,2.4,2.6,4.1,3.4v37.6
		C447.1,177,449.2,179.1,451.8,179.1z M451.7,175.6c-0.4-0.2-0.6-0.7-0.4-1.1s0.7-0.6,1.1-0.4c0.4,0.2,0.6,0.7,0.4,1.1
		C452.5,175.6,452.1,175.8,451.7,175.6z M452.2,172.8c0.2-0.1,0.4-0.1,0.5,0.1c0.1,0.2,0,0.4-0.1,0.5c-0.2,0.1-0.4,0-0.5-0.1
		C452,173.1,452,172.9,452.2,172.8z M454.1,175.2c-0.1,0.7-0.5,1.4-1.2,1.7c-0.2,0.1-0.4,0-0.5-0.1c-0.1-0.2,0-0.4,0.1-0.5
		c0.4-0.2,0.8-0.7,0.8-1.2c0-0.4-0.1-0.7-0.3-1.1v0.1c-0.1-0.2,0-0.4,0.1-0.5c0.2-0.1,0.4,0,0.5,0.2
		C454,174,454.2,174.6,454.1,175.2z M443.7,131.2c1.7,2.7,5.3,4.1,9.5,4.1c1.6,0,3.1-0.3,4.4-0.7c-0.6,0.3-1.3,1-2.2,1l-0.1,0.1
		c-0.8,0.3-1.6,0.5-2.5,0.6c-0.2,0-0.4,0-0.4,0.1v36c0,0-0.2,0-0.3,0c-0.2,0-0.5,0-0.5,0.1v-36c-0.4,0-0.4,0-0.9,0v36.3
		c-0.4,0.3-1,0.8-1.3,1.5c-0.1,0.2-0.1,0.5-0.1,0.8c0,0,0,0,0,0.1c0,0,0,0,0,0.1c0,1.1,0.6,2,1.6,2.4h-0.1c-1.3-0.4-2.3-1.5-2.3-2.9
		v-38.7C446.4,135.3,444.3,133.7,443.7,131.2z"/>
	<path class="st1" d="M371.9,217.1c0-2.6-0.7-5.1-1.9-7.4c0.1,0.5,0.1,1,0.1,1.6c0,1.6-0.3,3.3-1.2,5.5l-4.7,13.7
		C368.8,227.8,371.9,222.8,371.9,217.1z"/>
	<path class="st1" d="M356.4,236c10.4,0,18.9-8.5,18.9-18.9c0.1-10.4-8.4-18.9-18.9-18.9c-10.4,0-18.9,8.5-18.9,18.9
		C337.5,227.5,346,236,356.4,236z M356.4,200.1c9.4,0,17.1,7.7,17.1,17.1c0,9.4-7.6,17.1-17.1,17.1c-9.4,0-17.1-7.7-17.1-17.1
		C339.3,207.8,347,200.1,356.4,200.1z"/>
	<path class="st1" d="M348.7,208.5c0.8,0,0.9,1.2,0.1,1.3c0,0-0.8,0.1-1.8,0.1l5.6,16.7l3.4-10.1l-2.4-6.6c-0.8-0.1-1.6-0.1-1.6-0.1
		c-0.8-0.1-0.7-1.3,0.1-1.3c0,0,2.5,0.2,4.1,0.2c1.6,0,4.1-0.2,4.1-0.2c0.8,0,0.9,1.2,0.1,1.3c0,0-0.8,0.1-1.8,0.1l5.6,16.6l1.5-5.2
		c0.7-2.1,1.2-3.6,1.2-4.9c0-1.9-0.7-3.2-1.3-4.3c-0.8-1.3-1.5-2.4-1.5-3.6c0-1.4,1.1-2.7,2.6-2.7c0.1,0,0.1,0,0.2,0
		c-2.8-2.5-6.4-4.1-10.4-4.1c-5.4,0-10.2,2.8-12.9,7c0.4,0,0.7,0,1,0C346.2,208.7,348.7,208.5,348.7,208.5z"/>
	<path class="st1" d="M356.7,218.5l-4.6,13.5c1.4,0.4,2.8,0.6,4.4,0.6c1.8,0,3.5-0.3,5.1-0.9c0-0.1-0.1-0.1-0.1-0.2L356.7,218.5z"/>
	<path class="st1" d="M349.7,231.1l-7.4-20.2c-0.8,1.9-1.3,4-1.3,6.3C341,223.3,344.6,228.6,349.7,231.1z"/>
	<polygon class="st1" points="158.8,104.2 156.2,104.2 156.2,112.4 158.8,112.4 158.8,109.3 161.4,109.3 161.4,112.4 163.9,112.4 
		163.9,104.2 161.4,104.2 161.4,106.8 158.8,106.8 	"/>
	<polygon class="st1" points="165.2,106.8 167.4,106.8 167.4,112.4 170,112.4 170,106.8 172.5,106.8 172.5,104.2 165.2,104.2 	"/>
	<polygon class="st1" points="176.4,108.2 178.1,111.1 178.2,111.1 179.8,108.2 179.8,112.4 182.9,112.4 182.9,104.2 179.9,104.2 
		178.2,107 176.5,104.2 173.8,104.2 173.8,112.4 176.4,112.4 	"/>
	<polygon class="st1" points="190.6,109.3 186.7,109.3 186.7,104.2 184.1,104.2 184.1,112.4 190.6,112.4 	"/>
	<path class="st1" d="M194.3,115.8h-42.1l3.8,43l17.2,4.8l17.3-4.8L194.3,115.8z M186.3,126.2l-0.2,2.6L186,130h-12.7h-7.4l0.5,5.2
		h7h10.8h1.4l-0.1,1.5l-1.2,14v0.9l-10.7,3h-0.1l-10.9-3l-0.7-8.2h2.4h2.9l0.4,4.2l5.9,1.5h0.1l5.8-1.5l0.5-6.8h-6.5h-11.8
		l-1.3-14.5l-0.1-1.4h13.2h13.2L186.3,126.2z"/>
	<path class="st1" d="M476.7,266.4l-0.8-0.7l-1-0.3l-9.8-2.7l-2.3-0.6l-1.7,1.6c-1.2,1.1-2.4,1.6-3.5,1.6c-1.6,0-3-1.2-3.2-1.3
		l-1.7-1.9l-2.4,0.8l-8.1,2.2l-1,0.3l-0.8,0.7l-15.9,14.2l-2.9,2.6l2.2,3.1l5.9,8.4l2.3,3.3l3.5-2.1l3-1.8v18.4v4.3h4.3l30-0.1h4.3
		v-4.3v-18.4l3.4,1.9l3.4,1.9l2.2-3.2l5.8-8.4l2.1-3.1l-2.5-2.6L476.7,266.4z M482.8,291.8l-9.8-5.6l-0.1,25.8l-30,0.1V286l-9.5,5.8
		l-5.9-8.4l15.9-14.2l8.1-2.2c0,0,2.5,2.6,6.2,2.6c1.9,0,4.1-0.7,6.3-2.7l9.8,2.7l14.8,13.8L482.8,291.8z"/>
	<path class="st1" d="M147.5,211.6h27.2c0.7,0,1.2-0.6,1.2-1.2v-19.9c0.1-0.7-0.5-1.2-1.2-1.2h-27.2c-0.7,0-1.2,0.6-1.2,1.2v19.9
		C146.3,211.1,146.9,211.6,147.5,211.6z M150.1,210.1v-0.2l7.5-7.7l1.7,1.6c0.3,0.3,0.6,0.5,1,0.6c0.4,0.1,0.8,0.2,1.1,0.2
		c0.4,0,0.7,0,1.1-0.1c0.3-0.1,0.6-0.2,0.8-0.3c0.1,0,0.1-0.1,0.2-0.1l1.7-1.7l7.5,7.7L150.1,210.1L150.1,210.1z M174.3,208.2
		l-7.4-7.5l7.4-7.4V208.2z M172.8,191.5l-10.5,10.6c-0.1,0.1-0.2,0.2-0.4,0.3c-0.2,0-0.3,0.1-0.5,0.1c-0.1,0-0.2,0-0.4,0
		c-0.1,0-0.2-0.1-0.3-0.2l-10.6-10.8L172.8,191.5L172.8,191.5z M148.5,193.2h0.1l7.5,7.4l-7.5,7.6h-0.1V193.2z"/>
	<path class="st1" d="M41.8,87.7v8.4c0,1.1,0.8,2,2,2h16.9c1.1,0,2.2-0.9,2.2-2v-1h1.3c0.6,0,0.9-0.3,0.9-0.9v-4.7
		c-0.1-0.5-0.4-0.8-0.9-0.8h-1.3v-1c0-1.1-1.1-2-2.2-2H43.8C42.7,85.7,41.8,86.6,41.8,87.7z M44,87.8h16.8V96h-0.1H44V87.8z"/>
	<rect x="45.3" y="89.2" class="st1" width="2.1" height="5.6"/>
	<rect x="49.1" y="89.2" class="st1" width="2.1" height="5.6"/>
	<path class="st1" d="M262.6,23.9h2.5V29c0,0.6,0.6,1.2,1.2,1.2c0.3,0,0.7-0.3,0.9-0.3l6-6h2.3c0,0.7,0.2,1.3,0.6,1.8
		c0.4,0.4,0.9,0.8,1.6,0.8h7.7l4.7,4.7c0.2,0,0.5,0.2,0.7,0.2c0.5,0,1-0.5,1-1v-3.9h1.9c1.3,0,2.4-1.2,2.4-2.6V11.3
		c-0.1-1.3-1.1-2.4-2.5-2.4h-7.9v-4c0-1.7-1.2-2.9-2.9-2.9h-20.2c-1.7,0-3.1,1.2-3.1,2.9v15.9c0,0.8,0.3,1.7,0.9,2.2
		C261,23.6,261.7,23.9,262.6,23.9z M285.7,11.5h6.2c0.6,0,1.1,0.5,1.1,1.1c0,0.5-0.5,1-1.1,1h-6.2V11.5z M285.7,16.2h6.2
		c0.6,0,1.1,0.5,1.1,1.1c0,0.5-0.5,1-1.1,1h-6.2V16.2z M285.7,20.7v0.1h6.2c0.6,0,1.1,0.5,1.1,1.1c0,0.7-0.5,1.1-1.1,1.1H285
		C285.5,22.1,285.7,21.5,285.7,20.7z M261.7,5c0-0.5,0.5-0.9,1-0.9h20c0.5,0,0.9,0.3,0.9,0.9v15.6c0,0.6-0.3,1.1-0.9,1.1h-10
		c-0.3,0-0.6,0.1-0.8,0.3l-4.6,4.5v-3.9c0-0.6-0.4-0.9-1-0.9h-3.6c-0.6,0-1-0.6-1-1.1L261.7,5L261.7,5z"/>
	<path class="st1" d="M264.6,8.9h15.7c0.6,0,1.1-0.5,1.1-1.1s-0.5-1.1-1.1-1.1h-15.7c-0.6,0-1.1,0.5-1.1,1.1S264,8.9,264.6,8.9z"/>
	<path class="st1" d="M264.6,13.6h15.7c0.6,0,1.1-0.5,1.1-1.1s-0.5-1.1-1.1-1.1h-15.7c-0.6,0-1.1,0.5-1.1,1.1S264,13.6,264.6,13.6z"
		/>
	<path class="st1" d="M264.6,18.4h15.7c0.6,0,1.1-0.5,1.1-1.1c0-0.7-0.5-1.1-1.1-1.1h-15.7c-0.6,0-1.1,0.5-1.1,1.1
		S264,18.4,264.6,18.4z"/>
	<path class="st1" d="M379.8,37.3c2.4,1.6,5.4,2.5,8.5,2.5c10.2,0,15.7-8.4,15.7-15.7c0-0.2,0-0.5,0-0.7c1.1-0.8,1.9-1.8,2.8-2.9
		c-0.9,0.5-2.1,0.7-3.2,0.9c1.1-0.7,2-1.8,2.4-3.1c-1.1,0.6-2.3,1.1-3.5,1.3c-1-1.1-2.4-1.7-4-1.7c-3.1,0-5.5,2.5-5.5,5.5
		c0,0.4,0,0.9,0.1,1.3c-4.6-0.2-8.7-2.4-11.4-5.8c-0.5,0.8-0.7,1.8-0.7,2.8c0,1.9,1,3.6,2.5,4.6c-0.9,0-1.6-0.3-2.5-0.7
		c0,0,0,0,0,0.1c0,2.7,1.9,4.9,4.4,5.4c-0.5,0.1-1,0.2-1.5,0.2c-0.4,0-0.7,0-1.1-0.1c0.7,2.2,2.7,3.8,5.2,3.8
		c-1.9,1.5-4.3,2.4-6.9,2.4C380.7,37.4,380.2,37.4,379.8,37.3z"/>
	<path class="st1" d="M306.9,299.4H302l-4.9,6.4c0,0,5.1-1.5,8.1-0.8l-8.1,10.5l10.7-8.3c1.5,3.4-0.9,8.3-0.9,8.3l6.5-4.9v-4.9
		l8-8.1l1.6-8.1l-8,1.7L306.9,299.4z"/>
	<path class="st1" d="M46.4,213.3c-4.4,0-8.4,2-10.9,5.2l4,6.9c0.7-2.9,3.5-5.2,6.9-5.2c0.2,0,0.4,0,0.6,0h11.4
		C56,215.9,51.5,213.3,46.4,213.3z"/>
	<path class="st1" d="M60.3,227.4c0-1.8-0.3-3.7-0.9-5h-8c1.3,1.3,2.1,3,2.1,5c0,1.5-0.5,2.8-1.3,4l-5.7,9.9
		C54.1,241.2,60.3,235,60.3,227.4z"/>
	<path class="st1" d="M46.4,222.2c-2.8,0-5.1,2.3-5.1,5.1s2.3,5.1,5.1,5.1s5.1-2.3,5.1-5.1S49.2,222.2,46.4,222.2z"/>
	<path class="st1" d="M32.4,227.3c0,7,5.2,12.8,11.9,13.8l4-7.1c-0.6,0.4-1.3,0.4-1.9,0.4c-2.9,0-5.3-1.6-6.5-4l-5.7-9.9
		C33.1,222.5,32.4,224.8,32.4,227.3z"/>
	<path class="st1" d="M480.2,184.4c0.4,0,0.9-0.1,1.5-0.4c0.6-0.3,1.2-0.4,1.6-0.4c0.5,0,1.1,0.1,1.7,0.4c0.7,0.2,1.2,0.4,1.6,0.4
		c1,0,2-0.8,3-2.3c0.6-1.2,1.1-2.3,1.4-3.1c-0.7,0-1.3-0.7-1.8-1.4c-0.5-0.8-0.8-1.6-0.8-2.5c0-0.9,0.2-1.7,0.8-2.4
		c0.3-0.4,0.7-0.8,1.3-1.4c-0.4-0.5-0.8-0.9-1.2-1.2c-0.7-0.5-1.5-0.7-2.5-0.7c-0.5,0-1.2,0.1-2,0.4c-0.8,0.3-1.3,0.4-1.6,0.4
		s-0.8-0.1-1.6-0.3c-0.8-0.2-1.5-0.3-2-0.3c-1.3,0-2.4,0.6-3.3,1.7c-0.9,1.1-1.3,2.6-1.3,4.3c0,1.9,0.6,3.8,1.7,5.8
		C477.8,183.4,479,184.4,480.2,184.4z"/>
	<path class="st1" d="M483.8,166.7c-0.6,0.8-0.9,1.8-0.9,3c0.5,0,0.9-0.1,1.2-0.2c0.3-0.1,0.7-0.4,1.2-0.8c0.5-0.5,0.8-1,1.1-1.6
		c0.2-0.6,0.3-1.1,0.3-1.5c0,0,0-0.1,0-0.2c0-0.1,0-0.1,0-0.2v-0.1c0-0.1,0-0.1,0-0.1C485.3,165.3,484.4,165.9,483.8,166.7z"/>
	<polygon class="st1" points="39.4,30.9 44.7,4.7 15.1,4.7 13.9,10.5 37.7,10.5 36.9,14.4 13.2,14.4 12,19.9 35.8,19.9 34.4,26.7 
		24.9,29.9 16.6,26.7 17.2,23.8 11.3,23.8 9.9,30.8 23.6,36.1 	"/>
	<path class="st1" d="M162.7,68.3c0.3-0.3,0.3-0.6,0.3-1v-6c0.1-0.4,0-0.7-0.2-1c-0.3-0.3-0.5-0.4-0.9-0.4s-0.7,0.1-1,0.4
		c-0.3,0.3-0.4,0.6-0.4,1v6c0,0.4,0.1,0.7,0.3,1c0.3,0.3,0.5,0.4,0.9,0.4C162.1,68.7,162.4,68.6,162.7,68.3z"/>
	<path class="st1" d="M154.9,75c0.3,0.3,0.6,0.4,1,0.4s0.8-0.1,1.1-0.4s0.5-0.6,0.5-1v-2.9h0.8c0.4,0,0.7-0.2,1-0.5s0.3-0.8,0.3-1.2
		v-9h-12.5v9h0.1c0,0.4,0.1,0.9,0.4,1.2c0.3,0.3,0.6,0.5,1.1,0.5h1v3c0,0.4,0.1,0.6,0.4,0.9c0.3,0.3,0.6,0.4,1,0.4s0.7-0.1,1-0.4
		s0.3-0.6,0.3-1v-2.9h2.1V74C154.5,74.4,154.6,74.7,154.9,75z"/>
	<path class="st1" d="M147.8,56.7c-0.6,0.9-0.9,2-0.9,2.9h12.8c0-0.9-0.3-2-0.9-2.9c-0.4-1-1.2-1.6-2.2-2.1l1-1.8
		c0.1-0.1,0-0.2-0.1-0.3s-0.2,0-0.3,0.1l-1,1.8c-0.9-0.4-1.8-0.6-2.8-0.6s-1.9,0.2-2.8,0.6l-1-1.8c-0.1-0.1-0.2-0.1-0.3-0.1
		c-0.1,0.1-0.1,0.1-0.1,0.3l1,1.8C149.2,55.1,148.4,55.8,147.8,56.7z M156,56.4c0.1-0.1,0.2-0.2,0.4-0.2c0.1,0,0.3,0.1,0.4,0.2
		c0.1,0.1,0.2,0.2,0.2,0.4c-0.1,0.2-0.1,0.3-0.2,0.4c-0.1,0.1-0.2,0.2-0.4,0.2c-0.1,0-0.3-0.1-0.4-0.2c-0.1-0.1-0.2-0.2-0.2-0.4
		C155.8,56.6,155.9,56.5,156,56.4z M150.1,56.4c0.1-0.1,0.2-0.2,0.4-0.2c0.1,0,0.3,0.1,0.4,0.2s0.2,0.2,0.2,0.4s0,0.3-0.2,0.4
		c-0.1,0.1-0.2,0.2-0.4,0.2s-0.3-0.1-0.4-0.2c-0.1-0.1-0.2-0.2-0.2-0.4C149.9,56.7,150,56.5,150.1,56.4z"/>
	<path class="st1" d="M146.7,61.3c0-0.4-0.2-0.7-0.5-1c-0.2-0.3-0.6-0.4-1-0.4s-0.7,0.1-1,0.4c-0.3,0.3-0.4,0.6-0.4,1v6
		c0,0.4,0.2,0.7,0.4,1c0.3,0.3,0.6,0.4,1,0.4s0.8-0.1,1-0.4c0.3-0.3,0.5-0.6,0.5-1V61.3z"/>
	<path class="st1" d="M78.9,169.3h32.7v-27.5H78.9V169.3z M95.2,158.6h8.2v2.6h-8.2V158.6z M84.1,158.6h3v-3h2.6V153h-2.6v-3h-3
		v-2.6h3v2.6h2.6v3h3v2.6h-3v3h-2.6v2.6h-3V158.6z"/>
	<path class="st1" d="M77.7,137c-2.1,0-3.9,1.7-3.9,3.9v29.7c0,2.1,1.7,3.9,3.9,3.9H113c2.1,0,3.9-1.7,3.9-3.9v-29.7
		c-0.1-2.2-1.8-3.9-3.9-3.9H77.7z M114.5,140.9v29.7h0.1c0,0.9-0.8,1.7-1.7,1.7H77.6c-0.9,0-1.7-0.8-1.7-1.7v-29.7
		c0-0.9,0.8-1.7,1.7-1.7h35.2C113.7,139.2,114.5,140,114.5,140.9z"/>
	<path class="st1" d="M228.3,108.2c-0.4-1-1-1.9-1.7-2.6s-1.6-1.3-2.6-1.7s-2.1-0.6-3.1-0.6s-2.1,0.2-3.1,0.6s-1.9,1-2.6,1.7
		c-0.7,0.7-1.3,1.6-1.7,2.6s-0.6,2.1-0.6,3.1s0.2,2.1,0.6,3.1s1,1.9,1.7,2.6s1.6,1.3,2.6,1.7c1,0.4,2.1,0.6,3.1,0.6
		c1.7,0,3.2-0.5,4.6-1.4l3.9,3.9c0.3,0.3,0.6,0.4,1,0.4s0.7-0.1,1-0.4s0.4-0.6,0.4-1s-0.1-0.8-0.4-1l-3.9-3.9c1-1.4,1.4-2.9,1.4-4.6
		C228.9,110.2,228.7,109.2,228.3,108.2z M224.4,114.9c-1,1-2.2,1.5-3.6,1.5c-1.4,0-2.6-0.5-3.6-1.5s-1.5-2.2-1.5-3.6
		s0.5-2.6,1.5-3.6s2.2-1.5,3.6-1.5c1.4,0,2.6,0.5,3.6,1.5s1.5,2.2,1.5,3.6C225.9,112.6,225.4,113.9,224.4,114.9z"/>
	<path class="st1" d="M473,100.4c4.7,0.2,8.4,2.4,10.5,6c3.9-2.7,6.4-7.2,6.4-12.2c-0.1-8.3-6.7-15-14.9-15s-14.9,6.7-14.9,14.9
		c0,3.8,1.4,7.2,3.7,9.8C466.1,101.6,469.3,100.3,473,100.4z M482,99.4c0,0.4-0.7,0.6-1.2,0.3c-3.4-2.1-7.7-2.6-12.8-1.4
		c-0.5,0.1-1-0.2-1.1-0.7c-0.1-0.5,0.2-1,0.7-1.1c5.6-1.3,10.3-0.7,14.2,1.6C482.2,98.4,482.5,99,482,99.4z M484,95.2
		c-0.3,0.5-1,0.7-1.6,0.4c-3.9-2.4-10-3.1-14.6-1.7c-0.6,0.2-1.2-0.2-1.4-0.8c-0.2-0.6,0.2-1.2,0.8-1.4c5.3-1.6,12-0.8,16.5,1.9
		C484.2,94,484.4,94.7,484,95.2z M466.4,86.5c5.2-1.6,13.8-1.3,19.2,2c0.7,0.4,0.9,1.2,0.5,1.9c-0.4,0.7-1.3,0.8-1.9,0.4
		c-4.7-2.8-12.5-3.1-17-1.7c-0.7,0.2-1.5-0.2-1.7-0.9C465.3,87.5,465.7,86.7,466.4,86.5z"/>
	<path class="st1" d="M478.6,108.6c-1.1-2.4-3.1-3.7-5.8-3.7c-2.1-0.1-3.8,0.7-5.1,2.3c2.1,1.2,4.6,1.9,7.2,1.9
		C476.2,109.1,477.4,108.9,478.6,108.6z"/>
	<path class="st1" d="M308.5,174.6h-0.4l-0.1,0.1c-0.1,0.1-0.1,0.1-0.2,0.2c-0.1,0.1-0.2,0.1-0.3,0.1l-0.4,0.1h-3.4l-2.5-0.1h-1.3
		l-0.2,0.1h-1.5c-1.5,0-2.3-0.1-2.4-0.1l-0.6-0.4h-0.9v4.4c0.1,0.1,0.3,0.3,0.6,0.5c0.1,0,0.1-0.1,0.2-0.2c0.1-0.1,0.2-0.2,0.2-0.4
		c0.1-0.3,0.2-0.6,0.3-1c0.1-0.4,0.2-0.7,0.3-0.9c0.1-0.2,0.2-0.3,0.3-0.4c0.1-0.1,0.4-0.2,0.8-0.3c0.4-0.1,0.8-0.2,1.2-0.2
		c0.8,0,1.4,0,1.7,0.1c0.1,0,0.1,0,0.2,0.1c0,0,0.1,0.1,0.1,0.2s0,0.3,0,0.7s0,0.7,0,1.2c0,0.4,0,0.9,0,1.4l0.1,4.9
		c0,1.9,0,3.5-0.1,5c0,0.3-0.1,0.5-0.1,0.6c-0.2,0.1-0.7,0.3-1.8,0.6c-0.4,0.1-0.9,0.3-0.9,0.6v0.1v0.3c0,0,0,0.1,0,0.3
		c0.2,0,0.4,0,0.8,0c1.1-0.1,2-0.2,2.7-0.2c1.3,0,2.2,0,2.7,0.1c0.6,0.1,1.3,0.1,2.2,0.1c0.2,0,0.3,0,0.4,0c0-0.1,0-0.3,0-0.3
		s0-0.2-0.1-0.6c-0.2-0.1-0.3-0.1-0.6-0.2c-0.1,0-0.3-0.1-0.5-0.1c-0.2-0.1-0.4-0.1-0.5-0.1s-0.2-0.1-0.2-0.1
		c-0.3-0.1-0.7-0.2-1-0.4c-0.1-0.3-0.2-0.6-0.1-1v-1.7l-0.1-4.1v-3.8l0.1-1.8c0-0.3,0.1-0.8,0.2-1.6c0.3,0,0.5-0.1,0.8-0.1
		c0.3,0,0.8,0,1.3,0s0.9,0,1.2,0s0.4,0,0.5,0c0.1,0,0.2,0.1,0.3,0.2c0,0,0,0.1,0.1,0.3c0,0.2,0.1,0.5,0.1,0.8c0,0.3,0.1,0.5,0.2,0.7
		c0.2,0.7,0.4,1.1,0.6,1.5c0.2,0,0.5-0.1,0.8-0.2c0-0.1,0-0.3,0-0.6v-0.7l-0.4-1c0-1-0.1-1.5-0.1-1.5v-1.2
		C308.8,174.6,308.6,174.6,308.5,174.6z"/>
	<path class="st1" d="M314.3,177.7c0.3,0,0.4-0.1,0.5-0.3c0.1-0.1,0-0.4-0.1-0.6l-1.5-1.9c-0.2-0.2-0.3-0.3-0.6-0.3
		c-0.3,0-0.4,0.1-0.6,0.3l-1.4,1.9c-0.2,0.2-0.2,0.4-0.1,0.5c0.1,0.1,0.2,0.3,0.5,0.3h0.9v11.6H311c-0.3,0-0.4,0.1-0.5,0.2
		c-0.1,0.1,0,0.3,0.1,0.5l1.4,1.9c0.2,0.2,0.3,0.3,0.6,0.3c0.3,0,0.4-0.1,0.6-0.3l1.5-1.9c0.2-0.2,0.2-0.4,0.1-0.5
		c-0.1,0-0.3-0.1-0.5-0.1h-0.7v-11.6L314.3,177.7L314.3,177.7z"/>
	<path class="st1" d="M139,29.6c0.3,1.2,0.7,2.3,1.2,3.2c0.5,0.9,1.2,1.7,1.9,2.4c0.8,0.7,1.6,1.3,2.5,1.7s2,0.8,3.1,1.1
		c1.2,0.3,2.4,0.5,3.6,0.6c1.2,0.1,2.6,0.2,4,0.2c1.5,0,2.8-0.1,4.1-0.2c1.2-0.1,2.4-0.3,3.6-0.6s2.2-0.6,3.2-1.1
		c0.9-0.4,1.8-1,2.6-1.7s1.4-1.5,2-2.4c0.5-0.9,0.9-2,1.2-3.2s0.4-2.6,0.4-4.2c0-2.9-1-5.3-2.8-7.3c0.1-0.3,0.2-0.6,0.3-0.9
		s0.2-0.8,0.2-1.4c0.1-0.6,0-1.3-0.1-2.2c-0.1-0.8-0.4-1.6-0.7-2.5h-0.2c-0.2,0-0.5,0-0.9,0s-0.9,0.1-1.4,0.3
		c-0.5,0.1-1.2,0.4-2.1,0.9c-0.8,0.4-1.7,1-2.7,1.6c-1.6-0.4-3.8-0.7-6.6-0.7s-5,0.2-6.6,0.7c-0.9-0.6-1.8-1.2-2.7-1.6
		c-0.9-0.4-1.5-0.7-2-0.9c-0.5-0.1-1-0.2-1.4-0.3c-0.4,0-0.7-0.1-0.8,0s-0.2,0-0.3,0.1c-0.3,0.8-0.6,1.7-0.7,2.5
		c-0.1,0.8-0.2,1.5-0.1,2.2c0.1,0.7,0.1,1.1,0.2,1.4c0.1,0.3,0.2,0.7,0.3,1c-1.8,2-2.7,4.2-2.7,7.2C138.6,26.8,138.7,28.3,139,29.6z
		 M145,24.9c0.4-0.4,0.9-0.7,1.5-0.9s1.2-0.3,1.9-0.3s1.4,0,2.1,0s1.5,0.1,2.4,0.2c1,0.1,1.8,0.1,2.5,0.1s1.5,0,2.5-0.1
		s1.8-0.1,2.5-0.2c0.7,0,1.4,0,2.1,0s1.4,0.1,1.9,0.3c0.6,0.2,1.1,0.5,1.5,0.9c1.4,1.3,2.2,2.8,2.2,4.4c-0.1,1-0.2,1.9-0.5,2.6
		c-0.2,0.7-0.5,1.3-0.9,1.8s-0.9,0.9-1.5,1.3c-0.7,0.3-1.3,0.6-1.9,0.8c-0.6,0.2-1.4,0.3-2.4,0.4c-1,0.1-1.8,0.2-2.6,0.2
		s-1.7,0-2.9,0s-2.2,0-2.9,0c-0.8,0-1.6-0.1-2.6-0.2c-1-0.1-1.8-0.3-2.4-0.4c-0.6-0.2-1.3-0.5-1.9-0.8c-0.7-0.3-1.2-0.8-1.5-1.3
		c-0.4-0.5-0.7-1.2-0.9-1.9c-0.2-0.7-0.4-1.3-0.4-2.6C142.8,27.9,143.5,26.2,145,24.9z"/>
	<ellipse class="st1" cx="149.1" cy="29" rx="2.1" ry="3.2"/>
	<ellipse class="st1" cx="161.8" cy="29" rx="2.1" ry="3.2"/>
	<path class="st1" d="M277.8,112.9c0.4-0.4,0.6-1,0.7-1.7c0.2-0.6,0.1-1.4-0.2-2.2s-0.7-1.5-1.2-2.1l-1.7-1.7
		c-0.6-0.6-1.2-1-2.1-1.2c-0.8-0.3-1.6-0.4-2.3-0.3c-0.7,0.1-1.3,0.3-1.7,0.7l-15.5,15.5l-2.6,11.1l11.1-2.6L277.8,112.9z
		 M273.3,115.4l-9.1,9.1c-0.3-0.4-0.6-0.9-0.8-1.5c-0.2-0.6-0.3-1.2-0.3-1.7s0-1,0.1-1.4l8.9-8.9l0.2,0.2c0.5,0.5,0.9,1.2,1,2
		C273.6,114.1,273.5,114.8,273.3,115.4z M270,105.9c0.4-0.5,1.1-0.6,2.1-0.5s1.8,0.5,2.4,1.1l1.3,1.3c0.6,0.6,1,1.4,1.1,2.4
		c0.1,1,0,1.7-0.5,2.2l-1.2,1.3c-0.2-1.3-0.7-2.4-1.5-3.3l-1.7-1.7c-0.8-0.8-1.9-1.3-3.3-1.5L270,105.9z M266.5,109.3
		c0.4-0.4,1.1-0.6,2.1-0.5s1.8,0.5,2.4,1.1l0.2,0.2l-8.9,8.9c-0.4,0.1-0.8,0.1-1.4,0.1c-0.5,0-1.1-0.1-1.7-0.3
		c-0.6-0.2-1.1-0.5-1.5-0.8L266.5,109.3z M257.6,127.8c-0.3-0.8-0.7-1.5-1.2-2s-1.1-0.9-2-1.2l0.8-4.1l1.5-1.5
		c0.6,0.5,1.4,0.9,2.3,1.2c0.9,0.3,1.7,0.5,2.4,0.5c0,0.7,0.2,1.6,0.5,2.5c0.3,0.9,0.7,1.7,1.2,2.3l-1.4,1.5L257.6,127.8z"/>
	<path class="st1" d="M217.7,37.9c6.2,0,11-2.1,11-4.6v-2.7h1.9c3,0,5.5-2.5,5.5-5.6s-2.4-5.6-5.5-5.6h-1.9v-2.7
		c0-2.6-4.8-4.6-11-4.6s-11,2.1-11,4.6v16.6C206.7,35.9,211.5,37.9,217.7,37.9z M228.7,22.8h2.4c0.8,0,1.4,0.3,1.6,0.6
		c0.3,0.3,0.7,0.7,0.7,1.5c0,0.9-0.4,1.3-0.7,1.6c-0.3,0.3-0.8,0.6-1.6,0.6h-2.4V22.8z M211.7,15.6c1.7-0.6,3.8-0.9,6-0.9
		s4.3,0.3,6,0.9c1.1,0.4,1.7,0.7,2.1,1c-0.4,0.3-1,0.7-2.1,1c-1.7,0.6-3.8,0.9-6,0.9s-4.3-0.3-6-0.9c-1.1-0.4-1.7-0.7-2.1-1
		C209.9,16.3,210.6,16,211.7,15.6z"/>
	<path class="st1" d="M228.2,168.7c2.6,2.4,6.1,3.8,9.6,3.8c4.1,0,8-1.8,10.7-4.8c5.4-5.9,4.9-15-1-20.4c-2.6-2.4-6.1-3.7-9.6-3.7
		c-4.1,0-8,1.7-10.7,4.7c-2.6,2.9-3.9,6.6-3.7,10.4C223.7,162.5,225.4,166.1,228.2,168.7z M246.6,165.9c-2,2.2-4.6,3.5-7.4,3.8
		c0-0.3,0.1-0.7,0.1-1l0.4,0.1c0.4,0.1,0.7-0.2,0.8-0.5v-0.1c0.1-0.3,0-0.5-0.2-0.7c-0.1-0.1-0.2-0.1-0.3-0.2l-0.4-0.1
		c0.2-0.6,0.4-1.2,0.7-1.7l0.3,0.2c0.3,0.2,0.7,0,0.9-0.3v-0.1c0.1-0.3,0.1-0.6-0.1-0.8l-0.1-0.1l-0.3-0.2c0.3-0.5,0.7-1,1.1-1.5
		l0.3,0.2c0.3,0.2,0.7,0.2,1-0.1l0.1-0.1c0.2-0.3,0.2-0.7-0.1-1l-0.3-0.3c0.4-0.4,0.9-0.8,1.4-1.2l0.2,0.3l0.1,0.1
		c0.2,0.2,0.6,0.2,0.9,0.1h0.1c0.3-0.2,0.4-0.6,0.2-0.9l-0.2-0.3c0.5-0.3,1.1-0.6,1.7-0.8l0.1,0.3c0,0.1,0.1,0.2,0.2,0.3
		c0.2,0.2,0.5,0.2,0.7,0.1h0.1c0.4-0.1,0.6-0.5,0.4-0.9l-0.1-0.3c0.2-0.1,0.5-0.1,0.8-0.2C249.7,160.8,248.7,163.7,246.6,165.9z
		 M237.3,151.6l-0.1-0.1l-0.3-0.2c0.3-0.6,0.6-1.3,0.8-2l0.4,0.1c0.2,0,0.3,0,0.5-0.1s0.3-0.3,0.4-0.5v-0.1c0.1-0.3,0-0.6-0.2-0.8
		c-0.1-0.1-0.2-0.1-0.3-0.2l-0.4-0.1c0.1-0.4,0.1-0.7,0.2-1.1c2.8,0,5.5,1,7.7,3s3.5,4.6,3.8,7.4c-0.4,0.1-0.7,0.2-1.1,0.3l-0.1-0.4
		c0-0.1-0.1-0.2-0.2-0.3c-0.2-0.2-0.5-0.2-0.8-0.1h-0.1c-0.2,0.1-0.4,0.2-0.5,0.4s-0.1,0.3,0,0.5l0.1,0.4c-0.7,0.3-1.3,0.6-1.9,0.9
		l-0.2-0.3l-0.1-0.1c-0.2-0.2-0.6-0.2-0.9,0l-0.1,0.1c-0.2,0.1-0.3,0.3-0.3,0.5s0,0.4,0.1,0.5l0.2,0.3c-0.6,0.4-1.1,0.9-1.6,1.4
		l-0.3-0.3c-0.3-0.2-0.7-0.2-1,0.1l-0.1,0.1c-0.3,0.3-0.3,0.8,0,1l0.3,0.3c-0.4,0.5-0.8,1.1-1.2,1.7l-0.3-0.2
		c-0.1-0.1-0.3-0.1-0.5-0.1c-0.2,0.1-0.4,0.2-0.5,0.4v0.1c-0.2,0-0.2,0.3,0,0.6l0.1,0.1l0.3,0.2c-0.3,0.6-0.5,1.3-0.7,2l-0.4-0.1
		c-0.2,0-0.3,0-0.5,0.1s-0.3,0.3-0.4,0.5v0.1c-0.1,0.3,0,0.6,0.2,0.8c0.1,0.1,0.2,0.1,0.3,0.2l0.4,0.1c-0.1,0.4-0.1,0.9-0.2,1.4
		c-2.8,0-5.7-1-7.9-3c-2.3-2-3.5-4.8-3.8-7.6c0.4-0.1,0.9-0.2,1.3-0.3l0.1,0.4c0,0.1,0.1,0.2,0.2,0.3c0.2,0.2,0.5,0.2,0.8,0.1h0.1
		c0.2-0.1,0.4-0.2,0.5-0.4s0.1-0.3,0-0.5l-0.1-0.3c0.7-0.3,1.3-0.6,1.9-0.9l0.2,0.3l0.1,0.1c0.2,0.2,0.6,0.2,0.9,0l0.1-0.1
		c0.2-0.1,0.3-0.3,0.3-0.5s0-0.4-0.1-0.5l-0.2-0.3c0.6-0.4,1.1-0.9,1.6-1.4l0.3,0.3c0.3,0.2,0.7,0.2,1-0.1l0.1-0.1
		c0.3-0.3,0.3-0.8,0-1c0,0-0.1-0.1-0.3-0.2c0.4-0.5,0.8-1.1,1.2-1.7l0.3,0.2c0.1,0.1,0.3,0.1,0.5,0.1c0.2-0.1,0.4-0.2,0.5-0.4v-0.1
		C237.6,152.2,237.5,151.8,237.3,151.6z M229.2,150.1c2-2.2,4.7-3.5,7.5-3.8c0,0.3-0.1,0.5-0.1,0.8l-0.4-0.1
		c-0.4-0.1-0.7,0.2-0.8,0.5v0.1c-0.1,0.3,0,0.5,0.2,0.7c0.1,0.1,0.2,0.1,0.3,0.2l0.4,0.1c-0.2,0.6-0.4,1.2-0.7,1.7l-0.3-0.2
		c-0.3-0.2-0.7,0-0.9,0.3v0.1c-0.1,0.3-0.1,0.6,0.1,0.8l0.1,0.1l0.3,0.2c-0.3,0.5-0.7,1-1.1,1.5c-0.2-0.1-0.3-0.2-0.3-0.2
		c-0.3-0.2-0.7-0.2-1,0.1v0.1c-0.2,0.3-0.2,0.7,0,1l0.3,0.2c-0.4,0.4-0.9,0.8-1.4,1.2l-0.2-0.3l-0.1-0.1c-0.2-0.2-0.6-0.2-0.9-0.1
		h-0.1c-0.3,0.2-0.4,0.6-0.2,0.9l0.2,0.3c-0.5,0.3-1.1,0.6-1.7,0.8l-0.1-0.3c0-0.1-0.1-0.2-0.2-0.3c-0.2-0.2-0.5-0.2-0.7-0.1h-0.1
		c-0.4,0.1-0.6,0.5-0.4,0.9l0.1,0.3c-0.3,0.1-0.7,0.2-1,0.2C226.2,155.1,227.2,152.3,229.2,150.1z"/>
	<path class="st1" d="M159.3,251.2c1.1-4.9,0.4-10.3-1.7-15.2c-4.9-2.1-10.3-2.8-15.2-1.8c-4.7,0.9-8.9,3.3-12.4,6.7
		c-3.4,3.4-5.7,7.7-6.6,12.4c-1,4.9-0.3,10.3,1.8,15.2c4.7,2.1,10.3,2.8,15.2,1.8c4.7-0.9,8.9-3.2,12.3-6.7
		C156.1,260.2,158.4,255.9,159.3,251.2z M147.8,235.9l9.9,9.9c0,2.1-0.3,4.2-0.8,6.2l-15.3-15.3
		C143.6,236.2,145.7,235.9,147.8,235.9z M135,268.5l-9.9-9.9c0-2.1,0.2-4.2,0.8-6.2l15.3,15.3C139.2,268.2,137.1,268.5,135,268.5z
		 M146,250.7c0.1,0.1,0.1,0.4,0,0.5l-0.4,0.4c-0.1,0.1-0.4,0.1-0.5,0l-1.1-1.1l-1.7,1.7l1.1,1.1c0.1,0.1,0.1,0.4,0,0.5l-0.4,0.4
		c-0.1,0.1-0.4,0.1-0.5,0l-1.1-1.1l-1.7,1.7l1.1,1.1c0.1,0.1,0.1,0.4,0,0.5l-0.4,0.4c-0.1,0.1-0.4,0.1-0.5,0l-1.1-1.1l-1.7,1.7
		l-0.9-0.9l1.7-1.7l-1.1-1.1c-0.1-0.1-0.1-0.4,0-0.5l0.4-0.4c0.1-0.1,0.4-0.1,0.5,0l1.1,1.1l1.7-1.7l-1.1-1.1
		c-0.1-0.1-0.1-0.4,0-0.5l0.4-0.4c0.1-0.1,0.4-0.1,0.5,0l1.1,1.1l1.7-1.7l-1.1-1.1c-0.1-0.1-0.1-0.4,0-0.5l0.4-0.4
		c0.1-0.1,0.4-0.1,0.5,0l1.1,1.1l1.7-1.7l0.9,0.9l-1.7,1.7L146,250.7z"/>
	<path class="st1" d="M100.6,204.8c-0.5-0.4-1.1-0.5-1.7-0.3c0.7,1,0.4,3.6,2,3C100.4,206.5,100.5,205.7,100.6,204.8z"/>
	<path class="st1" d="M92.1,201.9c-0.2,0-0.3-0.1-0.5-0.1c0,1,0.6,3.6,1.9,3.9c0.2,0.1,0.5,0.1,0.7,0
		C93.1,204.2,93.5,202.4,92.1,201.9z"/>
	<path class="st1" d="M87.6,200.3c0.3,1.3,0.7,4.1,2.1,4.4c0.2,0.1,0.5,0.1,0.8,0c-0.6-1.2-1.3-2.5-1.3-3.7
		C88.7,200.8,88.1,200.7,87.6,200.3z"/>
	<path class="st1" d="M84.1,199.1c-0.5,0.8,0.3,4.4,2.1,4.9c0,0,0.1,0,0.2,0s0.3,0,0.5,0C86.6,202.7,85.2,199.6,84.1,199.1z"/>
	<path class="st1" d="M119.4,204.8l-0.1-0.1c-0.4-0.3-0.8-0.4-1.2-0.4c-0.5,0-0.9,0.2-1.3,0.3c-0.1,0.1-0.3,0.2-0.4,0.2
		c-1,0.2-2.1,0.3-3.2,0.3c-1.8,0-3.6-0.3-5.4-0.6c-1.7-0.4-3.4-0.8-4.9-1.2c-8.8-2.4-17.1-5.7-25.9-9.3c-2.4-0.9-4.9-1.9-7.3-2.9
		c-4.5-1.7-8.7-3.3-13.2-4.9c-3-1-6-2.1-9.1-3.3c-4.6-1.8-11-4-16.7-5.7c-0.4-0.2-0.9-0.4-1.5-0.6c-1.3-0.5-2.7-1.1-4-1.1
		c-0.8,0-1.4,0.2-1.9,0.6c-2.3,2-7.2,10.3-4.6,14.1c0.9,1.2,3,1.8,5.1,2.4c0.3,0.1,0.7,0.2,1,0.3c12,3.5,24,5.9,35.6,8.3
		c9.2,1.9,18.6,3.8,28,6.2c1,0.2,2,0.4,2.9,0.6c0.9,0.2,1.9,0.3,2.9,0.6h0.1c5.3,1.4,11.8,3.2,16.4,6.4c0.6,0.3,1,0.8,1.5,1.3
		c0.7,0.8,1.4,1.5,2.4,1.9l0.4,0.2l0.4-0.2c5.2-3.5,6.7-8.5,4.1-13.3L119.4,204.8z M114.8,215.5c-3.7-3.7-8.2-5.8-12.9-7.3
		c-1.5-0.5-3.1-1-4.7-1.4c0,0,0,0,0,0c0.2,0,0.4,0,0.6-0.1c-0.9-1.5-0.7-3.1-2-3.6c-0.1,0-0.3-0.1-0.4-0.1c-0.1,1,0.4,3.3,1.6,3.7
		c-1.1-0.3-2.3-0.6-3.4-0.8c-0.4-0.1-0.8-0.2-1.2-0.3c-0.9-0.2-1.8-0.5-2.7-0.7c-1.2-0.2-2.3-0.5-3.4-0.8h-0.1
		c-5.7-1.4-11.5-2.8-17.2-4c-7.9-1.6-15.6-3.6-23.4-5.6c-7.7-2-15.7-3.4-23.2-6.4c0.3-3.6,1.2-7.1,2.6-10.5
		c19.9,5.6,39.3,13.6,58.8,21.1c-0.9,1.3-1.6,2.6-1.4,4.1c0.9-1.3,0.8-2.7,1.7-4c0.1,0,0.2,0.1,0.3,0.1c1.1,0.4,2.3,0.8,3.5,1.2
		c1.5,0.5,3,1.1,4.5,1.6c1.2,0.5,2.4,0.9,3.6,1.3c2.2,0.8,4.4,1.5,6.6,2.1c-0.6,0.9-1.5,2.4-0.6,3.1c1-1,0.8-2.1,1.4-3.1
		c4.8,0.9,9.5,2.5,15,0.5c0.5,1.2-1.1,1.7-1.9,1.9c-3.1,0.9-7.9-0.8-10.3-0.7c3.8,1.3,7.6,2.7,11.9,1.3
		C117.2,210.6,116.5,213.1,114.8,215.5z M115.9,215c1.4-2.4,2.1-5.7,2.9-7.7C118.9,210,118.3,213.3,115.9,215z"/>
	<path class="st1" d="M39.6,183.2c-4.8-1.7-9.3-3.6-14.2-4.4c-0.3,0.1-0.5,0.3-0.7,0.4c0.6,1.2,2.2,1,3.2,1.3
		c12.4,3.6,25.3,8.5,37.7,13.2c4.6,1.7,9,3.7,13.8,4.7c-4.3-2-8.8-3.7-13.2-5.5C57.4,189.5,48.5,186.5,39.6,183.2z"/>
	<path class="st1" d="M383.4,297c0-0.1,0-0.3-0.2-0.3h-2c-0.1,0-0.2,0.1-0.2,0.3l-0.7,3.3l-0.7,3.4c0,0.1-0.1,0.3-0.2,0.3H378h-0.2
		c-1.4,0-1.2-1.1-1-2.4v-0.1v-0.2l0.1-0.3l0.1-0.4c0-0.1,0.1-0.3,0.1-0.4l0.3-1.6l0.3-1.6c0-0.1,0-0.3-0.2-0.3h-2.1
		c-0.1,0-0.2,0.1-0.2,0.3l-0.4,2.1l-0.4,2.1v0.2c-0.5,2.3-0.4,4.6,2.4,4.7l0.1,0.1h4.4c0.1,0,0.2-0.1,0.2-0.2l0.9-4.4l0.3-1.5
		L383.4,297z"/>
	<path class="st1" d="M357.8,302.9l-0.3,1.6l0.3-1.4C357.8,303,357.8,303,357.8,302.9z"/>
	<polygon class="st1" points="358.2,301.3 357.9,302.7 357.9,302.8 	"/>
	<path class="st1" d="M361.6,296.8h-2.1c-0.1,0-0.2,0.1-0.2,0.2l-0.2,0.9l-0.2,0.8c0,0.1,0,0.1,0.2,0.1h2.2c0.1,0,0.2,0,0.2-0.1
		l0.1-0.9l0.1-0.9C361.7,296.9,361.7,296.8,361.6,296.8z"/>
	<path class="st1" d="M358.8,299.8c-0.1,0-0.2,0.1-0.2,0.2l-0.3,1.4l-0.3,1.4c0,0.1-0.1,0.3-0.1,0.4l-0.3,1.4l-0.3,1.4
		c0,0.1-0.1,0.3-0.1,0.4c0,0-0.4,1.2-1.1,1.2H356c-0.3,0-0.6,0-0.6,0c-0.1,0-0.2,0.1-0.2,0.2l-0.2,1l-0.2,1c0,0.1,0,0.2,0.2,0.2
		c0.4,0,1.3,0,1.8,0c1.7,0,2.7-1,3.3-3.8l0.7-3.2l0.6-3c-0.2-0.2-0.3-0.2-0.4-0.2L358.8,299.8L358.8,299.8z"/>
	<path class="st1" d="M402,299l-0.1-0.4l-0.1-0.4V298c-0.2-0.7-0.7-1.1-1.9-1.1l-1.8-0.1l-1.7-0.1h-0.1h-1.7c-0.1,0-0.3,0.2-0.3,0.3
		l-0.1,0.4l-0.1,0.5v0.1l-0.8,3.9l-0.8,3.7v0.2c0,0,0,0,0,0.1c0,0.1,0.1,0.1,0.1,0.2c0.1,0.1,0.2,0.1,0.3,0.1h1.7
		c0.1,0,0.3-0.1,0.3-0.1s0,0,0.1-0.1l0.1-0.1v-0.1v-0.1l0.3-1.5l0.3-1.5v-0.1c0-0.1,0-0.1,0-0.2l0.3-1.6l0.3-1.5
		c0-0.1,0.1-0.2,0.2-0.2l5.3,0.1C401.9,299.2,402,299.1,402,299z"/>
	<path class="st1" d="M409.5,295.5h-0.6c-0.4,0-0.4,0-0.6,0h-1.7c-0.1,0-0.3,0.1-0.3,0.2l-3.7,5.5c-0.1,0.1-0.1,0.1-0.2,0l-0.3-1.2
		c0-0.1-0.1-0.2-0.2-0.2h-2.4c-0.1,0-0.2,0.1-0.1,0.2l1.1,3.8c0,0.1,0,0.3,0,0.4L400,306c0,0.1,0,0.2,0.2,0.2h2.4
		c0.1,0,0.2-0.1,0.3-0.2l0.5-1.8c0-0.1,0.1-0.3,0.2-0.4l6.1-8.1C409.6,295.6,409.6,295.5,409.5,295.5z"/>
	<path class="st1" d="M388.7,296.8c-3.9-0.1-4.8,2.3-5.3,4.7s-0.4,4.7,3.6,4.7c0,0,0.1,0,0.1,0c0,0,0.1,0,0.1,0s0.1,0,0.1,0
		s0.1,0,0.1,0c0.1,0,0.2,0,0.3,0c0.1,0,0.1,0,0.2,0c0.1,0,0.1,0,0.2,0c0,0,0.1,0,0.1,0c0.9,0,1.8,0,2.3,0c0.1,0,0.2-0.1,0.2-0.2
		l0.2-0.8l0.1,0.8l0.2-0.8V305v-0.1l0.2-0.8c0,0,0,0,0-0.1s-0.1-0.2-0.2-0.2v0.2h-3.6c-1.3,0-1.8-0.4-1.7-1.4c0-0.1,0.1-0.3,0.2-0.3
		h5.6c0.1,0,0.2,0,0.2-0.1C392.8,298.9,392.6,296.8,388.7,296.8z M389.5,300.7h-3c-0.1,0-0.2-0.2-0.1-0.2c0,0,0,0,0-0.1
		c0.3-0.8,0.9-1.3,2-1.3c1.2-0.1,1.3,0.5,1.3,1.2C389.6,300.4,389.6,300.7,389.5,300.7z"/>
	<path class="st1" d="M368.6,294.4c-4,0-5.7,2.8-6.3,5.9c-0.7,3.1,0.2,5.9,4.1,5.8h3.1h2.9c0.1,0,0.2-0.1,0.3-0.2l0.5-1.9
		c0-0.1,0-0.2-0.2-0.2h-0.4h-0.1h-0.4H372c-0.1,0-0.1-0.1-0.1-0.1s1.1-2.7,1.3-4.2C373.6,297.4,372.6,294.4,368.6,294.4z
		 M370.4,300.2l-0.1,0.2l-0.4,1.6l-0.4,1.5c0,0.1-0.1,0.1-0.3,0.1h-2.3c-1.8,0-2.2-1.3-1.8-3.4c0.4-2.1,1.3-3.3,3-3.5
		C370.4,296.6,370.9,298.3,370.4,300.2z"/>
	<path class="st1" d="M347.3,305.8c-0.1,0-0.2,0-0.2-0.1c0,0,0,0-0.1,0s-0.2,0-0.2-0.1c-0.1,0-0.1,0-0.2-0.1c0,0,0,0-0.1,0
		s-0.1-0.1-0.2-0.1s-0.1-0.1-0.2-0.1c0,0,0,0-0.1,0c0,0-0.1,0-0.1-0.1c0,0-0.1,0-0.1-0.1c-0.1,0-0.1-0.1-0.2-0.1c0,0,0,0-0.1,0
		c-0.1,0-0.2-0.1-0.2-0.1s0,0-0.1,0c-0.1,0-0.1-0.1-0.2-0.1c0,0,0,0-0.1,0c-0.1,0-0.1-0.1-0.2-0.1c0,0,0,0-0.1-0.1l-0.1-0.1
		c0,0,0,0-0.1,0c-0.1,0-0.1-0.1-0.2-0.1c-0.1-0.1-0.1-0.1-0.2-0.2c0,0,0,0-0.1,0l-0.1-0.1c0,0,0,0-0.1-0.1c-0.1-0.1-0.1-0.1-0.2-0.2
		c-0.1-0.1-0.1-0.1-0.2-0.2l-0.1-0.1c0,0,0,0,0-0.1c0-0.1-0.1-0.1-0.1-0.2c-1.2-1.6-1.6-3.9-0.7-5.8l-0.9,1.1
		c-1.1,1.6-1,3.6-0.1,5.3c0,0,0,0.1,0.1,0.1v0.1v0.1l0.1,0.1v0.1l0.1,0.1c0,0,0,0,0,0.1c0,0.1,0.1,0.1,0.1,0.2
		c0,0.1,0.1,0.1,0.1,0.2c0,0,0,0,0,0.1l0.1,0.1c0,0,0,0,0,0.1c0.1,0.1,0.1,0.1,0.2,0.2c0.1,0.1,0.1,0.1,0.2,0.2c0,0,0,0,0,0.1
		l0.1,0.1c0,0,0,0,0.1,0c0.1,0.1,0.1,0.1,0.2,0.2c0.1,0,0.1,0.1,0.2,0.1c0,0,0,0,0.1,0.1l0.1,0.1c0,0,0,0,0.1,0.1l0.1,0.1
		c0,0,0,0,0.1,0l0.1,0.1c0,0,0,0,0.1,0c0.1,0,0.1,0.1,0.2,0.1c0,0,0,0,0.1,0s0.1,0.1,0.2,0.1h0.1c0,0,0.1,0,0.1,0.1
		c0.1,0,0.1,0.1,0.2,0.1c0.1,0,0.1,0.1,0.2,0.1c0,0,0,0,0.1,0c0.1,0,0.1,0.1,0.2,0.1c0.1,0,0.2,0.1,0.2,0.1s0,0,0.1,0
		c0.1,0,0.2,0.1,0.2,0.1c5.3,1,6.8-3.2,6.8-3.2C351.7,305.8,349.4,306.3,347.3,305.8z"/>
	<path class="st1" d="M349.1,302.4c-0.1,0-0.2,0-0.2-0.1c0,0,0,0-0.1,0c-0.1,0-0.1,0-0.2-0.1c0,0,0,0-0.1,0s-0.1,0-0.2-0.1
		c-0.1,0-0.1-0.1-0.2-0.1c0,0-0.1,0-0.1-0.1c0,0,0,0-0.1,0l-0.1-0.1c-0.1,0-0.1-0.1-0.2-0.1c0,0-0.1,0-0.1-0.1
		c-0.1-0.1-0.1-0.1-0.2-0.2c-0.8-0.6-1.4-1.4-1.7-2.4c-0.3-1-0.2-2.1,0.3-3l-0.6,0.9c-0.8,1.1-0.7,2.7-0.1,3.9
		c0.1,0.2,0.2,0.4,0.3,0.6c0.1,0.2,0.2,0.4,0.4,0.5c0.1,0.1,0.1,0.1,0.2,0.2c0.1,0.1,0.1,0.1,0.2,0.2c0.1,0.1,0.1,0.1,0.2,0.2
		s0.1,0.1,0.2,0.2c0,0,0.1,0,0.1,0.1c0.1,0,0.1,0.1,0.2,0.1l0.1,0.1c0,0,0,0,0.1,0c0,0,0.1,0,0.1,0.1c0.1,0,0.1,0.1,0.2,0.1
		s0.1,0,0.2,0.1c0,0,0,0,0.1,0c0.1,0,0.1,0,0.2,0.1c0,0,0,0,0.1,0c0.1,0,0.2,0.1,0.2,0.1c4.1,0.7,5-2.5,5-2.5
		C352.5,302.3,350.8,302.9,349.1,302.4z"/>
	<path class="st1" d="M347.9,296.1c-0.5,0.7-0.5,1.5-0.2,2.3c0.4,0.8,1.1,1.4,2,1.7h0.1h0.1c2.3,0.4,2.9-1.2,3-1.4
		c-0.5,0.8-1.4,1-2.5,0.7c-0.1,0-0.2-0.1-0.3-0.1c-0.1,0-0.2-0.1-0.3-0.1c-0.2-0.1-0.4-0.2-0.6-0.3c-1-0.7-1.6-2.2-1-3.3
		L347.9,296.1z"/>
	<path class="st1" d="M203.6,90h61.9c2.1,0,3.9-1.7,3.9-3.9V57.7c-0.1-2.1-1.8-3.9-3.9-3.9h-61.9c-2.1,0-3.9,1.7-3.9,3.9v28.4
		C199.7,88.2,201.4,90,203.6,90z M201.9,57.7c0-0.9,0.8-1.7,1.7-1.7h61.9c0.9,0,1.7,0.8,1.7,1.7v28.4c0,0.9-0.8,1.7-1.7,1.7h-61.9
		c-0.9,0-1.7-0.8-1.7-1.7L201.9,57.7L201.9,57.7z"/>
	<path class="st1" d="M223,79c0.5,0,1-0.5,1-1v-2c0-0.5-0.5-1-1-1h-3c-0.5,0-1,0.5-1,1v2c0,0.5,0.5,1,1,1H223z"/>
	<path class="st1" d="M225,78c0,0.5,0.5,1,1,1h3c0.5,0,1-0.5,1-1v-2c0-0.5-0.5-1-1-1h-3c-0.5,0-1,0.5-1,1V78z"/>
	<path class="st1" d="M235,79c0.5,0,1-0.5,1-1v-2c0-0.5-0.5-1-1-1h-2c-0.5,0-1,0.5-1,1v2c0,0.5,0.5,1,1,1H235z"/>
	<path class="st1" d="M242,79c0.5,0,1-0.5,1-1v-2c0-0.5-0.5-1-1-1h-2c-0.5,0-1,0.5-1,1v2c0,0.5,0.5,1,1,1H242z"/>
	<path class="st1" d="M250,78v-2c0-0.5-0.5-1-1-1h-3c-0.5,0-1,0.5-1,1v2c0,0.5,0.5,1,1,1h3C249.5,79,250,78.5,250,78z"/>
	<path class="st1" d="M263,75h-9c-0.5,0-1,0.5-1,1v2c0,0.5,0.5,1,1,1h9c0.5,0,1-0.5,1-1v-2C264,75.5,263.5,75,263,75z"/>
	<path class="st1" d="M206,79h10c0.5,0,1-0.5,1-1v-2c0-0.5-0.5-1-1-1h-10c-0.5,0-1,0.5-1,1v2C205,78.5,205.5,79,206,79z"/>
	<path class="st1" d="M215,69v3c0,0.5,0.5,1,1,1h3c0.5,0,1-0.5,1-1v-3c0-0.5-0.5-1-1-1h-3C215.5,68,215,68.5,215,69z"/>
	<path class="st1" d="M224,73c0.5,0,1-0.5,1-1v-3c0-0.5-0.5-1-1-1h-1c-0.5,0-1,0.5-1,1v3c0,0.5,0.5,1,1,1H224z"/>
	<path class="st1" d="M228,69v3c0,0.5,0.5,1,1,1h3c0.5,0,1-0.5,1-1v-3c0-0.5-0.5-1-1-1h-3C228.5,68,228,68.5,228,69z"/>
	<path class="st1" d="M234,69v3c0,0.5,0.5,1,1,1h3c0.5,0,1-0.5,1-1v-3c0-0.5-0.5-1-1-1h-3C234.5,68,234,68.5,234,69z"/>
	<path class="st1" d="M242,69v3c0,0.5,0.5,1,1,1h2c0.5,0,1-0.5,1-1v-3c0-0.5-0.5-1-1-1h-2C242.5,68,242,68.5,242,69z"/>
	<path class="st1" d="M248,69v3c0,0.5,0.5,1,1,1h3c0.5,0,1-0.5,1-1v-3c0-0.5-0.5-1-1-1h-3C248.5,68,248,68.5,248,69z"/>
	<path class="st1" d="M263,68h-7c-0.5,0-1,0.5-1,1v3c0,0.5,0.5,1,1,1h7c0.5,0,1-0.5,1-1v-3C264,68.5,263.5,68,263,68z"/>
	<path class="st1" d="M206,73h6c0.5,0,1-0.5,1-1v-3c0-0.5-0.5-1-1-1h-6c-0.5,0-1,0.5-1,1v3C205,72.5,205.5,73,206,73z"/>
	<path class="st1" d="M214,66h3c0.5,0,1-0.5,1-1v-2c0-0.5-0.5-1-1-1h-3c-0.5,0-1,0.5-1,1v2C213,65.5,213.5,66,214,66z"/>
	<path class="st1" d="M221,66h3c0.5,0,1-0.5,1-1v-2c0-0.5-0.5-1-1-1h-3c-0.5,0-1,0.5-1,1v2C220,65.5,220.5,66,221,66z"/>
	<path class="st1" d="M227,66h3c0.5,0,1-0.5,1-1v-2c0-0.5-0.5-1-1-1h-3c-0.5,0-1,0.5-1,1v2C226,65.5,226.5,66,227,66z"/>
	<path class="st1" d="M234,66h2c0.5,0,1-0.5,1-1v-2c0-0.5-0.5-1-1-1h-2c-0.5,0-1,0.5-1,1v2C233,65.5,233.5,66,234,66z"/>
	<path class="st1" d="M240,66h3c0.5,0,1-0.5,1-1v-2c0-0.5-0.5-1-1-1h-3c-0.5,0-1,0.5-1,1v2C239,65.5,239.5,66,240,66z"/>
	<path class="st1" d="M248,66h2c0.5,0,1-0.5,1-1v-2c0-0.5-0.5-1-1-1h-2c-0.5,0-1,0.5-1,1v2C247,65.5,247.5,66,248,66z"/>
	<path class="st1" d="M254,66h3c0.5,0,1-0.5,1-1v-2c0-0.5-0.5-1-1-1h-3c-0.5,0-1,0.5-1,1v2C253,65.5,253.5,66,254,66z"/>
	<path class="st1" d="M261,66h2c0.5,0,1-0.5,1-1v-2c0-0.5-0.5-1-1-1h-2c-0.5,0-1,0.5-1,1v2C260,65.5,260.5,66,261,66z"/>
	<path class="st1" d="M206,66h4c0.5,0,1-0.5,1-1v-2c0-0.5-0.5-1-1-1h-4c-0.5,0-1,0.5-1,1v2C205,65.5,205.5,66,206,66z"/>
	<path class="st1" d="M217,81h-4c-0.5,0-1,0.5-1,1v3c0,0.5,0.5,1,1,1h4c0.5,0,1-0.5,1-1v-3C218,81.5,217.5,81,217,81z"/>
	<path class="st1" d="M206,86h2c0.5,0,1-0.5,1-1v-3c0-0.5-0.5-1-1-1h-2c-0.5,0-1,0.5-1,1v3C205,85.5,205.5,86,206,86z"/>
	<path class="st1" d="M244,81h-23c-0.5,0-1,0.5-1,1v3c0,0.5,0.5,1,1,1h23c0.5,0,1-0.5,1-1v-3C245,81.5,244.5,81,244,81z"/>
	<path class="st1" d="M253,81h-5c-0.5,0-1,0.5-1,1v3c0,0.5,0.5,1,1,1h5c0.5,0,1-0.5,1-1v-3C254,81.5,253.5,81,253,81z"/>
	<path class="st1" d="M262.7,83.5c-0.6,0-1,0.4-1,1s0.5,1,1,1c0.6,0,1-0.5,1-1S263.3,83.6,262.7,83.5z"/>
	<path class="st1" d="M259.8,83.5c-0.6,0-1,0.4-1,1s0.5,1,1,1c0.6,0,1-0.5,1-1S260.3,83.6,259.8,83.5z"/>
	<path class="st1" d="M259.8,80.6c-0.6,0-1,0.4-1,1s0.5,1,1,1c0.6,0,1-0.5,1-1S260.3,80.6,259.8,80.6z"/>
	<path class="st1" d="M256.8,83.5c-0.6,0-1,0.4-1,1s0.5,1,1,1c0.6,0,1-0.5,1-1S257.4,83.6,256.8,83.5z"/>
	<path class="st1" d="M39.5,112.4H22.8c-2,0-3.7,1.7-3.7,3.7v40.8c0,2,1.7,3.7,3.7,3.7h16.7c2,0,3.7-1.7,3.7-3.7V116
		C43.2,114,41.5,112.4,39.5,112.4z M39.5,158.8H23.2c-1.3,0-2.4-1.1-2.4-2.4v-40.3c0-1.3,1.1-2.4,2.4-2.4h16.2
		c1.3,0,2.4,1.1,2.4,2.4v40.3h0.1C41.9,157.7,40.8,158.8,39.5,158.8z"/>
	<rect x="22.1" y="120.5" class="st1" width="18.1" height="31.8"/>
	<path class="st1" d="M28.9,118.4h4.5c0.2,0,0.4-0.2,0.4-0.4s-0.2-0.4-0.4-0.4h-4.5c-0.2,0-0.4,0.2-0.4,0.4
		C28.6,118.1,28.7,118.4,28.9,118.4z"/>
	<path class="st1" d="M31.2,153.4c-1.2,0-2.3,1-2.3,2.3s1,2.3,2.3,2.3s2.3-1,2.3-2.3S32.4,153.4,31.2,153.4z"/>
	<path class="st1" d="M200.8,296.4c-0.2-2-0.4-4.2-1.4-6c-1.1-1.9-4.3-5.3-6.8-6.9c-2.6-1.7-5.6-2.7-9.1-3.1
		c-0.5-0.5-1.3-0.8-2.4-0.8c-0.9,0-1.6,0.2-2.1,0.6c-0.8,0-1.5,0.1-1.9,0.1c-1.3,0.1-3.2,0.4-4.9,1c-2.7,1-5.5,2.7-7.6,4.9
		c-0.6,0.6-1.1,1.2-1.4,1.8c-1.3,2.3-2.1,4.1-2.5,6.2c-0.3,1.2-0.4,2.7-0.5,4.1c-0.1,1-0.1,1.9-0.2,2.4c-0.1,0.4-0.2,0.7-0.2,1.1
		c-0.1,0.4-0.1,0.7-0.2,0.9c-1.3,0.6-4.4,2.4-5.3,2.9l-0.1,0.1c-1.7,1.2-3.1,2.2-3.3,3.4c-0.3,1.4,0.6,2.8,2.4,3.5
		c1,0.4,5.1,1.3,12.3,2.6c2.8,0.5,11.1,1.8,14.1,1.8c0.2,0,0.4,0,0.5,0c2.5-0.1,6.1-0.7,7.9-1.6c1.6-0.7,5.6-3.3,6.5-4.1
		c0.2-0.1,0.3-0.3,0.4-0.4c0.4-0.3,0.7-0.7,0.9-1.1c1.6-0.4,2.9-1,3.6-1.6c0.8-0.7,1.3-2.1,1.4-2.9c0.3-2.3,0.3-4.9,0-7.9
		C200.9,297.1,200.8,296.8,200.8,296.4z M199.4,305.4c-0.1,0.6-0.5,1.5-0.8,1.8c-0.5,0.1-1.5,0.6-3.1,1c-0.9,0.2-2.2,0.2-3.4,0.2
		c-0.3,0-0.6,0-0.9,0c-0.3,0-0.6,0-0.8,0c-0.5,0-0.9,0-1.3,0c-0.9,0-2.1,0.1-3.4,0.1c-1.6,0-4.7,0-7.1-0.2c-3.1-0.3-8.1-1-11.6-1.8
		c-3.2-0.8-5.7-2.3-6-2.7c-0.1-0.4,0.1-1,0.3-1.7c0.1-0.3,0.2-0.7,0.2-1.1c0.1-0.6,0.2-1.5,0.3-2.6c0.1-1.3,0.2-2.7,0.4-3.8
		c0.4-1.9,1.1-3.6,2.3-5.7c0.3-0.5,0.6-0.9,1.2-1.4c2-2,4.6-3.6,7-4.5c1.5-0.5,3.3-0.8,4.5-0.9c0.5-0.1,1.3-0.1,2.3-0.1
		c0.3,0.2,0.8,0.2,1.6,0.2c0.6,0,1,0,1.3-0.1c2.8,0.3,6.2,1,9.3,3c2.2,1.4,5.3,4.7,6.3,6.4c0.9,1.5,1.1,3.5,1.2,5.3
		c0,0.3,0.1,0.7,0.1,1C199.6,300.7,199.6,303.2,199.4,305.4z"/>
	<path class="st1" d="M179.2,291.8c-0.1-0.9-0.6-1.8-1.5-2.3c-0.3-0.2-0.7-0.4-1.3-0.4c-0.1,0-0.3,0-0.4,0c-0.7,0-1.2,0.2-1.7,0.4
		c-0.2-0.3-0.6-0.8-1.3-0.8h-0.1c-0.8,0-1.4,0.5-1.5,1.3l-0.1,0.4l0.4,0.1c0.5,0.1,0.8,0.2,0.8,0.5c0,0.1,0,0.3-0.1,0.5
		c0,0.1,0,0.2-0.1,0.3l-0.1,0.9c0,0.2-0.1,0.5-0.1,0.7c-0.1,0.4-0.1,0.8-0.2,1c0,0.1-0.3,0.2-0.4,0.2c-0.2,0.1-0.3,0.1-0.5,0.3
		l-0.3,0.3l0.3,0.3c0.1,0.1,0.2,0.2,0.3,0.3c0.1,0.1,0.4,0.3,0.4,0.4c0,0.4-0.2,1.2-0.3,1.9c-0.1,0.3-0.1,0.7-0.2,0.9
		c0,0.1,0,0.3-0.1,0.4c0,0.2,0,0.4-0.1,0.5c0,0.1-0.3,0.2-0.5,0.2c-0.1,0-0.2,0-0.3,0l-0.4-0.1l-0.1,0.4c-0.1,0.4,0,0.8,0.3,1.1
		c0.3,0.4,0.8,0.6,1.4,0.6h0.1c0.4,0,0.8-0.1,1.1-0.3c0.5,0.3,1,0.6,1.6,0.7c0.4,0.1,0.7,0.2,1.1,0.2c1.1,0,2.1-0.5,2.6-1.3
		c0.2-0.2,0.3-0.5,0.4-0.8c0.2-0.5,0.4-0.9,0.7-1l0.5-0.1l-0.2-0.5c-0.1-0.2-0.2-0.3-0.2-0.4c-0.1-0.1-0.1-0.1-0.1-0.2
		c-0.1-0.2-0.2-0.6-0.2-0.9c0-0.2,0-0.3-0.1-0.5c-0.1-0.4-0.2-0.8-0.4-1.2l0.1-0.1c0,0,0.1-0.3,0.3-0.6c0.1-0.3,0.2-0.5,0.4-0.7
		c0,0,0.1-0.1,0.2-0.1c0.1-0.1,0.2-0.1,0.4-0.3l0.3-0.4l-0.4-0.3C179.2,293.1,179.2,292.3,179.2,291.8z M176,299.3l0.1,0.1
		c0,0.1,0.3,0.7,0,1.1c-0.1,0.2-0.5,0.4-1.1,0.4s-1.2-0.2-1.5-0.5c-0.2-0.1-0.3-0.4-0.3-0.5c0-0.2,0.1-0.6,0.1-0.9
		c0-0.2,0.1-0.4,0.1-0.5l0.1-0.9c0-0.2,0.1-0.5,0.1-0.6c0.2-0.3,0.7-0.4,1.1-0.4c0.1,0,0.1,0,0.2,0c0.9,0.1,1.4,0.6,1.5,1.1
		c0.1,0.3,0,0.5-0.3,0.8c0,0,0,0-0.1,0c-0.1,0.1-0.2,0.1-0.3,0.3C175.9,299,175.9,299.2,176,299.3z M177.1,293.1
		c-0.1,0.1-0.1,0.1-0.2,0.2l-0.2,0.2l0.1,0.1c0.1,0.3,0.2,0.4,0.2,0.6c-0.1,0.6-0.7,0.9-1.2,0.9c-0.1,0-0.2,0-0.2,0
		c-0.6-0.1-1.1-0.4-1.3-0.6c-0.1-0.2,0-0.6,0-1c0-0.2,0-0.3,0.1-0.5c0-0.4,0.1-0.8,0.2-1c0.2-0.4,0.7-0.6,1.2-0.6h0.1
		c0.8,0.1,1.2,0.5,1.3,0.8c0.1,0.2,0.2,0.4,0.2,0.6C177.4,292.9,177.3,293,177.1,293.1z"/>
	<path class="st1" d="M40.2,66.7c-0.5-0.8-1-1.9-0.9-3.2c0-0.7,0.4-1.3,0.4-1.9c-0.5-0.4-1.9-0.5-2.3-0.1c-0.4,0.3-0.3,1.1-0.5,1.6
		c-0.5,1.5-1.8,3.2-2.3,4.3c-0.8-1-0.7-3.3-0.1-4.5c-0.4-0.7-1.7-0.4-2.4-0.2C30.9,66,29.5,69,28,72c-0.2-2,0.8-3.5,0.9-5.2
		c-0.2-0.5-1-0.6-1.3-0.4c0.2-1,0-2-0.6-2.3c-1.6-0.7-3.5,1.7-4.1,2.3c-1.2,0.7-2.5,1.4-3.7,2.1c-0.9-0.8-1.9-1.6-2.9-2.4
		s-2.1-1.6-2.7-2.6c-0.4-0.7-0.7-1.5-0.6-2.6c0.3-2.7,3.1-4.8,5.5-6.2c1.3-0.8,2.6-1.4,3.9-1.9s2.9-1.1,4.6-1.2
		c3.1-0.3,6,0.4,5.4,3.4c-0.7,3.3-5.1,6-9.1,6.3c-1.1,0-2-0.1-2.8-0.4c-0.6-0.3-0.8-0.8-1.5-1c-0.1,1.1,0.6,1.6,1.2,2
		c0.8,0.6,2.1,0.8,3.2,0.8c2.9,0,6.3-1.2,8.4-3.1c1.5-1.4,2.8-3.5,2.8-5.6c0.1-3.2-2.6-4.5-5.6-4.9c-0.9,0-1.8,0-2.7,0
		c-3.5,0.4-7.2,2.1-9.9,3.9c-2.8,1.7-5.6,4.3-6.4,7.4c0,0.4,0,0.9,0,1.3c1.2,3.8,4.8,5.3,7.6,7.5c-2,1.3-6.4,3.1-6.4,6.6
		c0,1.4,0.9,2.5,2.1,2.7c0.6,0,1.1,0,1.7,0c3.7-0.5,6.6-4.7,4.9-8.9c0.6-0.5,1.5-0.8,2.1-1.3c-0.1,0.8-0.5,2.2-0.4,3.5
		s0.7,2.8,1.5,3.1c2,0.7,2.5-2.1,3.1-3.2c0.2,1.2,0,2.7,1.1,2.8c0.5,0,1.2-0.5,1.5-1s0.7-1.2,1-1.8c0.7-1.4,1.5-3,2.2-4.6
		c0.1-0.3,0.1-0.7,0.4-0.9c0.1,1.2,0.6,2.2,1.1,3.1c-0.7,0.9-1.5,1.8-2.3,2.9c-0.2,0.4-0.6,0.7-0.6,1.1c0.1,0.8,1.6,0.7,2.5,0.4
		c1.3-0.5,2.8-1.5,2.6-3.6c0-0.5-0.2-0.8-0.4-1.4c0.7-0.9,1.3-1.9,1.8-2.9c0.2-0.3,0.3-0.7,0.6-0.9c0.1,1.1,0.5,2.1,1,2.9
		c-0.6,0.6-1.3,1.1-1.8,2c-0.4,0.7-1,2.6,0.1,2.8c1.2,0.2,3.5-1.3,3.9-2.6c0.2-0.8,0-1.4-0.2-2.2c2.2-0.9,5.8-0.5,7.1,1.1
		c0.4,0.5,0.8,1.3,0.6,2.1c-0.2,0.8-1,0.9-1.4,1.7c1.2,0.1,1.8-1,2.2-1.9c0-0.4,0-0.9,0-1.3C48.4,66,43.5,65,40.2,66.7z M17.2,75
		c-0.8,0.8-2.1,1.6-3.3,1c-0.5-1.1,0-2.3,0.6-3c1-1.2,2.7-2.1,3.8-2.8c0.1,0,0.1-0.1,0.2-0.1s0.1,0.1,0.1,0.1
		C19,72.1,18.3,73.9,17.2,75z M25.5,69.4c-0.2,0.6-0.5,1.1-0.7,1.7c-0.2,0.5-0.4,1.1-0.9,1.4c-0.3-0.1-0.4-0.4-0.4-0.7
		c-0.4-2.2,1.1-6.1,2.9-6.2C26.5,66.9,26,68.2,25.5,69.4z M32.1,72.5c0.5-0.7,1.2-1.3,1.7-2.1C33.9,71.4,33,72.2,32.1,72.5z
		 M37.6,71.3c0.1-1.3,0.8-2,1.4-2.6C39.5,70,38.6,71.1,37.6,71.3z"/>
	<path class="st1" d="M466.8,282.8c-0.4-0.7-0.8-1.4-1.2-2.1c-0.2-0.3-0.7-0.2-1-0.2c-0.3,0-1-0.1-1.2,0.2c-1,1.7-2,3.3-3,5
		c-0.2,0.3-0.4,0.7-0.6,1c-0.1,0.3-0.4,0.7,0.1,0.7s1,0,1.5,0c0.2,0,0.5,0.1,0.6,0c0.1-0.1,0.2-0.3,0.3-0.5c0.1,0,0.2-0.4,0.3-0.4
		c0.1,0,0.3,0,0.4,0c0.6,0,1.2,0,1.8,0c0.4,0,0.8,0,1.2,0c0.1,0,0.3,0.4,0.3,0.5c0.1,0.1,0.2,0.4,0.4,0.4c0.6,0,1.3,0,2-0.1
		c0.6,0,0.4-0.4,0.2-0.7C468.2,285.3,467.5,284.1,466.8,282.8z M463.4,284.9c0.3-0.5,0.5-1.1,0.8-1.6c0.3,0.5,0.6,1.1,0.9,1.6
		C464.6,284.9,464,284.9,463.4,284.9z"/>
	<path class="st1" d="M453.6,284.6c-0.1-0.1-0.1-0.2-0.2-0.3c0,0.1,0.7-0.5,0.7-0.6c0.3-0.5,0.4-1,0.2-1.6c-0.1-0.6-0.6-1.1-1.1-1.3
		c-0.6-0.3-1.2-0.2-1.8-0.2c-0.7,0-1.5,0-2.2,0c-0.3,0-0.7,0-1,0s-1.1-0.1-1.3,0.2c-0.1,0.2,0,0.5,0,0.7c0,0.5,0,1,0,1.5
		c0,1.1,0,2.3,0,3.4c0,0.3,0,0.5,0,0.8c0,0.4,0.6,0.3,0.9,0.3c0.4,0,1,0.1,1.4,0c0.4-0.1,0.3-0.7,0.3-1c0-0.5,0-1,0-1.4
		c0.4,0,1.1-0.1,1.5,0.1c0.2,0.1,0.2,0.3,0.3,0.5c0.3,0.6,0.6,1.1,1,1.7c0.1,0.2,0.3,0.2,0.5,0.2c0.4,0,0.7,0,1.1,0
		c0.2-0.2,1.5,0,1.2-0.6C454.6,286.2,454.1,285.4,453.6,284.6z M450.8,283.5c-0.3,0-0.6,0-0.9,0c-0.1,0-0.3,0-0.4,0v-0.2
		c0-0.3,0-0.7,0-1c0-0.2,0.5-0.1,0.6-0.1c0.5,0,1.6-0.2,1.8,0.5C452.1,283.3,451.3,283.5,450.8,283.5z"/>
	<path class="st1" d="M462.3,281.3c0.1-0.2,0.2-0.3,0.2-0.5c-0.1-0.3-1.1-0.2-1.3-0.2c-0.3,0-1-0.1-1.2,0.2
		c-0.1,0.3-0.3,0.6-0.5,0.9c-0.5,0.8-1,1.6-1.5,2.4c-0.6-0.9-1.2-1.8-1.8-2.7c-0.2-0.2-0.4-0.7-0.7-0.7s-0.7,0-1,0
		c-0.2,0-0.5-0.1-0.7,0c1.3,0.5,1.6,2,1.1,3.1c0.5,0.7,0.9,1.4,1.3,2.2c0.2,0.3,0.5,0.7,0.7,1.1c0.2,0.3,0.4,0.3,0.8,0.3
		c0.3,0,0.8,0.2,1-0.2c0.2-0.2,0.3-0.4,0.4-0.6c0.5-0.9,1.1-1.8,1.6-2.7C461.3,283,461.8,282.2,462.3,281.3z"/>
</g>
</svg>
