<?xml version="1.0" encoding="utf-8"?>
<!-- Generator: Adobe Illustrator 19.0.0, SVG Export Plug-In . SVG Version: 6.00 Build 0)  -->
<svg version="1.1" xmlns="http://www.w3.org/2000/svg" xmlns:xlink="http://www.w3.org/1999/xlink" x="0px" y="0px" width="600px"
	 height="600px" viewBox="0 0 600 600" style="enable-background:new 0 0 600 600;" xml:space="preserve">
<style type="text/css">
	.st0{fill:#03A9F4;stroke:#03A9F4;stroke-width:5;stroke-miterlimit:10;}
</style>
<g id="Layer_3">
	<path id="XMLID_2_" class="st0" d="M492.936,221.741c-36.128,38.386-72.255,76.771-108.383,115.157c0,76.772,0,153.543,0,230.315
		c-0.073,2.349,0.211,5.899,2.455,8.883c3.282,4.365,9.021,5.209,12.631,5.557c11.015,1.064,40.802,1.246,80.634,0
		c1.583-0.319,4.9-1.22,7.934-4.007c4.532-4.162,5.173-9.538,5.296-10.924C493.315,451.728,493.125,336.734,492.936,221.741z"/>
	<path id="XMLID_4_" class="st0" d="M204.942,410.417c-6.472-5.502-12.945-11.003-19.417-16.505
		c-30.097,33.981-60.194,67.961-90.291,101.942c-0.036,33.196,0.114,57.805,0,67.474c-0.018,1.553-0.069,5.526,2.455,8.883
		c3.282,4.365,9.021,5.209,12.631,5.557c11.015,1.064,40.802,1.246,80.634,0c1.583-0.319,4.9-1.22,7.934-4.007
		c0,0,4.1-3.821,5.296-10.924C205.719,553.723,206.087,493.267,204.942,410.417z"/>
	<path id="XMLID_5_" class="st0" d="M349.602,369.121c-8.003,7.619-19.687,18.69-33.981,32.039
		c-21.704,20.269-28.149,25.923-38.835,29.126c-14.311,4.289-27.613,1.601-35.922-0.971c0.051,71.651,0.188,123.728,0,133.494
		c-0.026,1.362-0.119,5.46,2.455,8.883c3.282,4.365,9.021,5.209,12.631,5.557c11.015,1.064,40.802,1.246,80.634,0
		c1.583-0.319,4.9-1.22,7.934-4.007c0,0,4.071-3.795,5.296-10.924C351.401,553.092,351.292,475.149,349.602,369.121z"/>
</g>
<g id="Layer_2">
	<path id="XMLID_3_" class="st0" d="M17.563,397.796C59.958,344.398,102.353,291,144.748,237.602
		c3.23-2.668,12.009-9.192,25.075-10.374c15.759-1.426,27.152,5.876,30.315,8.062c18.49,16.34,36.98,32.68,55.47,49.02
		c1.295,1.01,2.847,1.786,4.515,1.612c2.116-0.22,3.526-1.875,3.87-2.257C266.822,280.522,338.319,207.172,437,106
		c0.307-0.259,2.835-2.467,2.667-6c-0.135-2.849-1.932-4.622-2.333-5c-7.946-7.946-15.892-15.892-23.839-23.839
		c-0.81-0.797-4.944-5.027-4.828-11.495c0.073-4.091,1.811-7.062,2.667-8.333c1.281-2.361,3.159-5.262,5.878-8.19
		c4.03-4.339,8.255-6.957,11.246-8.484c1.907-0.801,4.814-1.894,8.484-2.762c0,0,2.306-0.546,4.726-0.898
		c7.783-1.133,120.24-10.203,126-10.667c2.907,1.261,7.384,3.642,11.667,8c3.328,3.387,5.403,6.813,6.667,9.333
		c-3.222,49.667-6.444,99.333-9.667,149c-0.525,1.599-3.446,9.964-12.333,14.333c-10.688,5.255-20.877,0.243-22-0.333
		c-10.336-10.336-20.671-20.671-31.007-31.007c-0.458-0.521-2.018-2.166-4.659-2.66c-2.894-0.54-5.107,0.671-5.667,1
		c-72.111,74.444-144.222,148.889-216.333,223.333c-2.951,2.29-10.153,7.235-20.667,8.333c-12.333,1.288-21.545-3.519-24.667-5.333
		c-17.333-15.667-34.667-31.333-52-47c-1.031-0.824-2.624-1.819-4.667-2c0,0-2.254-0.2-4.667,1
		C172.227,349.04,94.832,448.626,86,460c-3.558,2.654-11.582,7.842-22.667,8.333c-8.668,0.384-15.102-2.286-20.667-4.667
		c-6.564-2.809-18.338-7.847-25.333-18.667C4.527,425.194,16.606,399.738,17.563,397.796z"/>
</g>
</svg>
