<?xml version="1.0" encoding="utf-8"?>
<!-- Generator: Adobe Illustrator 19.2.1, SVG Export Plug-In . SVG Version: 6.00 Build 0)  -->
<svg version="1.1" id="Layer_1" xmlns="http://www.w3.org/2000/svg" xmlns:xlink="http://www.w3.org/1999/xlink" x="0px" y="0px"
	 viewBox="0 0 2550 1182" style="enable-background:new 0 0 2550 1182;" xml:space="preserve">
<style type="text/css">
	.st0{fill:url(#SVGID_1_);}
	.st1{fill:url(#SVGID_2_);}
	.st2{fill:url(#SVGID_3_);}
	.st3{fill:url(#SVGID_4_);}
	.st4{fill:#FFFFFF;}
	.st5{font-family:'MyriadPro-Regular';}
	.st6{font-size:46.9584px;}
</style>
<g id="Group-15">
	<g id="Oval-Copy-10" transform="translate(1080 376)">
		
			<linearGradient id="SVGID_1_" gradientUnits="userSpaceOnUse" x1="-829.0125" y1="730.2625" x2="-829.0125" y2="729.2625" gradientTransform="matrix(80 0 0 -80 66838 58579)">
			<stop  offset="0" style="stop-color:#3BF58A"/>
			<stop  offset="1" style="stop-color:#3BA0C6"/>
		</linearGradient>
		<circle class="st0" cx="517" cy="198" r="40"/>
	</g>
</g>
<g id="Group-7">
	<g id="Oval" transform="translate(430 355)">
		
			<linearGradient id="SVGID_2_" gradientUnits="userSpaceOnUse" x1="1120.731" y1="751.254" x2="1121.2529" y2="750.254" gradientTransform="matrix(80 0 0 -80 -89162 60259)">
			<stop  offset="0" style="stop-color:#3AE2FF"/>
			<stop  offset="1" style="stop-color:#5631F3"/>
		</linearGradient>
		<circle class="st1" cx="517" cy="198" r="40"/>
	</g>
</g>
<g id="Group-13">
	<g id="Oval-Copy-9_1_" transform="translate(1317 760)">
		
			<linearGradient id="SVGID_3_" gradientUnits="userSpaceOnUse" x1="-1540.269" y1="346.254" x2="-1539.7471" y2="345.254" gradientTransform="matrix(80 0 0 -80 123718 27859)">
			<stop  offset="0" style="stop-color:#3AE2FF"/>
			<stop  offset="1" style="stop-color:#5631F3"/>
		</linearGradient>
		<circle class="st2" cx="517" cy="198" r="40"/>
	</g>
</g>
<g id="Group-9">
	<g id="Oval-Copy-8" transform="translate(167 730)">
		
			<linearGradient id="SVGID_4_" gradientUnits="userSpaceOnUse" x1="1909.73" y1="376.096" x2="1910.2799" y2="375.3839" gradientTransform="matrix(80 0 0 -80 -152282 30259)">
			<stop  offset="0" style="stop-color:#FAD961"/>
			<stop  offset="1" style="stop-color:#F76B1C"/>
		</linearGradient>
		<circle class="st3" cx="517" cy="198" r="40"/>
	</g>
</g>
<text transform="matrix(0.8084 0 0 1 1805.25 971.6758)" class="st4 st5 st6">&lt;/&gt;</text>
<g>
	<path class="st4" d="M684,952.4c0.4-0.5,0.7-0.9,1.1-1.3c5.6-6.3,11.2-12.7,16.8-19c2.9-3.3,4.4-7.3,3.6-12
		c-0.8-4.8-3.4-8.1-7.5-9.7c-4.2-1.6-8-0.6-11.3,2.7c-0.7,0.7-1.3,1.4-1.9,2.1c-0.6,0.7-1,0.7-1.6,0c-0.4-0.5-0.9-1-1.3-1.5
		c-2.8-3.3-6.2-4.5-10.2-3.9c-5,0.8-9.3,6.2-9.4,11.9c-0.1,4.1,1.3,7.5,3.8,10.4c5,5.7,10,11.3,15,16.9
		C682.1,950.1,683,951.2,684,952.4z"/>
	<path class="st4" d="M684,952.4c-1-1.2-1.9-2.3-2.9-3.4c-5-5.6-10-11.3-15-16.9c-2.5-2.9-3.9-6.3-3.8-10.4
		c0.1-5.7,4.4-11.1,9.4-11.9c4-0.6,7.4,0.7,10.2,3.9c0.4,0.5,0.8,1,1.3,1.5c0.6,0.7,1,0.7,1.6,0c0.6-0.7,1.2-1.4,1.9-2.1
		c3.3-3.3,7.1-4.3,11.3-2.7c4.1,1.5,6.7,4.9,7.5,9.7c0.8,4.7-0.7,8.7-3.6,12c-5.6,6.4-11.2,12.7-16.8,19
		C684.7,951.4,684.4,951.8,684,952.4z"/>
</g>
<g>
	<path class="st4" d="M972.5,550.6c0,1.6,0,3.3,0,4.9c-0.1,0.1-0.1,0.2-0.2,0.3c-0.8,6.4-3.5,11.8-8.3,16.2
		c-2.9,2.7-6.4,4.5-10.2,5.6c-1.4,0.4-2.9,0.6-4.3,0.9c-1.7,0-3.4,0-5.1,0c-0.4-0.1-0.9-0.3-1.3-0.3c-6.6-1-12-4.2-16.1-9.4
		c-2.6-3.3-4.4-7.1-5-11.3c-0.2-1.1-0.3-2.2-0.5-3.3c0-0.8,0-1.6,0-2.4c0.1-0.2,0.1-0.4,0.2-0.5c0.3-2,0.5-4,1.1-5.9
		c1.6-5.2,4.7-9.6,9.1-12.8c3.2-2.4,6.7-3.9,10.7-4.6c1.1-0.2,2.2-0.3,3.3-0.5c0.8,0,1.7,0,2.5,0c0.2,0.1,0.4,0.1,0.6,0.2
		c2,0.4,4,0.6,5.9,1.2c4.3,1.3,8,3.8,11.1,7.2c2.6,2.9,4.4,6.2,5.5,9.9C971.9,547.4,972.2,549,972.5,550.6z M949.5,532.3
		c0,0.1-0.1,0.2-0.1,0.3c0,6.6,0,13.2,0,19.8c0,0.3,0.3,0.6,0.5,0.8c3.1,2.6,6.2,5.3,9.3,7.9c1.6,1.3,3.2,2.7,4.8,4
		C972.9,553.1,966,534.4,949.5,532.3z M944.5,532.2c-8.3,1.4-14.1,5.8-17.1,13.5c-2.6,6.8-1.6,13.3,2.5,19.4c0.4-0.3,0.7-0.5,1-0.8
		c4.3-3.6,8.6-7.3,12.9-10.9c0.4-0.4,0.7-0.7,0.7-1.3c0-6.3,0-12.6,0-18.9C944.5,532.9,944.5,532.7,944.5,532.2z M949.5,573.8
		c4.3-0.5,8-2.2,11.3-5c-3.8-3.2-7.5-6.3-11.3-9.6C949.5,564.1,949.5,568.9,949.5,573.8z M944.5,559.3c-3.8,3.2-7.5,6.3-11.2,9.5
		c3,2.9,7.8,4.8,11.2,4.9C944.5,568.9,944.5,564.2,944.5,559.3z"/>
</g>
<g>
	<path class="st4" d="M1597.1,579.6c-6.5,0-12.9,0-19.4,0c-1.5,0-2.7-0.9-2.6-2.7c0-7.4,0-14.7,0-22.1c0-1.8,0.9-2.6,2.6-2.6
		c12.9,0,25.8,0,38.7,0c1.8,0,2.6,0.9,2.6,2.6c0,7.4,0,14.7,0,22.1c0,1.8-0.9,2.6-2.6,2.6C1610,579.6,1603.5,579.6,1597.1,579.6z
		 M1615.5,576.5c0-7.2,0-14.3,0-21.4c-12.4,0-24.7,0-37,0c0,7.2,0,14.3,0,21.4C1590.8,576.5,1603.1,576.5,1615.5,576.5z"/>
	<path class="st4" d="M1571,590.3c1-1.9,1.9-3.7,2.9-5.6c0.6-1.1,1.1-2.2,1.7-3.3c0.2-0.3,0.4-0.5,0.8-0.5c11.5,0,23.1,0.1,34.6,0.1
		c2.3,0,4.6,0,6.8,0c0.2,0,0.5,0.1,0.7,0.3c2,2.9,4,5.8,6.1,8.8c0,0,0,0.1,0,0.1C1606.7,590.3,1588.9,590.3,1571,590.3z M1619,586.9
		c-1-1.4-2-2.8-2.9-4.2c-0.3-0.4-0.5-0.5-1-0.5c-8.2,0-16.3,0-24.5,0c-4,0-8,0-12,0c-0.4,0-0.6,0.1-0.8,0.5
		c-0.3,0.6-0.6,1.1-0.8,1.7c-0.4,0.8-0.8,1.7-1.2,2.6C1590.2,586.9,1604.6,586.9,1619,586.9z M1603.2,589.3c-0.3-0.4-0.5-0.7-0.8-1
		c-0.1-0.1-0.3-0.3-0.5-0.3c-3,0-5.9,0-8.9,0c-0.1,0-0.3,0-0.4,0.1c-0.2,0.3-0.4,0.7-0.6,1.1
		C1595.8,589.3,1599.4,589.3,1603.2,589.3z"/>
	<path class="st4" d="M1597.8,591.7c8.7,0,17.4,0,26.1,0c0.8,0,1,0.1,1.1,1c0,0.3,0,0.7-0.1,1c-0.1,0.2-0.4,0.4-0.7,0.5
		c-0.1,0.1-0.3,0-0.4,0c-17.3,0-34.6,0-52,0c-0.4,0-0.9,0.1-1.1-0.4c-0.2-0.7-0.3-1.3,0.2-1.9c0.1-0.1,0.4-0.2,0.6-0.2
		c1.5,0,3.1,0,4.6,0C1583.4,591.7,1590.6,591.7,1597.8,591.7z"/>
</g>
</svg>
