<?xml version="1.0" encoding="utf-8"?>
<!-- Generator: Adobe Illustrator 19.2.1, SVG Export Plug-In . SVG Version: 6.00 Build 0)  -->
<svg version="1.1" id="Layer_1" xmlns="http://www.w3.org/2000/svg" xmlns:xlink="http://www.w3.org/1999/xlink" x="0px" y="0px"
	 viewBox="0 0 2550 1182" style="enable-background:new 0 0 2550 1182;" xml:space="preserve">
<style type="text/css">
	.st0{fill:url(#SVGID_1_);}
	.st1{fill:url(#SVGID_2_);}
	.st2{fill:url(#SVGID_3_);}
	.st3{fill:url(#SVGID_4_);}
	.st4{fill:#FFFFFF;}
</style>
<g id="Group-6">
	<g id="Oval-Copy-6" transform="translate(1276 160)">
		
			<linearGradient id="SVGID_1_" gradientUnits="userSpaceOnUse" x1="-1416.7529" y1="945.256" x2="-1417.21" y2="946.148" gradientTransform="matrix(80 0 0 -80 113878 75859)">
			<stop  offset="0" style="stop-color:#FF54F0"/>
			<stop  offset="1" style="stop-color:#E8793D"/>
		</linearGradient>
		<circle class="st0" cx="517" cy="198" r="40"/>
	</g>
</g>
<g id="Group-8">
	<g id="Oval-Copy_1_" transform="translate(244 214)">
		
			<linearGradient id="SVGID_2_" gradientUnits="userSpaceOnUse" x1="1678.9875" y1="892.2625" x2="1678.9875" y2="891.2625" gradientTransform="matrix(80 0 0 -80 -133802 71539)">
			<stop  offset="0" style="stop-color:#3BF58A"/>
			<stop  offset="1" style="stop-color:#3BA0C6"/>
		</linearGradient>
		<circle class="st1" cx="517" cy="198" r="40"/>
	</g>
</g>
<g id="Group-10">
	<g id="Oval-Copy-3_1_" transform="translate(166 422)">
		
			<linearGradient id="SVGID_3_" gradientUnits="userSpaceOnUse" x1="1912.7642" y1="684.0841" x2="1913.2302" y2="683.4131" gradientTransform="matrix(80 0 0 -80 -152522 54899)">
			<stop  offset="0" style="stop-color:#FF744D"/>
			<stop  offset="1" style="stop-color:#E2056E"/>
		</linearGradient>
		<circle class="st2" cx="517" cy="198" r="40"/>
	</g>
</g>
<g id="Group-11">
	<g id="Oval-Copy-2_1_" transform="translate(1370 379)">
		
			<linearGradient id="SVGID_4_" gradientUnits="userSpaceOnUse" x1="-1699.199" y1="727.195" x2="-1698.791" y2="726.249" gradientTransform="matrix(80 0 0 -80 136438 58339)">
			<stop  offset="0" style="stop-color:#FAD961"/>
			<stop  offset="1" style="stop-color:#F75F1C"/>
		</linearGradient>
		<circle class="st3" cx="517" cy="198" r="40"/>
	</g>
</g>
<g>
	<path class="st4" d="M685.3,635.7c-1.3,0-2.5,0-3.8,0c0,1.1,0,2.1,0,3.2c0,0.9,0,1.8,0,2.7c-0.1,1.4-1.2,2.4-2.4,2.4
		c-1.2,0-2.3-0.9-2.4-2.3c-0.1-1.4,0-2.9-0.1-4.3c0-0.5,0-1,0-1.7c-1.2,0-2.4,0-3.5,0c-2.3,0-3.7-1.4-3.7-3.6c0-6.7,0-13.4,0-20.2
		c0-0.2,0-0.4,0.1-0.7c0.4,0,0.7-0.1,1.1-0.1c8.5,0,17,0,25.6,0c1,0,1.3,0.2,1.3,1.2c0,6.4,0,12.9,0,19.3c0,2.6-1.4,4-4.1,4
		c-1,0-2,0-3.2,0c0,1.9,0.1,3.7,0,5.5c0,0.7-0.4,1.5-0.8,2.1c-0.6,0.8-1.5,0.9-2.5,0.5c-1-0.4-1.5-1.2-1.6-2.3c0-1.5,0-3,0-4.5
		C685.3,636.6,685.3,636.2,685.3,635.7z"/>
	<path class="st4" d="M669.5,608.9c0.2-5.5,2.7-9.5,7.3-12.2c-0.8-1.5-1.6-2.9-2.3-4.4c0.7-0.2,0.7-0.2,1.7,1.7
		c0.4,0.8,0.9,1.6,1.3,2.4c4.1-1.8,8.1-1.7,12.2,0.2c0.7-1.3,1.4-2.5,2.1-3.8c0.2-0.3,0.5-0.4,0.8-0.6c-0.1,0.3,0,0.7-0.2,1
		c-0.6,1.3-1.3,2.5-2,3.7c4.4,2.9,6.8,6.7,6.9,12.1C688,608.9,678.9,608.9,669.5,608.9z M691.7,602.4c0-0.2,0-0.3,0-0.5
		c-0.5-0.3-0.9-0.8-1.4-0.9c-0.8-0.1-1.3,0.5-1.1,1.2c0.1,0.4,0.8,1,1.2,1C690.8,603.4,691.3,602.8,691.7,602.4z M677.7,602.5
		c0-0.2,0-0.4,0-0.6c-0.5-0.3-1-0.9-1.4-0.8c-0.5,0.1-1.1,0.7-1.2,1.1c-0.1,0.7,0.5,1.3,1.2,1.2
		C676.9,603.3,677.3,602.8,677.7,602.5z"/>
	<path class="st4" d="M667.5,619.1c0,1.8,0,3.6,0,5.4c0,1.6-1,2.7-2.5,2.7c-1.4,0-2.3-1.1-2.3-2.7c0-3.6,0-7.2,0-10.8
		c0-1.6,0.9-2.6,2.3-2.7c1.5,0,2.5,1,2.5,2.7C667.5,615.5,667.5,617.3,667.5,619.1z"/>
	<path class="st4" d="M704.1,619.2c0,1.8,0,3.6,0,5.4c0,1.6-1,2.6-2.4,2.6c-1.4,0-2.4-1-2.4-2.6c0-3.6,0-7.3,0-10.9
		c0-1.6,1-2.6,2.4-2.6c1.4,0,2.4,1,2.4,2.6C704.1,615.5,704.1,617.3,704.1,619.2z"/>
</g>
<g>
	<path class="st4" d="M777,404.6c-4.1,0.1-5.1-2.7-6.1-5.6c-0.9-2.7-1.8-5.3-2.8-8c-0.8-2.2-1.3-2.4-3.7-2.1c-0.4,0.1-1-0.3-1.3-0.7
		c-0.3-0.4-0.4-1.1-0.6-1.6c-0.3-0.8,0-1.2,0.7-1.4c0.1,0,0.1,0,0.1-0.1c6.3-2.5,8.6-1.5,10.8,4.9c0.7,2.2,1.2,4.4,2,6.5
		c1.4,4,1.8,4.3,6,4c0.4,1.2,0.9,2.4,1.3,3.7c-0.6,0.4-1.2,0.8-1.7,1.2c-1.2,1.1-1.7,2.4-1.1,4c1.2,3.1,2.5,6.2,3.7,9.3
		c0.3,0.8,0.5,1.6,0.6,2.5c0.4,2.4-0.5,4.3-2.6,5.5c-1.3,0.7-2.7,1.1-4.2,1.6c-0.3,0.1-0.9-0.3-1-0.6c-0.4-0.7-0.6-1.6-0.9-2.3
		c0.1-0.2,0.2-0.4,0.3-0.4c2.8-1.8,2.9-1.9,1.8-5.1c-0.9-2.6-1.9-5.2-2.9-7.8C774.6,409.5,774.1,406.9,777,404.6z"/>
	<path class="st4" d="M745.1,416.7c3.7,0,5,2.4,5.9,5.2c1,3.1,2.1,6.1,3.2,9.1c0.5,1.3,1.4,1.9,2.9,1.5c1.4-0.3,2.8,1.5,2.5,2.8
		c-0.1,0.2-0.3,0.5-0.5,0.5c-1.5,0.5-3,1.2-4.5,1.4c-2.8,0.4-4.9-0.9-6-3.9c-1-2.7-1.8-5.5-2.7-8.3c-1.3-4.2-2-4.8-6.3-4.5
		c-0.4-1.2-0.9-2.4-1.3-3.7c0.3-0.2,0.5-0.3,0.7-0.5c2.5-1.7,3-3.5,1.7-6.3c-1.2-2.6-2.3-5.2-3.3-7.9c-1.7-4.5-0.5-7,4.1-8.7
		c0.2-0.1,0.4-0.1,0.6-0.2c2.4-0.9,2.4-0.9,3.2,1.5c0.3,0.9,0.2,1.5-0.8,1.8c-1.5,0.5-2,1.5-1.5,3c1.1,3,2.2,6.1,3.3,9.1
		C747.4,411.6,747.9,414.3,745.1,416.7z"/>
</g>
<g>
	<path class="st4" d="M1769.9,349c3.9-4.1,6.4-8.5,10.8-11.7c0,1.9,0,3.9,0,5.8c0,3.8,1.5,5.2,5.3,5.3c1.7,0,3.4,0,5.1,0
		c1.8,0,2.7,0.8,2.9,2.6c0.3,3.1,1.5,4.1,4.6,4.2c2.8,0.1,3.3,0.6,3.3,3.5c0,2,0.7,4.5-0.3,5.9c-0.7,1.1-3.4-0.2-5.2-0.1
		c-3.8,0.2-3.8,0-3.8-3.9c0-4.2-1.1-6.1-4.1-6.6c-2.1-0.3-4.3-0.1-6.4-0.2c-0.8,0-1,0.4-1,1.1c0,0.8,0.3,1,1.1,1c1.7,0,3.4,0,5.1,0
		c2.2,0.1,3.1,1,3.2,3.1c0.3,7.4,0.3,7.4,7.6,7.5c2.7,0,3.8,1,3.8,3.8c0.1,2.7,0,5.5,0,8.2c0,1-0.1,1.7-1.4,1.8
		c-1.2,0-1.8-0.2-1.8-1.6c0-1.6-0.2-3.1-0.3-4.7c-0.2-3.4-1.6-4.8-5-4.2c-4.6,0.8-8.7-0.1-12.2-3.2c-0.7-0.6-1.2-0.4-2-0.1
		c-1.9,0.8-3.5,0.3-4.5-1.6c-0.5-1-1-1.3-2.1-1.5c-4.1-0.4-6-5.1-3.5-8.4c0.4-0.5,1.2-0.8,1-1.6c-0.4-1.3-0.9-2.4,1.3-2.4
		c4.1,0,4.7,0.2,4.8,2.6c0.1,1.6,0,3.1,0.2,4.7c0.3,2.2,1.7,3.4,4,3.4c1.6,0,3.1,0,4.7,0c0.8,0,1.3-0.1,1.3-1.1
		c0-0.9-0.5-1.1-1.3-1.1c-1.4,0-2.8,0-4.2,0c-1.6,0.1-2.3-0.8-2.4-2.3c0-1.3,0-2.5,0-3.8c-0.1-3-1.3-4.4-4.3-4.6
		C1773,349,1771.8,349,1769.9,349z"/>
	<path class="st4" d="M1814.2,342.1c-2.2,0-3.9,0-5.6,0c-3,0-4.3,1.2-4.2,4.2c0,1.1-1.1,3.2,1,3.3c2.3,0.1,1-2,1.1-3.1
		c0.1-1.7,0.8-2.3,2.3-2.2c0.9,0.1,1.8,0,2.7,0c3.2,0,3.2,0,3.6,3c0.1,0.7,0.5,1,0.9,1.5c2.9,3.6,2.5,7.7-0.9,10.9
		c-5.4,5.1-8.1,11.4-8.4,18.8c0,0.8,0.4,2-1.2,2c-1.5,0-1.3-1-1.3-2c0-5.6,0-11.2-0.1-16.7c0-1.4,0.4-1.8,1.8-1.8
		c3.6,0,5.1-1.8,4.9-5.3c0-0.7,0-1.3-1-1.3c-1.1,0-1.2,0.5-1.2,1.4c0.1,1.7-0.1,3.2-2.4,3.2c-1.2,0-2,0-2.2-1.6
		c-0.3-2-1.8-3-3.9-2.9c-2.2,0.1-3.7-0.3-3.8-3c-0.1-2.4-2.1-3.9-4.6-4c-2-0.1-4-0.1-6,0c-1.8,0-2.6-0.8-2.5-2.6c0-2,0-4,0-6
		c0-0.8-0.3-1.8,0.9-2c1.1-0.1,2.5-0.3,2.9,1c1.2,3.2,3.7,3.7,6.7,3.6c3.8-0.1,3.8,0.1,3.9,3.9c0,1-0.9,2.8,1,2.8
		c2.1,0,1-1.9,1.1-2.9c0.2-1.1,0.3-2.4-0.3-3.5c-0.8-1.5-1.9-2.4-3.7-2.4c-1.5,0-3,0.1-4.5-0.1c-1-0.1-1.9-0.8-2-1.8
		c-0.1-0.9,0.9-1,1.6-1.3c4.1-1.8,8.2-1.5,11.9,0.9c1.5,1,3,1.4,4.7,1.4C1810.2,337.4,1812.4,339.1,1814.2,342.1z"/>
</g>
<g>
	<path class="st4" d="M1889.3,594.9c0.4-1.3,0.7-2.5,1-3.7c0.1-0.3,0.3-0.7,0.6-0.9c2-1.7,4.1-3.4,6.2-5c6.1-4.7,7.1-13.1,2.3-19.2
		c-4.6-5.7-13.2-7.1-19.2-2.9c-5.3,3.7-7.2,10-4.9,16c0.7,1.9,1.4,3.9,2.2,5.8c0.5,1.3,0.6,2.5,0.1,3.8c-0.3,0.8-0.5,1.7-0.7,2.6
		C1881.1,592.6,1885.2,593.7,1889.3,594.9z M1875.6,598.5c-0.5,1.4,0.2,3.1,1.7,3.8c0.3,0.1,0.5,0.3,0.5,0.7c0,1.2,0.9,2.2,2,2.5
		c1.1,0.3,2.3-0.1,2.9-1.1c0.2-0.3,0.4-0.4,0.7-0.3c1.6,0.2,3.1-0.9,3.4-2.3C1883.1,600.6,1879.3,599.5,1875.6,598.5z M1881.8,598
		c1.6,0.5,3.2,0.9,4.8,1.4c0.9,0.3,1.7-0.1,2-0.9c0.2-0.8-0.2-1.5-1.2-1.8c-3.2-0.9-6.5-1.8-9.7-2.7c-1-0.3-1.7,0.1-2,0.9
		c-0.2,0.8,0.3,1.5,1.2,1.8C1878.6,597.1,1880.2,597.5,1881.8,598z M1896.4,597.8c0.6,0.1,1.3,0,1.8-0.5c0.5-0.5,0.7-1.2,0.5-1.9
		c-0.5-1.5-1.1-2.9-1.7-4.3c-0.4-1-1.5-1.4-2.5-1.1c-1,0.3-1.5,1.3-1.1,2.3c0.5,1.4,1.1,2.8,1.6,4.2
		C1895.2,597.2,1895.7,597.6,1896.4,597.8z M1871.5,565.7c1.3,0.4,2.3,0,2.7-0.8c0.4-0.7,0.2-1.8-0.6-2.3c-1.3-0.9-2.7-1.8-4.1-2.6
		c-0.8-0.5-1.8-0.3-2.4,0.4c-0.6,0.7-0.7,1.8,0,2.4C1868.7,563.9,1870.3,564.9,1871.5,565.7z M1907.4,575.8c1.5-0.1,3.4-0.1,5.3-0.3
		c0.9-0.1,1.4-1.1,1.2-2c-0.1-0.9-0.8-1.6-1.7-1.6c-1.7,0-3.4,0-5.1,0.1c-0.9,0.1-1.6,0.9-1.6,1.7
		C1905.5,574.6,1906.1,575.4,1907.4,575.8z M1869.7,590.3c0.4,0.1,1,0.1,1.5-0.3c1.3-0.9,2.5-1.9,3.7-2.9c0.8-0.6,0.8-1.8,0.2-2.6
		c-0.6-0.8-1.8-1-2.6-0.4c-1.3,0.9-2.6,1.9-3.8,2.9C1867.6,588.1,1868.1,589.8,1869.7,590.3z M1907.2,589c1.3,0.4,2.3,0,2.7-0.9
		c0.4-0.8,0.2-1.8-0.6-2.3c-1.3-0.9-2.7-1.8-4-2.6c-0.8-0.5-1.8-0.3-2.4,0.4c-0.6,0.7-0.7,1.8,0,2.4
		C1904.4,587.2,1906,588.2,1907.2,589z M1902.8,564.9c0.6,0.1,1.1,0.1,1.6-0.3c1.3-0.9,2.5-1.9,3.7-2.9c0.8-0.6,0.8-1.8,0.2-2.6
		c-0.6-0.8-1.7-1-2.6-0.4c-1.3,0.9-2.6,1.9-3.8,2.9C1900.8,562.7,1901.3,564.5,1902.8,564.9z M1864.8,577.1c1.5-0.1,3.4-0.1,5.3-0.3
		c0.9-0.1,1.4-1.1,1.2-2c-0.1-0.8-0.8-1.6-1.7-1.6c-1.7,0-3.4,0-5.1,0.1c-0.9,0.1-1.6,0.9-1.6,1.7
		C1862.9,575.9,1863.5,576.7,1864.8,577.1z M1883.6,557.6c0-0.3,0-0.7-0.1-1c-0.6-1.5-1.1-3-1.8-4.5c-0.4-0.9-1.5-1.3-2.4-1
		c-0.9,0.3-1.4,1.3-1.2,2.2c0.1,0.4,0.3,0.8,0.4,1.2c0.4,1.1,0.8,2.2,1.3,3.3c0.3,0.8,1.1,1.2,1.9,1.1
		C1882.7,558.8,1883.3,558.3,1883.6,557.6z"/>
	<path class="st4" d="M1895.6,550.8c1,0.7,1.2,1.7,0.8,2.8c-0.4,1.2-0.7,2.3-1,3.5c-0.3,1.2-1.4,1.8-2.5,1.4
		c-1.1-0.3-1.6-1.3-1.3-2.5c0.3-1.2,0.7-2.3,1-3.5c0.3-1.1,0.9-1.8,2.1-1.9C1895,550.6,1895.3,550.7,1895.6,550.8z"/>
	<path class="st4" d="M1889.3,594.9c-4.2-1.2-8.3-2.3-12.5-3.5c0.2-0.9,0.4-1.7,0.7-2.6c0.5-1.3,0.4-2.5-0.1-3.8
		c-0.8-1.9-1.5-3.9-2.2-5.8c-2.3-6-0.4-12.3,4.9-16c6-4.1,14.6-2.8,19.2,2.9c4.9,6.1,3.9,14.5-2.3,19.2c-2.1,1.6-4.1,3.3-6.2,5
		c-0.3,0.2-0.5,0.6-0.6,0.9C1890,592.4,1889.7,593.7,1889.3,594.9z"/>
	<path class="st4" d="M1875.6,598.5c3.7,1.1,7.5,2.1,11.2,3.2c-0.3,1.5-1.8,2.5-3.4,2.3c-0.3,0-0.5,0-0.7,0.3
		c-0.6,1-1.8,1.4-2.9,1.1c-1.1-0.3-2-1.3-2-2.5c0-0.4-0.2-0.5-0.5-0.7C1875.8,601.6,1875.1,599.9,1875.6,598.5z"/>
	<path class="st4" d="M1881.8,598c-1.6-0.5-3.2-0.9-4.9-1.4c-0.9-0.3-1.4-1-1.2-1.8c0.2-0.8,1-1.2,2-0.9c3.2,0.9,6.5,1.8,9.7,2.7
		c0.9,0.3,1.4,1,1.2,1.8c-0.2,0.8-1,1.1-2,0.9C1885,598.9,1883.4,598.5,1881.8,598z"/>
	<path class="st4" d="M1896.4,597.8c-0.7-0.2-1.2-0.6-1.4-1.2c-0.6-1.4-1.1-2.8-1.6-4.2c-0.4-1,0.2-2,1.1-2.3c1-0.4,2.1,0.1,2.5,1.1
		c0.6,1.4,1.1,2.9,1.7,4.3c0.3,0.7,0.1,1.4-0.5,1.9C1897.6,597.9,1897,598,1896.4,597.8z"/>
	<path class="st4" d="M1871.5,565.7c-1.2-0.8-2.8-1.9-4.3-3c-0.7-0.6-0.6-1.7,0-2.4c0.6-0.7,1.6-0.9,2.4-0.4
		c1.4,0.8,2.7,1.7,4.1,2.6c0.8,0.5,1,1.5,0.6,2.3C1873.8,565.7,1872.9,566.1,1871.5,565.7z"/>
	<path class="st4" d="M1907.4,575.8c-1.3-0.4-1.9-1.2-1.8-2.1c0-0.8,0.7-1.6,1.6-1.7c1.7-0.1,3.4-0.1,5.1-0.1c0.9,0,1.6,0.7,1.7,1.6
		c0.1,0.9-0.3,1.9-1.2,2C1910.8,575.7,1908.9,575.7,1907.4,575.8z"/>
	<path class="st4" d="M1869.7,590.3c-1.6-0.5-2.1-2.3-1-3.2c1.2-1,2.5-2,3.8-2.9c0.8-0.6,1.9-0.4,2.6,0.4c0.6,0.8,0.6,1.9-0.2,2.6
		c-1.2,1-2.5,1.9-3.7,2.9C1870.7,590.4,1870.1,590.4,1869.7,590.3z"/>
	<path class="st4" d="M1907.2,589c-1.2-0.8-2.9-1.9-4.4-3c-0.7-0.6-0.6-1.7,0-2.4c0.6-0.7,1.6-0.9,2.4-0.4c1.4,0.8,2.7,1.7,4,2.6
		c0.8,0.6,1,1.5,0.6,2.3C1909.5,589,1908.6,589.4,1907.2,589z"/>
	<path class="st4" d="M1902.8,564.9c-1.5-0.4-2-2.2-0.9-3.2c1.2-1,2.5-2,3.8-2.9c0.8-0.6,1.9-0.3,2.6,0.4c0.6,0.8,0.6,1.9-0.2,2.6
		c-1.2,1-2.5,1.9-3.7,2.9C1903.9,565,1903.4,565.1,1902.8,564.9z"/>
	<path class="st4" d="M1864.8,577.1c-1.3-0.3-1.9-1.1-1.9-2c0-0.9,0.7-1.7,1.6-1.7c1.7-0.1,3.4-0.1,5.1-0.1c0.8,0,1.5,0.8,1.7,1.6
		c0.1,0.9-0.4,1.9-1.2,2C1868.2,577,1866.3,577,1864.8,577.1z"/>
	<path class="st4" d="M1883.6,557.6c-0.3,0.8-0.9,1.3-1.8,1.3c-0.8,0.1-1.6-0.3-1.9-1.1c-0.5-1.1-0.9-2.2-1.3-3.3
		c-0.1-0.4-0.3-0.8-0.4-1.2c-0.3-1,0.2-1.9,1.2-2.2c0.9-0.3,2,0,2.4,1c0.6,1.5,1.2,3,1.8,4.5
		C1883.6,556.9,1883.6,557.2,1883.6,557.6z"/>
</g>
</svg>
