<!--?xml version="1.0" encoding="utf-8"?-->
<!-- Generator: Adobe Illustrator 22.0.1, SVG Export Plug-In . SVG Version: 6.00 Build 0)  -->
<svg version="1.1" id="Layer_1" xmlns="http://www.w3.org/2000/svg" xmlns:xlink="http://www.w3.org/1999/xlink" x="0px" y="0px" viewBox="0 0 457.5 488" style="" xml:space="preserve">
<style type="text/css">
	.st0{fill:none;stroke:#3F95E9;stroke-miterlimit:10;}
	.st1{fill:none;stroke:#040404;stroke-miterlimit:10;}
</style>
<g id="Layer_x0020_1">
	<g id="_2401625846896">
		<path class="st0 HrGZnGfU_0" d="M0,308.2c0,14.8,8.5,28.1,23.2,28.1c27.9,0,46.5-8.1,70.1-19.2c26.1-12.1,47.3-24.5,72-39.3
			c6.1-3.7,14.3-7.4,15.7-12.5c-11.1,0.9-67,26.6-93.4,13.9c-30.2-14.5,28.4-87,36.9-98.5l20.7-24.6c2.9-3.2,5.3-4,8.6-7.3
			c39.8-39.4,163.3-138.6,218.4-109c3.5,1.9,5.6,3.7,8.7,6c3.5,2.7,4.9,5.5,9.2,6.7c8.5-16,13.6-52.6-19.6-52.6
			c-40.9,0-90.8,29.5-126,47.7C229.9,55.3,206,70.2,192,79.5c-21,13.9-64.5,46.7-82.3,64.5c-3.8,3.8-6.6,7-10.7,10.1
			c-4,3-7,6.3-10.7,10.1c-3.9,3.9-5.6,6.9-9.8,11C53.9,199.6,0,270.9,0,308.2L0,308.2z"></path>
		<path class="st1 HrGZnGfU_1" d="M225.1,239.7c3.3,1.5,4.7,0.2,8.4-1.3l27.8-11.4c11.2-3.9,55.8-17.5,68.1-3.6c15.8,17.7-3.3,54.5-12.6,67.7
			l-21.7,26c-5.4,5.3-6.7,8.6-15.3,16.5l-33.7,29.9c-2.9,2.5-5.8,4.9-8.7,7.2c-31.3,25.5-94.7,70.6-130.3,92.3
			c-6.1,3.7-36.1,21.5-38.6,25c12.2,0,44.5-18.6,55.4-24.1c28.6-14.3,77.5-40.7,103.8-57.7c8.6-5.5,16.1-9.9,24.7-15.6
			c8.5-5.7,16-10.8,24-16.4c15.6-11.1,30.5-23.2,45.4-35.3c2.1-1.7,2.9-2.9,5.1-4.7c27.6-23.4,52.4-49,71.3-80.4
			c10-16.7,38.7-77.4,2.8-89.9c-28.8-10-81.7,17.7-101.5,29.2L261.5,215C255.1,219,227.9,235.8,225.1,239.7L225.1,239.7z"></path>
		<path class="st1 HrGZnGfU_2" d="M360.8,108.9c0,14.6,15.2,26.2,28.6,30.1c48.3,14.2,92-27.8,53.1-53.1C413.4,66.8,360.8,80.3,360.8,108.9
			L360.8,108.9z"></path>
	</g>
</g>
<style data-made-with="vivus-instant">.HrGZnGfU_0{stroke-dasharray:1320 1322;stroke-dashoffset:1321;animation:HrGZnGfU_draw_0 3700ms linear 0ms infinite,HrGZnGfU_fade 3700ms linear 0ms infinite;}.HrGZnGfU_1{stroke-dasharray:1210 1212;stroke-dashoffset:1211;animation:HrGZnGfU_draw_1 3700ms linear 0ms infinite,HrGZnGfU_fade 3700ms linear 0ms infinite;}.HrGZnGfU_2{stroke-dasharray:256 258;stroke-dashoffset:257;animation:HrGZnGfU_draw_2 3700ms linear 0ms infinite,HrGZnGfU_fade 3700ms linear 0ms infinite;}@keyframes HrGZnGfU_draw{100%{stroke-dashoffset:0;}}@keyframes HrGZnGfU_fade{0%{stroke-opacity:1;}94.5945945945946%{stroke-opacity:1;}100%{stroke-opacity:0;}}@keyframes HrGZnGfU_draw_0{13.513513513513514%{stroke-dashoffset: 1321}40.54054054054054%{ stroke-dashoffset: 0;}100%{ stroke-dashoffset: 0; fill: #3F95E9;}}@keyframes HrGZnGfU_draw_1{20.27027027027027%{stroke-dashoffset: 1211}47.2972972972973%{ stroke-dashoffset: 0;}100%{ stroke-dashoffset: 0; fill: #040404;}}@keyframes HrGZnGfU_draw_2{27.027027027027028%{stroke-dashoffset: 257}54.054054054054056%{ stroke-dashoffset: 0;}100%{ stroke-dashoffset: 0; fill: #040404;}}</style></svg>
