<?xml version="1.0" encoding="utf-8"?>
<!-- Generator: Adobe Illustrator 19.0.0, SVG Export Plug-In . SVG Version: 6.00 Build 0)  -->
<svg version="1.1" id="Layer_1" xmlns="http://www.w3.org/2000/svg" xmlns:xlink="http://www.w3.org/1999/xlink" x="0px" y="0px"
	 viewBox="-70 162 470 470" style="enable-background:new -70 162 470 470;" xml:space="preserve">
<style type="text/css">
	.st0{fill:#3B95ED;}
</style>
<g>
	<path class="st0" d="M-53.9,381.4h50.8l18.3,36.5c1.3,2.5,3.9,4.1,6.7,4.1s5.4-1.6,6.7-4.1l18.3-36.5h3.7c4.1,0,7.5-3.4,7.5-7.5
		s-3.4-7.5-7.5-7.5h-8.4c-2.8,0-5.4,1.6-6.7,4.1l-13.6,27.2L8.3,370.6c-1.3-2.5-3.9-4.1-6.7-4.1h-55.5c-0.6,0-1.1-0.5-1.1-1.1V178.1
		c0-0.6,0.5-1.1,1.1-1.1H97.7c0.6,0,1.1,0.5,1.1,1.1v81.3c0,4.1,3.4,7.5,7.5,7.5s7.5-3.4,7.5-7.5v-81.3c0-8.9-7.2-16.1-16.1-16.1
		H-53.9c-8.9,0-16.1,7.2-16.1,16.1v187.2C-70,374.2-62.8,381.4-53.9,381.4z"/>
	<path class="st0" d="M21.9,192c-20.7,0-37.5,16.8-37.5,37.5S1.2,267,21.9,267s37.5-16.8,37.5-37.5S42.6,192,21.9,192z M21.9,252
		c-12.4,0-22.5-10.1-22.5-22.5c0-12.4,10.1-22.5,22.5-22.5s22.5,10.1,22.5,22.5C44.4,241.9,34.3,252,21.9,252z"/>
	<path class="st0" d="M21.9,297c8.8,0,17.4,2.5,24.8,7.1c3.5,2.2,8.1,1.1,10.3-2.4s1.1-8.1-2.4-10.3c-9.8-6.1-21.2-9.4-32.8-9.4
		c-34.1,0-61.9,27.8-61.9,61.9c0,4.1,3.4,7.5,7.5,7.5h83.1c4.1,0,7.5-3.4,7.5-7.5s-3.4-7.5-7.5-7.5h-75
		C-20.8,314.1-1.4,297,21.9,297L21.9,297z"/>
	<path class="st0" d="M383.9,162H232.3c-8.9,0-16.1,7.2-16.1,16.1v81.3c0,4.1,3.4,7.5,7.5,7.5s7.5-3.4,7.5-7.5v-81.3
		c0-0.6,0.5-1.1,1.1-1.1h151.6c0.6,0,1.1,0.5,1.1,1.1v187.2c0,0.6-0.5,1.1-1.1,1.1h-55.5c-2.8,0-5.4,1.6-6.7,4.1l-13.6,27.2
		l-13.6-27.2c-1.3-2.5-3.9-4.1-6.7-4.1h-8.4c-4.1,0-7.5,3.4-7.5,7.5s3.4,7.5,7.5,7.5h3.7l18.3,36.5c1.3,2.5,3.9,4.1,6.7,4.1
		s5.4-1.6,6.7-4.1l18.3-36.5h50.8c8.9,0,16.1-7.2,16.1-16.1V178.1C400,169.2,392.8,162,383.9,162z"/>
	<path class="st0" d="M308.1,192c-20.7,0-37.5,16.8-37.5,37.5s16.8,37.5,37.5,37.5s37.5-16.8,37.5-37.5S328.8,192,308.1,192z
		 M308.1,252c-12.4,0-22.5-10.1-22.5-22.5c0-12.4,10.1-22.5,22.5-22.5c12.4,0,22.5,10.1,22.5,22.5C330.6,241.9,320.5,252,308.1,252z
		"/>
	<path class="st0" d="M271.9,343.9c0,4.1,3.4,7.5,7.5,7.5h83.1c4.1,0,7.5-3.4,7.5-7.5c0-34.1-27.8-61.9-61.9-61.9
		c-11.6,0-23,3.2-32.8,9.4c-3.5,2.2-4.6,6.8-2.4,10.3c2.2,3.5,6.8,4.6,10.3,2.4c7.4-4.7,16-7.1,24.8-7.1c23.3,0,42.7,17.1,46.3,39.4
		h-75C275.3,336.4,271.9,339.8,271.9,343.9L271.9,343.9z"/>
	<path class="st0" d="M73.1,298v187.2c0,8.9,7.2,16.1,16.1,16.1H140l18.3,36.5c1.3,2.5,3.9,4.1,6.7,4.1c2.8,0,5.4-1.6,6.7-4.1
		l18.3-36.5h50.8c8.9,0,16.1-7.2,16.1-16.1V298c0-8.9-7.2-16.1-16.1-16.1H89.2C80.3,281.9,73.1,289.1,73.1,298z M241.9,298v187.2
		c0,0.6-0.5,1.1-1.1,1.1h-55.5c-2.8,0-5.4,1.6-6.7,4.1L165,517.7l-13.6-27.2c-1.3-2.5-3.9-4.1-6.7-4.1H89.2c-0.6,0-1.1-0.5-1.1-1.1
		V298c0-0.6,0.5-1.1,1.1-1.1h151.6C241.4,296.9,241.9,297.4,241.9,298L241.9,298z"/>
	<path class="st0" d="M165,386.9c20.7,0,37.5-16.8,37.5-37.5s-16.8-37.5-37.5-37.5s-37.5,16.8-37.5,37.5S144.3,386.9,165,386.9z
		 M165,326.9c12.4,0,22.5,10.1,22.5,22.5c0,12.4-10.1,22.5-22.5,22.5c-12.4,0-22.5-10.1-22.5-22.5C142.5,337,152.6,326.9,165,326.9z
		"/>
	<path class="st0" d="M110.6,471.3h108.8c4.1,0,7.5-3.4,7.5-7.5c0-34.1-27.8-61.9-61.9-61.9s-61.9,27.8-61.9,61.9
		C103.1,468,106.4,471.3,110.6,471.3L110.6,471.3z M165,416.9c23.3,0,42.7,17.1,46.3,39.4h-92.6C122.3,434,141.7,416.9,165,416.9
		L165,416.9z"/>
	<path class="st0" d="M311.5,602.5c4.4,0,8-3.6,8-8s-3.6-8-8-8s-8,3.6-8,8S307.1,602.5,311.5,602.5z"/>
	<path class="st0" d="M270.5,602.5c4.4,0,8-3.6,8-8s-3.6-8-8-8s-8,3.6-8,8S266.1,602.5,270.5,602.5z"/>
	<path class="st0" d="M352.5,602.5c4.4,0,8-3.6,8-8s-3.6-8-8-8s-8,3.6-8,8S348.1,602.5,352.5,602.5z"/>
	<path class="st0" d="M392.5,557h-455c-4.1,0-7.5,3.4-7.5,7.5v60c0,4.1,3.4,7.5,7.5,7.5h455c4.1,0,7.5-3.4,7.5-7.5v-60
		C400,560.4,396.6,557,392.5,557z M-55,572h277.5v45H-55V572z M385,617H237.5v-45H385V617z"/>
</g>
</svg>
