<?xml version="1.0" encoding="utf-8"?>
<!-- Generator: Adobe Illustrator 19.0.0, SVG Export Plug-In . SVG Version: 6.00 Build 0)  -->
<svg version="1.1" id="Capa_1" xmlns="http://www.w3.org/2000/svg" xmlns:xlink="http://www.w3.org/1999/xlink" x="0px" y="0px"
	 viewBox="-170 262.9 269.1 269.1" style="enable-background:new -170 262.9 269.1 269.1;" xml:space="preserve">
<style type="text/css">
	.st0{fill:#3B95ED;}
</style>
<g>
	<path class="st0" d="M-47,283.9h-25.2c-2.5,0-4.2,1.7-4.2,4.2c0,2.5,1.7,4.2,4.2,4.2H-47c2.5,0,4.2-1.7,4.2-4.2
		C-42.8,285.6-44.5,283.9-47,283.9z"/>
	<path class="st0" d="M-90.2,285.2c-0.8,0.8-1.3,1.7-1.3,2.9c0,1.3,0.4,2.1,1.3,2.9c0.8,0.8,2.1,1.3,2.9,1.3c1.3,0,2.1-0.4,2.9-1.3
		c0.8-0.8,1.3-1.7,1.3-2.9c0-1.3-0.4-2.1-1.3-2.9C-85.6,283.5-88.6,283.5-90.2,285.2z"/>
	<path class="st0" d="M-55.4,392.8c0.8,0.8,2.1,1.3,2.9,1.3c0.8,0,2.1-0.4,2.9-1.3c1.7-1.7,1.7-4.2,0-5.9l-16.8-16.8
		c-1.7-1.7-4.2-1.7-5.9,0s-1.7,4.2,0,5.9L-55.4,392.8z"/>
	<path class="st0" d="M-102.4,373.5c-1.7,1.7-1.7,4.2,0,5.9l60.1,60.1c0.8,0.8,2.1,1.3,2.9,1.3s2.1-0.4,2.9-1.3
		c1.7-1.7,1.7-4.2,0-5.9l-60.1-60.1C-98.2,371.8-100.7,371.8-102.4,373.5z"/>
	<path class="st0" d="M-57.5,519.4c7.1,0,12.6-5.5,12.6-12.6c0-7.1-5.5-12.6-12.6-12.6s-12.6,5.5-12.6,12.6
		C-70.1,513.9-64.6,519.4-57.5,519.4z M-57.5,502.6c2.5,0,4.2,1.7,4.2,4.2c0,2.5-1.7,4.2-4.2,4.2s-4.2-1.7-4.2-4.2
		C-61.7,504.7-60,502.6-57.5,502.6z"/>
	<path class="st0" d="M63.1,338.6H38.3l0.8-58.9c0-9.3-7.6-16.8-16.8-16.8h-159.6c-9.2,0-16.8,7.6-16.8,16.8v235.5
		c0,9.3,7.6,16.8,16.8,16.8H-10h30.2h42.8c11.8,0,20.2-9.3,20.2-22.3V360.9C83.2,347.8,74.8,338.6,63.1,338.6z M-80.6,355.8
		l-42.4-42.5h109.6c2.5,0,4.2-1.7,4.2-4.2c0-2.5-1.7-4.2-4.2-4.2h-119.3h-0.4h-2.1c-2.5,0-4.2,1.7-4.2,4.2v176.6
		c0,2.5,1.7,4.2,4.2,4.2h100.8v19.8c0,5.5,2.1,10.1,5.9,13.9h-108.8c-4.6,0-8.4-3.8-8.4-8.4V279.7c0-4.6,3.8-8.4,8.4-8.4H22.3
		c4.6,0,8.4,3.8,8.4,8.4l-0.8,58.9h-9.7v-29.4c0-2.5-1.7-4.2-4.2-4.2H7.6c-2.5,0-4.2,1.7-4.2,4.2c0,2.5,1.7,4.2,4.2,4.2h4.2v25.2
		H-9.6c-12.6,0-24.8,11.4-24.8,23.1v119.8H-131V317.1l44.5,44.6c0.8,0.8,2.1,1.3,2.9,1.3s2.1-0.4,2.9-1.3
		C-78.9,360-78.9,357.5-80.6,355.8z M74.8,509.7c0,6.7-3.8,13.9-11.8,13.9H20.2H-9.6c-7.1,0-16.4-6.3-16.4-13.9v-148
		c0-7.1,8-14.7,16.4-14.7h72.7c8,0,11.8,7.1,11.8,13.9L74.8,509.7L74.8,509.7z"/>
	<path class="st0" d="M26.5,504.7c-4.6,0-8.4,3.8-8.4,8.4c0,4.6,3.8,8.4,8.4,8.4s8.4-3.8,8.4-8.4C34.9,508.5,31.1,504.7,26.5,504.7z
		 M26.5,517.3c-2.1,0-4.2-1.7-4.2-4.2c0-2.1,1.7-4.2,4.2-4.2c2.1,0,4.2,1.7,4.2,4.2C30.7,515.6,28.6,517.3,26.5,517.3z"/>
	<path class="st0" d="M16,363.8h16.8c2.5,0,4.2-1.7,4.2-4.2s-1.7-4.2-4.2-4.2H16c-2.5,0-4.2,1.7-4.2,4.2S13.5,363.8,16,363.8z"/>
	<path class="st0" d="M5.5,364.2c1.3,0,2.1-0.4,2.9-1.3s1.3-2.1,1.3-2.9s-0.4-2.1-1.3-2.9c-1.7-1.7-4.2-1.7-5.9,0
		c-0.8,0.8-1.3,2.1-1.3,2.9c0,1.3,0.4,2.1,1.3,2.9C3.4,363.8,4.7,364.2,5.5,364.2z"/>
	<path class="st0" d="M66.4,368h-84c-2.5,0-4.2,1.7-4.2,4.2v126.2c0,2.5,1.7,4.2,4.2,4.2h84c2.5,0,4.2-1.7,4.2-4.2V372.2
		C70.6,369.7,68.9,368,66.4,368z M62.2,494.2h-75.6V376.4h75.6V494.2z"/>
</g>
</svg>
