<?xml version="1.0" encoding="utf-8"?>
<!-- Generator: Adobe Illustrator 22.0.1, SVG Export Plug-In . SVG Version: 6.00 Build 0)  -->
<svg version="1.1" id="Layer_1" xmlns="http://www.w3.org/2000/svg" xmlns:xlink="http://www.w3.org/1999/xlink" x="0px" y="0px"
	 viewBox="0 0 260.7 207.3" style="enable-background:new 0 0 260.7 207.3;" xml:space="preserve">
<style type="text/css">
	.st0{fill:#ECEBF0;}
	.st1{fill:#D3D3DB;}
	.st2{fill:#C7C6CF;}
	.st3{fill:#D4D3DC;}
	.st4{fill:#C6C6D0;}
	.st5{fill:#E5E6EB;}
	.st6{fill:#D0D0D9;}
	.st7{fill:#2A5079;}
	.st8{fill:#2F5983;}
	.st9{fill:#365982;}
	.st10{fill:#1E528E;}
	.st11{fill:#0E284F;}
	.st12{fill:none;stroke:#0E284F;stroke-miterlimit:10;}
</style>
<g>
	<path class="st0" d="M13.7,108.8c0,0,7-13.2,8.6-14.4c1.6-1.2,16.1-14.8,23.1-20.6c7-5.8,32.9-21,39.5-22.6s70.8-8.2,92.6,3.3
		s50.6,23.9,56,28s19.8,11.9,18.9,22.2s-9.1,25.5-18.1,34.6s-11.9,20.6-21.4,24.3s-33.3,6.2-43.2,4.5c-9.9-1.6-41.2-14.8-57.2-7
		c-16.1,7.8-24.7,9.9-33.8,7s-35-14-38.7-15.2c-3.7-1.2-18.5-10.3-22.6-15.2c-4.1-4.9-8.2-9.5-8.2-14.4
		C9.2,118.2,13.7,108.8,13.7,108.8z"/>
	<g>
		<path class="st1" d="M127.2,18.5c0.7,1.8,16,2.3,15.6,9.2c-0.2,2.5-12.1,16.7-10.4,17.7c2.2,1.3,4.2,2.7,0.3,4.4
			c-5.3,0.8-10.6,0.5-15.9-0.2c-8.7-1.1-15.9,4.4-16.6,12.5c-0.7,7.5,4.9,13.3,13.7,14.2c3.5,0.3,6.9,0.9,10.3,1.8
			c5,1.7,4.2,4.6,1.8,7.9c-2.9,3.2,2.8,1.3,2,3.3c0.3,3.4,0,6.7-1.7,9.8c-21.2-0.6-29.5-11.2-38.3-26.8C81,60.3,85.3,51,91,41.3
			c6.6-11.5,16.6-18.4,29.8-20.6c1.7-0.3,3.2-0.5,4.2-2C125.6,18.1,126.4,18,127.2,18.5z"/>
		<path class="st2" d="M125,85.9c-0.2-0.9-1.2-2.1,0-2.6c3.8-1.5,0.7-2.5-0.2-3.6c1.8-2.6,4.4-1.7,6.8-1.4c2.9,0.4,5.7,0.7,8.6,0.1
			c6.7-1.3,11-6.3,11.1-12.8c0.2-7.3-3.6-11.8-10.8-13.6c-2.9-0.7-12.1,1.2-13.7-2.9c0.2-1.4-0.8-17.4-0.7-21.6
			c0.1-3.3-0.3-6.8,3.9-6.7c15,1.7,26.9,12.1,33.3,26.2c2.8,6.2,7.7,12,3.3,19.2c-1.8,3-3.3,6.1-4.5,9.3c-5.3,14.2-22,24.9-36,23.7
			c-0.8-3.3-0.3-6.4,1.2-9.5c0.8-1.7,2.7-1.1,4-1.9C128.8,88.4,126.8,87.6,125,85.9z"/>
		<path class="st3" d="M78.1,146.2c-0.5-10.2,4.6-18.4,9.7-26.5c2.4-3.8,4.5-1.8,6.2,1.4c1.3,2.4,1.9,7.2,4.5,6.4
			c3.8-1.1,0.4-4.9,0.3-7.5c-0.2-10.1,2.8-13.6,16.2-17.2c2.1,1.5,5.3,1.6,6.5,4.4c2.5,5.7,3.7,11.7,3.9,17.9
			c0.6,12.9-1,25.8,1,38.7c0.3,2,0.2,4.1-1.6,5.7c-9.6-0.9-12.3-9.3-16.3-15.8c-4-6.5-5.2-14.4-8.1-22.2c-2.5,3.7-1.2,7.3-1.5,10.6
			c-0.4,3.8,0,7.9-4.2,10.2c-3.9,2.5-6.9-0.5-10.1-1.8C82.2,149.5,80.4,147.5,78.1,146.2z"/>
		<path class="st4" d="M119.9,106.5c-1.6-1.3-4.7-0.6-4.9-3.7c12.4-3.2,23.9-1.1,34.7,5.7c2.7,1.7,3.9,3.8,3.6,7.1
			c-1.8,17.5-5.5,34.3-16.7,48.5c-2,2.6-4.7,4.5-8,5.3c-4.1,1.2-3-2.1-3.1-3.9c-0.2-13.1,0.4-26.1-0.2-39.2
			C125,119.6,125.9,112,119.9,106.5z"/>
		<path class="st5" d="M127.2,184.3c8.6-0.2,17.2-0.3,25.6,2.4c2.6,0.8,5,1.5,5.1,4.3c0.2,2.8-2.5,3.5-4.6,4.2
			c-14.3,4.2-28.8,3-43.3,2c-4-0.3-8.2-0.3-12-2.2c-1.8-0.9-4.5-1.6-4.3-3.8c0.1-2.5,2.9-3.4,5-3.9c7.4-1.7,14.7-3.7,22.4-2.9
			C123.1,184.5,125.2,184.3,127.2,184.3z"/>
		<path class="st2" d="M156.8,153.5c-4.8-5.6-5.2-22.9-0.6-29.5c5.4-7.8,5.5-7.9,10.9,0.4c4.1,6.2,7.1,12.9,5.8,20.7
			C169.4,151.3,163.5,153.1,156.8,153.5z"/>
		<path class="st6" d="M119.9,106.5c3.8,0.2,5.4,2.8,5.8,6c1.9,16,2.4,32,0.7,48c-0.3,3.1-2.3,6.9,2.1,9c-1.2,1.4-2.5,1.5-3.8,0
			c-1.7-15.7-0.8-31.5-1.4-47.2C123.3,117,121.2,111.8,119.9,106.5z"/>
		<path class="st7" d="M156.8,153.5c5.4-2.8,11.4-4.3,16.1-8.5c0.6,4.9,0.1,9.6-5,11.8C163.6,158.7,159.6,157.6,156.8,153.5z"/>
		<path class="st8" d="M78.1,146.2c1.8-1.5,2.9,0.1,4.1,1c3.8,2.7,7.9,4.6,12.6,5.1c-1.3,4.2-4.3,5.6-8.5,5.1
			c-4.3-0.5-6.3-3.3-7.4-7.1C78.5,149,78.3,147.6,78.1,146.2z"/>
		<path class="st9" d="M127.2,18.5c-0.7,0.1-1.5,0.1-2.2,0.2c-4.1-3.6-4.5-7-1-8.6c2-0.9,4.2-0.7,5.5,1.3
			C131.3,14.4,129.9,16.8,127.2,18.5z"/>
		<path class="st10" d="M132.1,48.6c2.8,0.4,4.8,0.8,7.2,1.1c9.3,1.1,14.9,7.7,14.2,16.8c-0.6,8.4-7.4,14.3-16.4,14
			c-4.1-0.1-8.2-0.5-12.3-0.8c-4.5-0.5-9-0.9-13.4-1.6c-8.5-1.3-14.2-8.3-13.3-16.3c0.9-8.8,8-14.8,16.8-14.2
			C120.6,47.9,126.4,48.2,132.1,48.6z"/>
		<path class="st11" d="M125,85.9c3.3,2.3,8-1.7,11.6,2.8c-3.5,0.3-6.4,0.6-9.4,0.9c-2-2.7-5,2.6-7.1-1.3
			C121.7,87.5,123.4,86.7,125,85.9z"/>
		<path class="st6" d="M119.2,123.8c0,3.8-2.7,5.6-6.2,6c-3.4,0.4-5.4-1.9-5.4-5.2c0-4.5,2.4-7.5,6.8-8
			C119.7,116,118.2,120.8,119.2,123.8z"/>
	</g>
	<g>
		<g>
			<line class="st12" x1="118.5" y1="60" x2="111.1" y2="67.4"/>
			<line class="st12" x1="111.1" y1="59.9" x2="118.6" y2="67.3"/>
		</g>
	</g>
	<g>
		<line class="st12" x1="141.4" y1="60" x2="134" y2="67.4"/>
		<line class="st12" x1="134" y1="59.9" x2="141.5" y2="67.3"/>
	</g>
</g>
</svg>
