<svg id="Layer_1" data-name="Layer 1" xmlns="http://www.w3.org/2000/svg" viewBox="0 0 78.32 59.93"><defs><style>.cls-1{fill:#fff;}</style></defs><title>participation</title><path class="cls-1" d="M700.14,264.92c-2.9-11.33-11.29-17.9-21.77-17.26-6.23.38-10.43,4.05-14.13,8.42-2.33,2.77-3.94,3.19-6.48.11-3.28-4-7.09-7.43-12.62-8.29-10.75-1.67-20.15,5.12-23.28,17,0,2.38,0,4.76,0,7.14a19.16,19.16,0,0,0,5.7,9.74c6.14,6.09,12.17,12.29,18.28,18.41,9.44,9.46,19.69,9.84,29.41.72,6.78-6.38,13.19-13.15,19.72-19.79a18.33,18.33,0,0,0,5.16-10ZM659.2,283c3.49,3.79,7.16,7.42,10.67,11.2.9,1,3.07,1.91,1.51,3.56-1.79,1.89-2.49-.73-3.29-1.52-3.91-3.85-7.62-7.9-11.43-11.86-1-1.08-2.22-2.45-3.75-.95s0,2.7,1,3.71c4.41,4.66,8.87,9.26,13.36,13.93-2.54,1.92-3.55.32-4.7-.85-3.72-3.8-7.44-7.61-11.19-11.39-.79-.8-1.65-2-2.91-.9s-.85,2.4.16,3.48c3.39,3.63,6.82,7.24,10.52,11.16a8.82,8.82,0,0,1-7.08-2.85c-7.29-7.29-14.71-14.48-21.81-22-5.78-6.07-5.07-14.86,1.25-20.94,6.52-6.25,14.44-6.26,20.81,0a28.65,28.65,0,0,0,2.48,2.45c2.75,2.09,3.66,4.13.21,6.42-2.21,1.47-1.43,2.77.15,4.31,4.52,4.41,8.91,9,13.37,13.45,2,2,3.71,4.14,3.39,7.7-3.36-3.55-6.68-7.13-10.09-10.63-1.09-1.13-2.39-3.08-4.11-1.46C655.79,280.91,658.24,282,659.2,283Zm32.87-5.42c-4.2,4.5-8.63,8.79-13,13.15a9.81,9.81,0,0,1-1.71,1c-.28-7.06-5.09-11-9.5-15.22-2.17-2.06-3.77-3.71-.48-6.16,1.29-1,2.71-2.49.86-4.12-1.47-1.28-2.67,0-3.92.89s-1.85,3.62-3.8,1.7.72-2.82,1.65-3.85c2.67-3,5.46-5.83,8.36-8.58,6-5.73,14.47-5.43,20.52.6S697.63,271.62,692.07,277.59Z" transform="translate(-621.86 -247.61)"/></svg>