<svg id="Layer_1" data-name="Layer 1" xmlns="http://www.w3.org/2000/svg" viewBox="0 0 63.85 69.22"><defs><style>.cls-1{fill:#fff;}</style></defs><title>passion</title><path class="cls-1" d="M933.44,351.93c-.89-2-2.76-2.78-4.91-2.79H911.76c2.81-2.22,4.53-3.49,6.15-4.88,4.31-3.66,8.74-7.23,11.69-12.18a16.33,16.33,0,0,0-3-20.9c-6.05-5.46-14.56-6.07-20.93-.76-3,2.54-4.66,2-7.37-.18-5.67-4.52-12-4.65-18.17-1s-8.85,9.31-8,16.45c.56,4.86,3.23,8.68,6.71,11.92,4,3.77,8.24,7.37,12.94,11.56h-16.3c-2.15,0-4,.77-4.91,2.79s-.65,3.92,1.65,5h59.58C934.09,355.85,934.34,354,933.44,351.93Zm-34.08-5.06a87.08,87.08,0,0,1-18-14.94c-5-5.65-4.73-12.52.25-16.88,4.46-3.9,9.87-3.58,14.8.88,5.64,5.09,5.67,5.13,11.4-.13,3.5-3.22,7.38-4.53,11.85-2.43a10.63,10.63,0,0,1,6.46,9.85c.11,3.58-1.48,6.48-3.76,9a94.19,94.19,0,0,1-17.58,14.64A4.39,4.39,0,0,1,899.36,346.87Z" transform="translate(-870.08 -287.72)"/><path class="cls-1" d="M899.15,307.37c1.85-.4,1.29-2.4,1.49-3.81.13-.93-.08-2,1.18-2.44,1.38.2,1.23,1.38,1.46,2.27.41,1.56.14,3.84,2.17,4.05a3.92,3.92,0,0,0,4.2-3.69C910,296,907,293,902,288c-1.58-1.58-3,4-5,7s-4.14,5.74-2,9.46C895.84,306,897.07,307.82,899.15,307.37Z" transform="translate(-870.08 -287.72)"/></svg>