<svg id="Layer_1" data-name="Layer 1" xmlns="http://www.w3.org/2000/svg" viewBox="0 0 78.8 74.15"><defs><style>.cls-1{fill:none;}.cls-2{fill:#fff;}</style></defs><title>people1</title><path class="cls-1" d="M665.6,438.7c5.26-2.33,5.67-4.81,1.91-9.44s-5.32-5.63-10.63-2.72a14.66,14.66,0,0,0-8,12.89c-.22,4.13.28,7.07,5.39,5.67,3.58.78,6.23-.22,8.13-3.37A7.81,7.81,0,0,1,665.6,438.7Z" transform="translate(-643.96 -390.94)"/><path class="cls-1" d="M662,418c1.53.93,2.64,1.18,3-1.27a18.42,18.42,0,0,1,9.09-14.1c2.25-1.34,1.72-2.42.14-3.7-3.34-2.71-7-3.74-11.1-1.85-4.49,2.07-6.7,5.72-7,10.68A11.89,11.89,0,0,0,662,418Z" transform="translate(-643.96 -390.94)"/><path class="cls-1" d="M692.35,402.93c4.19,2.44,6.56,6.36,8.18,10.89.57,1.61-.47,4.43,1.64,4.67,2.34.28,4.08-1.91,5.45-3.83a12.37,12.37,0,0,0,2.2-8,11.21,11.21,0,0,0-6.51-9.35c-4-2-7.71-1.24-11.18,1.36C690,400.19,689.7,401.4,692.35,402.93Z" transform="translate(-643.96 -390.94)"/><path class="cls-1" d="M669.73,419.23c-.07,7.93,6,14.55,13.33,14.5,7.13,0,13.14-6.45,13.21-14.1.07-8-5.89-14.5-13.32-14.47C675.7,405.19,669.81,411.47,669.73,419.23Z" transform="translate(-643.96 -390.94)"/><path class="cls-1" d="M688.7,439.05c-13.86-1.82-23.25,2.66-26.6,12.79a36.64,36.64,0,0,0-1,5.35c-.48,2.8.64,3.82,3.52,3.73,6.14-.18,12.29-.05,18.44-.05,6,0,12-.18,17.93.07,3.41.14,4.24-1.11,4-4.31A19.22,19.22,0,0,0,688.7,439.05Z" transform="translate(-643.96 -390.94)"/><path class="cls-1" d="M705.14,425c-2.75-.57-4.65-.36-5.83,2.78-1,2.55-4.32,5.06-3.9,7s4.15,3.29,6.39,4.95a6.51,6.51,0,0,1,1.73,1.78c1.82,3,4.31,4.51,7.41,3.69,5.71,0,5.71,0,6.15-2.1A15.63,15.63,0,0,0,705.14,425Z" transform="translate(-643.96 -390.94)"/><path class="cls-2" d="M713.39,423.3c-3-1.95-4-2.86-1.5-6.4,5.17-7.26,3.05-17.62-3.88-22.77-7.14-5.31-15.63-4-21.89,3.79-3,3.75-4.68,2-6.83-.81-3.9-5.09-9.25-7.14-15.47-5.7S653.71,397,652,403.08a16.45,16.45,0,0,0,2.88,15.11c1.42,1.85,1.75,2.68-.58,4-7.52,4.32-10.55,11-10.3,19.62s0,8.63,8.59,8.85c1.65,0,4.35-1.29,4.39,2.22h0a54,54,0,0,1,0,7c-.52,4.29,1.32,5.3,5.35,5.22,11.46-.25,22.92-.09,34.38-.09,12.07,0,12.07,0,12.34-12.1-.19-2.22,1.28-2.3,2.89-2.28,2.33,0,4.66,0,7,0,1.29,0,2.52.07,3.05-1.77C724.5,440,720.8,428.14,713.39,423.3Zm-21.26-24.67c3.47-2.6,7.22-3.38,11.18-1.36a11.21,11.21,0,0,1,6.51,9.35,12.37,12.37,0,0,1-2.2,8c-1.37,1.92-3.11,4.11-5.45,3.83-2.11-.24-1.07-3.06-1.64-4.67-1.62-4.53-4-8.45-8.18-10.89C689.7,401.4,690,400.19,692.13,398.63ZM683,405.16c7.43,0,13.39,6.45,13.32,14.47-.07,7.65-6.08,14.06-13.21,14.1-7.32,0-13.4-6.57-13.33-14.5C669.81,411.47,675.7,405.19,683,405.16Zm-19.83-8.07c4.07-1.89,7.76-.86,11.1,1.85,1.58,1.28,2.11,2.36-.14,3.7a18.42,18.42,0,0,0-9.09,14.1c-.32,2.45-1.43,2.2-3,1.27a11.89,11.89,0,0,1-5.91-10.24C656.42,402.81,658.63,399.16,663.12,397.09Zm-8.89,48c-5.11,1.4-5.61-1.54-5.39-5.67a14.66,14.66,0,0,1,8-12.89c5.31-2.91,6.93-1.83,10.63,2.72s3.35,7.11-1.91,9.44a7.81,7.81,0,0,0-3.24,3C660.46,444.88,657.81,445.88,654.23,445.1ZM701,460.94c-6-.25-12-.07-17.93-.07-6.15,0-12.3-.13-18.44.05-2.88.09-4-.93-3.52-3.73a36.64,36.64,0,0,1,1-5.35c3.35-10.13,12.74-14.61,26.6-12.79A19.22,19.22,0,0,1,705,456.63C705.2,459.83,704.37,461.08,701,460.94Zm16.13-17.8c-.44,2.09-.44,2.09-6.15,2.1-3.1.82-5.59-.65-7.41-3.69a6.51,6.51,0,0,0-1.73-1.78c-2.24-1.66-6-2.94-6.39-4.95s2.94-4.46,3.9-7c1.18-3.14,3.08-3.35,5.83-2.78A15.63,15.63,0,0,1,717.09,443.14Z" transform="translate(-643.96 -390.94)"/></svg>