<svg id="Layer_1" data-name="Layer 1" xmlns="http://www.w3.org/2000/svg" viewBox="0 0 79.52 70.14"><defs><style>.cls-1{fill:#fff;}</style></defs><title>progress</title><path class="cls-1" d="M825.48,130.06c.1-3-1.84-3.93-4.2-3.64-3.27.42-7.21-1.23-9.57,2.58a2.42,2.42,0,0,0,0,2.84c2.12,2.41.39,3.74-1.13,5.39-4.88,5.25-10.54,9.65-15.66,14.63-2.17,2.12-3.92,1.91-5.92-.16-2.54-2.63-5.06-5.3-7.81-7.72-3.54-3.13-5.6-3.13-9.17-.12-1.9,1.61-3.54,3.51-5.38,5.2-1.14,1.06-2.54,2.11-4,.95-2.91-2.33-5.92-2.25-9.1-.45a56,56,0,0,1-.27-8c-.12-3.65.32-7.32-.31-11a3.7,3.7,0,0,0-3.73-3.38c-2.66-.09-2.82,1.74-2.7,3.7,0,18.35,0,36.71,0,55.07,1.48,3.15,4.44,2.51,7,2.52,15,.11,30,0,45,.07a67.93,67.93,0,0,1,9.93.32,23.06,23.06,0,0,1-6.82.52c-15.82,0-31.65,0-47.47,0-3.2,0-6.45,0-8.12,3.55v1c1.41,2.83,4.1,2.48,6.53,2.49q28.19.06,56.37,0c8.48,0,8.17-.07,8.56-8.39.24-5.26-1.76-7-6.63-6.24-3.08.48-4.13-.78-3.93-3.87.25-3.81.15-7.66,0-11.48-.07-2.31,1-5.79-2.77-5.77-3.51,0-2.38,3.37-2.46,5.48a116.75,116.75,0,0,0,0,12c.22,3.43-1.54,3.65-4.25,3.74-3,.1-3.78-1.06-3.55-3.79a50.06,50.06,0,0,0,0-6.48A2.55,2.55,0,0,0,791,169c-1.72.07-2.19,1.38-2.26,2.77-.11,2.33-.16,4.67-.05,7,.19,3.89-2.58,3-4.78,3.12s-4.22.13-4.09-3.23c.22-5.82,0-11.66.07-17.48,0-2.08,0-4.49-2.63-4.55-3-.08-3,2.52-3,4.75,0,5.82-.1,11.65.06,17.47.1,3.51-2.19,3-4.33,3s-4.46.42-4.28-3.07,0-7,0-10.49c0-2-.5-3.94-2.85-3.87s-2.75,2-2.73,4c0,3.66,0,7.32,0,11,0,3-2.11,2.52-3.84,2.39s-4.38,1.15-4.39-2.29c0-5.66-.12-11.33,0-17,.08-3.23,3-4.77,5.07-6.42s3,1.19,4.17,2.28c2.16,2.09,3.92,2.07,5.94-.06,2.17-2.3,4.6-4.36,6.66-6.76,1.91-2.23,3.28-2.6,5.41-.14,2.82,3.27,6.22,6,9.08,9.27s5,2.8,7.78-.11c6.95-7.18,14.13-14.12,21.25-21.12.93-.91,1.78-3.16,3.28-.06,1.15,2.37,3.18,2,4.64-.22C825.77,136.16,825.35,133.11,825.48,130.06Z" transform="translate(-746 -126.37)"/></svg>