<?xml version="1.0" encoding="utf-8"?>
<!-- Generator: Adobe Illustrator 22.0.0, SVG Export Plug-In . SVG Version: 6.00 Build 0)  -->
<svg version="1.1" id="Layer_1" xmlns="http://www.w3.org/2000/svg" xmlns:xlink="http://www.w3.org/1999/xlink" x="0px" y="0px"
	 viewBox="0 0 200 200" style="enable-background:new 0 0 200 200;" xml:space="preserve">
<style type="text/css">
	.st0{fill:#524F63;}
	.st1{fill:#BAC2CC;}
	.st2{opacity:0.2;fill:#2D313A;}
	.st3{opacity:0.3;fill:#2D313A;}
	.st4{fill:#2D313A;}
	.st5{fill:#616C84;}
	.st6{fill:#9DD2F9;}
	.st7{fill:#3F95E9;}
	.st8{fill:#040404;}
	.st9{fill:#F9F9F9;}
	.st10{opacity:0.2;fill:#FFFFFF;}
	.st11{fill:#2B3039;}
	.st12{fill:url(#SVGID_1_);}
	.st13{fill:url(#SVGID_2_);}
	.st14{fill:#5E2920;}
	.st15{fill:#F27CAA;}
	.st16{fill:#BC3C6D;}
	.st17{fill:#D36389;}
	.st18{fill:#BCBACE;}
	.st19{fill:#E0E4ED;}
	.st20{fill:#036841;}
	.st21{fill:#299669;}
	.st22{fill:#37AF84;}
	.st23{fill:#0F7DA3;}
	.st24{fill:#D9C1A7;}
	.st25{fill:#004056;}
	.st26{fill:#00587F;}
	.st27{fill:#FFFFFF;}
	.st28{fill:#DB455A;}
	.st29{fill:#FC9DAB;}
	.st30{fill:#F27281;}
	.st31{fill:#FFC673;}
	.st32{fill:#E09220;}
	.st33{fill:#F7B03E;}
	.st34{clip-path:url(#SVGID_4_);}
	.st35{fill:#27405E;}
</style>
<g>
	<g>
		<path class="st0" d="M6,94.3c0-0.8,0.4-1.6,1.2-2l68.5-39.5c1.8-1,4.1-1,5.9,0l111.3,64.2c0.8,0.5,1.2,1.2,1.2,2c0,0,0,0,0,0.1
			c0,0,0,0,0,0.1c0,0,0,0,0,0.1c0,0,0,0,0,0.1c0,0,0,0,0,0.1c0,0,0,0,0,0.1c0,0,0,0,0,0.1c0,0,0,0,0,0.1c0,0,0,0,0,0.1
			c0,0,0,0,0,0.1c0,0,0,0,0,0.1c0,0,0,0,0,0.1c0,0,0,0,0,0.1c0,0,0,0,0,0.1c0,0,0,0,0,0.1c0,0,0,0,0,0.1c0,0,0,0,0,0.1
			c0,0,0,0,0,0.1c0,0,0,0,0,0.1c0,0,0,0,0,0.1c0,0,0,0,0,0.1c0,0,0,0,0,0.1c0,0,0,0,0,0.1c0,0,0,0,0,0.1c0,0,0,0,0,0.1
			c0,0,0,0,0,0.1c0,0,0,0,0,0.1c0,0,0,0,0,0.1c0,0,0,0,0,0.1c0,0,0,0,0,0.1c0,0,0,0,0,0.1c0,0,0,0,0,0.1c0,0,0,0,0,0.1
			c0,0,0,0,0,0.1c0,0,0,0,0,0.1c0,0,0,0,0,0.1c0,0,0,0,0,0.1c0,0,0,0,0,0.1c0,0,0,0,0,0.1c0,0,0,0,0,0.1c0,0,0,0,0,0.1
			c0,0,0,0,0,0.1c0,0,0,0,0,0.1c0,0,0,0,0,0.1c0,0,0,0,0,0.1c0,0,0,0,0,0.1c0,0.8-0.4,1.6-1.2,2l-68.2,39.4c-2,1.2-4.5,1.2-6.5,0
			L7.2,99.7c-0.8-0.5-1.2-1.2-1.2-2c0,0,0,0,0-0.1c0,0,0,0,0-0.1c0,0,0,0,0-0.1c0,0,0,0,0-0.1c0,0,0,0,0-0.1c0,0,0,0,0-0.1
			c0,0,0,0,0-0.1c0,0,0,0,0-0.1c0,0,0,0,0-0.1c0,0,0,0,0-0.1c0,0,0,0,0-0.1c0,0,0,0,0-0.1c0,0,0,0,0-0.1c0,0,0,0,0-0.1
			c0,0,0,0,0-0.1c0,0,0,0,0-0.1c0,0,0,0,0-0.1c0,0,0,0,0-0.1c0,0,0,0,0-0.1c0,0,0,0,0-0.1c0,0,0,0,0-0.1c0,0,0,0,0-0.1
			c0,0,0,0,0-0.1c0,0,0,0,0-0.1c0,0,0,0,0-0.1c0,0,0,0,0-0.1c0,0,0,0,0-0.1c0,0,0,0,0-0.1c0,0,0,0,0-0.1c0,0,0,0,0-0.1
			c0,0,0,0,0-0.1c0,0,0,0,0-0.1c0,0,0,0,0-0.1c0,0,0,0,0-0.1c0,0,0,0,0-0.1c0,0,0,0,0-0.1c0,0,0,0,0-0.1c0,0,0,0,0-0.1
			c0,0,0,0,0-0.1c0,0,0,0,0-0.1c0,0,0,0,0-0.1c0,0,0,0,0-0.1c0,0,0,0,0-0.1c0,0,0,0,0-0.1C6,94.4,6,94.4,6,94.3
			C6,94.3,6,94.3,6,94.3z"/>
		<path class="st1" d="M192.8,116.9L81.5,52.7c-1.8-1-4.1-1-5.9,0L7.2,92.2c-1.5,0.9-1.5,3.1,0,4l111,64.1c2,1.2,4.5,1.2,6.5,0
			l68.2-39.4C194.4,120.1,194.4,117.8,192.8,116.9z"/>
	</g>
	<path class="st2" d="M90.1,57.6c-5.2,2.2-13.2,5.6-13.2,5.6v9.3c0,0,19.1-4.4,27.7-6.6L90.1,57.6z"/>
	<polygon class="st3" points="118.1,73.8 116.1,72.8 114.7,120.2 165,100.9 	"/>
	<g>
		<g>
			<path class="st4" d="M146.6,58.6l-39.8-22.8c-0.7-0.4-1.6-0.6-2.4-0.4c-1.1,0.3-2.2,0.6-2.2,1.6l-0.1,37l3.5,2.1
				c-1.1,0.6-36.1,17.6-36.2,17.6l-0.1,1.4c0,0.6,0.3,1.2,0.9,1.5c6,3.4,40.8,23.6,40.8,23.6c1.1,0.7,2.6,0.7,3.7,0l33.1-19.2
				c0.3-0.2,0.6-0.6,0.6-1l0.1-38.3C148.5,60.4,147.7,59.2,146.6,58.6z"/>
			<g>
				<path class="st5" d="M147.3,99.9L102,74.1l-0.1-37c0-1.1,1.2-1.7,2.1-1.2l41.7,23.9c0.9,0.5,1.5,1.5,1.5,2.5L147.3,99.9z"/>
				<polygon class="st6" points="103.8,38.1 145.2,61.9 145.3,96.7 103.8,72.8 				"/>
			</g>
			<g>
				<path class="st7" d="M124.1,67.9c-0.4,0.1-0.8,0.1-1.3,0.1c-1.2,0.1-2.6,0.1-4.1-0.1c-0.5-0.1-1.1-0.2-1.8-0.5
					c-1.4-0.6-2.2-1.6-2.3-2.6c-0.2-1.4,0.4-2.2,1-3c0.6-0.8,1.4-1.4,2.4-1.8c0.8-0.4,1.8-0.7,2.8-0.9c1.2-0.2,2.5-0.3,3.9-0.3
					c1.2,0,2.3,0.1,3.6,0.5c0.6,0.1,1.2,0.3,1.9,0.8c0.7,0.5,1.2,1,1.4,1.7c0.2,0.5,0.1,0.8,0.1,1.1c0,0.1-0.1,0.1-0.2-0.1
					c-1.2-1.4-2.4-2-3.5-2.3c-1.8-0.5-3.1-0.4-4.4-0.1c-1.2,0.2-2.2,0.6-3.2,1.1c-0.6,0.3-0.9,0.7-1.3,1.2c-0.4,0.5-0.8,1.1-0.9,1.9
					c0,0.3,0.1,0.6,0.3,0.9c0.2,0.4,0.7,0.8,1.3,1.1c1,0.5,1.8,0.8,2.6,0.9C123,67.6,123.6,67.7,124.1,67.9
					C124.1,67.8,124.1,67.9,124.1,67.9z"/>
				<path class="st8" d="M121.5,75.5c1.7-0.2,3.3-0.4,4.8-0.8c1.6-0.4,3.1-0.8,4.2-1.6c0.6-0.4,1.1-0.9,1.2-1.7
					c0.1-0.4,0-0.8-0.3-1.3c-0.3-0.6-0.6-0.8-1.2-1.2c-1-0.6-1.9-0.8-2.7-0.9c-0.4-0.1-0.8-0.1-1.3-0.2c-0.1,0-0.2,0-0.4-0.1
					c0.9-0.1,1.7-0.3,2.7-0.3c1.1,0,2.1,0,3.4,0.3c0.3,0.1,0.6,0.2,1,0.3c1.1,0.5,1.8,1.3,2.1,2.3c0.2,0.8,0.1,1.5-0.2,2
					c-0.5,1-1.3,1.6-2.3,2.1c-1.8,0.8-4,1.1-6.4,1.2c-1.3,0.1-2.7,0.1-4.1,0C122,75.6,121.8,75.7,121.5,75.5z"/>
				<path class="st8" d="M133.8,67.5c-0.6-0.3-1.3-0.8-2-1.6c-0.6-0.7-0.8-1.4-0.4-1.6c0.7-0.4,2.6,0.6,3.8,1.9
					c0.8,0.8,0.9,1.6,0.4,1.7C135.2,68.1,134.6,68,133.8,67.5z"/>
				<path class="st8" d="M124.3,58c-0.2-0.1-0.3-0.2-0.4-0.3c-0.4-0.6-0.7-1.1-1.1-1.7c-0.1-0.1-0.1-0.2,0-0.2
					c0.1,0,0.1,0.1,0.2,0.2c0.2,0.5,0.4,0.5,0.7,0.5c0.4,0.1,0.4,0.1,0.8,0.6c0.1,0.1,0.1,0.2,0.2,0.4c0.1,0.2,0.4,0.5,0.3,0.6
					C124.8,58.1,124.5,58,124.3,58z M124,56.7c-0.1,0-0.4-0.1-0.5,0c-0.1,0,0.2,0.3,0.2,0.4c0.1,0.1,0.1,0.2,0.2,0.3
					c0.2,0.3,0.4,0.5,0.6,0.5c0.1,0,0.3,0.1,0.2-0.1C124.6,57.4,124.4,57,124,56.7C124.1,56.7,124.1,56.7,124,56.7z"/>
				<path class="st8" d="M132.3,76.4c0,0-0.1,0-0.2,0.1c0,0,0.1,0.1,0.1,0.2c0.1,0.1,0.2,0.3,0.4,0.4c0,0.1,0.1,0.1,0.1,0.1
					c0,0-0.1,0-0.2-0.1c-0.1-0.2-0.3-0.3-0.4-0.5c-0.2-0.2-0.2-0.1-0.3-0.1c-0.1,0-0.1,0.1,0,0.2c0.2,0.2,0.4,0.5,0.6,0.7
					c0.1,0.1,0.1,0.1,0.1,0.2c-0.1,0-0.1-0.1-0.2-0.1c-0.3-0.3-0.5-0.6-0.8-0.9c-0.1-0.1-0.1-0.2,0-0.2c0.2,0,0.4-0.1,0.6-0.2
					c0.1,0,0.2,0,0.4,0.2c0.2,0.3,0.5,0.6,0.7,0.8c0,0.1,0.1,0.1,0.1,0.1c-0.1,0-0.1-0.1-0.2-0.1c-0.2-0.2-0.4-0.5-0.6-0.7
					C132.5,76.5,132.4,76.5,132.3,76.4z"/>
				<path class="st8" d="M127.7,57.3c0.2,0.1,0.3,0.2,0.4,0.4c0.2,0.4,0.4,0.7,0.5,1.1c0.1,0.1,0,0.2-0.1,0.1
					c-0.2-0.1-0.4-0.1-0.6-0.2c-0.2-0.1-0.3-0.2-0.5-0.4c-0.1-0.1-0.2-0.3-0.2-0.4c-0.1-0.2-0.4-0.7-0.3-0.7
					C127.1,57.1,127.5,57.3,127.7,57.3z M128.4,58.6c-0.1-0.2-0.2-0.4-0.3-0.5c-0.2-0.5-0.2-0.5-0.6-0.6c-0.3-0.1-0.3,0-0.1,0.3
					c0.1,0.1,0.1,0.2,0.1,0.2C127.8,58.5,127.9,58.6,128.4,58.6C128.4,58.6,128.4,58.6,128.4,58.6z"/>
				<path class="st7" d="M116.3,59c-0.1-0.1-0.1-0.2-0.2-0.3c-0.3-0.3-0.6-0.6-0.9-0.9c-0.1-0.1-0.2-0.2-0.1-0.2c0,0,0.1,0,0.2,0.1
					c0.4,0.4,0.9,0.8,1.2,1.3c0.1,0.1,0.1,0.2,0,0.3c-0.1,0.1-0.3,0.2-0.4,0.3c-0.1,0.1-0.3,0-0.5-0.2c-0.3-0.3-0.7-0.7-1-1
					c-0.1-0.1-0.2-0.2-0.1-0.2c0.1,0,0.2,0.1,0.2,0.1c0.3,0.3,0.6,0.6,0.9,0.9c0.2,0.2,0.3,0.2,0.3,0.2c0.1-0.1,0.2-0.1-0.1-0.3
					c-0.1-0.1-0.2-0.2-0.3-0.3c-0.1-0.1-0.2-0.2-0.1-0.2c0.1-0.1,0.1,0.1,0.2,0.1c0.1,0.1,0.2,0.3,0.4,0.4c0.1,0.1,0.2,0.2,0.2,0.2
					C116.2,59.1,116.3,59,116.3,59z"/>
				<path class="st8" d="M124.9,57.4c-0.1-0.2,0-0.2,0.1-0.2c0.1,0,0.3,0.1,0.4,0.1c0.1,0,0.2,0,0-0.2c-0.1-0.1-0.2-0.2-0.3-0.2
					c-0.1,0-0.1,0-0.2-0.1c0,0-0.1-0.1-0.1-0.1c0,0,0-0.1,0-0.1c0.1,0,0.3,0,0.4,0.1c0.1,0,0.1,0.1,0.2,0.2c0.2,0.4,0.5,0.8,0.7,1.2
					c0.1,0.2,0,0.2-0.1,0.2c-0.1,0-0.2,0-0.3-0.1c-0.1,0-0.3,0-0.4-0.1C125.1,57.8,125,57.6,124.9,57.4z M125.4,58
					c0.1-0.1,0.5,0.2,0.5,0c0-0.1-0.1-0.4-0.3-0.4c-0.2-0.1-0.5-0.2-0.5,0C125.1,57.6,125.2,57.8,125.4,58z"/>
				<path class="st8" d="M125.8,57c-0.1,0-0.1,0-0.2-0.1c0-0.1,0-0.1,0-0.1c0.2,0.1,0.1-0.1,0-0.3c0-0.1-0.2-0.3-0.1-0.2
					c0.1,0,0.2,0.2,0.2,0.3c0.1,0.3,0.3,0.4,0.4,0.4c0.1,0,0.1,0,0.2,0.1c0.1,0,0.1,0.1,0.2,0.1c0.1,0.1,0,0.1-0.1,0.1
					c-0.1,0-0.5-0.3-0.4,0c0.1,0.2,0.2,0.4,0.4,0.7c0.1,0.2,0.2,0.4,0.4,0.4c0.2,0,0.1-0.1,0-0.2c0-0.1-0.1-0.2,0-0.2
					c0.1,0,0.2,0.1,0.2,0.2c0.1,0.2,0.2,0.3,0.1,0.4c-0.1,0-0.4,0-0.6-0.1c-0.1,0-0.1-0.1-0.1-0.2c-0.2-0.3-0.4-0.6-0.5-0.9
					C126,57.1,126,57,125.8,57z"/>
				<path class="st7" d="M114,61.6c-0.1,0.2-0.2,0.4-0.3,0.5c0,0-0.1,0-0.1-0.1c-0.1-0.1-0.1-0.1,0-0.2c0.1-0.1,0.1-0.2,0.2-0.3
					c0.1-0.1,0-0.2-0.2-0.3c-0.2-0.2-0.3-0.2-0.3-0.1c0,0.1-0.1,0.1-0.1,0.1c-0.1,0.2-0.3,0.2-0.8-0.3c-0.2-0.1-0.2-0.3-0.2-0.4
					c0.1-0.2,0.2-0.3,0.3-0.5c0,0,0.1,0,0.1,0c0.1,0.1,0.1,0.1,0.1,0.2c-0.1,0.1-0.1,0.2-0.2,0.3c-0.1,0.1,0,0.2,0.2,0.4
					c0.2,0.2,0.3,0.2,0.3,0.1c0-0.1,0.1-0.2,0.1-0.2c0.1-0.1,0.2-0.1,0.4,0.1C113.6,61.2,113.9,61.3,114,61.6z"/>
				<path class="st8" d="M134.4,77c-0.1-0.2-0.3-0.3-0.5-0.5c-0.1-0.1-0.1-0.2,0-0.2c0.1,0,0.1-0.1,0.2-0.1c0.1,0,0.1-0.1,0-0.2
					c-0.1-0.1-0.2-0.1-0.2-0.1c0,0-0.1,0.1-0.2,0c-0.1-0.1,0-0.1,0.1-0.1c0.1-0.1,0.2,0,0.5,0.2c0.2,0.2,0.3,0.4,0.5,0.6
					c0.1,0.1,0.2,0.2,0.2,0.3C134.9,76.8,134.5,77,134.4,77z M134.4,76.8c0.1,0,0.4-0.1,0.3-0.2c-0.1-0.1-0.2-0.3-0.4-0.4
					c0,0-0.3,0.1-0.3,0.2C134.2,76.5,134.3,76.7,134.4,76.8z"/>
				<path class="st7" d="M114.6,60.9c-0.1,0.1-0.2,0.3-0.3,0.4c-0.1,0.1-0.2,0.1-0.4-0.1c-0.3-0.3-0.7-0.6-1-0.9
					c-0.1-0.1-0.2-0.1-0.2-0.2c0-0.1,0.2,0,0.2,0.1c0.3,0.2,0.5,0.5,0.8,0.7c0.2,0.2,0.4,0.3,0.4,0.1c0-0.1,0.1-0.1,0.1-0.1
					c0.1-0.1,0-0.1-0.1-0.3c-0.2-0.1-0.3-0.3-0.5-0.5c-0.2-0.2-0.4-0.3-0.5-0.4c-0.1,0-0.1,0-0.2,0.1c0,0.1-0.1,0.2-0.2,0.2
					c0,0,0,0-0.1,0c0,0,0,0,0,0c0-0.1,0.1-0.3,0.1-0.3c0.1-0.1,0.1-0.1,0.1-0.2c0.1-0.1,0.3,0,0.5,0.2
					C113.8,60.1,114.2,60.5,114.6,60.9z"/>
				<path class="st8" d="M122.1,57.8c-0.1,0-0.1-0.1-0.2-0.2c-0.3-0.4-0.5-0.7-0.8-1.1c-0.2-0.2-0.2-0.3,0-0.3c0.2,0,0.3,0,0.5,0
					c0.1,0,0.3,0.1,0.4,0.3c0.1,0.1,0.2,0.3,0.1,0.3c-0.1,0-0.2-0.2-0.3-0.3c-0.1-0.1-0.1-0.1-0.2-0.1c-0.5-0.1-0.5-0.1-0.1,0.6
					c0.4,0.6,0.4,0.6,0.9,0.6c0.1,0,0.2-0.1,0.3,0.1c0.2,0.2-0.1,0.1-0.2,0.1C122.4,57.9,122.2,57.8,122.1,57.8z"/>
				<path class="st8" d="M136.5,75.8c-0.1,0.1-0.2,0.3-0.4,0.3c-0.2,0-0.3-0.2-0.5-0.4c0,0-0.1-0.1-0.1-0.1
					c-0.6-0.6-0.6-0.7-0.2-0.8c0.1,0,0.2,0,0.3,0.2c0.3,0.3,0.5,0.6,0.8,0.8C136.4,75.8,136.4,75.8,136.5,75.8z M135.5,74.9
					C135.4,74.9,135.4,74.9,135.5,74.9c-0.1,0.1-0.3,0.1-0.3,0.2c0,0.1,0.2,0.2,0.3,0.3c0.1,0.1,0.2,0.3,0.4,0.4
					c0.1,0.1,0.1,0.1,0.2,0.1c0.3,0,0.3-0.2-0.1-0.6c-0.1-0.1-0.2-0.2-0.3-0.3C135.5,75,135.5,74.9,135.5,74.9z"/>
				<path class="st7" d="M121.8,76.6c0.3,0.1,0.7,0.7,0.6,0.8c-0.1,0.1,0,0.1,0.1,0.2c0.1,0.1,0.2,0.1,0.2,0.2c0,0.1-0.1,0-0.2-0.1
					c-0.1-0.1-0.2-0.1-0.3-0.2c-0.4-0.2-0.4-0.2-0.3,0.1c0,0.1,0.1,0.1,0,0.1c-0.1,0-0.1-0.1-0.2-0.1c-0.2-0.3-0.4-0.7-0.6-1
					c-0.1-0.1,0-0.1,0-0.1C121.4,76.5,121.6,76.5,121.8,76.6z M122.2,77.2c-0.1-0.2-0.1-0.4-0.4-0.4c-0.2-0.1-0.5-0.2-0.4,0
					c0,0.1,0.1,0.4,0.3,0.4C122,77.3,122.2,77.4,122.2,77.2z"/>
				<path class="st7" d="M130.5,78c0,0.1-0.2,0.2-0.4,0.2c-0.1-0.1-0.1-0.1-0.1-0.1c0,0,0.1,0,0.2,0c0.1,0,0.1,0,0-0.1
					c-0.1-0.1-0.1-0.2-0.2-0.1c-0.1,0-0.1,0-0.2,0c-0.3,0-0.7-0.3-0.9-0.6c0-0.1,0-0.1,0.1-0.2c0.1,0,0.3,0,0.4-0.1
					c0.1,0,0.1,0,0.2,0.1C130,77.3,130.2,77.6,130.5,78C130.5,77.9,130.5,78,130.5,78z M130,77.4c-0.1-0.2-0.2-0.3-0.4-0.4
					c-0.1-0.1-0.4,0.1-0.3,0.1c0.1,0.1,0.2,0.3,0.3,0.3C129.7,77.5,129.9,77.5,130,77.4z"/>
				<path class="st7" d="M118.5,58.3c-0.3-0.2-1.2-1.1-1.3-1.4c-0.1-0.1,0-0.2,0-0.2c0.1-0.1,0.3-0.1,0.4-0.1c0.1,0,0.3,0.1,0.4,0.3
					c0.6,0.7,0.6,0.8,0.2,0.8c-0.1,0-0.1,0-0.2,0.1c0,0,0.1,0.1,0.1,0.2c0.1,0.1,0.2,0.1,0.2,0.1c0.1,0,0.1-0.1,0.3,0
					c0.1,0.1,0.1,0.1,0.1,0.2C118.7,58.4,118.7,58.4,118.5,58.3z M117.9,57.6c0.1-0.1,0.2-0.1,0.3-0.2c0.1,0,0.1,0,0-0.2
					c-0.1-0.1-0.2-0.4-0.4-0.4c-0.1,0-0.3,0-0.3,0.1c-0.1,0.1,0.2,0.3,0.3,0.5C117.8,57.5,117.8,57.5,117.9,57.6z"/>
				<path class="st8" d="M135.6,76.3c0,0.2-0.1,0.2-0.3,0.2c-0.1,0-0.2-0.2-0.3-0.3c-0.2-0.2-0.3-0.4-0.5-0.6
					c-0.1-0.1-0.2-0.2-0.3-0.2c0,0-0.2-0.1-0.1-0.1c0.2-0.1-0.1-0.2-0.2-0.4c0-0.1-0.1-0.1-0.1-0.2c0,0,0.1,0,0.2,0.1
					c0.3,0.3,0.4,0.3,0.5,0.2c0,0,0.1-0.1,0.2,0c0.1,0.1,0,0.1,0,0.1c-0.2,0.1-0.2,0.1,0.2,0.5c0.1,0.1,0.2,0.2,0.2,0.3
					c0.1,0.1,0.2,0.3,0.3,0.2c0.1-0.1,0.1-0.1-0.1-0.3c-0.1-0.1-0.1-0.1-0.1-0.2c0.1,0,0.1,0.1,0.2,0.1
					C135.5,76.1,135.5,76.2,135.6,76.3z"/>
				<path class="st8" d="M137.5,74.9c0,0.1-0.3,0.4-0.3,0.4c0,0-0.1,0-0.1-0.1c-0.1-0.1,0-0.1,0-0.1c0.1-0.1,0.1-0.1,0.2-0.2
					c0.1,0,0.1-0.1-0.1-0.3c-0.2-0.2-0.2-0.2-0.3-0.1c0,0-0.1,0.1-0.1,0.1c-0.2,0.1-0.4,0-0.6-0.3c-0.1-0.1-0.1-0.2-0.1-0.2
					c0.1-0.1,0.2-0.2,0.3-0.3c0,0,0,0,0.1,0c0.1,0.1,0.1,0.1,0,0.1c-0.1,0.1-0.1,0.2-0.2,0.2c-0.1,0.1,0,0.1,0.1,0.3
					c0.1,0.1,0.2,0.2,0.3,0.1c0-0.1,0.1-0.1,0.2-0.2c0.1,0,0.1-0.1,0.3,0.1C137.3,74.6,137.4,74.7,137.5,74.9z"/>
				<path class="st8" d="M120.6,56.4c-0.1,0-0.3,0-0.4,0.1c-0.1,0,0.1,0.3,0.2,0.4c0.2,0.3,0.4,0.6,0.6,0.8c0.1,0.1,0.1,0.1,0,0.2
					c-0.1,0-0.1,0-0.2-0.1c-0.3-0.4-0.6-0.8-0.9-1.2c-0.3-0.5,0.2-0.3,0.4-0.3c0.1,0,0.3,0.1,0.5,0.3c0.3,0.4,0.5,0.7,0.8,1
					c0.1,0.1,0.2,0.2,0.1,0.2c-0.1,0-0.2-0.1-0.2-0.2c-0.2-0.3-0.4-0.6-0.7-0.9C120.8,56.6,120.8,56.5,120.6,56.4z"/>
				<path class="st8" d="M132.6,75.5c0,0.1,0.1,0.1,0.1,0.1c0.2,0.3,0.3,0.3,0.5,0.2c0,0,0.1-0.1,0.2,0c0.1,0.1,0,0.1-0.1,0.1
					c-0.2,0-0.1,0.2,0.1,0.4c0.1,0.1,0.2,0.2,0.3,0.3c0.1,0.1,0.2,0.3,0.3,0.2c0.1,0,0.1-0.1,0-0.3c-0.1-0.1-0.2-0.1-0.1-0.2
					c0.1,0,0.1,0.1,0.2,0.1c0.2,0.3,0.3,0.4,0.1,0.4c-0.2,0.1-0.2,0.1-0.6-0.3c-0.1-0.1-0.2-0.3-0.4-0.4c-0.1-0.1-0.2-0.3-0.3-0.2
					c0,0-0.1,0-0.1-0.1c0,0,0-0.1,0-0.1c0.2,0,0-0.2-0.1-0.4C132.6,75.7,132.5,75.6,132.6,75.5C132.5,75.5,132.5,75.5,132.6,75.5z"
					/>
				<path class="st8" d="M123.7,57.7c-0.3-0.4-0.5-0.7-0.7-1.1c-0.1-0.1-0.2-0.3-0.1-0.3c0.1,0,0.2,0.2,0.2,0.3
					c0.2,0.4,0.5,0.7,0.7,1.1c0.1,0.2,0.1,0.2,0,0.2c-0.9-0.1-0.7,0-1.4-1c-0.1-0.1-0.2-0.2-0.2-0.4c-0.1-0.1-0.2-0.2-0.1-0.2
					c0.1,0,0.2,0.1,0.2,0.2c0.2,0.3,0.4,0.6,0.6,0.9c0.1,0.2,0.3,0.3,0.4,0.3C123.4,57.7,123.6,57.7,123.7,57.7z"/>
				<path class="st7" d="M116.4,57.8c-0.3-0.3-0.4-0.5-0.5-0.3c0,0-0.1,0-0.2-0.1c-0.1-0.1,0-0.1,0-0.1c0,0,0.1,0,0.1,0
					c0.1-0.2,0.3,0,0.6,0.3c0.2,0.3,0.5,0.5,0.7,0.8c0.3,0.3,0.3,0.5,0.2,0.5c-0.1,0-0.2,0.1-0.3,0.1c-0.1,0.1-0.2,0.1-0.5-0.2
					c-0.6-0.7-0.6-0.7-0.3-0.8C116.3,57.9,116.4,57.9,116.4,57.8z M117,58.5c-0.1-0.2-0.3-0.3-0.4-0.5c-0.1-0.1-0.4,0.1-0.4,0.2
					c0.1,0.2,0.3,0.4,0.5,0.5C116.8,58.8,117.1,58.6,117,58.5z"/>
				<path class="st7" d="M123.9,76.4c0.1,0,0.1,0.1,0.2,0.2c0.3,0.4,0.6,0.9,0.9,1.3c0.1,0.1,0.1,0.2,0,0.2c-0.2,0.1-0.5,0-0.7,0
					c-0.1,0-0.1-0.1-0.1-0.2c-0.2-0.3-0.4-0.6-0.6-0.9c-0.1-0.2,0-0.3,0.1-0.2C123.9,76.9,124.2,76.9,123.9,76.4
					C123.8,76.4,123.8,76.4,123.9,76.4z M124.8,77.9c-0.1-0.2-0.2-0.3-0.3-0.5c-0.3-0.4-0.3-0.4-0.6-0.5c-0.2,0-0.2,0-0.1,0.2
					c0.1,0.2,0.2,0.3,0.3,0.5c0.1,0.1,0.1,0.2,0.2,0.2C124.5,77.9,124.7,78,124.8,77.9z"/>
				<path class="st7" d="M125.5,78.2c-0.2-0.1-0.3-0.2-0.4-0.3c-0.2-0.2-0.3-0.5-0.5-0.7c-0.1-0.2-0.1-0.3,0.1-0.3
					c0.1,0,0.1,0,0.2,0c0.1,0,0.2-0.1,0.4,0.1c0.2,0.2,0.4,0.5,0.5,0.7c0,0.1,0,0.1-0.1,0.1c-0.1,0-0.3,0-0.5,0
					c-0.1,0-0.2,0-0.1,0.1c0.1,0.1,0.1,0.2,0.2,0.2c0,0,0.1,0,0.1,0c0.1,0,0.1,0,0.2,0.1c0,0.1,0,0.1-0.1,0.1
					C125.6,78.2,125.5,78.2,125.5,78.2z M125.1,77.6c0.1-0.1,0.4,0.1,0.4-0.1c0-0.1-0.1-0.3-0.3-0.4c-0.2,0-0.4-0.1-0.4,0
					C124.8,77.3,124.9,77.5,125.1,77.6z"/>
				<path class="st7" d="M115.2,59.2c0.5,0.3,0.6,0.5,0.5,0.6c0,0,0,0,0,0c-0.3,0.2-0.2,0.3-0.7-0.3c-0.2-0.2-0.4-0.4-0.6-0.6
					c-0.1-0.1-0.2-0.2-0.3-0.2c-0.1,0-0.2-0.1-0.2-0.2c0-0.1-0.2-0.3-0.4-0.4c-0.1-0.1-0.2-0.2-0.1-0.2c0.1,0,0.1,0,0.2,0.1
					c0.4,0.5,0.5,0.4,0.6,0.2c0,0,0-0.1,0.2,0c0.2,0.1,0.1,0.2,0,0.2c-0.2,0.2-0.2,0.2,0.3,0.7c0.1,0.1,0.2,0.2,0.2,0.2
					c0.1,0.1,0.3,0.4,0.5,0.3C115.5,59.7,115.4,59.6,115.2,59.2z"/>
				<path class="st8" d="M119.8,56.5c0,0-0.1,0-0.1,0c-0.3,0-0.1,0.1,0.1,0.4c0.1,0.2,0.2,0.3,0.4,0.5c0.2,0.2,0.3,0.4,0.5,0.3
					c0,0,0.1,0,0.2,0.1c0.1,0.1,0,0.1,0,0.1c-0.2,0-0.4,0-0.6,0.1c0,0-0.1,0-0.2-0.1c-0.1-0.1-0.1-0.1,0-0.1c0.3,0,0.2-0.2-0.1-0.4
					c-0.1-0.1-0.2-0.3-0.3-0.4c-0.2-0.3-0.4-0.5-0.5-0.4c0,0-0.1,0-0.2-0.1c-0.1-0.1,0-0.1,0-0.1c0.2,0,0.4,0,0.6-0.1
					C119.6,56.3,119.7,56.3,119.8,56.5z"/>
				<path class="st7" d="M123.2,78c-0.2-0.1-0.3-0.2-0.4-0.3c-0.1-0.1-0.2-0.3-0.2-0.4c-0.5-0.7-0.4-0.7,0.3-0.6
					c0.2,0,0.3,0.1,0.4,0.3c0.4,0.5,0.4,0.5-0.1,0.5c-0.1,0-0.1,0-0.2,0c-0.1,0-0.1,0,0,0.1c0,0.1,0.1,0.1,0.2,0.2
					c0.1,0,0.1,0,0.2,0c0.1,0,0.1,0,0.2,0.1c0.1,0.1,0,0.1,0,0.1C123.4,78,123.3,78,123.2,78z M123,76.9c-0.1,0-0.5-0.2-0.4,0.1
					c0,0.1,0.1,0.3,0.3,0.3c0.2,0,0.5,0.2,0.4,0C123.3,77.2,123.2,77,123,76.9z"/>
				<path class="st8" d="M137,75.4C137,75.4,137,75.4,137,75.4c-0.1,0-0.1,0-0.2,0c-0.2-0.2-0.4-0.5-0.7-0.7
					c-0.2-0.2-0.3-0.2-0.3-0.1c0,0.1-0.3,0,0,0.3c0.2,0.2,0.4,0.5,0.7,0.7c0.1,0.1,0.1,0.1,0.1,0.2c0,0-0.1,0-0.1-0.1
					c-0.3-0.3-0.5-0.5-0.8-0.8c-0.2-0.2-0.2-0.3-0.1-0.3c0.1,0,0.1-0.4,0.5,0c0.3,0.2,0.5,0.5,0.8,0.8C137,75.3,137,75.3,137,75.4z"
					/>
				<path class="st7" d="M126.8,77.2c-0.1-0.1,0-0.1,0.1-0.1c0.1,0,0.3,0,0.4,0c0.1,0,0.3,0.1,0.4,0.3c0.2,0.3,0.4,0.6,0.6,0.8
					c0.1,0.1,0.1,0.2,0.1,0.2c-0.1,0-0.2-0.1-0.2-0.2c-0.2-0.2-0.3-0.4-0.5-0.6c-0.2-0.2-0.3-0.3-0.5-0.3c-0.2,0-0.3,0-0.1,0.3
					c0.2,0.2,0.3,0.5,0.5,0.7c0,0.1,0.1,0.1,0,0.1c0,0-0.1,0-0.1-0.1C127.4,77.9,127.1,77.5,126.8,77.2z"/>
				<path class="st7" d="M129.7,78.1C129.7,78.2,129.7,78.2,129.7,78.1c-0.1,0-0.2,0-0.2-0.1c-0.2-0.2-0.3-0.5-0.5-0.7
					c-0.1-0.1-0.2-0.3-0.3-0.2c-0.1,0-0.5-0.1-0.1,0.3c0.2,0.2,0.4,0.5,0.5,0.7c0.1,0.1,0.1,0.1,0,0.1c-0.1,0-0.1-0.1-0.2-0.1
					c-0.2-0.3-0.4-0.6-0.7-0.9c-0.1-0.1-0.1-0.2,0-0.2c0.1,0,0.3,0,0.5,0c0.1,0,0.2,0.1,0.3,0.2C129.2,77.5,129.4,77.8,129.7,78.1
					C129.6,78.1,129.7,78.1,129.7,78.1z"/>
				<path class="st7" d="M125.6,77.2c-0.1-0.2,0-0.2,0-0.2c0.2,0,0.3,0,0.5,0c0.1,0,0.1,0,0.2,0.1c0.1,0.1,0,0.1,0,0.1
					c-0.1,0-0.2,0-0.3,0c-0.2,0-0.2,0-0.1,0.2c0.1,0.2,0.2,0.2,0.4,0.2c0,0,0.1,0,0.1,0c0.1,0,0.1,0,0.2,0.1c0.1,0.2,0,0.1-0.1,0.1
					c-0.2,0-0.3,0-0.1,0.3c0.1,0.1,0.1,0.1,0,0.1c0,0-0.1,0-0.1-0.1C126,77.8,125.8,77.5,125.6,77.2z"/>
				<path class="st7" d="M113.8,59c-0.1,0.1-0.2,0.2-0.2,0.3c-0.1,0.1-0.1,0.2,0.2,0.4c0.3,0.3,0.3,0.2,0.4,0.1c0,0,0,0,0,0
					c0.1,0,0.1-0.2,0.2,0c0.2,0.2,0,0.2,0,0.3c-0.1,0.1-0.1,0.1-0.1,0.2c0.1,0.1,0.4,0.4,0.5,0.5c0.1,0.1,0.1,0.1,0.1,0.1
					c0,0-0.1,0-0.2-0.1c-0.1-0.1-0.8-0.7-1.3-1.2c-0.1-0.1-0.2-0.2-0.1-0.3c0.1-0.2,0.2-0.3,0.4-0.4c0,0,0.1,0,0.1,0.1
					C113.7,58.9,113.7,58.9,113.8,59z"/>
				<path class="st8" d="M128.5,57.9c0.2,0.3,0.3,0.6,0.5,0.9c0,0.1,0.1,0.2,0,0.2c-0.1,0-0.1-0.1-0.2-0.2c-0.2-0.3-0.3-0.7-0.5-1
					c-0.1-0.2,0-0.3,0.1-0.2c0.2,0.1,0.4,0.1,0.5,0.2c0.2,0.1,0.4,0.3,0.4,0.5c0,0,0,0.1,0,0.1c0,0-0.1,0-0.1-0.1
					c-0.2-0.4-0.4-0.3-0.5-0.4C128.6,57.8,128.4,57.6,128.5,57.9z"/>
				<path class="st8" d="M130.6,76.7c0,0,0.1,0.1,0.1,0.2c0.2,0.2,0.4,0.5,0.6,0.7c0.1,0.2,0.2,0.2,0.3,0.2c0.1,0,0.2-0.1,0.4-0.1
					c0,0,0.1,0,0.1,0c0.1,0.1,0.1,0.1,0,0.1c0,0,0,0,0,0c-0.2,0-0.3,0.2-0.6,0C131.1,77.5,130.8,77.1,130.6,76.7
					C130.5,76.7,130.5,76.7,130.6,76.7z"/>
				<path class="st7" d="M116.9,56.8c0.1,0.1,0.2,0.2,0.3,0.3c0,0.1,0,0.1-0.1,0c-0.3-0.2-0.3,0-0.5,0.1c-0.1,0,0.1,0.2,0.2,0.3
					c0.3,0.3,0.5,0.6,0.8,0.9c0.1,0.1,0.2,0.2,0.1,0.2c-0.1,0-0.2-0.1-0.2-0.2c-0.3-0.4-0.6-0.7-1-1.1c-0.2-0.2-0.2-0.3-0.1-0.4
					C116.5,57,116.6,56.9,116.9,56.8C116.8,56.8,116.8,56.8,116.9,56.8z"/>
				<path class="st8" d="M133.6,77.3C133.6,77.3,133.6,77.4,133.6,77.3c-0.1,0-0.1,0-0.1,0c-0.3-0.3-0.6-0.7-0.9-1.1
					c0,0,0-0.1,0-0.1c0,0,0.1,0,0.1,0C132.9,76.5,133.3,76.9,133.6,77.3z"/>
				<path class="st8" d="M132.4,77.7C132.3,77.7,132.3,77.7,132.4,77.7c-0.1,0-0.1,0-0.2-0.1c-0.3-0.3-0.6-0.7-0.9-1
					c0-0.1-0.1-0.1,0-0.1c0,0,0.1,0,0.1,0.1C131.7,76.9,132,77.3,132.4,77.7C132.3,77.7,132.3,77.7,132.4,77.7z"/>
				<path class="st7" d="M127.9,77c0.3,0.4,0.5,0.7,0.8,1.1c0,0.1,0.1,0.1,0,0.1c0,0-0.1,0-0.1-0.1C128.3,77.8,127.9,77.4,127.9,77
					C127.8,77,127.9,77,127.9,77z"/>
				<path class="st8" d="M134.8,75.1c0.4,0.4,0.7,0.8,1.1,1.1c0,0,0,0,0,0c0,0-0.1,0-0.1-0.1c-0.3-0.3-0.6-0.7-0.9-1
					C134.7,75.1,134.7,75.1,134.8,75.1z"/>
				<path class="st7" d="M126.5,77c0.1,0,0.1,0.1,0.1,0.1c0.2,0.3,0.4,0.6,0.6,0.9c0.1,0.1,0.1,0.2,0,0.2c-0.1,0-0.1-0.1-0.2-0.2
					c-0.2-0.3-0.4-0.6-0.6-0.9C126.5,77.1,126.4,77,126.5,77z"/>
			</g>
			<g>
				<path class="st9" d="M147.3,99.9L102,73.8L70,92.3c-0.9,0.5-0.9,1.9,0,2.4l41.6,24.1c0.9,0.5,2,0.5,2.9,0L147.3,99.9z"/>
			</g>
			<g>
				<g>
					<path class="st4" d="M134.7,100.7c0.9,0.5,1.4,0.8,2.3,1.3c0.9-0.5,1.4-0.8,2.3-1.3c-0.9-0.5-1.4-0.8-2.3-1.3
						C136.1,100,135.6,100.2,134.7,100.7z"/>
					<path class="st4" d="M131.4,98.8c0.9,0.5,1.4,0.8,2.3,1.3c0.9-0.5,1.4-0.8,2.3-1.3c-0.9-0.5-1.4-0.8-2.3-1.3
						C132.8,98,132.3,98.3,131.4,98.8z"/>
					<path class="st4" d="M128.1,96.9c0.9,0.5,1.4,0.8,2.3,1.3c0.9-0.5,1.4-0.8,2.3-1.3c-0.9-0.5-1.4-0.8-2.3-1.3
						C129.5,96.1,129,96.4,128.1,96.9z"/>
					<path class="st4" d="M124.8,95c0.9,0.5,1.4,0.8,2.3,1.3c0.9-0.5,1.4-0.8,2.3-1.3c-0.9-0.5-1.4-0.8-2.3-1.3
						C126.1,94.2,125.7,94.5,124.8,95z"/>
					<path class="st4" d="M121.4,93.1c0.9,0.5,1.4,0.8,2.3,1.3c0.9-0.5,1.4-0.8,2.3-1.3c-0.9-0.5-1.4-0.8-2.3-1.3
						C122.8,92.3,122.3,92.6,121.4,93.1z"/>
					<path class="st4" d="M118.1,91.2c0.9,0.5,1.4,0.8,2.3,1.3c0.9-0.5,1.4-0.8,2.3-1.3c-0.9-0.5-1.4-0.8-2.3-1.3
						C119.5,90.4,119,90.7,118.1,91.2z"/>
					<path class="st4" d="M114.8,89.3c0.9,0.5,1.4,0.8,2.3,1.3c0.9-0.5,1.4-0.8,2.3-1.3c-0.9-0.5-1.4-0.8-2.3-1.3
						C116.2,88.5,115.7,88.8,114.8,89.3z"/>
					<path class="st4" d="M111.5,87.4c0.9,0.5,1.4,0.8,2.3,1.3c0.9-0.5,1.4-0.8,2.3-1.3c-0.9-0.5-1.4-0.8-2.3-1.3
						C112.8,86.6,112.4,86.9,111.5,87.4z"/>
					<path class="st4" d="M108.1,85.5c0.9,0.5,1.4,0.8,2.3,1.3c0.9-0.5,1.4-0.8,2.3-1.3c-0.9-0.5-1.4-0.8-2.3-1.3
						C109.5,84.7,109,84.9,108.1,85.5z"/>
					<path class="st4" d="M104.8,83.5c0.9,0.5,1.4,0.8,2.3,1.3c0.9-0.5,1.4-0.8,2.3-1.3c-0.9-0.5-1.4-0.8-2.3-1.3
						C106.2,82.8,105.7,83,104.8,83.5z"/>
					<path class="st4" d="M101.5,81.6c0.9,0.5,1.4,0.8,2.3,1.3c0.9-0.5,1.4-0.8,2.3-1.3c-0.9-0.5-1.4-0.8-2.3-1.3
						C102.9,80.9,102.4,81.1,101.5,81.6z"/>
					<path class="st4" d="M98.2,79.7c0.9,0.5,1.4,0.8,2.3,1.3c0.9-0.5,1.4-0.8,2.3-1.3c-0.9-0.5-1.4-0.8-2.3-1.3
						C99.5,79,99.1,79.2,98.2,79.7z"/>
					<path class="st4" d="M131.5,102.5c0.9,0.5,1.4,0.8,2.3,1.3c0.9-0.5,1.4-0.8,2.3-1.3c-0.9-0.5-1.4-0.8-2.3-1.3
						C132.9,101.8,132.4,102,131.5,102.5z"/>
					<path class="st4" d="M128.2,100.6c0.9,0.5,1.4,0.8,2.3,1.3c0.9-0.5,1.4-0.8,2.3-1.3c-0.9-0.5-1.4-0.8-2.3-1.3
						C129.6,99.9,129.1,100.1,128.2,100.6z"/>
					<path class="st4" d="M124.9,98.7c0.9,0.5,1.4,0.8,2.3,1.3c0.9-0.5,1.4-0.8,2.3-1.3c-0.9-0.5-1.4-0.8-2.3-1.3
						C126.3,97.9,125.8,98.2,124.9,98.7z"/>
					<path class="st4" d="M121.6,96.8c0.9,0.5,1.4,0.8,2.3,1.3c0.9-0.5,1.4-0.8,2.3-1.3c-0.9-0.5-1.4-0.8-2.3-1.3
						C122.9,96,122.5,96.3,121.6,96.8z"/>
					<path class="st4" d="M118.2,94.9c0.9,0.5,1.4,0.8,2.3,1.3c0.9-0.5,1.4-0.8,2.3-1.3c-0.9-0.5-1.4-0.8-2.3-1.3
						C119.6,94.1,119.1,94.4,118.2,94.9z"/>
					<path class="st4" d="M114.9,93c0.9,0.5,1.4,0.8,2.3,1.3c0.9-0.5,1.4-0.8,2.3-1.3c-0.9-0.5-1.4-0.8-2.3-1.3
						C116.3,92.2,115.8,92.5,114.9,93z"/>
					<path class="st4" d="M111.6,91.1c0.9,0.5,1.4,0.8,2.3,1.3c0.9-0.5,1.4-0.8,2.3-1.3c-0.9-0.5-1.4-0.8-2.3-1.3
						C113,90.3,112.5,90.6,111.6,91.1z"/>
					<path class="st4" d="M108.3,89.2c0.9,0.5,1.4,0.8,2.3,1.3c0.9-0.5,1.4-0.8,2.3-1.3c-0.9-0.5-1.4-0.8-2.3-1.3
						C109.6,88.4,109.2,88.7,108.3,89.2z"/>
					<path class="st4" d="M104.9,87.3c0.9,0.5,1.4,0.8,2.3,1.3c0.9-0.5,1.4-0.8,2.3-1.3c-0.9-0.5-1.4-0.8-2.3-1.3
						C106.3,86.5,105.8,86.7,104.9,87.3z"/>
					<path class="st4" d="M101.6,85.4c0.9,0.5,1.4,0.8,2.3,1.3c0.9-0.5,1.4-0.8,2.3-1.3c-0.9-0.5-1.4-0.8-2.3-1.3
						C103,84.6,102.5,84.8,101.6,85.4z"/>
					<path class="st4" d="M98.3,83.4c0.9,0.5,1.4,0.8,2.3,1.3c0.9-0.5,1.4-0.8,2.3-1.3c-0.9-0.5-1.4-0.8-2.3-1.3
						C99.7,82.7,99.2,82.9,98.3,83.4z"/>
					<path class="st4" d="M95,81.5c1.5,0.9,2.3,1.3,3.8,2.2c0.9-0.5,1.4-0.8,2.3-1.3c-1.5-0.9-2.3-1.3-3.8-2.2
						C96.3,80.8,95.9,81,95,81.5z"/>
					<path class="st4" d="M126.9,103.5c1.5,0.9,2.2,1.3,3.7,2.1c0.9-0.5,1.4-0.8,2.3-1.3c-1.5-0.9-2.2-1.3-3.7-2.1
						C128.2,102.7,127.8,103,126.9,103.5z"/>
					<path class="st4" d="M125,102.4c0.9,0.5,1.4,0.8,2.3,1.3c0.9-0.5,1.4-0.8,2.3-1.3c-0.9-0.5-1.4-0.8-2.3-1.3
						C126.4,101.7,125.9,101.9,125,102.4z"/>
					
						<ellipse transform="matrix(1 -2.684325e-03 2.684325e-03 1 -0.2694 0.3331)" class="st4" cx="124" cy="100.5" rx="2.3" ry="1.3"/>
					<path class="st4" d="M118.4,98.6c0.9,0.5,1.4,0.8,2.3,1.3c0.9-0.5,1.4-0.8,2.3-1.3c-0.9-0.5-1.4-0.8-2.3-1.3
						C119.7,97.8,119.3,98.1,118.4,98.6z"/>
					<path class="st4" d="M115,96.7c0.9,0.5,1.4,0.8,2.3,1.3c0.9-0.5,1.4-0.8,2.3-1.3c-0.9-0.5-1.4-0.8-2.3-1.3
						C116.4,95.9,116,96.2,115,96.7z"/>
					<path class="st4" d="M111.7,94.8c0.9,0.5,1.4,0.8,2.3,1.3c0.9-0.5,1.4-0.8,2.3-1.3c-0.9-0.5-1.4-0.8-2.3-1.3
						C113.1,94,112.6,94.3,111.7,94.8z"/>
					<path class="st4" d="M108.4,92.9c0.9,0.5,1.4,0.8,2.3,1.3c0.9-0.5,1.4-0.8,2.3-1.3c-0.9-0.5-1.4-0.8-2.3-1.3
						C109.8,92.1,109.3,92.4,108.4,92.9z"/>
					<path class="st4" d="M105.1,91c0.9,0.5,1.4,0.8,2.3,1.3c0.9-0.5,1.4-0.8,2.3-1.3c-0.9-0.5-1.4-0.8-2.3-1.3
						C106.4,90.2,106,90.5,105.1,91z"/>
					<path class="st4" d="M101.7,89.1c0.9,0.5,1.4,0.8,2.3,1.3c0.9-0.5,1.4-0.8,2.3-1.3c-0.9-0.5-1.4-0.8-2.3-1.3
						C103.1,88.3,102.7,88.6,101.7,89.1z"/>
					<path class="st4" d="M98.4,87.2c0.9,0.5,1.4,0.8,2.3,1.3c0.9-0.5,1.4-0.8,2.3-1.3c-0.9-0.5-1.4-0.8-2.3-1.3
						C99.8,86.4,99.3,86.6,98.4,87.2z"/>
					<path class="st4" d="M95.1,85.3c0.9,0.5,1.4,0.8,2.3,1.3c0.9-0.5,1.4-0.8,2.3-1.3c-0.9-0.5-1.4-0.8-2.3-1.3
						C96.5,84.5,96,84.7,95.1,85.3z"/>
					<path class="st4" d="M91.8,83.3c0.9,0.5,1.4,0.8,2.3,1.3c0.9-0.5,1.4-0.8,2.3-1.3c-0.9-0.5-1.4-0.8-2.3-1.3
						C93.1,82.6,92.7,82.8,91.8,83.3z"/>
					<path class="st4" d="M125.1,106.2c0.9,0.5,1.4,0.8,2.3,1.3c0.9-0.5,1.4-0.8,2.3-1.3c-0.9-0.5-1.4-0.8-2.3-1.3
						C126.5,105.4,126.1,105.6,125.1,106.2z"/>
					<path class="st4" d="M121.8,104.2c0.9,0.5,1.4,0.8,2.3,1.3c0.9-0.5,1.4-0.8,2.3-1.3c-0.9-0.5-1.4-0.8-2.3-1.3
						C123.2,103.5,122.7,103.7,121.8,104.2z"/>
					<path class="st4" d="M118.5,102.3c0.9,0.5,1.4,0.8,2.3,1.3c0.9-0.5,1.4-0.8,2.3-1.3c-0.9-0.5-1.4-0.8-2.3-1.3
						C119.9,101.6,119.4,101.8,118.5,102.3z"/>
					<path class="st4" d="M115.2,100.4c0.9,0.5,1.4,0.8,2.3,1.3c0.9-0.5,1.4-0.8,2.3-1.3c-0.9-0.5-1.4-0.8-2.3-1.3
						C116.5,99.7,116.1,99.9,115.2,100.4z"/>
					<path class="st4" d="M111.8,98.5c0.9,0.5,1.4,0.8,2.3,1.3c0.9-0.5,1.4-0.8,2.3-1.3c-0.9-0.5-1.4-0.8-2.3-1.3
						C113.2,97.7,112.8,98,111.8,98.5z"/>
					<path class="st4" d="M108.5,96.6c0.9,0.5,1.4,0.8,2.3,1.3c0.9-0.5,1.4-0.8,2.3-1.3c-0.9-0.5-1.4-0.8-2.3-1.3
						C109.9,95.8,109.4,96.1,108.5,96.6z"/>
					<path class="st4" d="M105.2,94.7c0.9,0.5,1.4,0.8,2.3,1.3c0.9-0.5,1.4-0.8,2.3-1.3c-0.9-0.5-1.4-0.8-2.3-1.3
						C106.6,93.9,106.1,94.2,105.2,94.7z"/>
					<path class="st4" d="M101.9,92.8c0.9,0.5,1.4,0.8,2.3,1.3c0.9-0.5,1.4-0.8,2.3-1.3c-0.9-0.5-1.4-0.8-2.3-1.3
						C103.2,92,102.8,92.3,101.9,92.8z"/>
					<path class="st4" d="M98.5,90.9c0.9,0.5,1.4,0.8,2.3,1.3c0.9-0.5,1.4-0.8,2.3-1.3c-0.9-0.5-1.4-0.8-2.3-1.3
						C99.9,90.1,99.5,90.4,98.5,90.9z"/>
					<path class="st4" d="M95.2,89c0.9,0.5,1.4,0.8,2.3,1.3c0.9-0.5,1.4-0.8,2.3-1.3c-0.9-0.5-1.4-0.8-2.3-1.3
						C96.6,88.2,96.1,88.5,95.2,89z"/>
					<path class="st4" d="M90.5,86.2c1.5,0.8,2.2,1.3,3.7,2.1c0.9-0.5,1.4-0.8,2.3-1.3c-1.5-0.8-2.2-1.3-3.7-2.1
						C91.8,85.5,91.4,85.7,90.5,86.2z"/>
					<path class="st4" d="M88.6,85.2c0.9,0.5,1.4,0.8,2.3,1.3c0.9-0.5,1.4-0.8,2.3-1.3c-0.9-0.5-1.4-0.8-2.3-1.3
						C89.9,84.4,89.5,84.6,88.6,85.2z"/>
					<path class="st4" d="M121.5,108.2c0.9,0.5,1.4,0.8,2.3,1.3c0.9-0.5,1.4-0.8,2.3-1.3c-0.9-0.5-1.4-0.8-2.3-1.3
						C122.9,107.4,122.4,107.7,121.5,108.2z"/>
					<path class="st4" d="M118.2,106.3c0.9,0.5,1.4,0.8,2.3,1.3c0.9-0.5,1.4-0.8,2.3-1.3c-0.9-0.5-1.4-0.8-2.3-1.3
						C119.5,105.5,119.1,105.8,118.2,106.3z"/>
					<path class="st4" d="M114.9,104.4c0.9,0.5,1.4,0.8,2.3,1.3c0.9-0.5,1.4-0.8,2.3-1.3c-0.9-0.5-1.4-0.8-2.3-1.3
						C116.2,103.6,115.8,103.9,114.9,104.4z"/>
					<path class="st4" d="M94.9,92.9c6.3,3.6,12.6,7.2,18.9,10.8c0.9-0.5,1.4-0.8,2.3-1.3c-6.3-3.6-12.6-7.2-18.9-10.8
						C96.3,92.2,95.8,92.4,94.9,92.9z"/>
					<path class="st4" d="M91.6,91c0.9,0.5,1.4,0.8,2.3,1.3c0.9-0.5,1.4-0.8,2.3-1.3c-0.9-0.5-1.4-0.8-2.3-1.3
						C92.9,90.3,92.5,90.5,91.6,91z"/>
					<path class="st4" d="M88.3,89.1c0.9,0.5,1.4,0.8,2.3,1.3c0.9-0.5,1.4-0.8,2.3-1.3c-0.9-0.5-1.4-0.8-2.3-1.3
						C89.6,88.3,89.2,88.6,88.3,89.1z"/>
					<path class="st4" d="M84.9,87.2c0.9,0.5,1.4,0.8,2.3,1.3c0.9-0.5,1.4-0.8,2.3-1.3c-0.9-0.5-1.4-0.8-2.3-1.3
						C86.3,86.4,85.8,86.7,84.9,87.2z"/>
				</g>
			</g>
			<polygon class="st4" points="110.3,104.7 94.8,95.7 85.9,101.2 101.5,110.2 			"/>
		</g>
		<path class="st10" d="M147,99.8l-43-63.8c-0.9-0.5-2,0.2-2,1.2l0.1,37L147,99.8z"/>
	</g>
	<path class="st9" d="M165.8,112.3l-11.8-6.8l-8.3,4.8c-0.2,0.1-0.2,0.5,0,0.6l10.8,6.3c0.2,0.1,0.5,0.1,0.8,0L165.8,112.3z"/>
	<g>
		<path class="st4" d="M54.7,113.8c0-0.2,0.1-0.4,0.3-0.5l16.6-9.6c0.4-0.3,1-0.3,1.4,0l27,15.6c0.2,0.1,0.3,0.3,0.3,0.5
			c0,0,0,0,0,0c0,0,0,0,0,0c0,0,0,0,0,0c0,0,0,0,0,0c0,0,0,0,0,0c0,0,0,0,0,0c0,0,0,0,0,0c0,0,0,0,0,0c0,0,0,0,0,0c0,0,0,0,0,0
			c0,0,0,0,0,0c0,0,0,0,0,0c0,0,0,0,0,0c0,0,0,0,0,0c0,0,0,0,0,0c0,0,0,0,0,0c0,0,0,0,0,0c0,0,0,0,0,0c0,0,0,0,0,0c0,0,0,0,0,0
			c0,0,0,0,0,0c0,0,0,0,0,0c0,0,0,0,0,0c0,0,0,0,0,0c0,0,0,0,0,0c0,0,0,0,0,0c0,0,0,0,0,0c0,0,0,0,0,0c0,0,0,0,0,0c0,0,0,0,0,0
			c0,0,0,0,0,0c0,0,0,0,0,0c0,0,0,0,0,0c0,0,0,0,0,0c0,0,0,0,0,0c0,0,0,0,0,0c0,0,0,0,0,0c0,0,0,0,0,0c0,0,0,0,0,0c0,0,0,0,0,0
			c0,0,0,0,0,0c0,0,0,0,0,0c0,0,0,0,0,0c0,0,0,0,0,0c0,0,0,0,0,0c0,0,0,0,0,0c0,0.2-0.1,0.4-0.3,0.5l-16.5,9.6
			c-0.5,0.3-1.1,0.3-1.6,0L55,115.1c-0.2-0.1-0.3-0.3-0.3-0.5c0,0,0,0,0,0c0,0,0,0,0,0c0,0,0,0,0,0c0,0,0,0,0,0c0,0,0,0,0,0
			c0,0,0,0,0,0c0,0,0,0,0,0c0,0,0,0,0,0c0,0,0,0,0,0c0,0,0,0,0,0c0,0,0,0,0,0c0,0,0,0,0,0c0,0,0,0,0,0c0,0,0,0,0,0c0,0,0,0,0,0
			c0,0,0,0,0,0c0,0,0,0,0,0c0,0,0,0,0,0c0,0,0,0,0,0c0,0,0,0,0,0c0,0,0,0,0,0c0,0,0,0,0,0c0,0,0,0,0,0c0,0,0,0,0,0c0,0,0,0,0,0
			c0,0,0,0,0,0c0,0,0,0,0,0c0,0,0,0,0,0c0,0,0,0,0,0c0,0,0,0,0,0c0,0,0,0,0,0c0,0,0,0,0,0c0,0,0,0,0,0c0,0,0,0,0,0c0,0,0,0,0,0
			c0,0,0,0,0,0c0,0,0,0,0,0c0,0,0,0,0,0c0,0,0,0,0,0c0,0,0,0,0,0C54.7,113.9,54.7,113.9,54.7,113.8
			C54.7,113.9,54.7,113.9,54.7,113.8C54.7,113.9,54.7,113.8,54.7,113.8C54.7,113.8,54.7,113.8,54.7,113.8
			C54.7,113.8,54.7,113.8,54.7,113.8C54.7,113.8,54.7,113.8,54.7,113.8z"/>
		<path class="st5" d="M100,119.3l-27-15.6c-0.4-0.3-1-0.3-1.4,0L55,113.3c-0.4,0.2-0.4,0.8,0,1l26.9,15.5c0.5,0.3,1.1,0.3,1.6,0
			l16.5-9.6C100.4,120,100.4,119.5,100,119.3z"/>
		<polygon class="st4" points="90.4,116.8 72.3,106.3 59.3,113.8 77.5,124.3 		"/>
		<ellipse class="st4" cx="87.9" cy="122.8" rx="2.9" ry="1.5"/>
		<polygon class="st4" points="95.7,119.8 93.1,118.3 90.5,119.8 93.1,121.3 		"/>
		<polygon class="st4" points="85.3,125.8 82.7,124.3 80.1,125.8 82.7,127.3 		"/>
	</g>
	<g>
		<path class="st11" d="M61.7,99.4l-1.9,0c-0.5,0-0.9,0.1-1.3,0.4l-6.2,3.6c-1.5,0.9-9.7,6.5-9.7,6.5c-0.4,0.3-0.4,1,0.1,1.2l0,0
			c0.2,0.1,0.5,0.1,0.7,0l16.4-9.1c0.4-0.2,0.7-0.6,1-1L61.7,99.4z"/>
		<path class="st5" d="M53.7,102.6L53.7,102.6l4.8-2.8c0,0,0,0,0,0c0.1-0.1,0.3-0.1,0.4-0.2c0,0,0.1,0,0.1,0c0.1,0,0.3-0.1,0.4-0.1
			c0.5,0.3,1.1,0.9,1.2,1.8l0,0c-0.1,0.1-0.1,0.1-0.2,0.2c0,0,0,0,0,0c-0.1,0.1-0.1,0.1-0.2,0.2c0,0-0.1,0.1-0.1,0.1
			c0,0-0.1,0.1-0.1,0.1c-0.1,0.1-0.2,0.1-0.3,0.2l-4.7,2.6C55.1,103.9,54.8,103.1,53.7,102.6z"/>
		<g>
			<path class="st11" d="M61.4,99.7C61.5,99.7,61.5,99.7,61.4,99.7l0.5-0.2c0,0,0.1-0.1,0.1-0.1c0-0.1-0.1-0.1-0.1-0.1l-0.4,0.2
				C61.4,99.5,61.3,99.6,61.4,99.7C61.4,99.6,61.4,99.7,61.4,99.7z"/>
		</g>
	</g>
	<path class="st3" d="M181.1,110.1l-13.9-8l-17.3,5.7l3,7.4C152.9,114.5,172.8,111.4,181.1,110.1z"/>
	<polygon class="st3" points="44,99.1 52.4,96.9 78.2,82.9 61.6,74.3 40.8,82 	"/>
	<g>
		<g>
			<g>
				<linearGradient id="SVGID_1_" gradientUnits="userSpaceOnUse" x1="164.9313" y1="104.0118" x2="149.3603" y2="108.6831">
					<stop  offset="0.1869" style="stop-color:#BC3C6D"/>
					<stop  offset="0.9383" style="stop-color:#D36389"/>
				</linearGradient>
				<path class="st12" d="M154.8,99l-7.9,2.6v9.9c0,2,2.7,3.6,6,3.6c3.3,0,6-1.6,6-3.6v-9.9L154.8,99z"/>
				<linearGradient id="SVGID_2_" gradientUnits="userSpaceOnUse" x1="146.9419" y1="101.6678" x2="158.8791" y2="101.6678">
					<stop  offset="0.1869" style="stop-color:#BC3C6D"/>
					<stop  offset="0.9383" style="stop-color:#D36389"/>
				</linearGradient>
				<ellipse class="st13" cx="152.9" cy="101.7" rx="6" ry="3.6"/>
				<path class="st14" d="M147.8,103.6c1.1,1,2.9,1.7,5.1,1.7c2.1,0,4-0.7,5.1-1.7c0.1-0.2,0.1-0.4,0.1-0.7c0-1.7-2.3-3.2-5.2-3.2
					c-2.9,0-5.2,1.4-5.2,3.2C147.7,103.1,147.8,103.4,147.8,103.6z"/>
			</g>
			<path class="st15" d="M152.9,98.5c3,0,5.6,1.5,5.6,3.2c0,1.7-2.5,3.2-5.6,3.2c-3,0-5.6-1.5-5.6-3.2
				C147.4,99.9,149.9,98.5,152.9,98.5 M152.9,98c-3.3,0-6,1.6-6,3.6c0,2,2.7,3.6,6,3.6s6-1.6,6-3.6C158.9,99.7,156.2,98,152.9,98
				L152.9,98z"/>
			<g>
				<path class="st16" d="M158,105.7l-0.2-0.1v0l0,0v0l0,0v0l0,0v0l0,0v0l0,0v0l0,0v0l0,0v0l0,0v0l0,0v0l0,0v0l0,0v0l0,0v0l0,0v0
					l0,0v0l0,0v0l0,0v0l0,0v0l0,0v0l0,0v0l0,0v0l0,0v0l0,0v0l0,0v0l0,0v0l0,0v0l0,0v0l0,0v0l0,0v0l0,0v0l0,0v0l0,0v0l0,0v0l0,0v0
					l0,0v0l0,0v0l0,0v0l0,0v0l0,0v0l0,0v0l0,0v0l0,0v0l0,0v0l0,0v0l0,0v0l0,0v0l0,0v0l0,0v0l0,0v0l0,0v0l0,0v0l0,0v0l0,0v0l0,0v0
					l0,0v0l0,0v0l0,0v0l0,0v0l0,0v0l0,0v0l0,0v0l0,0v0l0,0v0l0,0v0l0,0v0l0,0v0l0,0v0l0,0v0l0,0v0l0,0v0l0,0v0l0,0v0l0,0v0l0,0v0
					l0,0v0l0,0v0l0,0v0l0,0v0l0,0v0l0,0v0l0,0v0l0,0v0l0,0v0l0,0v0l0,0v0l0,0v0l0,0v0l0,0v0l0,0v0l0,0v0l0,0v0l0,0v0l0,0v0l0,0v0
					l0,0v0l0,0v0l0,0v0l0,0v0l0,0v0l0,0v0l0,0v0l0,0v0l0,0v0l0,0v0l0,0v0l0,0v0l0,0v0l0,0v0l0,0v0l0,0v0l0,0v0l0,0v0l0,0v0l0,0v0
					l0,0v0l0,0v0l0,0v0l0,0v0l0,0v0l0,0v0l0,0v0l0,0v0l0,0v0l0,0v0l0,0v0l0,0v0l0,0v0l0,0v0l0,0v0l0,0v0l0,0v0l0,0v0l0,0v0l0,0v0
					l0,0v0l0,0v0l0,0v0l0,0v0l0,0v0l0,0v0l0,0v0l0,0v0l0,0v0l0,0v0l0,0v0l0,0v0l0,0v0l0,0v0l0,0v0l0,0v0l0,0v0l0,0v0l0,0v0l0,0v0
					l0,0v0l0,0v0l0,0v0l0,0v0l0,0v0l0,0v0l0,0v0l0,0v0l0,0v0l0,0v0l0,0v0l0,0v0l0,0v0l0,0v0l0,0v0l0,0v0l0,0v0l0,0v0l0,0v0l0,0v0
					l0,0v0l0,0v0l0,0v0l0,0v0l0,0v0l0,0v0l0,0v0l0,0v0l0,0v0l0,0v0l0,0v0l0,0v0l0,0v0l0,0v0l0,0v0l0,0v0l0,0v0l0,0v0l0,0v0l0,0v0
					l0,0v0l0,0v0l0,0v0l0,0v0l0,0v0l0,0v0l0,0v0l0,0v0l0,0v0l0,0v0l0,0v0l0,0v0l0,0v0l0,0v0l0,0v0l0,0v0l0,0v0l0,0v0l0,0v0l0,0v0
					l0,0v0l0,0v0l0,0v0l0,0v0l0,0v0l0,0v0l0,0v0l0,0v0l0,0v0l0,0v0l0,0v0l0,0v0l0,0v0l0,0v0l0,0v0l0,0v0l0,0v0l0,0v0l0,0v0l0,0v0
					l0,0v0l0,0v0l0,0v0l0,0v0l0,0v0l0,0v0l0,0v0l0,0v0l0,0v0l0,0v0l0,0v0l0,0v0l0,0v0l0,0v0l0,0v0l0,0v0l0,0v0l0,0v0l0,0v0l0,0v0
					l0,0v0l0,0v0l0,0v0l0,0v0l0,0v0l0,0v0l0,0v0l0,0v0l0,0v0l0,0v0l0,0v0l0,0v0l0,0v0l0,0v0l0,0v0l0,0v0l0,0v0l0,0v0l0,0v0l0,0v0
					l0,0v0l0,0v0l0,0v0l0,0v0l0,0v0l0,0v0l0,0v0l0,0v0l0,0v0l0,0v0l0,0v0l0,0v0l0,0v0l0,0v0l0,0v0l0,0v0l0,0v0l0,0v0l0,0v0l0,0v0
					l0,0v0l0,0v0l0,0v0l0,0v0l0,0v0l0,0v0l0,0v0l0,0v1c1,0.7,1.6,1.8,1.6,3.1c0,0.4-0.1,0.8-0.4,1c-0.1,0-0.2,0-0.2,0v0c0,0,0,0,0,0
					v0c0,0,0,0,0,0v0c0,0,0,0,0,0v0c0,0,0,0,0,0v0c0,0,0,0,0,0v0c0,0,0,0,0,0v0c0,0,0,0,0,0v0c0,0,0,0,0,0v0c0,0,0,0,0,0v0
					c0,0,0,0,0,0v0c0,0,0,0,0,0v0c0,0,0,0,0,0v0c0,0,0,0,0,0v0c0,0,0,0,0,0v0c0,0,0,0,0,0v0c0,0,0,0,0,0v0c0,0,0,0,0,0v0
					c0,0,0,0,0,0v0c0,0,0,0,0,0v0c0,0,0,0,0,0v0c0,0,0,0,0,0v0c0,0,0,0,0,0v0c0,0,0,0,0,0v0c0,0,0,0,0,0v0c0,0,0,0,0,0v0
					c0,0,0,0,0,0v0c0,0,0,0,0,0v0c0,0,0,0,0,0v0c0,0,0,0,0,0v0c0,0,0,0,0,0v0c0,0,0,0,0,0v0c0,0,0,0,0,0v0c0,0,0,0,0,0v0
					c0,0,0,0,0,0v0c0,0,0,0,0,0v0c0,0,0,0,0,0v0c0,0,0,0,0,0v0c0,0,0,0,0,0v0c0,0,0,0,0,0v0c0,0,0,0,0,0v0c0,0,0,0,0,0v0
					c0,0,0,0,0,0v0c0,0,0,0,0,0v0c0,0,0,0,0,0v0c0,0,0,0,0,0v0c0,0,0,0,0,0v0c0,0,0,0,0,0v0c0,0,0,0,0,0v0c0,0,0,0,0,0v0
					c0,0,0,0,0,0v0c0,0,0,0,0,0v0c0,0,0,0,0,0v0c0,0,0,0,0,0v0c0,0,0,0,0,0v0c0,0,0,0,0,0v0c0,0,0,0,0,0v0c0,0,0,0,0,0v0
					c0,0,0,0,0,0v0c0,0,0,0,0,0v0c0,0,0,0,0,0v0c0,0,0,0,0,0v0c0,0,0,0,0,0v0c0,0,0,0,0,0v0c0,0,0,0,0,0v0c0,0,0,0,0,0v0
					c0,0,0,0,0,0v0c0,0,0,0,0,0v0c0,0,0,0,0,0v0c0,0,0,0,0,0v0c0,0,0,0,0,0v0c0,0,0,0,0,0v0c0,0,0,0,0,0v0c0,0,0,0,0,0v0
					c0,0,0,0,0,0v0c0,0,0,0,0,0v0c0,0,0,0,0,0v0c0,0,0,0,0,0v0c0,0,0,0,0,0v0c0,0,0,0,0,0v0c0,0,0,0,0,0v0c0,0,0,0,0,0v0
					c0,0,0,0,0,0v0c0,0,0,0,0,0v0c0,0,0,0,0,0v0c0,0,0,0,0,0v0c0,0,0,0,0,0v0c0,0,0,0,0,0v0c0,0,0,0,0,0v0c0,0,0,0,0,0v0
					c0,0,0,0,0,0v0c0,0,0,0,0,0v0c0,0,0,0,0,0v0c0,0,0,0,0,0v0c0,0,0,0,0,0v0c0,0,0,0,0,0v0c0,0,0,0,0,0v0c0,0,0,0,0,0v0
					c0,0,0,0,0,0v0c0,0,0,0,0,0v0c0,0,0,0,0,0v0c0,0,0,0,0,0v0c0,0,0,0,0,0v0c0,0,0,0,0,0v0c0,0,0,0,0,0v0c0,0,0,0,0,0v0
					c0,0,0,0,0,0v0c0,0,0,0,0,0v0c0,0,0,0,0,0v0c0,0,0,0,0,0v0c0,0,0,0,0,0v0c0,0,0,0,0,0v0c0,0,0,0,0,0v0c0,0,0,0,0,0v0
					c0,0,0,0,0,0v0c0,0,0,0,0,0v0c0,0,0,0,0,0v0c0,0,0,0,0,0v0c0,0,0,0,0,0v0c0,0,0,0,0,0v0c0,0,0,0,0,0v0c0,0,0,0,0,0v0
					c0,0,0,0,0,0v0c0,0,0,0,0,0v0c0,0,0,0,0,0v0c0,0,0,0,0,0v0c0,0,0,0,0,0v0c0,0,0,0,0,0v0c0,0,0,0,0,0v0c0,0,0,0,0,0v0
					c0,0,0,0,0,0v0c0,0,0,0,0,0v0c0,0,0,0,0,0v0c0,0,0,0,0,0v0c0,0,0,0,0,0v0c0,0,0,0,0,0v0c0,0,0,0,0,0v0c0,0,0,0,0,0v0
					c0,0,0,0,0,0v0c0,0,0,0,0,0v0c0,0,0,0,0,0v0c0,0,0,0,0,0v0c0,0,0,0,0,0v0c0,0,0,0,0,0v0c0,0,0,0,0,0v0c0,0,0,0,0,0v0
					c0,0,0,0,0,0v0c0,0,0,0,0,0v0c0,0,0,0,0,0v0c0,0,0,0,0,0v0c0,0,0,0,0,0v0c0,0,0,0,0,0v0c0,0,0,0,0,0v0c0,0,0,0,0,0v0
					c0,0,0,0,0,0v0c0,0,0,0,0,0v0c0,0,0,0,0,0v0c0,0,0,0,0,0v0c0,0,0,0,0,0v0c0,0,0,0,0,0v0c0,0,0,0,0,0v0c0,0,0,0,0,0v0
					c0,0,0,0,0,0v0c0,0,0,0,0,0v0c0,0,0,0,0,0v0c0,0,0,0,0,0v0c0,0,0,0,0,0v0c0,0,0,0,0,0v0c0,0,0,0,0,0v0c0,0,0,0,0,0v0
					c0,0,0,0,0,0v0c0,0,0,0,0,0v0c0,0,0,0,0,0v0c0,0,0,0,0,0v0c0,0,0,0,0,0v0c0,0,0,0,0,0v0c0,0,0,0,0,0v0c0,0,0,0,0,0v0
					c0,0,0,0,0,0v0c0,0,0,0,0,0v0c0,0,0,0,0,0v0c0,0,0,0,0,0v0c0,0,0,0,0,0v0c0,0,0,0,0,0v0c0,0,0,0,0,0v0c0,0,0,0,0,0v0
					c0,0,0,0,0,0v0c0,0,0,0,0,0v0c0,0,0,0,0,0v0c0,0,0,0,0,0v0c0,0,0,0,0,0v0c0,0,0,0,0,0v0c0,0,0,0,0,0v0c0,0,0,0,0,0v0
					c0,0,0,0,0,0v0c0,0,0,0,0,0v0c0,0,0,0,0,0v0c0,0,0,0,0,0v0c0,0,0,0,0,0v0c0,0,0,0,0,0v0c0,0,0,0,0,0v0c0,0,0,0,0,0v0
					c0,0,0,0,0,0v0c0,0,0,0,0,0v0c0,0,0,0,0,0v0c0,0,0,0,0,0v0c0,0,0,0,0,0v0c0,0,0,0,0,0v0c0,0,0,0,0,0v0c0,0,0,0,0,0v0
					c0,0,0,0,0,0v0c0,0,0,0,0,0v0c0,0,0,0,0,0v0c0,0,0,0,0,0v0c0,0,0,0,0,0v0c0,0,0,0,0,0v0c0,0,0,0,0,0v0c0,0,0,0,0,0v0
					c0,0,0,0,0,0v0c0,0,0,0,0,0v0c0,0,0,0,0,0v0c0,0,0,0,0,0v0c0,0,0,0,0,0v0c0,0,0,0,0,0v0c0,0,0,0,0,0v0c0,0,0,0,0,0v0
					c0,0,0,0,0,0v0c0,0,0,0,0,0v0c0,0,0,0,0,0v0c0,0,0,0,0,0v0c0,0,0,0,0,0v0c0,0,0,0,0,0v0c0,0,0,0,0,0v0c0,0,0,0,0,0v0
					c0,0,0,0,0,0v0c0,0,0,0,0,0v0c0,0,0,0,0,0v0c0,0,0,0,0,0v0c0,0,0,0,0,0v0c0,0,0,0,0,0v0c0,0,0,0,0,0v0c0,0,0,0,0,0v0
					c0,0,0,0,0,0v0c0,0,0,0,0,0v0c0,0,0,0,0,0v0c0,0,0,0,0,0v0c0,0,0,0,0,0v0c0,0,0,0,0,0v0c0,0,0,0,0,0v0c0,0,0,0,0,0v0
					c0,0,0,0,0,0v0c0,0,0,0,0,0v0c0,0,0,0,0,0v0c0,0,0,0,0,0v0c0,0,0,0,0,0v0c0,0,0,0,0,0v0c0,0,0,0,0,0v0c0,0,0,0,0,0v0
					c0,0,0,0,0,0v0c0,0,0,0,0,0v0c0,0,0,0,0,0v0c0,0,0,0,0,0v0c0,0,0,0,0,0v0c0,0,0,0,0,0v0c0,0,0,0,0,0v0c0,0,0,0,0,0v0
					c0,0,0,0,0,0v0c0,0,0,0,0,0v0c0,0,0,0,0,0v0c0,0,0,0,0,0v0c0,0,0,0,0,0v0c0,0,0,0,0,0v0c0,0,0,0,0,0v0c0,0,0,0,0,0v0
					c0,0,0,0,0,0v0c0,0,0,0,0,0v0c0,0,0,0,0,0v0c0,0,0,0,0,0v0c0,0,0,0,0,0v0c0,0,0,0,0,0v0c0,0,0,0,0,0v0c0,0,0,0,0,0v0
					c0,0,0,0,0,0v0c0,0,0,0,0,0v0c0,0,0,0,0,0v0c0,0,0,0,0,0v0c0,0,0,0,0,0v0c0,0,0,0,0,0v0c0,0,0,0,0,0v0c0,0,0,0,0,0v0
					c0,0,0,0,0,0v0c0,0,0,0,0,0v0c0,0,0,0,0,0v0c0,0,0,0,0,0v0c0,0,0,0,0,0v0c0,0,0,0,0,0v0c0,0,0,0,0,0v0c0,0,0,0,0,0v0
					c0,0,0,0,0,0v0c0,0,0,0,0,0v0c0,0,0,0,0,0v0c0,0,0,0,0,0v0.9c0.4,0,0.9-0.1,1.2-0.3c0,0,0,0,0,0c0,0,0,0,0,0c0,0,0,0,0,0
					c0,0,0,0,0,0c0,0,0,0,0,0c0,0,0,0,0,0c0,0,0,0,0,0c0,0,0,0,0,0c0,0,0,0,0,0c0,0,0,0,0,0c0,0,0,0,0,0c0,0,0,0,0,0c0,0,0,0,0,0
					c0,0,0,0,0,0c0,0,0,0,0,0c0,0,0,0,0,0c0,0,0,0,0,0c0,0,0,0,0,0c0,0,0,0,0,0c0,0,0,0,0,0c0,0,0,0,0,0c0,0,0,0,0,0c0,0,0,0,0,0
					c0,0,0,0,0,0c0,0,0,0,0,0c0,0,0,0,0,0c0,0,0,0,0,0c0,0,0,0,0,0c0,0,0,0,0,0c0,0,0,0,0,0c0,0,0,0,0,0c0,0,0,0,0,0c0,0,0,0,0,0
					c0,0,0,0,0,0c0,0,0,0,0,0c0,0,0,0,0,0c0,0,0,0,0,0c0,0,0,0,0,0c0,0,0,0,0,0c0,0,0,0,0,0c0,0,0,0,0,0c0,0,0,0,0,0c0,0,0,0,0,0
					c0,0,0,0,0,0c0,0,0,0,0,0c0,0,0,0,0,0c0,0,0,0,0,0c0,0,0,0,0,0c0,0,0,0,0,0c0,0,0,0,0,0c0,0,0,0,0,0c0,0,0,0,0,0c0,0,0,0,0,0
					c0,0,0,0,0,0c0,0,0,0,0,0c0,0,0,0,0,0c0,0,0,0,0,0c0,0,0,0,0,0c0,0,0,0,0,0c0,0,0,0,0,0c0,0,0,0,0,0c0,0,0,0,0,0c0,0,0,0,0,0
					c0,0,0,0,0,0c0,0,0,0,0,0c0,0,0,0,0,0c0,0,0,0,0,0c0,0,0,0,0,0c0,0,0,0,0,0c0,0,0,0,0,0c0,0,0,0,0,0c0,0,0,0,0,0c0,0,0,0,0,0
					c0,0,0,0,0,0c0,0,0,0,0,0c0,0,0,0,0,0c0,0,0,0,0,0c0,0,0,0,0,0c0,0,0,0,0,0c0,0,0,0,0,0c0,0,0,0,0,0c0,0,0,0,0,0c0,0,0,0,0,0
					c0,0,0,0,0,0c0,0,0,0,0,0c0,0,0,0,0,0c0,0,0,0,0,0c0,0,0,0,0,0c0,0,0,0,0,0c0,0,0,0,0,0c0,0,0,0,0,0c0,0,0,0,0,0c0,0,0,0,0,0
					c0,0,0,0,0,0c0,0,0,0,0,0c0,0,0,0,0,0c0,0,0,0,0,0c0,0,0,0,0,0c0,0,0,0,0,0c0,0,0,0,0,0c0,0,0,0,0,0c0,0,0,0,0,0c0,0,0,0,0,0
					c0,0,0,0,0,0c0,0,0,0,0,0c0,0,0,0,0,0c0,0,0,0,0,0c0,0,0,0,0,0c0,0,0,0,0,0c0,0,0,0,0,0c0,0,0,0,0,0c0,0,0,0,0,0c0,0,0,0,0,0
					c0,0,0,0,0,0c0,0,0,0,0,0c0,0,0,0,0,0c0,0,0,0,0,0c0,0,0,0,0,0c0,0,0,0,0,0c0,0,0,0,0,0c0,0,0,0,0,0c0,0,0,0,0,0c0,0,0,0,0,0
					c0,0,0,0,0,0c0,0,0,0,0,0c0,0,0,0,0,0c0,0,0,0,0,0c0,0,0,0,0,0c0,0,0,0,0,0c0,0,0,0,0,0c0,0,0,0,0,0c0,0,0,0,0,0c0,0,0,0,0,0
					c0,0,0,0,0,0c0,0,0,0,0,0c0,0,0,0,0,0c0,0,0,0,0,0c0,0,0,0,0,0c0,0,0,0,0,0c0,0,0,0,0,0c0,0,0,0,0,0c0,0,0,0,0,0c0,0,0,0,0,0
					c0,0,0,0,0,0c0,0,0,0,0,0c0,0,0,0,0,0c0,0,0,0,0,0c0,0,0,0,0,0c0,0,0,0,0,0c0,0,0,0,0,0c0,0,0,0,0,0c0,0,0,0,0,0c0,0,0,0,0,0
					c0,0,0,0,0,0c0,0,0,0,0,0c0,0,0,0,0,0c0,0,0,0,0,0c0,0,0,0,0,0c0,0,0,0,0,0c0,0,0,0,0,0c0,0,0,0,0,0c0,0,0,0,0,0c0,0,0,0,0,0
					c0,0,0,0,0,0c0,0,0,0,0,0c0,0,0,0,0,0c0,0,0,0,0,0c0,0,0,0,0,0c0,0,0,0,0,0c0,0,0,0,0,0c0,0,0,0,0,0c0,0,0,0,0,0c0,0,0,0,0,0
					c0,0,0,0,0,0c0,0,0,0,0,0c0,0,0,0,0,0c0,0,0,0,0,0c0,0,0,0,0,0c0,0,0,0,0,0c0,0,0,0,0,0c0,0,0,0,0,0c0,0,0,0,0,0c0,0,0,0,0,0
					c0,0,0,0,0,0c0,0,0,0,0,0c0,0,0,0,0,0c0,0,0,0,0,0c0,0,0,0,0,0c0,0,0,0,0,0c0,0,0,0,0,0c0,0,0,0,0,0c0,0,0,0,0,0c0,0,0,0,0,0
					c0,0,0,0,0,0c0,0,0,0,0,0c0,0,0,0,0,0c0,0,0,0,0,0c0,0,0,0,0,0c0,0,0,0,0,0c0,0,0,0,0,0c0,0,0,0,0,0c0,0,0,0,0,0c0,0,0,0,0,0
					c0,0,0,0,0,0c0,0,0,0,0,0c0,0,0,0,0,0c0,0,0,0,0,0c0,0,0,0,0,0c0,0,0,0,0,0c0,0,0,0,0,0c0,0,0,0,0,0c0,0,0,0,0,0c0,0,0,0,0,0
					c0,0,0,0,0,0c0,0,0,0,0,0c0,0,0,0,0,0c0,0,0,0,0,0c0,0,0,0,0,0c0,0,0,0,0,0c0,0,0,0,0,0c0,0,0,0,0,0c0,0,0,0,0,0c0,0,0,0,0,0
					c0,0,0,0,0,0c0,0,0,0,0,0c0,0,0,0,0,0c0,0,0,0,0,0c0,0,0,0,0,0c0,0,0,0,0,0c0,0,0,0,0,0c0,0,0,0,0,0c0,0,0,0,0,0c0,0,0,0,0,0
					c0,0,0,0,0,0c0,0,0,0,0,0c0,0,0,0,0,0c0,0,0,0,0,0c0,0,0,0,0,0c0,0,0,0,0,0c0,0,0,0,0,0c0,0,0,0,0,0c0,0,0,0,0,0c0,0,0,0,0,0
					c0,0,0,0,0,0c0,0,0,0,0,0c0,0,0,0,0,0c0,0,0,0,0,0c0,0,0,0,0,0c0,0,0,0,0,0c0,0,0,0,0,0c0,0,0,0,0,0c0,0,0,0,0,0c0,0,0,0,0,0
					c0,0,0,0,0,0c0,0,0,0,0,0c0,0,0,0,0,0c0,0,0,0,0,0c0,0,0,0,0,0c0,0,0,0,0,0c0,0,0,0,0,0c0,0,0,0,0,0c0,0,0,0,0,0c0,0,0,0,0,0
					c0,0,0,0,0,0c0,0,0,0,0,0c0,0,0,0,0,0c0,0,0,0,0,0c0,0,0,0,0,0c0,0,0,0,0,0c0,0,0,0,0,0c0,0,0,0,0,0c0,0,0,0,0,0c0,0,0,0,0,0
					c0,0,0,0,0,0c0,0,0,0,0,0c0,0,0,0,0,0c0,0,0,0,0,0c0,0,0,0,0,0c0,0,0,0,0,0c0,0,0,0,0,0c0,0,0,0,0,0c0,0,0,0,0,0c0,0,0,0,0,0
					c0,0,0,0,0,0c0,0,0,0,0,0c0,0,0,0,0,0c0,0,0,0,0,0c0,0,0,0,0,0c0,0,0,0,0,0c0,0,0,0,0,0c0,0,0,0,0,0c0,0,0,0,0,0c0,0,0,0,0,0
					c0,0,0,0,0,0c0,0,0,0,0,0c0,0,0,0,0,0c0,0,0,0,0,0c0,0,0,0,0,0c0,0,0,0,0,0c0,0,0,0,0,0c0,0,0,0,0,0c0,0,0,0,0,0c0,0,0,0,0,0
					c0,0,0,0,0,0c0,0,0,0,0,0c0,0,0,0,0,0c0,0,0,0,0,0c0,0,0,0,0,0c0,0,0,0,0,0c0,0,0,0,0,0c0,0,0,0,0,0c0,0,0,0,0,0c0,0,0,0,0,0
					c0,0,0,0,0,0c0,0,0,0,0,0c0,0,0,0,0,0c0,0,0,0,0,0c0,0,0,0,0,0c0,0,0,0,0,0c0,0,0,0,0,0c0,0,0,0,0,0c0,0,0,0,0,0c0,0,0,0,0,0
					c0,0,0,0,0,0c0,0,0,0,0,0c0,0,0,0,0,0c0,0,0,0,0,0c0,0,0,0,0,0c0,0,0,0,0,0c0,0,0,0,0,0c0,0,0,0,0,0c0,0,0,0,0,0c0,0,0,0,0,0
					c0,0,0,0,0,0c0,0,0,0,0,0c0,0,0,0,0,0c0,0,0,0,0,0c0,0,0,0,0,0c0,0,0,0,0,0c0,0,0,0,0,0c0,0,0,0,0,0c0,0,0,0,0,0c0,0,0,0,0,0
					c0,0,0,0,0,0c0,0,0,0,0,0c0,0,0,0,0,0c0,0,0,0,0,0c0,0,0,0,0,0c0,0,0,0,0,0c0,0,0,0,0,0c0,0,0,0,0,0c0,0,0,0,0,0c0,0,0,0,0,0
					c0,0,0,0,0,0c0,0,0,0,0,0c0,0,0,0,0,0c0,0,0,0,0,0c0,0,0,0,0,0c0,0,0,0,0,0c0,0,0,0,0,0c0,0,0,0,0,0c0,0,0,0,0,0c0,0,0,0,0,0
					c0,0,0,0,0,0c0,0,0,0,0,0c0,0,0,0,0,0c0,0,0,0,0,0c0,0,0,0,0,0c0,0,0,0,0,0c0,0,0,0,0,0c0,0,0,0,0,0c0,0,0,0,0,0c0,0,0,0,0,0
					c0,0,0,0,0,0c0,0,0,0,0,0c0,0,0,0,0,0c0,0,0,0,0,0c0,0,0,0,0,0c0,0,0,0,0,0c0,0,0,0,0,0c0,0,0,0,0,0c0,0,0,0,0,0c0,0,0,0,0,0
					c0,0,0,0,0,0c0,0,0,0,0,0c0,0,0,0,0,0c0,0,0,0,0,0c0,0,0,0,0,0c0,0,0,0,0,0c0,0,0,0,0,0c0,0,0,0,0,0c0,0,0,0,0,0c0,0,0,0,0,0
					c0,0,0,0,0,0c0,0,0,0,0,0c0,0,0,0,0,0c0,0,0,0,0,0c0,0,0,0,0,0c0,0,0,0,0,0c0,0,0,0,0,0c0,0,0,0,0,0c0,0,0,0,0,0c0,0,0,0,0,0
					c0,0,0,0,0,0c0,0,0,0,0,0c0,0,0,0,0,0c0,0,0,0,0,0c0,0,0,0,0,0c0,0,0,0,0,0c0,0,0,0,0,0c0,0,0,0,0,0c0,0,0,0,0,0c0,0,0,0,0,0
					c0,0,0,0,0,0c0,0,0,0,0,0c0,0,0,0,0,0c0,0,0,0,0,0c0,0,0,0,0,0c0,0,0,0,0,0c0,0,0,0,0,0c0,0,0,0,0,0c0,0,0,0,0,0c0,0,0,0,0,0
					c0,0,0,0,0,0c0,0,0,0,0,0c0,0,0,0,0,0c0,0,0,0,0,0c0,0,0,0,0,0c0,0,0,0,0,0c0,0,0,0,0,0c0,0,0,0,0,0c0,0,0,0,0,0c0,0,0,0,0,0
					c0,0,0,0,0,0c0,0,0,0,0,0c0,0,0,0,0,0c0,0,0,0,0,0c0,0,0,0,0,0c0,0,0,0,0,0c0,0,0,0,0,0c0,0,0,0,0,0c0,0,0,0,0,0c0,0,0,0,0,0
					c0,0,0,0,0,0c0,0,0,0,0,0c0,0,0,0,0,0c0,0,0,0,0,0c0,0,0,0,0,0c0,0,0,0,0,0c0,0,0,0,0,0c0,0,0,0,0,0c0,0,0,0,0,0c0,0,0,0,0,0
					c0,0,0,0,0,0c0,0,0,0,0,0c0,0,0,0,0,0c0,0,0,0,0,0c0,0,0,0,0,0c0,0,0,0,0,0c0,0,0,0,0,0c0,0,0,0,0,0c0,0,0,0,0,0c0,0,0,0,0,0
					c0,0,0,0,0,0c0,0,0,0,0,0c0,0,0,0,0,0c0,0,0,0,0,0c0,0,0,0,0,0c0,0,0,0,0,0c0,0,0,0,0,0c0,0,0,0,0,0c0,0,0,0,0,0c0,0,0,0,0,0
					c0,0,0,0,0,0c0,0,0,0,0,0c0,0,0,0,0,0c0,0,0,0,0,0c0,0,0,0,0,0c0,0,0,0,0,0c0,0,0,0,0,0c0,0,0,0,0,0c0,0,0,0,0,0c0,0,0,0,0,0
					c0,0,0,0,0,0c0,0,0,0,0,0c0,0,0,0,0,0c0,0,0,0,0,0c0,0,0,0,0,0c0,0,0,0,0,0c0,0,0,0,0,0c0,0,0,0,0,0c0,0,0,0,0,0c0,0,0,0,0,0
					c0,0,0,0,0,0c0,0,0,0,0,0c0,0,0,0,0,0c0,0,0,0,0,0c0,0,0,0,0,0c0,0,0,0,0,0c0,0,0,0,0,0c0,0,0,0,0,0c0,0,0,0,0,0c0,0,0,0,0,0
					c0,0,0,0,0,0c0,0,0,0,0,0c0,0,0,0,0,0c0,0,0,0,0,0c0,0,0,0,0,0c0,0,0,0,0,0c0,0,0,0,0,0c0,0,0,0,0,0c0,0,0,0,0,0c0,0,0,0,0,0
					c0,0,0,0,0,0c0,0,0,0,0,0c0,0,0,0,0,0c0,0,0,0,0,0c0,0,0,0,0,0c0,0,0,0,0,0c0,0,0,0,0,0c0,0,0,0,0,0c0,0,0,0,0,0c0,0,0,0,0,0
					c0,0,0,0,0,0c0,0,0,0,0,0c0,0,0,0,0,0c0,0,0,0,0,0c0,0,0,0,0,0c0,0,0,0,0,0c0,0,0,0,0,0c0,0,0,0,0,0c0,0,0,0,0,0c0,0,0,0,0,0
					c0,0,0,0,0,0c0,0,0,0,0,0c0,0,0,0,0,0c0,0,0,0,0,0c0,0,0,0,0,0c0,0,0,0,0,0c0,0,0,0,0,0c0,0,0,0,0,0c0,0,0,0,0,0c0,0,0,0,0,0
					c0,0,0,0,0,0c0,0,0,0,0,0c0,0,0,0,0,0c0,0,0,0,0,0c0,0,0,0,0,0c0,0,0,0,0,0c0,0,0,0,0,0c0,0,0,0,0,0c0,0,0,0,0,0c0,0,0,0,0,0
					c0,0,0,0,0,0c0,0,0,0,0,0c0,0,0,0,0,0c0,0,0,0,0,0c0,0,0,0,0,0c0,0,0,0,0,0c0,0,0,0,0,0c0,0,0,0,0,0c0,0,0,0,0,0c0,0,0,0,0,0
					c0,0,0,0,0,0c0,0,0,0,0,0c0,0,0,0,0,0c0,0,0,0,0,0c0,0,0,0,0,0c0,0,0,0,0,0c0,0,0,0,0,0c0,0,0,0,0,0c0,0,0,0,0,0c0,0,0,0,0,0
					c0,0,0,0,0,0c0,0,0,0,0,0c0,0,0,0,0,0c0,0,0,0,0,0c0,0,0,0,0,0c0,0,0,0,0,0c0,0,0,0,0,0c0,0,0,0,0,0c0,0,0,0,0,0c0,0,0,0,0,0
					c0,0,0,0,0,0c0,0,0,0,0,0c0,0,0,0,0,0c0,0,0,0,0,0c0,0,0,0,0,0c0,0,0,0,0,0c0,0,0,0,0,0c0,0,0,0,0,0c0,0,0,0,0,0c0,0,0,0,0,0
					c0,0,0,0,0,0c0,0,0,0,0,0c0,0,0,0,0,0c0,0,0,0,0,0c0,0,0,0,0,0c0,0,0,0,0,0c0,0,0,0,0,0c0,0,0,0,0,0c0,0,0,0,0,0
					c0.8-0.5,1.2-1.3,1.2-2.2C160.3,108,159.4,106.5,158,105.7z"/>
				<path class="st17" d="M157,106.3l-0.2-0.1v1c1,0.7,1.6,1.8,1.6,3.1c0,0.6-0.3,1.1-0.8,1.4c-0.3,0.1-0.5,0.2-0.8,0.2v0.9
					c0.4,0,0.9-0.1,1.2-0.3c0.8-0.5,1.2-1.3,1.2-2.2C159.2,108.6,158.4,107.1,157,106.3z"/>
			</g>
		</g>
	</g>
	<g>
		<g>
			<g>
				<path class="st9" d="M78.6,57.4l-7.4,2.5v9.3c0,1.9,2.5,3.4,5.6,3.4s5.6-1.5,5.6-3.4v-9.3L78.6,57.4z"/>
				<ellipse class="st18" cx="76.8" cy="59.9" rx="5.6" ry="3.4"/>
				<path class="st14" d="M72,61.6c1,1,2.8,1.6,4.8,1.6c2,0,3.8-0.7,4.8-1.6c0.1-0.2,0.1-0.4,0.1-0.6c0-1.6-2.2-3-4.9-3
					c-2.7,0-4.9,1.3-4.9,3C71.9,61.2,72,61.4,72,61.6z"/>
			</g>
			<path class="st19" d="M76.8,56.8c2.8,0,5.2,1.4,5.2,3s-2.4,3-5.2,3c-2.8,0-5.2-1.4-5.2-3S74,56.8,76.8,56.8 M76.8,56.4
				c-3.1,0-5.6,1.5-5.6,3.4s2.5,3.4,5.6,3.4c3.1,0,5.6-1.5,5.6-3.4S79.9,56.4,76.8,56.4L76.8,56.4z"/>
		</g>
		<path class="st20" d="M81.6,44.1c-0.5,1-0.5,2.1-0.5,3.2c0,1.2,0,2.5,0,3.7c0,1.4,0,2.8-0.4,4.2c-0.4,1.4-1.2,2.7-2.5,3.3
			c-0.6,0.3-1.4,0.4-2,0.1c-0.3-0.2-0.5-0.4-0.6-0.7c-1.4-2.2-0.1-5.2,0.9-7.4C77.7,48.1,79.5,45.8,81.6,44.1z"/>
		<path class="st21" d="M70.9,54.3c-0.4-4.6-0.1-9.4-1.3-13.9c3.1,3.8,4.6,8.8,4.1,13.6c1-3.2,2.1-6.5,2-9.8c0-1.6,1-5.4,1-5.4
			s0.6,3.6,1.1,5.4c0.4,1.2,0.4,2.5,0.5,3.7c0.1,1.8,0.2,3.7,0.3,5.5c1.5-4.6,5.6-11,5.6-11S82.8,54.6,82,57.4
			c-0.9,3.1-3.8,5.3-7.2,4.5C71.8,61.2,71.1,56.8,70.9,54.3z"/>
		<path class="st22" d="M73.3,58.9c-0.6-1.8,0-3.7,0.4-5.5c0.5-2.2,0.7-4.5,0.2-6.6c1.6,3.4,3,6.9,4.2,10.5c0.3,0.9,0.6,1.9,0.3,2.9
			c-0.3,0.9-1.9,2.4-2.9,2.2C74.7,62,73.6,59.6,73.3,58.9z"/>
	</g>
	<g>
		<g>
			<polygon class="st23" points="26.7,89.2 44,99.1 44,97.7 26.7,87.8 			"/>
			<polygon class="st24" points="26.7,87.8 48.9,74.9 66.2,84.9 44,97.7 			"/>
			<polygon class="st25" points="44,99.1 66.2,86.3 66.2,84.9 44,97.7 			"/>
			<polygon class="st23" points="26.7,83.4 44,93.4 44,92 26.7,82 			"/>
			<polygon class="st26" points="66.2,79.2 44,92 26.7,82 48.9,69.2 			"/>
			<polygon class="st25" points="44,93.4 66.2,80.6 66.2,79.2 44,92 			"/>
			<path class="st27" d="M26.7,83.4L26.7,83.4c-1.3,0.8-1.6,2.5-0.6,3.6l0.6,0.7l17.3,10l22.2-12.8v-4.3L44,93.4L26.7,83.4z"/>
			<path class="st23" d="M26.3,82.2l0.4-0.2v1.4l0,0c-1.3,0.8-1.6,2.5-0.6,3.6l0.6,0.7v1.4l-1.2-1.3C23.9,86.2,24.3,83.4,26.3,82.2z
				"/>
			<polygon class="st23" points="27.9,89.9 27.9,88.5 26.7,87.8 26.7,89.2 			"/>
			<polygon class="st3" points="44,93.4 44,97.7 66.2,84.9 66.2,80.6 			"/>
		</g>
		<g>
			<polygon class="st28" points="60.6,82.7 47.1,90.5 47.1,89.4 60.6,81.6 			"/>
			<polygon class="st24" points="60.6,81.6 43.3,71.5 29.7,79.3 47.1,89.4 			"/>
			<polygon class="st29" points="47.1,90.5 29.7,80.4 29.7,79.3 47.1,89.4 			"/>
			<polygon class="st28" points="60.6,78.2 47.1,86 47.1,84.9 60.6,77.1 			"/>
			<polygon class="st30" points="29.7,74.8 47.1,84.9 60.6,77.1 43.3,67 			"/>
			<polygon class="st29" points="47.1,86 29.7,75.9 29.7,74.8 47.1,84.9 			"/>
			<path class="st27" d="M60.6,78.2L60.6,78.2c1,0.6,1.2,2,0.5,2.8l-0.5,0.5l-13.5,7.8l-17.4-10v-3.4l17.4,10L60.6,78.2z"/>
			<path class="st3" d="M60.6,78.2c1,0.6,1.2,2,0.5,2.8l-0.5,0.5l-13.5,7.8V86L60.6,78.2z"/>
			<path class="st28" d="M61,77.2l-0.3-0.2v1.1l0,0c1,0.6,1.2,2,0.5,2.8l-0.5,0.5v1.1l1-1C62.8,80.3,62.5,78.2,61,77.2z"/>
			<polygon class="st27" points="53.9,77.6 42.3,70.9 36.5,74.3 48,81 			"/>
		</g>
		<g>
			<polygon class="st31" points="31,77.4 43.6,84.7 43.6,83.6 31,76.4 			"/>
			<polygon class="st24" points="31,76.4 47.2,67 59.7,74.3 43.6,83.6 			"/>
			<polygon class="st32" points="43.6,84.7 59.7,75.3 59.7,74.3 43.6,83.6 			"/>
			<polygon class="st31" points="31,73.2 43.6,80.5 43.6,79.5 31,72.2 			"/>
			<polygon class="st33" points="59.7,70.1 43.6,79.5 31,72.2 47.2,62.8 			"/>
			<polygon class="st32" points="43.6,80.5 59.7,71.1 59.7,70.1 43.6,79.5 			"/>
			<path class="st27" d="M31,73.2L31,73.2c-0.9,0.6-1.1,1.8-0.4,2.6l0.4,0.5l12.6,7.3l16.2-9.3v-3.1l-16.2,9.3L31,73.2z"/>
			<path class="st31" d="M30.7,72.4l0.3-0.2l0,1l0,0c-0.9,0.6-1.1,1.8-0.4,2.6l0.4,0.5v1l-0.9-0.9C28.9,75.2,29.2,73.2,30.7,72.4z"
				/>
			<g>
				<path class="st32" d="M47.1,64.8l-12.6,7.4l8.4,4.8l12.6-7.3L47.1,64.8z"/>
			</g>
			<polygon class="st3" points="43.6,83.6 43.6,80.5 59.7,71.1 59.7,74.3 			"/>
		</g>
	</g>
	<g>
		<polygon class="st27" points="98.1,139.1 124.6,123.8 143.1,134.6 116.6,149.9 		"/>
		<g>
			<defs>
				<polygon id="SVGID_3_" points="111.3,134.9 125.1,126.8 137.8,134.2 123.9,142.3 				"/>
			</defs>
			<clipPath id="SVGID_4_">
				<use xlink:href="#SVGID_3_"  style="overflow:visible;"/>
			</clipPath>
			<g class="st34">
				
					<rect x="130.7" y="123" transform="matrix(0.5047 -0.8633 0.8633 0.5047 -47.8985 177.8163)" class="st35" width="0.7" height="15.2"/>
			</g>
			<g class="st34">
				
					<rect x="128.1" y="124.5" transform="matrix(0.4961 -0.8683 0.8683 0.4961 -50.1228 178.1662)" class="st35" width="0.7" height="15.5"/>
			</g>
			<g class="st34">
				
					<rect x="125.6" y="126.1" transform="matrix(0.4861 -0.8739 0.8739 0.4861 -52.1689 178.7475)" class="st35" width="0.7" height="15.2"/>
			</g>
			<g class="st34">
				
					<rect x="122.7" y="127.6" transform="matrix(0.4947 -0.8691 0.8691 0.4947 -55.3228 175.2438)" class="st35" width="0.7" height="15.1"/>
			</g>
			<g class="st34">
				
					<rect x="120.2" y="129.2" transform="matrix(0.5021 -0.8648 0.8648 0.5021 -58.2914 172.409)" class="st35" width="0.7" height="15.4"/>
			</g>
			<g class="st34">
				
					<rect x="117.6" y="130.8" transform="matrix(0.5047 -0.8633 0.8633 0.5047 -61.0648 170.4229)" class="st35" width="0.7" height="15.2"/>
			</g>
		</g>
	</g>
	<path class="st3" d="M132.8,138.1l5-1.2l18.1-9.7c0.8-0.4,0.8-1.5,0-1.9l-7.6-4.5c-0.3-0.2-0.7-0.2-1.1,0l-11.2,5.8L132.8,138.1z"
		/>
	<g>
		<g>
			<path class="st5" d="M122.9,132.5c0-0.1,0-0.1,0-0.2v-1l2-0.4c4.5-2.6,16.5-9.6,17.2-10c0.9-0.5,1.7,0,1.7,0s5.9,3.4,8,4.6l1-0.2
				v1c0,0.3-0.4,0.6-0.4,0.6s-18.1,10.4-18.9,10.9c-0.3,0.2-0.5,0.2-0.8,0.2h0h0c-0.5,0-0.9-0.2-0.9-0.2l-7.7-4.5c0,0,0,0-0.9-0.5
				C123.1,132.8,123,132.6,122.9,132.5L122.9,132.5L122.9,132.5z"/>
			<path class="st9" d="M124.2,132.4l7.7,4.5c0,0,0.9,0.5,1.7,0c0.9-0.5,18.9-10.9,18.9-10.9s0.9-0.5,0-1c-0.9-0.5-8.6-5-8.6-5
				s-0.9-0.5-1.7,0c-0.9,0.5-18.9,10.9-18.9,10.9s-0.9,0.5,0,1C124.2,132.4,124.2,132.4,124.2,132.4z"/>
			<polygon class="st6" points="126.7,129.9 142.2,121 150.8,126 135.3,134.9 			"/>
			<path class="st27" d="M147.8,122.9c0,0.1-0.2,0.2-0.4,0.2c-0.2,0-0.4-0.1-0.4-0.2c0-0.1,0.2-0.2,0.4-0.2
				C147.6,122.7,147.8,122.8,147.8,122.9z"/>
		</g>
		<path class="st10" d="M142.5,119.9c0.8-0.3,1.4,0.1,1.4,0.1s7.7,4.5,8.6,5c0.9,0.5,0,1,0,1s-18.1,10.4-18.9,10.9
			c-0.2,0.1-0.4,0.2-0.6,0.2C136.1,131.5,140.4,123.7,142.5,119.9z"/>
	</g>
</g>
</svg>
