<svg id="Layer_1" xmlns="http://www.w3.org/2000/svg" viewBox="0 0 576.1 486.2"><style>.st2{fill:#fff}.st4{fill:none;stroke:#fff;stroke-width:.8237;stroke-linecap:round;stroke-linejoin:round;stroke-miterlimit:10}.st8{fill:#fe5a3e}.st11{fill:#fe3c58}.st13{fill:#fe395b}.st15{fill:#ec4224}.st16{fill:#f9f7f8}.st34{fill:#62666c}.st48{fill:#fa9e88}.st65{fill:#da6f5d}.st103{fill:#f4f4f4}.st104{fill:#f9f9f9}.st105{fill:#151616}.st106{fill:none}.st111{fill:#fefefe}.st112{fill:#fde293}.st113{fill:#dfaf58}.st115{fill:#7fbea3}.st119{fill:#80cdd9}.st121{fill:#482e8c}.st124{fill:#ead07b}.st126{fill:#513992}.st127{fill:#f7f6f9}.st131{fill:#6d58a0}.st133{fill:#7966ab}.st135{fill:#e2e2e3}.st136{fill:#634e9e}.st139{fill:#6954a1}.st154{fill:#a6976b}.st157{fill:#5e489a}.st158{fill:#584297}.st165{fill:#503892}.st170{fill:#fafafc}.st171{fill:#fbfafc}.st174{fill:#624d9d}.st175{fill:#6853a0}.st180{fill:#f4f3f8}.st182{fill:#6b56a2}.st188{fill:#8c7cb7}.st191{fill:#6c58a3}.st195{fill:#9b9b9b}.st198{fill:#919191}.st210{fill:#391d83}.st213{fill:#8e825f}.st228{fill:#c5c5c5}.st233{fill:#404040}.st234{fill:#424242}.st237{fill:#353534}.st242{fill:#9c8e65}.st244{fill:#a7baa2}.st247{fill:#ad9d6d}.st248{fill:#a6976a}.st266{fill:#fdfdfd}.st270{fill:#e3e0ed}.st271{fill:#fdfdfe}.st272{fill:#fcfcfd}.st274{fill:#f8f7fa}.st280{fill:#e0dceb}.st282{fill:#f1eff6}.st285{fill:#fbfbfc}.st286{fill:#c3bbd9}.st288{fill:#f6f5f9}.st289{fill:#f5f3f8}.st306{fill:#eedf8f}.st309{fill:#959595}.st318{fill:#a194c4}.st319{fill:#a99dc9}.st323{fill:#988abe}.st325{fill:#bbb}</style><path d="M131.4 437.9V290.1c0-17.1 13.8-30.9 30.9-30.9h356.3c17.1 0 30.9 13.8 30.9 30.9v147.8c0 17.1-13.8 30.9-30.9 30.9H162.3c-17.1.1-30.9-13.8-30.9-30.9z" fill="#818284"/><path d="M134.6 436.8V291.7c0-17.1 13.8-30.9 30.9-30.9h350.9c17.1 0 30.9 13.8 30.9 30.9v145.1c0 17.1-13.8 30.9-30.9 30.9H165.5c-17.1 0-30.9-13.8-30.9-30.9z" fill="#010101"/><path transform="rotate(90 341.564 364.47)" class="st2" d="M243.8 191h195.5v346.9H243.8z"/><path d="M527.3 384v-41.3c0-.8.6-1.4 1.4-1.4.8 0 1.4.6 1.4 1.4V384c0 .8-.6 1.4-1.4 1.4-.7.1-1.4-.6-1.4-1.4z" fill="#535353"/><path class="st2" d="M155.1 298h1.1v7.8h-1.1z"/><path transform="rotate(90 152.557 364.67)" class="st4" d="M149.5 361.6h6.1v6.1h-6.1z"/><path class="st4" d="M156 422.7l-2.8-2.8c-.4-.4-1.1-.4-1.5 0l-2.8 2.8"/><path d="M548.4 385.4L164.4 263l354.2-2.7c16-.1 29 12.7 29.3 28.6.5 37 1.2 96.5.5 96.5z" opacity=".1" fill="#f5fdff"/><path d="M501.5 463.4H167.6c-1.6 0-2-.4-2-2V269c0-1.6.4-2 2-2h333.9c1 1.1.8 2.5.8 3.7v188.2c0 1.6.3 3.2-.8 4.5z" fill="#e3e1e2"/><path d="M501.5 463.4V267.1h12c.9 0 1.3.2 1.1 1.1-.1.3 0 .6 0 .9v192.4c0 1.6-.4 2.1-2 2-3.7-.2-7.4-.1-11.1-.1z" fill="#ee3e1d"/><path class="st8" d="M358.4 322.1c9.7.1 17.4 7.3 18.3 16.9.3 3.3.5 6.6.5 10-.1 11.7.1 23.4-.1 35.1-.1 4.6 0 9.4-2.1 13.6-3.2 6.5-8.4 10.2-15.8 10.6-2.6-.7-5.1.8-7.9.1 1-1.2.9-2.7 1.2-4 .2-.8 0-1.3-.6-1.9-1.5-1.5-1.5-1.6.9-2.2-.9-.9-1.5-1.8.2-2.5 1.5-.6 1.4-1.7.9-2.9-.7-1.5-.8-2.8.6-3.9.4-.3.5-.7.2-1.1-1.1-1.5-.2-2.1 1.1-2.5 1-.3 1.3-1 1.5-1.9 1.6-2.4 1.8-5.1 1.7-7.9-.1-1.8-.1-3.5 2.1-4.2.9-.3.9-1.3.9-2.1.1-4.9.1-9.7 0-14.6 0-1.1-.4-2-1.4-2.5-1.3-.7-1.6-1.8-1.6-3.1v-3c.1-2.2-.3-4.2-1.9-5.8-.4-.4-.7-.9-.7-1.6.3-1.2.2-2.5-.2-3.7-1.3-4.3-.5-8.6-.7-13 0-2 1.7-1.5 2.9-1.9z"/><path d="M310.8 408.5c-11-.3-19.9-5.8-20.5-18.9-.7-14.9-.2-29.8-.3-44.6 0-5.6.5-11.2 4.2-15.9 3-3.7 6.8-6.3 11.7-6.6.4-.2.8-.2 1.3-.2 1.3 0 2.9-.5 3.8.2 1.2.9-.4 2.1-.4 3.3.2 4.9 0 9.8-1.3 14.6-.1.2-.3.4-.4.6-1.2.6-2.4 1.3-2.4 2.9-.2 1.2-.2 2.5-.2 3.7v32.1c0 2.5.5 4.7 2.5 6.4.6 1.4 1.2 2.7 2.6 3.6.7.5.8 1.3.8 2.1.2 3.6.2 7.2.2 10.8 0 2.2-1.1 4-1.6 5.9z" fill="#fd2d65"/><path d="M177.5 278c.1.2.2.3.3.5.5.6.3 1.4.3 2.1v177.7c0 .7.3 1.5-.3 2.1-2.2.6-4.5.7-6.7 0-.4-.8-.2-1.7-.2-2.6V281c0-1-.1-2 .4-3 2-1 4.1-1 6.2 0z" fill="#020202"/><path class="st11" d="M310.8 408.5c-.4-1.2-.7-2.4.5-3.4.5-.4.4-1 .4-1.6 0-4.1 0-8.2-.1-12.2 0-.8-.7-1.5-1.2-1.6-1.8-.4-1.7-1.6-1.7-2.9.5-.5 1.1-.4 1.6-.4 5.8.2 11.6.2 17.4 0 4.4-.2 6.6 2.5 8.7 5.7-.4 1.4-1.2.4-1.8.3-.4-.1-.8-.5-1.2-.1-.4.3-.1.8 0 1.2.6 3.9 1.1 7.7.7 11.7 0 .5-.1 1-.1 1.5.3 2.1.3 2.1-2 2.1-3 0-5.9-.2-8.9.1-4.1-.1-8.2.4-12.3-.4z"/><path d="M358.4 322.1c-2 .3-2.4 1.5-2.2 3.3.2 1.2.1 2.5 0 3.7-.2 3.3.2 6.4 1.1 9.6.3.9.6 1.9-.8 2.2-.4.3-.9.4-1.4.3-8.5-.3-16.9 0-25.4-.1-.9 0-1.9 0-2.8-.4-1.1-1.3.3-1.2.9-1.3 1.4-.3 2.9 0 4-.2.8-4.9.4-9.8.9-14.5.2-1.7-.3-2-1.8-2-1.1 0-2.2.1-3.2 0-.7-.1-1.7.2-1.9-.9 10.9-.1 21.7-.5 32.6.3z" fill="#fe4e48"/><path class="st13" d="M325.8 321.8c2.2.7 4.4.1 6.7.3.7.1 1.8-.1 1.4 1-1.4 3.4-.4 6.9-.7 10.3-.1 1.1.1 2.2-.8 3.3-.8.9.5 1.3.9 1.9.2.4.7.6.5 1.1-.2.5-.7.3-1.2.4-2 .2-4-.4-6 .4-.6.7-1.4.7-2.2.8-4.8.1-9.7-.1-14.5.1-.4 0-.9-.1-1.2-.4 1-4.8 1.6-9.7 1.3-14.6-.1-1.2-.3-2.5 1.4-3.2-.1-.2-.3-.4-.4-.5h-5c2.4-.8 5-.7 7.5-.8 4.1-.3 8.2-.2 12.3-.1z"/><path d="M323.1 408.8c2.7-.7 5.4-.2 8.2-.3.9-.1 1.7 0 2.9 0-.9-.9-1.3-1.7-1-2.8 1.1-3.8-.4-7.6-.1-11.4.1-1-2.2-1.6-.5-2.9 1.6-1.2 2.2.6 3.3 1.1.1 0 .2-.1.3-.2.9-.1 1.3.5 1.5 1.2 0 .8.3 1.3 1.2 1.2 1.8.6 2.7 2.3 4 3.4l1 1c2 1.9 2.8 2 4.4.5 1.8-1.7 1.8-2.5 0-4.8-.5-.5-1.1-1-1.7-1.5-1.6-1.2-2.8-2.8-4.1-4.2-.5-.5-1.1-1.2-.8-1.9.3-.9 1.3-.8 2.1-.8 2.7-.1 5.4-.1 8 0 1.9.1 3.7-.8 5.6-.4.7 1.5-.5 1.7-1.5 2-1.1.4-2.1.8-.5 1.9.9.7 1.1 1.1-.2 1.5-1.7.6-1.6 1.8-.9 3.1 1.1 2 .8 2.9-1.4 3.9-.4.2-.7.3-.6.8.1.3.3.5.6.4.7-.1 1.4-.2 1.3.8-.1.8-.9.5-1.4.6h-1.7c.7 1.2 3.1 1.3 2.2 2.6-1 1.5.6 3.6-1.5 4.7 2.4.6 4.9-1.1 7.3 0-4.1.6-8.2.6-12.4.5-7.7.1-15.6 0-23.6 0z" fill="#fc4c4b"/><path class="st15" d="M171.3 278c0 1.7-.1 3.3-.1 5v174.9c0 .8-.1 1.6-.1 2.4.1.1 0 .2-.1.3-.6-.6-.3-1.4-.3-2.1V280.6c0-.7-.2-1.5.2-2.1.1-.1.2-.3.4-.5z"/><path class="st16" d="M170.9 278.6c0 .8.1 1.6.1 2.4v179.7c-.9-.4-.5-1.3-.5-1.9V280.7c-.1-.8-.3-1.6.4-2.1zM177.8 460.4c0-.8-.1-1.6-.1-2.4V280c0-.5.1-1 .1-1.5.8.6.5 1.5.5 2.2v177.5c0 .7.3 1.6-.5 2.2z"/><path class="st15" d="M177.5 278h-6.2c-.5-2.4-.6-4.9-.1-7.1.6-2.5 3.2-.6 4.8-1.1.9-.2 1.8-.1 1.7 1.2-.1 2.4.2 4.7-.2 7z"/><path d="M276.1 340.9c.5 0 1-.1 1.5 0 .9.1 2.2-.6 2.5.5.4 1.4.4 3-.5 4.4-.1.1-.2.3-.3.3-.4.2-1 .5-1.2.4-1.8-1.3-3.6.9-5.3-.1-1-.6-1.7-4.3-1-5.2.3-.4.8-.3 1.2-.3h3.1z" fill="#575d67"/><path d="M276 383.7c.4 0 .9-.1 1.3 0 .9.2 2.4-.6 2.8.5.5 1.4.4 3-.6 4.3-1.1 1.5-4.2 1.9-6 .9-1.5-.8-2.3-3.2-1.8-5 .2-.7.6-.7 1.1-.7h3.2z" fill="#5b5f69"/><path d="M276.1 368.9h1.1c3.4 0 3.6.2 3.1 3.6-.2 1.6-1.1 2.8-2.8 2.7-1.7-.1-2.5-1.2-2.3-2.8.2-1.9-.6-2.5-2.3-2.2-.4.1-1 .1-1-.5-.1-.8.6-.7 1.1-.7.9-.1 2-.1 3.1-.1z" fill="#5a606a"/><path d="M272.4 382.2c-.4.1-.7 0-.7-.3-.1-.4.3-.6.6-.8 2.2-1.4 2.2-3.3.1-4.7-.3-.2-.7-.3-.6-.8.2-.6.7-.4 1.1-.2 2.2.8 4.5 1.7 6.7 2.6.7.3 1.2 1 .3 1.4-2.5 1-5.1 1.9-7.5 2.8z" fill="#565b65"/><path d="M279.8 367.6c-.9-.9-.5-1.8-.5-2.6-.1-.9.2-1.7-1.3-1.7-1.3 0-1.6.5-1.5 1.7 0 .6.2 1.3-.3 1.9-1-.5-.6-1.4-.6-2 0-1-.2-1.6-1.4-1.6s-1.7.4-1.6 1.7c0 .8.3 1.7-.6 2.8-.6-1.9-.3-3.6-.2-5.2 0-.4.5-.4.9-.4h6.5c.4 0 1 0 1 .5 0 1.6.4 3.2-.4 4.9z" fill="#555962"/><path d="M280.3 357.6c0 .4.1.7 0 1.1-.1.7.5 2-.5 2.1-1 .1-.5-1.1-.6-1.7-.2-1-.9-.8-1.5-.8h-5c-.5 0-.9-.1-1-.6 0-.6.5-.6.9-.6h3.7c1.4 0 3.3.5 2.9-2.1 0-.3.2-.6.5-.5.3 0 .5.3.5.6.1.8.1 1.7.1 2.5z" fill="#5e656f"/><path d="M276.1 350.6c1.4.7 2.5 1.3 3.6 1.9.4.2.8.6.5 1-.3.6-.7.1-1.1 0-2.2-1.1-4.2-2.7-6.8-2.4-.2 0-.5-.3-.6-.5-.1-.5.3-.7.7-.6 2.5.4 4.4-1.2 6.4-2.2.4-.2.9-.8 1.3-.2.4.7-.3 1-.8 1.3-.9.5-1.9 1-3.2 1.7z" fill="#585e68"/><path d="M184.4 340.6c.4.7-.6 1.6.6 2.2 0-1.7.7-2.8 2.6-2.6 1.2.2 1.8.7 1.7 2-.1 1.2-.6 1.6-1.7 1.5-.7-.1-1.5 0-2.2-.1-1.9-.1-2.3-1.3-1-3z" fill="#636871"/><path d="M185.1 397c1-.6 1.8-.3 2.5-.4.5-.1 1-.3 1-.9 0-.5-.5-.7-.9-.7-.8-.1-1.6.2-2.3-.3 1.3-.8 3.6-.8 5.7-.1-1 .4-1.8.5-1.8 1.8-.1 1.1-1.6 1.3-4.2.6z" fill="#6b6f76"/><path d="M186.9 399c-1.7.3-.7 1.5-1 2.4-1-.8-1-1.7-.5-2.5.4-.8 1.2-1 2.1-.8.8.1 1.5.5 1.7 1.4.2 1-.1 1.7-1.1 2-1.3.3-1.1-.7-1.2-1.4.1-.4 0-.7 0-1.1z" fill="#636973"/><path d="M185.2 325.2c1.3-.7 2.4-.5 3.4-.6 2.5 0 2.9.8 1.7 3.3-.8-.6.6-2.2-1.1-2.4-1.6-.1-.4 1.6-1.4 2.1-.2-1.4-.6-2.6-2.6-2.4z" fill="#6b6e76"/><path d="M189.6 368c-1.7.3-3.1.8-4.2-.2-.4-.4-.6-1.6 0-2.2 1.1-1.2 2.4-.7 4-.5-.8.9-1.6.6-2.3.6-.5.1-1.1.1-1.2.7-.1.7.5 1 1.1 1 .7.1 1.5-.2 2.6.6z" fill="#6c7079"/><path d="M189.5 346.9c-1 .7-1.8.5-2.5.5-.5 0-1.1.1-1.1.7 0 .7.5.9 1.2.9s1.4-.2 2.3.5c-1.5.6-2.9.7-4 0-.4-.3-.6-1.6 0-2.2 1-1.1 2.4-.8 4.1-.4z" fill="#6a6d73"/><path d="M187.3 381.4c-1.2-.1-2.1-.6-2.1-2 0-1.3 1-1.8 2.1-1.8 1.2 0 2.1.6 2.1 2-.1 1.2-1 1.7-2.1 1.8z" fill="#64686f"/><path d="M189.3 356.8c-.4 1.3-1.8.8-2.1 1.7.6.5 1.5.3 2 1.1-1.9.3-4.6-.9-5.5-2.5 1.9 1.9 3.6-.3 5.6-.3z" fill="#63676e"/><path d="M183.9 350.8h3.4c.8 0 1.9-.4 2 1.2.1 1.2-.2 2-1.4 2.2-1.1.2-2.4 0-2.5-1.3-.1-1-.3-1.6-1.7-1.4-.1-.3.1-.5.2-.7z" fill="#575c65"/><path d="M191.2 373.5c-1 .8-2 .5-2 1.9 0 1.6-1.5 1.7-2.8 1.4-1.5-.4-1.2-1.6-1-2.7.1-.8.7-.6 1.2-.6 1.3-.1 2.7 0 4.6 0z" fill="#54575e"/><path class="st34" d="M187.2 360.4c1.3.1 2.1.6 2.1 2-.1 1.2-.9 1.7-2.1 1.7-1.1 0-2-.4-2-1.7 0-1.4.8-1.9 2-2zM187.4 385.8c-1.3-.2-2.3-.6-2.2-2 0-1.3.9-1.8 2-1.8 1.2 0 2.1.5 2.1 1.9 0 1.3-.9 1.6-1.9 1.9z"/><path d="M188.2 393.3c-.2-.9 1.1-1.4 0-2.1-1 .4-.5 2.3-2 2.1-.6-.1-.9-.4-1-1-.1-.9-.1-1.7 1-2.1.6.5 0 .7-.2 1-.3.4-.4.9.1 1.1.6.3.7-.3.8-.7.2-.7.5-1.4 1.4-1.4.5 0 .8.4.9.8.2 1 .3 1.9-1 2.3z" fill="#686d73"/><path d="M190.9 386.7c-.9 1-1.9.2-2.7.7-.1.8 1 .9.9 1.9-1.4-1.4-2.5-.4-3.8.4-.1-1.2 1.2-1.2 1.4-2-.2-.7-1-.3-1.5-1h5.7z" fill="#565a63"/><path d="M191.1 406.2c-1.9-.9-3.9-.6-5.8-1.1 2.9-1.5 4.9-1.1 5.8 1.1z" fill="#666970"/><path d="M185.3 336.6c1.3-.3 2.6-.6 3.7.1.4.3.6 1.6.1 2.2-1 1.2-2.4.5-4.1.6.8-1 1.5-.7 2.1-.8.6-.1 1.5.2 1.5-.8s-.9-.9-1.6-1c-.5.1-1.1.4-1.7-.3z" fill="#5b5f67"/><path d="M185.4 402.9c1.8-.8 3.6-.6 5.4-.2-1.8.8-3.6.4-5.4.2z" fill="#6c6f76"/><path d="M185.4 333c1.8-.6 3.6-.6 5.4 0-1.8.6-3.6.5-5.4 0z" fill="#676f79"/><path d="M185.4 329.1c1.2-.5 2.4-.6 3.6 0-1.2.5-2.4.6-3.6 0z" fill="#6d6f75"/><path d="M189.1 334.9c-1.2.5-2.5.5-3.7 0 1.3-.7 2.5-.6 3.7 0z" fill="#6c737d"/><path d="M189 370.8c-.7-1.8-2.4-.7-3.6-1.3 2.7-.9 3.6-.6 3.6 1.3z" fill="#4f525a"/><path d="M190.8 330.9c-1.7.6-3.5.4-5.2 0h5.2z" fill="#454c56"/><path d="M507.7 291.1c.7 1 2.7.6 2.3 2-.4 1.2-1.9.5-2.9.6-.5 0-1.4.2-1.4-.6 0-.9.9-.4 1.5-.8-2.2-.8-2.1-1.5.1-2.1-.5-.5-1.7.1-1.6-.9.1-.7.9-.6 1.5-.5 1 .1 2.6-.6 2.9.7.2 1.1-1.5.8-2.4 1.6z" fill="#f9b6a6"/><path d="M506.3 459.1c-1-.3-.9-1.2-.9-2v-8.7c0-1.8.8-2.9 2.7-2.9 1.8 0 2.6 1.1 2.6 2.8v9.1c0 1.3-.8 2.2-1.9 2.6-1 .4-2 .2-2.5-.9.9-.7 2.6.3 3.1-1.4.3-2.7.1-5.5.1-8.2 0-.5-.1-1-.3-1.5-.2-.5-.5-.9-1.1-1-.7-.1-1 .4-1.3 1-.2.5-.3 1-.3 1.5 0 2.9-.2 5.8.1 8.6.1.4-.1.7-.3 1z" fill="#fdab8f"/><path d="M509.4 273.1c-.3.9-1.4 1.8 0 2.7-.1.8 1 2.1-.8 2.3-2.2.2-2.4 0-2.6-2.1-.6-.8-.5-1.6 0-2.5.7-.5 1.5-.8 2.2-1.3 1-.7 1.4-.2 1.2.9z" fill="#df4e39"/><path class="st48" d="M506.3 387.5c-.3-.4-.5-.8-1-1.5 1 .1 2 .8 2.4-.5.1-.3.6-.3 1-.2 1.2.5 2.8 4 2.3 5.3-.6 1.6-1.1-.2-1.7-.1h-.3c-1.1-.7-2-1.6-2.7-2.7v-.3z"/><path d="M509.3 430.7c.1-.3.1-.8.3-1 .3-.3.5.1.5.4v6.4c-1.2-.4-.6-1.4-1.2-1.7-.9.1-.2 1.1-1.1 1.3-.7-1.6-1.4-2.5-1.7.4-1.2-2.3-.8-2.9 1.5-3 .7 0 1.7.3 1.7-1 .4-.7-.3-1.2 0-1.8z" fill="#fac7b5"/><path d="M509.4 273.1c-.2-.2-.2-1.5-.8-.5-.7 1.4-1.6 1.1-2.7.9-.9-1.3-.6-2.4.9-2.8 1.4-.4 2.7.1 3.2 1.7.3.5-.1.8-.6.7z" fill="#fbbba4"/><path d="M509.4 279.3c.7.7 1.2 1.5.4 2.4-.8.9-2 .9-3 .4-.9-.4-1.7-1.1-.9-2.3 1.2.1 2.1-1.6 3.5-.5z" fill="#fcc0aa"/><path d="M505.9 374.9c0-.5 2.3-.7.2-1.5-.1 0-.3-.2-.3-.3-.1-.3 0-.6.3-.7 1.2-.2 2.4-.2 3.6 0 .3.1.5.6.2.7-2.3.9 1 1.5-.1 2.4-1.2-1.2-2.6-.7-3.9.1-.3-.1-.3-.4 0-.7z" fill="#fcccbb"/><path class="st48" d="M509.3 390.6c.1.9.1 2.3-.8 2.3-1 0-2.4-.9-2.8-1.7-.5-1.1-1.8-2.8.6-3.7.7 1 .7 2 .5 3.1.8-.9 1.7-.5 2.5 0z"/><path d="M507.9 421.3c.5.9 2.5.3 2 1.7-.3.9-1.6-.3-2.5-.5-.7-.1-1.8-.2-1.8-1.2s1.2-.9 1.8-1.2c.1 0 .1-.1.2-.1.8-.1 2-1.1 2.3-.3.4 1.2-1.2.8-1.8 1.3-.1.1-.2.2-.2.3z" fill="#fbb6a1"/><path d="M507.7 403.6c.1-.7-.6-.8-.9-1.3 1-1 1-2 0-3 .3-.4.9-.6.8-1.3 1.7 0 2.6 1 2.5 2.8 0 2-.8 2.8-2.4 2.8z" fill="#eda290"/><path d="M505.6 285c.9-.6 1.8-.4 2.6-.4s1.9-.4 1.8 1.1c0 .9-.1 2-1.2 2.3-1.2.4-1.8-.4-1.8-1.5.1-1-1.1-.7-1.4-1.5z" fill="#fecab8"/><path d="M506.5 359.8c.7.7-.3 1.2.2 1.9.6.2 1.5-2.1 2.1 0 1.2-.2-.6-1.6.8-1.5.5 0 .7.7.7 1.2 0 .8-.3 1.4-1.3 1.4-.4 0-.9-.2-1.2-.1-.8.3-1.6.4-2-.6-.5-1-.3-1.7.7-2.3z" fill="#fcbea8"/><path d="M505.9 276c.2 0 .5-.1.6 0 .4.4-.9 3.2 1.4 1 2.9 2.6.1-1.9 1.4-1.1 1.1 1 1.1 2 0 3-1.2 0-2.5 1-3.5-.3-.4-.9-.5-1.8.1-2.6z" fill="#fcb9a1"/><path d="M509 396.7c2.9 1.9 2.9 6 0 8.2-.5-.5-.3-.9 0-1.4 1.2-1.8 1.3-3.6 0-5.5-.3-.3-.5-.8 0-1.3z" fill="#febdab"/><path d="M507.8 378.9c.8 0 1.1.5 1.2 1.2.1 1.8-1.5 1.1-2.3 1.4-.7.3-1.1-.5-1.2-1.2-.2-1.8 1.6-.7 2.3-1.4z" fill="#fdbba7"/><path d="M510.3 427.3c-1.3 1.5-4.1-.5-4.3 2.5-.4-1-.8-2.2 0-2.6 1.2-.7 2.7-.4 4.3.1z" fill="#fed2c1"/><path d="M510 363.1c.2 1.3.7 3-.3 3.2-1.4.2-3-.7-4.5-2.2 1.7-.2 2.6.9 3.7 1 .8-.4 0-1.4 1.1-2z" fill="#fcb6a0"/><path d="M505.5 369.6c1.5-.8 3.4 2.7 4.2-1.3.6 1.4.8 2.5.2 3.3-.6.7-1.5-.1-2.1-.4-.8-.4-1.9-.4-2.3-1.6z" fill="#fdb6a3"/><path d="M507.3 426.4c-1 0-1.7-.4-1.8-1.5 0-1.2.6-1.7 1.8-1.7 1 0 1.6.5 1.7 1.6 0 1.1-.7 1.6-1.7 1.6z" fill="#febcaa"/><path d="M509 396.7c0 1.4 1.2 2.3 1.3 3.8.1 1.7-1.2 2.9-1.3 4.4l-1.3-1.3c1.9-.1 1.8-1.7 1.9-2.8.1-1.2-.2-2.6-1.9-2.8l1.3-1.3z" fill="#df6a57"/><path class="st65" d="M510.2 416c.9.7.5 1.1-.4 1.2-.9.1-1.9 0-2.8.1-1.8.2-2.3-.6-2-2.2 1.4-.4 2.9.2 4.3-.4.5.3.4.8.4 1.3-.6.8-1.5.3-1.9.5.7-.3 1.6.1 2.4-.5z"/><path d="M509.4 414.6c-1.3 1.7-2.8.8-4.3.4v-.4c.9-1.5 2.1-1.3 3.4-.5.3.2.6.3.9.5z" fill="#f8ac98"/><path d="M505.9 374.9v.9c1 1.5 3.1.9 4.3 2.5-1.8 0-3.2-.6-4.5-1.3-1.2-.6 0-1.4.2-2.1z" fill="#fca48f"/><path class="st65" d="M508.5 414.1c-1.1.2-2.4-.3-3.4.5v-2.7c.7-.5 1.5-.3 2.2-.4.3.4.5.9.8 1.3-1.1.8.6.4.4.8-.1.2 0 .4 0 .5z"/><path d="M509.3 430.7c.7.6.7 1.2.1 1.8-.7-1.2-1.8-.6-2.7-.7-.4 0-1 .1-.9-.5 0-.6.6-.5 1-.5.7-.1 1.6-.1 2.5-.1z" fill="#fec5b8"/><path d="M510.2 442.3c-1.4-.1-2.5 1.7-3.6-.1-.4-.6.2-.4.4-.6 1.3-1.3 2.1-.3 3.2.7z" fill="#f6a690"/><path d="M510.2 416c-1.3 1.9-3 .2-4.5.6 1.3-1.1 2.8-.4 4.2-.7 0 0 .2 0 .3.1z" fill="#fec6b5"/><path d="M505.8 278.5c1.1.6 2.4-.3 3.5.3v.5c-.8.1-1.7-.2-2.1.7-.9 2.3-.9-.4-1.4-.2.1-.4.1-.8 0-1.3z" fill="#d75748"/><path d="M508.4 413.6h-2.9c.7-1.1 1.7-.7 2.5-.8.2.3.3.6.4.8z" fill="#feccb9"/><path d="M506.8 399.3c1.6 1.3 1.6 1.8 0 3 .3-1 .2-2 0-3z" fill="#fdbaa7"/><path d="M505.9 351.7c-.5-.1-.8-.4-.7-.9 0-.4.3-.7.7-.6.5 0 .8.3.8.8s-.3.7-.8.7z" fill="#fba78e"/><path d="M505.9 356.4c-.5-.1-.8-.4-.7-.9.1-.5.5-.7.9-.7.4.1.6.3.6.7 0 .6-.3.9-.8.9z" fill="#fc9a8d"/><path d="M505.8 410.6c-.6 0-.8-.4-.8-.8 0-.2.2-.7.3-.7.6-.1.7.4.8.8.3.4.1.7-.3.7z" fill="#fea187"/><path d="M507.3 411.5c-.6.9-1.4.5-2.2.4.5-1.4 1.4-.8 2.2-.4z" fill="#fabc9f"/><path d="M337.6 393.6c-.3-.6-.8-1-1.4-1.3-1.4-1.5-2.9-3-4.3-4.5-.6-.7-1.4-.6-2.2-.6h-17.1c-1.3 0-2.6 0-3.9-.4-2.6-1.6-3.3-3.9-3.2-6.8.1-10.9.1-21.9 0-32.8 0-1.4 0-2.7.6-4 .5-1.1 1.4-1.8 2.6-2.2 3.8-.8 7.7-.2 11.6-.4 2.1-.1 4.2-.1 6.3-.1 8.6 0 17.1.1 25.7.1 1.5 0 2.9.1 4.3.5 2.4 1.6 3.3 3.9 3.2 6.7-.1 1.1 0 2.2 0 3.3 0 1.3-.4 2.7 1.8 2.9 1 .1 1.3 1.2 1.3 2.3v15.9c0 1.3-.4 2.4-1.8 2.5-1.1.1-1.3.7-1.2 1.6v3.9c.1 2.4-.5 4.4-2.2 6.1-2.5 1.4-5.2 1-7.8 1h-8.3l6.1 6.1c.2.3.3.8.1 1-1.4 1.6-2.5 3.7-4.9 4.3l-3.9-3.6c-.9-.3-1.3-.7-1.4-1.5z" fill="#fdfcfc"/><path class="st13" d="M308.7 340.9c-.9.7-1.7 1.5-2.6 2.2.3-1.4 1.1-2.2 2.6-2.2z"/><path d="M348.8 394.4c2.3 2.7 1.9 5.1-1.3 6.6-1.8.9-2.9-.4-3.9-1.7.5-1.9 3.5-4.7 5.2-4.9z" fill="#fcf6f5"/><path d="M348.8 394.4c-2.1 1.2-3.5 3.3-5.2 4.9-.3-.3-.6-.5-.9-.8 1.8-1.6 3.9-3 4.8-5.3.5.4.9.8 1.3 1.2z" fill="#dd7275"/><path class="st8" d="M351.2 397.5v-.7c.4-.7.5-1.7 1.4-2.1.3-.1.6.2.5.5-.2 1-.6 1.9-1.9 2.3z"/><path class="st11" d="M337.6 393.6c.6.3 1 .7 1.3 1.3-.3.5-.8.7-1.2.2-.4-.5-.9-1-.1-1.5z"/><path d="M272.6 343.3c-.2-1.3.6-1.2 1.6-1.3 1.2-.1 1.5.5 1.4 1.5-.1 1-.2 2-1.5 1.9-1.3.1-1.5-.9-1.5-2.1z" fill="#d8dce4"/><path d="M279.2 343.1c-.1 1.2-.1 2.2-1.4 2.1-1.2-.1-1.2-1-1.3-1.9-.1-1 .3-1.3 1.3-1.2 1 0 1.6.2 1.4 1z" fill="#dbe2e9"/><path d="M275.8 384.9c.5 0 1-.1 1.5 0 .6.1 1.6-.4 1.8.6.2.9.1 1.7-.6 2.4-1.1 1.1-4.1 1.1-5.2-.1-.6-.7-.9-1.5-.7-2.4.3-1 1.2-.5 1.8-.6.5 0 1 .1 1.4.1z" fill="#dee1e5"/><path d="M276 371.6c-.2-1.1.3-1.5 1.6-1.5 1 0 1.9 0 1.7 1.5-.1 1.2-.1 2.3-1.6 2.4-1.5 0-1.7-1.1-1.7-2.4z" fill="#d7dce3"/><path d="M278.1 378.7c-1.1.5-2 1.6-3.2.9-.3-.2-.2-1.6.1-1.8 1.1-.6 2 .4 3.1.9z" fill="#ccd4de"/><path d="M185.8 342c.2-.8.7-1.1 1.5-1 .7 0 1.4.2 1.4 1 0 1-.9.9-1.6.9-.7.1-1.2-.1-1.3-.9z" fill="#cdd2da"/><path d="M185.8 379.3c.3-.9.9-1 1.7-1 .6 0 1.2.4 1.1 1 0 .9-.7 1.1-1.5 1.1-.7.1-1.2-.3-1.3-1.1z" fill="#d6dbe2"/><path d="M188.7 352.4c-.1.8-.6 1.1-1.3 1.1-.8 0-1.5-.1-1.6-1.1 0-.7.5-.9 1.2-1 .7 0 1.5 0 1.7 1z" fill="#cbd2dd"/><path d="M187.3 376.2c-.7-.1-1.5-.2-1.5-1.1 0-.8.8-.9 1.5-.9s1.4.1 1.4 1c0 .6-.6.9-1.4 1z" fill="#ced1d8"/><path d="M187.3 363.4c-.7-.1-1.4-.3-1.4-1.1 0-.9.7-1.1 1.5-1.1.7 0 1.3.3 1.3 1.1-.1.8-.8 1.1-1.4 1.1z" fill="#dadee7"/><path d="M187.2 382.7c.7 0 1.4.2 1.4 1 .1.8-.5 1.1-1.2 1.2-.8.1-1.5-.3-1.6-1.1 0-.7.7-1 1.4-1.1z" fill="#d5dadf"/><path d="M506.3 458.2c-.7-3.4-.3-6.9-.2-10.3 0-1 .8-1.9 2.1-1.8 1.1.1 1.8.9 1.9 1.8.1 3.4.5 6.9-.2 10.3-1.3-.4-2.4-.2-3.6 0z" fill="#ec4022"/><path d="M506.3 458.2c1.2-1.2 2.3-1.4 3.5 0-.7 2-2.2 1.1-3.5.8v-.8z" fill="#a07a20"/><path d="M509.4 390.6c-3 .1-3 .1-3.1-3.1 1.2.9 2.3 1.9 3.1 3.1z" fill="#dc432e"/><path d="M508 387.9c1.3-.6 2-.2 2.5.7.2.3.2.9-.1.9-1.4.3-1.5-1-2.4-1.6z" fill="#d94c41"/><path d="M508 286.3c0-.5.3-.7.7-.7.4 0 .7.2.6.7 0 .5-.3.8-.8.8-.4-.1-.5-.5-.5-.8z" fill="#d26155"/><path d="M506.4 425.1c-.1-.6.3-.8.6-.8.5-.1.9.1 1 .6 0 .3-.2.5-.5.6-.5 0-.9-.1-1.1-.4z" fill="#ca5f4c"/><path d="M323 368.4c-3.4-.5-3.4-.5-3.4-3.9v-13.1c0-.9.1-1.9-1.3-1.9-1.4 0-1.8.7-1.7 1.9.2 6.7-.6 13.5.6 20.2.2 1.3.7 2.3 1.6 3.2 3.1 2.9 6.1 5.9 9.2 8.9-.8 1-1.5.7-2.1.7h-13.7c-3.1 0-4-.9-4-4v-32.9c0-3.3.7-4 3.9-4 2.6 0 5.2.1 7.8.1.8.5 1.7.2 2.5.3.9.1 2-.3 2.5.8.4 1-.2 1.8-1.2 2.9 1-.5 1.6-.9 2.3-.8.6.1 1.1.5 1.2 1.1.1.5-.1 1.1-.6 1.2-1.5.4-1.4 1.4-1.4 2.6v9.8c0 .9.1 1.9-.5 2.8-.3.5-.3 1 .2 1.5.9.8.6 2 .3 2.9-.5 1.6-1.4-.2-2.2-.3z" fill="#fc365d"/><path d="M323 368.4c2 .6 2.6.3 2.2-1.6 0-.3-.2-.7-.3-.7-3.4-.2-1.1-1.5-.5-2.4.4-.7.3-1.4.4-2.1v-10.2c0-1.1.1-2.1 1.3-2.5.6-.2 1.1-.5.7-1.2-.4-.7-1.1-.6-1.7-.3-.3.2-.6.4-.8.7-.4.5-.9.8-1.4.2-.5-.6-.1-1.1.5-1.4.3-.2.7-.4.9-.6.3-.5.7-1 .4-1.6-.3-.5-.8-.6-1.3-.7-1.1-.2-2.3.4-3.3-.5 6.3-.2 12.5-.2 18.8 0 .8.6 1.6 1.2 2.8.6 1.4-.7 1.6.2 1.6 1.3 0 .7-.4 1.2-.8 1.8-.7 1.1-.9 2.1-.1 3.2.4.6.5 1.3.5 2.1-.4 5.1-.1 10.1-.2 15.2 0 1 0 2 .5 2.8 1.1 1.9.3 4 .6 5.9.1.5-.2 1-.6 1.3-.9.7-1.3 1.4-.6 2.5.6 1-.7 1.6-1 2.5 1.7.7 3.8-.3 5.3 1.2-2.6.3-5.2.5-7.8.1-3.5-2.8-6.4-6.3-9.6-9.4-.7-.6-.4-1.5-.4-2.3v-20.7c0-.8.3-1.9-.9-2.2-1.3-.3-2.2-.1-2.2 1.6.1 5.7 0 11.3 0 17v2.6c-1.6-.4-2.3-1.3-3-2.2z" fill="#fc4650"/><path d="M338.8 384.1h7.4v-.4h-6c-.3-1 .3-1.3.7-1.6 1-.9 2-1.4.1-2.5-.8-.5 0-1.3.7-1.6 1.4-.6 1.5-1.4 1.3-2.9-1.1-7.7-1.6-15.4-.7-23.1 0-.4 0-.8-.3-1-1.7-1.4-1.2-2.8 0-4.3.6-.6 1-1.4.5-2.6-1.6 1.7-2.9 1.7-3.7-.6 5 0 10-.1 15-.1 1.9 0 2.9 1 2.9 3 0 1.8-.1 3.6 0 5.4.1 1.3-.4 1.7-1.7 1.8-3.1 0-3.5.5-3.5 3.5v14.2c0 2.8.4 3.3 3.1 3.2 1.8-.1 2.2.6 2.1 2.3-.1 1.6 0 3.2 0 4.8 0 1.5-.9 2.6-2.3 2.7-5.2.1-10.4.3-15.6-.2z" fill="#fd4e48"/><path d="M334.4 363.8v-12c0-1.1-.3-2.4 1.6-2.4 1.8 0 1.5 1.3 1.5 2.3v24.4c0 1.2.1 2.2-1.6 2.2-1.6 0-1.5-1.1-1.5-2.1v-12.4z" fill="#fdf7f7"/><path d="M343.4 363.8v-12.4c0-1-.1-1.9 1.4-1.9 1.6 0 1.5.9 1.5 2v24.8c0 1 .1 2.1-1.4 2.1-1.6 0-1.4-1.1-1.4-2.1-.1-4.3-.1-8.4-.1-12.5z" fill="#fefafa"/><path class="st103" d="M248.8 424.6H38.2V456c0 9.5 7.7 17.2 17.2 17.2h176.2c9.5 0 17.2-7.7 17.2-17.2v-31.4z"/><path class="st104" d="M38.9 57.3h210.6v374.3H38.9z"/><path class="st103" d="M229.2 11.6H63.6c-13.7 0-24.7 11.1-24.7 24.7V50h210.6V31.9c0-11.2-9.1-20.3-20.3-20.3z"/><path class="st105" d="M258.5 120.6v32.1c0 .7-.6 1.3-1.3 1.3H256v-34.7h1.2c.7 0 1.3.5 1.3 1.3zM256 154v294.2c0 15.6-12.6 28.2-28.2 28.2H60.6c-15.6 0-28.2-12.6-28.2-28.2V38.1C32.4 22.5 45 9.9 60.6 9.9h26.7v7.4H61.2c-12.3 0-22.4 10-22.4 22.4v406.9c0 12.4 10 22.4 22.4 22.4h165.9c12.4 0 22.3-10 22.3-22.4V39.7c0-12.4-10-22.4-22.3-22.4H201V9.9h26.7c15.6 0 28.2 12.6 28.2 28.2V154h.1z"/><path class="st106" d="M249.5 39.7v406.9c0 12.4-10 22.4-22.3 22.4h-166c-12.3 0-22.4-10-22.4-22.4V39.7c0-12.4 10-22.4 22.4-22.4h26.1v7.6c0 6.3 5.1 11.3 11.3 11.3h91.1c6.2 0 11.3-5.1 11.3-11.3v-7.6h26.1c12.4 0 22.4 10 22.4 22.4z"/><path class="st105" d="M201.1 17.3v7.6c0 6.3-5.1 11.3-11.3 11.3H98.6c-6.2 0-11.3-5.1-11.3-11.3v-15h113.8v7.4zm-28.4 8.1c0-1.4-1.1-2.5-2.5-2.5s-2.5 1.1-2.5 2.5 1.1 2.5 2.5 2.5c1.4-.1 2.5-1.2 2.5-2.5zm-12.2 0c0-1.2-1-2.2-2.2-2.2h-28.2c-1.2 0-2.2 1-2.2 2.2s1 2.2 2.2 2.2h28.2c1.2 0 2.2-1 2.2-2.2z"/><linearGradient id="SVGID_1_" gradientUnits="userSpaceOnUse" x1="21.682" y1="32.707" x2="266.705" y2="457.1" gradientTransform="matrix(1 0 0 -1 0 488)"><stop offset="0" stop-color="#bfc1bf"/><stop offset=".039" stop-color="#bdbfbd"/><stop offset=".061" stop-color="#b5b6b5"/><stop offset=".079" stop-color="#a7a8a7"/><stop offset=".095" stop-color="#939593"/><stop offset=".109" stop-color="#7a7b7a"/><stop offset=".123" stop-color="#5b5b5b"/><stop offset=".135" stop-color="#353635"/><stop offset=".146" stop-color="#0c0c0c"/><stop offset=".149"/><stop offset=".205" stop-color="#020202"/><stop offset=".226" stop-color="#090909"/><stop offset=".241" stop-color="#141514"/><stop offset=".253" stop-color="#252625"/><stop offset=".263" stop-color="#3b3c3b"/><stop offset=".272" stop-color="#565756"/><stop offset=".28" stop-color="#767776"/><stop offset=".287" stop-color="#9a9c9a"/><stop offset=".293" stop-color="#bfc1bf"/><stop offset=".549"/><stop offset=".607" stop-color="#020202"/><stop offset=".627" stop-color="#090909"/><stop offset=".643" stop-color="#141514"/><stop offset=".655" stop-color="#252625"/><stop offset=".665" stop-color="#3b3c3b"/><stop offset=".674" stop-color="#565756"/><stop offset=".683" stop-color="#767776"/><stop offset=".69" stop-color="#9a9c9a"/><stop offset=".697" stop-color="#bfc1bf"/><stop offset=".875"/><stop offset=".892" stop-color="#040404"/><stop offset=".911" stop-color="#101010"/><stop offset=".929" stop-color="#242424"/><stop offset=".947" stop-color="#404140"/><stop offset=".965" stop-color="#646564"/><stop offset=".983" stop-color="#909190"/><stop offset="1" stop-color="#bfc1bf"/></linearGradient><path d="M225.7 474.6h-163c-15.8 0-28.6-13-28.6-29v-405c0-16 12.8-29 28.6-29h163c15.8 0 28.6 13 28.6 29v404.9c0 16.1-12.8 29.1-28.6 29.1zM62.7 13.9c-14.6 0-26.4 12-26.4 26.8v404.9c0 14.8 11.8 26.8 26.4 26.8h163c14.6 0 26.4-12 26.4-26.8v-405c0-14.8-11.8-26.8-26.4-26.8h-163v.1z" fill="url(#SVGID_1_)"/><path d="M170.2 22.9c1.4 0 2.5 1.1 2.5 2.5s-1.1 2.5-2.5 2.5-2.5-1.1-2.5-2.5 1.1-2.5 2.5-2.5zm-11.9.3c1.2 0 2.2 1 2.2 2.2s-1 2.2-2.2 2.2h-28.2c-1.2 0-2.2-1-2.2-2.2s1-2.2 2.2-2.2h28.2z" fill="#3a4d57"/><path class="st105" d="M32.4 150.5v34.7h-1.2c-.7 0-1.3-.6-1.3-1.3v-32.1c0-.7.6-1.3 1.3-1.3h1.2zm0-43.3v34.7h-1.2c-.7 0-1.3-.6-1.3-1.3v-32.1c0-.7.6-1.3 1.3-1.3h1.2zm0-30.9v10.9h-1.2c-.7 0-1.3-.6-1.3-1.3v-8.3c0-.7.6-1.3 1.3-1.3h1.2z"/><g><path d="M176.5 458.1h-64.6c-.6 0-1.1-.5-1.1-1.1s.5-1.1 1.1-1.1h64.6c.6 0 1.1.5 1.1 1.1s-.5 1.1-1.1 1.1z" fill="#c6c6c6"/></g><g><path class="st105" d="M250.5 54.1h6.5v3.2h-6.5v-3.2zm-217.1 0h6.5v3.2h-6.5v-3.2zM250.5 432.9h6.5v3.2h-6.5v-3.2zm-217.1 0h6.5v3.2h-6.5v-3.2z"/></g><g><path class="st106" d="M36.7 50.5H247v373.1H36.7z"/><path d="M250.1 237.7v182.4c0 4.5 0 4.5-4.4 4.5-67.6 0-135.1 0-202.7.1-3.2 0-4.3-.7-4.3-4.1.1-122.2.1-244.4 0-366.6 0-3.1.8-4 4-4 67.8.1 135.6.1 203.4 0 3.4 0 4.1 1.1 4.1 4.3-.1 61.1-.1 122.2-.1 183.4z" fill="#ddd"/><path class="st111" d="M249.5 253.4v166c0 4.5 0 4.5-4.4 4.5-67.1 0-134.2 0-201.4.1-3.2 0-4.3-.7-4.3-4.1.1-111 .1-222.1.1-333.1 0-4.4 0-4.3 4.3-3.9 1 .1 2.1 0 3.1 0h197.6c5-.2 5-.2 5 4.8v165.7z"/><path class="st104" d="M144.3 79.5c-33.6 0-67.2 0-100.8.1-3.1 0-4.2-.7-4.1-3.9.3-7.2.2-14.4 0-21.6 0-2.4.5-3.4 3.2-3.4 67.9.1 135.8.1 203.7 0 2.7 0 3.2 1 3.2 3.4-.1 7.3-.2 14.6 0 21.9.1 2.9-1 3.6-3.7 3.6-33.8-.1-67.6-.1-101.5-.1z"/><path class="st112" d="M160.4 119.3c.1-.1.3 0 .4 0 1.6 1 .6 2.7 1.1 4.1.4-1.6.2-3.3 1.3-4.6h3.1c.2 1.6-.9 3.2.3 4.9.8-1.5-.9-4.3 2.4-4.3.2 0 .5-.1.7-.1.8.4 1 1.2 1 2 0 1.7 1.1 2 2.4 2.2 1.6.2 1.9-.9 2-2.1.1-.8.2-1.6.9-2.1.2-.1.3-.1.5 0 .8 2.6 2.2 4 5.2 3.4 1.2-.2 1.7 2.1 3.6.9-1.7.3-2.4-.3-2.4-1.6.1-2.1 1.5-2.6 3.2-2.6h3.6c.6 1.2-.7 2.7.5 3.8-1-2.7.5-3.6 2.9-3.8h1.3c.2.3.3.6.2.9-.3 3.5.1 3.8 3.2 2.6.5-.2 1-.4 1.6-.2.2.1.3.3.4.5.4.5.4.2.3-.2-.4-1.3-.6-2.6.5-3.7h2.6c1 1.8 1.2 3.5.1 5.3 0 21.8-.1 43.7 0 65.5 0 3.2-.9 4.1-4 4-7.2-.2-14.3 0-21.5 0-.8 0-1.1-.5-1.4-1.2-.2-2.9-2.2-2.7-4.2-2.7h-58.3c-1.7 0-3.4.2-5.1-.2-2.3-1.2-.6-2.3.3-3.1 5.4-4.7 7.5-10.7 7.5-17.7.2-1.2.4-2.4-.4-3.5-2-7.1-6.4-11.9-13-14.9-1.2-.5-2.7-1.1-2.2-2.9.4-.8 2-1.2 1.4-2.4-.6-1-1.6-.2-2.5-.1-4.8.6-8.4-2.4-8.6-7-.2-4.9 2.7-7.8 7.8-7.5 1.9.1 3.6-.3 5.2-1 4.2.9 5.1 1.9 5.2 6.1.1 3.6-.5 7.3.4 10.8.5.6 1.1 1 1.6 0 .3-.6.3-1.3.3-2 .1-1.5.1-3.1 2.1-3.5 1.8-.3 3.1.5 4.1 1.9.6.8 1.1 1.8 1.7 2.6.7.9 1.4 1.8 2.5 1.7.4-.3.5-.5.4-.7-2.3-3.4-3-6.7-.5-10.6 1.7-2.6 0-5.5-2.9-7.1-.7-.4-1.5-.7-2.1-1.1-1.8-1.5-1.8-2.9.2-4.3 1.7-.3 3.6.6 5.3-.4 1-.6 1.9-.6 2.9-.1s2.3.6 2.9 0c2-2.1 3.5-.9 5.2.5-.3-1.1-1.8-1.4-1.3-2.7.6-1.5 1.7-1.6 3-1.6 1 0 1.9-.1 2.9-.1.2.1.4.3.4.5 1.3 4.1 1.3 4.1 5.4 3 1.5-.4 2.7 1.4 4.2.4 1 0 1.6 1.3 2.8.7.4.2.2-.4.1-.4-1.6.4-1.9-.6-2-1.8-.1-2.1 1.4-2.2 2.9-2.4.4 0 .8 0 1.2.1.6.5.7 1.3.7 2.1 0-.8 0-1.5.7-2.1.2-.1.4-.1.6 0 1.5.6-.1 3.2 2.1 3.3 2.5-.1 1.8-2.6 3.1-3.4z"/><path class="st113" d="M147.6 282.6c7.5.9 13.6 5.4 20.2 8.5 1.1.5 3.7.5 2.3 3.3-.2.4 1.4 1.6 2 2.6 1.2 1.7 2.2 3.4 3.4 5.1.9.5 2.1.8 1.2 2.2.6 3.6 1.8 7 2.1 10.7.9 10.3-1.5 19.6-6.9 28.3-2.4 3.8-4.5 7.6-6.8 11.4-.6.5-1.3.7-1.9.4-3.3-1.3-4.5.9-5.5 3.4-1.9 4.4-1.8 9.4-3.4 13.9-1 1.5.8 3.7-1.4 4.8h.4c2.3.1 2.7 1.9 1.9 3.3-.7 1.4-.7 2.6-.5 3.9-1.2.8-2.6.8-3.9.8h-15.6c-3 0-5.8-.7-8.3-2.5-1.5-1.5-2.4-3.4-2.3-5.5.4-7.6-1-14.9-4-21.9-.2-.5-.3-1.1-.2-1.7 2.1-2.1 3.7-1.2 4.8.9 1.4 2.7 2.4 5.7 3.2 8.7.5 2 1.2 3.9 2.2 5.7.8 1.4 1.7 2.4 3.5 2.4s2.9-1.1 3.7-2.6c.5-.9.8-1.9 1-2.9.3-1.2.5-2.5.8-3.7 3.9-18.4 2.9-14.2 14.6-27.8 4.7-5.5 9.2-11.2 10.6-18.8 2.1-11.8-6.4-22.3-15.7-26.1-1.4-.6-2.4-.4-2.9 1.2-.4 1.3-.9 2.8-2.6 2.7-1.8-.1-2.6-1.5-2.8-3-.2-2.3-1.5-2.8-3.5-2.7-2.3.1-4.2-.4-4-3.3 2.9-3.6 6.9-3.6 10.9-2.9 1 .2 2.2.7 3.4 1.2z"/><path d="M101.1 148.3c3.2 2.5 7.3 3.6 10.2 6.6 3 3.1 5.1 6.6 5.8 10.9-1.7 1.8-4.1.6-6 1.2 4.8.4 5 .7 3.3 5.4-.5 1.4-1.1 2.8-1.6 4.2-.5 1.2-1.2 2.4-1.4 4.5 1.8-3.4 2.5-6.5 3.9-9.3.5-1.1.6-2.8 2.3-3 .6 8.6-2.8 15.3-9.5 20.5-.3.5-.8.7-1.3.9-2.2.3-4.4.2-6.7.2-1.9 0-3.3.5-3.7 2.5-.2.3-.4.6-.8.7-6.2-.1-12.5.6-18.4-2.2-1.6-2.6-1.1-5.4-.6-8.2.6-1.5 2.1-1.4 3.5-1.7-1-.6-2.7-.1-2.8-1.5-.1-1.6 1-2.7 2.5-3.2 1.9.5 3.7 1.4 5.7 1.7.7.2 1.1.7 1.6 1.2 3.4 3 6.4 2.6 9.1-1.1.4-.5.7-1.1 1.2-1.6 1.9-1.5 3-3.4 2.9-5.9 0-1.1-.1-2.3 1-3.1 1.9.7 1.4 2.4 1.5 3.8.2 2.6-.1 5.2.1 7.8 0 .3.1.4.5.6.2-3.7.2-7.3 0-10.8-.1-1.7-.9-2.6-2.7-1.8-.2.1-.5.2-.6.1-5.9-5.1-13.6-6.9-20.3-10.5-1-.5-2-1.1-2.6-2.2-.1-.2-.1-.4-.2-.6-1-1.5-1.2-3.2-.6-4.9.3-.8 1-1.3 1.8-1.4 4.3-.9 6.1-3.7 6.2-7.9 2.2-.8 3 1.7 4.7 2.1 2.9 4.3 7.3 5.4 12 6z" fill="#80c0a4"/><path class="st115" d="M109.3 148c-.9-3.8-.5-7.6-.3-11.4.2-3.8-1.3-5.7-4.8-6.3-3.7-2.4-7.5-2-11.5-.8-5.2.5-6.8 1.9-7.7 6.9-.1.8-.2 1.6-.8 2.2-2.8-.4-5-1.9-7.3-3.4-1.1-.7-1.8-1.8-1.3-3.2.5-1.4 1.7-1.7 3-1.9 1.5-.3 3.1.6 4.9-.1-2.2-2.6-5.3-.8-7.4-2.2-.8-1.2.3-1.8.9-2.5.4-.4.9-.7 1.5-.9 2.3-1 5.2-1.5 4.2-5.1.3-.2.6-.2.9-.2 1.9.9 1.7 2.9 2.4 4.5-.1-2.1.8-3.5 2.4-4.7.6-.3 1.3-.3 1.9 0 1.6.9.2 3.4 2.5 4.3 0-1.7.2-3.2.4-4.7 1.2-1 2.4-1.1 3.5.2.2 1-.7 1.9-.5 3 .2.9.5 1.9 1.3 1.7 3.4-1 6.8 1.1 10.1-.4.1 0 .2-.1.3-.1 4.7.7 4.7.7 6.7-3l1.8.9c1.7.5 2.6 1.4 1.5 3.2-.9 1.1-2 2.1-.2 3.3-.7 1.1-1.9 1.3-3 1.2-3.3-.2-4.1 1.6-4 4.4.1 3.6.1 7.3 0 10.9-.2 1.6.1 3.1-1.4 4.2z"/><path d="M85.5 179c-2.1-.1-4.1-.3-5.7-1.9-.3-.6-.1-1.1.1-1.6 2-5.2 1.9-5.4-2.2-8.7-.3-.2-.4-.5-.5-.9 0-3.7.1-7.4.1-11.1 5.3 2.3 10.5 4.6 15.8 7.1 2.8 1.3 5.5 2.7 7.2 5.4.6 0 .8.3.8.9.4 3.7.8 7.4-3.4 9.4-1.3-1.3-.8-3-1-4.6-.3-3.6-2.7-6.2-5.7-6.1-3.1.1-4.9 2.3-5.4 6-.1 2.1 1 4.2-.1 6.1z" fill="#fce293"/><path d="M158.2 402c-.3 5.1-3.4 8.3-7.8 9.9-7.2 2.6-14.5 2.7-21.6-.9-4.3-2.1-6.7-5.4-6.4-10.3.6-11.2-1.9-22.2-3-33.2-.7-7.4-5.2-13.8-9.2-20-3.2-5-5.9-10.3-7.1-16.1-.1-.5-.7-.9-1-1.3-.9-1.9-.1-3.2 1.4-4.3 1.2.3 1.5 1.4 1.6 2.4 1.1 7.5 4.6 14.1 8.8 20.2 6.5 9.5 8.6 20 9.7 31.3.7 7.1 1 14.1 1.3 21.1.2 5.1 3.8 8.7 9.9 9.7 4.4.7 8.9.8 13.3-.5 2.3-.6 4.1-1.9 5.6-3.8 1.2-1.5 2.1-3.1 3.7-4.3.3-.2.6-.1.8.1z" fill="#dbdbdb"/><path d="M177.2 193.4c.3.2.5.4.8.7-1.6 3-.3 6.2-.5 9.3-.4 4.5.1 9.1.3 13.7.1 2.2-1.7 1.8-2.9 1.8-6.8.1-13.7 0-20.5 0-18.3 0-36.5-.1-54.8.1-3.1 0-3.8-.9-3.8-3.9.1-7.2-.1-14.4-.2-21.6l.3-.3c1 0 1.5.6 1.9 1.4.9 5.4.3 10.9.4 16.4.1 5 .2 5.2 5.2 5.2 21.8.1 43.6 0 65.5 0 6 0 6-.1 6.1-6.1.1-5.1-.4-10.3.4-15.4.3-.7.8-1.3 1.8-1.3z" fill="#a1a1a1"/><path class="st119" d="M77.3 125.5c.1 1.1-.9 1.4-1.4 2.1-3.5 6.3-3.5 6.3 1.4 11.8.3.3.5.8.6 1.2.2 2 .8 4.1-1.9 4.9-1 .2-2-.4-3.1.3.7 2.2 3.2 1.7 4.3 3.1v5.5C67 147.1 65 134 72.5 124.3c1.7-1 3.4-1.3 4.8.4.2.2.2.5 0 .8z"/><path d="M77.2 182.6v8.7c-4-.9-7.6-2.8-11.1-4.9-.8-.5-2.1-1-1.3-2.3 2.3-3.7 3.7-8 7-11.1 1.3-.5 1.7 1 2.6 1.3 1 .7 2.4 1 3 2.3 0 2.8-2.4 3.9-3.9 5.7-.4.2.2.6 0 .2-.1-.1 0-.2.2-.3 1.2-.8 2.5-.8 3.5.4z" fill="#80ceda"/><path class="st121" d="M183.3 388.2c5.6 0 10.3 3 11.7 8.4 1 3.9-.9 8.6-4.6 10.1-2.3.9-.9 2.1-.8 3.3 0 1 1 2.5-.5 2.9-1.7.5-1.9-1-2.3-2.2-1.5-4.6-2.6-5.4-7.6-4.8-.9.1-2 0-2.2-.6-1.4-3.5-6.2-1.9-7.6-5.2-.8-2-.3-4 .9-5.8 2.8-4 6.5-6.2 13-6.1z"/><path d="M126.8 382c9.2 3.7 18.6 2.1 28 1.5 2.9-1.9 3.4-1.8 4.2.6-.3 1.2.2 2.5-.7 3.5-.8.8-1.8 1-2.8 1h-26c-.7 0-1.4-.2-2-.5-2.2-1.9-2.4-3.9-.7-6.1z" fill="#7a6108"/><path d="M96.5 119.3c-1.1-.9-2.3-.9-3.5-.1-.8.9-1.7.9-2.6.2-.8 0-1.5 0-2.3.1-1.6 1.2-3.1 1-4.6-.1h-.7c-.2.2-.5.5-.6.8-1.9 3.1-2.2 3.1-4-.2-.1-.3-.2-.6-.2-.9 9.9-5.8 20.2-4.4 30.6-1.6 1.7.5 3.4 1.1 5.1 1.7-.5.9-1.4 1-2.3 1.1h-2c-.8 0-1.6.2-2.4.3-.8.1-1.6-.1-2.5-.2-1 0-2-.1-3 0-.7.1-1.3.1-1.9.5-.8.5-.9 2.3-2 1.8-1.6-.7-1.4-2.2-1.1-3.4z" fill="#81ced9"/><path class="st124" d="M153.4 372.5c.9-4.3 1.8-8.6 2.8-12.9.3-1.2.9-2.3 1.4-3.4 1.2-2.4 2.7-3.7 5.4-1.9.5.3 1.3.3 2 .4-.1 1.1-.4 2-1.2 2.8-2.9 3.1-3.3 7.2-4.3 11.1-.5 2.1-.5 4 1 5.7-1 2.8-3.5 2.1-5.4 1.9-1.4-.3-2.2-2-1.7-3.7z"/><path d="M103.5 326c-.5 1.3-.9 2.6-1.4 4-1 2.7-2.1 5.5-3 8.3-.6 1.8-1.3 2.4-3.4 1.7-3.1-1.2-6.2-2.7-9.6-3.2-.2-.2-.3-.5-.3-.9 1.1-1.9 3.2-.7 4.7-1.6.9-.1 1.8.1 2.7.3 1.5.3 2.4-.2 2.9-1.6 1.3-3.5 2.4-7.1 3.8-10.6.6-1.5.1-2.4-1.5-2.6-.8-.1-1.5-.4-2-1.1-.2-.3-.2-.6 0-.9 1.7-.5 3.2.7 4.8.6 1.3.3 2.5 1 3.4 2 1.4 2.2.6 4-1.1 5.6z" fill="#715ea4"/><path class="st126" d="M219.9 327.3c-2.5.2-5.2-.8-7.8 1 3.1.9 6.1 1.8 10 2.9-4.5.6-7.8-1.1-11.2-1.6-1.6-.2-3.1-.9-4.6-.7-2.8.3-2.2-.8-1.3-2.3 1.1.6 2.3.4 3.8.2-1.5-1.2-2.6.4-3.8-.1-.5-3.9 2.4-7.3 1.4-11.2 6.2 1.5 12.3 2.9 18.4 4.3.1 1-.6 1-1.2 1.3-4.8.3-9-1.9-13.4-2.7-.5-.6-.6.4-.3 0 0-.1.1 0 .2.1.4.2.7.6.9 1 2.5 4.8 5 5.8 10 3.6 1.3-.6 2.7-1.7 3.9.2 0 .2.1.3.1.5-1.5.6-3.1 1.1-4.6 1.7.1 1.4 1.2.8 1.8 1.2-.4 1.6-1.6.6-2.3.6z"/><path class="st127" d="M86.2 384.1c-.9 1.6-2.8 2.2-4 3.4-1.7.7-2.7 2.9-5 2.1-1.1-1.7-2.5-3.3-3.5-5.2-.8-1.2-1.6-2.5-2.4-3.7-2.4-1.8-1.9-3.3.3-5 6.9-5.2 7-5.3 11.8 1.8 1.4 2 3.8 3.7 2.8 6.6z"/><path d="M147.3 260.6c-.4-.7-.5-1.4-1.2-1.9-3.1-2.3-3.1-5.1 0-7.2 4.6-3.2 12.3-1.2 14.9 3.7 1.6 3.1.6 8.6-4.2 9.7-1.5.4-1.2 1.3-1.6 2.1-.4.7.2 2.2-1.3 1.9-1.1-.2-1.2-1.2-1.1-2.2.3-2.6-.8-4.1-3.4-4.6-.1-.9.6-1.1 1.3-1.3 1.6-.3 3.1-.1 4.7-.2.8-.1 2.6 0 2.4-.4-.9-1.8 2.5-3.5 0-5.1-.8-1.3-1.6-2.5-3.3-1-.5.5-1.2.1-1.8-.2-.7-.4-1.2-1.1-2.1-1.2-.7.9-1.6 1.5-3.2 1.1 1.2 1.4 1.5 2.8 1.3 4.3.2 1 .4 2.3-1.4 2.5z" fill="#472e8c"/><path d="M158.1 391.7c.2.9 1 1.7.2 2.7-.6.5-1.3.9-2.2.9-9.4 0-18.9.5-28.3-.3-1.6-.9-1.6-2-.5-3.3 1.2-1 2.7-1.1 4.2-1.1h22.8c1.3.1 2.7 0 3.8 1.1z" fill="#bb941e"/><path d="M158.2 402h-.7c-1 .5-2.1 1-3.2 1-8.2 0-16.4.2-24.5-.1-.6 0-1.1-.2-1.7-.4-1.3-.6-1.5-1.6-1-2.9.9-1.3 2.2-1.5 3.6-1.5 8.1-.1 16.2 0 24.3 0 1.2 0 2.3.1 3.2 1 .2 1.1.4 2 0 2.9z" fill="#bd951f"/><path class="st131" d="M199.5 326c-.6 5.2-1.6 6.2-6.8 7.1-1.2.2-2-.3-2.6-1.2-.4-.5-.7-1.2-1.2-1.6-1.1-1-3.8-.2-3.5-1.8.4-2.4 1.5-4.8 2.1-7.2.5-2.1 3-.8 4.4-1.6 2 .2 3.5 1 3.7 3.2-.6.9-1.7.3-2.5.7-1.2.5-2.2 1.3-2 2.8.2 1 1 1.8 2.2 1.7 1.4-.1 2.3-.8 2.4-2.3 0-.7-.2-1.3-.1-2 1-1.9-2.2-3.6-.3-5.6 1.4 1.2 1.5 3.6 3.7 4.1 0 .3-.1.6-.2.8-.6.9-.2 1.6.4 2.2.1.1.3.4.3.7z"/><path d="M200.7 355.3c-2.4-1.8-5-1.6-7.5-1.4-3.9.3-7.3-2.4-7.3-5.9 0-3.6 3-6.6 6.5-6.4 3.8.2 6.5 3.3 5.7 7.2-.7 3 1.2 4.5 2.6 6.5z" fill="#715da6"/><path class="st133" d="M115.6 399.9c-.9 3.5-1.8 7-2.6 10.6-.5 2.1-1.6 2.4-3.5 1.9-5.7-1.6-11.4-3.2-17.1-4.7-1.4-.4-2.4-.7-1.8-2.5 1.2-3.5 1.6-7.3 3.2-10.8.5.1.9.4 1 1 0 2.6-.9 4.9-1.6 7.3-.4 1.4-.8 2.7 1 3.4 1.7.7 2.8.5 3.5-1.4.3-.7.9-1.3 1.5-1.9 2.5-1.4 4.1-1 5.5 1.2.4 1 1.6 1.3 1.9 2.3.8 1-1.2 2.8 1 3.4 1.8.5 3.4.6 3.9-1.8.4-1.8 1-3.5 1.5-5.3.3-1.2.3-2.6 1.7-3.2.3.2.6.3.9.5z"/><path d="M77.2 182.6c-1.4-.1-2.9-.2-4.7-.2 1.7-2.1 3.2-4 4.7-5.9v-.5c.3-1.2 1.1-2.2 1.4-3.3.4-1.6.5-3.1-1.6-3.6-1.9.2-2.3 1.4-2.2 3 .1 1.1.2 2.2-1.1 2.8-1.1-.1-1.2-1.3-1.9-1.9-.3-4.6.5-5.6 5.4-7 5.7 2.1 6.4 5.1 2.6 11.2-.7.9-1.4 1.7-2.2 2.6.6 1.1 1.6.4 2.4.6.9.2 2.4-.5 2.4 1 0 1.8-1.6 1-2.6 1.1-.8.1-1.7 0-2.6.1z" fill="#3b3b3a"/><path class="st135" d="M113.3 288.8c.7.7 1.3 1.4 2.3 1.3 1.6 1.3 1.5 2.8.2 4.1-2.8 2.6-5 5.8-7.6 8.6-.6.3-1.2.4-1.9 0-1.4-1 .4-2.6-.7-3.6-.5-.5-1-.9-1.4-1.4-.8-1-1-2.2.3-2.9 1.3-.7 2.6-.5 3.1.8.2-2.4.6-5.4 3.3-7.3.3-.1.7-.2 1-.2.5 0 1 .3 1.4.6z"/><path class="st136" d="M179.2 269.3c5.1-5.9 12.6-5.9 17.7 0-.1.3-.4.5-.7.5-1.1-.1-1.8-.9-2.8-1.3-.8-.4-1.5-.4-2.1.4-.7 1.1.3 1.1.8 1.6 1.8 2 .4 3.4-1.2 4.7.4.3.7.3 1 .2 1.3-.3 2.7-.6 3 1.2.3 1.5-.9 2.2-2.1 2.7-1.1.5-2.5.5-3.3 1.7-.2.2-.5.4-.8.4-2-2.6-.6-5.6-.9-8.5-.1-1.1.3-2.3.3-3.4 0-.8.8-1.9-.6-2.3-1-.3-1.7.5-2.3 1.1-.6.6-1.2 1-.4 2.2 1.2 2 2.1 4.3.6 6.6-.3.1-.6 0-.9-.2-1.4-1.5-.8-4.7-4.2-4.6-.9 0-.4-1.6-.9-2.4-.1 0-.2-.3-.2-.6z"/><path d="M90 297c1.4 1.9.6 3.7.3 5.7-.9 5.3-4.6 3-7.5 3.1-.7-.7-1.4-1.3-2.2-1.9h.1c-2.8-5.1-1.8-8.2 3.4-10.2.6-.1 1.3-.2 1.9-.3 2.4 0 2.5 2.5 4 3.6z" fill="#8b7bb6"/><path d="M184.9 276.3c0 .3.1.6.1 1-1.5.9.6 1.9 0 2.8-2.1 1-1.2 2.9-1.2 4.5.5-.8.8-1.9 2.2-1.3.7 2 1.9 3 4.2 2.4.1-1.5-1.3-2.7-1.1-4.3 0-.3.1-.6.1-1 1.7-.3 2.3.7 2.7 1.8.2-2.2 1.8-3.3 4.1-3.5.3.1.6.2.8.5-.2 2.1-2.9 3.2-2 5.6.1.3.1.6.1.9-4.8 3.3-9.6 3.2-13.3-.2.2-2.4-1.2-4.1-2.5-6.1.3 2.4 2.7 3.7 2.5 6.1-5.5-3-6.6-10.2-2.3-16.1l.5.5c.3 1.2-.4 2.2-.6 3.3-.6 2.8.2 3.7 3.1 3.2.9-.4 1.7-.3 2.6-.1z" fill="#65509f"/><path class="st139" d="M89.6 351.9c1.9-2.4 3.8-4.8 5.7-7.1.4 1.9 1.6 3.6 4.1 3-4.5 6.3-9 12.6-13.7 19-.1-2.8-1.9-3.5-4.6-3.3 3.7-.1 1.5-5.4 5-5.4-.7-3.2 3.9-3.3 3.5-6.2.8.6 1.3 1.5 2.7 2-.8-1.3-2.1-1.2-2.7-2z"/><path d="M86.2 384.1c-1.4-4.3-4.7-7.3-7-11.1-.6-1-1.4-.4-2 .1-1.7 1.2-3.2 2.5-5 3.5-2.2 1.2-2.1 2.5-.8 4.2-3.3-2.3-3.5-4.3-.5-6.4 2.6-1.8 5.4-4.9 7.9-4.7 1.9.1 3.6 4.4 5.4 6.9 1 1.4 2.1 2.7 2.8 4.2.6 1.1 1.7 2.7-.8 3.3z" fill="#4f3791"/><path d="M158.2 395.8c.4.9.9 1.8.2 2.8-10.2-.2-20.5.2-30.7-.2-1.6-1-1.6-2 0-3.1 9.5-.4 19.1-.1 28.6-.2.7 0 1.4.2 1.9.7z" fill="#c19921"/><path d="M194.7 301.1c-.5-2 .4-2.9 2.2-3.5 3.4-1.2 6.8-2.4 10.2-3.7 1.7-.6 2.9-.3 3.6 1.4 1 2.7 2.1 5.5 3 8.3.4 1.1 0 2-1.2 2.4-.3.2-.6.2-.9.1-1.1-1.8-1-3.9-1.9-5.8-.5-1-1-2.1-2.5-1.8-3.4.8-6.7 2.8-10.4 1.9-.3-.1-.7.5-1.1.7-.4.2-.7.2-1 0z" fill="#381d83"/><path d="M127.4 387.7h30.8c.2.7.8 1.3.1 2-.9.8-2 1-3.2 1h-24.9c-.9 0-1.8-.1-2.6-.6-.9-.8-.9-1.6-.2-2.4z" fill="#c09820"/><path d="M127.3 389.6c10.3 0 20.7 0 31 .1-.1.7-.1 1.4-.2 2.1h-27c-1.2 0-2.5-.1-3.6.6-1-.9-.9-1.9-.2-2.8z" fill="#7e6408"/><path d="M153.4 372.5c.3 1.3.7 3.4 2 3 1.6-.5 4.1 1 4.8-1.7-.9-1.6-1.5-3.1.7-4.1.1 4.9.6 9.8-2 14.4-1-3.1-2.9.1-4.2-.6-.7-.1-1.3-.1-2.1-.2.3-1.7 2.9-2.4 1.7-4.7-.8-1.6-2.1-.1-3.3-.9 3.4-.8 1.1-3.7 2.4-5.2z" fill="#efe2b1"/><path d="M135.4 119.4c-.5 1-2.1.4-2.4 1.6-.1.4-.7 1.6.7 1 .8-.3 1.5-.8 1.8.4.2.6.2 1.4-.3 1.9-.6.7-1.4.6-2.2.4-1.2-.3-1.6-1.4-2.1-2.8-.4 2.2-3.4 3.4-5.4 2.4-.8-.4-1.4-1.1-2.3-.2-.7.2-.9-.2-1.1-.7-.2-1.7.3-3.1 1.8-4 1.6-.4 1.6 1.3 2.4 2 .8-2.6 4.6-3.4 9.1-2z" fill="#a5966b"/><path d="M148.6 123.4c-.9.3-1.7 1.8-2.9.3-.2-.3-.8-.5-1.1-.4-6.3 1.8-6.3 1.8-6.3-4 3.5-1.3 6.9.6 10.3.1.9 1.3 1 2.7 0 4z" fill="#ad9d6f"/><path d="M73.2 331.8c-1.7-.3-2.2-1.1-1.6-2.8 1.7-4.3 3.2-8.6 4.8-13 3.2.5 2.7 2.9 2.6 5.1-.3 2.3-1.3 4.3-2.4 6.2-.5.7-.7 1.3-.2 2.2.4.7 1.3 1.6.5 2.4-.7.8-1.7.1-2.5-.2-.3-.1-.7-.1-1.2.1z" fill="#9182ba"/><path d="M68.4 346c.6-.4-.1-1.6.9-1.8 1.4-1 3.2-.6 4.8-1.5 1.2-.7 1.5 1.3 2.6 1.7 2 .5 2.3 2.1 3.3 3.6 2.5 3.7-1.7 4.8-1.9 7.3-.1 1.4-2.7-.2-3.9 1-1.4 1.4-2.3-.4-3.2-.6-3.8-.5-2.7-4.3-4.5-6-.6-.5-.2-1.3.4-1.8.3-.5 1.3-.8 1.5-1.9z" fill="#edebf4"/><path class="st139" d="M210.9 391.5c-.3 1.4-.4 2.8.1 4.3.8 2.5-.3 4.6-2.8 5.4-2.3.8-4.4 0-5.3-2.3-1-2.5-.5-5 2.3-5.8 2.3-.7 2.7-2.6 3.5-4.3.7-1.5 1.5-1.7 2.9-.9 1.8 1.1.4 1.8-.1 2.6-1.3-.9-1.5.3-1.9.9-.8 1.2-1.3 2.5-3.1 3.2 1.2.3 2.1 1.6 2.4-.2 0-1.4.3-2.7 2-2.9z"/><path d="M119.8 281.6c-2.7 1.5-4.1.9-4.3-1.9-.2-2.5-.1-5-.1-7.5 0-1.5.6-3.4-.1-4.3-2.7-3.7.7-4.9 2.4-6.8.5-.6 1.4-.3 1.3.1-.2 1.8 1.7 1.2 2.2 2.1.2.2.3.4.2.6 0 .2-.1.3-.1.3-3.8 1.8-4.7 4.2-4 8.2.4 1.9 2.9 1.5 2.9 3.4-.2 2 .2 3.9-.4 5.8z" fill="#7d6aa6"/><path d="M94.6 390.4c.8-3.2 1.8-6.4 2.4-9.6.5-2.4 1.7-2.6 3.7-2 5.6 1.6 11.2 3.1 16.8 4.6 1.7.5 2.5 1.1 1.8 3.1-1.1 3.1-1.3 6.4-2.9 9.4-.3.3-.6.3-.9 0-.6-2.2.5-4.2.9-6.3.9-4 1-4.1-3.1-5.3-3.6-1-7.3-1.9-10.8-3-2.9-.9-3.9.2-4.5 2.8-.6 2.4-.7 5-2.3 7-.6.2-.9-.2-1.1-.7z" fill="#7360a7"/><path d="M127.3 397.7c9.1 0 18.1.1 27.2.1 1.3 0 2.7-.4 3.9.7-.1.2-.2.5-.2.7h-27.4c-1.2 0-2.3 0-3.3.6-.8-.6-.8-1.3-.2-2.1z" fill="#896c0b"/><path d="M212.4 205c-1.8-2.6-3.4-2-5.1 0 0 .1-.8-.3-1.1-.6-.5-.4-.6-1 0-1.4 1.5-1.3 1.9-2.4 0-3.7-.7-.5-.8-1-.1-1.7.6-.6 1.2-.5 1.7.1 1.2 1.5 2.3 1.6 3.4-.1.5-.8 1.2-.9 2-.2s.3 1.2-.2 1.7c-1.5 1.2-1.6 2.3 0 3.5.4.3.9.8.4 1.4-.2.3-.5.5-1 1z" fill="#343031"/><path class="st154" d="M186.2 119.4c-.9 1.1-3.7 1-2.2 3.7.8-.2.4-2.2 1.8-1.3.8.5.7 1.4.4 2.2-.4 1.1-1.7 1.3-2.2.8-1.3-1.2-2.9-.6-4.3-1.1-.2-.1-.4-.3-.6-.3-2.6-.4-2.6-.4-2.6-4 3.3.6 6.5-1.2 9.7 0z"/><path d="M158.2 395.8c-10.3 0-20.6 0-30.9.1-.4-.5-.4-1-.1-1.5 10.3 0 20.7.1 31 .1.1.4 0 .8 0 1.3z" fill="#816609"/><path d="M198 379.3c.2.5.5.5.8.1.3-.4.6-.7 1-1 1.2-2.5 1.3-4.9-.1-7.4-.3-.4-.5-.8-.3-1.3 1.9-.5 2.9-.1 2.8 2.2-.1 2.1.2 4.3.3 6.2 1-.9-1.6-4 1.9-3.7 2.9.2.6 2.8 1.4 3.7 1.5-1.7-2.4-6.2 3.1-6.3.3.5 0 .9-.3 1.3-1.1 1.8-1.3 3.6 0 5.3.4.3.7.6.9 1 .8 1 2.2.1 3.6 1.2h-15.8c-.5-.8-.5-1.3.7-1.3z" fill="#442b8a"/><path class="st157" d="M176.7 304.3c.2-1.1-.9-1.4-1.2-2.2 1.9-.5 3.1-3.8 5.8-1.6 1.2 1 2.5 1.9 3.5 3.1.7.8 1.3 1.4 2.3 1.9 1.5.7 2.2 2.4 1.5 3.7-.5.8-.7 2.9-2.4 2.4-1.8-.5-4-1.3-3.5-3.8.4-1.9.1-2.6-1.8-2.5-.7-.8.3-2.4-1.7-2.9-.4 1.6 1.2 2 1.7 2.9-1.9 1.7-3.1.2-4.2-1z"/><path class="st158" d="M68.4 346c0 .1.1.3.1.3-3 2.1.4 4.8-.6 7.1-.1.1.7.9.8.8 2.2-1.3 2.6 3.5 5 1.5.5-.5 1.5-.7 2.2-.6 1.4.3 2 0 2.1-1.6 0-1 .7-1.9 1.7-2.3 1-.4 1.3-.9.1-1.5-.3-.2-.6-.8-.6-1.1.2-2.1-1-3.3-2.6-4.3 2.5-.7 3.9 0 3.5 2.9-.1.7-.2 1.4.6 1.7.9.3.8 1 .8 1.7-.1 2-4.2 4.8-5.6 5.8-3.1 2.5-5-.5-7.4-1-1.2-.3-2.3-1.8-1.9-2.5 1.2-2-3.7-5 1-6.3.3 0 .5-.4.8-.6z"/><path d="M58.6 334.2c1.2-1.9 1.1-2.9-.1-4.3-1-1.2.3-2.4 1.6-2.6 1.6-.2 2.2 3 4.4 1.5 0 .3.2.8.1.9-1.3 1-.7 1.7.2 2.6.9.9.5 1.9-.4 2.6-.8.7-2 .7-2.4-.2-.6-2-1.8-1.5-3.4-.5z" fill="#9c8cac"/><path class="st113" d="M160.9 369.7c-1.1 1.2-.4 2.7-.7 4.1-1.5.1-2-.5-2-2 .2-5 2-9.6 3.8-14.2.3-.9 1.2-1 1.9-.1-1.2 4-2.8 8-3 12.2z"/><path class="st133" d="M150.8 261.2c-.5.2-.9.4-1.4.7-.9-.1-1.7-.4-2.1-1.3.6-.8 1.3-1.5.6-2.5.5-1.6 2.4-1.1 3.2-2.2.6-.5 1.7-1.3 2-.8 1.7 2.4 3 .1 4.4-.3.5.1 1.3-.1 1.4.6.3 2.6-2.5 5.5-5.3 5.6-.9 0-1.9-.7-2.8.2z"/><path d="M206.5 348.5c.5-1.4 1.5-2.8-.8-3.3-.9-.2-1-1.4-.4-2.3.5-.9 1.6-1.5 2.2-.8 1.4 1.6 2.4.4 4-.7-.4 1.8-1.5 3.4.9 3.9.9.2.8 1.5.3 2.3-.6.9-1.9 1.3-2.3.6-1.4-2.4-2.1.3-3.9.3z" fill="#907fa3"/><path d="M73.2 331.8c1.2-1.3 2.2.6 3.4.1.3-1.6-3.5-2.8-.5-4.7 2.5 2.9 6.4 3.6 9.3 5.9.7.9-.2 2.2.8 3v.6c-.6.3-1.3 1-1.8.3-2.9-3.5-7.5-3.3-11.2-5.2z" fill="#604a9c"/><path class="st154" d="M176.1 119.3v1.4c-.2 1.6.8 4.1-2.2 4-2.1-.1-5.1.2-4.1-3.7.1-.5 0-1.1 0-1.7 2.1-1.2 4.2.4 6.3 0z"/><path d="M78.4 321c-.1-.9-1.2-3.6-2-4.9 1.6-5.2 2.7-5.7 7.7-3.4 2.5 1.2 5.1 2.4 6.8 4.8-.2.2-.5.4-.9.4-2.3-.5-3.9-2.3-5.9-3.2-1.6-.7-2.5-.4-3.2 1.3-.5 1.8-.5 3.9-2.5 5z" fill="#66519f"/><path d="M67.1 290c-.3-4.5-.3-4.5 4.2-4.7.5 0 .9-.1 1.4-.1 1.3.1 3.1-1.1 3.7.5.7 1.8 1.5 4.1.6 6-1 2.2-3.5.8-5.3 1.2-.2-.3-.2-.6 0-.9.5-.5 1.2-.6 1.9-.8.6-.2 1-.5 1-1.2 0-.8-.4-1.4-1.1-1.5-1.8-.2-3.9-1.2-5.3.9-.2.5-.5.8-1.1.6z" fill="#32167f"/><path d="M106.8 120c.4-.8 1.2-.6 1.9-.6 1.1.6 1.5 1.6 1.6 2.1-.1-.4-.2-1.4.6-2.2.9-.1 1.7-.1 2.6-.2.3.3.6.6 1 .8-.2 5.1-1.4 5.7-6.9 3.5-2.2-.6-1.7-2-.8-3.4z" fill="#567366"/><path class="st165" d="M231.8 352.1c-.3 3.5-3.4 1.7-5 2.2-1.3.4-4.8-5.5-4-6.9.9-1.5 2.4-3.4 3.8-3.5 1.5-.2 3.7-1.6 5 .8.3.6 1.1 1 1.6 1.5-.1.3-.3.6-.6.7-.8.2-1.5 0-2.2-.5-1.6-1-2.9-.5-4.3.6-1.1.9-.9 2-.6 3 .6 1.9 2.3 1.9 3.9 1.9.6 0 1.1-.2 1.7-.2.4-.1.6.1.7.4z"/><path d="M94.6 390.4c.2.2.3.4.5.6 6 2.3 12.2 3.6 18.4 5.2.8.2 1.6-.1 2.3-.4h.6c-.3 1.4-.6 2.7-.9 4.1h-.7c-5.7-2-11.5-3.4-17.4-4.8-1.1-.3-2.2-.4-3.4-.1-.2-.2-.4-.4-.5-.7.5-1.2.8-2.6 1.1-3.9z" fill="#442a8a"/><path d="M90 317.6c.3 0 .7 0 1-.1 1.8 0 3.6.1 5.4.1v.5c-6.2 1.4-5.8 7.2-7.8 11.5-1.1 2.3-1 4.1 1.6 5.1-.8 2.3-3.2-.8-4.1 1.3-2.9-.2-1.8-1.5-.7-2.8-.7-.8-.4-1.7-.1-2.6 1.5-4.3 2.8-8.7 4.7-13z" fill="#33177f"/><path d="M104 320.2c-1.3 0-1.6-1.6-2.7-1.9.9-.4 1.3-1.2 1.4-2.2.1-4.5 1.9-8.6 3.4-12.8.6-.7 1.4-.5 2.1-.3.4.8.2 1.6-.1 2.3-1.8 4.1-2.7 8.4-3.1 12.8-.2.8-.3 1.6-1 2.1z" fill="#d8d8d8"/><path d="M199.3 122.8c-1.5.8-2.7 3.3-4.9 1.3-1.7-1.5-1.2-3.2 0-4.8 1.4-1 2.8-.2 4.3.1 1.5.9 1.7 2.1.6 3.4z" fill="#ab9b6c"/><path class="st170" d="M81.6 277.9c-1.5-.1-2.3-.9-2.3-2.4 2.9-3.7 3.5-3.9 6.7-2.5 1.2.5 2 1.7 1 2.7-1.4 1.3-2.8 3.4-5.4 2.2z"/><path class="st135" d="M116.3 290.2c4.9-3.2 9.9-6.3 16-6.9.1.3.1.6-.1 1-4.2 2.5-8.6 4.7-12.9 7.2-1.3.3-2.7.8-3-1.3z"/><path class="st171" d="M221 301.1c-.4-1.3-1.9-2.1-1.7-3.7 3.6-2.6 5-2.5 7.4.6 1 1.3.9 2.6-.8 2.8-1.6.2-3.2 1.2-4.9.3z"/><path d="M108 303.3h-2c-3.2 0-6.4-.1-9.6-.1-1.3 0-2.1-.1-2.1-1.8.1-6.4 0-12.7.7-19.1v7.8c0 1-.3 2.2 1.3 2.1.2.3.3.7.2 1.1-.1.6-.3 1.1-.4 1.7-.9 5.9-.4 6.5 5.5 6.6 1.5 0 3-.3 4.2.9h2c.9-.4 1.8-.7 2.7-.1.4.7-.1 1-.6 1.4-.5.1-1.2.1-1.9-.5z" fill="#33187d"/><path d="M207.6 286.7c-.4-.2-.9-.4-1.3-.7-2.5-1.9.2-3.3.7-4.5.7-1.5 2.3-.4 3.2.3 1.3 1 3.9 1.5 3.4 3.3-.5 1.7-2.9 1.7-4.7 2-.5 0-.9-.1-1.3-.4z" fill="#f7f6fa"/><path class="st174" d="M111.6 288.8c-3.4 2-3.6 5.3-3.5 8.7-.9-.2-.6-.9-.7-1.4-.3-.9-1-1.3-1.8-1-.5.1-1.1.6-1.3 1-.4.9.2 1.5.9 2 .5.4 1.4.1 1.5 1.1-3.3.7-4.5-.8-3.5-4.4.3-.3.6-.5 1-.5 3-.1 5.2-2.6 4.3-5.3-.7-2.1-.8-3.7 1.6-4.1 2.5-.4 2.8 1.6 2.9 3.5 0 .2.1.4.2.6-.5-.2-1.1-.2-1.6-.2-.5-.5-.3-1.5-1.1-2-.2 1 .7 1.3 1.1 2z"/><path class="st175" d="M207.6 286.7c2.1-.2 4.2-.5 6.3-1.9-2.1-1.5-4-3.2-6.7-3.5 0 1.4 1.5 1.4 1.6 2.7-2.1-.9-4.4-1.8-2.6 2-1.6-.8-2.4-2.3-1.5-3.7 1-1.6 2.7-2.5 4.7-1.4 2.2 1.2 4.3 2.5 7.1 4.2-3.4.8-5.6 3.7-8.9 1.6z"/><path d="M170.2 268.4c-.2-.9-.2-1.4-.5-1.8-2.6-3.6 1.3-6.1 1.6-9.2.1-.9 1.4-.4 2.1-.3 1.1.1 1 .9.9 1.8-.1 1.4-1.6 3 .5 4.1.1 0-.1.6-.3.8-.2.2-.7.3-.8.2-.6-.5-1.4-.8-1.3-1.8.2-1.4 1.2-2.7-.1-4.2-.1 2.9-3.8 4.8-1.7 8.4.7-.6 1.5-1.1 2.7-2.1-.4 2-1.5 3-3.1 4.1z" fill="#644e9e"/><path d="M128 258.9c.4-.3.9-.5 1.3-.8.8-1.6.2-3.4.4-5 .1-.9.2-1.6 1.2-1.7 1.3-.1 1.5.7 1.5 1.7 0 2.1-.4 4.2 2 5.7 1.1.7.1 1.6-.8 1.8-1.7.4-3.4.3-5.1.3-1-.4-.8-1.2-.5-2z" fill="#f3f1f7"/><path class="st139" d="M104 266.8c-1 1-2 2-3.5 1-1.4-1-2.2-2.3-1.7-4.1.7-2.2 1.6-4.5 2.4-6.8 1.6 1 2.2 2.3 2.8 3.7.3.7-.1.9-.6 1-3.4-2-2.3 1.4-3.1 2.5.4-.5.1-1.3.5-1.8.4-.6.8-1.2 1.6-.9.6.2.7.9.6 1.4-.1 1.2-.5 2.5 1 3.2.3.3.3.6 0 .8z"/><path d="M224.9 335.4c-7.7-.2-13.9-3.2-20.7-3.5 1.7-1.7 11.7 0 20.7 3.5z" fill="#5f499b"/><path d="M110.6 302.5c-.8 0-1.7-.1-2.5-.1 1.6-2.9 3.6-5.5 6.1-7.7 1.6-1.3 2.2-2.7 1.4-4.6.2 0 .4 0 .6.1.7 1.5 1.9.7 2.9.6.2.6.1 1.2-.3 1.6-3.1 3-4.9 7.1-8.2 10.1z" fill="#b1afab"/><path class="st180" d="M210.9 391.5c-2.1 1.5-1.8 3.3 0 5.9-2.6-1.1-4.4-1.9-6.7-3 3-.5 4.3-2.3 5.1-4.6.2-.5.4-1.5 1.3-1.3.9.2 1 1.1.9 2-.3.3-.5.6-.6 1z"/><path d="M59.4 366.4c-.9-1.1-1.8-2.1.4-2.8 1.4-.4 2.7-1 4.1-1.6.6 2 .2 4.1-.5 5.1-1.2 1.5-3.1 2.6-4.8 3.9-.2.2-2.6-.7-1.4-2.4.6-.9.9-2.1 2.2-2.2.7.7.7.7 2.4-.9-1.1 0-1.5 1.2-2.4.9z" fill="#5d4699"/><path class="st182" d="M211.4 305.8c.3 0 .7.1 1 .1-3.8 2.1-8.1 3-12.1 4.6-1.8.7-2.5-.4-3-1.8-.9-2.6-1.8-5.2-2.6-7.7.2-.1.5 0 .7 0 2.5.7 2.3 3.2 2.9 5 .8 2.3 1.8 2.7 4.1 1.9 2.9-1 5.6-3.1 9-2.1z"/><path d="M128.6 260.5c1.8-1.2 3.9 0 6.1-1.1-2.7-1.3-2.8-3.6-2.6-6 0-.7.2-1.8-1.1-1.6-1 .1-.7.9-.8 1.6-.3 1.6.9 3.4-.8 4.7 0-1.8.1-3.6 0-5.4-.1-1.3.4-1.7 1.7-1.8 1.3 0 1.9.3 1.8 1.7-.1 2.4.1 4.4 2.2 6.2 1.3 1.1 1 3.3-.1 5-.6-.3-.9-.8-1.3-1.3-1.3-1.6-3-.6-4.6-.9-.5-.3-.8-.6-.5-1.1z" fill="#432989"/><path d="M220.6 359.5c1.5.3 3.1.5 4.6 1 .9.3 1.2 1.2 1 2.4-.3 1.7-1.6.7-2 .6-2-.4-3.8-1.1-5.7-1.8-.3-1.6.5-2.3 2.1-2.2z" fill="#553e95"/><path d="M122.5 123.2c.2.3.5.6.7.9-1.8 1.2-3.6.9-5.4-.1.1-1.4-.5-2.3-1.5-3.2 1.6-1.3 3.1-3 5.5-1.5.3 1.6-1.4 1.1-1.9 1.8-.5.1 0 .3.1.3 2.2-1.5 2 .7 2.5 1.8z" fill="#a99c71"/><path d="M103.3 374.5c-.2-1.9-3.6-1.8-2.5-4.5.7-.5 1.7 1.1 1.8.4.5-3 3.2-1.7 4.6-2.7.6-.4 1.4-.5 1.7.4.2.6-.1 1.4-.9 1.7-.8.3-1.7.9-2.5.9-2.9 0 0 3.4-2.2 3.8z" fill="#8f80b9"/><path d="M160.4 119.3v2.7c0 1.3.1 2.8-2 1.4-.2-.1-.7-.2-.9 0-2.7 2.5-2-.2-2.1-1.4-.1-.9 0-1.8 0-2.7 1.7 0 3.4.9 5 0z" fill="#a29368"/><path class="st188" d="M198 379.3c-.7.2-.7.8-.6 1.3-.9-2.5-.9-12.7.6-15.5v14.2z"/><path d="M134.1 262c.9.3.9 1 .8 1.8-1.5 2.5-3.7 2.4-5.8 1.1-2.2-1.5-2.9-3.6-1.1-6 .2.5.4 1 .5 1.6.2.3.5.5.7.8 1.5 1.3 3.3.7 4.9.7z" fill="#8372b1"/><path d="M132.1 283.9c.1-.2.2-.4.2-.6 6.2-4 10.4-4.2 15.3-.8-4.8-.8-9.6-1.5-14.1 1.5-.5.4-1 .3-1.4-.1z" fill="#553e8d"/><path class="st136" d="M196.9 269.3c4.3 5.6 3.4 12-2.1 16.3-.1-.2-.3-.3-.4-.5.1-2.2 2.8-3.3 2.5-5.6-.1-.2-.3-.3-.4-.5.9-3.1.2-6.1-.1-9.2l.5-.5z"/><path class="st191" d="M183.2 374.3c1.1.7 1.9-.4 2.9-.5 2.3-.2 4.5 2 3.5 3.7-1.4 2.4-3.6 4.3-6.3 5.4-.6.2-1.4.1-1.9-.5 0-.3.2-.6.4-.8 2.2-.6 3-3 5-3.7.5-.2.7-.9.3-1.5-.4-.6-.9-.5-1.5-.2-1.5.7-2.8 1-3.1-1.3.1-.4.3-.6.7-.6z"/><path class="st174" d="M84.1 293.7c-.1.2 0 .5-.2.6-5.4 3.7-5.4 3.7-3.3 9.6-2.6-2.8-2.7-6.5-.3-10.6.3-.6.7-1.1 1.3-2 .7 1.1 1.5 1.9 2.5 2.4z"/><path class="st175" d="M81.6 277.9c.4 0 .9 0 1.3-.1 1.7-.5 3.2-1.3 4-2.9.2-.5-.4-1.5-.7-1.3-1.7 1-4-3.1-5.3.8-.2.5-1.1.8-1.6 1.1 1.5-4.2 4.3-5.2 7.7-2.6.7.5 1.1 1.2 1 2-.1 2.2-4.3 4.2-6.4 3z"/><path d="M68.1 308.8c.4 1-.2 1.4-.9 1.6-.7.2-.8-.4-1.1-.9-.6-1-.1-2.7-2.1-2.9-.5 0-.6-.9-.1-1.4.6-.7 1.4-1.2 2.4-1.1.9.1 1.5.6 1.6 1.5.2 1.1-.5 2.3.2 3.2z" fill="#a192ae"/><path d="M169 119.4c-1.9 1.6-1.8 3.3-.3 5.2-1.4.2-3.1.8-3.5-1-.3-1.5-1.2-3.7 1.1-4.8 1 0 1.9 0 2.7.6z" fill="#867b5a"/><path d="M103.3 374.5c1.4 2.2 1.4 2.2 3.1-.5 1.1.7-.5 3 1.6 2.9 1.6 0 2.4-.9 2.2-3.1.9 1.4.5 3.1 2.5 2.8-3.5 2.1-6.7 1.6-9.8-.2-1.6-1-.7-1.5.4-1.9z" fill="#8d7db7"/><path class="st195" d="M215.9 119.2c-.7 1.2-2 .8-2.4 1.8-.3.7-.4 1.4.3 1.9 1.4.9.5-.7.9-.9.4-.3.8-.4 1.2-.1.5.4.7.9.6 1.5-.2.9-.8 1.4-1.6 1.5-1.1.1-2-.4-2.6-1.3-.7-1.1-.7-2.2 0-3.2.7-1.4 1.8-2 3.6-1.2z"/><path class="st136" d="M221 301.1c.6 0 1.4.2 1.6-.1 1.1-1.3 4.6.9 3.8-2.1-.3-1.4-2.3-4.4-5.4-2.3-.5.4-1.2.5-1.8.8 1-2.6 3.6-3.3 5.2-2.1 1.3 1 4.9 2.2 3 5-1.4 2.1-4.1 2.2-6.4.8z"/><path d="M96.4 292.7c-.1-.2-.1-.4.1-.5.6-.9 1.7-1.3 2-2.6.3-1.2 1.4-1.8 2.7-1.6 1.4.3 2.5 1.3 2.1 2.6-.5 1.6.7 2.3 1 3.4-.1.1-.2.2-.4.3-2.6-.4-5.1-.6-7.5-1.6z" fill="#6e5ba5"/><path d="M134.3 272.9c3-5 3-5 9.1-3 1.3.4 2.5.8 3.7 1.5-2.3.6-4.4-.5-6.3-1.3-2.7-1.2-4.1-.6-4.8 2.3-.2.7-.7 1.4-1.1 2.1-1.3-.2-1.2-.8-.6-1.6z" fill="#6d59a3"/><path class="st198" d="M211.3 124.5c-1.7.3-3.2.9-3.6-.7-.4-1.4-.7-3.2.4-4.6.5-.7 1.9-.7 2.1-.3.4.9.3 2.1.1 3.1-.3 1-.3 1.4 1 2.5z"/><path class="st191" d="M181.3 382.4c-1.6.6-3.2 1.1-4.3-.6-1.1-1.5-.7-3 .7-4.2 1-.9.6-2.7 1.9-3.5 1.3-.8 2.5-1 3.7.2l-.5.5c-.3.3-.8.5-1.1.8-3.2 2.7-3.2 4.4.2 6.3-.3.1-.4.3-.6.5z"/><path d="M148.6 123.4v-3.9c1.2-.4 2.3-.7 3.5-.1-.5 1.1-2.6.6-2.3 2.5.1.4.1 1.1.4 1.2 1.1.6.5-.6.7-.9.5-.6 1-.5 1.4 0 .7.9.5 1.8-.4 2.3-1.3.7-2.5.2-3.3-1.1z" fill="#958862"/><path d="M220.7 124.2c-1.6.6-2.9 1.1-3.4-.2-.5-1.4-.6-3.2.1-4.6.4-.8 1.5-.9 2.1-.5 1.6.8.3 1-.4 1.3 2 .9-2 3.5 1.6 4z" fill="#8f8f8f"/><path d="M77.2 124.9c-1.4-1.4-3.1-.4-4.7-.8 1.1-1.3.6-3.7 2.9-4.1.8 1 1.9 1.4 3 1.8.4 1.4.2 2.5-1.2 3.1z" fill="#698387"/><path d="M108.2 349.2c-1.8 0-.7 3.1-2.4 2.5-.8-.2-3.2.1-2.6-1.5.3-.8.3-3.4 1.8-2.7.9.4 2.7-.2 3.2 1.7z" fill="#9280a4"/><path d="M163.2 118.8c.2 1 .7 2.1.6 3.1 0 .8-.2 2 .5 2.7-2.3.6-3.5-.1-3.4-2.6v-2.7c.7-.2 1.5-.3 2.3-.5z" fill="#867b5b"/><path d="M212.4 371c2.5.4-.8-3.4 2-2.4.9.3 3.1-1.3 2.6.9-.2.9.8 3.4-1.1 3-.8-.1-2.8.7-3.5-1.5z" fill="#8976a0"/><path d="M220.6 359.5c-1.1.4-1.8 1.2-2.1 2.3-.9-.3-1.9-.2-2.9-.5-2-.7-.5-2.1-.7-3-.3-1 1 0 1.5.1 1.5 0 3-.2 4.2 1.1z" fill="#6b57a3"/><path d="M104 359.2c4.5-2.1 8.7-1.2 10.6 2.5-1.7-1-3.2-3.1-4.6-.5-.2.4-.8.2-1.1-.2-1.6-1.7-1.6-1.7-3.9-1.4-.3-.1-.5-.2-1-.4z" fill="#8d7eb8"/><path d="M174.8 369.8c1.8-4.6 1.8-4.6 6.6-2.9 1.8.6 3.9.9 5.2 2.7-1.6-.5-3.2-.9-4.6-1.5-3.1-1.5-5.7-1.7-6.7 2.5-.2-.3-.4-.5-.5-.8z" fill="#6955a1"/><path d="M193.2 119.3c-3.5 2.2-3.5 2.6-.1 5-1.4.9-2.4.5-3.3-.5-1.2-1.5-.8-3 0-4.4 1.1-.6 2.3-.9 3.4-.1z" fill="#9e916c"/><path d="M179.4 253.3c0 1.9 3.2.3 2.6 2-.4.9 0 3.3-1.5 2.9-.8-.2-3.4-.2-2.8-1.7.4-1-.4-2.9 1.7-3.2z" fill="#8a779e"/><path class="st210" d="M121.1 264.1v-.7c.5.1.9.6.7.9-2.5 4.8-.9 9.8-1.3 14.8-.1.9 0 1.8-.7 2.5 0-2.2-.1-4.5-.1-6.7-1.9-4.2-1.3-8.5 1.4-10.8z"/><path d="M199.4 369.7l.7.7c1 2.9 1 5.9 0 8.8-.4 0-.9.1-1.3.1.2-3.1-.8-6.4.6-9.6z" fill="#8a79b5"/><path d="M195.2 318c-.6 2 2.2 3.6.5 5.7-.3 0-.4-.2-.5-.4.1-2.4-2.9-1.9-3.4-3.7 1.2-.5 1.6-2.5 3.4-1.6z" fill="#afa2b9"/><path class="st126" d="M76.6 344.3c-2.4-2.2-4.9.5-7.4-.1-.2-.6 0-1.5.4-1.3 2.3 1.4 4.1-3.5 6.3-.4.5.5.5 1.2.7 1.8z"/><path class="st213" d="M199.3 122.8c.2-1.2.1-2.4-.6-3.4.7 0 1.4-.1 2.1-.1.1 1.8-.7 3.9 2.6 4.9-2.5.7-4 1.2-4.1-1.4z"/><path d="M56.3 347.2c1.5-.1 1.7 1.5 1.9 2 .5 1.4-1.4 1.4-2.1 1.8-1.1.6-1.4-1.3-1.7-1.9-.7-1.6 2-.5 1.9-1.9z" fill="#7d6998"/><path d="M212.1 115.8c-3.1.3-6.3.9-9.4-.2 3.2-.7 6.3-.8 9.4.2z" fill="#a0a0a0"/><path class="st112" d="M122.5 123.2c-.8-1-1.6-3.5-2.7-.2-2-2.7 1.2-2.6 2-3.7h2.1c-.5 1.3-1 2.6-1.4 3.9z"/><path d="M203.5 124.6c0-1.8 0-3.5-.1-5.3 1.1-.3 1.6.3 1.4 1.3-.2 1.6.4 2.7 2 3.4-1.1 1.3-2.2.7-3.3.6z" fill="#8d8d8c"/><path d="M115.8 373.8c1.7-4 2.4-7.8-.7-11.5 3.6 1.5 4 7.3.7 11.5z" fill="#6a55a1"/><path d="M90 297c-1.9-.5-2.5-2.6-4-3.6.7-.6 1.6-.9 2-2 1.5 1.6 1.5 3.7 2 5.6z" fill="#523a92"/><path class="st188" d="M208.2 372.6l.7-.7c1.5 2.4.4 5 .6 7.5-.4 0-.9-.1-1.3-.1-.9-2.2-.9-4.5 0-6.7z"/><path d="M71.8 292.3c.1.2 0 .4-.1.6-4 1.4-4.6 1.1-4.7-2.9l.6-.6h.3c1.6 1.8 2.3 2.4 3.9 2.9z" fill="#8979b5"/><path d="M223.3 320.4c.4-.2.8-.4 1.3-.6 1.5.5 2.9.9 4.9 1.5-1.9.8-2.9 2.3-4.7 2.4.6-1.5-1.1-2.1-1.5-3.3z" fill="#a093c3"/><path d="M174.8 369.8c.2.2.4.5.6.7-.3 1.3-.7 2.6-1.9 3.9-.6-2.2.3-4.4-.8-6.3 1.6 0 1.5 1 1.5 1.9 0 .1.2.2.2.2l.4-.4z" fill="#574196"/><path class="st131" d="M198.9 322.1c1.5 1.1 4.7 1.9.6 3.8-.1-.1-.3-.2-.4-.3-1.1-.8-1.3-1.8-.6-3 .1-.2.3-.3.4-.5z"/><path class="st165" d="M233.2 346.2c-.1 2.1 2.8 4.9-1.4 6-.1-.1-.2-.2-.3-.4.4-1.8-.6-3.9 1.4-5.2.1-.2.2-.3.3-.4z"/><path d="M154.8 119.3c0 1.7.3 3.5-.6 5.8-1.4-2.3-.7-4.1-.8-5.8h1.4z" fill="#938761"/><path d="M103.5 261.3c.2-.2.4-.5.6-.7 1.4 2.1 2.1 4.2 0 6.3-.1-.4-.1-.7-.2-1.1-1.1-1.4-.6-3-.4-4.5z" fill="#7664a9"/><path d="M219.9 327.3c.7-.3 1.6.2 2.1-.7 1.7.4 3.5.5 5.4 2-2.9-.4-5.3-.4-7.5-1.3z" fill="#9c8fc1"/><path class="st119" d="M77.9 121.3c-.3.6-.6 1.1-.9 1.7-.5-1-1-2-1.5-2.9.8-.3 1.6-.6 2.3-.9l.2.2c.5.6.5 1.2-.1 1.9z"/><path d="M77.2 389.6c2 .2 2.9-2.3 5-2.1-.8 1.5-2.4 2-3.6 3-.9.7-1.5.3-1.4-.9z" fill="#5e479a"/><path d="M134.3 272.9c-.1.6.1 1.1.6 1.5-.3.7-.5 1.4-1 2.7-.9-2.3 0-4.3-.9-6.1 1.8 0 1 1.2 1.3 1.9z" fill="#3d2386"/><path d="M98.8 364.6c.8 2.8-.2 5.2.9 7.2-1.6-2-1.3-4.2-.9-7.2z" fill="#725ea6"/><path class="st182" d="M73.8 384.5c1.6 1.4 2.9 3 3.5 5.2-1.9-1.3-3.1-3-3.5-5.2z"/><path class="st174" d="M80.6 303.9c1 .4 2.7-.1 2.2 1.9-3 1.9-2.4-.2-2.2-1.9z"/><path class="st228" d="M182.5 72.6c-1.7 0-2.6.1-3.5 0-2.7-.2-6.5 1.3-7.8-.7-1.8-2.7-.5-6.6-.6-10 0-1.4.9-1.6 2.1-1.6h18.5c1.4 0 2.2.5 2.1 2v.7c-.1 3.1 1.3 7.3-.6 8.9-2.9 2.2-7.3.3-10.2.7z"/><path d="M210 72.6c-4 0-8-.1-12 0-2 .1-2.8-.5-2.9-2.7-.3-9.6-.4-9.6 9.2-9.6 5.8 0 11.7.1 17.5 0 2.1 0 3 .5 3 2.8.2 9.5.3 9.5-9.1 9.5H210z" fill="#afafaf"/><path d="M145.8 70.5c-.3.8-.7 1.3-1.6 1.3-.4-1.5-1.5-2.7-2.9-3.2-3.5-1.3-2.8-4.2-2.6-6.8.2-2.2 1.8-3.5 4.1-4 .9-.2 1-1.1 1.6-1.7.8.2 1.2.7 1.4 1.5-.6 1.3.6 2.4.3 3.7.1 1.8.1 3.7 0 5.5 0 1.3-1.1 2.4-.3 3.7z" fill="#efefe8"/><path d="M144.4 56.2c-.1 2.5-.1 2.5-2.3 2.4-.2 0-.5.2-.8.3 1.5 2.1-2.6 1.8-1.7 4.1.4 1.1 1.1 5.3 2.7 5.5 2.6.2 2.1 1.8 1.9 3.3-5-1.6-7.3-4.4-7-8.3.3-4 2.8-6.5 7.2-7.3z" fill="#312c29"/><path d="M145.8 70.5c-1.5-.9-.7-2.2-.7-3.4 2.8-3.2 2.8-3.2.2-6.4-.1-1.1-.9-2.2.5-3.1 0 .1 0 .3.1.3 4.7 2.4 5.5 3.4 4.6 8.1-.2 1.2-1.1 3.6-3.5 3-1.6-.2-.8 1.1-1.2 1.5z" fill="#f9f017"/><path class="st233" d="M52.7 63.8c-1.2-.5-4 1-4-1.1 0-1.9 2.8-.7 4.3-.9 1-.2 2-.1 3 0 .7 0 1.8-.3 1.7 1-.1.9-.9 1.2-1.7 1.2-1-.2-2-.2-3.3-.2zM53.5 56.7c1.5.8 4.1-.8 4.2 1.1.1 2.1-2.5 1.2-3.9 1.1-1.7-.1-4.9 1.2-4.9-1-.1-2.3 3.1-.1 4.6-1.2z"/><path class="st234" d="M48.6 59.9h9.1v.7h-9.2c.1-.2.1-.4.1-.7zM48.6 64.6c3.1-.3 6.1-.4 9.2.9h-9.2v-.9z"/><path d="M164.2 67.8c-1-.5-1.8-2.6-1.1-3.4 1.2-1.4 2 .2 3 .6.4 1.8-.9 2.2-1.9 2.8z" fill="#25d1d6"/><path d="M164.2 67.8c.6-.9 1.3-1.8 1.9-2.7.6.2 1.6.5 1.2 1.2-.7 1-1.7 1.8-3.1 1.5z" fill="#e7a576"/><path class="st237" d="M148 138.1c0 5.6-4.9 10.4-10.5 10.5-5.8.1-10.7-4.8-10.7-10.6s4.9-10.7 10.7-10.6c5.8 0 10.6 4.8 10.5 10.7z"/><path d="M109.3 148c0-5.7.2-11.3 0-17-.1-2.7.6-4 3.5-3.7 1.6.2 3.2 0 4.7 0 6.9 3.2 7.9 6.4 3.7 12.5-.8 1.2-.3 1.8.2 2.7.6 1 1.3 1.9 1.8 2.9.4.9 2.1 2 .8 2.8-1.2.7-3.1.9-4.2-.9-.8-1.2-1.6-2.5-2.4-3.7-.7-1.2-1.6-2.3-3.2-1.9-1.9.5-1 2-1.1 3.1-.1 4.3-.1 4.3-3.8 3.2z" fill="#343434"/><path d="M195.5 127.3c1.6-.1 3.2.4 4.7 1 .9.4 1.6.9 1.1 2.1-.5 1-1 1.8-2.3 1.1-1-.5-2.1-.8-3.3-.8-1.2 0-2.4.1-2.8 1.4-.5 1.5.6 2.3 1.7 2.9 1 .5 2.1 1 3.1 1.4 2.8 1.3 4.3 3.4 3.9 6.5-.3 3.2-2.5 4.7-5.4 5.4-2.3.5-4.5-.1-6.7-.9-.9-.3-2.1-.7-1.4-2.2.5-1.2 1.2-1.9 2.6-1.1 1.2.7 2.5 1 3.9.9 1.2-.1 2.3-.5 2.6-1.8.4-1.3-.4-2.2-1.4-2.8-1-.6-2.1-1-3.1-1.5-3.5-1.7-4.9-4.2-4.1-7.4.8-2.6 3.2-4.2 6.9-4.2z" fill="#373635"/><path class="st237" d="M92.5 128.8c3.1-1.4 6.2-2.1 9.5-.8 1.1.4 2.2.8 2.1 2.3-.6 1.7-1.3 2.5-3.5 1.6-2.7-1.2-5.4-.5-7.2 2.1-1.7 2.5-1.7 5.2-.1 7.7 1.6 2.6 4.1 3.1 6.9 2.6 1.6-.3 3.5-2.1 4.2 1 .6 2.7-2.2 2-3.2 3-5.4 1-9.4-.9-12.2-5.6-3.6-4.3-1.7-11.8 3.5-13.9z"/><path d="M170.8 138c0-2.9.1-5.7 0-8.6 0-1.7.7-2.2 2.3-2.2 1.6 0 1.8.9 1.8 2.2 0 4.1.1 8.2-.1 12.3-.1 2.1.7 2.9 2.8 2.7 1.7-.1 3.4 0 5.1 0 1.4 0 2.1.4 2.1 1.9s-.4 2.3-2.1 2.3c-3.3-.1-6.6-.1-9.9 0-1.5 0-2-.7-2-2.1V138z" fill="#49463e"/><path d="M152.5 138.4c0-3.4.1-6.3 0-9.1 0-1.4.5-2 2-2 1.6 0 1.9.7 1.9 2.1 0 3.6.3 7.3-.1 10.9-.4 3.7 1.1 4.7 4.4 4.2 1-.1 2 0 3.1 0 1.5-.1 2.6.1 2.6 2.1-.1 1.8-1 2.1-2.4 2h-.3c-3.5-.2-8 1.4-10.3-.6-2.4-2.1-.5-6.7-.9-9.6z" fill="#333"/><path class="st242" d="M177.2 193.4c-.4.2-.9.5-1.3.7-.1-.1-.3-.2-.4-.4-2-3.5-5.5-1.8-8.1-1.8-19.6.1-39.2-.8-58.9-.4-1 0-2.1 0-3-.6-1.1-1.6.8-1.1 1.1-1.7.4 0 .9-.1 1.3-.1 21.7 0 43.5.1 65.2 0 3.6.1 5 .9 4.1 4.3z"/><path d="M117.6 168.7c-1.6 3.9-3.1 7.8-4.7 11.7-.4 1-.8 2.5-2.3 1.9-1.7-.7-.2-1.9.1-2.8 1.1-3.1 2.2-6.2 3.6-9.2.9-2 .1-2.2-1.7-2.4-1.4-.1-4.1.9-4.1-.8 0-2.2 2.7-.8 4.2-1.1 1.4-.3 2.9-.1 4.4-.2 2.3.6.3 2 .5 2.9z" fill="#393e3b"/><path class="st244" d="M195.3 178.3c0 1.2 1.5 2.9-.3 3.6-2.2.9-4.7.8-6.9.1-1.8-.6-1-2.5-.9-3.9 2.7-1.1 5.4-1.3 8.1.2z"/><path class="st244" d="M187.2 177.1c.6-1 .8-1.8.2-3-1-1.9.2-3.5 1.6-4.7 1.2-1 2.8-.9 4.2-.2 1.7 1 2.5 2.6 2.1 4.6-.2 1.1-1.4 2.1.1 3.2-2.8 1.4-5.5 1.2-8.2.1z"/><path d="M139.8 177.9c.9-3.4 3.1-3.5 4.6-4.3.9-.5 1.6.5 1.6 1.6 0 1.2-.6 2.2-1.8 1.8-1.4-.6-2.6-.7-4.4.9z" fill="#a09267"/><path d="M136.1 175.6c-.1 1.5-1.2 1.5-2.2 1.4-1.2-.1-1.9-.9-1.6-2.1.2-1.2 1.2-1.5 2.3-1.5 1.5.1 1.6 1 1.5 2.2z" fill="#a19368"/><path class="st247" d="M154.4 173.4c.6 0 1.2.5 1.2 1.8 0 1.1-.4 1.7-1.5 1.8-1.2.1-2-.3-2.1-1.6-.1-1.2.4-2 2.4-2z"/><path class="st248" d="M164.4 175.1c-.1 1-.6 1.7-1.7 1.8-1.3.1-1.8-.7-1.9-1.9 0-.9.4-1.5 1.3-1.6 1.3 0 2 .6 2.3 1.7z"/><path d="M187.2 177.1c2.7.1 5.4.4 8.1-.2v1.5c-2.7-.1-5.4-.1-8.1-.2v-1.1z" fill="#1c7ab4"/><path class="st242" d="M129.1 176.7c-1.4-.4-.7-1.6-1.5-2.1-.3.7-.6 1.4-.8 2-1-.1-.8-.8-.8-1.3-.1-1.2.3-2 1.7-1.9 2 .3 1.7 1.8 1.4 3.3z"/><path d="M181 171.4c-.1 2 4.1 2.2 2.4 4.9-1-.3 0-1.8-1-1.8s-.4 1.4-1.4 1.8v-4.9z" fill="#857a5a"/><path class="st248" d="M179.3 176.6c-1.3.1-1-.8-1.1-1.3-.1-.9-.4-1.8.2-2.6.1-.2.7-.2.8-.1.9.8.5 1.8.2 2.8 0 .4 0 .8-.1 1.2z"/><path d="M174.7 176.2c-1.3-.7-3 .8-3.4-1.5-.1-.3-.3-.7.5-.7 1.4 0 2.7-.1 2.9 2.2z" fill="#8e825e"/><path d="M167.8 176.5c-1.1-.6-.2-2-1.3-2s-.4 1.4-1.3 2c0-1.2-.9-2.6.9-2.9 2.4-.4 1.6 1.5 1.7 2.9z" fill="#7c7356"/><path class="st213" d="M150 176.9c-2.7.1-3.6-.6-3.4-1.9.2-1.1 1-1.8 2.6-1.2-1.8.9-2.4 1.9.8 3.1z"/><path class="st248" d="M176.4 173.1c1.3 1.7 1 2.6.4 4-1.1-1.3-.7-2.3-.4-4z"/><path class="st247" d="M150.6 177.2c-.8-1.5-.8-2.4-.2-3.6 1.3 1 1 2 .2 3.6z"/><path d="M132.1 283.9c.5 0 1 0 1.4.1.6 3.5 3.2 2.7 5.5 2.7 1.7 0 2.9 0 2.2 2.4-.4 1.4.3 3.3 1.9 3.5 1.9.3 1.9-1.5 2-2.9.1-2.2 1.2-2.4 3-1.7 17.2 7 23.7 25.6 11.2 41.2-4.2 5.2-8.7 10.2-13.1 15.2-3.6 4.1-4.1 9.5-5.1 14.6-.7 3.1-1.3 6.2-2.2 9.3-.6 2.1-1.8 3.9-4.4 4.1-2.9.3-4-1.4-5.1-3.6-2.1-4.1-2.7-8.7-4.5-12.9-.9-2.2-2-3.1-4.2-2.8-1.6-.5-2-1.6-1.8-3.1 1.2-.9.1-2.7 1.3-3.5 2.9-1.2 6.2.7 9-1.1 2 1 4.4 1 6.5 1.7 1.2.4 2.2-.2 2.8-1.4.7-1.5 1.4-3.1 2.1-5.4-3.1 1.4-5.2 3.2-7.6 4.5-1.1.6-2.3 1.8-3.7.5-.7-1.3 0-2.4.2-3.6 1.8-9.2 5.8-17.7 8.1-26.8.7-2.9 1-5.9 1.1-8.8.1-6.8-7.2-11-13.5-8-3.3 1.6-5.5 4.3-7.8 7-2.9 3.5-4.6 3.4-7.4-.4-.1-.6-.1-1.1.3-1.6.2-.3.4-.6.5-.9 1.9-4.6 5.4-8 8.6-11.6 3.8-2.6 8.1-4.9 12.7-6.7z" fill="#e7c675"/><path d="M118.9 349.8c.5 1.1 1.1 2.2 1.6 3.4 3.2 7.3 5.4 14.8 4.7 22.9-.2 2.2.8 4 1.5 5.9 0 1.9-.4 3.9.7 5.7-.1.6-.1 1.3-.2 1.9.1.9.1 1.8.2 2.7-.5.6-.5 1.3-.2 2 0 .5 0 1 .1 1.5-.3.6-.5 1.2-.1 1.9.1.7.1 1.4.2 2.2-.2.8-.3 1.6.6 2.1 5.6 5.3 12.2 6.7 19.6 5.5.9-.1 1.8-.1 2.5.7-.1 1.3-1.1 1.7-2.1 1.9-5 1.1-9.9 1.4-14.9 0-5.6-1.6-8.2-5-8.5-11-.1-1.7-.1-3.4 0-5.1.3-8.6-1.4-17-2.3-25.4-.9-8.5-5.4-15.9-10.1-22.9-3.9-5.8-6.6-12-7.2-19-.6-6.3-.4-12.7 1.9-18.8.3-.9.4-2.5 2.2-1.6.3.5.4 1.1.4 1.7-2.6 13.1-1.1 25.4 7 36.4 1.2 1.6 2.3 3.3 2.4 5.4z" fill="#7a7a77"/><path d="M77.3 148.8c-1.3.1-2.4-.1-3.5-.9-.9-.7-3-.4-2.1-2.6.9-2.2 2.3-.9 3.6-.6 1.8 1 3.3.1 4-1.3.9-1.7-1.3-2.3-2-3.5-1-.7-2.1-1.3-3.1-2.1-3.2-2.4-2.9-8.3 1.7-10.3 2.5-.1 5-.5 7.4.6 1.2.5 1.9 1.2 1.2 2.6-.6 1.4-1.5 1.1-2.5.6l-.6-.3c-1.9-.3-4.2-1.2-5.2 1-1 2.4 1.6 2.9 3.1 3.6 1.7.8 3.3 1.5 4.7 2.8.6.2.9.6.8 1.3.9 6.1-.9 8.1-7.5 9.1z" fill="#343535"/><path d="M85.5 179c-.8-2.5-1.1-5.1-.5-7.8.7-3.1 2.7-5 5.9-5.3 3-.3 5.6 1.7 6.7 4.8.7 2.2.3 4.5.3 6.8-3.5 6.2-8 6.7-12.4 1.5z" fill="#3d3d39"/><path d="M84.9 139.8c-.3-.4-.5-.9-.8-1.3-.1-7.1 2.6-10.1 8.4-9.7-4.6 3.8-5.3 8.5-3.6 13.9-1.9-.1-2.6-2-4-2.9z" fill="#f7df93"/><path d="M101.2 168.2c-.3-.3-.5-.6-.8-.9.5-2 2.1-1.4 3.3-1.3 1.3.2 1 1.4 1 2.2v11.9c0 1 .3 2.3-1.4 2.2-1.3-.1-1.1-1.2-1.1-2.1 0-3.1.1-6.1 0-9.2-.1-.9.5-2.3-1-2.8z" fill="#3e4743"/><path d="M106.8 189.3l-1.4 1.4c-2 2.3-5.3 1.8-7.7 3.3-.2 0-.3.1-.5.1-.5-.3-.9-.6-1.4-.9-.7-3.1.5-4.4 3.7-4 2.5.3 4.9.1 7.3.1z" fill="#668e7c"/><path d="M106.8 120c.2 1.2-.5 2.6.8 3.5-2.1 2.9-4.8-.3-7.1.6-.3.1-1.1-.4-1.8.1-1.3 1.1-2.6.5-3.1-.8-.6-1.4-1.7-3.3.9-4.2.9.7.5 1.8 1 2.9-.1-3 1.6-3.3 3.7-2.8 1.2 1.1 2.4 1.1 3.6 0 .6.3 1.3.5 2 .7z" fill="#5e8373"/><path d="M77.9 121.3c0-.6.1-1.3.1-1.9 1.9-.3 1.2 1.7 2 2.5 1-.9 1-2.8 2.8-2.5.2.8.3 1.5.6 2.3.7 2 .7 1.8-1.3 2.2-1.6.3-3.1 1.1-4.7 1.7-.1-.2-.1-.4-.1-.6.6-1.2.8-2.4.6-3.7z" fill="#5e8273"/><path d="M90.4 119.4c.9-.1 1.7-.1 2.6-.2 1.9 1.3-.9 3.7 1.6 4.8-5.2 1.4-4.2-2-4.2-4.6z" fill="#59796b"/><path d="M83.4 119.3c1.5 0 3.1.1 4.6.1-.7 1.6-1.5 3.3-2.4 5.3-.8-2-1.5-3.7-2.2-5.4z" fill="#567568"/><path d="M108.8 306.6c-1.9.6-1.6 2.5-2 3.8-3.2 12.5-1.2 24.1 6 34.8 5.4 8 10.1 16.5 10.7 26.3.4 7.6 2.4 15 1.8 22.7-1.2 15.2 7.8 16.6 19 15.8 1.9-.1 4.2 0 5.6-1.9 1.1-1.7 2.6-2.7 4.7-2.2-1 2.6-3.2 3.9-5.6 4.6-5.4 1.6-11 1.8-16.5.1-6.2-1.9-8.9-5.4-8.6-11.8.4-10.8-1.8-21.2-2.9-31.8-.5-4.7-2.4-9.1-4.9-13-5.4-8.8-11-17.5-12.8-27.9.1-2 2.4-3.7.5-5.9 0-5.9 1.3-11.6 4-16.8h2.1v1.3c-.1.7.6 2-1.1 1.9z" fill="#a8a8a8"/><path d="M154.7 405.9c-1.6.7-3.1 1.4-4.7 2.2-5.2.8-10.3 1.3-15.4-.6-2.9-1.1-5.3-2.5-6.6-5.5h29.5c-.7 1.6-1.5 2.9-2.8 3.9z" fill="#756315"/><path class="st266" d="M176 194.2c0 6.8-.1 13.7-.1 20.5 0 2-.4 2.6-2.7 2.6-24-.1-48 0-72 .2-2.9 0-4-.6-3.9-3.8.2-6.5 0-13 0-19.5h.2c1.4-1.3 3.2-1.1 4.9-1.1 23-.2 46 .1 68.9.2 1.5 0 3.2-.3 4.6.9h.1z"/><path d="M77.2 139.9c2.1.3 4.2 1.1 3.4 3.5-.9 2.6-3.3 2.2-5.4 1.2 3.7-.3 1.4-3.1 2-4.7z" fill="#77b19b"/><path d="M73.8 174.8c.8-.9.4-1.7.2-2.7-.5-2.5.4-4.1 3.3-3.9 1.9 2.7 1 5.4.1 8.1l-.1.2c-1.2-.6-2.4-1.1-3.5-1.7z" fill="#f8f8f8"/><path class="st170" d="M187.7 392.3c2.8-1.7 4.4-.7 4.7 2.9 0 1.1.1 2.1 1.3 2.7.4 3.8.2 4-4.5 4.2-.8.7-1.2 2.3-2.8 1.3-2.3.5-4.5 1-6.8 1.3-1 .1-2.5.6-2.8-1.1-.2-1.3 1.1-1.5 2-2 .6-.4 1.7.1 2-1 1.3-.3 2.3-1.2 3.6-1.5l-.2-.2c-.4-.3-1.1-.1-1.2.3-.3 1.1-1.5.9-2.2 1.5-2 0-1.4-1.5-1.2-2.8-1.8 1-1.5 3.3-3.3 3.8-.8.2-1.9.8-2.3-.5-.3-.9.2-1.6 1.1-1.8 1-.2 1.4-.8 1.3-1.7 0-.4-.7-.9-.8-.7-.5 3.7-2.3-.4-3.3.7-.3.8 1.1.6 1 1.4-.1.8 0 1.7-.9 2-.9.3-1-.7-1.4-1.2-1.9-2.2-.1-4.2.9-5.8.8-1.3 2.4-.2 4 1-1.7-3.3-.7-5 2.7-5.4-.5.7-.8 1.2-1.3 2 2.3-.3 2.8-3.1 5.7-2.5-1.7 1.6-3.1 3-4.3 4.1.4-.8 1.5 3.5 2.5-.2.3-1 2.2-4.4 5.6-3.1 1.9.7 1.2 1.4.9 2.3-.5.5-1.2.6-1.7 1.1 1.6 1.2 1.3-.5 1.7-1.1z"/><path d="M186.5 403.3c1.2.1 1.5-1.6 2.8-1.3.4.7 1.2.5 1.8.6.7.1 1.4 0 1.5 1 .1.8-.5 1.2-1.1 1.6-3 2-3 2-3.3 6.8-.7-3.6-2.3-5.9-1.7-8.7z" fill="#f0eff6"/><path class="st270" d="M193.8 397.9c-.8-.1-1.8 1-2.4 0-.7-1.2.2-2 1.1-2.7 2.1 0 1 1.7 1.3 2.7z"/><path class="st115" d="M110.9 119.3v3.8c-1.4-1.2-1.6-2.5-2.2-3.7.7 0 1.4-.1 2.2-.1zM104.8 119.4c-.5.8-1.1 1.6-1.6 2.4-1.2-.5-1.4-1.6-2-2.4h3.6z"/><path class="st271" d="M90.3 334.8c-4.1-.4-4.1-.4-2.8-4.3.9-2.5 2.2-5 2.6-7.6.7-3.8 2.7-5.2 6.3-4.6 5.2 1.7 5.3 1.7 3.4 7-.9 2.5-2 4.9-2.6 7.4-.7 3.2-2.3 3.7-5 2.6-.6-.3-1.3-.4-1.9-.5z"/><path class="st272" d="M223.3 320.4c.7 1.1 2.1.3 3.1 1.1-.6.8-1.1 1.6-1.6 2.3-.9-.3-1.5-1.4-2.9-.3-2.8 2.2-6.2 1.7-9.4.8-1.7-.5-1.8-1.9-2.1-3.2-.3-1.5-.8-2.8-2.8-2.9 5.6-1 10.5 2.2 15.7 2.2z"/><path class="st111" d="M204.8 326.6c.8-1.6 2.1-1.8 3.7-1.7 1.3.1 1.9.9 1.9 2 0 1.6-1.3 1-2 .8-1.2-.2-2.9.7-3.6-1.1z"/><path d="M207.6 323.7c-.6-.1-1.6.3-1.4-1.1.2-1.1.7-2 1.8-2.2 1.3-.2 1.1 1.1 1.3 1.9.4 1.4-.6 1.5-1.7 1.4z" fill="#e9e7f1"/><path class="st274" d="M81.4 382.5c-.8.5-1.5 1.1-2.3 1.4-1 .4-2.1 2.5-3.2.1-.8-1.6-2.2-3.3.7-4.3 1.2-1.1 2.1-2.9 4.2-1.7l-.1-.1c.9 1.4 2.7 2.7.7 4.6z"/><path d="M71.3 378.4c2.5-1.7 4.5-3.2 6.8-4.8-.6 3.1-3.1 4.9-6.8 4.8z" fill="#5c4599"/><path class="st157" d="M84.5 383.2c-1.5 2.4-3.6 3.8-6.4 4.4 2.1-1.5 4.2-3 6.4-4.4z"/><path d="M81.4 382.5c.9-1.7-.3-3-.7-4.5 1.3 1.3 4.4 2.3.7 4.5z" fill="#5d479a"/><path d="M80.7 378c-1.8-.4-2.7 1.4-4.2 1.7.2-2 2-2.2 3.3-3 .6-.4 1.1.5.9 1.3z" fill="#543c94"/><path d="M157.5 254.9c-1.4 3-1.8 3.1-4.1 1-1.2-1.1-1.2.8-2 .7-.4-.3-.5-.8-.4-1.3.3-.9.9-1.7 1.9-2 .4-.6 1.9 1.6 1.7-.7 0-.4 1.1-1.4 1.8-.3.4.7 2.8.2 1.2 2.1-.1.2-.1.4-.1.5z" fill="#e3dfed"/><path d="M151.4 255.1v1.6c-.9 1.2-2.5.6-3.5 1.4-.3-.1-.7-.2-1-.3 2.1-1.8-.5-3-.6-4.5 0-.2.1-.4.2-.6 2.2 1.5 2.5-1.8 4.1-1.7-.1 1.5 1.4 2.6.8 4.1z" fill="#e6e3ef"/><path class="st280" d="M157.5 254.9v-.5c1-.2 2-.2 2.6 1 .7 1.3-.3 1.6-1.2 2.2-.8.5-1 1.5-.2 2.3.4.4 1.9-.4 1.4 1.1-.3.8-1.3.6-2.1.5-2.4-.1-4.7-.2-7.1-.2-.4-2.3 1.2-.8 1.7-.7 3.2.5 6.1-2 6-5.3-.2-.2-.8-.3-1.1-.4z"/><path d="M153.5 261.9c2.1.3 3.6-.7 4.5.9.1.1-.2.7-.4.8-1.5.9-2.4-.1-4.1-1.7z" fill="#f5f4f9"/><path class="st133" d="M151.4 255.1c-.6-1.3-1.4-2.5-.8-4 .8.7 1.8 1.3 2.2 2.3 0 1-.3 1.6-1.4 1.7z"/><path class="st282" d="M195.3 323.3c.2.1.3.3.5.4 1.2 1.6 1.1 3.4-.4 4.5-1.2.9-2.8 1.3-4.3-.2-1.4-1.3-1.3-2.7-.4-3.9 1-1.7 2.7-2 4.6-.8z"/><path class="st280" d="M188 322.6c.3-.7.5-1.5 1.5-1.5.4 0 1 0 .8.7-.2.8-.8 1.4-1.6 1.6-.4.2-.7-.3-.7-.8z"/><path d="M196.1 330.4c.1-1.2.8-1.7 1.9-2.2-.2 1.9-.2 1.9-1.9 2.2z" fill="#efecf4"/><path d="M188.8 329c-1.1-.5-1.5-1.5-1.5-2.6 0-.1.7-.5.8-.4.7.8 1.2 1.7.7 3z" fill="#e8e5f0"/><path class="st270" d="M198.5 322.6l.6 3c-1.5.2-1.5-1-1.7-1.9-.1-.7.1-1.3 1.1-1.1z"/><path class="st285" d="M196 347.3c-.1 2.9-1.6 4.2-3.9 4.2-2.4 0-3.9-1.4-3.8-3.9.1-2.4 1.5-3.9 3.9-3.9 2.4.1 3.7 1.6 3.8 3.6zM94.2 395.1c.1-1.4 1-1.6 2.2-1.3 5.9 1.6 11.7 3.2 17.6 4.7.9.2 1 .7 1 1.4-1.5 2.7-1.9 5.8-2.6 8.7-.6 2.8-1.6 3.4-4.1 2.3-1-.5-2.1-.6-3.2-.9.8-1.2 1.4-2.4 1.1-3.9-.3-.7.1-1.2.6-1.5 1.2-.1 2.1.9 3.3.9.9.1 1.3-.5 1.4-1.3 1.3-3.2-.5-4.5-3.3-5.1-1.2-.4-2.4-.9-3.6-1-1.3-.2-2.5-.6-3.7-1-2-.5-4.4-2.1-5.3 1.5-.1.6-.3 1.1-.4 1.7-.1.7.2 1.2.9 1.5.4.1.8.2 1.2.4.6.2 1.1.3 1.7.5.4.1.8.4 1.1.8-1.5 1-2.3 2.4-2.1 4.2-.3.1-.5.2-.7.2-5.7-1.6-5.7-1.6-4.1-7.5.2-1.8.6-3.6 1-5.3z"/><path class="st210" d="M99.9 403.4c-.4 0-.9-.1-1.3-.1-1.3-2.8.6-3.4 2.8-3.8.4-.1-.1-.3-.2-.2-.8.7-1.6.5-2.2-.4.1-1.1-.9-3 1.6-2.4l3.9.9c.5.8-.4 1.4-.2 2.1 1.2-.7 2.5-1 3.9-1 5.2 1.3 5.2 1.3 4 6.3-.8.4-1.5.8-2 1.6-1.3 0-2.5-.5-3.5-1.3-1-1.1-2.4 1.1-3.4-.4.1-.2.3-.4.4-.6.1-.3 0-.6 0-.9-1.1 1.8-2.7-1.9-3.8.2z"/><path class="st286" d="M103.7 406.1c.8.1 1.7.3 1.5 1.4-.1.7-.5 1.4-1.4 1.1-.6-.2-1.8-.2-1.6-1.4.1-.7.6-1.2 1.5-1.1zM103.3 404.5c.5.1 1.4.4 1.5-.2.1-.9-.4-1.9 1.1-1.6 1.2.2.8 1.4.9 2.2l-.6 1.2c-.9-.9-2.4-.3-2.9-1.6z"/><path d="M77.4 176.3c0-2.7-.1-5.4-.1-8.1 3.6 1.6 3.6 4 .1 8.1z" fill="#ecd591"/><path class="st266" d="M96.4 292.7c2.7-.4 5.2-.1 7.4 1.7-1 2.8-.6 4.7 2.9 4.7 1.4 1.4-.4 2.2-.6 3.4-1.7 0-3.4.2-5.1.1-1.9-.2-5 1.1-5.6-.7-.8-2.6-.7-5.8.1-8.6.1-.4.6-.5.9-.6z"/><path class="st272" d="M185.4 280c-.6-1.3-1.9-1.3-3.2-1.5.8-1.3 2.2-.2 2.8-1.3 1-2.3 0-5.8-2.1-6.8-.9-.4-.6-1.1-.3-1.2 2.4-1.1 3.6-5.1 7.3-2.9-1 4.9-1.9 9.9-.8 15 1.9.9 1.8 3 2.2 4.5.3 1.3-1.7.8-2.6.9-1.2.1-2.9.4-3-1.7 0-.8.2-1.5.3-2.3-.6-.8-.8-1.7-.6-2.7z"/><path class="st272" d="M196.4 269.8c1.9 3 2.8 6.1.1 9.2-3.4.2-4.1 2.5-4.3 5.5-1-1.5-1-3.6-3.1-4 0-1 .1-1.8 1.5-1.6.8.1 1.6-.1 2.3-.3 1-.4 2-1.2 1.5-2.3-.6-1.3-1.6-.3-2.3.1-1.4.7-1.8 0-2.4-1-.4-.7-.6-.8.3-.9 2.9-.1 1.9-2 2-3.5-1.5-.5-.8 1.5-2 1.1-.1-1.3-.2-2.8.6-4.1.6-1 1.5-1.4 2.6-.6 1.1.7 2.1 1.5 3.2 2.4z"/><path class="st127" d="M184.9 276.3c-1.7 0-3.2 2.1-4.8 1.1-3.1-1.8-3.1-2.6-.3-7.7 1.4-.2 1.5-.1 1 .6-.7.9-.7 2.2.3 1.8 3.6-1.5 2.7 1.4 3.3 2.9.2.5.3.9.5 1.3z"/><path class="st171" d="M85 297c-.4.9-.7 1.2-.8 1.6-.4 1.2-1.4 1-2.3.8-.4-.1-.9-.9-.9-1.3.1-.8.7-1.1 1.5-1.5 2.4-1.3 4.1-.4 5.3 1.6 1 1.8.6 3.7-1.4 4.6-2 .9-3.9.6-4.9-2 1.6-.8 5.4 1 3.5-3.8z"/><path class="st288" d="M181.6 285.4c-1.4-2.6-4-4.5-3.8-7.8 3.2 1.5 4.8 4.8 3.8 7.8-.1 0 0 0 0 0z"/><path class="st289" d="M185.4 280c1.1.8 1.1 1.7.5 2.8-1.2.5-1.4 1.7-1.9 3.2-.8-2.2-1.9-4-1.4-5.8.2-.9 1.8 0 2.8-.2z"/><path d="M196.9 279.5c1.5-.6 1.2.4.9 1.1-.7 1.8-2.1 3.2-3.4 4.5-1.8-1.2-.8-2.6.1-3.7.5-.8 1.5-1.3 2.4-1.9z" fill="#f3f2f7"/><path class="st289" d="M86.3 362.9c-1.3.1-1.9-1-2-2.3-.1-.9.7-1.1 1.4-1 1.5.1 2.2 1.1 2.4 2.4.1 1-.8.9-1.8.9z"/><path class="st285" d="M89.6 351.9c.9 0 1.8 0 2.6.2.9.3 1.2 1.2 1.4 2.1.1.7-.2 1.1-.9 1.1-.9.1-1.9.1-2.3-.9-.3-.8-.5-1.7-.8-2.5z"/><path class="st170" d="M95.7 351.5c-1.9 0-2.9-.7-3.1-2.1-.1-.9.6-1.2 1.3-1.2 1.2.1 2.3.3 2.5 1.8.2.9-.2 1.4-.7 1.5z"/><path d="M90.9 357.9c0 .8-.2 1.4-1.1 1.2-1.3-.2-2.5-.5-2.7-2-.2-1.3.8-1.1 1.6-1.1 1.2-.1 2.1.4 2.2 1.9z" fill="#faf9fb"/><path class="st271" d="M211.4 305.8c-3.4.6-6.5 2.1-9.6 3.2-2 .7-3.2.8-3.9-1.7-.6-2.1-1.1-4.4-2.5-6.2.7-2.3 1.8-2.9 3.3-1.6.8.7 1.4.4 2.1.2 1-.3 1.9-.8 2.9-1 1.9-.4 4.5-2.7 5.5-1.3 1.5 2.3 3.3 5.2 2.2 8.4z"/><path class="st124" d="M157.8 377.4c-.1 1-.9 1.3-1.6 1.4-.6.2-.7-.4-.7-.9-.1-1 .5-1.5 1.3-1.7.8 0 .8.7 1 1.2z"/><path class="st111" d="M90 317.6c.8 2.9-1.3 5.1-1.9 7.7-.6 2.7-1.7 5.3-2.7 8-3.3-.6-5.8-3-8.9-4-1.1-.4-.5-1.3-.5-2.1.8-2.1 1.6-4.2 2.4-6.2.6-1.6 1.1-3.2 1.7-4.8 1.4-3.8 1.5-3.9 5.1-1.8 1.7.9 3.2 2.1 4.8 3.2z"/><path class="st158" d="M72.5 353.9c-3.2-.8-4.5-2.9-3.7-5.5.9-2.7 3.7-4.1 6.2-3.3 2.9 1 3.7 3.4 2.3 6.8-.1-.1-.3-.2-.4-.3-.5-.7-.5-1.5-.6-2.2-.3-1.3-1.1-2.2-2.4-2.5-1.1-.2-2 .2-2.6 1.1-.8 1.3-.8 2.5.2 3.7.4.5.9 1 1.2 1.6-.2.3-.2.5-.2.6z"/><path class="st158" d="M77.3 351.9c-1 2.2-2.4 3.3-4.9 2 1.2-1.4 2.8-2.1 4.7-2.2l.2.2z"/><path d="M205.4 396c1.1.8 2.8.7 3.2 2.1.3.8-.8 1.2-1.6 1.2-1.5.1-2.2-.8-2.5-2.2 0-.5.2-1 .9-1.1z" fill="#f7f7fa"/><path d="M121.1 264.1c-2.4 3.4-.9 7.2-1.4 10.8-2.4.5-3.8-.2-3.3-2.9.4-2.3-.8-4.7 1.4-7 1.4-1.4 2.2-.7 3.3-.9z" fill="#e1dde9"/><path d="M119.2 277.9c-.2 1.1.4 2.5-1.2 2.5-1.3 0-1-1.3-1-2.2 0-.9-.5-2.4 1.1-2.4 1.4.1.8 1.4 1.1 2.1z" fill="#cfc19f"/><path d="M115.8 395.8c-.2 1-.2 2-1.9 1.5-5.9-1.7-11.9-3.3-17.9-4.8-.9-.2-1-.7-1-1.5 1.5-2.9 1.9-6 2.7-9.1.6-2.4 1.4-2.5 3.5-1.9 4.9 1.5 9.8 2.9 14.8 4 2.4.5 2.5 1.5 1.9 3.6-.9 2.7-1.4 5.5-2.1 8.2z" fill="#f9f8fb"/><path class="st282" d="M200.1 379.3v-8.8c.6 0 1.2 0 1.2.7v7.4c0 .8-.6.9-1.2.7z"/><path d="M208.2 372.6c0 2.2 0 4.5.1 6.7-1.8-1.3-1.9-5.2-.1-6.7z" fill="#f1f0f6"/><path class="st282" d="M205 377.3c-.2.7.3 1.9-.7 2-1.4.1-.9-1.3-.9-2s-.4-1.9.6-2c1.5-.1.8 1.3 1 2z"/><path d="M180.8 305.2c-.7-.1-1.4 0-2-.3-1.1-.5-1.7-1.5-1.2-2.7.5-1.1 1.5-1.3 2.5-1.1 1.2.3 1.5 1.2 1.3 2.3 0 .7-.4 1.3-.6 1.8 0 .1 0 0 0 0z" fill="#f9f9fb"/><path class="st170" d="M185.7 306c1.2.3 2 1 1.9 2.4-.1 1.2-1 1.8-2.1 1.7-1.5 0-2-1-1.9-2.3.1-1.2.9-1.7 2.1-1.8z"/><path class="st285" d="M71.8 292.3c-2.3.4-3.8-.4-4.1-2.9.2-1.3-.8-3.8 2.2-2 .4.2 1.1 0 1.7 0 2.2-.1 4.4-.4 4.3 2.9-.1 3.3-2.8 1.3-4.1 2z"/><path class="st180" d="M232.9 346.5c-1.2 1.6.5 3.9-1.4 5.2-1.4 1.9-3.1 1.4-4.9.7-2.4-.9-2.9-3.5-2.6-5.1.5-2.5 4.7-3 7.2-1.3.5.4 1.1.4 1.7.5z"/><path d="M111.6 288.8c-.6-.2-1.3-.3-1.9-.6-.7-.3-1-1-.7-1.7.3-.7.8-1.1 1.6-1 .9.1 1.5.6 1.5 1.5 0 .6-.4 1.2-.5 1.8-.1 0 0 0 0 0z" fill="#efedf5"/><path class="st274" d="M103.5 261.3c.7 1.4.8 2.9.4 4.5-.6.3-1 1.2-1.7.8-.5-.3-.3-1-.2-1.5.1-1.1 1.1-2.1.3-3.4-1.5 1-.6 3.1-2.1 4.1-1.1-2.6.9-4.5 1.3-6.8 1.2.4 1.4 1.5 2 2.3z"/><path class="st288" d="M59.4 366.4c1.1-.9 1.2-2.8 3.4-2.6 1 3.7-3.5 3.6-4 6.2-1.3-1.8 1.1-2.3.6-3.6 0-.1 0 0 0 0z"/><path class="st180" d="M134.1 262c-1.8 1.3-3.7 2.9-4.8-.7 1.7-.3 3.6-2 4.8.7z"/><path class="st272" d="M181.8 381.8c-.7-1-1.4-.1-2.1.1-1 .2-1.8-.2-2.1-1.2-.6-1.8 3.1-6 5.2-6 .5.8.5 3.1 2.2.8.6-.8 1.4-1.1 2.4-.6.9.4 1.2 1.2 1.2 2.2 0 1.1-.7 1.7-1.6 1.8-1 .2-1.6.3-1.9 1.5-.5 1.8-1.9 1.8-3.3 1.4z"/><path class="st285" d="M100.8 292.1c-1 0-1.5-.6-1.5-1.5-.1-.9.4-1.6 1.3-1.6 1-.1 1.5.6 1.6 1.4 0 .9-.5 1.5-1.4 1.7z"/><path d="M181.5 71.3c-1.5 0-3 .1-4.5 0-1.8-.2-4.7 1.1-5.3-.8-.9-2.3-.3-5.2-.2-7.8 0-1.1 1.1-1 1.8-1.1h16.5c.9 0 2.1-.1 1.9 1.3-.1 1-.3 2.2-2.2 1.3-1.4-.7-1.1 1-1.1 1.7s-.4 1.9 1.3 1.3c1.6-.6 1.9.9 2.1 2.1.1 1.2-.4 1.9-1.7 1.9-2.9.1-5.7.1-8.6.1z" fill="#fcfcfc"/><path class="st104" d="M220.6 67.7c.5 0 .9.1 1.4-.1 1.6-.5 2 .3 2.1 1.7.1 1.4-.5 2.1-2 2-8 0-16 .4-23.9-.2-4.5-.3-1.4-4.5-2.1-6.8-.5-1.5-.6-3.4 2.3-3.4 7.7.1 15.5 0 23.2.1.9 0 2.2-.4 2.4 1.1.2 1.9-1.4 1.3-2.4 1.6-.3.1-.7.1-1 .1-1.4 1.4-1.4 2.6 0 3.9z"/><path d="M220.6 67.7c-1.8.6-2-.5-2.1-1.9-.1-1.5.3-2.4 2.1-1.9v.4c.1 1-.1 2 0 3v.4z" fill="#979797"/><path class="st104" d="M220.6 67.3c-2.2-1-.7-2 0-3 1.1 1 1.2 2 0 3z"/><path d="M145.3 60.8c1.9.3 3.2 1.4 3.1 3.3-.1 1.9-1.3 3-3.3 3.1-.2-2.2-.2-4.3.2-6.4z" fill="#2f2a20"/><path d="M144 137.9c0 3.7-2.7 6.5-6.4 6.5s-6.8-3.1-6.7-6.7c.1-3.6 2.9-6.3 6.6-6.3 3.8.1 6.5 2.8 6.5 6.5z" fill="#fbe092"/><path d="M113.2 134.7c-.2-2.1.2-3.4 2.9-3.3 2.3.1 3.5 1 3.5 3.2-.1 2.4-1.7 3.1-4 3.1-2.5.1-2.7-1.2-2.4-3z" fill="#f0d78e"/><path d="M175.8 194.1c-8.1 0-16.1-.1-24.2-.1-18.1 0-36.1.1-54.2.1-.3-1.6 1-1.5 1.9-1.8 2-.6 4.1-1.1 6.1-1.7 11.5 0 23-.2 34.5.1 5.3.2 10.7.5 15.9.5 3.7 0 7.6.3 11.5-.4 1.9-.4 4-.2 6-.1 1.6.2 3.1 1.2 2.5 3.4z" fill="#f9e096"/><path d="M194.2 173.7c-.2 1.4-1.3 2.7-3.3 2.5-2.3-.2-3-2-2.8-4 .2-1.7 1.4-3.1 3.3-2.7 1.8.4 3.2 1.4 2.8 4.2z" fill="#4e91ae"/><path class="st306" d="M108.8 306.6c.4-.7.8-1.3 1.3-2 3.9 3.4 4 3.5 6.9-.5 1.8-2.4 3.8-4.5 6.3-6.1 4-2.7 8.2-2.2 11.9 0 3.8 2.3 4.4 6.1 4 10.7-.9 11.9-7.1 22.2-9.1 33.7-.2 1.1-.5 2.2-.7 3.3-2.8 3.4-6.5.6-9.6 1.4-1.7.8-2.4.4-2-1.5 1-1.6.9-3.2-.2-4.7-1-1.4-1.9-2.8-2.7-4.3-2.2-4.3-1.4-5.5 3.4-5.2 1.6.7 2.7.3 3.6-1.3 1.6-2.6 2.4-5.6 3.6-8.4.4-1 .5-2.2 1.6-2.9.4-.2.8-.1 1.3-.2-.4-.2-1.1.1-1.3-.5-.2-2.8.3-5.7 0-8.5-.3-3.2-2.1-4.1-4.9-2.5-2.2 1.2-3.7 3.8-6.8 3.2-.9-.2-1.2 1.2-1.6 2-.5 1.1-.6 2.5-2.1 2.9-2.1-.6-1.9-2.7-2.6-4.1 0-1-.8-1.9-.2-3-.1-.5-.1-1-.1-1.5z"/><path d="M108.8 308.1c.3.9.5 1.8.8 2.7.5.6.2 1.3.4 2 1 4.2-.1 8.6 2.7 12.6 1.4 2 1.7 4.7.6 7.5-.7 1.8.9 3.9 1.7 5.7 1.1 2.4 3.3 4.4 3.5 7.2-.8 1.6.5 1.3 1.3 1.4l.6 1.5c.2.5.9.9.4 1.4-.6.6-1.2-.2-1.8-.2-4.6-7-9.8-13.8-11-22.4-.9-6.5-1.7-13.1.8-19.4z" fill="#ddaf53"/><path class="st306" d="M129.4 345.7c3.8-1.4 6.7-4.2 10.3-5.9.6-.3 1-1.1 1.7-.4.5.5.1 1.1-.1 1.6-.4.8-.7 1.7-1 2.5-2.1 5.7-5.9 6.5-10.9 2.2z"/><path d="M95.7 174.3c0 1.3-.1 2.5-.7 3.7-.8 1.6-2.1 2.3-3.9 2.3-1.8 0-3-.8-3.6-2.6-.6-1.9-.8-3.8-.3-5.7.6-2.3 1.5-4.1 4.3-4 2.8.1 3.5 2.1 4.1 4.3.1.6.1 1.3.1 2z" fill="#f8df92"/><path class="st309" d="M169 205.5c-1.2.5-.8 2.7-2.3 2.2-1.6-.6-.6-2.4-1-3.7-.6-1.7-.3-3.8 1.2-4.8 1.9-1.3 3.9.5 5.8.9.8.2-.2.9-.1 1.4.3 1.6-2.5 3.4.2 4.9.1 0-.2.9-.5 1.2-.5.5-1.1.3-1.5-.1-.7-.6-1.2-1.3-1.8-2z"/><path class="st198" d="M120.2 207.6c-1.9.6-2.3-.5-2.9-1.3-.7-.8-1.4-1.4-1.7.3-.1.8-.4 1.4-1.3 1.1-.7-.2-.6-.9-.6-1.4 0-1.4-.1-2.7 0-4.1.1-1.1-.6-2.5.9-3 1.4-.5 2.9-.3 4.2.7 1.2.9 1.5 2.2.9 3.4-.9 1.5-.6 2.8.5 4.3z"/><path class="st195" d="M136.9 199.9c-1.3 1.1-2.4.3-3.4.7-1.3.6-1.9 1.5-2 2.9-.1 1.3.5 2.2 1.7 2.7.6.3 1.4.4 1.9-.1s.1-1-.3-1.4c-.6-.6-.8-1.2.2-1.5.7-.2 1.8-.4 2.2.4.6 1.5 1.1 3.3-.9 4.1-2.1.8-4.4.5-5.9-1.4s-1.2-4 .3-5.6c1.7-1.8 3.7-2.6 6.2-.8z"/><path d="M163.7 204.1c-.7.2-1 .4-1.5.5-.9.2-2.5-.3-2.2 1.2.2 1.1 1.5.7 2.3.5.7-.2 1.5-.3 1.7.6.3 1.3-.9.9-1.5 1.1-3.6.9-4.8-.1-4.5-3.7 0-.6.1-1.1 0-1.7-.1-3.4 1.5-4.6 4.9-3.6.6.2 1.2.3 1 1.1-.1.7-.7.8-1.3.6-.3-.1-.7-.2-1-.2-.8-.1-1.6 0-1.8 1.1-.3 1.4.9 1 1.5 1.3.6.4 1.6-.1 2.4 1.2z" fill="#929292"/><path d="M127.9 199.5c-.9 1.9-4-.3-3.9 2.4.1 2 2.5.4 3.3 1.8-.3 1.8-3.4-.1-3.1 1.9.3 1.8 2.8 0 3.9 1.7-2 .9-3.9 1-5.7.1-.7-.3-.7-7.6-.1-8 1.7-.9 3.6-.8 5.6.1z" fill="#949494"/><path d="M149.1 200.1c-.5.9-1 .8-1.6.6-.8-.3-1.7-.5-2 .5-.2.8.8 1 1.3 1.4 3.1 2.3 3.1 3.4-.1 5.6-.8.6-.8.6-3.2-1.5.4-.5 1-.3 1.5-.3.6 0 1.5.3 1.8-.6.3-.8-.5-1.2-1.1-1.5-1.8-.9-3.4-2.1-1.8-4.2 1.5-1.8 3.4-1.4 5.2 0z" fill="#919090"/><path class="st309" d="M150 199.6c2.2-1 4-.8 6.5-.2-3 1.7-2.4 4.1-2.4 6.4 0 .8.2 2.1-1.1 2-1-.1-.8-1.2-.9-1.9-.2-2.2 1-4.8-2.1-6.3zM103.9 207c1.2-1.9 4.1-2.7 3.6-4.8-.4-1.6-2.4-2.8-3.9-4.4 2.2.1 6.7 3.4 6.6 4.8-.1 1.2-4.4 4.3-6.3 4.4z"/><path d="M141.5 203.5c-.8 1.5.8 4.2-1.4 4.1-1.9 0-.9-2.7-.9-4.1 0-1.5-.8-4.2 1-4.1 2.3.1.1 2.9 1.3 4.1z" fill="#a4a4a4"/><path d="M188.1 395.5c-.1 5.9-.1 5.9-5.3 7.1-1.3.3-2.5.6-3.9.6 3.5-1.9 8.9-1.5 9.2-7.7z" fill="#6b57a2"/><path d="M187.7 392.3c-.2 2.1 1.5.3 2.2 1.2-1.9 2.1-4.1.3-6.1.6 1.2-.8 1.9-2.8 3.9-1.8z" fill="#7b69ac"/><path class="st121" d="M180.9 400.6c2.5-1 1.3-2.8.5-4.3 1.9-.3 2.2 4.2 4.9 1.3-1.6 1.7-3 3.2-5.4 3-.1-.1 0 0 0 0z"/><path d="M193.1 323.7c1.3.1 2.1.8 2.1 2.1s-.8 2.1-2.2 2.1c-1.2 0-1.9-.7-2-1.9 0-1.4.7-2.2 2.1-2.3z" fill="#584196"/><path d="M191.9 345.6c1.6.4 1.4 2.3 2.3 3.3l-.8.8c-1.1-.9-2.4-1.7-3.3-2.8-.3-.4.7-1.2 1.8-1.3z" fill="#9280a8"/><path class="st318" d="M100.6 396.4c-1.6 0 .1 2.1-1.4 2.1-.1 0-.3.1-.4.1-1.4.3-2.8 2.4-4.2.1.9-4.3 1.1-4.4 6-2.3z"/><path class="st319" d="M108.2 398.4c-.9 1.6-3.7.6-4.1 2.9 0 .1-.6.1-.9 0-.5-.1-.8-.7-.4-1 1-.8.3-2.5 1.8-3 1.2.1 2.5.3 3.6 1.1z"/><path class="st318" d="M99.2 398.5c.1.2.3.3.4.5.6 1.4 2.1-1.7 2.3.4.3 2.2-1.3.7-2.1.9-1 .3-.9 1.9-1.3 3-.6.1-1.1-.1-1.4-.6-.4-1.9-.8-3.9 2.1-4.2z"/><path d="M99.3 398.6c-2.4.5-1.7 2.6-2.1 4.2-.4 0-.8-.1-1.3-.1-.4-.8-.9-1.5-1.7-2 .1-.7.2-1.3.3-2 1 .2 2 1.8 2.7-.6.4-1.3 1.4.2 2.1.5z" fill="#351981"/><path class="st319" d="M94.2 400.6c.8.1 1.2-1.4 2-.5.9.9-.3 1.6-.4 2.5-1-.2-2.6 0-1.6-2z"/><path d="M110.2 406.3c.1-.7-1.4-1.1-.4-2 .9-.8 1.6.4 2.4.4-.2 1.1-.2 2.5-2 1.6z" fill="#a99ec9"/><path class="st286" d="M109.5 402c-.1.7-.7.9-1 .7-.9-.8-2.6 0-3.1-1.3-.3-.7.8-1 1-.6.7 1.3 2.6-.4 3.1 1.2z"/><path class="st266" d="M77.1 351.8c-1.3 1.4-2.9 1.9-4.7 2.2-.5-.4-1-.8-1.5-1.3-1.5-1.4-1.8-3.1-.8-4.9.8-1.4 2.2-2.3 4-1.9 2.1.6 3.4 1.8 3.2 4.1-.1.6-.2 1.2-.2 1.8z"/><path d="M116.5 385.4c.4 1.4-1.3 9.8-2.1 10.4-.7.5-1.3.2-1.9 0l-14.1-3.6c-1.2-.3-2-.7-1.4-2.3 1-2.8 1.6-5.6 2.4-8.5 1.7.1 3.2.9 4.8 1.5.7.3 1.1.9.3 1.6-.6.3-1.3.4-1.9.3-.7 0-1.8-1.4-2 .6-.5.9-1.5 1.9.1 2.8.4.3.6.7.6 1.2.3.6-2.3 1.8.6 2 2.6.2 5 1.2 7.6 1.8 3.8.9 4.1.8 4.9-3.2.2-.8.2-1.6.4-2.3.5-.8.4-2.1 1.7-2.3z" fill="#6a56a2"/><path class="st323" d="M116.5 385.4c-.5.7-.9 1.3-1.4 2-4.1.4-8-.2-11.2-3.1-.8-2.1-3.7-1-4.6-3 .2-.5.5-.8 1-.6 5.4 1.6 10.8 3.1 16.2 4.7z"/><path class="st288" d="M229.6 347.1c1.1.7 1.7 1.5.8 2.7-.9 1.3-2 1.8-3.4.7-.9-3.1-.5-3.6 2.6-3.4z"/><path d="M229.6 347.1c-2.5-.1-3.2 1.2-2.6 3.5-2-.7-1.1-2.2-.6-3.2.8-1.3 2-1.7 3.2-.3z" fill="#563f95"/><path class="st228" d="M186.1 63.7c-1.6 1.6-1.5 1.5-.2 2.3.2.1.4.5.5.8 0 .9-.6 1.3-1.3 1.1-1.4-.4-2.7-.3-4.2 0-1.3.3-2.1-.8-2-2.1.1-1.3 1.2-2.6 2.1-1.8 1.8 1.4 3-.3 5.1-.3z"/><path class="st325" d="M203.2 65.9c-.6.3.9 1.9-1.1 1.7-1.6-.2-1.4-1.1-1.4-2.1s.1-2 1.4-1.7c1.1.2 1.5 1 1.1 2.1zM206.9 67.1c-.8.9-1.9 1.3-2.6.2-.6-.9-.6-2.2 0-3.3.2-.3 1.2-.5 1.5-.3 1.3.7-.6.5-.4 1.3.3 1-.7 2.5 1.5 2.1z"/><path d="M206.9 67.2c.5-.2-1-2.3 1-1 .2.1.3.3.4.5.6 1 2.1-2.4 1.8.2-.2 2.1-2 .6-3.2.3 0-.1 0 0 0 0z" fill="#b7b7b7"/><path d="M111.6 314.8c1-1 1-2.5 1.5-3.7.7-1.6 1.4-3.4 3.6-1.8.8.6 1.2 0 1.7-.5.8-.7 1.4-1.5 2.2-2.1 1.7-1.2 3.5-2.4 5.6-1.3 1.8 1 1.7 3 1.7 4.9-.1 2.6.2 5.2-.7 7.7-4.8 1.3-5.7.5-6.5-5.9.8 5.5.1 6.4-5.4 6.4-.7.2.2-1.3-1.2-.9-2.3.9-3 0-2.5-2.8z" fill="#f6f4aa"/><path d="M111.6 314.8c0 2.1.6 3.2 3 2.3 1-.4.4.6.3 1-1.6 1.2 1.5.2.6 1.1.9 4.3 2.4 8.4 2.9 12.7-4.7 0-4.8.2-2.6 4.4.8 1.6 1.8 3.1 2.9 4.5 1.4 1.8 1.6 3.3-.3 4.8-2.4-3.1-4.6-6.5-5.8-10.3-.5-1.5-2.1-3.1.4-4.6.8-.5-1.5-6.9-2.6-7.5-1.1-.6-.8-1.5-.9-2.3v-10.2c.7 1.4 1.4 2.8 2.1 4.1z" fill="#ecd176"/><path d="M118.4 332c-2.3-4-3.1-8.4-3.5-12.9 4.6-1.2 4.7-1.2 6.2 1.6 1.3-3.3 3.7-2.6 6.3-1.7-1.6 4.1-2.6 8.3-4.9 12.1-1.3 2-2.3 2.6-4.1.9z" fill="#f6f3a7"/><path d="M127.3 319c-4.5 0-4.5 0-6.4 6.1 0-4.3-1.1-7.3-6-6-.5-.1-1.1-.2-2.6-.4 1.5-.3 2-.4 2.6-.4 5.1-.5 5.1-.5 5.8-6 .6-.2 1 .2.9.6-.7 4.6 2.2 5.3 5.7 5.4.5.1 1 .2 2.2.5-1.2 0-1.7.1-2.2.2z" fill="#fdfdf6"/><path d="M170.4 201.8c-.4.7-.3 1.8-1.4 1.9-.9.1-1.1-.6-1.1-1.3 0-.8.3-1.6 1.2-1.7.7-.3 1.1.3 1.3 1.1z" fill="#ebebeb"/><path d="M118.1 202.3c-.2 1.1-.9 1.5-1.9 1.4-1.1-.1-1.1-1-1-1.8 0-.9.4-1.6 1.4-1.5 1.1.1 1.4 1 1.5 1.9z" fill="#e1e1e1"/><path class="st289" d="M193.2 327.1c-1-.2-1.4-.7-1.3-1.5.1-.6.5-1 1.2-1 .8 0 1.3.5 1.3 1.3s-.7 1-1.2 1.2z"/><path class="st266" d="M103.8 384.3c3.7 1 7.5 2 11.2 3.1.9 2.4-.8 4.5-1.1 6.8-.1.6-.7.9-1.3.8-5-1.3-9.9-2.6-15.1-4 .8-1.7 3.2.6 3.1-1.9.3-1.7-.8-3.8 1.3-5 .7 0 1.3.1 1.9.2z"/><path class="st323" d="M102 384c0 1.8-.4 3.4-1.3 5-.2-.3-.5-.5-.7-.8-1.1-1 .1-2.2-.2-3.3 0-1.8.8-2 2.2-.9z"/><path class="st266" d="M99.8 385c1.3 1 .2 2.2.2 3.3-.7.9-1.3.9-1.4-.3-.1-1.2.1-2.3 1.2-3z"/></g></svg>