<?xml version="1.0" encoding="utf-8"?>
<!-- Generator: Adobe Illustrator 22.0.1, SVG Export Plug-In . SVG Version: 6.00 Build 0)  -->
<svg version="1.1" id="Layer_1" xmlns="http://www.w3.org/2000/svg" xmlns:xlink="http://www.w3.org/1999/xlink" x="0px" y="0px"
	 viewBox="0 0 576.1 486.2" style="enable-background:new 0 0 576.1 486.2;" xml:space="preserve">
<style type="text/css">
	.st0{fill:#818284;}
	.st1{fill:#010101;}
	.st2{fill:#FFFFFF;}
	.st3{fill:#535353;}
	.st4{fill:none;stroke:#FFFFFF;stroke-width:0.8237;stroke-linecap:round;stroke-linejoin:round;stroke-miterlimit:10;}
	.st5{opacity:0.1;fill:#F5FDFF;}
	.st6{fill:#F4F4F4;}
	.st7{fill:#F9F9F9;}
	.st8{fill:#151616;}
	.st9{fill:none;}
	.st10{fill:url(#SVGID_1_);}
	.st11{fill:#3A4D57;}
	.st12{fill:#C6C6C6;}
	.st13{fill:#FE5A3E;}
	.st14{fill:#3F95E9;}
	.st15{fill:#75797C;}
	.st16{fill:#D6D612;}
	.st17{fill:#040404;}
</style>
<g>
	<g>
		<path class="st0" d="M131.4,437.9V290.1c0-17.1,13.8-30.9,30.9-30.9h356.3c17.1,0,30.9,13.8,30.9,30.9v147.8
			c0,17.1-13.8,30.9-30.9,30.9H162.3C145.2,468.9,131.4,455,131.4,437.9z"/>
		<path class="st1" d="M134.6,436.8V291.7c0-17.1,13.8-30.9,30.9-30.9h350.9c17.1,0,30.9,13.8,30.9,30.9v145.1
			c0,17.1-13.8,30.9-30.9,30.9H165.5C148.4,467.7,134.6,453.9,134.6,436.8z"/>
		
			<rect x="243.8" y="191" transform="matrix(-1.836970e-16 1 -1 -1.836970e-16 706.0343 22.9054)" class="st2" width="195.5" height="346.9"/>
		<path class="st3" d="M527.3,384v-41.3c0-0.8,0.6-1.4,1.4-1.4l0,0c0.8,0,1.4,0.6,1.4,1.4V384c0,0.8-0.6,1.4-1.4,1.4l0,0
			C528,385.5,527.3,384.8,527.3,384z"/>
	</g>
	<rect x="155.1" y="298" class="st2" width="1.1" height="7.8"/>
	
		<rect x="149.5" y="361.6" transform="matrix(-1.836970e-16 1 -1 -1.836970e-16 517.2269 212.1128)" class="st4" width="6.1" height="6.1"/>
	<path class="st4" d="M156,422.7l-2.8-2.8c-0.4-0.4-1.1-0.4-1.5,0l-2.8,2.8"/>
	<path class="st5" d="M548.4,385.4L164.4,263l354.2-2.7c16-0.1,29,12.7,29.3,28.6C548.4,325.9,549.1,385.4,548.4,385.4z"/>
</g>
<path class="st6" d="M248.8,429.3H38.2v27.5c0,9,7.3,16.3,16.3,16.3h177.9c9,0,16.3-7.3,16.3-16.3V429.3z"/>
<rect x="38.9" y="57.3" class="st7" width="210.6" height="374.3"/>
<rect x="38.9" y="11.6" class="st6" width="210.6" height="46"/>
<path class="st8" d="M258.5,120.6v32.1c0,0.7-0.6,1.3-1.3,1.3H256v-34.7h1.2C257.9,119.3,258.5,119.8,258.5,120.6z M256,154v294.2
	c0,15.6-12.6,28.2-28.2,28.2H60.6c-15.6,0-28.2-12.6-28.2-28.2V38.1C32.4,22.5,45,9.9,60.6,9.9h26.7v7.4H61.2
	c-12.3,0-22.4,10-22.4,22.4v406.9c0,12.4,10,22.4,22.4,22.4h165.9c12.4,0,22.3-10,22.3-22.4V39.7c0-12.4-10-22.4-22.3-22.4H201V9.9
	h26.7c15.6,0,28.2,12.6,28.2,28.2V154H256z"/>
<path class="st9" d="M249.5,39.7v406.9c0,12.4-10,22.4-22.3,22.4h-166c-12.3,0-22.4-10-22.4-22.4V39.7c0-12.4,10-22.4,22.4-22.4
	h26.1v7.6c0,6.3,5.1,11.3,11.3,11.3h91.1c6.2,0,11.3-5.1,11.3-11.3v-7.6h26.1C239.5,17.3,249.5,27.3,249.5,39.7z"/>
<path class="st8" d="M201.1,17.3v7.6c0,6.3-5.1,11.3-11.3,11.3H98.6c-6.2,0-11.3-5.1-11.3-11.3v-15h113.8
	C201.1,9.9,201.1,17.3,201.1,17.3z M172.7,25.4c0-1.4-1.1-2.5-2.5-2.5s-2.5,1.1-2.5,2.5s1.1,2.5,2.5,2.5
	C171.6,27.8,172.7,26.7,172.7,25.4z M160.5,25.4c0-1.2-1-2.2-2.2-2.2h-28.2c-1.2,0-2.2,1-2.2,2.2s1,2.2,2.2,2.2h28.2
	C159.5,27.6,160.5,26.6,160.5,25.4z"/>
<linearGradient id="SVGID_1_" gradientUnits="userSpaceOnUse" x1="21.6817" y1="32.707" x2="266.7055" y2="457.1004" gradientTransform="matrix(1 0 0 -1 0 488)">
	<stop  offset="0" style="stop-color:#BFC1BF"/>
	<stop  offset="3.900000e-02" style="stop-color:#BDBFBD"/>
	<stop  offset="6.100000e-02" style="stop-color:#B5B6B5"/>
	<stop  offset="7.900000e-02" style="stop-color:#A7A8A7"/>
	<stop  offset="9.500000e-02" style="stop-color:#939593"/>
	<stop  offset="0.109" style="stop-color:#7A7B7A"/>
	<stop  offset="0.123" style="stop-color:#5B5B5B"/>
	<stop  offset="0.135" style="stop-color:#353635"/>
	<stop  offset="0.146" style="stop-color:#0C0C0C"/>
	<stop  offset="0.149" style="stop-color:#000000"/>
	<stop  offset="0.205" style="stop-color:#020202"/>
	<stop  offset="0.226" style="stop-color:#090909"/>
	<stop  offset="0.241" style="stop-color:#141514"/>
	<stop  offset="0.253" style="stop-color:#252625"/>
	<stop  offset="0.263" style="stop-color:#3B3C3B"/>
	<stop  offset="0.272" style="stop-color:#565756"/>
	<stop  offset="0.28" style="stop-color:#767776"/>
	<stop  offset="0.287" style="stop-color:#9A9C9A"/>
	<stop  offset="0.293" style="stop-color:#BFC1BF"/>
	<stop  offset="0.549" style="stop-color:#000000"/>
	<stop  offset="0.607" style="stop-color:#020202"/>
	<stop  offset="0.627" style="stop-color:#090909"/>
	<stop  offset="0.643" style="stop-color:#141514"/>
	<stop  offset="0.655" style="stop-color:#252625"/>
	<stop  offset="0.665" style="stop-color:#3B3C3B"/>
	<stop  offset="0.674" style="stop-color:#565756"/>
	<stop  offset="0.683" style="stop-color:#767776"/>
	<stop  offset="0.69" style="stop-color:#9A9C9A"/>
	<stop  offset="0.697" style="stop-color:#BFC1BF"/>
	<stop  offset="0.875" style="stop-color:#000000"/>
	<stop  offset="0.892" style="stop-color:#040404"/>
	<stop  offset="0.911" style="stop-color:#101010"/>
	<stop  offset="0.929" style="stop-color:#242424"/>
	<stop  offset="0.947" style="stop-color:#404140"/>
	<stop  offset="0.965" style="stop-color:#646564"/>
	<stop  offset="0.983" style="stop-color:#909190"/>
	<stop  offset="1" style="stop-color:#BFC1BF"/>
</linearGradient>
<path class="st10" d="M225.7,474.6h-163c-15.8,0-28.6-13-28.6-29v-405c0-16,12.8-29,28.6-29h163c15.8,0,28.6,13,28.6,29v404.9
	C254.3,461.6,241.5,474.6,225.7,474.6z M62.7,13.9c-14.6,0-26.4,12-26.4,26.8v404.9c0,14.8,11.8,26.8,26.4,26.8h163
	c14.6,0,26.4-12,26.4-26.8v-405c0-14.8-11.8-26.8-26.4-26.8h-163L62.7,13.9z"/>
<path class="st11" d="M170.2,22.9c1.4,0,2.5,1.1,2.5,2.5s-1.1,2.5-2.5,2.5s-2.5-1.1-2.5-2.5S168.8,22.9,170.2,22.9z M158.3,23.2
	c1.2,0,2.2,1,2.2,2.2s-1,2.2-2.2,2.2h-28.2c-1.2,0-2.2-1-2.2-2.2s1-2.2,2.2-2.2H158.3z"/>
<path class="st8" d="M32.4,150.5v34.7h-1.2c-0.7,0-1.3-0.6-1.3-1.3v-32.1c0-0.7,0.6-1.3,1.3-1.3L32.4,150.5L32.4,150.5z M32.4,107.2
	v34.7h-1.2c-0.7,0-1.3-0.6-1.3-1.3v-32.1c0-0.7,0.6-1.3,1.3-1.3C31.2,107.2,32.4,107.2,32.4,107.2z M32.4,76.3v10.9h-1.2
	c-0.7,0-1.3-0.6-1.3-1.3v-8.3c0-0.7,0.6-1.3,1.3-1.3C31.2,76.3,32.4,76.3,32.4,76.3z"/>
<g>
	<path class="st12" d="M176.5,462.1h-64.6c-0.6,0-1.1-0.5-1.1-1.1s0.5-1.1,1.1-1.1h64.6c0.6,0,1.1,0.5,1.1,1.1
		S177.1,462.1,176.5,462.1z"/>
</g>
<g>
	<path class="st2" d="M219.5,30.3c-0.4,0-0.7,0.3-0.7,0.7c0,0.4,0.3,0.7,0.7,0.7s0.7-0.3,0.7-0.7C220.2,30.6,219.9,30.3,219.5,30.3z
		 M217.9,29.4l0.6,0.6c0.3-0.3,0.6-0.4,1-0.4s0.7,0.2,1,0.4l0.6-0.6c-0.4-0.4-1-0.7-1.6-0.7S218.3,28.9,217.9,29.4z M216.5,28
		l0.6,0.6c0.6-0.6,1.5-1,2.4-1s1.8,0.4,2.4,1l0.6-0.6c-0.8-0.8-1.8-1.3-3-1.3S217.3,27.2,216.5,28z M219.5,25
		c-1.7,0-3.2,0.7-4.3,1.8l0.6,0.6c0.9-0.9,2.2-1.5,3.6-1.5s2.7,0.6,3.6,1.5l0.6-0.6C222.7,25.6,221.2,25,219.5,25L219.5,25z
		 M212.3,25.9v5.5h0.9v-5.5H212.3z M210.6,31.5h0.9V27h-0.9V31.5z M209,31.5h0.9V28H209V31.5z M207.3,31.5h0.9V29h-0.9V31.5z
		 M205.6,31.5h0.9V30h-0.9V31.5z M226.6,27.5v2.8c0,0.4,0.3,0.7,0.7,0.7h6.6v-4.3h-6.6C226.9,26.7,226.6,27.1,226.6,27.5z
		 M236.8,28.2v-0.8c0-0.7-0.5-1.2-1.2-1.2h-8.4c-0.7,0-1.2,0.5-1.2,1.2v3c0,0.7,0.5,1.2,1.2,1.2h8.4c0.7,0,1.2-0.5,1.2-1.2v-0.8h0.5
		v-1.4C237.3,28.2,236.8,28.2,236.8,28.2z M236.6,30.4c0,0.5-0.4,1-1,1h-8.4c-0.5,0-1-0.4-1-1v-3c0-0.5,0.4-1,1-1h8.4
		c0.5,0,1,0.4,1,1V30.4z"/>
</g>
<g>
	<path class="st8" d="M250.5,54.1h6.5v3.2h-6.5V54.1z M33.4,54.1h6.5v3.2h-6.5V54.1z"/>
	<g>
		<path class="st8" d="M250.5,432.9h6.5v3.2h-6.5V432.9z M33.4,432.9h6.5v3.2h-6.5V432.9z"/>
	</g>
</g>
<image style="overflow:visible;" width="170" height="170" xlink:href="BA86911B.jpg"  transform="matrix(1 0 0 1 -7509 -7808)">
</image>
<g>
	<g>
		<path class="st13" d="M131.9,192.9c0.7-2.7,1.1-3,3.8-3H149c2.8,0,3.1,0.2,3.9,3c1.7,0,3.5,0.1,5.2,0c3.4-0.3,6.6,2.1,6.3,6.2
			c-0.2,3.5,0,7,0.3,10.7c1.5-1.6,3.1-3.1,4.6-4.8c0.9-1,1.6-1,2.4,0c0.8,1,1.8,1.9,2.7,2.7c1,0.8,1,1.4,0,2.3l-9.3,9
			c-0.6,0.6-0.9,1.2-0.9,2.1v17.6c0,3.1-2.2,5.4-5.4,5.4H125c-3.2,0-5.4-2.3-5.5-5.8c-0.1-1.6,0-3.2,0-4.8v-34.1
			c0-1.2,0.2-2.4,0.6-3.4c0.9-2,2.6-3,4.9-3C127.5,192.9,129.7,192.9,131.9,192.9z M161.5,222.8c-0.5,0.4-0.8,0.7-1,0.9
			c-2.8,2.7-5.6,5.5-8.4,8.2c-0.4,0.4-0.9,0.8-1.5,0.9c-1.5,0.3-3,0.6-4.5,0.6c-5.5,0.1-11,0-16.5,0c-1,0-1.4-0.4-1.4-1.4
			c0-1.4,0.3-1.8,1.8-1.8h14.7c0.8,0,1.3-0.1,1.4-1.1c0-1.3,0.6-2.2,1.6-3c0.3-0.2,0.7-0.4,1.1-0.6c-0.1-0.2-0.2-0.3-0.3-0.5H130
			c-1,0-1.7-0.3-1.7-1.4c0-1.5,0.2-1.7,1.8-1.7h20.8c0.6,0,1.4-0.2,1.8-0.7c2.8-2.7,5.6-5.4,8.4-8.2c0.3-0.3,0.5-0.8,0.5-1.1v-13.8
			c0-1.4-0.9-2.3-2.3-2.3c-1.4-0.1-2.9,0-4.3,0c-2.1,0-2.1,0-2.1,2.1c0,1.9-0.7,2.8-2.5,2.8c-5.2,0.1-10.4,0.1-15.7,0
			c-1.6,0-2.4-1-2.4-2.6v-1c0.2-1.1-0.4-1.4-1.4-1.4c-1.6,0.1-3.2,0-4.8,0c-2.4,0-3,0.7-3,3v38.8c0,2.8,0.6,3.3,3.4,3.3h33
			c1.4-0.1,2.3-1,2.3-2.4C161.5,233.5,161.5,228.3,161.5,222.8z M176.1,208.3c-1.7-1.7-3.3-3.3-4.9-4.8c0.9-1.5,2-2.2,3.2-1.9
			c1.7,0.5,3,1.8,3.5,3.3C178.5,206.5,177.2,207.4,176.1,208.3z"/>
		<path class="st13" d="M142.2,208.6h-12.1c-1.6,0-2-0.4-1.9-1.9c0-0.9,0.4-1.2,1.2-1.3h24.8c1.1,0,1.9,0.3,1.9,1.6
			c0,1.4-0.7,1.7-1.9,1.7C150.2,208.6,146.2,208.6,142.2,208.6z M142.1,216.8h-12.2c-1.1,0-1.7-0.2-1.7-1.5s0.5-1.7,1.7-1.7h24.4
			c1.2,0,1.8,0.4,1.8,1.6c0,1.4-0.7,1.6-1.8,1.5C150.2,216.8,146.2,216.8,142.1,216.8L142.1,216.8z"/>
	</g>
</g>
<g>
	<path class="st14" d="M89.8,260c0,1.1-0.6,1.8-1.7,2.1c1.3,0.2,2.1,1.1,2.1,2.3c0,1.5-1.2,2.5-3.3,2.5H83v-9.1h3.8
		C88.6,257.7,89.8,258.6,89.8,260z M88.7,260.2c0-0.9-0.7-1.5-1.9-1.5H84v3h2.7C88,261.7,88.7,261.1,88.7,260.2z M89.1,264.2
		c0-1-0.9-1.6-2.3-1.6H84v3.2h2.7C88.2,265.9,89.1,265.3,89.1,264.2z M104.6,263.7v3.2h-1v-3.1l-3.5-6h1.1l3,4.8l2.9-4.8h1.1
		L104.6,263.7z M124.4,257.7v1h-3v8.1h-1v-8.1h-3v-1H124.4z M141.1,257.7v1H136v3.1h4.6v0.9H136v3.2h5.3v1H135v-9.1h6.1V257.7z
		 M159.5,260.8c0,2-1.3,3.2-3.5,3.2h-2.4v2.9h-1v-9.1h3.4C158.2,257.7,159.5,258.9,159.5,260.8z M158.5,260.8c0-1.4-0.9-2.1-2.6-2.1
		h-2.3v4.3h2.3C157.5,263,158.5,262.3,158.5,260.8L158.5,260.8z M175.6,264.5h-5l-1,2.3h-1.1l4.1-9.1h1.1l4.1,9.1h-1.1L175.6,264.5z
		 M175.2,263.6l-2.1-4.7l-2,4.7H175.2z M196.6,262.3c0,2.6-2,4.6-4.7,4.6h-3.6v-9.1h3.7C194.6,257.7,196.6,259.7,196.6,262.3z
		 M195.6,262.3c0-2.1-1.6-3.6-3.7-3.6h-2.6v7.2h2.7C194,265.9,195.6,264.3,195.6,262.3z"/>
</g>
<g>
	<path class="st14" d="M297.5,358.7c-1.4,0-2.2,0.5-2.2,1.4c0,2.7,5.9,1.3,5.9,5.1c0,1.7-1.5,2.9-3.8,2.9c-1.5,0-3-0.7-4-1.6l0.5-1
		c1,0.9,2.3,1.5,3.5,1.5c1.5,0,2.5-0.6,2.5-1.6c0-2.8-5.9-1.3-5.9-5.1c0-1.7,1.5-2.7,3.6-2.7c1.2,0,2.5,0.4,3.3,1l-0.5,1.1
		C299.4,359,298.3,358.7,297.5,358.7L297.5,358.7z M315.6,358.6c-2.4,0-4.3,1.8-4.3,4.2c0,2.3,1.9,4.2,4.3,4.2
		c1.2,0,2.3-0.5,3.1-1.3l0.7,0.8c-1,1-2.4,1.6-3.9,1.6c-3,0-5.4-2.3-5.4-5.3c0-2.9,2.4-5.3,5.5-5.3c1.4,0,2.8,0.6,3.8,1.5l-0.7,0.9
		C317.9,359.1,316.7,358.6,315.6,358.6L315.6,358.6z M335.9,368.1l-2.2-3.4h-3.5v3.3H329v-10.5h4c2.6,0,4.1,1.3,4.1,3.5
		c0,1.7-0.9,2.9-2.4,3.4l2.5,3.6h-1.3L335.9,368.1z M333.1,363.6c1.9,0,3-0.9,3-2.5s-1.1-2.4-3-2.4h-2.8v4.9H333.1z M357.4,362.8
		c0,3-2.4,5.3-5.5,5.3s-5.5-2.3-5.5-5.3s2.4-5.3,5.5-5.3S357.4,359.9,357.4,362.8z M347.6,362.8c0,2.3,2,4.2,4.3,4.2
		s4.3-1.9,4.3-4.2s-1.9-4.2-4.3-4.2S347.6,360.5,347.6,362.8z M368.3,357.6v9.4h4.6v1.1h-5.8v-10.5H368.3L368.3,357.6z M383.6,357.6
		v9.4h4.6v1.1h-5.8v-10.5H383.6L383.6,357.6z M400.7,358.7c-1.3,0-2.2,0.5-2.2,1.4c0,2.7,5.9,1.3,5.9,5.1c0,1.7-1.5,2.9-3.8,2.9
		c-1.5,0-3-0.7-4-1.6l0.5-1c1,0.9,2.3,1.5,3.5,1.5c1.5,0,2.5-0.6,2.5-1.6c0-2.8-5.9-1.3-5.9-5.1c0-1.7,1.5-2.7,3.6-2.7
		c1.2,0,2.5,0.4,3.3,1l-0.5,1.1C402.6,359,401.5,358.7,400.7,358.7L400.7,358.7z"/>
</g>
<g>
	<path class="st14" d="M107.7,300.7c-0.8,0-1.3,0.3-1.3,0.8c0,1.6,3.4,0.7,3.4,2.9c0,1-0.9,1.6-2.2,1.6c-0.9,0-1.7-0.4-2.3-0.9
		l0.3-0.6c0.6,0.5,1.3,0.8,2,0.8c0.9,0,1.4-0.4,1.4-0.9c0-1.6-3.4-0.8-3.4-2.9c0-0.9,0.8-1.5,2.1-1.5c0.7,0,1.4,0.2,1.9,0.6
		l-0.3,0.6C108.8,300.8,108.2,300.7,107.7,300.7z M122.9,303c0,1.7-1.4,3-3.1,3c-1.8,0-3.1-1.3-3.1-3s1.4-3,3.1-3
		S122.9,301.3,122.9,303z M117.3,303c0,1.3,1.1,2.4,2.5,2.4s2.4-1.1,2.4-2.4s-1.1-2.4-2.4-2.4S117.3,301.7,117.3,303z M134,300v0.6
		h-3.1v2.2h2.8v0.6h-2.8v2.6h-0.7v-6L134,300L134,300z M144.8,300v0.6h-2v5.4h-0.7v-5.4h-2V300H144.8z M151.6,300l1.6,5.2l1.6-5.2
		h0.7l1.6,5.2l1.6-5.2h0.7l-2,6h-0.7l-1.6-5.1l-1.6,5.1h-0.7l-2-6H151.6L151.6,300z M169.9,304.5h-3.3l-0.7,1.5h-0.7l2.7-6h0.7
		l2.7,6h-0.7L169.9,304.5z M169.6,303.9l-1.4-3.1l-1.3,3.1H169.6z M182.2,306l-1.3-1.9h-2v1.9h-0.7v-6h2.3c1.5,0,2.4,0.7,2.4,2
		c0,1-0.5,1.7-1.4,1.9l1.4,2h-0.7V306z M180.5,303.5c1.1,0,1.7-0.5,1.7-1.4s-0.6-1.4-1.7-1.4h-1.6v2.8H180.5z M194.5,300v0.6h-3.4v2
		h3v0.6h-3v2.1h3.5v0.6h-4.2v-6L194.5,300L194.5,300z M106.6,312v6H106v-6H106.6z M114.1,312l3.6,4.9V312h0.7v6h-0.7l-3.6-4.9v4.9
		h-0.7v-6H114.1z M127.7,312.6c-1.4,0-2.4,1.1-2.4,2.4s1.1,2.4,2.4,2.4c0.7,0,1.3-0.3,1.8-0.7l0.4,0.5c-0.6,0.6-1.4,0.9-2.2,0.9
		c-1.7,0-3.1-1.3-3.1-3s1.4-3,3.1-3c0.8,0,1.6,0.3,2.2,0.9l-0.4,0.5C129.1,312.9,128.4,312.6,127.7,312.6L127.7,312.6z M138.5,317.4
		c1.1,0,1.8-0.7,1.8-1.9V312h0.7v3.5c0,1.6-0.9,2.5-2.5,2.5s-2.5-0.9-2.5-2.5V312h0.7v3.5C136.7,316.8,137.4,317.4,138.5,317.4z
		 M152.1,313.5c0,0.7-0.4,1.2-1.1,1.4c0.9,0.1,1.4,0.7,1.4,1.5c0,1-0.8,1.6-2.2,1.6h-2.6v-6h2.5C151.4,312,152.1,312.6,152.1,313.5
		L152.1,313.5z M151.4,313.6c0-0.6-0.5-1-1.3-1h-1.8v2h1.8C151,314.6,151.4,314.3,151.4,313.6z M151.7,316.3c0-0.7-0.6-1.1-1.5-1.1
		h-1.8v2.1h1.8C151.1,317.4,151.7,317,151.7,316.3z M162.5,316.5h-3.3l-0.7,1.5h-0.7l2.7-6h0.7l2.7,6h-0.7L162.5,316.5z
		 M162.3,315.9l-1.4-3.1l-1.3,3.1H162.3z M173.1,312v0.6h-2v5.4h-0.7v-5.4h-2V312H173.1z M184.4,315c0,1.7-1.4,3-3.1,3
		c-1.8,0-3.1-1.3-3.1-3s1.4-3,3.1-3C183,312,184.4,313.3,184.4,315z M178.8,315c0,1.3,1.1,2.4,2.5,2.4s2.4-1.1,2.4-2.4
		s-1.1-2.4-2.4-2.4S178.8,313.7,178.8,315z M194.5,318l-1.3-1.9h-2v1.9h-0.7v-6h2.3c1.5,0,2.4,0.7,2.4,2c0,1-0.5,1.7-1.4,1.9l1.4,2
		h-0.7V318z M192.8,315.5c1.1,0,1.7-0.5,1.7-1.4s-0.6-1.4-1.7-1.4h-1.6v2.8H192.8z"/>
</g>
<g>
	<path class="st14" d="M316.9,393.9c-0.8,0-1.3,0.3-1.3,0.8c0,1.6,3.4,0.7,3.4,2.9c0,1-0.9,1.6-2.2,1.6c-0.9,0-1.7-0.4-2.3-0.9
		l0.3-0.6c0.6,0.5,1.3,0.8,2,0.8c0.9,0,1.4-0.4,1.4-0.9c0-1.6-3.4-0.8-3.4-2.9c0-0.9,0.8-1.5,2.1-1.5c0.7,0,1.4,0.2,1.9,0.6
		l-0.3,0.6C318,394,317.4,393.9,316.9,393.9z M332.1,396.2c0,1.7-1.4,3-3.1,3c-1.8,0-3.1-1.3-3.1-3s1.4-3,3.1-3
		C330.8,393.2,332.1,394.5,332.1,396.2z M326.5,396.2c0,1.3,1.1,2.4,2.5,2.4s2.4-1.1,2.4-2.4s-1.1-2.4-2.4-2.4
		S326.5,394.9,326.5,396.2z M343.2,393.2v0.6h-3.1v2.2h2.8v0.6h-2.8v2.6h-0.7v-6L343.2,393.2L343.2,393.2z M354,393.2v0.6h-2v5.4
		h-0.7v-5.4h-2v-0.6H354z M360.9,393.2l1.6,5.2l1.6-5.2h0.7l1.6,5.2l1.6-5.2h0.7l-2,6H366l-1.6-5.1l-1.6,5.1h-0.7l-2-6H360.9z
		 M379.1,397.7h-3.3l-0.7,1.5h-0.7l2.7-6h0.7l2.7,6h-0.7L379.1,397.7z M378.8,397.1l-1.4-3.1l-1.3,3.1H378.8L378.8,397.1z
		 M391.4,399.2l-1.3-1.9h-2v1.9h-0.7v-6h2.3c1.5,0,2.4,0.7,2.4,2c0,1-0.5,1.7-1.4,1.9l1.4,2h-0.7L391.4,399.2z M389.7,396.7
		c1.1,0,1.7-0.5,1.7-1.4s-0.6-1.4-1.7-1.4h-1.6v2.8H389.7z M403.7,393.2v0.6h-3.4v2h3v0.6h-3v2.1h3.5v0.6h-4.2v-6L403.7,393.2
		L403.7,393.2z M315.9,405.2v6h-0.7v-6H315.9z M323.4,405.2l3.6,4.9v-4.9h0.7v6H327l-3.6-4.9v4.9h-0.7v-6H323.4z M337,405.8
		c-1.4,0-2.4,1.1-2.4,2.4s1.1,2.4,2.4,2.4c0.7,0,1.3-0.3,1.8-0.7l0.4,0.5c-0.6,0.6-1.4,0.9-2.2,0.9c-1.7,0-3.1-1.3-3.1-3
		s1.4-3,3.1-3c0.8,0,1.6,0.3,2.2,0.9l-0.4,0.5C338.3,406.1,337.6,405.8,337,405.8L337,405.8z M347.7,410.6c1.1,0,1.8-0.7,1.8-1.9
		v-3.5h0.7v3.5c0,1.6-0.9,2.5-2.5,2.5s-2.5-0.9-2.5-2.5v-3.5h0.7v3.5C345.9,410,346.6,410.6,347.7,410.6z M361.4,406.7
		c0,0.7-0.4,1.2-1.1,1.4c0.9,0.1,1.4,0.7,1.4,1.5c0,1-0.8,1.6-2.2,1.6h-2.6v-6h2.5C360.6,405.2,361.4,405.8,361.4,406.7L361.4,406.7
		z M360.7,406.8c0-0.6-0.5-1-1.3-1h-1.8v2h1.8C360.2,407.8,360.7,407.5,360.7,406.8z M360.9,409.5c0-0.7-0.6-1.1-1.5-1.1h-1.8v2.1
		h1.8C360.4,410.6,360.9,410.2,360.9,409.5z M371.8,409.7h-3.3l-0.7,1.5h-0.7l2.7-6h0.7l2.7,6h-0.7L371.8,409.7z M371.5,409.1
		l-1.4-3.1l-1.3,3.1H371.5L371.5,409.1z M382.3,405.2v0.6h-2v5.4h-0.7v-5.4h-2v-0.6H382.3z M393.6,408.2c0,1.7-1.4,3-3.1,3
		c-1.8,0-3.1-1.3-3.1-3s1.4-3,3.1-3S393.6,406.5,393.6,408.2z M388,408.2c0,1.3,1.1,2.4,2.5,2.4s2.4-1.1,2.4-2.4s-1.1-2.4-2.4-2.4
		S388,406.9,388,408.2z M403.7,411.2l-1.3-1.9h-2v1.9h-0.7v-6h2.3c1.5,0,2.4,0.7,2.4,2c0,1-0.5,1.7-1.4,1.9l1.4,2h-0.7L403.7,411.2z
		 M402.1,408.7c1.1,0,1.7-0.5,1.7-1.4s-0.6-1.4-1.7-1.4h-1.6v2.8H402.1z"/>
</g>
<g>
	<path class="st15" d="M351.9,340.6h-11c-1.1,0-2-0.9-2-2s0.9-2,2-2h11c1.1,0,2,0.9,2,2S353,340.6,351.9,340.6z M341,337.5
		c-0.6,0-1.1,0.5-1.1,1.1s0.5,1.1,1.1,1.1h11c0.6,0,1.1-0.5,1.1-1.1s-0.5-1.1-1.1-1.1H341z M346.5,348.4c-1.5,0-2.8-1-3.2-2.5
		c-2-0.3-3.5-2-3.5-4v-0.5h13.3v0.5c0,2-1.5,3.7-3.5,4C349.3,347.4,348,348.4,346.5,348.4L346.5,348.4z M340.7,342.4
		c0.2,1.4,1.4,2.6,2.9,2.7h0.4l0.1,0.4c0.2,1.2,1.2,2.1,2.4,2.1s2.2-0.9,2.4-2.1l0.1-0.4h0.4c1.5-0.1,2.7-1.2,2.9-2.7H340.7
		L340.7,342.4z M353.7,335.7h-14.5v-5.2c-1.4-2.4-3-4.7-4.7-6.9c-2.1-2.7-3.3-6-3.3-9.4c0-8.4,6.8-15.3,15.3-15.3
		c8.4,0,15.3,6.8,15.3,15.3c0,3.4-1.1,6.7-3.3,9.4c-1.5,1.9-3.3,4.5-4.8,7V335.7z M340.1,334.8h12.7v-4.5l0.1-0.1
		c1.5-2.5,3.4-5.2,4.9-7.2c2-2.5,3.1-5.6,3.1-8.9c0-7.9-6.4-14.3-14.3-14.3s-14.3,6.4-14.3,14.3c0,3.2,1.1,6.3,3.1,8.8
		c1.7,2.2,3.4,4.7,4.8,7.1l0.1,0.1v4.7H340.1z"/>
	<path class="st15" d="M340.6,319.2l1-0.2l3.5,15.8l-1,0.2L340.6,319.2z"/>
	<path class="st15" d="M347.9,335.1l3.5-16.1l0.9,0.2l-3.5,16.1L347.9,335.1z"/>
	<path class="st15" d="M344,345h5.1v0.9H344V345z M345.6,324.5l-0.9-3.5l-2.4,1.7l-0.4-0.6l3.2-2.2l0.7,2.5l1.7-4l1.3,3.9l2.5-1.1
		l0.3,0.6l-3.1,1.4l-1.1-3L345.6,324.5z M347,295.7c-0.2,0-0.4-0.2-0.4-0.4v-6.8c0-0.2,0.2-0.4,0.4-0.4s0.4,0.2,0.4,0.4v6.8
		C347.4,295.5,347.2,295.7,347,295.7z M357.4,298.2c-0.1,0-0.1,0-0.2-0.1c-0.2-0.1-0.2-0.4-0.1-0.5l3.5-5.8c0.1-0.2,0.4-0.2,0.5-0.1
		c0.2,0.1,0.2,0.4,0.1,0.5l-3.5,5.8C357.7,298.2,357.6,298.2,357.4,298.2z M363.9,306.4c-0.1,0-0.3-0.1-0.3-0.2
		c-0.1-0.2,0-0.4,0.2-0.5l6-3.1c0.2-0.1,0.4,0,0.5,0.2s0,0.4-0.2,0.5l-6,3.1H363.9z M372.6,316.1l-6.8-0.4c-0.2,0-0.4-0.2-0.4-0.4
		s0.2-0.4,0.4-0.4l6.8,0.4c0.2,0,0.4,0.2,0.4,0.4S372.8,316.1,372.6,316.1z M368.3,329.7c-0.1,0-0.2,0-0.2-0.1l-5.6-3.9
		c-0.2-0.1-0.2-0.4-0.1-0.5c0.1-0.2,0.4-0.2,0.5-0.1l5.6,3.9c0.2,0.1,0.2,0.4,0.1,0.5C368.5,329.7,368.4,329.7,368.3,329.7z
		 M335.7,298.2c-0.1,0-0.3-0.1-0.3-0.2l-3.5-5.8c-0.1-0.2-0.1-0.4,0.1-0.5s0.4-0.1,0.5,0.1l3.5,5.8c0.1,0.2,0.1,0.4-0.1,0.5
		C335.8,298.2,335.7,298.2,335.7,298.2z M329.2,306.4H329l-6-3.1c-0.2-0.1-0.3-0.3-0.2-0.5c0.1-0.2,0.3-0.3,0.5-0.2l6,3.1
		c0.2,0.1,0.3,0.3,0.2,0.5C329.5,306.3,329.3,306.4,329.2,306.4z M320.5,316.1c-0.2,0-0.4-0.2-0.4-0.4s0.1-0.4,0.4-0.4l6.8-0.4
		c0.2,0,0.4,0.1,0.4,0.4c0,0.2-0.1,0.4-0.4,0.4L320.5,316.1z M324.8,329.7c-0.1,0-0.2-0.1-0.3-0.2c-0.1-0.2-0.1-0.4,0.1-0.5l5.6-3.9
		c0.2-0.1,0.4-0.1,0.5,0.1s0.1,0.4-0.1,0.5l-5.6,3.9C325,329.7,324.9,329.7,324.8,329.7z"/>
</g>
<g>
	<path class="st16" d="M351.9,340.6h-11c-1.1,0-2-0.9-2-2s0.9-2,2-2h11c1.1,0,2,0.9,2,2S353,340.6,351.9,340.6z M341,337.5
		c-0.6,0-1.1,0.5-1.1,1.1s0.5,1.1,1.1,1.1h11c0.6,0,1.1-0.5,1.1-1.1s-0.5-1.1-1.1-1.1H341z M346.5,348.4c-1.5,0-2.8-1-3.2-2.5
		c-2-0.3-3.5-2-3.5-4v-0.5h13.3v0.5c0,2-1.5,3.7-3.5,4C349.3,347.4,348,348.4,346.5,348.4L346.5,348.4z M340.7,342.4
		c0.2,1.4,1.4,2.6,2.9,2.7h0.4l0.1,0.4c0.2,1.2,1.2,2.1,2.4,2.1s2.2-0.9,2.4-2.1l0.1-0.4h0.4c1.5-0.1,2.7-1.2,2.9-2.7H340.7
		L340.7,342.4z M353.7,335.7h-14.5v-5.2c-1.4-2.4-3-4.7-4.7-6.9c-2.1-2.7-3.3-6-3.3-9.4c0-8.4,6.8-15.3,15.3-15.3
		c8.4,0,15.3,6.8,15.3,15.3c0,3.4-1.1,6.7-3.3,9.4c-1.5,1.9-3.3,4.5-4.8,7V335.7z M340.1,334.8h12.7v-4.5l0.1-0.1
		c1.5-2.5,3.4-5.2,4.9-7.2c2-2.5,3.1-5.6,3.1-8.9c0-7.9-6.4-14.3-14.3-14.3s-14.3,6.4-14.3,14.3c0,3.2,1.1,6.3,3.1,8.8
		c1.7,2.2,3.4,4.7,4.8,7.1l0.1,0.1v4.7H340.1z"/>
	<path class="st16" d="M340.6,319.2l1-0.2l3.5,15.8l-1,0.2L340.6,319.2z"/>
	<path class="st16" d="M347.9,335.1l3.5-16.1l0.9,0.2l-3.5,16.1L347.9,335.1z"/>
	<path class="st16" d="M344,345h5.1v0.9H344V345z M345.6,324.5l-0.9-3.5l-2.4,1.7l-0.4-0.6l3.2-2.2l0.7,2.5l1.7-4l1.3,3.9l2.5-1.1
		l0.3,0.6l-3.1,1.4l-1.1-3L345.6,324.5z M347,295.7c-0.2,0-0.4-0.2-0.4-0.4v-6.8c0-0.2,0.2-0.4,0.4-0.4s0.4,0.2,0.4,0.4v6.8
		C347.4,295.5,347.2,295.7,347,295.7z M357.4,298.2c-0.1,0-0.1,0-0.2-0.1c-0.2-0.1-0.2-0.4-0.1-0.5l3.5-5.8c0.1-0.2,0.4-0.2,0.5-0.1
		c0.2,0.1,0.2,0.4,0.1,0.5l-3.5,5.8C357.7,298.2,357.6,298.2,357.4,298.2z M363.9,306.4c-0.1,0-0.3-0.1-0.3-0.2
		c-0.1-0.2,0-0.4,0.2-0.5l6-3.1c0.2-0.1,0.4,0,0.5,0.2s0,0.4-0.2,0.5l-6,3.1H363.9z M372.6,316.1l-6.8-0.4c-0.2,0-0.4-0.2-0.4-0.4
		s0.2-0.4,0.4-0.4l6.8,0.4c0.2,0,0.4,0.2,0.4,0.4S372.8,316.1,372.6,316.1z M368.3,329.7c-0.1,0-0.2,0-0.2-0.1l-5.6-3.9
		c-0.2-0.1-0.2-0.4-0.1-0.5c0.1-0.2,0.4-0.2,0.5-0.1l5.6,3.9c0.2,0.1,0.2,0.4,0.1,0.5C368.5,329.7,368.4,329.7,368.3,329.7z
		 M335.7,298.2c-0.1,0-0.3-0.1-0.3-0.2l-3.5-5.8c-0.1-0.2-0.1-0.4,0.1-0.5s0.4-0.1,0.5,0.1l3.5,5.8c0.1,0.2,0.1,0.4-0.1,0.5
		C335.8,298.2,335.7,298.2,335.7,298.2z M329.2,306.4H329l-6-3.1c-0.2-0.1-0.3-0.3-0.2-0.5c0.1-0.2,0.3-0.3,0.5-0.2l6,3.1
		c0.2,0.1,0.3,0.3,0.2,0.5C329.5,306.3,329.3,306.4,329.2,306.4z M320.5,316.1c-0.2,0-0.4-0.2-0.4-0.4s0.1-0.4,0.4-0.4l6.8-0.4
		c0.2,0,0.4,0.1,0.4,0.4c0,0.2-0.1,0.4-0.4,0.4L320.5,316.1z M324.8,329.7c-0.1,0-0.2-0.1-0.3-0.2c-0.1-0.2-0.1-0.4,0.1-0.5l5.6-3.9
		c0.2-0.1,0.4-0.1,0.5,0.1s0.1,0.4-0.1,0.5l-5.6,3.9C325,329.7,324.9,329.7,324.8,329.7z"/>
</g>
<g id="Layer_x0020_1">
	<g id="_2401625846896">
		<path class="st14" d="M76.1,312.3c0,0.8,0.5,1.5,1.3,1.5c1.5,0,2.5-0.4,3.8-1.1c1.4-0.7,2.6-1.3,3.9-2.2c0.3-0.2,0.8-0.4,0.9-0.7
			c-0.6,0.1-3.7,1.5-5.1,0.8c-1.7-0.8,1.6-4.8,2-5.4L84,304c0.2-0.2,0.3-0.2,0.5-0.4c2.2-2.2,8.9-7.6,12-6c0.2,0.1,0.3,0.2,0.5,0.3
			c0.2,0.1,0.3,0.3,0.5,0.4c0.5-0.9,0.7-2.9-1.1-2.9c-2.2,0-5,1.6-6.9,2.6c-0.8,0.4-2.1,1.2-2.9,1.7c-1.1,0.8-3.5,2.6-4.5,3.5
			c-0.2,0.2-0.4,0.4-0.6,0.6c-0.2,0.2-0.4,0.3-0.6,0.6c-0.2,0.2-0.3,0.4-0.5,0.6C79,306.4,76.1,310.3,76.1,312.3L76.1,312.3z"/>
		<path class="st17" d="M88.4,308.6c0.2,0.1,0.3,0,0.5-0.1l1.5-0.6c0.6-0.2,3.1-1,3.7-0.2c0.9,1-0.2,3-0.7,3.7l-1.2,1.4
			c-0.3,0.3-0.4,0.5-0.8,0.9l-1.8,1.6c-0.2,0.1-0.3,0.3-0.5,0.4c-1.7,1.4-5.2,3.9-7.1,5.1c-0.3,0.2-2,1.2-2.1,1.4c0.7,0,2.4-1,3-1.3
			c1.6-0.8,4.2-2.2,5.7-3.2c0.5-0.3,0.9-0.5,1.4-0.9c0.5-0.3,0.9-0.6,1.3-0.9c0.9-0.6,1.7-1.3,2.5-1.9c0.1-0.1,0.2-0.2,0.3-0.3
			c1.5-1.3,2.9-2.7,3.9-4.4c0.6-0.9,2.1-4.2,0.2-4.9c-1.6-0.6-4.5,1-5.6,1.6l-2.1,1.2C90.1,307.4,88.6,308.4,88.4,308.6L88.4,308.6z
			"/>
		<path class="st17" d="M95.9,301.4c0,0.8,0.8,1.4,1.6,1.7c2.6,0.8,5-1.5,2.9-2.9C98.7,299.1,95.9,299.8,95.9,301.4L95.9,301.4z"/>
	</g>
</g>
<g id="Layer_x0020_1_1_">
	<g id="_2401625846896_1_">
		<path class="st14" d="M285.8,405.4c0,0.8,0.5,1.5,1.3,1.5c1.5,0,2.5-0.4,3.8-1.1c1.4-0.7,2.6-1.3,3.9-2.2c0.3-0.2,0.8-0.4,0.9-0.7
			c-0.6,0.1-3.7,1.5-5.1,0.8c-1.7-0.8,1.6-4.8,2-5.4l1.1-1.3c0.2-0.2,0.3-0.2,0.5-0.4c2.2-2.2,8.9-7.6,12-6c0.2,0.1,0.3,0.2,0.5,0.3
			c0.2,0.1,0.3,0.3,0.5,0.4c0.5-0.9,0.7-2.9-1.1-2.9c-2.2,0-5,1.6-6.9,2.6c-0.8,0.4-2.1,1.2-2.9,1.7c-1.1,0.8-3.5,2.6-4.5,3.5
			c-0.2,0.2-0.4,0.4-0.6,0.6c-0.2,0.2-0.4,0.3-0.6,0.6c-0.2,0.2-0.3,0.4-0.5,0.6C288.7,399.5,285.8,403.4,285.8,405.4L285.8,405.4z"
			/>
		<path class="st17" d="M298.1,401.7c0.2,0.1,0.3,0,0.5-0.1l1.5-0.6c0.6-0.2,3.1-1,3.7-0.2c0.9,1-0.2,3-0.7,3.7l-1.2,1.4
			c-0.3,0.3-0.4,0.5-0.8,0.9l-1.8,1.6c-0.2,0.1-0.3,0.3-0.5,0.4c-1.7,1.4-5.2,3.9-7.1,5.1c-0.3,0.2-2,1.2-2.1,1.4c0.7,0,2.4-1,3-1.3
			c1.6-0.8,4.2-2.2,5.7-3.2c0.5-0.3,0.9-0.5,1.4-0.9c0.5-0.3,0.9-0.6,1.3-0.9c0.9-0.6,1.7-1.3,2.5-1.9c0.1-0.1,0.2-0.2,0.3-0.3
			c1.5-1.3,2.9-2.7,3.9-4.4c0.6-0.9,2.1-4.2,0.2-4.9c-1.6-0.6-4.5,1-5.6,1.6l-2.1,1.2C299.7,400.6,298.3,401.5,298.1,401.7
			L298.1,401.7z"/>
		<path class="st17" d="M305.5,394.5c0,0.8,0.8,1.4,1.6,1.7c2.6,0.8,5-1.5,2.9-2.9C308.4,392.2,305.5,393,305.5,394.5L305.5,394.5z"
			/>
	</g>
</g>
</svg>
