<?xml version="1.0" encoding="utf-8"?>
<!-- Generator: Adobe Illustrator 22.0.1, SVG Export Plug-In . SVG Version: 6.00 Build 0)  -->
<svg version="1.1" id="Layer_1" xmlns="http://www.w3.org/2000/svg" xmlns:xlink="http://www.w3.org/1999/xlink" x="0px" y="0px"
	 viewBox="0 0 522 543.4" style="enable-background:new 0 0 522 543.4;" xml:space="preserve">
<style type="text/css">
	.st0{fill:#DAE1E7;}
	.st1{fill:#2E3D49;}
	.st2{fill:#FEFEFE;}
	.st3{fill:#E9EAEB;}
	.st4{fill:#02B2E3;}
	.st5{fill:#FDFDFD;}
</style>
<circle class="st0" cx="257.9" cy="246.6" r="194.8"/>
<g>
	<path class="st1" d="M473.9,404.8c-27.8-0.1-55.7-0.1-83.5-0.1c-24,0-48,0.1-72-0.1c-3.8,0-4.7,0.9-4.6,4.7c0.2,17,0.2,34,0,51
		c-0.1,4,1.3,4.6,4.8,4.5c12.5-0.2,25-0.1,37.5-0.1c10.6,0,17.8,6.6,17.8,16.1c-0.1,9.4-7.3,15.9-18,15.9c-64,0-128,0-192,0
		c-10.7,0-17.9-6.5-18-15.9c-0.1-9.5,7.2-16,17.8-16.1c12.8,0,25.7-0.1,38.5,0.1c3.5,0.1,4.9-0.5,4.8-4.5
		c-0.3-17.2-0.1-34.3-0.1-51.5c0-2.7-0.1-4.2-3.6-4.2c-52.5,0.2-105,0.2-157.5,0.2c-10.4,0.2-19.7-2.5-26.7-10.7
		c-5-5.8-7.3-12.5-7.3-20.1c0-20.1-0.1-40.2-0.2-60.3c-2.2-28-2.2-56,0-84c0.1-35.9,0.1-71.9,0.2-107.8c0-7.5-0.1-15,0-22.5
		c0.2-17.6,13-30.6,30.6-30.7c22.8-0.1,45.6-0.1,68.4-0.2c3.5-1.3,7.1-1.6,10.8-1.6c92.1,0,184.3,0,276.4,0c3.7,0,7.3,0.3,10.8,1.6
		c22.1,0,44.3,0.1,66.4,0.1c20.2,0,32.6,12.4,32.6,32.7c0,40.8,0,81.6,0,122.3c0,2,0.1,4,0.2,6c2.2,28,2.2,56,0,84
		c-0.1,18.4-0.9,36.9,0,55.3C509.3,390.9,494.5,406,473.9,404.8z"/>
	<path class="st0" d="M11.7,229.6c0,28,0,56,0,84c-1.8-5.5-2.1-11.3-2.6-17c-1.9-20.5-1.9-40.9,1.7-61.3
		C11.1,233.5,10.3,231.3,11.7,229.6z"/>
	<path class="st0" d="M508.1,313.6c0-28,0-56,0-84c1.8,5.5,2.1,11.3,2.6,17c1.9,20.5,1.9,40.9-1.7,61.3
		C508.7,309.8,509.5,311.9,508.1,313.6z"/>
	<path class="st2" d="M259.8,76.6c71.5,0,143,0,214.4,0c17.2,0,25.7,8.5,25.7,25.8c0,89.5,0,178.9,0,268.4
		c0,17.3-8.5,25.8-25.7,25.8c-142.8,0-285.6,0-428.4,0c-17.6,0-25.9-8.4-25.9-26.1c0-89.3,0-178.6,0-267.9c0-17.6,8.4-26,26-26
		C117.2,76.6,188.5,76.6,259.8,76.6z"/>
	<path class="st2" d="M305.7,425.6c0.1,12,0.1,24,0.2,36c0,2.4-0.7,3.1-3.1,3.1c-28.3-0.1-56.6-0.1-84.9,0c-2.4,0-3.1-0.7-3.1-3.1
		c0.2-12,0.2-24,0.2-36c1.8-1.9,4.3-1.7,6.5-1.7c25.9,0,51.7,0,77.6,0C301.5,424,303.9,423.8,305.7,425.6z"/>
	<path class="st2" d="M259.9,488.6c-31.5,0-62.9,0-94.4,0c-1.5,0-3,0.2-4.5-0.1c-4.3-0.7-6.8-3.3-7.1-7.7c-0.2-4.1,2.9-7.6,7.2-8.1
		c1.3-0.2,2.7-0.1,4-0.1c63.1,0,126.2,0,189.3,0c1.3,0,2.7-0.1,4,0.1c4.3,0.5,7.4,3.9,7.3,8c0,4.2-3.1,7.4-7.5,7.9
		c-1.5,0.1-3,0.1-4.5,0.1C322.5,488.6,291.2,488.6,259.9,488.6z"/>
	<path class="st3" d="M305.7,425.6c-30.2,0-60.4,0-90.7,0c-0.1-6,0-12-0.2-18c-0.1-2.4,0.7-3.1,3.1-3.1c28.3,0.1,56.6,0.1,84.9,0
		c2.4,0,3.2,0.7,3.1,3.1C305.7,413.7,305.8,419.7,305.7,425.6z"/>
	<path class="st1" d="M259.9,93.6c69.6,0,139.3,0,208.9,0c11.1,0,14.1,2.9,14.1,13.8c0,86.1,0,172.3,0,258.4
		c0,10.7-3,13.8-13.6,13.8c-139.6,0-279.3,0-418.9,0c-10.5,0-13.6-3.1-13.6-13.8c0-86.1,0-172.3,0-258.4c0-10.9,3-13.8,14-13.8
		C120.6,93.6,190.2,93.6,259.9,93.6z"/>
	<path class="st4" d="M260.1,101.6c69.3,0,138.7,0,208,0c6.8,0,6.8,0,6.8,6.9c0,85.5,0,171,0,256.5c0,6.6,0,6.6-6.5,6.6
		c-139,0-278,0-417,0c-6.5,0-6.5,0-6.5-6.6c0-85.7,0-171.3-0.1-257c0-5,1.2-6.5,6.4-6.5C120.8,101.7,190.5,101.6,260.1,101.6z"/>
	<path class="st1" d="M198,278.6c-10.2-8.9-19.7-17.1-29-25.4c-1.9-1.7-3.3-1.4-5.3-0.3c-9.3,4.9-19.1,3-25.2-4.6
		c-6.2-7.8-6.2-17.5,0-25.3c5.9-7.4,15.7-9.3,24.8-4.8c1.4,0.7,2.6,1.8,4.4,0.2c9.5-8.3,19.1-16.6,29.4-25.5
		c-8.8-2.4-16.8-4.6-24.8-6.8c-1.7-0.5-2.2,1.2-3,2.1c-8.3,9.3-21.3,9.9-29.6,1.5c-7.9-8-7.6-21.2,0.6-28.7c9.1-8.2,22-6.9,29.7,3.2
		c1.4,1.9,2.4,2.5,4.9,1.7c20-6.3,40-12.5,60-18.6c2.7-0.8,2.8-2.6,3.2-4.8c1.8-9.9,9.9-16.8,19.4-16.9c9.6-0.1,17.9,6.8,19.9,16.4
		c0.7,3.5,0.6,7.2-1,10.3c-1.5,3-0.4,4.4,1.8,6.2c22.8,18.4,45.6,36.8,68.5,55.2c1,0.8,2.2,1.6,3.1,2.5c2.1,2.3,4,2.5,6.9,0.9
		c7.4-4.1,14.8-3.2,21.5,2c6.1,4.8,8.7,11.4,7.2,19c-1.6,8.2-6.7,13.6-14.9,15.8c-4.9,1.3-9.6,0.7-14-1.8c-2-1.1-3.3-1.2-5.2,0.4
		c-24,20.4-48,40.8-72.1,61c-2.4,2-3.3,3.8-2.4,7.1c3.1,11.3-4.1,22.4-15.7,24.6c-10.7,2.1-21.6-5.6-23.1-16.9
		c-0.5-3.7-1.9-4.9-5.1-5.9c-19-5.6-37.9-11.3-56.8-17.2c-3-0.9-4.6-0.5-6.6,2.1c-7.2,9.8-20.5,10.9-29.4,2.8
		c-8.4-7.6-8.5-21.2-0.3-29c8.7-8.2,21.9-7.3,29.5,2.3c1.7,2.2,3.1,2.8,5.8,2C182.6,283.1,189.9,281,198,278.6z"/>
	<path class="st4" d="M173.8,234.9c18-5.2,35.6-10.2,53.1-15.3c1-0.3,1.9-0.5,2.9-0.8c5.9-1.9,10.7-3.6,16.6,2.4
		c8,8.1,21.3,5.3,27.8-4.3c1.9-2.8,3.6-3,6.4-2.2c20.5,5.8,41,11.4,61.5,17.2c1.4,0.4,3.8,0,3.8,2.4c0.1,2.4-2.2,2.2-3.7,2.6
		c-20.8,6.3-41.7,12.5-62.5,19c-2.8,0.9-4.1,0.2-5.7-2c-8.2-10.8-22.5-11.2-31.4-0.9c-1.4,1.7-2.5,2.5-5,1.7
		c-20.9-6.3-41.8-12.4-62.7-18.5C174.7,236.2,174.5,235.9,173.8,234.9z"/>
	<path class="st4" d="M214.3,282.1c8.2-2.4,15.4-4.4,22.5-6.7c2.4-0.8,3.5-0.2,4.9,1.7c5.1,6.9,12,9.9,20.5,7.9
		c8.9-2.1,13.9-8.1,15.4-16.9c0.4-2.2,0.8-3.6,3.2-4.3c21.8-6.5,43.6-13.1,65.4-19.7c0.4-0.1,0.9,0,2.8,0c-5.8,5-10.7,9.3-15.7,13.5
		C313.8,274,294.4,290.4,275,307c-2.7,2.3-4.8,3-8.2,1c-5.8-3.4-12.1-3.1-18.1,0c-1.4,0.7-2.6,2-4.4,0.4
		C234.6,299.8,224.8,291.3,214.3,282.1z"/>
	<path class="st4" d="M346.8,225c-19.5-5.4-38.2-10.6-56.9-15.8c-1.1-0.3-2.2-0.7-3.4-0.9c-5.3-0.9-8.4-3-10.1-9.2
		c-4-14.5-23.7-18-33.4-6.5c-2.5,3-4.6,3.4-8,2.3c-6.7-2.1-13.5-3.7-21.1-5.8c6.4-5.6,12.3-10.7,18.2-15.9c1.9-1.6,3.8-3.2,5.7-4.9
		c4.2-3.7,7.8-8.2,14.7-3.8c4.3,2.8,9.8,1.3,14.4-1.2c2-1.1,3.4-1.3,5.3,0.2c24.6,19.9,49.2,39.8,73.8,59.7
		C346.2,223.5,346.2,223.8,346.8,225z"/>
	<path class="st4" d="M171.9,226.3c0.9-2.7,3.2-3.7,4.9-5.1c8.9-7.8,17.9-15.5,26.7-23.3c2-1.8,3.9-2.4,6.7-1.5
		c8.3,2.5,16.7,4.6,25,6.8c1.5,0.4,2.7,0.8,2.7,2.9c0,2-1.2,2.4-2.7,2.9c-20.6,5.9-41.2,11.7-61.9,17.6
		C173.1,226.6,172.8,226.5,171.9,226.3z"/>
	<path class="st4" d="M171.2,243.7c8.7,2.5,16.1,4.7,23.5,6.9c13.2,3.9,26.5,7.8,39.7,11.7c1.4,0.4,3.6,0.1,3.5,2.7
		c0,2.3-1.9,2.4-3.5,2.8c-8,2.4-15.9,4.7-23.9,7.2c-2,0.6-3.7,0.9-5.5-0.7c-10.6-9.4-21.3-18.6-31.9-28
		C172.7,245.9,172.4,245.3,171.2,243.7z"/>
	<path class="st4" d="M239.6,154.9c0.4,1.3-0.6,1.9-1.3,2.5c-10.2,8.8-20.5,17.6-30.6,26.5c-2.2,2-4.2,2.6-7.1,1.7
		c-8-2.4-16-4.5-24-6.7c-1.3-0.3-2.7-0.4-2.7-2.3c0-1.7,1.1-2.3,2.4-2.7c20.6-6.4,41.3-12.8,61.9-19.2
		C238.6,154.6,239.1,154.8,239.6,154.9z"/>
	<path class="st4" d="M239.3,316.1c-17.4-5.3-34.8-10.6-52.3-15.9c-3.5-1.1-7-2.1-10.5-3.2c-1-0.3-2.6-0.3-2.5-1.9
		c0.1-1.6,1.6-1.4,2.7-1.8c8.7-2.6,17.5-5.2,26.2-7.8c1.4-0.4,2.5-0.6,3.7,0.5c11.1,9.7,22.2,19.4,33.2,29.1
		C239.6,315.4,239.4,315.7,239.3,316.1z"/>
	<path class="st5" d="M258,133.7c6.6,0,12,5.6,11.9,12.2c-0.1,6.6-5.7,12-12.3,11.8c-6.4-0.2-11.6-5.5-11.7-11.9
		C245.9,139.1,251.4,133.6,258,133.7z"/>
	<path class="st5" d="M165.9,175.8c-0.1,6.6-5.7,12-12.2,11.8c-6.6-0.1-11.9-5.8-11.7-12.4c0.2-6.4,5.6-11.6,12-11.6
		C160.5,163.7,165.9,169.2,165.9,175.8z"/>
	<path class="st5" d="M269.9,205.8c-0.1,6.6-5.7,12-12.3,11.8c-6.6-0.2-11.9-5.8-11.7-12.4c0.2-6.4,5.6-11.6,12-11.6
		C264.5,193.7,270,199.2,269.9,205.8z"/>
	<path class="st5" d="M365.2,246.6c-6.6-0.4-11.7-6.3-11.2-12.8c0.5-6.6,6.4-11.7,12.9-11.1c6.4,0.5,11.3,6.2,11,12.5
		C377.5,241.8,371.7,247,365.2,246.6z"/>
	<path class="st5" d="M165.9,235.4c0.1,6.6-5.3,12.1-11.9,12.2c-6.6,0-12.1-5.5-12-12c0-6.4,5.3-11.7,11.7-11.9
		C160.1,223.5,165.8,228.9,165.9,235.4z"/>
	<path class="st5" d="M269.9,265.4c0.1,6.6-5.3,12.1-11.9,12.2c-6.6,0-12.1-5.5-12-12c0-6.4,5.3-11.7,11.7-11.9
		C264.2,253.5,269.8,258.9,269.9,265.4z"/>
	<path class="st5" d="M153.8,283.7c6.6,0,12.1,5.5,12,12c0,6.6-5.6,12-12.2,11.9c-6.4-0.1-11.7-5.4-11.8-11.8
		C141.8,289.2,147.3,283.7,153.8,283.7z"/>
	<path class="st5" d="M269.9,325.7c0,6.6-5.6,12-12.1,11.9c-6.6-0.1-12-5.7-11.8-12.2c0.2-6.4,5.5-11.6,11.9-11.7
		C264.4,313.6,269.9,319.1,269.9,325.7z"/>
</g>
</svg>
