<?xml version="1.0" standalone="no"?>
<!DOCTYPE svg PUBLIC "-//W3C//DTD SVG 20010904//EN"
 "http://www.w3.org/TR/2001/REC-SVG-20010904/DTD/svg10.dtd">
<svg version="1.0" xmlns="http://www.w3.org/2000/svg"
 width="2200.000000pt" height="2800.000000pt" viewBox="0 0 2200.000000 2800.000000"
 preserveAspectRatio="xMidYMid meet">
<metadata>
Created by potrace 1.13, written by Peter Selinger 2001-2015
</metadata>
<g xmlns="http://www.w3.org/2000/svg" transform="translate(0.000000,2800.000000) scale(.100000,-0.100000)" fill="#000000" stroke="none">
<path d="M16465 26599 c-44 -10 -190 -44 -325 -75 -135 -31 -261 -63 -280 -71 -72 -29 -130 -110 -130 -179 0 -52 210 -883 227 -900 21 -21 61 -28 89 -15 55 24 54 28 -55 473 -56 227 -101 425 -101 440 0 18 8 33 23 43 31 20 540 137 547 125 3 -5 14 -50 24 -99 14 -71 22 -91 35 -91 37 1 136 27 135 36 -1 5 -16 82 -34 172 -38 186 -23 172 -155 141z"/>
<path d="M15135 26270 c-417 -117 -526 -152 -520 -169 2 -9 63 -212 135 -451 141 -468 147 -483 226 -524 64 -34 122 -27 394 51 135 38 278 78 319 89 40 10 75 24 78 30 7 20 -225 894 -248 930 -11 19 -40 46 -64 59 -73 44 -117 41 -320 -15z m244 -114 c17 -20 213 -758 204 -766 -13 -11 -489 -140 -517 -140 -20 0 -30 8 -42 33 -14 30 -225 739 -221 743 1 1 110 32 242 68 132 37 245 69 250 71 25 9 74 4 84 -9z"/>
<path d="M13698 26255 c-48 -27 -46 -54 15 -238 55 -167 55 -168 34 -176 -12 -4 -59 -21 -104 -37 -46 -16 -83 -34 -83 -41 0 -11 38 -114 44 -121 2 -1 49 14 106 33 56 20 104 34 106 32 2 -2 72 -203 155 -448 83 -244 155 -448 159 -453 5 -4 112 26 240 69 205 68 237 82 269 114 37 37 61 95 61 147 0 39 -70 264 -88 287 -22 26 -83 23 -110 -6 -29 -30 -28 -43 12 -167 34 -107 35 -152 4 -172 -18 -11 -289 -101 -292 -97 -6 7 -256 764 -256 774 0 6 101 43 224 83 123 39 228 77 234 84 6 7 13 25 17 40 5 21 1 33 -19 52 -14 15 -35 26 -48 26 -13 0 -120 -31 -238 -70 -118 -38 -218 -66 -221 -62 -4 4 -30 79 -59 167 -29 88 -58 166 -64 172 -19 21 -69 24 -98 8z"/>
<path d="M13148 25626 c-119 -44 -226 -90 -238 -100 -32 -31 -24 -73 21 -99 l36 -21 139 52 c76 28 145 53 152 54 17 4 109 -239 96 -252 -5 -5 -111 -47 -236 -94 -125 -47 -245 -94 -267 -105 -76 -39 -131 -135 -117 -205 6 -32 184 -485 195 -499 4 -4 47 9 97 29 49 20 193 76 319 125 159 60 242 98 269 120 50 42 80 108 74 164 -4 34 -295 862 -317 901 -4 8 -77 -15 -223 -70z m331 -675 c40 -108 60 -177 56 -190 -5 -16 -97 -71 -119 -71 -3 0 -94 -34 -202 -75 -108 -42 -197 -75 -198 -73 -17 28 -126 325 -126 342 0 13 8 30 18 40 18 15 474 195 498 196 6 0 39 -76 73 -169z"/>
<path d="M11379 25331 c-16 -16 -29 -36 -29 -44 0 -20 526 -1174 552 -1209 32 -45 94 -72 163 -72 54 1 85 12 293 103 129 56 246 111 262 122 45 34 73 94 73 158 0 50 -20 105 -178 488 l-179 431 -47 -18 c-52 -21 -500 -213 -590 -253 l-57 -26 -67 152 c-38 84 -79 162 -92 175 -33 30 -69 28 -104 -7z m914 -328 c198 -468 247 -591 247 -615 0 -16 -8 -35 -19 -44 -27 -23 -427 -194 -453 -194 -13 0 -28 4 -35 8 -10 7 -109 220 -289 625 -43 98 -43 98 -21 107 12 5 130 56 262 114 132 58 245 105 252 105 6 1 32 -47 56 -106z"/>
<path d="M11248 24819 c-32 -16 -58 -32 -58 -34 0 -3 90 -195 200 -427 110 -233 200 -426 200 -430 0 -5 -102 -58 -227 -119 -180 -87 -235 -109 -263 -107 l-35 3 -196 388 c-107 214 -202 393 -210 398 -43 27 -121 -13 -121 -63 0 -32 374 -769 414 -813 16 -19 49 -41 74 -51 83 -31 118 -20 457 143 169 81 307 150 307 153 -1 22 -460 985 -471 987 -8 1 -40 -11 -71 -28z"/>
<path d="M10045 24224 c-381 -205 -396 -216 -425 -307 -24 -75 -12 -102 231 -529 126 -221 233 -404 238 -406 4 -1 99 49 212 111 112 63 258 142 324 177 193 102 195 104 195 150 0 43 -26 70 -68 70 -22 0 -163 -73 -461 -237 -73 -41 -137 -73 -142 -71 -15 5 -379 662 -379 684 0 12 8 31 18 43 16 20 450 261 469 261 5 0 29 -37 53 -82 53 -102 76 -128 110 -128 40 0 80 35 80 71 0 35 -156 339 -173 339 -7 0 -133 -66 -282 -146z"/>
<path d="M9240 23757 c-42 -12 -414 -229 -487 -284 -38 -29 -83 -114 -83 -158 0 -16 4 -44 9 -61 11 -38 499 -814 512 -814 9 0 119 70 119 75 0 2 -108 176 -240 389 -133 212 -243 393 -246 401 -4 8 1 26 9 39 19 29 426 276 455 276 11 0 27 -6 35 -14 7 -8 112 -181 232 -386 233 -396 239 -403 297 -379 32 13 48 36 48 69 0 25 -420 753 -458 793 -52 56 -125 75 -202 54z"/>
<path d="M8109 23061 c-421 -280 -399 -262 -399 -310 0 -44 26 -71 67 -71 12 0 83 41 157 92 75 50 137 90 139 87 19 -23 457 -682 455 -684 -2 -1 -44 -29 -94 -63 -49 -33 -115 -78 -146 -99 l-56 -40 36 -56 c20 -31 40 -57 43 -57 4 0 158 102 343 226 229 153 340 233 346 250 18 45 -18 94 -68 94 -11 0 -78 -38 -148 -84 l-128 -85 -75 112 c-41 62 -144 217 -228 345 l-153 233 155 101 155 101 -17 26 c-9 14 -26 41 -37 58 -12 18 -24 33 -27 33 -4 0 -148 -94 -320 -209z"/>
<path d="M6699 22031 c-14 -5 -36 -14 -50 -21 -34 -19 -388 -302 -426 -342 -58 -60 -76 -134 -50 -205 14 -38 477 -605 522 -638 16 -13 50 -28 74 -35 75 -20 127 0 245 92 55 44 109 89 119 100 25 29 22 83 -5 102 -42 30 -68 20 -173 -64 -104 -84 -132 -98 -160 -83 -18 10 -145 163 -145 174 0 7 227 189 446 359 l122 94 -120 157 c-176 231 -210 271 -245 291 -36 21 -116 31 -154 19z m85 -163 c14 -13 70 -81 126 -153 l100 -130 -24 -18 c-13 -9 -115 -89 -225 -177 -111 -88 -205 -160 -209 -160 -6 1 -194 229 -230 280 -8 11 -11 28 -7 40 9 27 400 340 425 340 10 0 30 -10 44 -22z" fill="#3b95ed"/>

<path d="M5704 21243 c-277 -237 -346 -305 -362 -359 -17 -57 -15 -92 7 -140 21 -46 592 -685 623 -696 28 -11 66 1 83 25 35 51 30 59 -280 407 -187 210 -295 339 -295 352 0 25 23 48 249 243 l173 149 32 -34 c17 -20 47 -55 68 -79 l36 -45 34 26 c18 15 45 37 60 50 l27 23 -109 130 c-60 71 -113 131 -118 133 -5 1 -107 -82 -228 -185z" fill="#3b95ed"/>
<path d="M4943 20561 c-192 -179 -206 -196 -198 -231 9 -35 17 -41 63 -47 39 -5 42 -4 159 105 l119 110 93 -101 94 -100 -64 -61 c-326 -309 -357 -341 -374 -399 -32 -111 -11 -148 222 -379 l168 -166 250 239 c138 131 259 255 269 276 27 51 31 129 9 175 -10 21 -151 182 -313 358 -162 177 -304 332 -316 346 l-21 26 -160 -151z m672 -647 c7 -18 5 -31 -5 -47 -17 -25 -369 -362 -379 -362 -13 0 -249 251 -255 272 -9 28 16 56 231 259 l162 155 118 -126 c65 -70 122 -137 128 -151z" fill="#3b95ed"/>
<path d="M4260 19885 l-55 -55 344 -338 343 -337 -115 -113 -114 -114 -199 190 -198 190 -52 -56 -52 -57 122 -115 c66 -63 156 -148 198 -190 l78 -75 -112 -120 c-130 -139 -142 -149 -171 -141 -12 3 -164 136 -337 295 -291 268 -318 290 -352 290 -28 1 -41 -5 -58 -26 -46 -59 -44 -61 313 -385 181 -163 343 -301 359 -307 49 -17 127 -13 173 9 24 12 82 65 144 131 158 169 174 189 167 219 -4 24 -2 26 25 22 26 -4 44 11 203 174 95 99 175 181 176 184 2 3 -172 179 -386 392 l-390 388 -54 -55z" fill="#3b95ed"/>
<path d="M3268 18838 c-26 -29 -96 -110 -156 -180 -59 -70 -111 -127 -117 -127 -5 0 -70 51 -143 114 -148 127 -165 134 -213 86 -28 -29 -35 -53 -23 -84 3 -8 66 -66 140 -128 74 -62 134 -114 134 -117 0 -2 -32 -43 -72 -90 -70 -83 -71 -85 -51 -101 80 -64 95 -74 101 -64 4 5 36 44 71 86 55 66 66 75 79 65 9 -7 172 -144 363 -304 190 -160 351 -294 357 -298 14 -9 310 339 335 393 22 50 19 119 -7 169 -16 31 -186 191 -223 211 -42 22 -103 -22 -103 -75 0 -28 11 -42 88 -109 100 -88 119 -116 103 -152 -14 -30 -192 -235 -201 -231 -14 5 -620 523 -620 529 0 3 62 77 138 164 188 215 190 219 151 269 -34 44 -73 36 -131 -26z" fill="#3b95ed"/>
<path d="M2608 18036 c-25 -10 -143 -153 -351 -425 -108 -140 -127 -192 -103 -273 9 -29 25 -63 36 -76 11 -13 178 -143 372 -289 319 -239 356 -264 383 -259 63 12 87 87 41 129 -13 12 -78 63 -145 112 -66 50 -120 94 -121 98 0 5 70 98 156 208 86 110 154 201 153 203 -2 1 -27 21 -56 44 l-52 43 -93 -118 c-51 -65 -124 -157 -161 -206 l-68 -87 -82 62 c-200 151 -217 167 -217 199 0 33 35 82 277 387 63 79 118 153 122 165 21 55 -37 107 -91 83z" fill="#3b95ed"/>
<path d="M1905 17091 c-64 -30 -76 -44 -339 -421 -86 -123 -153 -227 -149 -230 36 -32 770 -523 794 -532 45 -15 130 -5 172 21 26 16 90 97 210 264 94 132 188 264 209 291 l36 51 -365 270 c-201 149 -382 278 -402 287 -47 23 -116 22 -166 -1z m396 -352 c167 -122 310 -226 316 -233 10 -9 -19 -57 -140 -225 -83 -118 -160 -219 -169 -225 -12 -7 -26 -7 -45 0 -16 6 -167 106 -336 224 l-308 213 17 26 c57 88 305 430 316 434 7 3 20 6 29 6 9 1 153 -98 320 -220z" fill="#3b95ed"/>
<path d="M1216 16157 c-321 -494 -336 -520 -336 -587 0 -43 20 -98 45 -129 32 -37 237 -165 293 -182 59 -17 137 1 186 44 21 18 99 129 174 247 98 153 145 217 163 224 21 7 41 -2 137 -64 78 -50 114 -79 118 -96 7 -26 16 -10 -201 -349 -154 -240 -156 -245 -129 -282 17 -22 29 -28 60 -28 36 0 41 4 76 55 103 154 311 486 324 515 31 75 10 179 -48 231 -36 33 -206 144 -244 160 -75 31 -163 7 -224 -62 -19 -22 -91 -128 -160 -236 -123 -194 -151 -225 -188 -210 -34 13 -191 114 -208 133 -39 43 -37 48 269 517 48 73 87 137 87 142 0 9 -98 80 -110 80 -3 0 -41 -55 -84 -123z" fill="#3b95ed"/>
<path d="M18967 13857 c-74 -89 -171 -205 -216 -257 -96 -112 -120 -170 -101 -241 17 -63 35 -84 153 -185 124 -106 168 -124 250 -103 62 15 92 44 260 244 113 135 148 171 170 173 22 3 45 -11 115 -69 48 -40 90 -78 94 -84 21 -29 -1 -64 -192 -289 -174 -205 -200 -240 -200 -269 0 -42 26 -67 68 -67 35 0 50 16 301 315 152 182 181 230 181 299 -1 64 -34 111 -145 203 -121 101 -142 112 -207 113 -93 0 -104 -8 -291 -230 -161 -190 -171 -200 -196 -200 -19 0 -139 93 -188 147 -45 48 -38 61 182 323 113 135 205 247 205 250 0 3 -24 24 -54 47 l-54 43 -135 -163z"/>
<path d="M20200 13900 c-26 -26 -26 -81 -2 -103 45 -40 122 -6 122 53 0 17 -9 39 -20 50 -11 11 -33 20 -50 20 -17 0 -39 -9 -50 -20z"/>
<path d="M19992 13637 c-46 -49 -16 -121 50 -119 39 1 68 32 68 73 0 62 -75 91 -118 46z"/>
<path d="M18368 13132 c-54 -31 -347 -351 -378 -413 -23 -44 -26 -116 -7 -162 14 -32 109 -125 496 -482 l193 -179 50 52 c27 29 48 56 46 62 -2 5 -147 141 -324 303 -177 162 -324 302 -328 312 -3 9 -2 24 3 33 18 34 297 340 320 351 19 10 28 9 49 -5 14 -9 159 -135 322 -279 163 -144 305 -265 317 -269 43 -14 92 29 93 80 0 28 -29 56 -325 315 -178 156 -337 289 -352 296 -50 22 -123 16 -175 -15z"/>
<path d="M17695 12396 c-28 -12 -88 -72 -400 -394 l-110 -113 324 -317 c181 -177 339 -325 360 -334 47 -23 106 -22 156 1 39 18 153 130 403 394 62 65 112 122 112 126 0 16 -652 617 -688 633 -44 21 -115 22 -157 4z m153 -188 c32 -29 156 -145 275 -257 l216 -204 -156 -164 c-179 -188 -207 -213 -234 -213 -12 0 -120 98 -285 259 -146 143 -266 262 -267 265 -1 2 76 86 171 185 130 135 180 181 197 181 15 0 47 -20 83 -52z"/>
<path d="M16754 12020 c-26 -10 -54 -48 -54 -73 0 -10 11 -29 26 -43 19 -20 31 -24 52 -19 40 10 62 34 62 69 0 37 -7 49 -37 65 -25 13 -21 12 -49 1z"/>
<path d="M17013 11718 l-52 -51 356 -364 c196 -200 366 -366 379 -369 26 -7 79 18 88 41 21 55 18 58 -357 433 l-362 362 -52 -52z"/>
<path d="M16747 11453 c-34 -31 -106 -100 -159 -152 l-97 -94 -126 131 c-140 146 -161 156 -210 107 -46 -45 -40 -57 145 -249 l85 -89 -77 -71 -76 -71 48 -53 48 -54 77 74 77 73 47 -52 c90 -100 585 -623 591 -623 3 0 85 78 182 173 193 187 208 211 193 301 -8 57 -18 71 -121 180 -78 82 -96 96 -123 96 -40 0 -81 -39 -81 -76 0 -20 22 -49 90 -118 67 -69 90 -99 90 -118 0 -21 -23 -48 -105 -125 -58 -54 -110 -98 -115 -98 -6 0 -130 126 -276 280 l-266 280 156 150 c139 133 157 154 156 182 0 35 -38 73 -72 73 -11 0 -47 -26 -81 -57z"/>
<path d="M15935 10694 c-88 -80 -164 -155 -168 -167 -16 -43 26 -87 83 -87 10 0 66 43 124 96 58 53 110 94 114 92 12 -5 162 -170 162 -178 0 -6 -299 -277 -353 -320 -36 -29 -77 -116 -77 -165 0 -22 8 -57 18 -77 10 -20 92 -120 182 -222 144 -164 165 -185 179 -173 62 52 461 410 483 433 55 58 73 149 44 217 -10 24 -619 699 -629 697 -1 -1 -74 -66 -162 -146z m536 -480 c63 -69 116 -130 117 -135 12 -30 -23 -71 -185 -216 -98 -88 -183 -162 -190 -166 -7 -5 -56 43 -128 124 -95 106 -116 135 -113 157 2 20 49 68 188 194 102 92 188 167 191 168 4 0 58 -57 120 -126z"/>
<path d="M14683 10140 c-26 -10 -43 -40 -43 -72 0 -14 41 -72 110 -155 61 -73 110 -137 110 -142 0 -4 -34 -36 -75 -70 l-75 -63 20 -26 c60 -81 68 -87 87 -71 10 8 46 39 80 67 l62 53 291 -353 c161 -194 298 -353 305 -353 7 0 92 66 188 147 215 181 240 221 207 339 -9 33 -131 189 -182 232 -28 24 -65 21 -93 -8 -43 -42 -34 -69 55 -175 44 -52 80 -104 80 -115 0 -29 -10 -40 -128 -139 l-103 -86 -162 193 c-271 322 -332 397 -332 409 0 6 70 70 155 142 93 79 159 143 164 159 13 37 -19 81 -62 85 -32 3 -34 2 -259 -191 -51 -43 -97 -77 -102 -75 -5 1 -56 60 -115 130 -124 149 -135 157 -183 138z"/>
<path d="M14280 9807 c-38 -19 -57 -59 -42 -91 25 -55 102 -52 129 5 17 34 6 67 -28 84 -33 18 -28 18 -59 2z"/>
<path d="M14511 9479 c-31 -25 -48 -45 -44 -52 4 -7 148 -189 321 -404 295 -369 316 -393 346 -393 61 0 100 54 75 102 -18 34 -629 788 -638 788 -5 0 -31 -18 -60 -41z"/>
<path d="M14205 9226 c-48 -21 -279 -205 -288 -228 -4 -12 -6 -27 -3 -33 2 -7 -8 -9 -30 -7 -31 4 -54 -11 -238 -149 -116 -86 -202 -157 -199 -163 4 -6 146 -201 316 -433 l309 -422 42 30 c77 56 78 57 70 71 -4 7 -126 173 -270 368 -144 195 -263 359 -264 363 -2 13 263 208 270 200 4 -5 85 -111 180 -238 95 -126 180 -236 188 -242 40 -33 108 -2 117 52 5 27 -14 55 -180 272 -102 133 -185 246 -185 251 0 14 221 182 239 182 9 0 22 -4 29 -8 6 -5 128 -156 270 -338 238 -304 260 -329 291 -332 44 -4 81 29 81 72 0 46 -509 691 -571 724 -48 25 -126 29 -174 8z"/>
<path d="M12991 8824 c-26 -33 -26 -55 -3 -85 40 -48 122 -17 122 46 0 64 -79 90 -119 39z"/>
<path d="M13237 8509 c-39 -28 -55 -45 -49 -53 5 -6 140 -194 300 -417 189 -263 299 -409 313 -412 47 -12 104 37 97 83 -3 20 -586 838 -598 839 -3 1 -31 -17 -63 -40z"/>
<path d="M12423 7940 c-25 -10 -43 -39 -43 -70 0 -22 429 -670 479 -723 14 -16 38 -35 53 -43 38 -20 135 -17 183 5 31 14 295 192 538 363 l27 20 -41 59 -42 59 -81 -58 c-268 -189 -454 -314 -475 -319 -13 -3 -31 -2 -39 4 -8 5 -120 164 -248 353 -128 189 -241 347 -251 351 -24 10 -33 10 -60 -1z"/>
<path d="M11465 7322 c-22 -14 -143 -88 -270 -165 -126 -76 -243 -151 -259 -166 -35 -32 -65 -95 -66 -137 0 -47 21 -98 90 -214 97 -164 107 -177 166 -206 95 -46 118 -39 381 119 124 75 229 134 234 132 21 -14 110 -177 107 -197 -2 -17 -31 -40 -103 -85 -183 -112 -189 -117 -200 -146 -15 -43 10 -81 57 -85 30 -3 57 10 170 79 73 44 146 93 162 108 56 51 80 142 56 206 -9 24 -463 760 -479 776 -3 4 -24 -5 -46 -19z m95 -338 c56 -91 98 -169 94 -173 -37 -33 -416 -251 -436 -251 -32 0 -52 24 -126 151 -45 76 -62 115 -62 141 l0 36 213 130 c116 72 213 131 213 131 1 1 48 -74 104 -165z" fill="#3b95ed"/>
<path d="M10500 6743 c-30 -12 -406 -226 -436 -249 -40 -30 -74 -99 -74 -150 1 -52 7 -65 240 -494 l201 -370 47 24 c99 51 112 5 -126 438 -117 212 -212 394 -212 404 0 11 4 24 8 30 11 18 401 234 421 234 10 0 26 -9 35 -19 10 -10 108 -178 220 -372 167 -293 207 -355 230 -364 34 -12 75 9 94 48 11 22 10 31 -4 59 -57 110 -410 708 -432 732 -15 16 -41 35 -59 42 -32 14 -124 18 -153 7z" fill="#3b95ed"/>
<path d="M9495 6645 c-14 -13 -25 -33 -25 -45 0 -27 43 -70 70 -70 24 0 80 51 80 73 0 8 -9 26 -21 41 -27 34 -71 35 -104 1z" fill="#3b95ed"/>
<path d="M9705 6306 c-35 -20 -59 -40 -57 -47 7 -29 465 -885 480 -896 41 -32 122 6 122 58 0 17 -456 884 -479 911 -4 4 -33 -8 -66 -26z" fill="#3b95ed"/>
<path d="M9350 6110 c-19 -5 -133 -59 -252 -120 -236 -121 -267 -145 -287 -227 -8 -31 -8 -55 -1 -82 11 -42 396 -831 405 -831 14 0 125 61 125 69 0 4 -88 187 -196 405 -136 275 -194 402 -189 415 7 23 404 231 440 231 13 0 28 -6 34 -14 6 -7 95 -175 197 -372 102 -198 195 -367 207 -377 41 -36 117 3 117 59 0 31 -374 746 -413 791 -19 21 -47 38 -80 48 -56 17 -57 17 -107 5z" fill="#3b95ed"/>
<path d="M8343 6070 c-43 -17 -58 -84 -25 -113 10 -10 33 -17 50 -17 67 0 97 79 46 119 -29 23 -38 24 -71 11z" fill="#3b95ed"/>
<path d="M8507 5699 c-32 -16 -56 -33 -53 -37 2 -4 99 -207 216 -452 117 -245 219 -453 227 -462 18 -20 64 -24 92 -8 10 5 24 22 30 38 11 27 -1 56 -210 490 -123 254 -228 462 -234 462 -5 -1 -36 -14 -68 -31z" fill="#3b95ed"/>
<path d="M8200 5555 c-14 -8 -133 -63 -265 -122 -271 -122 -312 -151 -334 -237 -7 -27 -9 -63 -5 -80 6 -27 305 -720 340 -787 26 -52 111 -45 134 11 11 26 6 42 -53 177 -36 81 -67 154 -69 161 -2 9 71 47 217 113 121 55 221 101 222 103 5 5 -51 126 -58 126 -4 0 -105 -45 -225 -99 l-219 -99 -33 71 c-19 40 -52 114 -74 166 -40 93 -40 94 -22 118 13 16 103 63 269 139 138 63 261 122 275 132 33 25 38 74 11 101 -24 24 -74 27 -111 6z" fill="#3b95ed"/>
<path d="M6203 5138 c-49 -23 -46 -52 23 -228 35 -90 61 -166 59 -170 -2 -3 -104 -44 -227 -90 -123 -46 -240 -95 -260 -109 -77 -54 -110 -140 -85 -221 17 -53 297 -824 302 -828 8 -8 638 238 669 262 20 15 45 45 56 66 40 79 39 85 -210 718 -127 322 -238 591 -248 598 -20 16 -49 17 -79 2z m275 -880 c73 -189 132 -349 132 -357 0 -8 -7 -22 -16 -32 -15 -17 -481 -197 -487 -188 -12 14 -247 673 -247 692 0 13 10 33 23 45 21 19 414 178 448 181 11 1 50 -89 147 -341z" fill="#3b95ed"/>
<path d="M7225 5113 c-57 -14 -465 -189 -493 -210 -43 -33 -70 -77 -78 -129 -5 -38 8 -78 136 -398 78 -195 151 -367 162 -382 31 -38 93 -64 158 -63 44 0 81 10 179 52 143 60 172 86 152 136 -7 16 -25 34 -41 41 -25 10 -41 6 -150 -39 -68 -28 -130 -51 -140 -51 -9 0 -24 8 -34 18 -16 19 -90 191 -84 198 3 2 500 211 601 252 20 8 37 18 37 23 0 16 -194 456 -212 480 -38 51 -135 87 -193 72z m69 -162 c23 -25 146 -314 137 -323 -8 -9 -493 -209 -497 -205 -2 1 -33 76 -69 165 -64 157 -71 193 -42 206 130 58 417 175 433 175 11 1 29 -8 38 -18z" fill="#3b95ed"/>
<path d="M5080 4299 c-248 -84 -290 -106 -322 -170 -33 -63 -24 -106 91 -462 61 -185 117 -349 125 -366 23 -43 74 -79 133 -92 48 -11 59 -10 155 21 180 57 205 68 217 99 16 37 -2 77 -40 90 -23 8 -50 3 -146 -30 -128 -43 -154 -46 -176 -24 -17 17 -80 196 -71 204 2 3 147 54 321 113 174 59 321 112 326 117 12 12 -143 450 -178 502 -30 46 -97 79 -156 78 -27 0 -133 -30 -279 -80z m303 -81 c17 -15 42 -72 76 -169 28 -81 51 -151 51 -157 0 -6 -37 -23 -82 -40 -146 -52 -429 -144 -432 -141 -12 14 -114 343 -110 353 3 8 22 21 42 30 35 15 409 144 424 145 4 1 18 -9 31 -21z" fill="#3b95ed"/>
<path d="M4060 3971 c-157 -48 -299 -91 -316 -96 l-31 -10 141 -485 c77 -267 145 -491 149 -498 28 -43 120 -27 133 23 4 18 -6 70 -31 156 -21 71 -36 132 -33 135 3 3 56 21 118 39 l112 34 219 -105 c229 -109 248 -114 284 -74 10 11 15 31 13 52 -3 32 -7 35 -158 110 -152 75 -155 77 -125 88 84 32 155 120 155 194 0 17 -29 120 -65 231 -54 170 -69 205 -97 232 -41 40 -96 63 -145 62 -21 0 -166 -40 -323 -88z m364 -83 c14 -24 116 -340 116 -362 0 -29 -50 -51 -267 -117 -125 -38 -233 -69 -239 -69 -13 0 -139 418 -129 428 13 14 431 140 467 141 29 1 41 -4 52 -21z" fill="#3b95ed"/>
</g>
</svg>
