<svg xmlns="http://www.w3.org/2000/svg" version="1" viewBox="0 0 2200 2800">
  <g xmlns="http://www.w3.org/2000/svg">
    <path d="M1646.5 140.1c-4.4 1-19 4.4-32.5 7.5-13.5 3.1-26.1 6.3-28 7.1-7.2 2.9-13 11-13 17.9 0 5.2 21 88.3 22.7 90 2.1 2.1 6.1 2.8 8.9 1.5 5.5-2.4 5.4-2.8-5.5-47.3-5.6-22.7-10.1-42.5-10.1-44 0-1.8.8-3.3 2.3-4.3 3.1-2 54-13.7 54.7-12.5.3.5 1.4 5 2.4 9.9 1.4 7.1 2.2 9.1 3.5 9.1 3.7-.1 13.6-2.7 13.5-3.6-.1-.5-1.6-8.2-3.4-17.2-3.8-18.6-2.3-17.2-15.5-14.1zm-133 32.9c-41.7 11.7-52.6 15.2-52 16.9.2.9 6.3 21.2 13.5 45.1 14.1 46.8 14.7 48.3 22.6 52.4 6.4 3.4 12.2 2.7 39.4-5.1 13.5-3.8 27.8-7.8 31.9-8.9 4-1 7.5-2.4 7.8-3 .7-2-22.5-89.4-24.8-93-1.1-1.9-4-4.6-6.4-5.9-7.3-4.4-11.7-4.1-32 1.5zm24.4 11.4c1.7 2 21.3 75.8 20.4 76.6-1.3 1.1-48.9 14-51.7 14-2 0-3-.8-4.2-3.3-1.4-3-22.5-73.9-22.1-74.3.1-.1 11-3.2 24.2-6.8 13.2-3.7 24.5-6.9 25-7.1 2.5-.9 7.4-.4 8.4.9zm-168.1-9.9c-4.8 2.7-4.6 5.4 1.5 23.8 5.5 16.7 5.5 16.8 3.4 17.6-1.2.4-5.9 2.1-10.4 3.7-4.6 1.6-8.3 3.4-8.3 4.1 0 1.1 3.8 11.4 4.4 12.1.2.1 4.9-1.4 10.6-3.3 5.6-2 10.4-3.4 10.6-3.2.2.2 7.2 20.3 15.5 44.8 8.3 24.4 15.5 44.8 15.9 45.3.5.4 11.2-2.6 24-6.9 20.5-6.8 23.7-8.2 26.9-11.4 3.7-3.7 6.1-9.5 6.1-14.7 0-3.9-7-26.4-8.8-28.7-2.2-2.6-8.3-2.3-11 .6-2.9 3-2.8 4.3 1.2 16.7 3.4 10.7 3.5 15.2.4 17.2-1.8 1.1-28.9 10.1-29.2 9.7-.6-.7-25.6-76.4-25.6-77.4 0-.6 10.1-4.3 22.4-8.3 12.3-3.9 22.8-7.7 23.4-8.4.6-.7 1.3-2.5 1.7-4 .5-2.1.1-3.3-1.9-5.2-1.4-1.5-3.5-2.6-4.8-2.6-1.3 0-12 3.1-23.8 7-11.8 3.8-21.8 6.6-22.1 6.2-.4-.4-3-7.9-5.9-16.7-2.9-8.8-5.8-16.6-6.4-17.2-1.9-2.1-6.9-2.4-9.8-.8zm-55 62.9c-11.9 4.4-22.6 9-23.8 10-3.2 3.1-2.4 7.3 2.1 9.9l3.6 2.1 13.9-5.2c7.6-2.8 14.5-5.3 15.2-5.4 1.7-.4 10.9 23.9 9.6 25.2-.5.5-11.1 4.7-23.6 9.4-12.5 4.7-24.5 9.4-26.7 10.5-7.6 3.9-13.1 13.5-11.7 20.5.6 3.2 18.4 48.5 19.5 49.9.4.4 4.7-.9 9.7-2.9 4.9-2 19.3-7.6 31.9-12.5 15.9-6 24.2-9.8 26.9-12 5-4.2 8-10.8 7.4-16.4-.4-3.4-29.5-86.2-31.7-90.1-.4-.8-7.7 1.5-22.3 7zm33.1 67.5c4 10.8 6 17.7 5.6 19-.5 1.6-9.7 7.1-11.9 7.1-.3 0-9.4 3.4-20.2 7.5-10.8 4.2-19.7 7.5-19.8 7.3-1.7-2.8-12.6-32.5-12.6-34.2 0-1.3.8-3 1.8-4 1.8-1.5 47.4-19.5 49.8-19.6.6 0 3.9 7.6 7.3 16.9zm-210-38c-1.6 1.6-2.9 3.6-2.9 4.4 0 2 52.6 117.4 55.2 120.9 3.2 4.5 9.4 7.2 16.3 7.2 5.4-.1 8.5-1.2 29.3-10.3 12.9-5.6 24.6-11.1 26.2-12.2 4.5-3.4 7.3-9.4 7.3-15.8 0-5-2-10.5-17.8-48.8l-17.9-43.1-4.7 1.8c-5.2 2.1-50 21.3-59 25.3l-5.7 2.6-6.7-15.2c-3.8-8.4-7.9-16.2-9.2-17.5-3.3-3-6.9-2.8-10.4.7zm91.4 32.8c19.8 46.8 24.7 59.1 24.7 61.5 0 1.6-.8 3.5-1.9 4.4-2.7 2.3-42.7 19.4-45.3 19.4-1.3 0-2.8-.4-3.5-.8-1-.7-10.9-22-28.9-62.5-4.3-9.8-4.3-9.8-2.1-10.7 1.2-.5 13-5.6 26.2-11.4 13.2-5.8 24.5-10.5 25.2-10.5.6-.1 3.2 4.7 5.6 10.6zm-104.5 18.4c-3.2 1.6-5.8 3.2-5.8 3.4 0 .3 9 19.5 20 42.7 11 23.3 20 42.6 20 43 0 .5-10.2 5.8-22.7 11.9-18 8.7-23.5 10.9-26.3 10.7l-3.5-.3-19.6-38.8c-10.7-21.4-20.2-39.3-21-39.8-4.3-2.7-12.1 1.3-12.1 6.3 0 3.2 37.4 76.9 41.4 81.3 1.6 1.9 4.9 4.1 7.4 5.1 8.3 3.1 11.8 2 45.7-14.3 16.9-8.1 30.7-15 30.7-15.3-.1-2.2-46-98.5-47.1-98.7-.8-.1-4 1.1-7.1 2.8zm-120.3 59.5c-38.1 20.5-39.6 21.6-42.5 30.7-2.4 7.5-1.2 10.2 23.1 52.9 12.6 22.1 23.3 40.4 23.8 40.6.4.1 9.9-4.9 21.2-11.1 11.2-6.3 25.8-14.2 32.4-17.7 19.3-10.2 19.5-10.4 19.5-15 0-4.3-2.6-7-6.8-7-2.2 0-16.3 7.3-46.1 23.7-7.3 4.1-13.7 7.3-14.2 7.1-1.5-.5-37.9-66.2-37.9-68.4 0-1.2.8-3.1 1.8-4.3 1.6-2 45-26.1 46.9-26.1.5 0 2.9 3.7 5.3 8.2 5.3 10.2 7.6 12.8 11 12.8 4 0 8-3.5 8-7.1 0-3.5-15.6-33.9-17.3-33.9-.7 0-13.3 6.6-28.2 14.6zM924 424.3c-4.2 1.2-41.4 22.9-48.7 28.4-3.8 2.9-8.3 11.4-8.3 15.8 0 1.6.4 4.4.9 6.1 1.1 3.8 49.9 81.4 51.2 81.4.9 0 11.9-7 11.9-7.5 0-.2-10.8-17.6-24-38.9-13.3-21.2-24.3-39.3-24.6-40.1-.4-.8.1-2.6.9-3.9 1.9-2.9 42.6-27.6 45.5-27.6 1.1 0 2.7.6 3.5 1.4.7.8 11.2 18.1 23.2 38.6 23.3 39.6 23.9 40.3 29.7 37.9 3.2-1.3 4.8-3.6 4.8-6.9 0-2.5-42-75.3-45.8-79.3-5.2-5.6-12.5-7.5-20.2-5.4zm-113.1 69.6c-42.1 28-39.9 26.2-39.9 31 0 4.4 2.6 7.1 6.7 7.1 1.2 0 8.3-4.1 15.7-9.2 7.5-5 13.7-9 13.9-8.7 1.9 2.3 45.7 68.2 45.5 68.4-.2.1-4.4 2.9-9.4 6.3-4.9 3.3-11.5 7.8-14.6 9.9l-5.6 4 3.6 5.6c2 3.1 4 5.7 4.3 5.7.4 0 15.8-10.2 34.3-22.6 22.9-15.3 34-23.3 34.6-25 1.8-4.5-1.8-9.4-6.8-9.4-1.1 0-7.8 3.8-14.8 8.4l-12.8 8.5-7.5-11.2c-4.1-6.2-14.4-21.7-22.8-34.5L820 504.9l15.5-10.1 15.5-10.1-1.7-2.6c-.9-1.4-2.6-4.1-3.7-5.8-1.2-1.8-2.4-3.3-2.7-3.3-.4 0-14.8 9.4-32 20.9z"/>
    <path fill="#3b95ed" d="M669.9 596.9c-1.4.5-3.6 1.4-5 2.1-3.4 1.9-38.8 30.2-42.6 34.2-5.8 6-7.6 13.4-5 20.5 1.4 3.8 47.7 60.5 52.2 63.8 1.6 1.3 5 2.8 7.4 3.5 7.5 2 12.7 0 24.5-9.2 5.5-4.4 10.9-8.9 11.9-10 2.5-2.9 2.2-8.3-.5-10.2-4.2-3-6.8-2-17.3 6.4-10.4 8.4-13.2 9.8-16 8.3-1.8-1-14.5-16.3-14.5-17.4 0-.7 22.7-18.9 44.6-35.9l12.2-9.4-12-15.7c-17.6-23.1-21-27.1-24.5-29.1-3.6-2.1-11.6-3.1-15.4-1.9zm8.5 16.3c1.4 1.3 7 8.1 12.6 15.3l10 13-2.4 1.8c-1.3.9-11.5 8.9-22.5 17.7-11.1 8.8-20.5 16-20.9 16-.6-.1-19.4-22.9-23-28-.8-1.1-1.1-2.8-.7-4 .9-2.7 40-34 42.5-34 1 0 3 1 4.4 2.2zm-108 62.5c-27.7 23.7-34.6 30.5-36.2 35.9-1.7 5.7-1.5 9.2.7 14 2.1 4.6 59.2 68.5 62.3 69.6 2.8 1.1 6.6-.1 8.3-2.5 3.5-5.1 3-5.9-28-40.7-18.7-21-29.5-33.9-29.5-35.2 0-2.5 2.3-4.8 24.9-24.3l17.3-14.9 3.2 3.4c1.7 2 4.7 5.5 6.8 7.9l3.6 4.5 3.4-2.6c1.8-1.5 4.5-3.7 6-5l2.7-2.3-10.9-13c-6-7.1-11.3-13.1-11.8-13.3-.5-.1-10.7 8.2-22.8 18.5zm-76.1 68.2c-19.2 17.9-20.6 19.6-19.8 23.1.9 3.5 1.7 4.1 6.3 4.7 3.9.5 4.2.4 15.9-10.5l11.9-11 9.3 10.1 9.4 10-6.4 6.1c-32.6 30.9-35.7 34.1-37.4 39.9-3.2 11.1-1.1 14.8 22.2 37.9l16.8 16.6 25-23.9c13.8-13.1 25.9-25.5 26.9-27.6 2.7-5.1 3.1-12.9.9-17.5-1-2.1-15.1-18.2-31.3-35.8-16.2-17.7-30.4-33.2-31.6-34.6l-2.1-2.6-16 15.1zm67.2 64.7c.7 1.8.5 3.1-.5 4.7-1.7 2.5-36.9 36.2-37.9 36.2-1.3 0-24.9-25.1-25.5-27.2-.9-2.8 1.6-5.6 23.1-25.9l16.2-15.5 11.8 12.6c6.5 7 12.2 13.7 12.8 15.1zM426 811.5l-5.5 5.5 34.4 33.8 34.3 33.7-11.5 11.3-11.4 11.4-19.9-19-19.8-19-5.2 5.6-5.2 5.7 12.2 11.5c6.6 6.3 15.6 14.8 19.8 19l7.8 7.5-11.2 12c-13 13.9-14.2 14.9-17.1 14.1-1.2-.3-16.4-13.6-33.7-29.5-29.1-26.8-31.8-29-35.2-29-2.8-.1-4.1.5-5.8 2.6-4.6 5.9-4.4 6.1 31.3 38.5 18.1 16.3 34.3 30.1 35.9 30.7 4.9 1.7 12.7 1.3 17.3-.9 2.4-1.2 8.2-6.5 14.4-13.1 15.8-16.9 17.4-18.9 16.7-21.9-.4-2.4-.2-2.6 2.5-2.2 2.6.4 4.4-1.1 20.3-17.4 9.5-9.9 17.5-18.1 17.6-18.4.2-.3-17.2-17.9-38.6-39.2l-39-38.8-5.4 5.5zm-99.2 104.7c-2.6 2.9-9.6 11-15.6 18-5.9 7-11.1 12.7-11.7 12.7-.5 0-7-5.1-14.3-11.4-14.8-12.7-16.5-13.4-21.3-8.6-2.8 2.9-3.5 5.3-2.3 8.4.3.8 6.6 6.6 14 12.8 7.4 6.2 13.4 11.4 13.4 11.7 0 .2-3.2 4.3-7.2 9-7 8.3-7.1 8.5-5.1 10.1 8 6.4 9.5 7.4 10.1 6.4.4-.5 3.6-4.4 7.1-8.6 5.5-6.6 6.6-7.5 7.9-6.5.9.7 17.2 14.4 36.3 30.4 19 16 35.1 29.4 35.7 29.8 1.4.9 31-33.9 33.5-39.3 2.2-5 1.9-11.9-.7-16.9-1.6-3.1-18.6-19.1-22.3-21.1-4.2-2.2-10.3 2.2-10.3 7.5 0 2.8 1.1 4.2 8.8 10.9 10 8.8 11.9 11.6 10.3 15.2-1.4 3-19.2 23.5-20.1 23.1-1.4-.5-62-52.3-62-52.9 0-.3 6.2-7.7 13.8-16.4 18.8-21.5 19-21.9 15.1-26.9-3.4-4.4-7.3-3.6-13.1 2.6zm-66 80.2c-2.5 1-14.3 15.3-35.1 42.5-10.8 14-12.7 19.2-10.3 27.3.9 2.9 2.5 6.3 3.6 7.6 1.1 1.3 17.8 14.3 37.2 28.9 31.9 23.9 35.6 26.4 38.3 25.9 6.3-1.2 8.7-8.7 4.1-12.9-1.3-1.2-7.8-6.3-14.5-11.2-6.6-5-12-9.4-12.1-9.8 0-.5 7-9.8 15.6-20.8s15.4-20.1 15.3-20.3c-.2-.1-2.7-2.1-5.6-4.4l-5.2-4.3-9.3 11.8c-5.1 6.5-12.4 15.7-16.1 20.6l-6.8 8.7-8.2-6.2c-20-15.1-21.7-16.7-21.7-19.9 0-3.3 3.5-8.2 27.7-38.7 6.3-7.9 11.8-15.3 12.2-16.5 2.1-5.5-3.7-10.7-9.1-8.3zm-70.3 94.5c-6.4 3-7.6 4.4-33.9 42.1-8.6 12.3-15.3 22.7-14.9 23 3.6 3.2 77 52.3 79.4 53.2 4.5 1.5 13 .5 17.2-2.1 2.6-1.6 9-9.7 21-26.4 9.4-13.2 18.8-26.4 20.9-29.1l3.6-5.1-36.5-27c-20.1-14.9-38.2-27.8-40.2-28.7-4.7-2.3-11.6-2.2-16.6.1zm39.6 35.2c16.7 12.2 31 22.6 31.6 23.3 1 .9-1.9 5.7-14 22.5-8.3 11.8-16 21.9-16.9 22.5-1.2.7-2.6.7-4.5 0-1.6-.6-16.7-10.6-33.6-22.4l-30.8-21.3 1.7-2.6c5.7-8.8 30.5-43 31.6-43.4.7-.3 2-.6 2.9-.6.9-.1 15.3 9.8 32 22zm-108.5 58.2c-32.1 49.4-33.6 52-33.6 58.7 0 4.3 2 9.8 4.5 12.9 3.2 3.7 23.7 16.5 29.3 18.2 5.9 1.7 13.7-.1 18.6-4.4 2.1-1.8 9.9-12.9 17.4-24.7 9.8-15.3 14.5-21.7 16.3-22.4 2.1-.7 4.1.2 13.7 6.4 7.8 5 11.4 7.9 11.8 9.6.7 2.6 1.6 1-20.1 34.9-15.4 24-15.6 24.5-12.9 28.2 1.7 2.2 2.9 2.8 6 2.8 3.6 0 4.1-.4 7.6-5.5 10.3-15.4 31.1-48.6 32.4-51.5 3.1-7.5 1-17.9-4.8-23.1-3.6-3.3-20.6-14.4-24.4-16-7.5-3.1-16.3-.7-22.4 6.2-1.9 2.2-9.1 12.8-16 23.6-12.3 19.4-15.1 22.5-18.8 21-3.4-1.3-19.1-11.4-20.8-13.3-3.9-4.3-3.7-4.8 26.9-51.7 4.8-7.3 8.7-13.7 8.7-14.2 0-.9-9.8-8-11-8-.3 0-4.1 5.5-8.4 12.3z"/>
    <path d="M1896.7 1414.3c-7.4 8.9-17.1 20.5-21.6 25.7-9.6 11.2-12 17-10.1 24.1 1.7 6.3 3.5 8.4 15.3 18.5 12.4 10.6 16.8 12.4 25 10.3 6.2-1.5 9.2-4.4 26-24.4 11.3-13.5 14.8-17.1 17-17.3 2.2-.3 4.5 1.1 11.5 6.9 4.8 4 9 7.8 9.4 8.4 2.1 2.9-.1 6.4-19.2 28.9-17.4 20.5-20 24-20 26.9 0 4.2 2.6 6.7 6.8 6.7 3.5 0 5-1.6 30.1-31.5 15.2-18.2 18.1-23 18.1-29.9-.1-6.4-3.4-11.1-14.5-20.3-12.1-10.1-14.2-11.2-20.7-11.3-9.3 0-10.4.8-29.1 23-16.1 19-17.1 20-19.6 20-1.9 0-13.9-9.3-18.8-14.7-4.5-4.8-3.8-6.1 18.2-32.3 11.3-13.5 20.5-24.7 20.5-25 0-.3-2.4-2.4-5.4-4.7l-5.4-4.3-13.5 16.3zm123.3-4.3c-2.6 2.6-2.6 8.1-.2 10.3 4.5 4 12.2.6 12.2-5.3 0-1.7-.9-3.9-2-5s-3.3-2-5-2c-1.7 0-3.9.9-5 2zm-20.8 26.3c-4.6 4.9-1.6 12.1 5 11.9 3.9-.1 6.8-3.2 6.8-7.3 0-6.2-7.5-9.1-11.8-4.6zm-162.4 50.5c-5.4 3.1-34.7 35.1-37.8 41.3-2.3 4.4-2.6 11.6-.7 16.2 1.4 3.2 10.9 12.5 49.6 48.2l19.3 17.9 5-5.2c2.7-2.9 4.8-5.6 4.6-6.2-.2-.5-14.7-14.1-32.4-30.3-17.7-16.2-32.4-30.2-32.8-31.2-.3-.9-.2-2.4.3-3.3 1.8-3.4 29.7-34 32-35.1 1.9-1 2.8-.9 4.9.5 1.4.9 15.9 13.5 32.2 27.9 16.3 14.4 30.5 26.5 31.7 26.9 4.3 1.4 9.2-2.9 9.3-8 0-2.8-2.9-5.6-32.5-31.5-17.8-15.6-33.7-28.9-35.2-29.6-5-2.2-12.3-1.6-17.5 1.5zm-67.3 73.6c-2.8 1.2-8.8 7.2-40 39.4l-11 11.3 32.4 31.7c18.1 17.7 33.9 32.5 36 33.4 4.7 2.3 10.6 2.2 15.6-.1 3.9-1.8 15.3-13 40.3-39.4 6.2-6.5 11.2-12.2 11.2-12.6 0-1.6-65.2-61.7-68.8-63.3-4.4-2.1-11.5-2.2-15.7-.4zm15.3 18.8c3.2 2.9 15.6 14.5 27.5 25.7l21.6 20.4-15.6 16.4c-17.9 18.8-20.7 21.3-23.4 21.3-1.2 0-12-9.8-28.5-25.9-14.6-14.3-26.6-26.2-26.7-26.5-.1-.2 7.6-8.6 17.1-18.5 13-13.5 18-18.1 19.7-18.1 1.5 0 4.7 2 8.3 5.2zm-109.4 18.8c-2.6 1-5.4 4.8-5.4 7.3 0 1 1.1 2.9 2.6 4.3 1.9 2 3.1 2.4 5.2 1.9 4-1 6.2-3.4 6.2-6.9 0-3.7-.7-4.9-3.7-6.5-2.5-1.3-2.1-1.2-4.9-.1zm25.9 30.2l-5.2 5.1 35.6 36.4c19.6 20 36.6 36.6 37.9 36.9 2.6.7 7.9-1.8 8.8-4.1 2.1-5.5 1.8-5.8-35.7-43.3l-36.2-36.2-5.2 5.2zm-26.6 26.5c-3.4 3.1-10.6 10-15.9 15.2l-9.7 9.4-12.6-13.1c-14-14.6-16.1-15.6-21-10.7-4.6 4.5-4 5.7 14.5 24.9l8.5 8.9-7.7 7.1-7.6 7.1 4.8 5.3 4.8 5.4 7.7-7.4 7.7-7.3 4.7 5.2c9 10 58.5 62.3 59.1 62.3.3 0 8.5-7.8 18.2-17.3 19.3-18.7 20.8-21.1 19.3-30.1-.8-5.7-1.8-7.1-12.1-18-7.8-8.2-9.6-9.6-12.3-9.6-4 0-8.1 3.9-8.1 7.6 0 2 2.2 4.9 9 11.8 6.7 6.9 9 9.9 9 11.8 0 2.1-2.3 4.8-10.5 12.5-5.8 5.4-11 9.8-11.5 9.8-.6 0-13-12.6-27.6-28l-26.6-28 15.6-15c13.9-13.3 15.7-15.4 15.6-18.2 0-3.5-3.8-7.3-7.2-7.3-1.1 0-4.7 2.6-8.1 5.7zm-81.2 75.9c-8.8 8-16.4 15.5-16.8 16.7-1.6 4.3 2.6 8.7 8.3 8.7 1 0 6.6-4.3 12.4-9.6 5.8-5.3 11-9.4 11.4-9.2 1.2.5 16.2 17 16.2 17.8 0 .6-29.9 27.7-35.3 32-3.6 2.9-7.7 11.6-7.7 16.5 0 2.2.8 5.7 1.8 7.7s9.2 12 18.2 22.2c14.4 16.4 16.5 18.5 17.9 17.3 6.2-5.2 46.1-41 48.3-43.3 5.5-5.8 7.3-14.9 4.4-21.7-1-2.4-61.9-69.9-62.9-69.7-.1.1-7.4 6.6-16.2 14.6zm53.6 48c6.3 6.9 11.6 13 11.7 13.5 1.2 3-2.3 7.1-18.5 21.6-9.8 8.8-18.3 16.2-19 16.6-.7.5-5.6-4.3-12.8-12.4-9.5-10.6-11.6-13.5-11.3-15.7.2-2 4.9-6.8 18.8-19.4 10.2-9.2 18.8-16.7 19.1-16.8.4 0 5.8 5.7 12 12.6zm-178.8 7.4c-2.6 1-4.3 4-4.3 7.2 0 1.4 4.1 7.2 11 15.5 6.1 7.3 11 13.7 11 14.2 0 .4-3.4 3.6-7.5 7l-7.5 6.3 2 2.6c6 8.1 6.8 8.7 8.7 7.1 1-.8 4.6-3.9 8-6.7l6.2-5.3 29.1 35.3c16.1 19.4 29.8 35.3 30.5 35.3.7 0 9.2-6.6 18.8-14.7 21.5-18.1 24-22.1 20.7-33.9-.9-3.3-13.1-18.9-18.2-23.2-2.8-2.4-6.5-2.1-9.3.8-4.3 4.2-3.4 6.9 5.5 17.5 4.4 5.2 8 10.4 8 11.5 0 2.9-1 4-12.8 13.9l-10.3 8.6-16.2-19.3c-27.1-32.2-33.2-39.7-33.2-40.9 0-.6 7-7 15.5-14.2 9.3-7.9 15.9-14.3 16.4-15.9 1.3-3.7-1.9-8.1-6.2-8.5-3.2-.3-3.4-.2-25.9 19.1-5.1 4.3-9.7 7.7-10.2 7.5-.5-.1-5.6-6-11.5-13-12.4-14.9-13.5-15.7-18.3-13.8zm-40.3 33.3c-3.8 1.9-5.7 5.9-4.2 9.1 2.5 5.5 10.2 5.2 12.9-.5 1.7-3.4.6-6.7-2.8-8.4-3.3-1.8-2.8-1.8-5.9-.2zm23.1 32.8c-3.1 2.5-4.8 4.5-4.4 5.2.4.7 14.8 18.9 32.1 40.4 29.5 36.9 31.6 39.3 34.6 39.3 6.1 0 10-5.4 7.5-10.2-1.8-3.4-62.9-78.8-63.8-78.8-.5 0-3.1 1.8-6 4.1zm-30.6 25.3c-4.8 2.1-27.9 20.5-28.8 22.8-.4 1.2-.6 2.7-.3 3.3.2.7-.8.9-3 .7-3.1-.4-5.4 1.1-23.8 14.9-11.6 8.6-20.2 15.7-19.9 16.3.4.6 14.6 20.1 31.6 43.3l30.9 42.2 4.2-3c7.7-5.6 7.8-5.7 7-7.1-.4-.7-12.6-17.3-27-36.8-14.4-19.5-26.3-35.9-26.4-36.3-.2-1.3 26.3-20.8 27-20 .4.5 8.5 11.1 18 23.8 9.5 12.6 18 23.6 18.8 24.2 4 3.3 10.8.2 11.7-5.2.5-2.7-1.4-5.5-18-27.2-10.2-13.3-18.5-24.6-18.5-25.1 0-1.4 22.1-18.2 23.9-18.2.9 0 2.2.4 2.9.8.6.5 12.8 15.6 27 33.8 23.8 30.4 26 32.9 29.1 33.2 4.4.4 8.1-2.9 8.1-7.2 0-4.6-50.9-69.1-57.1-72.4-4.8-2.5-12.6-2.9-17.4-.8zm-121.4 40.2c-2.6 3.3-2.6 5.5-.3 8.5 4 4.8 12.2 1.7 12.2-4.6 0-6.4-7.9-9-11.9-3.9zm24.6 31.5c-3.9 2.8-5.5 4.5-4.9 5.3.5.6 14 19.4 30 41.7 18.9 26.3 29.9 40.9 31.3 41.2 4.7 1.2 10.4-3.7 9.7-8.3-.3-2-58.6-83.8-59.8-83.9-.3-.1-3.1 1.7-6.3 4zm-81.4 56.9c-2.5 1-4.3 3.9-4.3 7 0 2.2 42.9 67 47.9 72.3 1.4 1.6 3.8 3.5 5.3 4.3 3.8 2 13.5 1.7 18.3-.5 3.1-1.4 29.5-19.2 53.8-36.3l2.7-2-4.1-5.9-4.2-5.9-8.1 5.8c-26.8 18.9-45.4 31.4-47.5 31.9-1.3.3-3.1.2-3.9-.4-.8-.5-12-16.4-24.8-35.3s-24.1-34.7-25.1-35.1c-2.4-1-3.3-1-6 .1z"/>
    <path fill="#3b95ed" d="M1146.5 2067.8c-2.2 1.4-14.3 8.8-27 16.5-12.6 7.6-24.3 15.1-25.9 16.6-3.5 3.2-6.5 9.5-6.6 13.7 0 4.7 2.1 9.8 9 21.4 9.7 16.4 10.7 17.7 16.6 20.6 9.5 4.6 11.8 3.9 38.1-11.9 12.4-7.5 22.9-13.4 23.4-13.2 2.1 1.4 11 17.7 10.7 19.7-.2 1.7-3.1 4-10.3 8.5-18.3 11.2-18.9 11.7-20 14.6-1.5 4.3 1 8.1 5.7 8.5 3 .3 5.7-1 17-7.9 7.3-4.4 14.6-9.3 16.2-10.8 5.6-5.1 8-14.2 5.6-20.6-.9-2.4-46.3-76-47.9-77.6-.3-.4-2.4.5-4.6 1.9zm9.5 33.8c5.6 9.1 9.8 16.9 9.4 17.3-3.7 3.3-41.6 25.1-43.6 25.1-3.2 0-5.2-2.4-12.6-15.1-4.5-7.6-6.2-11.5-6.2-14.1v-3.6l21.3-13c11.6-7.2 21.3-13.1 21.3-13.1.1-.1 4.8 7.4 10.4 16.5zm-106 24.1c-3 1.2-40.6 22.6-43.6 24.9-4 3-7.4 9.9-7.4 15 .1 5.2.7 6.5 24 49.4l20.1 37 4.7-2.4c9.9-5.1 11.2-.5-12.6-43.8-11.7-21.2-21.2-39.4-21.2-40.4 0-1.1.4-2.4.8-3 1.1-1.8 40.1-23.4 42.1-23.4 1 0 2.6.9 3.5 1.9 1 1 10.8 17.8 22 37.2 16.7 29.3 20.7 35.5 23 36.4 3.4 1.2 7.5-.9 9.4-4.8 1.1-2.2 1-3.1-.4-5.9-5.7-11-41-70.8-43.2-73.2-1.5-1.6-4.1-3.5-5.9-4.2-3.2-1.4-12.4-1.8-15.3-.7zm-100.5 9.8c-1.4 1.3-2.5 3.3-2.5 4.5 0 2.7 4.3 7 7 7 2.4 0 8-5.1 8-7.3 0-.8-.9-2.6-2.1-4.1-2.7-3.4-7.1-3.5-10.4-.1zm21 33.9c-3.5 2-5.9 4-5.7 4.7.7 2.9 46.5 88.5 48 89.6 4.1 3.2 12.2-.6 12.2-5.8 0-1.7-45.6-88.4-47.9-91.1-.4-.4-3.3.8-6.6 2.6zM935 2189c-1.9.5-13.3 5.9-25.2 12-23.6 12.1-26.7 14.5-28.7 22.7-.8 3.1-.8 5.5-.1 8.2 1.1 4.2 39.6 83.1 40.5 83.1 1.4 0 12.5-6.1 12.5-6.9 0-.4-8.8-18.7-19.6-40.5-13.6-27.5-19.4-40.2-18.9-41.5.7-2.3 40.4-23.1 44-23.1 1.3 0 2.8.6 3.4 1.4.6.7 9.5 17.5 19.7 37.2 10.2 19.8 19.5 36.7 20.7 37.7 4.1 3.6 11.7-.3 11.7-5.9 0-3.1-37.4-74.6-41.3-79.1-1.9-2.1-4.7-3.8-8-4.8-5.6-1.7-5.7-1.7-10.7-.5zm-100.7 4c-4.3 1.7-5.8 8.4-2.5 11.3 1 1 3.3 1.7 5 1.7 6.7 0 9.7-7.9 4.6-11.9-2.9-2.3-3.8-2.4-7.1-1.1zm16.4 37.1c-3.2 1.6-5.6 3.3-5.3 3.7.2.4 9.9 20.7 21.6 45.2 11.7 24.5 21.9 45.3 22.7 46.2 1.8 2 6.4 2.4 9.2.8 1-.5 2.4-2.2 3-3.8 1.1-2.7-.1-5.6-21-49-12.3-25.4-22.8-46.2-23.4-46.2-.5.1-3.6 1.4-6.8 3.1zm-30.7 14.4c-1.4.8-13.3 6.3-26.5 12.2-27.1 12.2-31.2 15.1-33.4 23.7-.7 2.7-.9 6.3-.5 8 .6 2.7 30.5 72 34 78.7 2.6 5.2 11.1 4.5 13.4-1.1 1.1-2.6.6-4.2-5.3-17.7-3.6-8.1-6.7-15.4-6.9-16.1-.2-.9 7.1-4.7 21.7-11.3 12.1-5.5 22.1-10.1 22.2-10.3.5-.5-5.1-12.6-5.8-12.6-.4 0-10.5 4.5-22.5 9.9l-21.9 9.9-3.3-7.1c-1.9-4-5.2-11.4-7.4-16.6-4-9.3-4-9.4-2.2-11.8 1.3-1.6 10.3-6.3 26.9-13.9 13.8-6.3 26.1-12.2 27.5-13.2 3.3-2.5 3.8-7.4 1.1-10.1-2.4-2.4-7.4-2.7-11.1-.6zm-199.7 41.7c-4.9 2.3-4.6 5.2 2.3 22.8 3.5 9 6.1 16.6 5.9 17-.2.3-10.4 4.4-22.7 9-12.3 4.6-24 9.5-26 10.9-7.7 5.4-11 14-8.5 22.1 1.7 5.3 29.7 82.4 30.2 82.8.8.8 63.8-23.8 66.9-26.2 2-1.5 4.5-4.5 5.6-6.6 4-7.9 3.9-8.5-21-71.8-12.7-32.2-23.8-59.1-24.8-59.8-2-1.6-4.9-1.7-7.9-.2zm27.5 88c7.3 18.9 13.2 34.9 13.2 35.7 0 .8-.7 2.2-1.6 3.2-1.5 1.7-48.1 19.7-48.7 18.8-1.2-1.4-24.7-67.3-24.7-69.2 0-1.3 1-3.3 2.3-4.5 2.1-1.9 41.4-17.8 44.8-18.1 1.1-.1 5 8.9 14.7 34.1zm74.7-85.5c-5.7 1.4-46.5 18.9-49.3 21-4.3 3.3-7 7.7-7.8 12.9-.5 3.8.8 7.8 13.6 39.8 7.8 19.5 15.1 36.7 16.2 38.2 3.1 3.8 9.3 6.4 15.8 6.3 4.4 0 8.1-1 17.9-5.2 14.3-6 17.2-8.6 15.2-13.6-.7-1.6-2.5-3.4-4.1-4.1-2.5-1-4.1-.6-15 3.9-6.8 2.8-13 5.1-14 5.1-.9 0-2.4-.8-3.4-1.8-1.6-1.9-9-19.1-8.4-19.8.3-.2 50-21.1 60.1-25.2 2-.8 3.7-1.8 3.7-2.3 0-1.6-19.4-45.6-21.2-48-3.8-5.1-13.5-8.7-19.3-7.2zm6.9 16.2c2.3 2.5 14.6 31.4 13.7 32.3-.8.9-49.3 20.9-49.7 20.5-.2-.1-3.3-7.6-6.9-16.5-6.4-15.7-7.1-19.3-4.2-20.6 13-5.8 41.7-17.5 43.3-17.5 1.1-.1 2.9.8 3.8 1.8zM508 2370.1c-24.8 8.4-29 10.6-32.2 17-3.3 6.3-2.4 10.6 9.1 46.2 6.1 18.5 11.7 34.9 12.5 36.6 2.3 4.3 7.4 7.9 13.3 9.2 4.8 1.1 5.9 1 15.5-2.1 18-5.7 20.5-6.8 21.7-9.9 1.6-3.7-.2-7.7-4-9-2.3-.8-5-.3-14.6 3-12.8 4.3-15.4 4.6-17.6 2.4-1.7-1.7-8-19.6-7.1-20.4.2-.3 14.7-5.4 32.1-11.3 17.4-5.9 32.1-11.2 32.6-11.7 1.2-1.2-14.3-45-17.8-50.2-3-4.6-9.7-7.9-15.6-7.8-2.7 0-13.3 3-27.9 8zm30.3 8.1c1.7 1.5 4.2 7.2 7.6 16.9 2.8 8.1 5.1 15.1 5.1 15.7 0 .6-3.7 2.3-8.2 4-14.6 5.2-42.9 14.4-43.2 14.1-1.2-1.4-11.4-34.3-11-35.3.3-.8 2.2-2.1 4.2-3 3.5-1.5 40.9-14.4 42.4-14.5.4-.1 1.8.9 3.1 2.1zM406 2402.9c-15.7 4.8-29.9 9.1-31.6 9.6l-3.1 1 14.1 48.5c7.7 26.7 14.5 49.1 14.9 49.8 2.8 4.3 12 2.7 13.3-2.3.4-1.8-.6-7-3.1-15.6-2.1-7.1-3.6-13.2-3.3-13.5.3-.3 5.6-2.1 11.8-3.9l11.2-3.4 21.9 10.5c22.9 10.9 24.8 11.4 28.4 7.4 1-1.1 1.5-3.1 1.3-5.2-.3-3.2-.7-3.5-15.8-11-15.2-7.5-15.5-7.7-12.5-8.8 8.4-3.2 15.5-12 15.5-19.4 0-1.7-2.9-12-6.5-23.1-5.4-17-6.9-20.5-9.7-23.2-4.1-4-9.6-6.3-14.5-6.2-2.1 0-16.6 4-32.3 8.8zm36.4 8.3c1.4 2.4 11.6 34 11.6 36.2 0 2.9-5 5.1-26.7 11.7-12.5 3.8-23.3 6.9-23.9 6.9-1.3 0-13.9-41.8-12.9-42.8 1.3-1.4 43.1-14 46.7-14.1 2.9-.1 4.1.4 5.2 2.1z"/>
  </g>
</svg>
