<svg xmlns="http://www.w3.org/2000/svg" width="537.154" height="537.154">
  <style>
    .st0{stroke:#3b95ed;fill:#3b95ed;stroke-width:2;stroke-miterlimit:10;} .st1{stroke:#000000;fill:#000000;stroke-width:2;stroke-miterlimit:10;}
  </style>
  <defs>
    <style>
      .st0 .st1 { stroke-dasharray: 1000; stroke-dashoffset: 1000; animation: dash 5s linear alternate infinite; } @keyframes dash { from { stroke-dashoffset: 1000; } to { stroke-dashoffset: 0; } }
    </style>
  </defs>
  <g id="s_x5F_u">
    <path id="XMLID_1_" d="M428.539 66.423c2.983-5.758 5.996-13.898 6.171-23.765.115-6.483.352-13.407-4.258-19.304-3.535-4.522-8.15-6.218-12.679-7.882-2.055-.755-9.259-3.223-23.462-2.3-10.942.711-19.095 2.983-21.184 3.578-25.834 7.356-49.998 19.839-51.311 20.524-25.697 13.408-38.546 20.113-56.908 31.719-27.829 17.591-67.518 42.954-111.998 84.583 0 0-38.401 35.94-67.101 74.177-3.425 4.563-6.57 9.022-6.899 9.489-15.842 22.487-24.759 40.1-29.438 50.128 0 0-5.845 12.559-9.652 29.524-.224.998-.702 3.223-.762 6.176-.058 2.859-.101 8.453 3.253 13.989.422.697 2.465 3.979 6.507 6.832 4.153 2.931 8.95 4.375 14.565 4.799 16.657 1.258 37.179-6.723 38.893-7.381 21.947-8.427 32.921-12.641 43.151-17.885 18.332-9.398 43.884-23.653 74.095-44.287-15.974 5.259-30.486 9.441-43.151 12.775-3.854 1.015-17.734 4.559-34.918 3.691-5.91-.299-10.248-1.02-14.194-3.974-7.219-5.405-8.342-14.932-8.801-19.304-1.95-18.583 8.333-35.486 16.394-47.537 26.257-39.253 53.888-64.316 59.154-69.032 17.64-15.796 35.555-28.876 48.264-38.156 5.898-4.307 14.52-10.586 26.365-18.447 0 0 25.572-17.009 65.011-38.041 4.425-2.36 16.408-8.646 33.215-12.491 11.137-2.548 23.045-5.119 36.054-.568 8.972 3.139 15.992 8.799 17.033 9.652 3.837 3.141 6.651 6.278 8.591 8.718z" class="st0"/>
  </g>
  <g id="s_x5F_b">
    <path id="XMLID_5_" d="M263.224 253.819c19.265-14.737 36.622-25.995 50.353-34.242 21.901-13.154 36.527-19.71 65.779-32.82 2.444-1.095 16.316-7.679 35.576-10.632 13.395-2.054 20.805-3.079 28.215 1.227 8.73 5.073 11.931 14.429 13.494 19.219 6.411 19.639-.693 39.03-5.064 49.006-22.114 50.482-77.14 94.716-91.511 106.093-31.739 25.126-59.553 47.145-107.065 76.347-76.122 46.787-150.98 80.158-152.525 77.285-.653-1.214 12.703-8.689 47.843-31.486 14.23-9.231 60.498-39.529 111.634-77.285 9.386-6.93 38.885-28.857 72.624-60.953 5.425-5.161 23.917-23.078 36.965-51.498 12.399-27.006 7.338-36.392 5.725-39.256-5.417-9.614-19.14-13.094-22.081-13.903-4.025-1.108-7.842-1.56-12.267-1.636-13.269-.227-24.854 3.039-44.572 10.632-8.902 3.427-20.181 8.014-33.123 13.902z" class="st1"/>
  </g>
  <g id="i">
    <path id="XMLID_6_" d="M432.156 91.874c-15.997 4.078-27.855 13.739-30.165 24.586-1.685 7.913.826 14.256.826 14.256 1.751 4.422 4.543 7.139 7.025 9.504 1.272 1.212 5.848 5.412 14.081 8.799 11 4.526 20.722 4.389 27.328 4.229 4.258-.103 9.862-.276 16.917-2.277 5.418-1.537 12.009-3.407 18.119-9.098 2.351-2.19 7.457-6.946 9.091-14.463 2.274-10.465-3.684-19.376-5.372-21.9-9.306-13.919-32.353-19.104-57.85-13.636z" class="st1"/>
  </g>
</svg>
