<?xml version="1.0" encoding="utf-8"?>
<!-- Generator: Adobe Illustrator 19.0.0, SVG Export Plug-In . SVG Version: 6.00 Build 0)  -->
<svg version="1.1" id="Capa_1" xmlns="http://www.w3.org/2000/svg" xmlns:xlink="http://www.w3.org/1999/xlink" x="0px" y="0px"
	 viewBox="-50 141 511 511" style="enable-background:new -50 141 511 511;" xml:space="preserve">
<style type="text/css">
	.st0{fill:#3B95ED;}
</style>
<g>
	<path class="st0" d="M-10.5,244c2,0,3.9-0.8,5.3-2.2c1.4-1.4,2.2-3.3,2.2-5.3s-0.8-3.9-2.2-5.3c-1.4-1.4-3.3-2.2-5.3-2.2
		s-3.9,0.8-5.3,2.2c-1.4,1.4-2.2,3.3-2.2,5.3s0.8,3.9,2.2,5.3C-14.4,243.2-12.5,244-10.5,244z"/>
	<path class="st0" d="M13.5,244c2,0,3.9-0.8,5.3-2.2c1.4-1.4,2.2-3.3,2.2-5.3s-0.8-3.9-2.2-5.3c-1.4-1.4-3.3-2.2-5.3-2.2
		c-2,0-3.9,0.8-5.3,2.2c-1.4,1.4-2.2,3.3-2.2,5.3s0.8,3.9,2.2,5.3C9.6,243.2,11.5,244,13.5,244z"/>
	<path class="st0" d="M37.5,244c2,0,3.9-0.8,5.3-2.2c1.4-1.4,2.2-3.3,2.2-5.3s-0.8-3.9-2.2-5.3c-1.4-1.4-3.3-2.2-5.3-2.2
		s-3.9,0.8-5.3,2.2c-1.4,1.4-2.2,3.3-2.2,5.3s0.8,3.9,2.2,5.3C33.6,243.2,35.5,244,37.5,244z"/>
	<path class="st0" d="M69.5,244h304c4.1,0,7.5-3.4,7.5-7.5s-3.4-7.5-7.5-7.5h-304c-4.1,0-7.5,3.4-7.5,7.5S65.4,244,69.5,244z"/>
	<path class="st0" d="M405.5,244h16c4.1,0,7.5-3.4,7.5-7.5s-3.4-7.5-7.5-7.5h-16c-4.1,0-7.5,3.4-7.5,7.5S401.4,244,405.5,244z"/>
	<path class="st0" d="M389.5,309h-144c-13,0-23.5,10.5-23.5,23.5v0.5h-8.5c-13,0-23.5,10.5-23.5,23.5V421h-17v-24.5
		c0-13-10.5-23.5-23.5-23.5h-128C8.5,373-2,383.5-2,396.5v64c0,13,10.5,23.5,23.5,23.5h128c13,0,23.5-10.5,23.5-23.5V436h17v64.5
		c0,13,10.5,23.5,23.5,23.5h8.5v0.5c0,13,10.5,23.5,23.5,23.5h144c13,0,23.5-10.5,23.5-23.5v-16c0-13-10.5-23.5-23.5-23.5h-144
		c-13,0-23.5,10.5-23.5,23.5v0.5h-8.5c-4.7,0-8.5-3.8-8.5-8.5V436h17v0.5c0,13,10.5,23.5,23.5,23.5h144c13,0,23.5-10.5,23.5-23.5
		v-16c0-13-10.5-23.5-23.5-23.5h-144c-13,0-23.5,10.5-23.5,23.5v0.5h-17v-64.5c0-4.7,3.8-8.5,8.5-8.5h8.5v0.5
		c0,13,10.5,23.5,23.5,23.5h144c13,0,23.5-10.5,23.5-23.5v-16C413,319.5,402.5,309,389.5,309z M158,460.5c0,4.7-3.8,8.5-8.5,8.5
		h-128c-4.7,0-8.5-3.8-8.5-8.5v-64c0-4.7,3.8-8.5,8.5-8.5h128c4.7,0,8.5,3.8,8.5,8.5V460.5z M237,508.5c0-4.7,3.8-8.5,8.5-8.5h144
		c4.7,0,8.5,3.8,8.5,8.5v16c0,4.7-3.8,8.5-8.5,8.5h-144c-4.7,0-8.5-3.8-8.5-8.5V508.5z M237,420.5c0-4.7,3.8-8.5,8.5-8.5h144
		c4.7,0,8.5,3.8,8.5,8.5v16c0,4.7-3.8,8.5-8.5,8.5h-144c-4.7,0-8.5-3.8-8.5-8.5V420.5z M398,348.5c0,4.7-3.8,8.5-8.5,8.5h-144
		c-4.7,0-8.5-3.8-8.5-8.5v-16c0-4.7,3.8-8.5,8.5-8.5h144c4.7,0,8.5,3.8,8.5,8.5V348.5z"/>
	<path class="st0" d="M421.5,197h-432c-21.8,0-39.5,17.7-39.5,39.5v320c0,21.8,17.7,39.5,39.5,39.5h432c21.8,0,39.5-17.7,39.5-39.5
		v-320C461,214.7,443.3,197,421.5,197z M-10.5,212h432c13.5,0,24.5,11,24.5,24.5V261H-35v-24.5C-35,223-24,212-10.5,212z M421.5,581
		h-432C-24,581-35,570-35,556.5V276h481v280.5C446,570,435,581,421.5,581z"/>
</g>
</svg>
