<?xml version="1.0" encoding="utf-8"?>
<!-- Generator: Adobe Illustrator 19.0.0, SVG Export Plug-In . SVG Version: 6.00 Build 0)  -->
<svg version="1.1" id="Capa_1" xmlns="http://www.w3.org/2000/svg" xmlns:xlink="http://www.w3.org/1999/xlink" x="0px" y="0px"
	 viewBox="-50 141 511 511" style="enable-background:new -50 141 511 511;" xml:space="preserve">
<style type="text/css">
	.st0{fill:#3B95ED;}
</style>
<g>
	<path class="st0" d="M405.5,181H5.5c-30.6,0-55.5,24.9-55.5,55.5v320c0,30.6,24.9,55.5,55.5,55.5h400c30.6,0,55.5-24.9,55.5-55.5
		v-320C461,205.9,436.1,181,405.5,181z M446,556.5c0,22.3-18.2,40.5-40.5,40.5H5.5c-22.3,0-40.5-18.2-40.5-40.5v-320
		c0-22.3,18.2-40.5,40.5-40.5h400c22.3,0,40.5,18.2,40.5,40.5V556.5z"/>
	<path class="st0" d="M421.5,261h-432c-4.1,0-7.5,3.4-7.5,7.5s3.4,7.5,7.5,7.5h432c4.1,0,7.5-3.4,7.5-7.5S425.6,261,421.5,261z"/>
	<path class="st0" d="M5.5,236c2,0,3.9-0.8,5.3-2.2c1.4-1.4,2.2-3.3,2.2-5.3c0-2-0.8-3.9-2.2-5.3c-1.4-1.4-3.3-2.2-5.3-2.2
		s-3.9,0.8-5.3,2.2c-1.4,1.4-2.2,3.3-2.2,5.3c0,2,0.8,3.9,2.2,5.3C1.6,235.2,3.5,236,5.5,236z"/>
	<path class="st0" d="M69.5,236c2,0,3.9-0.8,5.3-2.2c1.4-1.4,2.2-3.3,2.2-5.3c0-2-0.8-3.9-2.2-5.3c-1.4-1.4-3.3-2.2-5.3-2.2
		c-2,0-3.9,0.8-5.3,2.2c-1.4,1.4-2.2,3.3-2.2,5.3c0,2,0.8,3.9,2.2,5.3C65.6,235.2,67.5,236,69.5,236z"/>
	<path class="st0" d="M37.5,236c2,0,3.9-0.8,5.3-2.2c1.4-1.4,2.2-3.3,2.2-5.3c0-2-0.8-3.9-2.2-5.3c-1.4-1.4-3.3-2.2-5.3-2.2
		c-2,0-3.9,0.8-5.3,2.2c-1.4,1.4-2.2,3.3-2.2,5.3c0,2,0.8,3.9,2.2,5.3C33.6,235.2,35.5,236,37.5,236z"/>
	<path class="st0" d="M138.8,351.2c-2.9-2.9-7.7-2.9-10.6,0l-80,80c-2.9,2.9-2.9,7.7,0,10.6l80,80c1.5,1.5,3.4,2.2,5.3,2.2
		s3.8-0.7,5.3-2.2c2.9-2.9,2.9-7.7,0-10.6l-74.7-74.7l74.7-74.7C141.7,358.9,141.7,354.1,138.8,351.2z"/>
	<path class="st0" d="M282.8,351.2c-2.9-2.9-7.7-2.9-10.6,0c-2.9,2.9-2.9,7.7,0,10.6l74.7,74.7l-74.7,74.7c-2.9,2.9-2.9,7.7,0,10.6
		c1.5,1.5,3.4,2.2,5.3,2.2s3.8-0.7,5.3-2.2l80-80c2.9-2.9,2.9-7.7,0-10.6L282.8,351.2z"/>
	<path class="st0" d="M240.1,341.5c-3.9-1.4-8.2,0.6-9.6,4.5l-64,176c-1.4,3.9,0.6,8.2,4.5,9.6c0.8,0.3,1.7,0.5,2.6,0.5
		c3.1,0,5.9-1.9,7-4.9l64-176C246,347.2,244,342.9,240.1,341.5z"/>
</g>
</svg>
