<svg id="Layer_1" data-name="Layer 1" xmlns="http://www.w3.org/2000/svg" viewBox="0 0 150 150"><defs><style>.cls-1{fill:none;}.cls-2{fill:#2d2826;}.cls-3{fill:#1f1a17;}.cls-4{fill:#fef400;}.cls-5{fill:#2b2623;}.cls-6{fill:#2b2522;}.cls-7{fill:#2d2825;}.cls-8{fill:#2f2a28;}.cls-9{fill:#2f2a27;}.cls-10{fill:#2a2522;}.cls-11{fill:#2e2826;}.cls-12{fill:#2d2725;}.cls-13{fill:#2c2724;}.cls-14{fill:#302b28;}.cls-15{fill:#342f2c;}.cls-16{fill:#312c29;}.cls-17{fill:#322d2a;}.cls-18{fill:#36312e;}.cls-19{fill:#524e4c;}.cls-20{fill:#292421;}.cls-21{fill:#c8c790;}.cls-22{fill:#282320;}.cls-23{fill:#27221f;}.cls-24{fill:#2e2926;}.cls-25{fill:#25201d;}</style></defs><title>cl6</title><rect class="cls-1" width="150" height="150"/><path class="cls-2" d="M454.44,172.26c.34-.76,1.07-.82,1.75-1,1.13-.26,2.24-.55,3.65-.91l-4.12-1.86c-.37-.16-.79-.28-.65-.84s.57-.34.88-.32a37.27,37.27,0,0,1,4.81.64c-1.44.57-2.86,0-4.45.07a19.14,19.14,0,0,0,3.41,1.72c.33.18.89.21.79.75s-.53.41-.87.49a21.72,21.72,0,0,0-3.61,1.12l4.28.46-.06.51a35.61,35.61,0,0,1-5.81-.56Z" transform="translate(-449.57 -92.73)"/><path class="cls-3" d="M466.86,171.13c0-28.13,21.56-54.95,52.24-61.73A76.64,76.64,0,0,1,529.34,108c.9-.07,1.25.13,1.23,1.12-.06,2.13-.05,4.27.08,6.39a1.62,1.62,0,0,1-1.23,1.93c-1.45.43-1.8,1.44-1.87,2.86-.24,4.87-.63,9.72-.91,14.58,0,.79-.27,1.16-1,1.35-2.56.62-5.12,1.25-7.65,2a1.56,1.56,0,0,1-1.9-.68c-3.34-4.09-6.73-8.12-10.06-12.22-.63-.78-1.08-1-1.94-.35-1.29,1-3.5,1.4-3.83,2.72-.28,1.17,1.12,2.78,1.81,4.18,1.75,3.54,3.49,7.09,5.31,10.6a1.25,1.25,0,0,1-.32,1.79c-2.18,2.05-4.34,4.13-6.43,6.27a1.57,1.57,0,0,1-2,.39c-4.77-1.85-9.57-3.61-14.33-5.46-.92-.35-1.47-.36-1.87.66s-1.85,2.25-1.53,3.3,1.8,1.5,2.79,2.21c3.46,2.47,6.92,5,10.41,7.4a1.29,1.29,0,0,1,.63,1.72c-.79,2.51-1.55,5-2.16,7.6a1.71,1.71,0,0,1-1.77,1.43c-4.63.59-9.25,1.25-13.88,1.79-1.08.12-1.27.55-1.28,1.52,0,2.88-.06,2.87,2.8,3.47,4.16.87,8.32,1.78,12.5,2.61a1.23,1.23,0,0,1,1.16,1.11c.56,2.73,1.13,5.46,1.81,8.16.21.85-.23,1.08-.73,1.42-3.83,2.57-7.65,5.17-11.5,7.7-.91.59-1.26,1-.49,2,1.62,2.26,1.55,2.32,4.25,1.52,3.83-1.13,7.68-2.24,11.5-3.43a1.53,1.53,0,0,1,1.93.57c1.91,2.3,3.86,4.58,5.86,6.8a1.39,1.39,0,0,1,.21,1.86c-2,3.87-3.9,7.79-5.91,11.66a1.35,1.35,0,0,0,.41,2c2.43,2,2.41,2,4.72,0,3-2.67,6-5.33,8.94-8a1.86,1.86,0,0,1,2.16-.46c3.11,1.06,6.26,2,9.41,3a1.35,1.35,0,0,1,1.17,1.44c.22,4,.59,8,.73,12a3.22,3.22,0,0,0,1.62,2.83A3.83,3.83,0,0,1,530,235a36,36,0,0,0,.24,4.86c.09,1-.22,1.19-1.17,1.11-25.25-2.14-43.71-14.55-55.35-37C468.9,194.78,466.81,184.79,466.86,171.13Z" transform="translate(-449.57 -92.73)"/><path class="cls-4" d="M533.42,147.63c-.12-4-.26-8-.36-12-.14-5.83-.22-11.67-.42-17.5,0-1.36.51-1.53,1.61-1.34a6,6,0,0,1,4.17,3.24,26.36,26.36,0,0,1,2.83,8.78c.57,3,.81,6.12,1.15,9.3.71-.28.89-.89,1.21-1.35,2.57-3.72,5.2-7.39,8.76-10.26a11.89,11.89,0,0,1,3.12-1.86,5,5,0,0,1,7.1,3.37c.93,2.87.43,5.72-.18,8.55A65.76,65.76,0,0,1,558.5,148c-.18.4-.33.81-.63,1.55,1.55-.72,2.8-1.31,4.06-1.88,4.48-2,9-3.88,14-4.55a12.59,12.59,0,0,1,5.72.38c3,1,3.88,2.66,3,5.72A14,14,0,0,1,581,155a60.7,60.7,0,0,1-11.8,9.06l-1.88,1.16c2.48.12,4.6.2,6.73.33a35.71,35.71,0,0,1,11.29,2.21,11.92,11.92,0,0,1,6.62,5.53,3.21,3.21,0,0,1,.18,2.61,8.27,8.27,0,0,1-5.81,5.53c-4,1.26-8.1,1.23-12.2,1.45-1.8.1-3.61,0-5.53,0,.28.91.87,1,1.3,1.33,4.27,2.93,8.51,5.9,11.93,9.85a12.87,12.87,0,0,1,2.48,4,5.27,5.27,0,0,1-3.41,7.17,11.31,11.31,0,0,1-6.16.09c-5.07-1.06-9.65-3.34-14.18-5.73l-1.54-.81c1.43,3.23,2.81,6.19,4,9.21a36.79,36.79,0,0,1,3,10.65c.43,4.78-2.91,7.5-7.51,6a17.85,17.85,0,0,1-6.56-4.31A72.42,72.42,0,0,1,543.22,210c-.25-.34-.35-.85-1-1,0,3.63.19,7.2,0,10.78a27.6,27.6,0,0,1-1.63,9.23c-.88,2.18-2.27,3.82-4.74,4.29s-3.65-.51-3.65-2.91q0-12.94,0-25.88a3,3,0,0,1,.21-1.78,1.3,1.3,0,0,1,1.09-.44,31.51,31.51,0,0,0,19.3-7.1,8.43,8.43,0,0,0,3.48-3.47,32.23,32.23,0,0,0,5.58-11.56,25.81,25.81,0,0,0-12.34-28.06A35.29,35.29,0,0,0,534.85,148C534.35,148,533.82,148,533.42,147.63Z" transform="translate(-449.57 -92.73)"/><path class="cls-3" d="M533.42,147.63c7.74.09,14.81,2.14,20.69,7.37a26.19,26.19,0,0,1,4.21,34.42c-.58.86-1.23,1.67-1.85,2.51a14.84,14.84,0,0,1-3.46,3.48,31,31,0,0,1-20.62,7.35q.29-16.48.58-33Q533.18,158.71,533.42,147.63Z" transform="translate(-449.57 -92.73)"/><path class="cls-5" d="M492.87,113.34c-.62-1.58-1.74-2.59-2.15-4l.4-.26a48.59,48.59,0,0,1,2.79,4.63c.28.58-.52.49-.92.32-1.39-.61-2.76-1.24-4.54-2l2.4,4-.51.3c-.93-1.52-1.88-3-2.8-4.56a.39.39,0,0,1,0-.38c.31-.3.66-.14,1,0Z" transform="translate(-449.57 -92.73)"/><path class="cls-5" d="M512.73,105.39a47.66,47.66,0,0,1-1.3-5,.58.58,0,0,1,.18-.51c.31-.19.57,0,.8.24l3.54,3.31c0-1.63-.79-3-.54-4.44a24.82,24.82,0,0,1,1.46,5.06.39.39,0,0,1-.27.48c-.35.11-.56-.14-.77-.34-1.11-1-2.21-2.07-3.6-3.38l.94,4.46Z" transform="translate(-449.57 -92.73)"/><path class="cls-6" d="M481.26,122.45c-.9-1.38-2.27-2.06-3-3.31l.31-.33q1.9,1.84,3.8,3.7a.35.35,0,0,1,0,.53c-.24.28-.55.18-.84.13a22.51,22.51,0,0,0-4.74-.51l3.37,3c-1.1.21-1.34-.48-1.74-.82a17.45,17.45,0,0,1-1.85-1.8c-.34-.37-1.17-.62-.8-1.25s1-.12,1.55,0C478.6,121.93,479.83,122.19,481.26,122.45Z" transform="translate(-449.57 -92.73)"/><path class="cls-7" d="M520.41,101.18c1-.54,1.91-1.07,2.52-.31.83,1,.35,2-1,2.61a2.78,2.78,0,0,1-3.37-.48,3.15,3.15,0,0,1-.59-3.53,2.66,2.66,0,0,1,2.87-1.55,1.6,1.6,0,0,1,1.64,1.16c-.29.28-.45.16-.6,0A1.89,1.89,0,0,0,519,99c-1,.92-.82,2.14-.23,3.21s1.74,1.12,2.81.72c.47-.18,1.07-.42.93-1.18-.16-1-.8-.46-1.29-.47C521.05,101.31,520.87,101.26,520.41,101.18Z" transform="translate(-449.57 -92.73)"/><path class="cls-8" d="M559.15,103.18c-.32,0-.47-.09-.53-.34a1.83,1.83,0,0,0-2.46-1.36,2.44,2.44,0,0,0-1.7,2.74,2,2,0,0,0,2.13,1.93c.53,0,1.13.14,1.37-.6.31-.93-.49-.79-.91-1-.17-.09-.4-.14-.32-.54.79.16,1.91-.08,2,1,.17,1.26-.81,2-2.2,1.8a2.85,2.85,0,0,1-2.7-2.07,3.14,3.14,0,0,1,1.17-3.38,2.62,2.62,0,0,1,3.12-.06A1.58,1.58,0,0,1,559.15,103.18Z" transform="translate(-449.57 -92.73)"/><path class="cls-9" d="M470.48,131.11c-1.49,0-2.45.55-2.6,1.94s.7,1.94,1.73,2.39a2.24,2.24,0,0,0,3.07-2.09,1,1,0,0,0-.64-.93c-.47-.24-.59.2-.8.46s-.34.45-.64.87a2,2,0,0,1,.84-2.1c.53-.5.92.31,1.38.52.74.33.55,1,.4,1.58a2.93,2.93,0,0,1-2.65,2.54,3.12,3.12,0,0,1-3.12-2,2.58,2.58,0,0,1,.85-3.13C468.84,130.65,469.55,130.13,470.48,131.11Z" transform="translate(-449.57 -92.73)"/><path class="cls-5" d="M484.82,115.66c-.7.31-1.23-.18-1.74.09a2.19,2.19,0,0,0-1.47,2.25,2.86,2.86,0,0,0,2.46,2.35,2.53,2.53,0,0,0,2.25-1.78c.17-.42-.09-.67-.33-.93s-.59-.1-.89.1-.4.65-1,.31c.56-.63.95-1.69,1.92-1.26,1.23.54,1.3,1.61.41,2.8a2.78,2.78,0,0,1-3.18,1.24A3.09,3.09,0,0,1,481,117.9a2.73,2.73,0,0,1,1.91-2.66A1.49,1.49,0,0,1,484.82,115.66Z" transform="translate(-449.57 -92.73)"/><path class="cls-10" d="M461.45,147.27a2.41,2.41,0,0,0-1.83,2.66c.13,1.14,1,1.6,1.95,1.86a2.18,2.18,0,0,0,2.82-2.13c0-.59-.06-1.1-.73-1.32-.85-.29-.69.5-.91.85s-.13.49-.61.48c.23-.81-.05-1.93,1.05-2.1s1.92.83,1.76,2.21a2.81,2.81,0,0,1-1.95,2.64,3.18,3.18,0,0,1-3.52-1.2,2.64,2.64,0,0,1,0-3.13A1.5,1.5,0,0,1,461.45,147.27Z" transform="translate(-449.57 -92.73)"/><path class="cls-11" d="M502.44,106.17c-.2.67-.84.59-1.2.89-.54.44-1.89.15-1.25,1.65s1.43.35,2.15.21c.55-.11,1-.58,1.76-.18-1.15.52-2.29,1.05-3.44,1.56-.41.18-.52-.16-.64-.43-.25-.55-.49-1.11-.73-1.67-1.47-3.3-1.31-3.6,2.51-4.29a5,5,0,0,1-2,1.16c-.58.27-1.1.44-.64,1.3.36.69.65.84,1.38.48A3.3,3.3,0,0,1,502.44,106.17Z" transform="translate(-449.57 -92.73)"/><path class="cls-12" d="M499,111.06l-3.3,1.9c-.42.24-.53-.16-.67-.38-.31-.46-.56-1-.84-1.44-1.93-3.34-1.91-3.37,2-4.82,0,.83-.87.75-1.2,1.16s-1.94.27-1.16,1.71,1.39.13,2.05-.06c.45-.13.8-.59,1.51-.51a3.77,3.77,0,0,1-1.84,1.35c-.73.38-.9.7-.43,1.48s.81.8,1.51.37a5.92,5.92,0,0,1,2.19-1.12Z" transform="translate(-449.57 -92.73)"/><path class="cls-10" d="M476.59,125.48a19,19,0,0,1-1.44,1.66c-.63.59-.42.94.14,1.42s.9.71,1.46,0a6.06,6.06,0,0,1,1.81-1.86l.31.26c-.83,1-1.64,1.91-2.49,2.85-.36.4-.62,0-.87-.22-1-.89-2.08-1.79-3.1-2.7-.2-.18-.64-.35-.37-.69a22.19,22.19,0,0,1,2.55-2.76c.16.71-.45.9-.6,1.34-.24.68-1.9.92-.64,2.09s1.38-.46,2-.81C475.7,125.85,475.85,125.33,476.59,125.48Z" transform="translate(-449.57 -92.73)"/><path class="cls-7" d="M565.12,104.61c-.72-.3-1.46-.56-2.15-.92s-1-.26-1.38.47c-.44.88.07,1,.64,1.31a4.06,4.06,0,0,1,2,1.22,4,4,0,0,1-2-.61c-.71-.32-1.24-.71-1.73.42s.33,1.19.94,1.52,1.36.42,1.69,1.37c-1.17-.53-2.36-1-3.51-1.6-.37-.18-.12-.53,0-.79.55-1.25,1.13-2.49,1.65-3.76.24-.61.53-.73,1.12-.43,1,.48,2,.9,2.92,1.35Z" transform="translate(-449.57 -92.73)"/><path class="cls-5" d="M553.43,100a4.89,4.89,0,0,1-2.73-.35c-.8-.23-.93.15-1.12.75s0,1,.7,1.16a4.74,4.74,0,0,1,2.37.81,4.05,4.05,0,0,1-2.48-.32c-.91-.28-1,.27-1.16.89s-.22,1,.61,1.19a5,5,0,0,1,2.52.89,11.58,11.58,0,0,1-3.86-.72c-.08,0-.15-.27-.12-.39q.51-2.37,1.05-4.74a.38.38,0,0,1,.47-.29A12.49,12.49,0,0,1,553.43,100Z" transform="translate(-449.57 -92.73)"/><path class="cls-13" d="M460.9,184.13a13,13,0,0,1-5.7.44c.6-.4.6-.4,2.57-.58-.66-1.33-2.29-1.76-2.85-3.12.17-.05.27-.12.33-.09.81.43,1.3,1.69,2.22,1.51s1.41-1.07,2.11-1.65l.9-.68c.23,1.19-.85,1.32-1.29,1.9s-1.39.55-1.07,1.36,1.12.73,1.85.63A.81.81,0,0,1,460.9,184.13Z" transform="translate(-449.57 -92.73)"/><path class="cls-9" d="M454.77,178.9c1.06-.68,2.22-.43,3.34-.49s1.87-.36,1.82-1.67-.86-1.42-1.87-1.45-2.26.23-3.35-.37c1.62-.2,3.27-.6,4.87,0a1.81,1.81,0,0,1,1,1.92c0,.8-.16,1.62-1,1.91A10.8,10.8,0,0,1,454.77,178.9Z" transform="translate(-449.57 -92.73)"/><path class="cls-14" d="M531.38,98.76c-1.31-1-2.55-2-3.76-.3a3,3,0,0,0,.43,3.5c.91.72,1.58.52,3.26-1,0,1.2-.57,1.8-1.82,1.91a2.5,2.5,0,0,1-2.85-2.29,2.86,2.86,0,0,1,1.88-3.51C529.8,96.71,530.75,97.2,531.38,98.76Z" transform="translate(-449.57 -92.73)"/><path class="cls-15" d="M463.23,201.28c.3-.85,1.37-1.22.65-2s-1.32-.16-2,0c-1,.29-2.07.63-3.34,1,.8-1.08,4.28-2.27,5.13-1.94a1.55,1.55,0,0,1,1,1.56C464.71,200.64,464.26,201.06,463.23,201.28Z" transform="translate(-449.57 -92.73)"/><path class="cls-16" d="M547.19,104a9.65,9.65,0,0,1-3.12-.34.5.5,0,0,1-.45-.5,21.59,21.59,0,0,1,1.34-5.3,8.08,8.08,0,0,1-.43,3.73c-.44,1.47.25,1.73,1.39,1.83A1.48,1.48,0,0,1,547.19,104Z" transform="translate(-449.57 -92.73)"/><path class="cls-5" d="M540,97.35c.5,1.17.09,2.33-.09,3.44s-.1,1.92,1.35,1.88a1.45,1.45,0,0,1,1.35.49,9.38,9.38,0,0,1-3.17-.18.38.38,0,0,1-.36-.41A23.24,23.24,0,0,1,540,97.35Z" transform="translate(-449.57 -92.73)"/><path class="cls-17" d="M459.41,190.16a4.58,4.58,0,0,1,2.51-.22c-2.2.42-3.51,2-4.89,3.62-.08-1.05-.08-1.05,1.73-2.73C458.87,190.51,458.79,190,459.41,190.16Z" transform="translate(-449.57 -92.73)"/><path class="cls-11" d="M485.76,112.8l3.47,4.43-.33.27c-1.54-1.17-2.41-2.9-3.69-4.29Z" transform="translate(-449.57 -92.73)"/><path class="cls-18" d="M509.09,100.72a13.14,13.14,0,0,1,1.82,5.37A14.44,14.44,0,0,1,509.09,100.72Z" transform="translate(-449.57 -92.73)"/><path class="cls-19" d="M459.41,190.16l-.65.67c-.3-.81-1.18-.6-1.73-1s-1.16-.15-1.19-1.06A15.79,15.79,0,0,1,459.41,190.16Z" transform="translate(-449.57 -92.73)"/><path class="cls-20" d="M535.75,96.74h-.91c-.35.2-.71.38-1,.61a3.3,3.3,0,0,0-1,4,2.69,2.69,0,0,0,3,1.48c1.38-.32,2.1-1.46,2.1-3.1S536.91,97.4,535.75,96.74Zm-.44,5.5c-1.25,0-2-.84-2-2.27s.78-2.48,2-2.46,2,.95,2,2.37S536.53,102.22,535.31,102.24Z" transform="translate(-449.57 -92.73)"/><path class="cls-21" d="M553,195.41l3.46-3.48A6.79,6.79,0,0,1,553,195.41Z" transform="translate(-449.57 -92.73)"/><path class="cls-22" d="M470.41,138a10.55,10.55,0,0,0-2.91.36c.19-1.09,0-1.89-1-2.24a1.21,1.21,0,0,0-1.49.43c-.55.79-1,1.63-1.52,2.45-.12.2-.17.41,0,.53,1.55.93,3.11,1.83,4.9,2.88-.09-1.06-.69-1-1-1.33s-1.16-.27-1-.95a1.65,1.65,0,0,1,1.5-1.32c.61,0,1.22,0,1.82-.1C470.17,138.67,470.53,138.6,470.41,138Zm-3.46-.06c-.36.64-.41,1.74-1.4,1.93a1.29,1.29,0,0,1-1.31-1c-.08-.62,1.4-2.25,1.88-2.14A1,1,0,0,1,467,137.93Z" transform="translate(-449.57 -92.73)"/><path class="cls-10" d="M508,105.23c-.68-.35-.94-.51-.33-1.32a1.27,1.27,0,0,0-.76-2.06c-1.3-.35-2.52.38-3.53,1-.63.4.23,1.24.41,1.88a20.56,20.56,0,0,0,.91,2.41c.14.33.17,1,.62.84.67-.25,0-.73,0-1.12s-.78-1-.09-1.45a1.59,1.59,0,0,1,2,0c.44.34.9.65,1.36,1a.63.63,0,0,0,1-.12A13,13,0,0,0,508,105.23Zm-3-.3c-.79-.11-.9-.93-.86-1.34.11-1.14,1.29-.94,2-1.21a.78.78,0,0,1,1,.8C507.09,104.58,505.72,104.37,504.91,104.93Z" transform="translate(-449.57 -92.73)"/><path class="cls-23" d="M460.13,158.1a11.38,11.38,0,0,1,1.5-.7c.47-.19,1.09-.18,1.19-1.09a8.93,8.93,0,0,0-2.81,1.17c-.19-.89-.4-1.62-1.33-1.76a1.3,1.3,0,0,0-1.37.44,5.56,5.56,0,0,0-.9,3.3c0,.84,1.33.57,2.06.8,1,.33,2.13.5,3.48.8-.3-.95-1-.79-1.41-1s-1,0-1-.5A1.55,1.55,0,0,1,460.13,158.1Zm-.83-.34c-.4.47.31,1.75-1,1.74-.42,0-1.44.21-1.18-.83.22-.84,0-2.1,1.29-2.25C459.14,156.32,459.38,156.93,459.3,157.76Z" transform="translate(-449.57 -92.73)"/><path class="cls-2" d="M462.48,142.7c-.3,0-.61-.07-.8.27s.06.66.3.91c1.06,1.1,2.11,2.19,3.18,3.28.17.17.31.62.68.25s0-.48-.16-.62c-.65-.57-1-1-.57-2a1.7,1.7,0,0,1,2.12-1.12c.25,0,.5-.08.59-.63Zm1.85,2.56-1.81-1.94c.83.08,1.78-.23,2.39.3C465.27,143.94,464.59,144.65,464.33,145.26Z" transform="translate(-449.57 -92.73)"/><path class="cls-24" d="M461.16,195c-.4-1.5,1.24-1.66,1.25-3.07-1.67,1.26-3.07,2.32-4.47,3.4-.43.33-.84,1-.07,1.1a20.42,20.42,0,0,0,5.69.39C462.8,196.13,461.57,196.54,461.16,195Zm-.29.85c-.1.64-.63.21-1,.21-.5,0-1-.07-1.76-.13.65-.47,1-.8,1.45-1.05s.59-.74,1-.29A1.78,1.78,0,0,1,460.87,195.86Z" transform="translate(-449.57 -92.73)"/><path class="cls-25" d="M461.62,161.84c-1.94.47-3.69.87-5.42,1.34-.75.21-.91.72-.18,1.15,1.54.9,3.12,1.74,4.68,2.6l.25-.35c-.6-.76-1.79-.92-1.57-2.5S461.22,163.11,461.62,161.84Zm-2.91,3c-.84.24-1.44-.62-2.58-1l2.77-.63C459.05,163.85,459.07,164.7,458.71,164.8Z" transform="translate(-449.57 -92.73)"/><path class="cls-20" d="M464.36,204.28c-.64-1.45,1.08-1.81.82-2.73-1.36,1.24-2.74,2.48-4.09,3.75-.48.46-.21,1,.32,1,1.86,0,3.72-.21,5.58-.32C466.16,205.15,465,205.75,464.36,204.28Zm-1.12,1.33c-.5.07-1,.08-1.49.12l-.19-.37c.38-.31.76-.63,1.16-.92s.54-.87.9-.57a2.06,2.06,0,0,1,.65,1.44C464.26,205.69,463.61,205.56,463.24,205.61Z" transform="translate(-449.57 -92.73)"/><path d="M545.66,229.75H548l.94,10h-2l-.23-5.44c0-1-.1-1.93-.12-3h0c-.41,1-.77,2-1.2,3l-2.37,5.44h-2.15Zm-2.12,5.92h4.24l-.34,1.59h-4.25Z" transform="translate(-449.57 -92.73)"/><path d="M551.7,229.75h1.95l-.76,4.12h.05l3.49-4.12h2.14l-3.38,4.12,2.07,5.91h-2l-1.48-4.58-1.41,1.64-.55,2.94h-1.95Z" transform="translate(-449.57 -92.73)"/><path d="M558.33,235.77c0-3.48,2.16-6.21,5.08-6.21a2.78,2.78,0,0,1,2.59,1.6l-1.33,1.1a1.5,1.5,0,0,0-1.36-.88c-1.72,0-3,2-3,4.24,0,1.55.56,2.55,2,2.55a1.67,1.67,0,0,0,1-.35l.39-2h-1.52l.29-1.72h3.24l-.86,4.79A4.55,4.55,0,0,1,562,240C559.71,240,558.33,238.4,558.33,235.77Z" transform="translate(-449.57 -92.73)"/><path d="M568.49,229.75H574l-.32,1.77H570.1l-.39,2.17h3l-.32,1.77h-3l-.48,2.55h3.69l-.32,1.77h-5.64Z" transform="translate(-449.57 -92.73)"/><path d="M574.54,235.77c0-3.47,2.16-6.21,4.94-6.21a2.73,2.73,0,0,1,2.46,1.6l-1.32,1.1a1.47,1.47,0,0,0-1.24-.88c-1.59,0-2.84,2-2.84,4.24,0,1.56.56,2.52,1.93,2.52a2.4,2.4,0,0,0,1.58-.76l.82,1.35a4,4,0,0,1-2.8,1.24C575.91,240,574.54,238.39,574.54,235.77Z" transform="translate(-449.57 -92.73)"/><path d="M586.89,229.75h1.89L590.3,235l.5,2.21h.05c.1-1.06.17-2.47.39-3.63l.71-3.8h1.86l-1.86,10h-1.89l-1.51-5.22-.48-2.22H588c-.1,1.11-.2,2.44-.42,3.6l-.7,3.84H585Z" transform="translate(-449.57 -92.73)"/><path d="M596.05,229.75h2l-1.86,10h-1.95Z" transform="translate(-449.57 -92.73)"/></svg>