<?xml version="1.0" encoding="utf-8"?>
<!-- Generator: Adobe Illustrator 22.0.1, SVG Export Plug-In . SVG Version: 6.00 Build 0)  -->
<svg version="1.1" id="e28f841e-1350-4768-a008-2029cc8c67c6"
	 xmlns="http://www.w3.org/2000/svg" xmlns:xlink="http://www.w3.org/1999/xlink" x="0px" y="0px" viewBox="0 0 846.6 638.5"
	 style="enable-background:new 0 0 846.6 638.5;" xml:space="preserve">
<style type="text/css">
	.st0{fill:#FFE843;}
	.st1{fill:#EFEFEF;}
	.st2{fill:#FFE106;}
	.st3{fill:none;stroke:#FFE05F;stroke-width:2;stroke-miterlimit:10;}
	.st4{fill:#FFF29F;}
	.st5{fill:#F9E480;}
	.st6{fill:none;stroke:#ADADAD;stroke-miterlimit:10;}
</style>
<title>services</title>
<rect x="73.6" y="324" class="st0" width="2" height="250.9"/>
<rect x="134.6" y="285.4" class="st0" width="2" height="328.1"/>
<rect x="195.6" y="274.5" class="st0" width="2" height="350"/>
<rect x="256.6" y="285.4" class="st0" width="2" height="328.1"/>
<rect x="317.6" y="324" class="st0" width="2" height="250.9"/>
<rect x="42.5" y="365.5" class="st1" width="308.2" height="2"/>
<rect x="21.6" y="448.5" class="st1" width="350" height="2"/>
<rect x="42.5" y="531.5" class="st1" width="308.2" height="2"/>
<rect x="376.6" y="158" class="st1" width="2" height="250.9"/>
<rect x="437.6" y="119.4" class="st1" width="2" height="328.1"/>
<rect x="498.6" y="108.5" class="st1" width="2" height="350"/>
<rect x="559.6" y="119.4" class="st1" width="2" height="328.1"/>
<rect x="620.6" y="158" class="st1" width="2" height="250.9"/>
<rect x="345.5" y="199.5" class="st2" width="308.2" height="2"/>
<rect x="324.6" y="282.5" class="st2" width="350" height="2"/>
<rect x="345.5" y="365.5" class="st2" width="308.2" height="2"/>
<rect x="134.5" y="161.9" class="st2" width="178.4" height="16.4"/>
<rect x="134.5" y="195.8" class="st2" width="178.4" height="16.4"/>
<rect x="134.5" y="229.8" class="st2" width="178.4" height="16.4"/>
<circle class="st3" cx="85.6" cy="147.3" r="18.2"/>
<circle class="st1" cx="85.6" cy="147.3" r="13.8"/>
<circle class="st4" cx="136.6" cy="114.4" r="20"/>
<circle class="st4" cx="195.6" cy="108.5" r="15.6"/>
<circle class="st4" cx="248.6" cy="114.1" r="12"/>
<circle class="st4" cx="286.9" cy="124.7" r="9.7"/>
<circle class="st5" cx="309.5" cy="144.9" r="4.8"/>
<circle class="st6" cx="309.5" cy="144.9" r="6.7"/>
<path class="st1" d="M431.4,279l-50.6-121.5c-4.7-11.2-15.7-18.6-27.9-18.6l-34.2,0c-1.4,0-2.2,1.4-1.7,2.6c0.6,1.4,0.8,3,0.5,4.7
	c-0.6,3.2-3.1,5.7-6.3,6.4c-5.2,1-9.7-2.9-9.7-7.9c0-1.1,0.2-2.2,0.7-3.2c0.5-1.2-0.3-2.6-1.6-2.6l-186.7,0c0,0,0,0,0,0
	c-2.5,0-5,1.1-4.9,4.8c0.6,21.9-13.1,28.3-30.2,26.4c-1.8,0-3.3,1.5-3.3,3.3v106.8c0,1.8,1.4,3.2,3.2,3.2h349.8
	C430.7,283.4,432.2,281.1,431.4,279z"/>
</svg>
