<?xml version="1.0" encoding="utf-8"?>
<!-- Generator: Adobe Illustrator 19.0.0, SVG Export Plug-In . SVG Version: 6.00 Build 0)  -->
<svg version="1.1" id="Layer_2" xmlns="http://www.w3.org/2000/svg" xmlns:xlink="http://www.w3.org/1999/xlink" x="0px" y="0px"
	 width="600px" height="600px" viewBox="0 0 600 600" style="enable-background:new 0 0 600 600;" xml:space="preserve">
<style type="text/css">
	.st0{fill:#03A9F4;stroke:#03A9F4;stroke-width:5;stroke-miterlimit:10;}
</style>
<path id="XMLID_1_" class="st0" d="M113.718,533.495c-2.627-36.398-5.253-72.797-7.88-109.195
	c-32.189-15.571-42.861-30.418-46.196-41.72c-0.465-1.577-0.8-3.126-1.81-5.429c-7.155-16.318-27.352-22.935-44.238-25.939
	c-1.047-0.257-2.245-0.757-2.815-1.81c-1.685-3.11,3.069-9.27,6.636-12.065c11.842-9.278,33.594,0.534,38.205,2.614
	c5.853,2.64,15.307,7.928,24.331,18.499c0.587-8.337,0.488-19.037-1.81-31.168c-3.861-20.38-12.188-35.604-18.298-44.841
	c-2.006-2.37-5.301-6.937-6.636-13.472c-0.917-4.491-2.364-11.574,1.81-15.081c3.494-2.936,9.883-2.487,15.483,1.206
	c2.235,2.954,4.451,6.035,6.636,9.25c11.932,17.559,20.173,35.06,25.939,51.075c0.83,1.858,2.399,3.01,3.619,2.815
	c1.655-0.264,2.069-4.508,2.212-5.831c0.227-2.1,0.017-3.695,0-3.821c-1.673-12.612-2.51-18.918-3.217-21.516
	c-1.733-6.362-4.19-19.351-7.44-48.259c0.022-0.582,0.324-6.162,5.027-9.25c5.418-3.557,11.491-0.403,11.864-0.201
	c4.31,2.333,5.969,7.029,7.038,10.054c0.477,1.351,0.721,2.43,0.804,2.815c1.665,7.679,8.489,56.855,10.054,68.167
	c0.006,1.041,0.674,1.942,1.609,2.212c0.77,0.222,1.62-0.014,2.212-0.603c0.268-1.206,0.536-2.413,0.804-3.619
	c3.016-23.191,6.032-46.383,9.049-69.574c2.475-4.902,7.743-7.65,12.869-6.837c5.854,0.929,10.369,6.32,10.255,12.668
	c-2.949,24.13-5.898,48.259-8.848,72.389c-0.382,1.057-0.097,2.138,0.603,2.614c1.035,0.704,2.44-0.277,2.614-0.402
	c1.094-0.787,1.354-2.053,1.609-3.016c0.561-2.118,1.848-3.979,2.614-6.032c0.979-2.625,6.788-13.895,23.526-44.439
	c3.943-2.88,9.331-2.88,13.271,0c3.947,2.885,5.582,8.031,4.022,12.668c-8.311,16.556-16.623,33.111-24.934,49.667
	c2.681,8.866,5.963,23.819,4.022,42.227c-2.375,22.515-11.365,38.83-16.69,47.053c-0.536,2.011-1.072,4.022-1.609,6.032
	c-0.056,1.704-0.106,4.377,0,7.641c0.483,14.897,3.69,25.883,4.424,28.553c2.953,10.753,8.839,43.392,19.691,114.039
	C167.34,560.253,140.529,546.874,113.718,533.495z"/>
<path id="XMLID_8_" class="st0" d="M446.512,561.618c7.958-44.284,15.915-88.568,23.873-132.852
	c-28.822-21.162-36.618-37.703-37.842-49.422c-0.171-1.636-0.218-3.219-0.793-5.668c-4.07-17.347-22.728-27.524-38.786-33.549
	c-0.983-0.443-2.07-1.152-2.439-2.291c-1.091-3.365,4.703-8.558,8.718-10.658c13.331-6.97,32.937,6.631,37.094,9.515
	c5.276,3.66,13.611,10.579,20.563,22.614c2.092-8.092,3.941-18.631,3.886-30.977c-0.092-20.742-5.513-37.226-9.843-47.42
	c-1.541-2.695-3.952-7.785-4.076-14.454c-0.086-4.583-0.221-11.811,4.521-14.501c3.969-2.252,10.17-0.65,15.006,4.001
	c1.661,3.311,3.28,6.744,4.844,10.302c8.542,19.435,13.464,38.142,16.223,54.939c0.478,1.978,1.812,3.396,3.047,3.426
	c1.676,0.041,2.853-4.056,3.235-5.332c0.605-2.024,0.688-3.631,0.694-3.757c0.647-12.706,0.971-19.059,0.747-21.742
	c-0.547-6.571-0.603-19.79,1.456-48.808c0.127-0.568,1.438-6,6.625-8.182c5.974-2.513,11.373,1.693,11.703,1.959
	c3.814,3.077,4.592,7.997,5.093,11.166c0.224,1.415,0.267,2.521,0.279,2.914c0.242,7.854-1.987,57.451-2.504,68.858
	c-0.183,1.024,0.31,2.032,1.18,2.467c0.717,0.359,1.595,0.281,2.285-0.191c0.483-1.138,0.966-2.275,1.449-3.413
	c7.182-22.257,14.363-44.513,21.545-66.77c3.325-4.371,9.005-6.115,13.898-4.384c5.588,1.978,9.048,8.1,7.782,14.321
	c-7.286,23.192-14.572,46.383-21.859,69.575c-0.568,0.97-0.484,2.084,0.118,2.68c0.89,0.881,2.45,0.171,2.644,0.08
	c1.219-0.575,1.704-1.773,2.13-2.674c0.937-1.981,2.541-3.577,3.667-5.457c1.44-2.404,9.2-12.43,31.212-39.422
	c4.401-2.115,9.699-1.136,13.05,2.412c3.357,3.554,4.029,8.912,1.652,13.188c-11.182,14.769-22.365,29.538-33.547,44.307
	c1.025,9.206,1.534,24.506-3.721,42.255c-6.428,21.708-18.234,36.117-24.965,43.235c-0.893,1.88-1.786,3.76-2.678,5.64
	c-0.365,1.666-0.9,4.285-1.389,7.514c-2.003,13.225-1.15,23.137-0.84,28.882c0.422,7.821,0.456,19.185-1.487,33.799
	C502.145,527.035,474.328,544.326,446.512,561.618z"/>
<path id="XMLID_4_" class="st0" d="M268.336,592.065c2.206-87.873,4.412-175.746,6.618-263.619
	c-48.964-32.998-62.927-59.769-65.728-79.025c-0.391-2.687-0.574-5.297-1.685-9.299c-7.87-28.35-39.332-43.901-66.228-52.771
	c-1.651-0.666-3.492-1.764-4.177-3.618c-2.025-5.479,7.19-14.434,13.675-18.165c21.531-12.388,54.786,8.749,61.836,13.23
	c8.948,5.687,23.161,16.548,35.433,35.943c2.914-13.49,5.261-31.003,4.349-51.369c-1.532-34.217-11.574-61.054-19.397-77.585
	c-2.723-4.345-7.038-12.582-7.688-23.577c-0.446-7.556-1.151-19.473,6.494-24.227c6.399-3.979,16.737-1.749,25.025,5.602
	c2.96,5.352,5.861,10.909,8.678,16.675c15.387,31.498,24.754,62.036,30.425,89.566c0.921,3.232,3.215,5.482,5.256,5.45
	c2.768-0.043,4.438-6.883,4.983-9.013c0.864-3.379,0.894-6.036,0.896-6.245c0.222-21.008,0.333-31.511-0.215-35.923
	c-1.341-10.805-2.312-32.613-0.847-80.627c0.172-0.946,1.974-9.996,10.386-13.941c9.69-4.544,18.877,2.036,19.439,2.453
	c6.498,4.823,8.109,12.888,9.147,18.084c0.463,2.32,0.609,4.142,0.655,4.79c0.921,12.942,0.546,94.923,0.452,113.779
	c-0.234,1.702,0.646,3.332,2.111,3.993c1.207,0.544,2.651,0.357,3.757-0.467c0.721-1.909,1.442-3.818,2.163-5.728
	c10.367-37.2,20.735-74.401,31.102-111.601c5.195-7.433,14.45-10.69,22.638-8.158c9.352,2.891,15.467,12.762,13.793,23.111
	c-10.478,38.75-20.956,77.5-31.433,116.25c-0.872,1.638-0.66,3.471,0.373,4.414c1.527,1.394,4.053,0.119,4.367-0.044
	c1.973-1.03,2.694-3.039,3.337-4.553c1.414-3.331,3.954-6.071,5.687-9.247c2.216-4.062,14.352-21.121,48.874-67.122
	c7.121-3.783,15.928-2.519,21.693,3.111c5.776,5.641,7.24,14.436,3.604,21.65c-17.467,25.113-34.934,50.225-52.4,75.338
	c2.304,15.12,4.163,40.332-3.327,69.965c-9.16,36.245-27.68,60.805-38.312,72.998c-1.348,3.161-2.696,6.322-4.044,9.483
	c-0.443,2.601-1.15,7.009-1.791,12.49c-2.856,24.403-1.268,43.185-0.587,51.481c2.066,25.168,6.998,90.462,14.66,178.176
	C351.034,586.803,309.685,589.434,268.336,592.065z"/>
<path id="XMLID_6_" class="st0" d="M137.524,381.187"/>
</svg>
