<?xml version="1.0" encoding="utf-8"?>
<!-- Generator: Adobe Illustrator 22.0.1, SVG Export Plug-In . SVG Version: 6.00 Build 0)  -->
<svg version="1.1" id="Layer_1" xmlns="http://www.w3.org/2000/svg" xmlns:xlink="http://www.w3.org/1999/xlink" x="0px" y="0px"
	 viewBox="0 0 588.6 627.9" style="enable-background:new 0 0 588.6 627.9;" xml:space="preserve">
<style type="text/css">
	.st0{fill:#FFFFFF;}
	.st1{fill:#3F95E9;}
	.st2{fill:#040404;}
</style>
<circle class="st0" cx="294.3" cy="314" r="289.6"/>
<g id="Layer_x0020_1">
	<g id="_2401625846896">
		<path class="st1" d="M129.7,360.2c0,10.7,6.1,20.2,16.7,20.2c20.1,0,33.4-5.9,50.5-13.8c18.7-8.7,34-17.6,51.8-28.3
			c4.4-2.6,10.3-5.3,11.3-9c-8,0.7-48.2,19.1-67.2,10c-21.7-10.5,20.4-62.6,26.6-70.8l14.9-17.7c2.1-2.3,3.8-2.9,6.2-5.3
			c28.7-28.4,117.5-99.7,157.2-78.4c2.5,1.3,4,2.6,6.2,4.3c2.5,1.9,3.5,4,6.7,4.8c6.1-11.5,9.8-37.8-14.1-37.8
			c-29.5,0-65.3,21.2-90.6,34.3c-10.6,5.5-27.8,16.2-37.9,22.9c-15.1,10-46.4,33.6-59.2,46.4c-2.7,2.7-4.8,5-7.7,7.3
			c-2.9,2.2-5.1,4.6-7.7,7.2c-2.8,2.8-4,5-7,7.9C168.5,282,129.7,333.3,129.7,360.2L129.7,360.2z"/>
		<path class="st2" d="M291.7,310.9c2.4,1.1,3.4,0.1,6-1l20-8.2c8.1-2.8,40.1-12.6,49-2.6c11.4,12.7-2.4,39.2-9.1,48.7L342,366.5
			c-3.9,3.8-4.8,6.2-11,11.9L306.8,400c-2.1,1.8-4.2,3.5-6.2,5.2c-22.5,18.3-68.2,50.8-93.8,66.4c-4.4,2.7-26,15.5-27.8,18
			c8.7,0,32-13.4,39.9-17.3c20.6-10.3,55.7-29.3,74.7-41.5c6.2-4,11.6-7.1,17.8-11.3c6.1-4.1,11.5-7.7,17.2-11.8
			c11.3-8,21.9-16.7,32.7-25.4c1.5-1.2,2.1-2.1,3.7-3.4c19.9-16.8,37.7-35.3,51.3-57.8c7.2-12,27.8-55.7,2-64.7
			c-20.7-7.2-58.8,12.8-73,21l-27.4,15.7C313.3,296,293.7,308,291.7,310.9L291.7,310.9z"/>
		<path class="st2" d="M389.4,216.7c0,10.5,10.9,18.8,20.6,21.7c34.8,10.2,66.2-20,38.2-38.2C427.2,186.4,389.3,196.2,389.4,216.7
			L389.4,216.7z"/>
	</g>
</g>
</svg>
