<svg xmlns="http://www.w3.org/2000/svg" viewBox="0 0 2550 1182" enable-background="new 0 0 2550 1182"><style type="text/css">.st0{opacity:0.1086;fill:#FFFFFF;enable-background:new ;}</style><g id="Page-1"><path id="Combined-Shape" class="st0" d="M530.4 807.6l-39.5 16.1-1.9-4.6 39.5-16.1 1.9 4.6zm12.7 31.3l-39.5 16.1-1.9-4.6 39.5-16.1 1.9 4.6zm-19.4-10.3l-26.4 10.8-1.9-4.6 26.4-10.8 1.9 4.6z"/><path id="B" class="st0" d="M728 783l7.6 7.8c3.5 3.6 5.5 6.7 6.1 9.3.6 2.6-.2 4.9-2.4 7-1.5 1.4-3.1 2.2-4.8 2.3s-3.4-.4-5.1-1.7l-.2.2c1.5 2.2 2.1 4.2 2 6-.1 1.8-1 3.5-2.7 5.1-2.2 2.2-4.8 3.1-7.7 2.6-2.9-.4-5.7-2.1-8.6-5.1l-9.2-9.5 25-24zm-6.2 14.3l4 4.2c1.7 1.8 3.3 2.9 4.6 3.2 1.3.3 2.7-.2 4-1.4 1.2-1.1 1.6-2.4 1.3-3.8-.3-1.4-1.5-3.1-3.3-5l-3.6-3.7-7 6.5zm-3.3 3.2l-7.9 7.7 4.4 4.6c1.7 1.8 3.4 2.8 4.9 3.1s3-.3 4.4-1.6c1.3-1.3 1.8-2.7 1.5-4.2-.3-1.5-1.3-3.3-3.2-5.2l-4.1-4.4z"/><path id="Combined-Shape_1_" class="st0" d="M716.6 271.5l28.8-2.1.2 3.2-28.8 2.1-.2-3.2zm-1.6-22.4l28.8-2.1.2 3.2-28.8 2.1-.2-3.2zm15.2 10.1l14.4-1 .2 3.2-14.4 1-.2-3.2zm-4.7 2l-9.3 5.5-.7-9.6 10 4.1z"/><path id="Combined-Shape_2_" class="st0" d="M538.2 296l12.9 31.1c1.5 3.5 2 7 1.5 10.3-.4 3.3-1.8 6.3-4.2 8.9s-5.5 4.8-9.5 6.5c-6 2.5-11.4 2.9-16 1.1-4.7-1.8-8.1-5.4-10.4-10.9l-12.8-31 9.9-4.1 12.2 29.4c1.5 3.7 3.4 6.1 5.6 7.2 2.2 1.1 4.9 1 8.3-.4 3.3-1.4 5.3-3.2 6-5.6.7-2.4.3-5.4-1.2-9.1l-12.2-29.3 9.9-4.1zm-20.7 74.8l49.4-20.5 3.5 8.4-49.4 20.5-3.5-8.4z"/><path id="Rectangle-21-Copy" class="st0" d="M1075.2 189.2c.4 3.5 3.5 6 7 5.7 3.5-.4 6-3.5 5.7-7-.4-3.5-3.5-6-7-5.7-3.5.4-6 3.5-5.7 7zm-3.2.3c-.5-5.2 3.3-9.9 8.5-10.5 5.2-.5 9.9 3.3 10.4 8.5s-3.3 9.9-8.5 10.5c-5.2.6-9.8-3.3-10.4-8.5z"/><path id="Rectangle-21-Copy-Copy-2" class="st0" d="M1708.5 502.2c.4 3.9 3.8 6.7 7.7 6.3 3.8-.4 6.6-3.8 6.3-7.7-.4-3.9-3.8-6.7-7.7-6.3-3.9.4-6.7 3.9-6.3 7.7zm-3.4.4c-.6-5.8 3.6-10.9 9.4-11.5 5.8-.6 10.9 3.6 11.5 9.4s-3.6 10.9-9.4 11.5c-5.8.6-11-3.6-11.5-9.4z"/><path id="Combined-Shape_3_" class="st0" d="M2059.3 762.8l25.5 10 4.1-10.4-25.5-10 4.1-10.4-26.5 7.6 14.3 23.6 4-10.4zm48.3 12.9l-26.9 7.5 12.2-31.2 14.7 23.7z"/><path id="Combined-Shape_4_" class="st0" d="M1531.5 190.3l19.8-9.7 1.4 2.8-19.8 9.7-1.4-2.8zm-11-22.6l19.8-9.7 1.4 2.8-19.8 9.7-1.4-2.8zm4.8 9.9l19.8-9.7 1.4 2.8-19.8 9.7-1.4-2.8zm-2.3 16.9l2.8-1.4 1.4 2.8-2.8 1.4-1.4-2.8zm-11-22.6l2.8-1.4 1.4 2.8-2.8 1.4-1.4-2.8zm4.8 9.9l2.8-1.4 1.4 2.8-2.8 1.4-1.4-2.8z"/><path id="Aa" class="st0" d="M1875.9 741.6l-4.6-7.1-10.6 2.5-.9 8.3-4.8 1.1 3.9-30.3 4.9-1.2 16.9 25.4-4.8 1.3zm-6.7-10.7l-4.4-6.9c-.3-.5-.8-1.2-1.3-2.2-.6-1-1-1.8-1.3-2.2 0 1.6-.1 3.5-.3 5.5l-.8 7.8 8.1-2zm27.3 5.8l-1.3-2.2h-.1c-.6 1.2-1.2 2.1-2 2.7-.7.6-1.8 1-3.1 1.3-1.7.4-3.1.2-4.3-.4-1.2-.7-1.9-1.9-2.3-3.5-.4-1.8-.1-3.3 1-4.5 1.1-1.2 3-2.2 5.7-2.9l2.9-.8-.2-.9c-.3-1.1-.7-1.9-1.3-2.3-.6-.4-1.5-.5-2.6-.3-.9.2-1.7.5-2.4 1-.7.4-1.5.9-2.1 1.5l-1.8-2.3c.8-.7 1.7-1.3 2.8-1.8 1-.5 2.1-.9 3-1.1 2.2-.5 3.9-.4 5.3.3 1.3.7 2.2 2.1 2.7 4.1l2.7 11.6-2.6.5zm-6-1.2c1.3-.3 2.3-.9 2.9-1.9.6-.9.8-2.1.5-3.4l-.3-1.5-2.2.6c-1.7.5-2.9 1-3.5 1.7-.7.7-.9 1.6-.6 2.6.2.8.5 1.3 1.1 1.6.4.5 1.2.5 2.1.3z"/><path id="Rectangle-21-Copy-3" class="st0" d="M2022.8 242.9c-5.5-3.5-12.8-2-16.3 3.5s-2 12.8 3.5 16.4c5.5 3.5 12.8 2 16.3-3.5s2-12.9-3.5-16.4zm6.1-10.2c10.8 7 13.9 21.4 7 32.3-7 10.8-21.4 14-32.2 7-10.8-7-13.9-21.4-7-32.3 7-10.8 21.4-14 32.2-7z"/></g></svg>