<?xml version="1.0" encoding="utf-8"?>
<!-- Generator: Adobe Illustrator 19.0.0, SVG Export Plug-In . SVG Version: 6.00 Build 0)  -->
<svg version="1.1" xmlns="http://www.w3.org/2000/svg" xmlns:xlink="http://www.w3.org/1999/xlink" x="0px" y="0px" width="600px"
	 height="600px" viewBox="0 0 600 600" style="enable-background:new 0 0 600 600;" xml:space="preserve">
<style type="text/css">
	.st0{fill:#03A9F4;stroke:#03A9F4;stroke-width:5;stroke-miterlimit:10;}
</style>
<g id="Layer_2">
	<path id="XMLID_1_" class="st0" d="M16.293,416.865c0.782-8.044,3.202-20.04,10.891-30.97c3.43-4.876,6.685-7.8,7.487-8.508
		c6.122-5.403,12.042-7.638,19.059-10.21c5.838-2.14,7.885-2.322,25.865-7.828c4.63-1.418,5.906-1.838,7.487-3.063
		c6.964-5.394,6.999-16.442,6.466-22.802c-3.945,0.195-8.548,0.086-13.613-0.681c-12.363-1.87-21.745-6.785-27.567-10.55
		c2.164-3.595,5.08-9.025,7.487-15.996c4.475-12.957,4.189-22.542,4.084-44.584c-0.177-37.092,0.482-41.327,2.042-46.626
		c2.43-8.255,6.152-20.305,17.357-29.269c10.208-8.166,21.262-9.479,30.29-10.55c8.831-1.049,22.544-2.677,37.437,4.765
		c16.335,8.162,23.719,22.053,25.865,26.546c4.374,9.153,4.844,17.787,5.786,35.054c1.108,20.33-1.068,24.616,0,37.777
		c0.821,10.119,3.497,24.716,12.252,42.201c-2.919,2.203-6.424,4.461-10.55,6.466c-12.633,6.14-24.616,6.766-31.991,6.466
		c0.113,5.332,0.227,10.664,0.34,15.996c0.421,1.239,1.199,2.943,2.723,4.424c2.367,2.302,5.129,2.704,8.508,3.403
		c2.454,0.508,5.834,1.473,12.592,3.403c9.885,2.823,11.609,4.369,12.252,6.126c0.65,1.776,0.134,3.597-0.34,4.765
		c-1.74,0.201-4.208,0.521-7.147,1.021c-8.388,1.426-18.418,3.132-28.588,8.168c-13.546,6.707-21.617,16.489-26.546,22.462
		c-4.01,4.86-6.9,9.305-8.849,12.592C83.679,416.865,49.986,416.865,16.293,416.865z"/>
	<path id="XMLID_3_" class="st0" d="M582.347,416.33c-0.782-8.044-3.202-20.04-10.891-30.97c-3.43-4.876-6.685-7.8-7.487-8.508
		c-6.122-5.403-12.042-7.638-19.059-10.21c-5.838-2.14-7.885-2.322-25.865-7.828c-4.63-1.418-5.906-1.838-7.487-3.063
		c-6.964-5.394-6.999-16.442-6.466-22.802c3.945,0.195,8.548,0.086,13.613-0.681c12.363-1.87,21.745-6.785,27.567-10.55
		c-2.164-3.595-5.08-9.025-7.487-15.996c-4.475-12.957-4.189-22.542-4.084-44.584c0.177-37.092-0.482-41.327-2.042-46.626
		c-2.43-8.255-6.152-20.305-17.357-29.269c-10.208-8.166-21.262-9.479-30.29-10.55c-8.831-1.049-22.544-2.677-37.437,4.765
		c-16.335,8.162-23.719,22.053-25.865,26.546c-4.374,9.153-4.844,17.787-5.786,35.054c-1.108,20.33,1.068,24.616,0,37.777
		c-0.821,10.119-3.497,24.716-12.252,42.201c2.919,2.203,6.424,4.461,10.55,6.466c12.633,6.14,24.616,6.766,31.991,6.466
		c-0.113,5.332-0.227,10.664-0.34,15.996c-0.421,1.239-1.199,2.943-2.723,4.424c-2.367,2.302-5.129,2.704-8.508,3.403
		c-2.454,0.508-5.834,1.473-12.592,3.403c-9.885,2.823-11.609,4.369-12.252,6.126c-0.65,1.776-0.134,3.597,0.34,4.765
		c1.74,0.201,4.208,0.521,7.147,1.021c8.388,1.426,18.418,3.132,28.588,8.168c13.546,6.707,21.617,16.489,26.546,22.462
		c4.01,4.86,6.9,9.305,8.849,12.592C514.961,416.33,548.654,416.33,582.347,416.33z"/>
</g>
<g id="Layer_3">
	<path id="XMLID_5_" class="st0" d="M125.346,477.654c0.371-7.727,2.959-47.335,30.769-68.269
		c13.028-9.806,28.846-14.423,28.846-14.423c4.946-1.443,6.113-1.305,33.654-5.769c17.098-2.771,23.501-3.935,28.846-9.615
		c4.072-4.327,5.573-9.196,6.952-13.667c3.447-11.179,2.247-20.939,1.168-26.269c-1.601-1.504-3.167-3.152-4.67-4.962
		c-12.83-15.448-14.279-34.473-14.01-45.533c-0.821-0.193-2.125-0.589-3.503-1.459c-2.469-1.56-3.72-3.722-4.378-4.962
		c-3.518-6.624-3.708-12.438-7.297-21.891c-1.358-3.577-1.549-3.32-2.335-5.838c-1.417-4.539-3.524-11.291-0.292-16.637
		c0.681-1.126,2.015-2.878,4.67-4.378c0.08-0.683,0.183-1.95,0-3.503c-0.452-3.836-2.308-6.51-2.627-7.005
		c-2.493-3.867-6.803-22.974-3.211-43.198c1.043-5.873,5.382-28.582,24.518-46.408c24.725-23.032,61.855-26.464,90.482-15.178
		c6.73,2.653,31.513,12.425,42.322,36.193c14.442,31.756-0.874,77.919-0.876,77.931c1.364,0.084,3.864,0.46,5.546,2.335
		c2.027,2.26,1.749,5.457,1.459,7.881c-1.061,8.883-2.942,12.921-4.378,19.556c-2.191,10.126-0.378,12.59-3.503,17.221
		c-2.773,4.11-6.915,6.189-9.924,7.297c-0.264,1.961-0.663,4.9-1.168,8.464c-2.051,14.504-3.103,21.828-4.378,25.393
		c-1.672,4.674-5.31,11.656-14.302,18.68c0.357,3.637,0.933,9.228,1.751,16.053c1.482,12.359,2.223,18.539,2.919,20.14
		c5.308,12.208,26.149,8.848,53.414,16.053c11.338,2.996,37.25,9.844,54.581,29.48c5.578,6.319,18.824,23.658,19.556,56.04
		C359.081,477.489,242.213,477.572,125.346,477.654z"/>
</g>
</svg>
