<svg version="1.1" xmlns="http://www.w3.org/2000/svg" xmlns:xlink="http://www.w3.org/1999/xlink" x="0px" y="0px"
	 width="537.154px" height="537.154px" viewBox="0 0 537.154 537.154" style="enable-background:new 0 0 537.154 537.154;"
	 xml:space="preserve">
<style type="text/css">
	.st0{stroke:#03A9F4;fill:#03A9F4;stroke-width:2;stroke-miterlimit:10;}
	.st1{stroke:#fff;fill:#fff;stroke-width:2;stroke-miterlimit:10;}
</style>
<defs>
	<style>
		.st0 .st1 {
		  stroke-dasharray: 1000;
		  stroke-dashoffset: 1000;
		  animation: dash 5s linear alternate infinite;
		}

		@keyframes dash {
		  from {
		    stroke-dashoffset: 1000;
		  }
		  to {
		    stroke-dashoffset: 0;
		  }
		}
	</style>
</defs>

<g id="s_x5F_u">
	<path id="XMLID_1_" class="st0" d="M428.539,66.423c2.983-5.758,5.996-13.898,6.171-23.765c0.115-6.483,0.352-13.407-4.258-19.304
		c-3.535-4.522-8.15-6.218-12.679-7.882c-2.055-0.755-9.259-3.223-23.462-2.3c-10.942,0.711-19.095,2.983-21.184,3.578
		c-25.834,7.356-49.998,19.839-51.311,20.524c-25.697,13.408-38.546,20.113-56.908,31.719
		c-27.829,17.591-67.518,42.954-111.998,84.583c0,0-38.401,35.94-67.101,74.177c-3.425,4.563-6.57,9.022-6.899,9.489
		c-15.842,22.487-24.759,40.1-29.438,50.128c0,0-5.845,12.559-9.652,29.524c-0.224,0.998-0.702,3.223-0.762,6.176
		c-0.058,2.859-0.101,8.453,3.253,13.989c0.422,0.697,2.465,3.979,6.507,6.832c4.153,2.931,8.95,4.375,14.565,4.799
		c16.657,1.258,37.179-6.723,38.893-7.381c21.947-8.427,32.921-12.641,43.151-17.885c18.332-9.398,43.884-23.653,74.095-44.287
		c-15.974,5.259-30.486,9.441-43.151,12.775c-3.854,1.015-17.734,4.559-34.918,3.691c-5.91-0.299-10.248-1.02-14.194-3.974
		c-7.219-5.405-8.342-14.932-8.801-19.304c-1.95-18.583,8.333-35.486,16.394-47.537c26.257-39.253,53.888-64.316,59.154-69.032
		c17.64-15.796,35.555-28.876,48.264-38.156c5.898-4.307,14.52-10.586,26.365-18.447c0,0,25.572-17.009,65.011-38.041
		c4.425-2.36,16.408-8.646,33.215-12.491c11.137-2.548,23.045-5.119,36.054-0.568c8.972,3.139,15.992,8.799,17.033,9.652
		C423.785,60.846,426.599,63.983,428.539,66.423z"/>
</g>
<g id="s_x5F_b">
	<path id="XMLID_5_" class="st1" d="M263.224,253.819c19.265-14.737,36.622-25.995,50.353-34.242
		c21.901-13.154,36.527-19.71,65.779-32.82c2.444-1.095,16.316-7.679,35.576-10.632c13.395-2.054,20.805-3.079,28.215,1.227
		c8.73,5.073,11.931,14.429,13.494,19.219c6.411,19.639-0.693,39.03-5.064,49.006c-22.114,50.482-77.14,94.716-91.511,106.093
		c-31.739,25.126-59.553,47.145-107.065,76.347c-76.122,46.787-150.98,80.158-152.525,77.285
		c-0.653-1.214,12.703-8.689,47.843-31.486c14.23-9.231,60.498-39.529,111.634-77.285c9.386-6.93,38.885-28.857,72.624-60.953
		c5.425-5.161,23.917-23.078,36.965-51.498c12.399-27.006,7.338-36.392,5.725-39.256c-5.417-9.614-19.14-13.094-22.081-13.903
		c-4.025-1.108-7.842-1.56-12.267-1.636c-13.269-0.227-24.854,3.039-44.572,10.632C287.445,243.344,276.166,247.931,263.224,253.819
		z"/>
</g>
<g id="i">
	<path id="XMLID_6_" class="st1" d="M432.156,91.874c-15.997,4.078-27.855,13.739-30.165,24.586
		c-1.685,7.913,0.826,14.256,0.826,14.256c1.751,4.422,4.543,7.139,7.025,9.504c1.272,1.212,5.848,5.412,14.081,8.799
		c11,4.526,20.722,4.389,27.328,4.229c4.258-0.103,9.862-0.276,16.917-2.277c5.418-1.537,12.009-3.407,18.119-9.098
		c2.351-2.19,7.457-6.946,9.091-14.463c2.274-10.465-3.684-19.376-5.372-21.9C480.7,91.591,457.653,86.406,432.156,91.874z"/>
</g>
</svg>
